<?xml version="1.0" encoding="UTF-8" standalone="no"?><svg xmlns="http://www.w3.org/2000/svg" xmlns:xlink="http://www.w3.org/1999/xlink" clip-rule="evenodd" stroke-miterlimit="10" viewBox="0 0 337 71"><desc>SVG generated by Keynote</desc><defs></defs><g transform="matrix(1.00, 0.00, -0.00, -1.00, 0.0, 71.0)"><g><clipPath id="clip0x7fb6c752a6d0"><path d="M 4.7 4.8 L 331.2 4.8 L 331.2 66.2 L 4.7 66.2 Z M 4.7 4.8 "></path></clipPath><g clip-path="url(#clip0x7fb6c752a6d0)"><text xml:space="preserve" font-family="Helvetica,Helvetica" font-size="10.0" fill="#000000" transform="matrix(2.71, 0.00, -0.00, -2.73, 2.5, 29.4)">1</text><text xml:space="preserve" font-family="Helvetica,Helvetica" font-size="10.0" fill="#000000" transform="matrix(2.71, 0.00, -0.00, -2.73, 17.5, 29.4)">8</text><text xml:space="preserve" font-family="Helvetica,Helvetica" font-size="7.0" fill="#000000" transform="matrix(2.71, 0.00, -0.00, -2.73, 37.0, 40.6)">k</text><text xml:space="preserve" font-family="Helvetica,Helvetica" font-size="7.0" fill="#000000" transform="matrix(2.71, 0.00, -0.00, -2.73, 46.9, 40.6)">m</text><text xml:space="preserve" font-family="Helvetica,Helvetica" font-size="10.0" fill="#000000" transform="matrix(2.71, 0.00, -0.00, -2.73, 69.4, 29.4)">/</text><text xml:space="preserve" font-family="Helvetica,Helvetica" font-size="7.0" fill="#000000" transform="matrix(2.71, 0.00, -0.00, -2.73, 82.9, 25.3)">h</text><text xml:space="preserve" font-family="Helvetica,Helvetica" font-size="10.0" fill="#000000" transform="matrix(2.71, 0.00, -0.00, -2.73, 104.4, 29.4)">=</text><text xml:space="preserve" font-family="Helvetica,Helvetica" font-size="10.0" fill="#000000" transform="matrix(2.71, 0.00, -0.00, -2.73, 142.1, 47.8)">1</text><text xml:space="preserve" font-family="Helvetica,Helvetica" font-size="10.0" fill="#000000" transform="matrix(2.71, 0.00, -0.00, -2.73, 157.1, 47.8)">8</text><path d="M 0.0 0.0 L 14.4 0.0 " fill="none" stroke="#000000" stroke-width="0.40" transform="matrix(2.71, 0.00, 0.00, 2.73, 136.1, 36.2)"></path><text xml:space="preserve" font-family="Helvetica,Helvetica" font-size="10.0" fill="#000000" transform="matrix(2.71, 0.00, -0.00, -2.73, 136.1, 10.7)">3</text><text xml:space="preserve" font-family="Helvetica,Helvetica" font-size="10.0" fill="#000000" transform="matrix(2.71, 0.00, -0.00, -2.73, 149.6, 10.7)">,</text><text xml:space="preserve" font-family="Helvetica,Helvetica" font-size="10.0" fill="#000000" transform="matrix(2.71, 0.00, -0.00, -2.73, 161.6, 10.7)">6</text><text xml:space="preserve" font-family="Helvetica,Helvetica" font-size="7.0" fill="#000000" transform="matrix(2.71, 0.00, -0.00, -2.73, 185.8, 40.6)">m</text><text xml:space="preserve" font-family="Helvetica,Helvetica" font-size="10.0" fill="#000000" transform="matrix(2.71, 0.00, -0.00, -2.73, 206.3, 29.4)">/</text><text xml:space="preserve" font-family="Helvetica,Helvetica" font-size="7.0" fill="#000000" transform="matrix(2.71, 0.00, -0.00, -2.73, 219.8, 25.3)">s</text><text xml:space="preserve" font-family="Helvetica,Helvetica" font-size="10.0" fill="#000000" transform="matrix(2.71, 0.00, -0.00, -2.73, 238.8, 29.4)">=</text><text xml:space="preserve" font-family="Helvetica,Helvetica" font-size="10.0" fill="#000000" transform="matrix(2.71, 0.00, -0.00, -2.73, 262.1, 29.4)">5</text><text xml:space="preserve" font-family="Helvetica,Helvetica" font-size="7.0" fill="#000000" transform="matrix(2.71, 0.00, -0.00, -2.73, 288.2, 40.6)">m</text><text xml:space="preserve" font-family="Helvetica,Helvetica" font-size="10.0" fill="#000000" transform="matrix(2.71, 0.00, -0.00, -2.73, 308.7, 29.4)">/</text><text xml:space="preserve" font-family="Helvetica,Helvetica" font-size="7.0" fill="#000000" transform="matrix(2.71, 0.00, -0.00, -2.73, 322.2, 25.3)">s</text></g></g></g></svg>