<?xml version="1.0" encoding="UTF-8" standalone="no"?><svg xmlns="http://www.w3.org/2000/svg" xmlns:xlink="http://www.w3.org/1999/xlink" clip-rule="evenodd" stroke-miterlimit="10" viewBox="0 0 185 258"><desc>SVG generated by Keynote</desc><defs></defs><g transform="matrix(1.00, 0.00, -0.00, -1.00, 0.0, 258.0)"><g><clipPath id="clip0x7fda2da22010"><path d="M 3.3 0.6 L 184.0 0.6 L 184.0 70.9 L 3.3 70.9 Z M 3.3 0.6 "></path></clipPath><g clip-path="url(#clip0x7fda2da22010)"><path d="M 7.3 16.2 L 90.9 68.9 L 181.1 50.5 L 138.1 2.7 L 7.3 16.2 Z M 7.3 16.2 " fill="#6FBF40"></path><path d="M 0.0 52.7 L 83.6 0.0 L 173.8 18.4 L 130.8 66.2 L 0.0 52.7 Z M 0.0 52.7 " fill="none" stroke="#000000" stroke-width="2.00" transform="matrix(1.00, 0.00, 0.00, -1.00, 7.3, 68.9)"></path></g></g><g><clipPath id="clip0x7fda2da23890"><path d="M 0.5 1.8 L 185.0 1.8 L 185.0 257.8 L 0.5 257.8 Z M 0.5 1.8 "></path></clipPath><g clip-path="url(#clip0x7fda2da23890)"><image xlink:href="../../A06AD735-583D-4FCC-9B39-9CBC8599EAFC/assets/8AC0314580A489D3E222B1AE8CD83C00.png" width="461.00" height="640.00" transform="matrix(0.40, 0.00, -0.00, -0.40, 1.0, 258.0)"></image></g></g></g></svg>