<?xml version="1.0" encoding="UTF-8" standalone="no"?><svg xmlns="http://www.w3.org/2000/svg" xmlns:xlink="http://www.w3.org/1999/xlink" clip-rule="evenodd" stroke-miterlimit="10" viewBox="0 0 1024 768"><desc>SVG generated by Keynote</desc><defs></defs><g transform="matrix(1.00, 0.00, -0.00, -1.00, 0.0, 768.0)"><path d="M 0.0 768.0 L 1024.0 768.0 L 1024.0 0.0 L 0.0 0.0 Z M 0.0 768.0 " fill="#FEFFFF"></path><text xml:space="preserve" font-family="Georgia,Georgia" font-size="65.0" fill="#000000" transform="matrix(1.00, 0.00, -0.00, -1.00, 215.8, 677.3)">L</text><text xml:space="preserve" font-family="Georgia,Georgia" font-size="65.0" fill="#000000" transform="matrix(1.00, 0.00, -0.00, -1.00, 255.0, 677.3)">ä</text><text xml:space="preserve" font-family="Georgia,Georgia" font-size="65.0" fill="#000000" transform="matrix(1.00, 0.00, -0.00, -1.00, 287.8, 677.3)">m</text><text xml:space="preserve" font-family="Georgia,Georgia" font-size="65.0" fill="#000000" transform="matrix(1.00, 0.00, -0.00, -1.00, 345.0, 677.3)">p</text><text xml:space="preserve" font-family="Georgia,Georgia" font-size="65.0" fill="#000000" transform="matrix(1.00, 0.00, -0.00, -1.00, 382.2, 677.3)">ö</text><text xml:space="preserve" font-family="Georgia,Georgia" font-size="65.0" fill="#000000" transform="matrix(1.00, 0.00, -0.00, -1.00, 417.2, 677.3)">e</text><text xml:space="preserve" font-family="Georgia,Georgia" font-size="65.0" fill="#000000" transform="matrix(1.00, 0.00, -0.00, -1.00, 448.7, 677.3)">n</text><text xml:space="preserve" font-family="Georgia,Georgia" font-size="65.0" fill="#000000" transform="matrix(1.00, 0.00, -0.00, -1.00, 487.1, 677.3)">e</text><text xml:space="preserve" font-family="Georgia,Georgia" font-size="65.0" fill="#000000" transform="matrix(1.00, 0.00, -0.00, -1.00, 518.5, 677.3)">r</text><text xml:space="preserve" font-family="Georgia,Georgia" font-size="65.0" fill="#000000" transform="matrix(1.00, 0.00, -0.00, -1.00, 545.1, 677.3)">g</text><text xml:space="preserve" font-family="Georgia,Georgia" font-size="65.0" fill="#000000" transform="matrix(1.00, 0.00, -0.00, -1.00, 578.2, 677.3)">i</text><text xml:space="preserve" font-family="Georgia,Georgia" font-size="65.0" fill="#000000" transform="matrix(1.00, 0.00, -0.00, -1.00, 597.3, 677.3)">a</text><text xml:space="preserve" font-family="Georgia,Georgia" font-size="65.0" fill="#000000" transform="matrix(1.00, 0.00, -0.00, -1.00, 630.0, 677.3)"> </text><text xml:space="preserve" font-family="Georgia,Georgia" font-size="65.0" fill="#000000" transform="matrix(1.00, 0.00, -0.00, -1.00, 645.7, 677.3)">s</text><text xml:space="preserve" font-family="Georgia,Georgia" font-size="65.0" fill="#000000" transform="matrix(1.00, 0.00, -0.00, -1.00, 673.8, 677.3)">ä</text><text xml:space="preserve" font-family="Georgia,Georgia" font-size="65.0" fill="#000000" transform="matrix(1.00, 0.00, -0.00, -1.00, 706.6, 677.3)">i</text><text xml:space="preserve" font-family="Georgia,Georgia" font-size="65.0" fill="#000000" transform="matrix(1.00, 0.00, -0.00, -1.00, 725.6, 677.3)">l</text><text xml:space="preserve" font-family="Georgia,Georgia" font-size="65.0" fill="#000000" transform="matrix(1.00, 0.00, -0.00, -1.00, 744.2, 677.3)">y</text><text xml:space="preserve" font-family="Georgia,Georgia" font-size="65.0" fill="#000000" transform="matrix(1.00, 0.00, -0.00, -1.00, 776.2, 677.3)">y</text><text xml:space="preserve" font-family="Georgia,Georgia" font-size="27.0" fill="#000000" transform="matrix(1.00, 0.00, -0.00, -1.00, 79.0, 599.9)">•</text><text xml:space="preserve" font-family="Georgia,Georgia" font-size="36.0" fill="#000000" transform="matrix(1.00, 0.00, -0.00, -1.00, 114.0, 596.9)">K</text><text xml:space="preserve" font-family="Georgia,Georgia" font-size="36.0" fill="#000000" transform="matrix(1.00, 0.00, -0.00, -1.00, 139.0, 596.9)">u</text><text xml:space="preserve" font-family="Georgia,Georgia" font-size="36.0" fill="#000000" transform="matrix(1.00, 0.00, -0.00, -1.00, 159.7, 596.9)">n</text><text xml:space="preserve" font-family="Georgia,Georgia" font-size="36.0" fill="#000000" transform="matrix(1.00, 0.00, -0.00, -1.00, 181.0, 596.9)"> </text><text xml:space="preserve" font-family="Georgia,Georgia" font-size="36.0" fill="#000000" transform="matrix(1.00, 0.00, -0.00, -1.00, 189.7, 596.9)">k</text><text xml:space="preserve" font-family="Georgia,Georgia" font-size="36.0" fill="#000000" transform="matrix(1.00, 0.00, -0.00, -1.00, 208.9, 596.9)">a</text><text xml:space="preserve" font-family="Georgia,Georgia" font-size="36.0" fill="#000000" transform="matrix(1.00, 0.00, -0.00, -1.00, 227.1, 596.9)">k</text><text xml:space="preserve" font-family="Georgia,Georgia" font-size="36.0" fill="#000000" transform="matrix(1.00, 0.00, -0.00, -1.00, 246.3, 596.9)">s</text><text xml:space="preserve" font-family="Georgia,Georgia" font-size="36.0" fill="#000000" transform="matrix(1.00, 0.00, -0.00, -1.00, 261.9, 596.9)">i</text><text xml:space="preserve" font-family="Georgia,Georgia" font-size="36.0" fill="#000000" transform="matrix(1.00, 0.00, -0.00, -1.00, 272.5, 596.9)"> </text><text xml:space="preserve" font-family="Georgia,Georgia" font-size="36.0" fill="#000000" transform="matrix(1.00, 0.00, -0.00, -1.00, 281.1, 596.9)">k</text><text xml:space="preserve" font-family="Georgia,Georgia" font-size="36.0" fill="#000000" transform="matrix(1.00, 0.00, -0.00, -1.00, 300.4, 596.9)">a</text><text xml:space="preserve" font-family="Georgia,Georgia" font-size="36.0" fill="#000000" transform="matrix(1.00, 0.00, -0.00, -1.00, 318.6, 596.9)">p</text><text xml:space="preserve" font-family="Georgia,Georgia" font-size="36.0" fill="#000000" transform="matrix(1.00, 0.00, -0.00, -1.00, 339.1, 596.9)">p</text><text xml:space="preserve" font-family="Georgia,Georgia" font-size="36.0" fill="#000000" transform="matrix(1.00, 0.00, -0.00, -1.00, 359.7, 596.9)">a</text><text xml:space="preserve" font-family="Georgia,Georgia" font-size="36.0" fill="#000000" transform="matrix(1.00, 0.00, -0.00, -1.00, 377.8, 596.9)">l</text><text xml:space="preserve" font-family="Georgia,Georgia" font-size="36.0" fill="#000000" transform="matrix(1.00, 0.00, -0.00, -1.00, 388.1, 596.9)">e</text><text xml:space="preserve" font-family="Georgia,Georgia" font-size="36.0" fill="#000000" transform="matrix(1.00, 0.00, -0.00, -1.00, 405.6, 596.9)">t</text><text xml:space="preserve" font-family="Georgia,Georgia" font-size="36.0" fill="#000000" transform="matrix(1.00, 0.00, -0.00, -1.00, 418.0, 596.9)">t</text><text xml:space="preserve" font-family="Georgia,Georgia" font-size="36.0" fill="#000000" transform="matrix(1.00, 0.00, -0.00, -1.00, 430.4, 596.9)">a</text><text xml:space="preserve" font-family="Georgia,Georgia" font-size="36.0" fill="#000000" transform="matrix(1.00, 0.00, -0.00, -1.00, 448.6, 596.9)"> </text><text xml:space="preserve" font-family="Georgia,Georgia" font-size="36.0" fill="#000000" transform="matrix(1.00, 0.00, -0.00, -1.00, 457.3, 596.9)">o</text><text xml:space="preserve" font-family="Georgia,Georgia" font-size="36.0" fill="#000000" transform="matrix(1.00, 0.00, -0.00, -1.00, 476.7, 596.9)">n</text><text xml:space="preserve" font-family="Georgia,Georgia" font-size="36.0" fill="#000000" transform="matrix(1.00, 0.00, -0.00, -1.00, 497.9, 596.9)"> </text><text xml:space="preserve" font-family="Georgia,Georgia" font-size="36.0" fill="#000000" transform="matrix(1.00, 0.00, -0.00, -1.00, 506.6, 596.9)">k</text><text xml:space="preserve" font-family="Georgia,Georgia" font-size="36.0" fill="#000000" transform="matrix(1.00, 0.00, -0.00, -1.00, 525.9, 596.9)">o</text><text xml:space="preserve" font-family="Georgia,Georgia" font-size="36.0" fill="#000000" transform="matrix(1.00, 0.00, -0.00, -1.00, 545.3, 596.9)">s</text><text xml:space="preserve" font-family="Georgia,Georgia" font-size="36.0" fill="#000000" transform="matrix(1.00, 0.00, -0.00, -1.00, 560.9, 596.9)">k</text><text xml:space="preserve" font-family="Georgia,Georgia" font-size="36.0" fill="#000000" transform="matrix(1.00, 0.00, -0.00, -1.00, 580.1, 596.9)">e</text><text xml:space="preserve" font-family="Georgia,Georgia" font-size="36.0" fill="#000000" transform="matrix(1.00, 0.00, -0.00, -1.00, 597.6, 596.9)">t</text><text xml:space="preserve" font-family="Georgia,Georgia" font-size="36.0" fill="#000000" transform="matrix(1.00, 0.00, -0.00, -1.00, 610.0, 596.9)">u</text><text xml:space="preserve" font-family="Georgia,Georgia" font-size="36.0" fill="#000000" transform="matrix(1.00, 0.00, -0.00, -1.00, 630.7, 596.9)">k</text><text xml:space="preserve" font-family="Georgia,Georgia" font-size="36.0" fill="#000000" transform="matrix(1.00, 0.00, -0.00, -1.00, 650.0, 596.9)">s</text><text xml:space="preserve" font-family="Georgia,Georgia" font-size="36.0" fill="#000000" transform="matrix(1.00, 0.00, -0.00, -1.00, 665.5, 596.9)">i</text><text xml:space="preserve" font-family="Georgia,Georgia" font-size="36.0" fill="#000000" transform="matrix(1.00, 0.00, -0.00, -1.00, 676.1, 596.9)">s</text><text xml:space="preserve" font-family="Georgia,Georgia" font-size="36.0" fill="#000000" transform="matrix(1.00, 0.00, -0.00, -1.00, 691.6, 596.9)">s</text><text xml:space="preserve" font-family="Georgia,Georgia" font-size="36.0" fill="#000000" transform="matrix(1.00, 0.00, -0.00, -1.00, 707.2, 596.9)">a</text><text xml:space="preserve" font-family="Georgia,Georgia" font-size="36.0" fill="#000000" transform="matrix(1.00, 0.00, -0.00, -1.00, 725.3, 596.9)">,</text><text xml:space="preserve" font-family="Georgia,Georgia" font-size="36.0" fill="#000000" transform="matrix(1.00, 0.00, -0.00, -1.00, 735.0, 596.9)"> </text><text xml:space="preserve" font-family="Georgia,Georgia" font-size="36.0" fill="#000000" transform="matrix(1.00, 0.00, -0.00, -1.00, 743.7, 596.9)">n</text><text xml:space="preserve" font-family="Georgia,Georgia" font-size="36.0" fill="#000000" transform="matrix(1.00, 0.00, -0.00, -1.00, 765.0, 596.9)">i</text><text xml:space="preserve" font-family="Georgia,Georgia" font-size="36.0" fill="#000000" transform="matrix(1.00, 0.00, -0.00, -1.00, 775.5, 596.9)">i</text><text xml:space="preserve" font-family="Georgia,Georgia" font-size="36.0" fill="#000000" transform="matrix(1.00, 0.00, -0.00, -1.00, 786.1, 596.9)">d</text><text xml:space="preserve" font-family="Georgia,Georgia" font-size="36.0" fill="#000000" transform="matrix(1.00, 0.00, -0.00, -1.00, 806.7, 596.9)">e</text><text xml:space="preserve" font-family="Georgia,Georgia" font-size="36.0" fill="#000000" transform="matrix(1.00, 0.00, -0.00, -1.00, 824.2, 596.9)">n</text><text xml:space="preserve" font-family="Georgia,Georgia" font-size="36.0" fill="#000000" transform="matrix(1.00, 0.00, -0.00, -1.00, 845.4, 596.9)"> </text><text xml:space="preserve" font-family="Georgia,Georgia" font-size="36.0" fill="#000000" transform="matrix(1.00, 0.00, -0.00, -1.00, 114.0, 555.9)">l</text><text xml:space="preserve" font-family="Georgia,Georgia" font-size="36.0" fill="#000000" transform="matrix(1.00, 0.00, -0.00, -1.00, 124.3, 555.9)">ä</text><text xml:space="preserve" font-family="Georgia,Georgia" font-size="36.0" fill="#000000" transform="matrix(1.00, 0.00, -0.00, -1.00, 142.4, 555.9)">m</text><text xml:space="preserve" font-family="Georgia,Georgia" font-size="36.0" fill="#000000" transform="matrix(1.00, 0.00, -0.00, -1.00, 174.1, 555.9)">p</text><text xml:space="preserve" font-family="Georgia,Georgia" font-size="36.0" fill="#000000" transform="matrix(1.00, 0.00, -0.00, -1.00, 194.7, 555.9)">ö</text><text xml:space="preserve" font-family="Georgia,Georgia" font-size="36.0" fill="#000000" transform="matrix(1.00, 0.00, -0.00, -1.00, 214.1, 555.9)">t</text><text xml:space="preserve" font-family="Georgia,Georgia" font-size="36.0" fill="#000000" transform="matrix(1.00, 0.00, -0.00, -1.00, 226.6, 555.9)">i</text><text xml:space="preserve" font-family="Georgia,Georgia" font-size="36.0" fill="#000000" transform="matrix(1.00, 0.00, -0.00, -1.00, 237.1, 555.9)">l</text><text xml:space="preserve" font-family="Georgia,Georgia" font-size="36.0" fill="#000000" transform="matrix(1.00, 0.00, -0.00, -1.00, 247.4, 555.9)">a</text><text xml:space="preserve" font-family="Georgia,Georgia" font-size="36.0" fill="#000000" transform="matrix(1.00, 0.00, -0.00, -1.00, 265.6, 555.9)">t</text><text xml:space="preserve" font-family="Georgia,Georgia" font-size="36.0" fill="#000000" transform="matrix(1.00, 0.00, -0.00, -1.00, 278.0, 555.9)"> </text><text xml:space="preserve" font-family="Georgia,Georgia" font-size="36.0" fill="#000000" transform="matrix(1.00, 0.00, -0.00, -1.00, 286.7, 555.9)">t</text><text xml:space="preserve" font-family="Georgia,Georgia" font-size="36.0" fill="#000000" transform="matrix(1.00, 0.00, -0.00, -1.00, 299.1, 555.9)">a</text><text xml:space="preserve" font-family="Georgia,Georgia" font-size="36.0" fill="#000000" transform="matrix(1.00, 0.00, -0.00, -1.00, 317.3, 555.9)">s</text><text xml:space="preserve" font-family="Georgia,Georgia" font-size="36.0" fill="#000000" transform="matrix(1.00, 0.00, -0.00, -1.00, 332.8, 555.9)">a</text><text xml:space="preserve" font-family="Georgia,Georgia" font-size="36.0" fill="#000000" transform="matrix(1.00, 0.00, -0.00, -1.00, 351.0, 555.9)">a</text><text xml:space="preserve" font-family="Georgia,Georgia" font-size="36.0" fill="#000000" transform="matrix(1.00, 0.00, -0.00, -1.00, 369.1, 555.9)">n</text><text xml:space="preserve" font-family="Georgia,Georgia" font-size="36.0" fill="#000000" transform="matrix(1.00, 0.00, -0.00, -1.00, 390.4, 555.9)">t</text><text xml:space="preserve" font-family="Georgia,Georgia" font-size="36.0" fill="#000000" transform="matrix(1.00, 0.00, -0.00, -1.00, 402.8, 555.9)">u</text><text xml:space="preserve" font-family="Georgia,Georgia" font-size="36.0" fill="#000000" transform="matrix(1.00, 0.00, -0.00, -1.00, 423.5, 555.9)">v</text><text xml:space="preserve" font-family="Georgia,Georgia" font-size="36.0" fill="#000000" transform="matrix(1.00, 0.00, -0.00, -1.00, 441.4, 555.9)">a</text><text xml:space="preserve" font-family="Georgia,Georgia" font-size="36.0" fill="#000000" transform="matrix(1.00, 0.00, -0.00, -1.00, 459.5, 555.9)">t</text><text xml:space="preserve" font-family="Georgia,Georgia" font-size="36.0" fill="#000000" transform="matrix(1.00, 0.00, -0.00, -1.00, 471.9, 555.9)"> </text><text xml:space="preserve" font-family="Georgia,Georgia" font-size="27.0" fill="#000000" transform="matrix(1.00, 0.00, -0.00, -1.00, 79.0, 503.9)">•</text><text xml:space="preserve" font-family="Georgia,Georgia" font-size="36.0" fill="#000000" transform="matrix(1.00, 0.00, -0.00, -1.00, 114.0, 500.9)">E</text><text xml:space="preserve" font-family="Georgia,Georgia" font-size="36.0" fill="#000000" transform="matrix(1.00, 0.00, -0.00, -1.00, 137.5, 500.9)">n</text><text xml:space="preserve" font-family="Georgia,Georgia" font-size="36.0" fill="#000000" transform="matrix(1.00, 0.00, -0.00, -1.00, 158.8, 500.9)">e</text><text xml:space="preserve" font-family="Georgia,Georgia" font-size="36.0" fill="#000000" transform="matrix(1.00, 0.00, -0.00, -1.00, 176.2, 500.9)">r</text><text xml:space="preserve" font-family="Georgia,Georgia" font-size="36.0" fill="#000000" transform="matrix(1.00, 0.00, -0.00, -1.00, 190.9, 500.9)">g</text><text xml:space="preserve" font-family="Georgia,Georgia" font-size="36.0" fill="#000000" transform="matrix(1.00, 0.00, -0.00, -1.00, 209.3, 500.9)">i</text><text xml:space="preserve" font-family="Georgia,Georgia" font-size="36.0" fill="#000000" transform="matrix(1.00, 0.00, -0.00, -1.00, 219.8, 500.9)">a</text><text xml:space="preserve" font-family="Georgia,Georgia" font-size="36.0" fill="#000000" transform="matrix(1.00, 0.00, -0.00, -1.00, 238.0, 500.9)">a</text><text xml:space="preserve" font-family="Georgia,Georgia" font-size="36.0" fill="#000000" transform="matrix(1.00, 0.00, -0.00, -1.00, 256.1, 500.9)"> </text><text xml:space="preserve" font-family="Georgia,Georgia" font-size="36.0" fill="#000000" transform="matrix(1.00, 0.00, -0.00, -1.00, 264.8, 500.9)">s</text><text xml:space="preserve" font-family="Georgia,Georgia" font-size="36.0" fill="#000000" transform="matrix(1.00, 0.00, -0.00, -1.00, 280.4, 500.9)">i</text><text xml:space="preserve" font-family="Georgia,Georgia" font-size="36.0" fill="#000000" transform="matrix(1.00, 0.00, -0.00, -1.00, 290.9, 500.9)">i</text><text xml:space="preserve" font-family="Georgia,Georgia" font-size="36.0" fill="#000000" transform="matrix(1.00, 0.00, -0.00, -1.00, 301.5, 500.9)">r</text><text xml:space="preserve" font-family="Georgia,Georgia" font-size="36.0" fill="#000000" transform="matrix(1.00, 0.00, -0.00, -1.00, 316.2, 500.9)">t</text><text xml:space="preserve" font-family="Georgia,Georgia" font-size="36.0" fill="#000000" transform="matrix(1.00, 0.00, -0.00, -1.00, 328.6, 500.9)">y</text><text xml:space="preserve" font-family="Georgia,Georgia" font-size="36.0" fill="#000000" transform="matrix(1.00, 0.00, -0.00, -1.00, 346.4, 500.9)">y</text><text xml:space="preserve" font-family="Georgia,Georgia" font-size="36.0" fill="#000000" transform="matrix(1.00, 0.00, -0.00, -1.00, 364.1, 500.9)"> </text><text xml:space="preserve" font-family="Georgia,Georgia" font-size="36.0" fill="#000000" transform="matrix(1.00, 0.00, -0.00, -1.00, 372.8, 500.9)">l</text><text xml:space="preserve" font-family="Georgia,Georgia" font-size="36.0" fill="#000000" transform="matrix(1.00, 0.00, -0.00, -1.00, 383.1, 500.9)">ä</text><text xml:space="preserve" font-family="Georgia,Georgia" font-size="36.0" fill="#000000" transform="matrix(1.00, 0.00, -0.00, -1.00, 401.2, 500.9)">m</text><text xml:space="preserve" font-family="Georgia,Georgia" font-size="36.0" fill="#000000" transform="matrix(1.00, 0.00, -0.00, -1.00, 432.9, 500.9)">p</text><text xml:space="preserve" font-family="Georgia,Georgia" font-size="36.0" fill="#000000" transform="matrix(1.00, 0.00, -0.00, -1.00, 453.5, 500.9)">i</text><text xml:space="preserve" font-family="Georgia,Georgia" font-size="36.0" fill="#000000" transform="matrix(1.00, 0.00, -0.00, -1.00, 464.0, 500.9)">m</text><text xml:space="preserve" font-family="Georgia,Georgia" font-size="36.0" fill="#000000" transform="matrix(1.00, 0.00, -0.00, -1.00, 495.8, 500.9)">ä</text><text xml:space="preserve" font-family="Georgia,Georgia" font-size="36.0" fill="#000000" transform="matrix(1.00, 0.00, -0.00, -1.00, 513.9, 500.9)">s</text><text xml:space="preserve" font-family="Georgia,Georgia" font-size="36.0" fill="#000000" transform="matrix(1.00, 0.00, -0.00, -1.00, 529.4, 500.9)">t</text><text xml:space="preserve" font-family="Georgia,Georgia" font-size="36.0" fill="#000000" transform="matrix(1.00, 0.00, -0.00, -1.00, 541.9, 500.9)">ä</text><text xml:space="preserve" font-family="Georgia,Georgia" font-size="36.0" fill="#000000" transform="matrix(1.00, 0.00, -0.00, -1.00, 560.0, 500.9)"> </text><text xml:space="preserve" font-family="Georgia,Georgia" font-size="36.0" fill="#000000" transform="matrix(1.00, 0.00, -0.00, -1.00, 568.7, 500.9)">e</text><text xml:space="preserve" font-family="Georgia,Georgia" font-size="36.0" fill="#000000" transform="matrix(1.00, 0.00, -0.00, -1.00, 586.1, 500.9)">s</text><text xml:space="preserve" font-family="Georgia,Georgia" font-size="36.0" fill="#000000" transform="matrix(1.00, 0.00, -0.00, -1.00, 601.7, 500.9)">i</text><text xml:space="preserve" font-family="Georgia,Georgia" font-size="36.0" fill="#000000" transform="matrix(1.00, 0.00, -0.00, -1.00, 612.2, 500.9)">n</text><text xml:space="preserve" font-family="Georgia,Georgia" font-size="36.0" fill="#000000" transform="matrix(1.00, 0.00, -0.00, -1.00, 633.5, 500.9)">e</text><text xml:space="preserve" font-family="Georgia,Georgia" font-size="36.0" fill="#000000" transform="matrix(1.00, 0.00, -0.00, -1.00, 650.9, 500.9)">e</text><text xml:space="preserve" font-family="Georgia,Georgia" font-size="36.0" fill="#000000" transform="matrix(1.00, 0.00, -0.00, -1.00, 668.3, 500.9)">s</text><text xml:space="preserve" font-family="Georgia,Georgia" font-size="36.0" fill="#000000" transform="matrix(1.00, 0.00, -0.00, -1.00, 683.9, 500.9)">t</text><text xml:space="preserve" font-family="Georgia,Georgia" font-size="36.0" fill="#000000" transform="matrix(1.00, 0.00, -0.00, -1.00, 696.3, 500.9)">ä</text><text xml:space="preserve" font-family="Georgia,Georgia" font-size="36.0" fill="#000000" transform="matrix(1.00, 0.00, -0.00, -1.00, 714.5, 500.9)"> </text><text xml:space="preserve" font-family="Georgia,Georgia" font-size="36.0" fill="#000000" transform="matrix(1.00, 0.00, -0.00, -1.00, 723.2, 500.9)">k</text><text xml:space="preserve" font-family="Georgia,Georgia" font-size="36.0" fill="#000000" transform="matrix(1.00, 0.00, -0.00, -1.00, 742.4, 500.9)">y</text><text xml:space="preserve" font-family="Georgia,Georgia" font-size="36.0" fill="#000000" transform="matrix(1.00, 0.00, -0.00, -1.00, 760.1, 500.9)">l</text><text xml:space="preserve" font-family="Georgia,Georgia" font-size="36.0" fill="#000000" transform="matrix(1.00, 0.00, -0.00, -1.00, 770.5, 500.9)">m</text><text xml:space="preserve" font-family="Georgia,Georgia" font-size="36.0" fill="#000000" transform="matrix(1.00, 0.00, -0.00, -1.00, 802.2, 500.9)">ä</text><text xml:space="preserve" font-family="Georgia,Georgia" font-size="36.0" fill="#000000" transform="matrix(1.00, 0.00, -0.00, -1.00, 820.3, 500.9)">ä</text><text xml:space="preserve" font-family="Georgia,Georgia" font-size="36.0" fill="#000000" transform="matrix(1.00, 0.00, -0.00, -1.00, 838.4, 500.9)">n</text><g><clipPath id="clip0x6080012a4680"><path d="M 504.1 271.2 L 641.7 271.2 L 641.7 402.6 L 504.1 402.6 Z M 504.1 271.2 "></path></clipPath><g clip-path="url(#clip0x6080012a4680)"><path d="M -0.1 -0.4 L 133.9 -0.4 L 133.9 127.6 L -0.1 127.6 Z M 0.0 0.0 " fill="none" stroke="#000000" stroke-width="2.00" transform="matrix(1.00, 0.00, 0.00, -1.00, 506.1, 400.6)"></path></g></g><g><clipPath id="clip0x6080010bdd00"><path d="M 603.4 312.1 L 619.2 312.1 L 619.2 327.9 L 603.4 327.9 Z M 603.4 312.1 "></path></clipPath><g clip-path="url(#clip0x6080010bdd00)"><path d="M 616.2 324.9 C 618.9 322.2 618.9 317.8 616.2 315.1 C 613.5 312.4 609.1 312.4 606.5 315.1 C 603.8 317.8 603.8 322.2 606.5 324.9 C 609.1 327.6 613.5 327.6 616.2 324.9 Z M 616.2 324.9 " fill="#C82505"></path></g></g><g><clipPath id="clip0x6080012a7620"><path d="M 565.0 336.9 L 580.8 336.9 L 580.8 352.7 L 565.0 352.7 Z M 565.0 336.9 "></path></clipPath><g clip-path="url(#clip0x6080012a7620)"><path d="M 577.7 349.7 C 580.4 347.0 580.4 342.7 577.7 340.0 C 575.1 337.3 570.7 337.3 568.0 340.0 C 565.3 342.7 565.3 347.0 568.0 349.7 C 570.7 352.4 575.1 352.4 577.7 349.7 Z M 577.7 349.7 " fill="#C82505"></path></g></g><g><clipPath id="clip0x6080010bd160"><path d="M 609.9 359.9 L 625.7 359.9 L 625.7 375.7 L 609.9 375.7 Z M 609.9 359.9 "></path></clipPath><g clip-path="url(#clip0x6080010bd160)"><path d="M 622.7 372.7 C 625.4 370.0 625.4 365.6 622.7 362.9 C 620.0 360.2 615.6 360.2 612.9 362.9 C 610.2 365.6 610.2 370.0 612.9 372.7 C 615.6 375.4 620.0 375.4 622.7 372.7 Z M 622.7 372.7 " fill="#C82505"></path></g></g><g><clipPath id="clip0x6080012a6a80"><path d="M 565.0 286.0 L 580.8 286.0 L 580.8 301.8 L 565.0 301.8 Z M 565.0 286.0 "></path></clipPath><g clip-path="url(#clip0x6080012a6a80)"><path d="M 577.7 298.7 C 580.4 296.1 580.4 291.7 577.7 289.0 C 575.1 286.3 570.7 286.3 568.0 289.0 C 565.3 291.7 565.3 296.1 568.0 298.7 C 570.7 301.4 575.1 301.4 577.7 298.7 Z M 577.7 298.7 " fill="#C82505"></path></g></g><g><clipPath id="clip0x6080010b4520"><path d="M 530.2 370.7 L 546.0 370.7 L 546.0 386.5 L 530.2 386.5 Z M 530.2 370.7 "></path></clipPath><g clip-path="url(#clip0x6080010b4520)"><path d="M 543.0 383.5 C 545.7 380.8 545.7 376.4 543.0 373.7 C 540.3 371.0 535.9 371.0 533.2 373.7 C 530.5 376.4 530.5 380.8 533.2 383.5 C 535.9 386.1 540.3 386.1 543.0 383.5 Z M 543.0 383.5 " fill="#C82505"></path></g></g><g><clipPath id="clip0x6080012a47a0"><path d="M 530.2 312.1 L 546.0 312.1 L 546.0 327.9 L 530.2 327.9 Z M 530.2 312.1 "></path></clipPath><g clip-path="url(#clip0x6080012a47a0)"><path d="M 543.0 324.9 C 545.7 322.2 545.7 317.8 543.0 315.1 C 540.3 312.4 535.9 312.4 533.2 315.1 C 530.5 317.8 530.5 322.2 533.2 324.9 C 535.9 327.6 540.3 327.6 543.0 324.9 Z M 543.0 324.9 " fill="#C82505"></path></g></g><g><clipPath id="clip0x6080010ba700"><path d="M 615.3 374.9 L 647.0 426.5 L 656.9 420.4 L 625.1 368.9 Z M 615.3 374.9 "></path></clipPath><g clip-path="url(#clip0x6080010ba700)"><path d="M 0.0 0.0 L 49.0 0.0 L 50.0 0.0 " fill="none" stroke="#000000" stroke-width="2.00" transform="matrix(0.52, 0.85, 0.85, -0.52, 620.7, 372.8)"></path><path d="M 650.5 411.9 L 651.4 422.6 L 642.3 417.0 Z M 650.5 411.9 " fill="#000000"></path></g></g><g><clipPath id="clip0x6080012a1860"><path d="M 544.1 383.6 L 594.8 379.2 L 593.8 367.7 L 543.1 372.1 Z M 544.1 383.6 "></path></clipPath><g clip-path="url(#clip0x6080012a1860)"><path d="M 0.0 0.0 L 39.3 0.0 L 40.3 0.0 " fill="none" stroke="#000000" stroke-width="2.00" transform="matrix(1.00, -0.09, -0.09, -1.00, 544.6, 377.8)"></path><path d="M 583.4 369.6 L 593.3 373.6 L 584.2 379.2 Z M 583.4 369.6 " fill="#000000"></path></g></g><g><clipPath id="clip0x6080012a1b60"><path d="M 580.8 340.8 L 594.3 291.3 L 583.1 288.2 L 569.6 337.7 Z M 580.8 340.8 "></path></clipPath><g clip-path="url(#clip0x6080012a1b60)"><path d="M 0.0 0.0 L 39.7 0.0 L 40.7 0.0 " fill="none" stroke="#000000" stroke-width="2.00" transform="matrix(0.26, -0.96, -0.96, -0.26, 575.5, 338.3)"></path><path d="M 581.3 298.7 L 588.5 290.7 L 590.6 301.2 Z M 581.3 298.7 " fill="#000000"></path></g></g><g><clipPath id="clip0x6080010bf500"><path d="M 543.3 313.6 L 539.8 279.4 L 528.3 280.6 L 531.8 314.8 Z M 543.3 313.6 "></path></clipPath><g clip-path="url(#clip0x6080010bf500)"><path d="M 0.0 0.0 L 22.8 0.0 L 23.8 0.0 " fill="none" stroke="#000000" stroke-width="2.00" transform="matrix(-0.10, -0.99, -0.99, 0.10, 537.4, 313.2)"></path><path d="M 530.4 291.0 L 534.2 281.0 L 539.9 290.0 Z M 530.4 291.0 " fill="#000000"></path></g></g><g><clipPath id="clip0x6080010b9f80"><path d="M 565.8 295.2 L 523.8 348.4 L 532.9 355.6 L 574.9 302.3 Z M 565.8 295.2 "></path></clipPath><g clip-path="url(#clip0x6080010b9f80)"><path d="M 0.0 0.0 L 56.2 0.0 L 57.2 0.0 " fill="none" stroke="#000000" stroke-width="2.00" transform="matrix(-0.62, 0.79, 0.79, 0.62, 569.7, 299.5)"></path><path d="M 538.7 346.6 L 529.0 351.2 L 531.2 340.7 Z M 538.7 346.6 " fill="#000000"></path></g></g><g><clipPath id="clip0x6080010bd340"><path d="M 615.1 315.1 L 602.0 253.9 L 590.7 256.3 L 603.8 317.5 Z M 615.1 315.1 "></path></clipPath><g clip-path="url(#clip0x6080010bd340)"><path d="M 0.0 0.0 L 51.0 0.0 L 52.0 0.0 " fill="none" stroke="#000000" stroke-width="2.00" transform="matrix(-0.21, -0.98, -0.98, 0.21, 609.2, 315.3)"></path><path d="M 593.9 266.5 L 596.5 256.1 L 603.2 264.5 Z M 593.9 266.5 " fill="#000000"></path></g></g><g><clipPath id="clip0x6080010b01a0"><path d="M 370.6 271.2 L 508.1 271.2 L 508.1 402.6 L 370.6 402.6 Z M 370.6 271.2 "></path></clipPath><g clip-path="url(#clip0x6080010b01a0)"><path d="M 0.4 -0.4 L 133.4 -0.4 L 133.4 127.6 L 0.4 127.6 Z M 0.0 0.0 " fill="none" stroke="#000000" stroke-width="2.00" transform="matrix(1.00, 0.00, 0.00, -1.00, 372.6, 400.6)"></path></g></g><g><clipPath id="clip0x6080010a2760"><path d="M 469.9 312.1 L 485.7 312.1 L 485.7 327.9 L 469.9 327.9 Z M 469.9 312.1 "></path></clipPath><g clip-path="url(#clip0x6080010a2760)"><path d="M 482.7 324.9 C 485.4 322.2 485.4 317.8 482.7 315.1 C 480.0 312.4 475.6 312.4 472.9 315.1 C 470.2 317.8 470.2 322.2 472.9 324.9 C 475.6 327.6 480.0 327.6 482.7 324.9 Z M 482.7 324.9 " fill="#0B4DC6"></path></g></g><g><clipPath id="clip0x6080010bb300"><path d="M 431.5 336.9 L 447.2 336.9 L 447.2 352.7 L 431.5 352.7 Z M 431.5 336.9 "></path></clipPath><g clip-path="url(#clip0x6080010bb300)"><path d="M 444.2 349.7 C 446.9 347.0 446.9 342.7 444.2 340.0 C 441.5 337.3 437.2 337.3 434.5 340.0 C 431.8 342.7 431.8 347.0 434.5 349.7 C 437.2 352.4 441.5 352.4 444.2 349.7 Z M 444.2 349.7 " fill="#0B4DC6"></path></g></g><g><clipPath id="clip0x6080012aee80"><path d="M 476.4 359.9 L 492.2 359.9 L 492.2 375.7 L 476.4 375.7 Z M 476.4 359.9 "></path></clipPath><g clip-path="url(#clip0x6080012aee80)"><path d="M 489.1 372.7 C 491.8 370.0 491.8 365.6 489.1 362.9 C 486.5 360.2 482.1 360.2 479.4 362.9 C 476.7 365.6 476.7 370.0 479.4 372.7 C 482.1 375.4 486.5 375.4 489.1 372.7 Z M 489.1 372.7 " fill="#0B4DC6"></path></g></g><g><clipPath id="clip0x6080010bf5c0"><path d="M 431.5 286.0 L 447.2 286.0 L 447.2 301.8 L 431.5 301.8 Z M 431.5 286.0 "></path></clipPath><g clip-path="url(#clip0x6080010bf5c0)"><path d="M 444.2 298.7 C 446.9 296.1 446.9 291.7 444.2 289.0 C 441.5 286.3 437.2 286.3 434.5 289.0 C 431.8 291.7 431.8 296.1 434.5 298.7 C 437.2 301.4 441.5 301.4 444.2 298.7 Z M 444.2 298.7 " fill="#0B4DC6"></path></g></g><g><clipPath id="clip0x6080010a9d20"><path d="M 396.7 370.7 L 412.5 370.7 L 412.5 386.5 L 396.7 386.5 Z M 396.7 370.7 "></path></clipPath><g clip-path="url(#clip0x6080010a9d20)"><path d="M 409.5 383.5 C 412.2 380.8 412.2 376.4 409.5 373.7 C 406.8 371.0 402.4 371.0 399.7 373.7 C 397.0 376.4 397.0 380.8 399.7 383.5 C 402.4 386.1 406.8 386.1 409.5 383.5 Z M 409.5 383.5 " fill="#0B4DC6"></path></g></g><g><clipPath id="clip0x6080010b61a0"><path d="M 396.7 312.1 L 412.5 312.1 L 412.5 327.9 L 396.7 327.9 Z M 396.7 312.1 "></path></clipPath><g clip-path="url(#clip0x6080010b61a0)"><path d="M 409.5 324.9 C 412.2 322.2 412.2 317.8 409.5 315.1 C 406.8 312.4 402.4 312.4 399.7 315.1 C 397.0 317.8 397.0 322.2 399.7 324.9 C 402.4 327.6 406.8 327.6 409.5 324.9 Z M 409.5 324.9 " fill="#0B4DC6"></path></g></g><g><clipPath id="clip0x6080010a7560"><path d="M 478.3 373.2 L 486.8 381.1 L 494.7 372.6 L 486.2 364.7 Z M 478.3 373.2 "></path></clipPath><g clip-path="url(#clip0x6080010a7560)"><path d="M 0.0 0.0 L 3.9 0.0 L -4.7 0.0 " fill="none" stroke="#000000" stroke-width="2.00" transform="matrix(0.73, 0.68, 0.68, -0.73, 487.2, 373.5)"></path><path d="M 486.3 366.1 L 490.1 376.1 L 479.8 373.1 Z M 486.3 366.1 " fill="#000000"></path></g></g><g><clipPath id="clip0x6080010b5d20"><path d="M 404.2 382.1 L 415.0 386.2 L 419.1 375.3 L 408.3 371.2 Z M 404.2 382.1 "></path></clipPath><g clip-path="url(#clip0x6080010b5d20)"><path d="M 0.0 0.0 L 5.4 0.0 L -3.2 0.0 " fill="none" stroke="#000000" stroke-width="2.00" transform="matrix(0.93, 0.35, 0.35, -0.93, 411.1, 378.5)"></path><path d="M 408.9 372.5 L 416.2 380.4 L 405.5 381.5 Z M 408.9 372.5 " fill="#000000"></path></g></g><g><clipPath id="clip0x6080010bd760"><path d="M 446.3 345.7 L 449.1 334.4 L 437.8 331.7 L 435.0 342.9 Z M 446.3 345.7 "></path></clipPath><g clip-path="url(#clip0x6080010bd760)"><path d="M 0.0 0.0 L 5.2 0.0 L -3.4 0.0 " fill="none" stroke="#000000" stroke-width="2.00" transform="matrix(0.24, -0.97, -0.97, -0.24, 442.0, 339.0)"></path><path d="M 436.3 342.2 L 443.2 334.0 L 445.6 344.5 Z M 436.3 342.2 " fill="#000000"></path></g></g><g><clipPath id="clip0x6080012a0720"><path d="M 408.3 320.6 L 411.0 309.3 L 399.7 306.6 L 397.0 317.9 Z M 408.3 320.6 "></path></clipPath><g clip-path="url(#clip0x6080012a0720)"><path d="M 0.0 0.0 L 5.1 0.0 L -3.5 0.0 " fill="none" stroke="#000000" stroke-width="2.00" transform="matrix(0.23, -0.97, -0.97, -0.23, 403.9, 313.9)"></path><path d="M 398.2 317.2 L 405.1 308.9 L 407.5 319.4 Z M 398.2 317.2 " fill="#000000"></path></g></g><g><clipPath id="clip0x6080012ac0c0"><path d="M 434.2 292.1 L 428.5 302.2 L 438.6 307.9 L 444.3 297.8 Z M 434.2 292.1 "></path></clipPath><g clip-path="url(#clip0x6080012ac0c0)"><path d="M 0.0 0.0 L 4.5 0.0 L -4.1 0.0 " fill="none" stroke="#000000" stroke-width="2.00" transform="matrix(-0.49, 0.87, 0.87, 0.49, 436.2, 300.3)"></path><path d="M 442.9 298.2 L 434.0 304.2 L 434.6 293.4 Z M 442.9 298.2 " fill="#000000"></path></g></g><g><clipPath id="clip0x6080010bb240"><path d="M 482.1 316.1 L 477.3 305.6 L 466.7 310.4 L 471.6 320.9 Z M 482.1 316.1 "></path></clipPath><g clip-path="url(#clip0x6080010bb240)"><path d="M 0.0 0.0 L 7.9 0.0 L -0.7 0.0 " fill="none" stroke="#000000" stroke-width="2.00" transform="matrix(-0.42, -0.91, -0.91, 0.42, 475.7, 316.0)"></path><path d="M 472.1 319.6 L 472.4 308.9 L 480.8 315.6 Z M 472.1 319.6 " fill="#000000"></path></g></g><g><clipPath id="clip0x6080010b2c60"><path d="M 371.0 53.0 L 507.4 53.0 L 507.4 183.4 L 371.0 183.4 Z M 371.0 53.0 "></path></clipPath><g clip-path="url(#clip0x6080010b2c60)"><path d="M 0.0 0.4 L 132.0 0.4 L 132.0 126.4 L 0.0 126.4 Z M 0.0 0.0 " fill="none" stroke="#000000" stroke-width="2.00" transform="matrix(1.00, 0.00, 0.00, -1.00, 373.0, 181.4)"></path></g></g><g><clipPath id="clip0x6080010aed60"><path d="M 469.5 93.5 L 485.2 93.5 L 485.2 109.2 L 469.5 109.2 Z M 469.5 93.5 "></path></clipPath><g clip-path="url(#clip0x6080010aed60)"><path d="M 482.2 106.2 C 484.9 103.5 484.9 99.2 482.2 96.5 C 479.5 93.9 475.2 93.9 472.5 96.5 C 469.8 99.2 469.8 103.5 472.5 106.2 C 475.2 108.9 479.5 108.9 482.2 106.2 Z M 482.2 106.2 " fill="#C7786D"></path></g></g><g><clipPath id="clip0x6080012aa740"><path d="M 431.4 118.2 L 447.0 118.2 L 447.0 133.9 L 431.4 133.9 Z M 431.4 118.2 "></path></clipPath><g clip-path="url(#clip0x6080012aa740)"><path d="M 444.0 130.9 C 446.7 128.2 446.7 123.9 444.0 121.2 C 441.4 118.5 437.0 118.5 434.4 121.2 C 431.7 123.9 431.7 128.2 434.4 130.9 C 437.0 133.5 441.4 133.5 444.0 130.9 Z M 444.0 130.9 " fill="#C7786D"></path></g></g><g><clipPath id="clip0x608000eb1e20"><path d="M 475.9 141.0 L 491.6 141.0 L 491.6 156.6 L 475.9 156.6 Z M 475.9 141.0 "></path></clipPath><g clip-path="url(#clip0x608000eb1e20)"><path d="M 488.6 153.6 C 491.3 151.0 491.3 146.6 488.6 144.0 C 485.9 141.3 481.6 141.3 478.9 144.0 C 476.3 146.6 476.3 151.0 478.9 153.6 C 481.6 156.3 485.9 156.3 488.6 153.6 Z M 488.6 153.6 " fill="#C7786D"></path></g></g><g><clipPath id="clip0x6080012ac060"><path d="M 431.4 67.6 L 447.0 67.6 L 447.0 83.3 L 431.4 83.3 Z M 431.4 67.6 "></path></clipPath><g clip-path="url(#clip0x6080012ac060)"><path d="M 444.0 80.3 C 446.7 77.6 446.7 73.3 444.0 70.6 C 441.4 68.0 437.0 68.0 434.4 70.6 C 431.7 73.3 431.7 77.6 434.4 80.3 C 437.0 83.0 441.4 83.0 444.0 80.3 Z M 444.0 80.3 " fill="#C7786D"></path></g></g><g><clipPath id="clip0x6080012a78c0"><path d="M 396.9 151.6 L 412.6 151.6 L 412.6 167.3 L 396.9 167.3 Z M 396.9 151.6 "></path></clipPath><g clip-path="url(#clip0x6080012a78c0)"><path d="M 409.6 164.3 C 412.2 161.6 412.2 157.3 409.6 154.6 C 406.9 152.0 402.6 152.0 399.9 154.6 C 397.2 157.3 397.2 161.6 399.9 164.3 C 402.6 167.0 406.9 167.0 409.6 164.3 Z M 409.6 164.3 " fill="#C7786D"></path></g></g><g><clipPath id="clip0x6080010a85e0"><path d="M 396.9 93.5 L 412.6 93.5 L 412.6 109.2 L 396.9 109.2 Z M 396.9 93.5 "></path></clipPath><g clip-path="url(#clip0x6080010a85e0)"><path d="M 409.6 106.2 C 412.2 103.5 412.2 99.2 409.6 96.5 C 406.9 93.9 402.6 93.9 399.9 96.5 C 397.2 99.2 397.2 103.5 399.9 106.2 C 402.6 108.9 406.9 108.9 409.6 106.2 Z M 409.6 106.2 " fill="#C7786D"></path></g></g><g><clipPath id="clip0x6080012a7560"><path d="M 481.2 156.7 L 498.5 184.0 L 508.3 177.8 L 491.0 150.5 Z M 481.2 156.7 "></path></clipPath><g clip-path="url(#clip0x6080012a7560)"><path d="M 0.0 0.0 L 20.7 0.0 L 21.7 0.0 " fill="none" stroke="#000000" stroke-width="2.00" transform="matrix(0.53, 0.85, 0.85, -0.53, 486.7, 154.4)"></path><path d="M 501.8 169.4 L 502.9 180.1 L 493.7 174.5 Z M 501.8 169.4 " fill="#000000"></path></g></g><g><clipPath id="clip0x6080010af000"><path d="M 410.7 165.3 L 445.9 162.4 L 445.0 150.8 L 409.7 153.7 Z M 410.7 165.3 "></path></clipPath><g clip-path="url(#clip0x6080010af000)"><path d="M 0.0 0.0 L 23.8 0.0 L 24.8 0.0 " fill="none" stroke="#000000" stroke-width="2.00" transform="matrix(1.00, -0.08, -0.08, -1.00, 411.2, 159.4)"></path><path d="M 434.5 152.7 L 444.5 156.7 L 435.3 162.2 Z M 434.5 152.7 " fill="#000000"></path></g></g><g><clipPath id="clip0x6080008a86a0"><path d="M 447.0 123.0 L 457.5 90.7 L 446.5 87.1 L 436.0 119.4 Z M 447.0 123.0 "></path></clipPath><g clip-path="url(#clip0x6080008a86a0)"><path d="M 0.0 0.0 L 22.4 0.0 L 23.4 0.0 " fill="none" stroke="#000000" stroke-width="2.00" transform="matrix(0.31, -0.95, -0.95, -0.31, 441.8, 120.2)"></path><path d="M 444.1 97.5 L 451.7 89.8 L 453.3 100.5 Z M 444.1 97.5 " fill="#000000"></path></g></g><g><clipPath id="clip0x6080010a7ce0"><path d="M 409.9 95.7 L 407.9 77.5 L 396.4 78.8 L 398.4 97.0 Z M 409.9 95.7 "></path></clipPath><g clip-path="url(#clip0x6080010a7ce0)"><path d="M 0.0 0.0 L 6.7 0.0 L 7.7 0.0 " fill="none" stroke="#000000" stroke-width="2.00" transform="matrix(-0.11, -0.99, -0.99, 0.11, 404.1, 95.3)"></path><path d="M 398.6 89.2 L 402.3 79.1 L 408.1 88.1 Z M 398.6 89.2 " fill="#000000"></path></g></g><g><clipPath id="clip0x6080010a56a0"><path d="M 432.0 77.5 L 413.6 102.5 L 422.9 109.4 L 441.4 84.4 Z M 432.0 77.5 "></path></clipPath><g clip-path="url(#clip0x6080010a56a0)"><path d="M 0.0 0.0 L 19.5 0.0 L 20.5 0.0 " fill="none" stroke="#000000" stroke-width="2.00" transform="matrix(-0.59, 0.80, 0.80, 0.59, 436.1, 81.8)"></path><path d="M 428.4 100.3 L 418.8 105.2 L 420.7 94.6 Z M 428.4 100.3 " fill="#000000"></path></g></g><g><clipPath id="clip0x6080012a9900"><path d="M 481.1 97.0 L 472.5 62.7 L 461.2 65.5 L 469.9 99.8 Z M 481.1 97.0 "></path></clipPath><g clip-path="url(#clip0x6080012a9900)"><path d="M 0.0 0.0 L 23.8 0.0 L 24.8 0.0 " fill="none" stroke="#000000" stroke-width="2.00" transform="matrix(-0.24, -0.97, -0.97, 0.24, 475.3, 97.5)"></path><path d="M 464.8 75.5 L 467.1 65.1 L 474.1 73.2 Z M 464.8 75.5 " fill="#000000"></path></g></g><g><clipPath id="clip0x6080012a6cc0"><path d="M 503.6 53.0 L 640.0 53.0 L 640.0 183.4 L 503.6 183.4 Z M 503.6 53.0 "></path></clipPath><g clip-path="url(#clip0x6080012a6cc0)"><path d="M 0.5 0.4 L 132.4 0.4 L 132.4 126.4 L 0.5 126.4 Z M 0.0 0.0 " fill="none" stroke="#000000" stroke-width="2.00" transform="matrix(1.00, 0.00, 0.00, -1.00, 505.6, 181.4)"></path></g></g><g><clipPath id="clip0x6080010b5c60"><path d="M 602.1 93.5 L 617.8 93.5 L 617.8 109.2 L 602.1 109.2 Z M 602.1 93.5 "></path></clipPath><g clip-path="url(#clip0x6080010b5c60)"><path d="M 614.8 106.2 C 617.4 103.5 617.4 99.2 614.8 96.5 C 612.1 93.9 607.8 93.9 605.1 96.5 C 602.4 99.2 602.4 103.5 605.1 106.2 C 607.8 108.9 612.1 108.9 614.8 106.2 Z M 614.8 106.2 " fill="#C7786D"></path></g></g><g><clipPath id="clip0x6080010b7fa0"><path d="M 564.0 118.2 L 579.6 118.2 L 579.6 133.9 L 564.0 133.9 Z M 564.0 118.2 "></path></clipPath><g clip-path="url(#clip0x6080010b7fa0)"><path d="M 576.6 130.9 C 579.3 128.2 579.3 123.9 576.6 121.2 C 574.0 118.5 569.6 118.5 567.0 121.2 C 564.3 123.9 564.3 128.2 567.0 130.9 C 569.6 133.5 574.0 133.5 576.6 130.9 Z M 576.6 130.9 " fill="#C7786D"></path></g></g><g><clipPath id="clip0x6080010b4be0"><path d="M 608.5 141.0 L 624.2 141.0 L 624.2 156.6 L 608.5 156.6 Z M 608.5 141.0 "></path></clipPath><g clip-path="url(#clip0x6080010b4be0)"><path d="M 621.2 153.6 C 623.9 151.0 623.9 146.6 621.2 144.0 C 618.5 141.3 614.2 141.3 611.5 144.0 C 608.8 146.6 608.8 151.0 611.5 153.6 C 614.2 156.3 618.5 156.3 621.2 153.6 Z M 621.2 153.6 " fill="#C7786D"></path></g></g><g><clipPath id="clip0x6080012a6600"><path d="M 564.0 67.6 L 579.6 67.6 L 579.6 83.3 L 564.0 83.3 Z M 564.0 67.6 "></path></clipPath><g clip-path="url(#clip0x6080012a6600)"><path d="M 576.6 80.3 C 579.3 77.6 579.3 73.3 576.6 70.6 C 574.0 68.0 569.6 68.0 567.0 70.6 C 564.3 73.3 564.3 77.6 567.0 80.3 C 569.6 83.0 574.0 83.0 576.6 80.3 Z M 576.6 80.3 " fill="#C7786D"></path></g></g><g><clipPath id="clip0x6080010ba1c0"><path d="M 529.5 151.6 L 545.2 151.6 L 545.2 167.3 L 529.5 167.3 Z M 529.5 151.6 "></path></clipPath><g clip-path="url(#clip0x6080010ba1c0)"><path d="M 542.1 164.3 C 544.8 161.6 544.8 157.3 542.1 154.6 C 539.5 152.0 535.1 152.0 532.5 154.6 C 529.8 157.3 529.8 161.6 532.5 164.3 C 535.1 167.0 539.5 167.0 542.1 164.3 Z M 542.1 164.3 " fill="#C7786D"></path></g></g><g><clipPath id="clip0x6080010a4380"><path d="M 529.5 93.5 L 545.2 93.5 L 545.2 109.2 L 529.5 109.2 Z M 529.5 93.5 "></path></clipPath><g clip-path="url(#clip0x6080010a4380)"><path d="M 542.1 106.2 C 544.8 103.5 544.8 99.2 542.1 96.5 C 539.5 93.9 535.1 93.9 532.5 96.5 C 529.8 99.2 529.8 103.5 532.5 106.2 C 535.1 108.9 539.5 108.9 542.1 106.2 Z M 542.1 106.2 " fill="#C7786D"></path></g></g><g><clipPath id="clip0x6080012a4260"><path d="M 613.8 156.7 L 631.1 184.0 L 640.9 177.8 L 623.6 150.5 Z M 613.8 156.7 "></path></clipPath><g clip-path="url(#clip0x6080012a4260)"><path d="M 0.0 0.0 L 20.7 0.0 L 21.7 0.0 " fill="none" stroke="#000000" stroke-width="2.00" transform="matrix(0.53, 0.85, 0.85, -0.53, 619.2, 154.4)"></path><path d="M 634.4 169.4 L 635.4 180.1 L 626.3 174.5 Z M 634.4 169.4 " fill="#000000"></path></g></g><g><clipPath id="clip0x6080012a1ec0"><path d="M 543.3 165.3 L 578.5 162.4 L 577.6 150.8 L 542.3 153.7 Z M 543.3 165.3 "></path></clipPath><g clip-path="url(#clip0x6080012a1ec0)"><path d="M 0.0 0.0 L 23.8 0.0 L 24.8 0.0 " fill="none" stroke="#000000" stroke-width="2.00" transform="matrix(1.00, -0.08, -0.08, -1.00, 543.8, 159.4)"></path><path d="M 567.1 152.7 L 577.1 156.7 L 567.9 162.2 Z M 567.1 152.7 " fill="#000000"></path></g></g><g><clipPath id="clip0x6080010b8c60"><path d="M 579.6 123.0 L 590.1 90.7 L 579.0 87.1 L 568.6 119.4 Z M 579.6 123.0 "></path></clipPath><g clip-path="url(#clip0x6080010b8c60)"><path d="M 0.0 0.0 L 22.4 0.0 L 23.4 0.0 " fill="none" stroke="#000000" stroke-width="2.00" transform="matrix(0.31, -0.95, -0.95, -0.31, 574.4, 120.2)"></path><path d="M 576.7 97.5 L 584.3 89.8 L 585.9 100.5 Z M 576.7 97.5 " fill="#000000"></path></g></g><g><clipPath id="clip0x6080010bed20"><path d="M 542.5 95.7 L 540.5 77.5 L 529.0 78.8 L 531.0 97.0 Z M 542.5 95.7 "></path></clipPath><g clip-path="url(#clip0x6080010bed20)"><path d="M 0.0 0.0 L 6.7 0.0 L 7.7 0.0 " fill="none" stroke="#000000" stroke-width="2.00" transform="matrix(-0.11, -0.99, -0.99, 0.11, 536.7, 95.3)"></path><path d="M 531.2 89.2 L 534.9 79.1 L 540.7 88.1 Z M 531.2 89.2 " fill="#000000"></path></g></g><g><clipPath id="clip0x6080012a1440"><path d="M 564.6 77.5 L 546.2 102.5 L 555.5 109.4 L 574.0 84.4 Z M 564.6 77.5 "></path></clipPath><g clip-path="url(#clip0x6080012a1440)"><path d="M 0.0 0.0 L 19.5 0.0 L 20.5 0.0 " fill="none" stroke="#000000" stroke-width="2.00" transform="matrix(-0.59, 0.80, 0.80, 0.59, 568.7, 81.8)"></path><path d="M 561.0 100.3 L 551.4 105.2 L 553.3 94.6 Z M 561.0 100.3 " fill="#000000"></path></g></g><g><clipPath id="clip0x608000ebd8e0"><path d="M 613.7 97.0 L 605.1 62.7 L 593.8 65.5 L 602.5 99.8 Z M 613.7 97.0 "></path></clipPath><g clip-path="url(#clip0x608000ebd8e0)"><path d="M 0.0 0.0 L 23.8 0.0 L 24.8 0.0 " fill="none" stroke="#000000" stroke-width="2.00" transform="matrix(-0.24, -0.97, -0.97, 0.24, 607.9, 97.5)"></path><path d="M 597.4 75.5 L 599.7 65.1 L 606.7 73.2 Z M 597.4 75.5 " fill="#000000"></path></g></g><image xlink:href="8670D783E5283208BEEB0B6CD8D9F699.png" width="71.00" height="62.00" transform="matrix(-1.01, 0.00, 0.00, 0.99, 541.2, 306.5)" opacity="0.50"></image><g><clipPath id="clip0x600000eac5a0"><path d="M 515.0 348.0 L 515.0 367.2 L 472.8 339.4 L 515.0 311.5 L 515.0 330.0 L 538.0 330.0 L 538.0 348.0 Z M 514.7 348.3 "></path></clipPath><g clip-path="url(#clip0x600000eac5a0)"><image xlink:href="ADFEDB07BA590A41659D8979D96483E7.png" width="600.00" height="600.00" transform="matrix(-0.50, 0.00, 0.00, 0.50, 538.0, 311.5)"></image></g></g><text xml:space="preserve" font-family="Georgia,Georgia" font-size="36.0" fill="#000000" transform="matrix(1.00, 0.00, -0.00, -1.00, 702.3, 239.8)">L</text><text xml:space="preserve" font-family="Georgia,Georgia" font-size="36.0" fill="#000000" transform="matrix(1.00, 0.00, -0.00, -1.00, 724.0, 239.8)">ä</text><text xml:space="preserve" font-family="Georgia,Georgia" font-size="36.0" fill="#000000" transform="matrix(1.00, 0.00, -0.00, -1.00, 742.1, 239.8)">m</text><text xml:space="preserve" font-family="Georgia,Georgia" font-size="36.0" fill="#000000" transform="matrix(1.00, 0.00, -0.00, -1.00, 773.8, 239.8)">p</text><text xml:space="preserve" font-family="Georgia,Georgia" font-size="36.0" fill="#000000" transform="matrix(1.00, 0.00, -0.00, -1.00, 794.4, 239.8)">ö</text><text xml:space="preserve" font-family="Georgia,Georgia" font-size="36.0" fill="#000000" transform="matrix(1.00, 0.00, -0.00, -1.00, 813.8, 239.8)">t</text><text xml:space="preserve" font-family="Georgia,Georgia" font-size="36.0" fill="#000000" transform="matrix(1.00, 0.00, -0.00, -1.00, 826.3, 239.8)">i</text><text xml:space="preserve" font-family="Georgia,Georgia" font-size="36.0" fill="#000000" transform="matrix(1.00, 0.00, -0.00, -1.00, 836.8, 239.8)">l</text><text xml:space="preserve" font-family="Georgia,Georgia" font-size="36.0" fill="#000000" transform="matrix(1.00, 0.00, -0.00, -1.00, 847.1, 239.8)">a</text><text xml:space="preserve" font-family="Georgia,Georgia" font-size="36.0" fill="#000000" transform="matrix(1.00, 0.00, -0.00, -1.00, 865.3, 239.8)"> </text><text xml:space="preserve" font-family="Georgia,Georgia" font-size="36.0" fill="#000000" transform="matrix(1.00, 0.00, -0.00, -1.00, 873.9, 239.8)">l</text><text xml:space="preserve" font-family="Georgia,Georgia" font-size="36.0" fill="#000000" transform="matrix(1.00, 0.00, -0.00, -1.00, 884.3, 239.8)">a</text><text xml:space="preserve" font-family="Georgia,Georgia" font-size="36.0" fill="#000000" transform="matrix(1.00, 0.00, -0.00, -1.00, 902.4, 239.8)">s</text><text xml:space="preserve" font-family="Georgia,Georgia" font-size="36.0" fill="#000000" transform="matrix(1.00, 0.00, -0.00, -1.00, 918.0, 239.8)">k</text><text xml:space="preserve" font-family="Georgia,Georgia" font-size="36.0" fill="#000000" transform="matrix(1.00, 0.00, -0.00, -1.00, 937.2, 239.8)">e</text><text xml:space="preserve" font-family="Georgia,Georgia" font-size="36.0" fill="#000000" transform="matrix(1.00, 0.00, -0.00, -1.00, 954.6, 239.8)">e</text><text xml:space="preserve" font-family="Georgia,Georgia" font-size="36.0" fill="#000000" transform="matrix(1.00, 0.00, -0.00, -1.00, 43.0, 239.8)">L</text><text xml:space="preserve" font-family="Georgia,Georgia" font-size="36.0" fill="#000000" transform="matrix(1.00, 0.00, -0.00, -1.00, 64.7, 239.8)">ä</text><text xml:space="preserve" font-family="Georgia,Georgia" font-size="36.0" fill="#000000" transform="matrix(1.00, 0.00, -0.00, -1.00, 82.8, 239.8)">m</text><text xml:space="preserve" font-family="Georgia,Georgia" font-size="36.0" fill="#000000" transform="matrix(1.00, 0.00, -0.00, -1.00, 114.6, 239.8)">p</text><text xml:space="preserve" font-family="Georgia,Georgia" font-size="36.0" fill="#000000" transform="matrix(1.00, 0.00, -0.00, -1.00, 135.1, 239.8)">ö</text><text xml:space="preserve" font-family="Georgia,Georgia" font-size="36.0" fill="#000000" transform="matrix(1.00, 0.00, -0.00, -1.00, 154.5, 239.8)">t</text><text xml:space="preserve" font-family="Georgia,Georgia" font-size="36.0" fill="#000000" transform="matrix(1.00, 0.00, -0.00, -1.00, 167.0, 239.8)">i</text><text xml:space="preserve" font-family="Georgia,Georgia" font-size="36.0" fill="#000000" transform="matrix(1.00, 0.00, -0.00, -1.00, 177.5, 239.8)">l</text><text xml:space="preserve" font-family="Georgia,Georgia" font-size="36.0" fill="#000000" transform="matrix(1.00, 0.00, -0.00, -1.00, 187.8, 239.8)">a</text><text xml:space="preserve" font-family="Georgia,Georgia" font-size="36.0" fill="#000000" transform="matrix(1.00, 0.00, -0.00, -1.00, 206.0, 239.8)"> </text><text xml:space="preserve" font-family="Georgia,Georgia" font-size="36.0" fill="#000000" transform="matrix(1.00, 0.00, -0.00, -1.00, 214.7, 239.8)">n</text><text xml:space="preserve" font-family="Georgia,Georgia" font-size="36.0" fill="#000000" transform="matrix(1.00, 0.00, -0.00, -1.00, 235.9, 239.8)">o</text><text xml:space="preserve" font-family="Georgia,Georgia" font-size="36.0" fill="#000000" transform="matrix(1.00, 0.00, -0.00, -1.00, 255.3, 239.8)">u</text><text xml:space="preserve" font-family="Georgia,Georgia" font-size="36.0" fill="#000000" transform="matrix(1.00, 0.00, -0.00, -1.00, 276.0, 239.8)">s</text><text xml:space="preserve" font-family="Georgia,Georgia" font-size="36.0" fill="#000000" transform="matrix(1.00, 0.00, -0.00, -1.00, 291.6, 239.8)">e</text><text xml:space="preserve" font-family="Georgia,Georgia" font-size="36.0" fill="#000000" transform="matrix(1.00, 0.00, -0.00, -1.00, 309.0, 239.8)">e</text><path d="M 37.3 0.0 C 14.9 19.5 2.1 42.8 0.2 67.0 C -1.8 93.6 9.5 120.1 32.4 142.2 L 33.1 142.2 " fill="none" stroke="#000000" stroke-width="2.00" transform="matrix(1.00, 0.00, 0.00, -1.00, 329.9, 326.2)"></path><path d="M 359.0 181.1 L 369.4 178.2 L 365.5 188.2 Z M 359.0 181.1 " fill="#000000"></path><path d="M 37.3 0.0 C 14.9 19.5 2.1 42.8 0.2 67.0 C -1.8 93.6 9.5 120.1 32.4 142.2 L 33.1 142.2 " fill="none" stroke="#000000" stroke-width="2.00" transform="matrix(-1.00, 0.00, 0.00, -1.00, 682.1, 326.2)"></path><path d="M 653.0 181.1 L 642.6 178.2 L 646.5 188.2 Z M 653.0 181.1 " fill="#000000"></path><text xml:space="preserve" font-family="Georgia,Georgia" font-size="28.0" fill="#000000" transform="matrix(1.00, 0.00, -0.00, -1.00, 290.2, 385.9)">0</text><text xml:space="preserve" font-family="Georgia,Georgia" font-size="28.0" fill="#000000" transform="matrix(1.00, 0.00, -0.00, -1.00, 307.4, 385.9)"> </text><text xml:space="preserve" font-family="Georgia,Georgia" font-size="18.7" fill="#000000" transform="matrix(1.00, 0.00, -0.00, -1.00, 314.1, 394.5)">o</text><text xml:space="preserve" font-family="Georgia,Georgia" font-size="28.0" fill="#000000" transform="matrix(1.00, 0.00, -0.00, -1.00, 324.2, 385.9)">C</text><text xml:space="preserve" font-family="Georgia,Georgia" font-size="28.0" fill="#000000" transform="matrix(1.00, 0.00, -0.00, -1.00, 658.6, 385.9)">4</text><text xml:space="preserve" font-family="Georgia,Georgia" font-size="28.0" fill="#000000" transform="matrix(1.00, 0.00, -0.00, -1.00, 674.4, 385.9)">0</text><text xml:space="preserve" font-family="Georgia,Georgia" font-size="28.0" fill="#000000" transform="matrix(1.00, 0.00, -0.00, -1.00, 691.6, 385.9)"> </text><text xml:space="preserve" font-family="Georgia,Georgia" font-size="18.7" fill="#000000" transform="matrix(1.00, 0.00, -0.00, -1.00, 698.4, 394.5)">o</text><text xml:space="preserve" font-family="Georgia,Georgia" font-size="28.0" fill="#000000" transform="matrix(1.00, 0.00, -0.00, -1.00, 708.4, 385.9)">C</text><text xml:space="preserve" font-family="Georgia,Georgia" font-size="28.0" fill="#000000" transform="matrix(1.00, 0.00, -0.00, -1.00, 287.4, 73.9)">2</text><text xml:space="preserve" font-family="Georgia,Georgia" font-size="28.0" fill="#000000" transform="matrix(1.00, 0.00, -0.00, -1.00, 303.0, 73.9)">0</text><text xml:space="preserve" font-family="Georgia,Georgia" font-size="28.0" fill="#000000" transform="matrix(1.00, 0.00, -0.00, -1.00, 320.2, 73.9)"> </text><text xml:space="preserve" font-family="Georgia,Georgia" font-size="18.7" fill="#000000" transform="matrix(1.00, 0.00, -0.00, -1.00, 326.9, 82.5)">o</text><text xml:space="preserve" font-family="Georgia,Georgia" font-size="28.0" fill="#000000" transform="matrix(1.00, 0.00, -0.00, -1.00, 337.0, 73.9)">C</text><text xml:space="preserve" font-family="Georgia,Georgia" font-size="28.0" fill="#000000" transform="matrix(1.00, 0.00, -0.00, -1.00, 655.8, 73.9)">2</text><text xml:space="preserve" font-family="Georgia,Georgia" font-size="28.0" fill="#000000" transform="matrix(1.00, 0.00, -0.00, -1.00, 671.4, 73.9)">0</text><text xml:space="preserve" font-family="Georgia,Georgia" font-size="28.0" fill="#000000" transform="matrix(1.00, 0.00, -0.00, -1.00, 688.6, 73.9)"> </text><text xml:space="preserve" font-family="Georgia,Georgia" font-size="18.7" fill="#000000" transform="matrix(1.00, 0.00, -0.00, -1.00, 695.3, 82.5)">o</text><text xml:space="preserve" font-family="Georgia,Georgia" font-size="28.0" fill="#000000" transform="matrix(1.00, 0.00, -0.00, -1.00, 705.4, 73.9)">C</text><text xml:space="preserve" font-family="Georgia,Georgia" font-size="28.0" fill="#000000" transform="matrix(1.00, 0.00, -0.00, -1.00, 464.8, 413.9)">A</text><text xml:space="preserve" font-family="Georgia,Georgia" font-size="28.0" fill="#000000" transform="matrix(1.00, 0.00, -0.00, -1.00, 483.6, 413.9)">l</text><text xml:space="preserve" font-family="Georgia,Georgia" font-size="28.0" fill="#000000" transform="matrix(1.00, 0.00, -0.00, -1.00, 491.6, 413.9)">u</text><text xml:space="preserve" font-family="Georgia,Georgia" font-size="28.0" fill="#000000" transform="matrix(1.00, 0.00, -0.00, -1.00, 507.7, 413.9)">s</text><text xml:space="preserve" font-family="Georgia,Georgia" font-size="28.0" fill="#000000" transform="matrix(1.00, 0.00, -0.00, -1.00, 519.8, 413.9)">s</text><text xml:space="preserve" font-family="Georgia,Georgia" font-size="28.0" fill="#000000" transform="matrix(1.00, 0.00, -0.00, -1.00, 531.9, 413.9)">a</text><text xml:space="preserve" font-family="Georgia,Georgia" font-size="28.0" fill="#000000" transform="matrix(1.00, 0.00, -0.00, -1.00, 462.2, 195.9)">L</text><text xml:space="preserve" font-family="Georgia,Georgia" font-size="28.0" fill="#000000" transform="matrix(1.00, 0.00, -0.00, -1.00, 479.0, 195.9)">o</text><text xml:space="preserve" font-family="Georgia,Georgia" font-size="28.0" fill="#000000" transform="matrix(1.00, 0.00, -0.00, -1.00, 494.1, 195.9)">p</text><text xml:space="preserve" font-family="Georgia,Georgia" font-size="28.0" fill="#000000" transform="matrix(1.00, 0.00, -0.00, -1.00, 510.2, 195.9)">u</text><text xml:space="preserve" font-family="Georgia,Georgia" font-size="28.0" fill="#000000" transform="matrix(1.00, 0.00, -0.00, -1.00, 526.3, 195.9)">s</text><text xml:space="preserve" font-family="Georgia,Georgia" font-size="28.0" fill="#000000" transform="matrix(1.00, 0.00, -0.00, -1.00, 538.4, 195.9)">s</text><text xml:space="preserve" font-family="Georgia,Georgia" font-size="28.0" fill="#000000" transform="matrix(1.00, 0.00, -0.00, -1.00, 550.5, 195.9)">a</text></g></svg>