<?xml version="1.0" encoding="UTF-8" standalone="no"?><svg xmlns="http://www.w3.org/2000/svg" xmlns:xlink="http://www.w3.org/1999/xlink" clip-rule="evenodd" stroke-miterlimit="10" viewBox="0 0 1024 768"><desc>SVG generated by Keynote</desc><defs></defs><g transform="matrix(1.00, 0.00, -0.00, -1.00, 0.0, 768.0)"><path d="M 0.0 768.0 L 1024.0 768.0 L 1024.0 0.0 L 0.0 0.0 Z M 0.0 768.0 " fill="#FEFFFF"></path><text xml:space="preserve" font-family="Georgia,Georgia" font-size="80.0" fill="#000000" transform="matrix(1.00, 0.00, -0.00, -1.00, 339.5, 691.5)">M</text><text xml:space="preserve" font-family="Georgia,Georgia" font-size="80.0" fill="#000000" transform="matrix(1.00, 0.00, -0.00, -1.00, 413.7, 691.5)">u</text><text xml:space="preserve" font-family="Georgia,Georgia" font-size="80.0" fill="#000000" transform="matrix(1.00, 0.00, -0.00, -1.00, 459.7, 691.5)">u</text><text xml:space="preserve" font-family="Georgia,Georgia" font-size="80.0" fill="#000000" transform="matrix(1.00, 0.00, -0.00, -1.00, 505.7, 691.5)">n</text><text xml:space="preserve" font-family="Georgia,Georgia" font-size="80.0" fill="#000000" transform="matrix(1.00, 0.00, -0.00, -1.00, 553.0, 691.5)">t</text><text xml:space="preserve" font-family="Georgia,Georgia" font-size="80.0" fill="#000000" transform="matrix(1.00, 0.00, -0.00, -1.00, 580.6, 691.5)">a</text><text xml:space="preserve" font-family="Georgia,Georgia" font-size="80.0" fill="#000000" transform="matrix(1.00, 0.00, -0.00, -1.00, 620.9, 691.5)">j</text><text xml:space="preserve" font-family="Georgia,Georgia" font-size="80.0" fill="#000000" transform="matrix(1.00, 0.00, -0.00, -1.00, 644.3, 691.5)">a</text><text xml:space="preserve" font-family="Georgia,Georgia" font-size="24.8" fill="#000000" transform="matrix(1.00, 0.00, -0.00, -1.00, 86.3, 612.4)">-</text><text xml:space="preserve" font-family="Georgia,Georgia" font-size="33.0" fill="#000000" transform="matrix(1.00, 0.00, -0.00, -1.00, 118.4, 609.7)">V</text><text xml:space="preserve" font-family="Georgia,Georgia" font-size="33.0" fill="#000000" transform="matrix(1.00, 0.00, -0.00, -1.00, 140.4, 609.7)">i</text><text xml:space="preserve" font-family="Georgia,Georgia" font-size="33.0" fill="#000000" transform="matrix(1.00, 0.00, -0.00, -1.00, 150.0, 609.7)">r</text><text xml:space="preserve" font-family="Georgia,Georgia" font-size="33.0" fill="#000000" transform="matrix(1.00, 0.00, -0.00, -1.00, 163.6, 609.7)">t</text><text xml:space="preserve" font-family="Georgia,Georgia" font-size="33.0" fill="#000000" transform="matrix(1.00, 0.00, -0.00, -1.00, 175.0, 609.7)">a</text><text xml:space="preserve" font-family="Georgia,Georgia" font-size="33.0" fill="#000000" transform="matrix(1.00, 0.00, -0.00, -1.00, 191.6, 609.7)"> </text><text xml:space="preserve" font-family="Georgia,Georgia" font-size="33.0" fill="#000000" transform="matrix(1.00, 0.00, -0.00, -1.00, 199.5, 609.7)">m</text><text xml:space="preserve" font-family="Georgia,Georgia" font-size="33.0" fill="#000000" transform="matrix(1.00, 0.00, -0.00, -1.00, 228.6, 609.7)">u</text><text xml:space="preserve" font-family="Georgia,Georgia" font-size="33.0" fill="#000000" transform="matrix(1.00, 0.00, -0.00, -1.00, 247.6, 609.7)">u</text><text xml:space="preserve" font-family="Georgia,Georgia" font-size="33.0" fill="#000000" transform="matrix(1.00, 0.00, -0.00, -1.00, 266.6, 609.7)">n</text><text xml:space="preserve" font-family="Georgia,Georgia" font-size="33.0" fill="#000000" transform="matrix(1.00, 0.00, -0.00, -1.00, 286.1, 609.7)">t</text><text xml:space="preserve" font-family="Georgia,Georgia" font-size="33.0" fill="#000000" transform="matrix(1.00, 0.00, -0.00, -1.00, 297.5, 609.7)">u</text><text xml:space="preserve" font-family="Georgia,Georgia" font-size="33.0" fill="#000000" transform="matrix(1.00, 0.00, -0.00, -1.00, 316.5, 609.7)">u</text><text xml:space="preserve" font-family="Georgia,Georgia" font-size="33.0" fill="#000000" transform="matrix(1.00, 0.00, -0.00, -1.00, 335.5, 609.7)"> </text><text xml:space="preserve" font-family="Georgia,Georgia" font-size="33.0" fill="#000000" transform="matrix(1.00, 0.00, -0.00, -1.00, 343.4, 609.7)">k</text><text xml:space="preserve" font-family="Georgia,Georgia" font-size="33.0" fill="#000000" transform="matrix(1.00, 0.00, -0.00, -1.00, 361.1, 609.7)">ä</text><text xml:space="preserve" font-family="Georgia,Georgia" font-size="33.0" fill="#000000" transform="matrix(1.00, 0.00, -0.00, -1.00, 377.7, 609.7)">ä</text><text xml:space="preserve" font-family="Georgia,Georgia" font-size="33.0" fill="#000000" transform="matrix(1.00, 0.00, -0.00, -1.00, 394.3, 609.7)">n</text><text xml:space="preserve" font-family="Georgia,Georgia" font-size="33.0" fill="#000000" transform="matrix(1.00, 0.00, -0.00, -1.00, 413.8, 609.7)">t</text><text xml:space="preserve" font-family="Georgia,Georgia" font-size="33.0" fill="#000000" transform="matrix(1.00, 0.00, -0.00, -1.00, 425.2, 609.7)">e</text><text xml:space="preserve" font-family="Georgia,Georgia" font-size="33.0" fill="#000000" transform="matrix(1.00, 0.00, -0.00, -1.00, 441.2, 609.7)">i</text><text xml:space="preserve" font-family="Georgia,Georgia" font-size="33.0" fill="#000000" transform="matrix(1.00, 0.00, -0.00, -1.00, 450.9, 609.7)">s</text><text xml:space="preserve" font-family="Georgia,Georgia" font-size="33.0" fill="#000000" transform="matrix(1.00, 0.00, -0.00, -1.00, 465.1, 609.7)">e</text><text xml:space="preserve" font-family="Georgia,Georgia" font-size="33.0" fill="#000000" transform="matrix(1.00, 0.00, -0.00, -1.00, 481.1, 609.7)">s</text><text xml:space="preserve" font-family="Georgia,Georgia" font-size="33.0" fill="#000000" transform="matrix(1.00, 0.00, -0.00, -1.00, 495.4, 609.7)">t</text><text xml:space="preserve" font-family="Georgia,Georgia" font-size="33.0" fill="#000000" transform="matrix(1.00, 0.00, -0.00, -1.00, 506.7, 609.7)">i</text><text xml:space="preserve" font-family="Georgia,Georgia" font-size="33.0" fill="#000000" transform="matrix(1.00, 0.00, -0.00, -1.00, 516.4, 609.7)"> </text><text xml:space="preserve" font-family="Georgia,Georgia" font-size="33.0" fill="#000000" transform="matrix(1.00, 0.00, -0.00, -1.00, 524.4, 609.7)">k</text><text xml:space="preserve" font-family="Georgia,Georgia" font-size="33.0" fill="#000000" transform="matrix(1.00, 0.00, -0.00, -1.00, 542.0, 609.7)">i</text><text xml:space="preserve" font-family="Georgia,Georgia" font-size="33.0" fill="#000000" transform="matrix(1.00, 0.00, -0.00, -1.00, 551.7, 609.7)">e</text><text xml:space="preserve" font-family="Georgia,Georgia" font-size="33.0" fill="#000000" transform="matrix(1.00, 0.00, -0.00, -1.00, 567.7, 609.7)">r</text><text xml:space="preserve" font-family="Georgia,Georgia" font-size="33.0" fill="#000000" transform="matrix(1.00, 0.00, -0.00, -1.00, 581.2, 609.7)">r</text><text xml:space="preserve" font-family="Georgia,Georgia" font-size="33.0" fill="#000000" transform="matrix(1.00, 0.00, -0.00, -1.00, 594.7, 609.7)">o</text><text xml:space="preserve" font-family="Georgia,Georgia" font-size="33.0" fill="#000000" transform="matrix(1.00, 0.00, -0.00, -1.00, 612.5, 609.7)">s</text><text xml:space="preserve" font-family="Georgia,Georgia" font-size="33.0" fill="#000000" transform="matrix(1.00, 0.00, -0.00, -1.00, 626.8, 609.7)">l</text><text xml:space="preserve" font-family="Georgia,Georgia" font-size="33.0" fill="#000000" transform="matrix(1.00, 0.00, -0.00, -1.00, 636.2, 609.7)">u</text><text xml:space="preserve" font-family="Georgia,Georgia" font-size="33.0" fill="#000000" transform="matrix(1.00, 0.00, -0.00, -1.00, 655.2, 609.7)">k</text><text xml:space="preserve" font-family="Georgia,Georgia" font-size="33.0" fill="#000000" transform="matrix(1.00, 0.00, -0.00, -1.00, 672.9, 609.7)">u</text><text xml:space="preserve" font-family="Georgia,Georgia" font-size="33.0" fill="#000000" transform="matrix(1.00, 0.00, -0.00, -1.00, 691.8, 609.7)">j</text><text xml:space="preserve" font-family="Georgia,Georgia" font-size="33.0" fill="#000000" transform="matrix(1.00, 0.00, -0.00, -1.00, 701.5, 609.7)">e</text><text xml:space="preserve" font-family="Georgia,Georgia" font-size="33.0" fill="#000000" transform="matrix(1.00, 0.00, -0.00, -1.00, 717.4, 609.7)">n</text><text xml:space="preserve" font-family="Georgia,Georgia" font-size="33.0" fill="#000000" transform="matrix(1.00, 0.00, -0.00, -1.00, 736.9, 609.7)"> </text><text xml:space="preserve" font-family="Georgia,Georgia" font-size="33.0" fill="#000000" transform="matrix(1.00, 0.00, -0.00, -1.00, 744.9, 609.7)">s</text><text xml:space="preserve" font-family="Georgia,Georgia" font-size="33.0" fill="#000000" transform="matrix(1.00, 0.00, -0.00, -1.00, 759.2, 609.7)">u</text><text xml:space="preserve" font-family="Georgia,Georgia" font-size="33.0" fill="#000000" transform="matrix(1.00, 0.00, -0.00, -1.00, 778.1, 609.7)">h</text><text xml:space="preserve" font-family="Georgia,Georgia" font-size="33.0" fill="#000000" transform="matrix(1.00, 0.00, -0.00, -1.00, 797.4, 609.7)">t</text><text xml:space="preserve" font-family="Georgia,Georgia" font-size="33.0" fill="#000000" transform="matrix(1.00, 0.00, -0.00, -1.00, 808.8, 609.7)">e</text><text xml:space="preserve" font-family="Georgia,Georgia" font-size="33.0" fill="#000000" transform="matrix(1.00, 0.00, -0.00, -1.00, 824.7, 609.7)">e</text><text xml:space="preserve" font-family="Georgia,Georgia" font-size="33.0" fill="#000000" transform="matrix(1.00, 0.00, -0.00, -1.00, 840.7, 609.7)">s</text><text xml:space="preserve" font-family="Georgia,Georgia" font-size="33.0" fill="#000000" transform="matrix(1.00, 0.00, -0.00, -1.00, 854.9, 609.7)">s</text><text xml:space="preserve" font-family="Georgia,Georgia" font-size="33.0" fill="#000000" transform="matrix(1.00, 0.00, -0.00, -1.00, 869.2, 609.7)">a</text><text xml:space="preserve" font-family="Georgia,Georgia" font-size="33.0" fill="#000000" transform="matrix(1.00, 0.00, -0.00, -1.00, 885.8, 609.7)"> </text><text xml:space="preserve" font-family="Georgia,Georgia" font-size="24.8" fill="#000000" transform="matrix(1.00, 0.00, -0.00, -1.00, 86.3, 565.7)">-</text><text xml:space="preserve" font-family="Georgia,Georgia" font-size="33.0" fill="#000000" transform="matrix(1.00, 0.00, -0.00, -1.00, 118.4, 563.0)">V</text><text xml:space="preserve" font-family="Georgia,Georgia" font-size="33.0" fill="#000000" transform="matrix(1.00, 0.00, -0.00, -1.00, 140.4, 563.0)">i</text><text xml:space="preserve" font-family="Georgia,Georgia" font-size="33.0" fill="#000000" transform="matrix(1.00, 0.00, -0.00, -1.00, 150.0, 563.0)">r</text><text xml:space="preserve" font-family="Georgia,Georgia" font-size="33.0" fill="#000000" transform="matrix(1.00, 0.00, -0.00, -1.00, 163.6, 563.0)">t</text><text xml:space="preserve" font-family="Georgia,Georgia" font-size="33.0" fill="#000000" transform="matrix(1.00, 0.00, -0.00, -1.00, 175.0, 563.0)">a</text><text xml:space="preserve" font-family="Georgia,Georgia" font-size="33.0" fill="#000000" transform="matrix(1.00, 0.00, -0.00, -1.00, 191.6, 563.0)"> </text><text xml:space="preserve" font-family="Georgia,Georgia" font-size="33.0" fill="#000000" transform="matrix(1.00, 0.00, -0.00, -1.00, 199.5, 563.0)">o</text><text xml:space="preserve" font-family="Georgia,Georgia" font-size="33.0" fill="#000000" transform="matrix(1.00, 0.00, -0.00, -1.00, 217.3, 563.0)">n</text><text xml:space="preserve" font-family="Georgia,Georgia" font-size="33.0" fill="#000000" transform="matrix(1.00, 0.00, -0.00, -1.00, 236.8, 563.0)"> </text><text xml:space="preserve" font-family="Georgia,Georgia" font-size="33.0" fill="#000000" transform="matrix(1.00, 0.00, -0.00, -1.00, 244.8, 563.0)">s</text><text xml:space="preserve" font-family="Georgia,Georgia" font-size="33.0" fill="#000000" transform="matrix(1.00, 0.00, -0.00, -1.00, 259.1, 563.0)">u</text><text xml:space="preserve" font-family="Georgia,Georgia" font-size="33.0" fill="#000000" transform="matrix(1.00, 0.00, -0.00, -1.00, 278.1, 563.0)">u</text><text xml:space="preserve" font-family="Georgia,Georgia" font-size="33.0" fill="#000000" transform="matrix(1.00, 0.00, -0.00, -1.00, 297.0, 563.0)">r</text><text xml:space="preserve" font-family="Georgia,Georgia" font-size="33.0" fill="#000000" transform="matrix(1.00, 0.00, -0.00, -1.00, 310.5, 563.0)">e</text><text xml:space="preserve" font-family="Georgia,Georgia" font-size="33.0" fill="#000000" transform="matrix(1.00, 0.00, -0.00, -1.00, 326.5, 563.0)">m</text><text xml:space="preserve" font-family="Georgia,Georgia" font-size="33.0" fill="#000000" transform="matrix(1.00, 0.00, -0.00, -1.00, 355.6, 563.0)">p</text><text xml:space="preserve" font-family="Georgia,Georgia" font-size="33.0" fill="#000000" transform="matrix(1.00, 0.00, -0.00, -1.00, 374.4, 563.0)">i</text><text xml:space="preserve" font-family="Georgia,Georgia" font-size="33.0" fill="#000000" transform="matrix(1.00, 0.00, -0.00, -1.00, 384.1, 563.0)"> </text><text xml:space="preserve" font-family="Georgia,Georgia" font-size="33.0" fill="#000000" transform="matrix(1.00, 0.00, -0.00, -1.00, 392.1, 563.0)">s</text><text xml:space="preserve" font-family="Georgia,Georgia" font-size="33.0" fill="#000000" transform="matrix(1.00, 0.00, -0.00, -1.00, 406.3, 563.0)">i</text><text xml:space="preserve" font-family="Georgia,Georgia" font-size="33.0" fill="#000000" transform="matrix(1.00, 0.00, -0.00, -1.00, 416.0, 563.0)">l</text><text xml:space="preserve" font-family="Georgia,Georgia" font-size="33.0" fill="#000000" transform="matrix(1.00, 0.00, -0.00, -1.00, 425.5, 563.0)">l</text><text xml:space="preserve" font-family="Georgia,Georgia" font-size="33.0" fill="#000000" transform="matrix(1.00, 0.00, -0.00, -1.00, 434.9, 563.0)">ä</text><text xml:space="preserve" font-family="Georgia,Georgia" font-size="33.0" fill="#000000" transform="matrix(1.00, 0.00, -0.00, -1.00, 451.5, 563.0)"> </text><text xml:space="preserve" font-family="Georgia,Georgia" font-size="33.0" fill="#000000" transform="matrix(1.00, 0.00, -0.00, -1.00, 459.5, 563.0)">p</text><text xml:space="preserve" font-family="Georgia,Georgia" font-size="33.0" fill="#000000" transform="matrix(1.00, 0.00, -0.00, -1.00, 478.4, 563.0)">u</text><text xml:space="preserve" font-family="Georgia,Georgia" font-size="33.0" fill="#000000" transform="matrix(1.00, 0.00, -0.00, -1.00, 497.3, 563.0)">o</text><text xml:space="preserve" font-family="Georgia,Georgia" font-size="33.0" fill="#000000" transform="matrix(1.00, 0.00, -0.00, -1.00, 515.1, 563.0)">l</text><text xml:space="preserve" font-family="Georgia,Georgia" font-size="33.0" fill="#000000" transform="matrix(1.00, 0.00, -0.00, -1.00, 524.6, 563.0)">e</text><text xml:space="preserve" font-family="Georgia,Georgia" font-size="33.0" fill="#000000" transform="matrix(1.00, 0.00, -0.00, -1.00, 540.5, 563.0)">l</text><text xml:space="preserve" font-family="Georgia,Georgia" font-size="33.0" fill="#000000" transform="matrix(1.00, 0.00, -0.00, -1.00, 550.0, 563.0)">l</text><text xml:space="preserve" font-family="Georgia,Georgia" font-size="33.0" fill="#000000" transform="matrix(1.00, 0.00, -0.00, -1.00, 559.4, 563.0)">a</text><text xml:space="preserve" font-family="Georgia,Georgia" font-size="33.0" fill="#000000" transform="matrix(1.00, 0.00, -0.00, -1.00, 576.1, 563.0)">,</text><text xml:space="preserve" font-family="Georgia,Georgia" font-size="33.0" fill="#000000" transform="matrix(1.00, 0.00, -0.00, -1.00, 584.9, 563.0)"> </text><text xml:space="preserve" font-family="Georgia,Georgia" font-size="33.0" fill="#000000" transform="matrix(1.00, 0.00, -0.00, -1.00, 592.9, 563.0)">m</text><text xml:space="preserve" font-family="Georgia,Georgia" font-size="33.0" fill="#000000" transform="matrix(1.00, 0.00, -0.00, -1.00, 622.0, 563.0)">i</text><text xml:space="preserve" font-family="Georgia,Georgia" font-size="33.0" fill="#000000" transform="matrix(1.00, 0.00, -0.00, -1.00, 631.6, 563.0)">l</text><text xml:space="preserve" font-family="Georgia,Georgia" font-size="33.0" fill="#000000" transform="matrix(1.00, 0.00, -0.00, -1.00, 641.1, 563.0)">l</text><text xml:space="preserve" font-family="Georgia,Georgia" font-size="33.0" fill="#000000" transform="matrix(1.00, 0.00, -0.00, -1.00, 650.5, 563.0)">ä</text><text xml:space="preserve" font-family="Georgia,Georgia" font-size="33.0" fill="#000000" transform="matrix(1.00, 0.00, -0.00, -1.00, 667.2, 563.0)"> </text><text xml:space="preserve" font-family="Georgia,Georgia" font-size="33.0" fill="#000000" transform="matrix(1.00, 0.00, -0.00, -1.00, 675.1, 563.0)">o</text><text xml:space="preserve" font-family="Georgia,Georgia" font-size="33.0" fill="#000000" transform="matrix(1.00, 0.00, -0.00, -1.00, 692.9, 563.0)">n</text><text xml:space="preserve" font-family="Georgia,Georgia" font-size="33.0" fill="#000000" transform="matrix(1.00, 0.00, -0.00, -1.00, 712.4, 563.0)"> </text><text xml:space="preserve" font-family="Georgia,Georgia" font-size="33.0" fill="#000000" transform="matrix(1.00, 0.00, -0.00, -1.00, 720.4, 563.0)">v</text><text xml:space="preserve" font-family="Georgia,Georgia" font-size="33.0" fill="#000000" transform="matrix(1.00, 0.00, -0.00, -1.00, 736.7, 563.0)">ä</text><text xml:space="preserve" font-family="Georgia,Georgia" font-size="33.0" fill="#000000" transform="matrix(1.00, 0.00, -0.00, -1.00, 753.4, 563.0)">h</text><text xml:space="preserve" font-family="Georgia,Georgia" font-size="33.0" fill="#000000" transform="matrix(1.00, 0.00, -0.00, -1.00, 772.6, 563.0)">e</text><text xml:space="preserve" font-family="Georgia,Georgia" font-size="33.0" fill="#000000" transform="matrix(1.00, 0.00, -0.00, -1.00, 788.5, 563.0)">m</text><text xml:space="preserve" font-family="Georgia,Georgia" font-size="33.0" fill="#000000" transform="matrix(1.00, 0.00, -0.00, -1.00, 817.6, 563.0)">m</text><text xml:space="preserve" font-family="Georgia,Georgia" font-size="33.0" fill="#000000" transform="matrix(1.00, 0.00, -0.00, -1.00, 846.7, 563.0)">ä</text><text xml:space="preserve" font-family="Georgia,Georgia" font-size="33.0" fill="#000000" transform="matrix(1.00, 0.00, -0.00, -1.00, 863.3, 563.0)">n</text><text xml:space="preserve" font-family="Georgia,Georgia" font-size="33.0" fill="#000000" transform="matrix(1.00, 0.00, -0.00, -1.00, 882.8, 563.0)"> </text><text xml:space="preserve" font-family="Georgia,Georgia" font-size="33.0" fill="#000000" transform="matrix(1.00, 0.00, -0.00, -1.00, 118.4, 522.3)">k</text><text xml:space="preserve" font-family="Georgia,Georgia" font-size="33.0" fill="#000000" transform="matrix(1.00, 0.00, -0.00, -1.00, 136.1, 522.3)">i</text><text xml:space="preserve" font-family="Georgia,Georgia" font-size="33.0" fill="#000000" transform="matrix(1.00, 0.00, -0.00, -1.00, 145.7, 522.3)">e</text><text xml:space="preserve" font-family="Georgia,Georgia" font-size="33.0" fill="#000000" transform="matrix(1.00, 0.00, -0.00, -1.00, 161.7, 522.3)">r</text><text xml:space="preserve" font-family="Georgia,Georgia" font-size="33.0" fill="#000000" transform="matrix(1.00, 0.00, -0.00, -1.00, 175.2, 522.3)">r</text><text xml:space="preserve" font-family="Georgia,Georgia" font-size="33.0" fill="#000000" transform="matrix(1.00, 0.00, -0.00, -1.00, 188.7, 522.3)">o</text><text xml:space="preserve" font-family="Georgia,Georgia" font-size="33.0" fill="#000000" transform="matrix(1.00, 0.00, -0.00, -1.00, 206.5, 522.3)">k</text><text xml:space="preserve" font-family="Georgia,Georgia" font-size="33.0" fill="#000000" transform="matrix(1.00, 0.00, -0.00, -1.00, 224.2, 522.3)">s</text><text xml:space="preserve" font-family="Georgia,Georgia" font-size="33.0" fill="#000000" transform="matrix(1.00, 0.00, -0.00, -1.00, 238.4, 522.3)">i</text><text xml:space="preserve" font-family="Georgia,Georgia" font-size="33.0" fill="#000000" transform="matrix(1.00, 0.00, -0.00, -1.00, 248.1, 522.3)">a</text><g><clipPath id="clip0x7f8e4595c660"><path d="M 301.0 252.0 L 589.0 252.0 L 589.0 35.0 L 301.0 35.0 Z M 301.1 251.6 "></path></clipPath><g clip-path="url(#clip0x7f8e4595c660)"><image xlink:href="../../DE1FF829-EA76-4E32-9BB1-21B6C18F4A69/assets/271BC03D4A32E6E90EE0EAD263513615.png" width="763.00" height="573.00" transform="matrix(0.38, 0.00, -0.00, -0.38, 301.0, 252.0)"></image></g></g><text xml:space="preserve" font-family="Georgia,Georgia" font-size="28.0" fill="#000000" transform="matrix(1.00, 0.00, -0.00, -1.00, 504.4, 438.6)">=</text><text xml:space="preserve" font-family="Georgia,Georgia" font-size="28.0" fill="#000000" transform="matrix(1.00, 0.00, -0.00, -1.00, 522.4, 438.6)"> </text><text xml:space="preserve" font-family="Georgia,Georgia" font-size="28.0" fill="#000000" transform="matrix(1.00, 0.00, -0.00, -1.00, 529.2, 438.6)">k</text><text xml:space="preserve" font-family="Georgia,Georgia" font-size="28.0" fill="#000000" transform="matrix(1.00, 0.00, -0.00, -1.00, 544.2, 438.6)">i</text><text xml:space="preserve" font-family="Georgia,Georgia" font-size="28.0" fill="#000000" transform="matrix(1.00, 0.00, -0.00, -1.00, 552.4, 438.6)">e</text><text xml:space="preserve" font-family="Georgia,Georgia" font-size="28.0" fill="#000000" transform="matrix(1.00, 0.00, -0.00, -1.00, 565.9, 438.6)">r</text><text xml:space="preserve" font-family="Georgia,Georgia" font-size="28.0" fill="#000000" transform="matrix(1.00, 0.00, -0.00, -1.00, 577.4, 438.6)">r</text><text xml:space="preserve" font-family="Georgia,Georgia" font-size="28.0" fill="#000000" transform="matrix(1.00, 0.00, -0.00, -1.00, 588.9, 438.6)">o</text><text xml:space="preserve" font-family="Georgia,Georgia" font-size="28.0" fill="#000000" transform="matrix(1.00, 0.00, -0.00, -1.00, 604.0, 438.6)">s</text><text xml:space="preserve" font-family="Georgia,Georgia" font-size="28.0" fill="#000000" transform="matrix(1.00, 0.00, -0.00, -1.00, 616.1, 438.6)">t</text><text xml:space="preserve" font-family="Georgia,Georgia" font-size="28.0" fill="#000000" transform="matrix(1.00, 0.00, -0.00, -1.00, 625.7, 438.6)">e</text><text xml:space="preserve" font-family="Georgia,Georgia" font-size="28.0" fill="#000000" transform="matrix(1.00, 0.00, -0.00, -1.00, 639.3, 438.6)">n</text><text xml:space="preserve" font-family="Georgia,Georgia" font-size="28.0" fill="#000000" transform="matrix(1.00, 0.00, -0.00, -1.00, 655.8, 438.6)"> </text><text xml:space="preserve" font-family="Georgia,Georgia" font-size="28.0" fill="#000000" transform="matrix(1.00, 0.00, -0.00, -1.00, 662.6, 438.6)">l</text><text xml:space="preserve" font-family="Georgia,Georgia" font-size="28.0" fill="#000000" transform="matrix(1.00, 0.00, -0.00, -1.00, 670.6, 438.6)">u</text><text xml:space="preserve" font-family="Georgia,Georgia" font-size="28.0" fill="#000000" transform="matrix(1.00, 0.00, -0.00, -1.00, 686.7, 438.6)">k</text><text xml:space="preserve" font-family="Georgia,Georgia" font-size="28.0" fill="#000000" transform="matrix(1.00, 0.00, -0.00, -1.00, 701.7, 438.6)">u</text><text xml:space="preserve" font-family="Georgia,Georgia" font-size="28.0" fill="#000000" transform="matrix(1.00, 0.00, -0.00, -1.00, 717.8, 438.6)">m</text><text xml:space="preserve" font-family="Georgia,Georgia" font-size="28.0" fill="#000000" transform="matrix(1.00, 0.00, -0.00, -1.00, 742.5, 438.6)">ä</text><text xml:space="preserve" font-family="Georgia,Georgia" font-size="28.0" fill="#000000" transform="matrix(1.00, 0.00, -0.00, -1.00, 756.6, 438.6)">ä</text><text xml:space="preserve" font-family="Georgia,Georgia" font-size="28.0" fill="#000000" transform="matrix(1.00, 0.00, -0.00, -1.00, 770.7, 438.6)">r</text><text xml:space="preserve" font-family="Georgia,Georgia" font-size="28.0" fill="#000000" transform="matrix(1.00, 0.00, -0.00, -1.00, 782.1, 438.6)">ä</text><text xml:space="preserve" font-family="Georgia,Georgia" font-size="28.0" fill="#000000" transform="matrix(1.00, 0.00, -0.00, -1.00, 796.2, 438.6)"> </text><text xml:space="preserve" font-family="Georgia,Georgia" font-size="28.0" fill="#000000" transform="matrix(1.00, 0.00, -0.00, -1.00, 803.0, 438.6)">e</text><text xml:space="preserve" font-family="Georgia,Georgia" font-size="28.0" fill="#000000" transform="matrix(1.00, 0.00, -0.00, -1.00, 816.6, 438.6)">n</text><text xml:space="preserve" font-family="Georgia,Georgia" font-size="28.0" fill="#000000" transform="matrix(1.00, 0.00, -0.00, -1.00, 833.1, 438.6)">s</text><text xml:space="preserve" font-family="Georgia,Georgia" font-size="28.0" fill="#000000" transform="matrix(1.00, 0.00, -0.00, -1.00, 845.2, 438.6)">i</text><text xml:space="preserve" font-family="Georgia,Georgia" font-size="28.0" fill="#000000" transform="matrix(1.00, 0.00, -0.00, -1.00, 853.4, 438.6)">ö</text><text xml:space="preserve" font-family="Georgia,Georgia" font-size="28.0" fill="#000000" transform="matrix(1.00, 0.00, -0.00, -1.00, 868.5, 438.6)">k</text><text xml:space="preserve" font-family="Georgia,Georgia" font-size="28.0" fill="#000000" transform="matrix(1.00, 0.00, -0.00, -1.00, 883.5, 438.6)">ä</text><text xml:space="preserve" font-family="Georgia,Georgia" font-size="28.0" fill="#000000" transform="matrix(1.00, 0.00, -0.00, -1.00, 897.6, 438.6)">ä</text><text xml:space="preserve" font-family="Georgia,Georgia" font-size="28.0" fill="#000000" transform="matrix(1.00, 0.00, -0.00, -1.00, 911.7, 438.6)">m</text><text xml:space="preserve" font-family="Georgia,Georgia" font-size="28.0" fill="#000000" transform="matrix(1.00, 0.00, -0.00, -1.00, 936.4, 438.6)">i</text><text xml:space="preserve" font-family="Georgia,Georgia" font-size="28.0" fill="#000000" transform="matrix(1.00, 0.00, -0.00, -1.00, 944.6, 438.6)">s</text><text xml:space="preserve" font-family="Georgia,Georgia" font-size="28.0" fill="#000000" transform="matrix(1.00, 0.00, -0.00, -1.00, 956.7, 438.6)">s</text><text xml:space="preserve" font-family="Georgia,Georgia" font-size="28.0" fill="#000000" transform="matrix(1.00, 0.00, -0.00, -1.00, 968.8, 438.6)">ä</text><text xml:space="preserve" font-family="Georgia,Georgia" font-size="28.0" fill="#000000" transform="matrix(1.00, 0.00, -0.00, -1.00, 982.9, 438.6)"> </text><text xml:space="preserve" font-family="Georgia,Georgia" font-size="28.0" fill="#000000" transform="matrix(1.00, 0.00, -0.00, -1.00, 989.6, 438.6)"> </text><text xml:space="preserve" font-family="Georgia,Georgia" font-size="28.0" fill="#000000" transform="matrix(1.00, 0.00, -0.00, -1.00, 504.4, 393.8)">=</text><text xml:space="preserve" font-family="Georgia,Georgia" font-size="28.0" fill="#000000" transform="matrix(1.00, 0.00, -0.00, -1.00, 522.4, 393.8)"> </text><text xml:space="preserve" font-family="Georgia,Georgia" font-size="28.0" fill="#000000" transform="matrix(1.00, 0.00, -0.00, -1.00, 529.2, 393.8)">k</text><text xml:space="preserve" font-family="Georgia,Georgia" font-size="28.0" fill="#000000" transform="matrix(1.00, 0.00, -0.00, -1.00, 544.2, 393.8)">i</text><text xml:space="preserve" font-family="Georgia,Georgia" font-size="28.0" fill="#000000" transform="matrix(1.00, 0.00, -0.00, -1.00, 552.4, 393.8)">e</text><text xml:space="preserve" font-family="Georgia,Georgia" font-size="28.0" fill="#000000" transform="matrix(1.00, 0.00, -0.00, -1.00, 565.9, 393.8)">r</text><text xml:space="preserve" font-family="Georgia,Georgia" font-size="28.0" fill="#000000" transform="matrix(1.00, 0.00, -0.00, -1.00, 577.4, 393.8)">r</text><text xml:space="preserve" font-family="Georgia,Georgia" font-size="28.0" fill="#000000" transform="matrix(1.00, 0.00, -0.00, -1.00, 588.9, 393.8)">o</text><text xml:space="preserve" font-family="Georgia,Georgia" font-size="28.0" fill="#000000" transform="matrix(1.00, 0.00, -0.00, -1.00, 604.0, 393.8)">s</text><text xml:space="preserve" font-family="Georgia,Georgia" font-size="28.0" fill="#000000" transform="matrix(1.00, 0.00, -0.00, -1.00, 616.1, 393.8)">t</text><text xml:space="preserve" font-family="Georgia,Georgia" font-size="28.0" fill="#000000" transform="matrix(1.00, 0.00, -0.00, -1.00, 625.7, 393.8)">e</text><text xml:space="preserve" font-family="Georgia,Georgia" font-size="28.0" fill="#000000" transform="matrix(1.00, 0.00, -0.00, -1.00, 639.3, 393.8)">n</text><text xml:space="preserve" font-family="Georgia,Georgia" font-size="28.0" fill="#000000" transform="matrix(1.00, 0.00, -0.00, -1.00, 655.8, 393.8)"> </text><text xml:space="preserve" font-family="Georgia,Georgia" font-size="28.0" fill="#000000" transform="matrix(1.00, 0.00, -0.00, -1.00, 662.6, 393.8)">l</text><text xml:space="preserve" font-family="Georgia,Georgia" font-size="28.0" fill="#000000" transform="matrix(1.00, 0.00, -0.00, -1.00, 670.6, 393.8)">u</text><text xml:space="preserve" font-family="Georgia,Georgia" font-size="28.0" fill="#000000" transform="matrix(1.00, 0.00, -0.00, -1.00, 686.7, 393.8)">k</text><text xml:space="preserve" font-family="Georgia,Georgia" font-size="28.0" fill="#000000" transform="matrix(1.00, 0.00, -0.00, -1.00, 701.7, 393.8)">u</text><text xml:space="preserve" font-family="Georgia,Georgia" font-size="28.0" fill="#000000" transform="matrix(1.00, 0.00, -0.00, -1.00, 717.8, 393.8)">m</text><text xml:space="preserve" font-family="Georgia,Georgia" font-size="28.0" fill="#000000" transform="matrix(1.00, 0.00, -0.00, -1.00, 742.5, 393.8)">ä</text><text xml:space="preserve" font-family="Georgia,Georgia" font-size="28.0" fill="#000000" transform="matrix(1.00, 0.00, -0.00, -1.00, 756.6, 393.8)">ä</text><text xml:space="preserve" font-family="Georgia,Georgia" font-size="28.0" fill="#000000" transform="matrix(1.00, 0.00, -0.00, -1.00, 770.7, 393.8)">r</text><text xml:space="preserve" font-family="Georgia,Georgia" font-size="28.0" fill="#000000" transform="matrix(1.00, 0.00, -0.00, -1.00, 782.1, 393.8)">ä</text><text xml:space="preserve" font-family="Georgia,Georgia" font-size="28.0" fill="#000000" transform="matrix(1.00, 0.00, -0.00, -1.00, 796.2, 393.8)"> </text><text xml:space="preserve" font-family="Georgia,Georgia" font-size="28.0" fill="#000000" transform="matrix(1.00, 0.00, -0.00, -1.00, 803.0, 393.8)">t</text><text xml:space="preserve" font-family="Georgia,Georgia" font-size="28.0" fill="#000000" transform="matrix(1.00, 0.00, -0.00, -1.00, 812.7, 393.8)">o</text><text xml:space="preserve" font-family="Georgia,Georgia" font-size="28.0" fill="#000000" transform="matrix(1.00, 0.00, -0.00, -1.00, 827.8, 393.8)">i</text><text xml:space="preserve" font-family="Georgia,Georgia" font-size="28.0" fill="#000000" transform="matrix(1.00, 0.00, -0.00, -1.00, 836.0, 393.8)">s</text><text xml:space="preserve" font-family="Georgia,Georgia" font-size="28.0" fill="#000000" transform="matrix(1.00, 0.00, -0.00, -1.00, 848.1, 393.8)">i</text><text xml:space="preserve" font-family="Georgia,Georgia" font-size="28.0" fill="#000000" transform="matrix(1.00, 0.00, -0.00, -1.00, 856.3, 393.8)">o</text><text xml:space="preserve" font-family="Georgia,Georgia" font-size="28.0" fill="#000000" transform="matrix(1.00, 0.00, -0.00, -1.00, 871.4, 393.8)">k</text><text xml:space="preserve" font-family="Georgia,Georgia" font-size="28.0" fill="#000000" transform="matrix(1.00, 0.00, -0.00, -1.00, 886.4, 393.8)">ä</text><text xml:space="preserve" font-family="Georgia,Georgia" font-size="28.0" fill="#000000" transform="matrix(1.00, 0.00, -0.00, -1.00, 900.5, 393.8)">ä</text><text xml:space="preserve" font-family="Georgia,Georgia" font-size="28.0" fill="#000000" transform="matrix(1.00, 0.00, -0.00, -1.00, 914.6, 393.8)">m</text><text xml:space="preserve" font-family="Georgia,Georgia" font-size="28.0" fill="#000000" transform="matrix(1.00, 0.00, -0.00, -1.00, 939.2, 393.8)">i</text><text xml:space="preserve" font-family="Georgia,Georgia" font-size="28.0" fill="#000000" transform="matrix(1.00, 0.00, -0.00, -1.00, 947.4, 393.8)">s</text><text xml:space="preserve" font-family="Georgia,Georgia" font-size="28.0" fill="#000000" transform="matrix(1.00, 0.00, -0.00, -1.00, 959.5, 393.8)">s</text><text xml:space="preserve" font-family="Georgia,Georgia" font-size="28.0" fill="#000000" transform="matrix(1.00, 0.00, -0.00, -1.00, 971.7, 393.8)">ä</text><text xml:space="preserve" font-family="Georgia,Georgia" font-size="28.0" fill="#000000" transform="matrix(1.00, 0.00, -0.00, -1.00, 985.8, 393.8)"> </text><text xml:space="preserve" font-family="Georgia,Georgia" font-size="28.0" fill="#000000" transform="matrix(1.00, 0.00, -0.00, -1.00, 504.4, 349.0)">=</text><text xml:space="preserve" font-family="Georgia,Georgia" font-size="28.0" fill="#000000" transform="matrix(1.00, 0.00, -0.00, -1.00, 522.4, 349.0)"> </text><text xml:space="preserve" font-family="Georgia,Georgia" font-size="28.0" fill="#000000" transform="matrix(1.00, 0.00, -0.00, -1.00, 529.2, 349.0)">v</text><text xml:space="preserve" font-family="Georgia,Georgia" font-size="28.0" fill="#000000" transform="matrix(1.00, 0.00, -0.00, -1.00, 543.1, 349.0)">i</text><text xml:space="preserve" font-family="Georgia,Georgia" font-size="28.0" fill="#000000" transform="matrix(1.00, 0.00, -0.00, -1.00, 551.3, 349.0)">r</text><text xml:space="preserve" font-family="Georgia,Georgia" font-size="28.0" fill="#000000" transform="matrix(1.00, 0.00, -0.00, -1.00, 562.8, 349.0)">t</text><text xml:space="preserve" font-family="Georgia,Georgia" font-size="28.0" fill="#000000" transform="matrix(1.00, 0.00, -0.00, -1.00, 572.4, 349.0)">a</text><text xml:space="preserve" font-family="Georgia,Georgia" font-size="28.0" fill="#000000" transform="matrix(1.00, 0.00, -0.00, -1.00, 586.5, 349.0)"> </text><text xml:space="preserve" font-family="Georgia,Georgia" font-size="28.0" fill="#000000" transform="matrix(1.00, 0.00, -0.00, -1.00, 593.3, 349.0)">e</text><text xml:space="preserve" font-family="Georgia,Georgia" font-size="28.0" fill="#000000" transform="matrix(1.00, 0.00, -0.00, -1.00, 606.9, 349.0)">n</text><text xml:space="preserve" font-family="Georgia,Georgia" font-size="28.0" fill="#000000" transform="matrix(1.00, 0.00, -0.00, -1.00, 623.4, 349.0)">s</text><text xml:space="preserve" font-family="Georgia,Georgia" font-size="28.0" fill="#000000" transform="matrix(1.00, 0.00, -0.00, -1.00, 635.5, 349.0)">i</text><text xml:space="preserve" font-family="Georgia,Georgia" font-size="28.0" fill="#000000" transform="matrix(1.00, 0.00, -0.00, -1.00, 643.7, 349.0)">ö</text><text xml:space="preserve" font-family="Georgia,Georgia" font-size="28.0" fill="#000000" transform="matrix(1.00, 0.00, -0.00, -1.00, 658.8, 349.0)">k</text><text xml:space="preserve" font-family="Georgia,Georgia" font-size="28.0" fill="#000000" transform="matrix(1.00, 0.00, -0.00, -1.00, 673.8, 349.0)">ä</text><text xml:space="preserve" font-family="Georgia,Georgia" font-size="28.0" fill="#000000" transform="matrix(1.00, 0.00, -0.00, -1.00, 687.9, 349.0)">ä</text><text xml:space="preserve" font-family="Georgia,Georgia" font-size="28.0" fill="#000000" transform="matrix(1.00, 0.00, -0.00, -1.00, 702.0, 349.0)">m</text><text xml:space="preserve" font-family="Georgia,Georgia" font-size="28.0" fill="#000000" transform="matrix(1.00, 0.00, -0.00, -1.00, 726.7, 349.0)">i</text><text xml:space="preserve" font-family="Georgia,Georgia" font-size="28.0" fill="#000000" transform="matrix(1.00, 0.00, -0.00, -1.00, 734.9, 349.0)">s</text><text xml:space="preserve" font-family="Georgia,Georgia" font-size="28.0" fill="#000000" transform="matrix(1.00, 0.00, -0.00, -1.00, 747.0, 349.0)">s</text><text xml:space="preserve" font-family="Georgia,Georgia" font-size="28.0" fill="#000000" transform="matrix(1.00, 0.00, -0.00, -1.00, 759.1, 349.0)">ä</text><text xml:space="preserve" font-family="Georgia,Georgia" font-size="28.0" fill="#000000" transform="matrix(1.00, 0.00, -0.00, -1.00, 773.2, 349.0)"> </text><text xml:space="preserve" font-family="Georgia,Georgia" font-size="28.0" fill="#000000" transform="matrix(1.00, 0.00, -0.00, -1.00, 504.4, 304.2)">=</text><text xml:space="preserve" font-family="Georgia,Georgia" font-size="28.0" fill="#000000" transform="matrix(1.00, 0.00, -0.00, -1.00, 522.4, 304.2)"> </text><text xml:space="preserve" font-family="Georgia,Georgia" font-size="28.0" fill="#000000" transform="matrix(1.00, 0.00, -0.00, -1.00, 529.2, 304.2)">v</text><text xml:space="preserve" font-family="Georgia,Georgia" font-size="28.0" fill="#000000" transform="matrix(1.00, 0.00, -0.00, -1.00, 543.1, 304.2)">i</text><text xml:space="preserve" font-family="Georgia,Georgia" font-size="28.0" fill="#000000" transform="matrix(1.00, 0.00, -0.00, -1.00, 551.3, 304.2)">r</text><text xml:space="preserve" font-family="Georgia,Georgia" font-size="28.0" fill="#000000" transform="matrix(1.00, 0.00, -0.00, -1.00, 562.8, 304.2)">t</text><text xml:space="preserve" font-family="Georgia,Georgia" font-size="28.0" fill="#000000" transform="matrix(1.00, 0.00, -0.00, -1.00, 572.4, 304.2)">a</text><text xml:space="preserve" font-family="Georgia,Georgia" font-size="28.0" fill="#000000" transform="matrix(1.00, 0.00, -0.00, -1.00, 586.5, 304.2)"> </text><text xml:space="preserve" font-family="Georgia,Georgia" font-size="28.0" fill="#000000" transform="matrix(1.00, 0.00, -0.00, -1.00, 593.3, 304.2)">t</text><text xml:space="preserve" font-family="Georgia,Georgia" font-size="28.0" fill="#000000" transform="matrix(1.00, 0.00, -0.00, -1.00, 603.0, 304.2)">o</text><text xml:space="preserve" font-family="Georgia,Georgia" font-size="28.0" fill="#000000" transform="matrix(1.00, 0.00, -0.00, -1.00, 618.1, 304.2)">i</text><text xml:space="preserve" font-family="Georgia,Georgia" font-size="28.0" fill="#000000" transform="matrix(1.00, 0.00, -0.00, -1.00, 626.3, 304.2)">s</text><text xml:space="preserve" font-family="Georgia,Georgia" font-size="28.0" fill="#000000" transform="matrix(1.00, 0.00, -0.00, -1.00, 638.4, 304.2)">i</text><text xml:space="preserve" font-family="Georgia,Georgia" font-size="28.0" fill="#000000" transform="matrix(1.00, 0.00, -0.00, -1.00, 646.6, 304.2)">o</text><text xml:space="preserve" font-family="Georgia,Georgia" font-size="28.0" fill="#000000" transform="matrix(1.00, 0.00, -0.00, -1.00, 661.7, 304.2)">k</text><text xml:space="preserve" font-family="Georgia,Georgia" font-size="28.0" fill="#000000" transform="matrix(1.00, 0.00, -0.00, -1.00, 676.7, 304.2)">ä</text><text xml:space="preserve" font-family="Georgia,Georgia" font-size="28.0" fill="#000000" transform="matrix(1.00, 0.00, -0.00, -1.00, 690.8, 304.2)">ä</text><text xml:space="preserve" font-family="Georgia,Georgia" font-size="28.0" fill="#000000" transform="matrix(1.00, 0.00, -0.00, -1.00, 704.9, 304.2)">m</text><text xml:space="preserve" font-family="Georgia,Georgia" font-size="28.0" fill="#000000" transform="matrix(1.00, 0.00, -0.00, -1.00, 729.5, 304.2)">i</text><text xml:space="preserve" font-family="Georgia,Georgia" font-size="28.0" fill="#000000" transform="matrix(1.00, 0.00, -0.00, -1.00, 737.7, 304.2)">s</text><text xml:space="preserve" font-family="Georgia,Georgia" font-size="28.0" fill="#000000" transform="matrix(1.00, 0.00, -0.00, -1.00, 749.8, 304.2)">s</text><text xml:space="preserve" font-family="Georgia,Georgia" font-size="28.0" fill="#000000" transform="matrix(1.00, 0.00, -0.00, -1.00, 761.9, 304.2)">ä</text><g><clipPath id="clip0x7f8e45513a10"><path d="M 448.0 441.0 L 489.0 441.0 L 489.0 472.0 L 448.0 472.0 Z M 448.0 441.0 "></path></clipPath><g clip-path="url(#clip0x7f8e45513a10)"><text xml:space="preserve" font-family="Helvetica,Helvetica" font-size="10.0" fill="#000000" transform="matrix(3.60, 0.00, -0.00, -3.60, 447.3, 447.4)">N</text><text xml:space="preserve" font-family="Helvetica,Helvetica" font-size="7.0" fill="#000000" transform="matrix(3.60, 0.00, -0.00, -3.60, 476.1, 442.0)">1</text></g></g><g><clipPath id="clip0x7f8e46611e90"><path d="M 448.0 388.0 L 489.0 388.0 L 489.0 419.0 L 448.0 419.0 Z M 448.0 388.0 "></path></clipPath><g clip-path="url(#clip0x7f8e46611e90)"><text xml:space="preserve" font-family="Helvetica,Helvetica" font-size="10.0" fill="#000000" transform="matrix(3.60, 0.00, -0.00, -3.60, 447.3, 394.4)">N</text><text xml:space="preserve" font-family="Helvetica,Helvetica" font-size="7.0" fill="#000000" transform="matrix(3.60, 0.00, -0.00, -3.60, 476.1, 389.0)">2</text></g></g><g><clipPath id="clip0x7f8e46614420"><path d="M 136.0 361.0 L 270.0 361.0 L 270.0 441.0 L 136.0 441.0 Z M 136.0 361.0 "></path></clipPath><g clip-path="url(#clip0x7f8e46614420)"><text xml:space="preserve" font-family="Helvetica,Helvetica" font-size="10.0" fill="#000000" transform="matrix(3.60, 0.00, -0.00, -3.60, 136.4, 415.9)">N</text><text xml:space="preserve" font-family="Helvetica,Helvetica" font-size="7.0" fill="#000000" transform="matrix(3.60, 0.00, -0.00, -3.60, 165.2, 410.5)">1</text><path d="M 0.0 0.0 L 12.5 0.0 " fill="none" stroke="#000000" stroke-width="0.40" transform="matrix(3.60, 0.00, 0.00, 3.60, 136.4, 400.6)"></path><text xml:space="preserve" font-family="Helvetica,Helvetica" font-size="10.0" fill="#000000" transform="matrix(3.60, 0.00, -0.00, -3.60, 136.4, 367.0)">N</text><text xml:space="preserve" font-family="Helvetica,Helvetica" font-size="7.0" fill="#000000" transform="matrix(3.60, 0.00, -0.00, -3.60, 165.2, 361.7)">2</text><text xml:space="preserve" font-family="Helvetica,Helvetica" font-size="10.0" fill="#000000" transform="matrix(3.60, 0.00, -0.00, -3.60, 195.6, 391.6)">=</text><text xml:space="preserve" font-family="Helvetica,Helvetica" font-size="10.0" fill="#000000" transform="matrix(3.60, 0.00, -0.00, -3.60, 237.7, 415.9)">I</text><text xml:space="preserve" font-family="Helvetica,Helvetica" font-size="7.0" fill="#000000" transform="matrix(3.60, 0.00, -0.00, -3.60, 253.5, 410.5)">2</text><path d="M 0.0 0.0 L 8.8 0.0 " fill="none" stroke="#000000" stroke-width="0.40" transform="matrix(3.60, 0.00, 0.00, 3.60, 237.7, 400.6)"></path><text xml:space="preserve" font-family="Helvetica,Helvetica" font-size="10.0" fill="#000000" transform="matrix(3.60, 0.00, -0.00, -3.60, 237.7, 367.0)">I</text><text xml:space="preserve" font-family="Helvetica,Helvetica" font-size="7.0" fill="#000000" transform="matrix(3.60, 0.00, -0.00, -3.60, 253.5, 361.7)">1</text></g></g><g><clipPath id="clip0x7f8e4661cc60"><path d="M 454.0 336.0 L 482.0 336.0 L 482.0 367.0 L 454.0 367.0 Z M 454.0 336.0 "></path></clipPath><g clip-path="url(#clip0x7f8e4661cc60)"><text xml:space="preserve" font-family="Helvetica,Helvetica" font-size="10.0" fill="#000000" transform="matrix(3.60, 0.00, -0.00, -3.60, 453.6, 342.4)">I</text><text xml:space="preserve" font-family="Helvetica,Helvetica" font-size="7.0" fill="#000000" transform="matrix(3.60, 0.00, -0.00, -3.60, 469.4, 337.0)">1</text></g></g><g><clipPath id="clip0x7f8e4661f1e0"><path d="M 454.0 283.0 L 483.0 283.0 L 483.0 314.0 L 454.0 314.0 Z M 454.0 283.0 "></path></clipPath><g clip-path="url(#clip0x7f8e4661f1e0)"><text xml:space="preserve" font-family="Helvetica,Helvetica" font-size="10.0" fill="#000000" transform="matrix(3.60, 0.00, -0.00, -3.60, 453.6, 289.4)">I</text><text xml:space="preserve" font-family="Helvetica,Helvetica" font-size="7.0" fill="#000000" transform="matrix(3.60, 0.00, -0.00, -3.60, 469.4, 284.0)">2</text></g></g></g></svg>