<?xml version="1.0" encoding="UTF-8" standalone="no"?><svg xmlns="http://www.w3.org/2000/svg" xmlns:xlink="http://www.w3.org/1999/xlink" clip-rule="evenodd" stroke-miterlimit="10" viewBox="0 0 1024 768"><desc>SVG generated by Keynote</desc><defs></defs><g transform="matrix(1.00, 0.00, -0.00, -1.00, 0.0, 768.0)"><path d="M 0.0 768.0 L 1024.0 768.0 L 1024.0 0.0 L 0.0 0.0 Z M 0.0 768.0 " fill="#FEFFFF"></path><text xml:space="preserve" font-family="Georgia,Georgia" font-size="80.0" fill="#000000" transform="matrix(1.00, 0.00, -0.00, -1.00, 339.5, 691.5)">M</text><text xml:space="preserve" font-family="Georgia,Georgia" font-size="80.0" fill="#000000" transform="matrix(1.00, 0.00, -0.00, -1.00, 413.7, 691.5)">u</text><text xml:space="preserve" font-family="Georgia,Georgia" font-size="80.0" fill="#000000" transform="matrix(1.00, 0.00, -0.00, -1.00, 459.7, 691.5)">u</text><text xml:space="preserve" font-family="Georgia,Georgia" font-size="80.0" fill="#000000" transform="matrix(1.00, 0.00, -0.00, -1.00, 505.7, 691.5)">n</text><text xml:space="preserve" font-family="Georgia,Georgia" font-size="80.0" fill="#000000" transform="matrix(1.00, 0.00, -0.00, -1.00, 553.0, 691.5)">t</text><text xml:space="preserve" font-family="Georgia,Georgia" font-size="80.0" fill="#000000" transform="matrix(1.00, 0.00, -0.00, -1.00, 580.6, 691.5)">a</text><text xml:space="preserve" font-family="Georgia,Georgia" font-size="80.0" fill="#000000" transform="matrix(1.00, 0.00, -0.00, -1.00, 620.9, 691.5)">j</text><text xml:space="preserve" font-family="Georgia,Georgia" font-size="80.0" fill="#000000" transform="matrix(1.00, 0.00, -0.00, -1.00, 644.3, 691.5)">a</text><text xml:space="preserve" font-family="Georgia,Georgia" font-size="24.8" fill="#000000" transform="matrix(1.00, 0.00, -0.00, -1.00, 86.3, 612.4)">-</text><text xml:space="preserve" font-family="Georgia,Georgia" font-size="33.0" fill="#000000" transform="matrix(1.00, 0.00, -0.00, -1.00, 118.4, 609.7)">J</text><text xml:space="preserve" font-family="Georgia,Georgia" font-size="33.0" fill="#000000" transform="matrix(1.00, 0.00, -0.00, -1.00, 135.5, 609.7)">ä</text><text xml:space="preserve" font-family="Georgia,Georgia" font-size="33.0" fill="#000000" transform="matrix(1.00, 0.00, -0.00, -1.00, 152.1, 609.7)">n</text><text xml:space="preserve" font-family="Georgia,Georgia" font-size="33.0" fill="#000000" transform="matrix(1.00, 0.00, -0.00, -1.00, 171.6, 609.7)">n</text><text xml:space="preserve" font-family="Georgia,Georgia" font-size="33.0" fill="#000000" transform="matrix(1.00, 0.00, -0.00, -1.00, 191.1, 609.7)">i</text><text xml:space="preserve" font-family="Georgia,Georgia" font-size="33.0" fill="#000000" transform="matrix(1.00, 0.00, -0.00, -1.00, 200.7, 609.7)">t</text><text xml:space="preserve" font-family="Georgia,Georgia" font-size="33.0" fill="#000000" transform="matrix(1.00, 0.00, -0.00, -1.00, 212.1, 609.7)">e</text><text xml:space="preserve" font-family="Georgia,Georgia" font-size="33.0" fill="#000000" transform="matrix(1.00, 0.00, -0.00, -1.00, 228.1, 609.7)"> </text><text xml:space="preserve" font-family="Georgia,Georgia" font-size="33.0" fill="#000000" transform="matrix(1.00, 0.00, -0.00, -1.00, 236.1, 609.7)">m</text><text xml:space="preserve" font-family="Georgia,Georgia" font-size="33.0" fill="#000000" transform="matrix(1.00, 0.00, -0.00, -1.00, 265.1, 609.7)">u</text><text xml:space="preserve" font-family="Georgia,Georgia" font-size="33.0" fill="#000000" transform="matrix(1.00, 0.00, -0.00, -1.00, 284.1, 609.7)">u</text><text xml:space="preserve" font-family="Georgia,Georgia" font-size="33.0" fill="#000000" transform="matrix(1.00, 0.00, -0.00, -1.00, 303.1, 609.7)">n</text><text xml:space="preserve" font-family="Georgia,Georgia" font-size="33.0" fill="#000000" transform="matrix(1.00, 0.00, -0.00, -1.00, 322.6, 609.7)">t</text><text xml:space="preserve" font-family="Georgia,Georgia" font-size="33.0" fill="#000000" transform="matrix(1.00, 0.00, -0.00, -1.00, 334.0, 609.7)">u</text><text xml:space="preserve" font-family="Georgia,Georgia" font-size="33.0" fill="#000000" transform="matrix(1.00, 0.00, -0.00, -1.00, 353.0, 609.7)">u</text><text xml:space="preserve" font-family="Georgia,Georgia" font-size="33.0" fill="#000000" transform="matrix(1.00, 0.00, -0.00, -1.00, 372.0, 609.7)"> </text><text xml:space="preserve" font-family="Georgia,Georgia" font-size="33.0" fill="#000000" transform="matrix(1.00, 0.00, -0.00, -1.00, 379.9, 609.7)">s</text><text xml:space="preserve" font-family="Georgia,Georgia" font-size="33.0" fill="#000000" transform="matrix(1.00, 0.00, -0.00, -1.00, 394.2, 609.7)">u</text><text xml:space="preserve" font-family="Georgia,Georgia" font-size="33.0" fill="#000000" transform="matrix(1.00, 0.00, -0.00, -1.00, 413.2, 609.7)">o</text><text xml:space="preserve" font-family="Georgia,Georgia" font-size="33.0" fill="#000000" transform="matrix(1.00, 0.00, -0.00, -1.00, 431.0, 609.7)">r</text><text xml:space="preserve" font-family="Georgia,Georgia" font-size="33.0" fill="#000000" transform="matrix(1.00, 0.00, -0.00, -1.00, 444.5, 609.7)">a</text><text xml:space="preserve" font-family="Georgia,Georgia" font-size="33.0" fill="#000000" transform="matrix(1.00, 0.00, -0.00, -1.00, 461.1, 609.7)">a</text><text xml:space="preserve" font-family="Georgia,Georgia" font-size="33.0" fill="#000000" transform="matrix(1.00, 0.00, -0.00, -1.00, 477.8, 609.7)">n</text><text xml:space="preserve" font-family="Georgia,Georgia" font-size="33.0" fill="#000000" transform="matrix(1.00, 0.00, -0.00, -1.00, 497.2, 609.7)"> </text><text xml:space="preserve" font-family="Georgia,Georgia" font-size="33.0" fill="#000000" transform="matrix(1.00, 0.00, -0.00, -1.00, 505.2, 609.7)">k</text><text xml:space="preserve" font-family="Georgia,Georgia" font-size="33.0" fill="#000000" transform="matrix(1.00, 0.00, -0.00, -1.00, 522.9, 609.7)">i</text><text xml:space="preserve" font-family="Georgia,Georgia" font-size="33.0" fill="#000000" transform="matrix(1.00, 0.00, -0.00, -1.00, 532.5, 609.7)">e</text><text xml:space="preserve" font-family="Georgia,Georgia" font-size="33.0" fill="#000000" transform="matrix(1.00, 0.00, -0.00, -1.00, 548.5, 609.7)">r</text><text xml:space="preserve" font-family="Georgia,Georgia" font-size="33.0" fill="#000000" transform="matrix(1.00, 0.00, -0.00, -1.00, 562.0, 609.7)">r</text><text xml:space="preserve" font-family="Georgia,Georgia" font-size="33.0" fill="#000000" transform="matrix(1.00, 0.00, -0.00, -1.00, 575.5, 609.7)">o</text><text xml:space="preserve" font-family="Georgia,Georgia" font-size="33.0" fill="#000000" transform="matrix(1.00, 0.00, -0.00, -1.00, 593.3, 609.7)">s</text><text xml:space="preserve" font-family="Georgia,Georgia" font-size="33.0" fill="#000000" transform="matrix(1.00, 0.00, -0.00, -1.00, 607.6, 609.7)">l</text><text xml:space="preserve" font-family="Georgia,Georgia" font-size="33.0" fill="#000000" transform="matrix(1.00, 0.00, -0.00, -1.00, 617.0, 609.7)">u</text><text xml:space="preserve" font-family="Georgia,Georgia" font-size="33.0" fill="#000000" transform="matrix(1.00, 0.00, -0.00, -1.00, 636.0, 609.7)">k</text><text xml:space="preserve" font-family="Georgia,Georgia" font-size="33.0" fill="#000000" transform="matrix(1.00, 0.00, -0.00, -1.00, 653.7, 609.7)">u</text><text xml:space="preserve" font-family="Georgia,Georgia" font-size="33.0" fill="#000000" transform="matrix(1.00, 0.00, -0.00, -1.00, 672.7, 609.7)">j</text><text xml:space="preserve" font-family="Georgia,Georgia" font-size="33.0" fill="#000000" transform="matrix(1.00, 0.00, -0.00, -1.00, 682.3, 609.7)">e</text><text xml:space="preserve" font-family="Georgia,Georgia" font-size="33.0" fill="#000000" transform="matrix(1.00, 0.00, -0.00, -1.00, 698.3, 609.7)">n</text><text xml:space="preserve" font-family="Georgia,Georgia" font-size="33.0" fill="#000000" transform="matrix(1.00, 0.00, -0.00, -1.00, 717.8, 609.7)"> </text><text xml:space="preserve" font-family="Georgia,Georgia" font-size="33.0" fill="#000000" transform="matrix(1.00, 0.00, -0.00, -1.00, 725.7, 609.7)">s</text><text xml:space="preserve" font-family="Georgia,Georgia" font-size="33.0" fill="#000000" transform="matrix(1.00, 0.00, -0.00, -1.00, 740.0, 609.7)">u</text><text xml:space="preserve" font-family="Georgia,Georgia" font-size="33.0" fill="#000000" transform="matrix(1.00, 0.00, -0.00, -1.00, 759.0, 609.7)">h</text><text xml:space="preserve" font-family="Georgia,Georgia" font-size="33.0" fill="#000000" transform="matrix(1.00, 0.00, -0.00, -1.00, 778.2, 609.7)">t</text><text xml:space="preserve" font-family="Georgia,Georgia" font-size="33.0" fill="#000000" transform="matrix(1.00, 0.00, -0.00, -1.00, 789.6, 609.7)">e</text><text xml:space="preserve" font-family="Georgia,Georgia" font-size="33.0" fill="#000000" transform="matrix(1.00, 0.00, -0.00, -1.00, 805.5, 609.7)">e</text><text xml:space="preserve" font-family="Georgia,Georgia" font-size="33.0" fill="#000000" transform="matrix(1.00, 0.00, -0.00, -1.00, 821.5, 609.7)">s</text><text xml:space="preserve" font-family="Georgia,Georgia" font-size="33.0" fill="#000000" transform="matrix(1.00, 0.00, -0.00, -1.00, 835.8, 609.7)">s</text><text xml:space="preserve" font-family="Georgia,Georgia" font-size="33.0" fill="#000000" transform="matrix(1.00, 0.00, -0.00, -1.00, 850.0, 609.7)">a</text><text xml:space="preserve" font-family="Georgia,Georgia" font-size="33.0" fill="#000000" transform="matrix(1.00, 0.00, -0.00, -1.00, 866.7, 609.7)"> </text><text xml:space="preserve" font-family="Georgia,Georgia" font-size="24.8" fill="#000000" transform="matrix(1.00, 0.00, -0.00, -1.00, 86.3, 565.7)">-</text><text xml:space="preserve" font-family="Georgia,Georgia" font-size="33.0" fill="#000000" transform="matrix(1.00, 0.00, -0.00, -1.00, 118.4, 563.0)">J</text><text xml:space="preserve" font-family="Georgia,Georgia" font-size="33.0" fill="#000000" transform="matrix(1.00, 0.00, -0.00, -1.00, 135.5, 563.0)">ä</text><text xml:space="preserve" font-family="Georgia,Georgia" font-size="33.0" fill="#000000" transform="matrix(1.00, 0.00, -0.00, -1.00, 152.1, 563.0)">n</text><text xml:space="preserve" font-family="Georgia,Georgia" font-size="33.0" fill="#000000" transform="matrix(1.00, 0.00, -0.00, -1.00, 171.6, 563.0)">n</text><text xml:space="preserve" font-family="Georgia,Georgia" font-size="33.0" fill="#000000" transform="matrix(1.00, 0.00, -0.00, -1.00, 191.1, 563.0)">i</text><text xml:space="preserve" font-family="Georgia,Georgia" font-size="33.0" fill="#000000" transform="matrix(1.00, 0.00, -0.00, -1.00, 200.7, 563.0)">t</text><text xml:space="preserve" font-family="Georgia,Georgia" font-size="33.0" fill="#000000" transform="matrix(1.00, 0.00, -0.00, -1.00, 212.1, 563.0)">e</text><text xml:space="preserve" font-family="Georgia,Georgia" font-size="33.0" fill="#000000" transform="matrix(1.00, 0.00, -0.00, -1.00, 228.1, 563.0)"> </text><text xml:space="preserve" font-family="Georgia,Georgia" font-size="33.0" fill="#000000" transform="matrix(1.00, 0.00, -0.00, -1.00, 236.1, 563.0)">o</text><text xml:space="preserve" font-family="Georgia,Georgia" font-size="33.0" fill="#000000" transform="matrix(1.00, 0.00, -0.00, -1.00, 253.9, 563.0)">n</text><text xml:space="preserve" font-family="Georgia,Georgia" font-size="33.0" fill="#000000" transform="matrix(1.00, 0.00, -0.00, -1.00, 273.4, 563.0)"> </text><text xml:space="preserve" font-family="Georgia,Georgia" font-size="33.0" fill="#000000" transform="matrix(1.00, 0.00, -0.00, -1.00, 281.3, 563.0)">s</text><text xml:space="preserve" font-family="Georgia,Georgia" font-size="33.0" fill="#000000" transform="matrix(1.00, 0.00, -0.00, -1.00, 295.6, 563.0)">u</text><text xml:space="preserve" font-family="Georgia,Georgia" font-size="33.0" fill="#000000" transform="matrix(1.00, 0.00, -0.00, -1.00, 314.6, 563.0)">u</text><text xml:space="preserve" font-family="Georgia,Georgia" font-size="33.0" fill="#000000" transform="matrix(1.00, 0.00, -0.00, -1.00, 333.6, 563.0)">r</text><text xml:space="preserve" font-family="Georgia,Georgia" font-size="33.0" fill="#000000" transform="matrix(1.00, 0.00, -0.00, -1.00, 347.1, 563.0)">e</text><text xml:space="preserve" font-family="Georgia,Georgia" font-size="33.0" fill="#000000" transform="matrix(1.00, 0.00, -0.00, -1.00, 363.0, 563.0)">m</text><text xml:space="preserve" font-family="Georgia,Georgia" font-size="33.0" fill="#000000" transform="matrix(1.00, 0.00, -0.00, -1.00, 392.1, 563.0)">p</text><text xml:space="preserve" font-family="Georgia,Georgia" font-size="33.0" fill="#000000" transform="matrix(1.00, 0.00, -0.00, -1.00, 411.0, 563.0)">i</text><text xml:space="preserve" font-family="Georgia,Georgia" font-size="33.0" fill="#000000" transform="matrix(1.00, 0.00, -0.00, -1.00, 420.6, 563.0)"> </text><text xml:space="preserve" font-family="Georgia,Georgia" font-size="33.0" fill="#000000" transform="matrix(1.00, 0.00, -0.00, -1.00, 428.6, 563.0)">s</text><text xml:space="preserve" font-family="Georgia,Georgia" font-size="33.0" fill="#000000" transform="matrix(1.00, 0.00, -0.00, -1.00, 442.9, 563.0)">i</text><text xml:space="preserve" font-family="Georgia,Georgia" font-size="33.0" fill="#000000" transform="matrix(1.00, 0.00, -0.00, -1.00, 452.5, 563.0)">l</text><text xml:space="preserve" font-family="Georgia,Georgia" font-size="33.0" fill="#000000" transform="matrix(1.00, 0.00, -0.00, -1.00, 462.0, 563.0)">l</text><text xml:space="preserve" font-family="Georgia,Georgia" font-size="33.0" fill="#000000" transform="matrix(1.00, 0.00, -0.00, -1.00, 471.4, 563.0)">ä</text><text xml:space="preserve" font-family="Georgia,Georgia" font-size="33.0" fill="#000000" transform="matrix(1.00, 0.00, -0.00, -1.00, 488.0, 563.0)"> </text><text xml:space="preserve" font-family="Georgia,Georgia" font-size="33.0" fill="#000000" transform="matrix(1.00, 0.00, -0.00, -1.00, 496.0, 563.0)">p</text><text xml:space="preserve" font-family="Georgia,Georgia" font-size="33.0" fill="#000000" transform="matrix(1.00, 0.00, -0.00, -1.00, 514.9, 563.0)">u</text><text xml:space="preserve" font-family="Georgia,Georgia" font-size="33.0" fill="#000000" transform="matrix(1.00, 0.00, -0.00, -1.00, 533.9, 563.0)">o</text><text xml:space="preserve" font-family="Georgia,Georgia" font-size="33.0" fill="#000000" transform="matrix(1.00, 0.00, -0.00, -1.00, 551.7, 563.0)">l</text><text xml:space="preserve" font-family="Georgia,Georgia" font-size="33.0" fill="#000000" transform="matrix(1.00, 0.00, -0.00, -1.00, 561.1, 563.0)">e</text><text xml:space="preserve" font-family="Georgia,Georgia" font-size="33.0" fill="#000000" transform="matrix(1.00, 0.00, -0.00, -1.00, 577.1, 563.0)">l</text><text xml:space="preserve" font-family="Georgia,Georgia" font-size="33.0" fill="#000000" transform="matrix(1.00, 0.00, -0.00, -1.00, 586.5, 563.0)">l</text><text xml:space="preserve" font-family="Georgia,Georgia" font-size="33.0" fill="#000000" transform="matrix(1.00, 0.00, -0.00, -1.00, 596.0, 563.0)">a</text><text xml:space="preserve" font-family="Georgia,Georgia" font-size="33.0" fill="#000000" transform="matrix(1.00, 0.00, -0.00, -1.00, 612.6, 563.0)">,</text><text xml:space="preserve" font-family="Georgia,Georgia" font-size="33.0" fill="#000000" transform="matrix(1.00, 0.00, -0.00, -1.00, 621.5, 563.0)"> </text><text xml:space="preserve" font-family="Georgia,Georgia" font-size="33.0" fill="#000000" transform="matrix(1.00, 0.00, -0.00, -1.00, 629.4, 563.0)">m</text><text xml:space="preserve" font-family="Georgia,Georgia" font-size="33.0" fill="#000000" transform="matrix(1.00, 0.00, -0.00, -1.00, 658.5, 563.0)">i</text><text xml:space="preserve" font-family="Georgia,Georgia" font-size="33.0" fill="#000000" transform="matrix(1.00, 0.00, -0.00, -1.00, 668.2, 563.0)">l</text><text xml:space="preserve" font-family="Georgia,Georgia" font-size="33.0" fill="#000000" transform="matrix(1.00, 0.00, -0.00, -1.00, 677.6, 563.0)">l</text><text xml:space="preserve" font-family="Georgia,Georgia" font-size="33.0" fill="#000000" transform="matrix(1.00, 0.00, -0.00, -1.00, 687.1, 563.0)">ä</text><text xml:space="preserve" font-family="Georgia,Georgia" font-size="33.0" fill="#000000" transform="matrix(1.00, 0.00, -0.00, -1.00, 703.7, 563.0)"> </text><text xml:space="preserve" font-family="Georgia,Georgia" font-size="33.0" fill="#000000" transform="matrix(1.00, 0.00, -0.00, -1.00, 711.6, 563.0)">o</text><text xml:space="preserve" font-family="Georgia,Georgia" font-size="33.0" fill="#000000" transform="matrix(1.00, 0.00, -0.00, -1.00, 729.4, 563.0)">n</text><text xml:space="preserve" font-family="Georgia,Georgia" font-size="33.0" fill="#000000" transform="matrix(1.00, 0.00, -0.00, -1.00, 748.9, 563.0)"> </text><text xml:space="preserve" font-family="Georgia,Georgia" font-size="33.0" fill="#000000" transform="matrix(1.00, 0.00, -0.00, -1.00, 756.9, 563.0)">e</text><text xml:space="preserve" font-family="Georgia,Georgia" font-size="33.0" fill="#000000" transform="matrix(1.00, 0.00, -0.00, -1.00, 772.9, 563.0)">n</text><text xml:space="preserve" font-family="Georgia,Georgia" font-size="33.0" fill="#000000" transform="matrix(1.00, 0.00, -0.00, -1.00, 792.4, 563.0)">e</text><text xml:space="preserve" font-family="Georgia,Georgia" font-size="33.0" fill="#000000" transform="matrix(1.00, 0.00, -0.00, -1.00, 808.3, 563.0)">m</text><text xml:space="preserve" font-family="Georgia,Georgia" font-size="33.0" fill="#000000" transform="matrix(1.00, 0.00, -0.00, -1.00, 837.4, 563.0)">m</text><text xml:space="preserve" font-family="Georgia,Georgia" font-size="33.0" fill="#000000" transform="matrix(1.00, 0.00, -0.00, -1.00, 866.4, 563.0)">ä</text><text xml:space="preserve" font-family="Georgia,Georgia" font-size="33.0" fill="#000000" transform="matrix(1.00, 0.00, -0.00, -1.00, 883.1, 563.0)">n</text><text xml:space="preserve" font-family="Georgia,Georgia" font-size="33.0" fill="#000000" transform="matrix(1.00, 0.00, -0.00, -1.00, 902.6, 563.0)"> </text><text xml:space="preserve" font-family="Georgia,Georgia" font-size="33.0" fill="#000000" transform="matrix(1.00, 0.00, -0.00, -1.00, 118.4, 522.3)">k</text><text xml:space="preserve" font-family="Georgia,Georgia" font-size="33.0" fill="#000000" transform="matrix(1.00, 0.00, -0.00, -1.00, 136.1, 522.3)">i</text><text xml:space="preserve" font-family="Georgia,Georgia" font-size="33.0" fill="#000000" transform="matrix(1.00, 0.00, -0.00, -1.00, 145.7, 522.3)">e</text><text xml:space="preserve" font-family="Georgia,Georgia" font-size="33.0" fill="#000000" transform="matrix(1.00, 0.00, -0.00, -1.00, 161.7, 522.3)">r</text><text xml:space="preserve" font-family="Georgia,Georgia" font-size="33.0" fill="#000000" transform="matrix(1.00, 0.00, -0.00, -1.00, 175.2, 522.3)">r</text><text xml:space="preserve" font-family="Georgia,Georgia" font-size="33.0" fill="#000000" transform="matrix(1.00, 0.00, -0.00, -1.00, 188.7, 522.3)">o</text><text xml:space="preserve" font-family="Georgia,Georgia" font-size="33.0" fill="#000000" transform="matrix(1.00, 0.00, -0.00, -1.00, 206.5, 522.3)">k</text><text xml:space="preserve" font-family="Georgia,Georgia" font-size="33.0" fill="#000000" transform="matrix(1.00, 0.00, -0.00, -1.00, 224.2, 522.3)">s</text><text xml:space="preserve" font-family="Georgia,Georgia" font-size="33.0" fill="#000000" transform="matrix(1.00, 0.00, -0.00, -1.00, 238.4, 522.3)">i</text><text xml:space="preserve" font-family="Georgia,Georgia" font-size="33.0" fill="#000000" transform="matrix(1.00, 0.00, -0.00, -1.00, 248.1, 522.3)">a</text><g><clipPath id="clip0x7f8e45572720"><path d="M 301.0 252.0 L 589.0 252.0 L 589.0 35.0 L 301.0 35.0 Z M 301.1 251.6 "></path></clipPath><g clip-path="url(#clip0x7f8e45572720)"><image xlink:href="../../DE1FF829-EA76-4E32-9BB1-21B6C18F4A69/assets/271BC03D4A32E6E90EE0EAD263513615.png" width="763.00" height="573.00" transform="matrix(0.38, 0.00, -0.00, -0.38, 301.0, 252.0)"></image></g></g><g><clipPath id="clip0x7f8e45a3d870"><path d="M 140.0 344.0 L 283.0 344.0 L 283.0 424.0 L 140.0 424.0 Z M 140.0 344.0 "></path></clipPath><g clip-path="url(#clip0x7f8e45a3d870)"><text xml:space="preserve" font-family="Helvetica,Helvetica" font-size="10.0" fill="#000000" transform="matrix(3.60, 0.00, -0.00, -3.60, 140.2, 398.9)">N</text><text xml:space="preserve" font-family="Helvetica,Helvetica" font-size="7.0" fill="#000000" transform="matrix(3.60, 0.00, -0.00, -3.60, 169.0, 393.5)">1</text><path d="M 0.0 0.0 L 12.5 0.0 " fill="none" stroke="#000000" stroke-width="0.40" transform="matrix(3.60, 0.00, 0.00, 3.60, 140.2, 383.6)"></path><text xml:space="preserve" font-family="Helvetica,Helvetica" font-size="10.0" fill="#000000" transform="matrix(3.60, 0.00, -0.00, -3.60, 140.2, 350.0)">N</text><text xml:space="preserve" font-family="Helvetica,Helvetica" font-size="7.0" fill="#000000" transform="matrix(3.60, 0.00, -0.00, -3.60, 169.0, 344.7)">2</text><text xml:space="preserve" font-family="Helvetica,Helvetica" font-size="10.0" fill="#000000" transform="matrix(3.60, 0.00, -0.00, -3.60, 199.4, 374.6)">=</text><text xml:space="preserve" font-family="Helvetica,Helvetica" font-size="10.0" fill="#000000" transform="matrix(3.60, 0.00, -0.00, -3.60, 241.6, 398.9)">U</text><text xml:space="preserve" font-family="Helvetica,Helvetica" font-size="7.0" fill="#000000" transform="matrix(3.60, 0.00, -0.00, -3.60, 266.0, 393.5)">1</text><path d="M 0.0 0.0 L 11.3 0.0 " fill="none" stroke="#000000" stroke-width="0.40" transform="matrix(3.60, 0.00, 0.00, 3.60, 241.6, 383.6)"></path><text xml:space="preserve" font-family="Helvetica,Helvetica" font-size="10.0" fill="#000000" transform="matrix(3.60, 0.00, -0.00, -3.60, 241.6, 350.0)">U</text><text xml:space="preserve" font-family="Helvetica,Helvetica" font-size="7.0" fill="#000000" transform="matrix(3.60, 0.00, -0.00, -3.60, 266.0, 344.7)">2</text></g></g><text xml:space="preserve" font-family="Georgia,Georgia" font-size="28.0" fill="#000000" transform="matrix(1.00, 0.00, -0.00, -1.00, 504.4, 438.6)">=</text><text xml:space="preserve" font-family="Georgia,Georgia" font-size="28.0" fill="#000000" transform="matrix(1.00, 0.00, -0.00, -1.00, 522.4, 438.6)"> </text><text xml:space="preserve" font-family="Georgia,Georgia" font-size="28.0" fill="#000000" transform="matrix(1.00, 0.00, -0.00, -1.00, 529.2, 438.6)">k</text><text xml:space="preserve" font-family="Georgia,Georgia" font-size="28.0" fill="#000000" transform="matrix(1.00, 0.00, -0.00, -1.00, 544.2, 438.6)">i</text><text xml:space="preserve" font-family="Georgia,Georgia" font-size="28.0" fill="#000000" transform="matrix(1.00, 0.00, -0.00, -1.00, 552.4, 438.6)">e</text><text xml:space="preserve" font-family="Georgia,Georgia" font-size="28.0" fill="#000000" transform="matrix(1.00, 0.00, -0.00, -1.00, 565.9, 438.6)">r</text><text xml:space="preserve" font-family="Georgia,Georgia" font-size="28.0" fill="#000000" transform="matrix(1.00, 0.00, -0.00, -1.00, 577.4, 438.6)">r</text><text xml:space="preserve" font-family="Georgia,Georgia" font-size="28.0" fill="#000000" transform="matrix(1.00, 0.00, -0.00, -1.00, 588.9, 438.6)">o</text><text xml:space="preserve" font-family="Georgia,Georgia" font-size="28.0" fill="#000000" transform="matrix(1.00, 0.00, -0.00, -1.00, 604.0, 438.6)">s</text><text xml:space="preserve" font-family="Georgia,Georgia" font-size="28.0" fill="#000000" transform="matrix(1.00, 0.00, -0.00, -1.00, 616.1, 438.6)">t</text><text xml:space="preserve" font-family="Georgia,Georgia" font-size="28.0" fill="#000000" transform="matrix(1.00, 0.00, -0.00, -1.00, 625.7, 438.6)">e</text><text xml:space="preserve" font-family="Georgia,Georgia" font-size="28.0" fill="#000000" transform="matrix(1.00, 0.00, -0.00, -1.00, 639.3, 438.6)">n</text><text xml:space="preserve" font-family="Georgia,Georgia" font-size="28.0" fill="#000000" transform="matrix(1.00, 0.00, -0.00, -1.00, 655.8, 438.6)"> </text><text xml:space="preserve" font-family="Georgia,Georgia" font-size="28.0" fill="#000000" transform="matrix(1.00, 0.00, -0.00, -1.00, 662.6, 438.6)">l</text><text xml:space="preserve" font-family="Georgia,Georgia" font-size="28.0" fill="#000000" transform="matrix(1.00, 0.00, -0.00, -1.00, 670.6, 438.6)">u</text><text xml:space="preserve" font-family="Georgia,Georgia" font-size="28.0" fill="#000000" transform="matrix(1.00, 0.00, -0.00, -1.00, 686.7, 438.6)">k</text><text xml:space="preserve" font-family="Georgia,Georgia" font-size="28.0" fill="#000000" transform="matrix(1.00, 0.00, -0.00, -1.00, 701.7, 438.6)">u</text><text xml:space="preserve" font-family="Georgia,Georgia" font-size="28.0" fill="#000000" transform="matrix(1.00, 0.00, -0.00, -1.00, 717.8, 438.6)">m</text><text xml:space="preserve" font-family="Georgia,Georgia" font-size="28.0" fill="#000000" transform="matrix(1.00, 0.00, -0.00, -1.00, 742.5, 438.6)">ä</text><text xml:space="preserve" font-family="Georgia,Georgia" font-size="28.0" fill="#000000" transform="matrix(1.00, 0.00, -0.00, -1.00, 756.6, 438.6)">ä</text><text xml:space="preserve" font-family="Georgia,Georgia" font-size="28.0" fill="#000000" transform="matrix(1.00, 0.00, -0.00, -1.00, 770.7, 438.6)">r</text><text xml:space="preserve" font-family="Georgia,Georgia" font-size="28.0" fill="#000000" transform="matrix(1.00, 0.00, -0.00, -1.00, 782.1, 438.6)">ä</text><text xml:space="preserve" font-family="Georgia,Georgia" font-size="28.0" fill="#000000" transform="matrix(1.00, 0.00, -0.00, -1.00, 796.2, 438.6)"> </text><text xml:space="preserve" font-family="Georgia,Georgia" font-size="28.0" fill="#000000" transform="matrix(1.00, 0.00, -0.00, -1.00, 803.0, 438.6)">e</text><text xml:space="preserve" font-family="Georgia,Georgia" font-size="28.0" fill="#000000" transform="matrix(1.00, 0.00, -0.00, -1.00, 816.6, 438.6)">n</text><text xml:space="preserve" font-family="Georgia,Georgia" font-size="28.0" fill="#000000" transform="matrix(1.00, 0.00, -0.00, -1.00, 833.1, 438.6)">s</text><text xml:space="preserve" font-family="Georgia,Georgia" font-size="28.0" fill="#000000" transform="matrix(1.00, 0.00, -0.00, -1.00, 845.2, 438.6)">i</text><text xml:space="preserve" font-family="Georgia,Georgia" font-size="28.0" fill="#000000" transform="matrix(1.00, 0.00, -0.00, -1.00, 853.4, 438.6)">ö</text><text xml:space="preserve" font-family="Georgia,Georgia" font-size="28.0" fill="#000000" transform="matrix(1.00, 0.00, -0.00, -1.00, 868.5, 438.6)">k</text><text xml:space="preserve" font-family="Georgia,Georgia" font-size="28.0" fill="#000000" transform="matrix(1.00, 0.00, -0.00, -1.00, 883.5, 438.6)">ä</text><text xml:space="preserve" font-family="Georgia,Georgia" font-size="28.0" fill="#000000" transform="matrix(1.00, 0.00, -0.00, -1.00, 897.6, 438.6)">ä</text><text xml:space="preserve" font-family="Georgia,Georgia" font-size="28.0" fill="#000000" transform="matrix(1.00, 0.00, -0.00, -1.00, 911.7, 438.6)">m</text><text xml:space="preserve" font-family="Georgia,Georgia" font-size="28.0" fill="#000000" transform="matrix(1.00, 0.00, -0.00, -1.00, 936.4, 438.6)">i</text><text xml:space="preserve" font-family="Georgia,Georgia" font-size="28.0" fill="#000000" transform="matrix(1.00, 0.00, -0.00, -1.00, 944.6, 438.6)">s</text><text xml:space="preserve" font-family="Georgia,Georgia" font-size="28.0" fill="#000000" transform="matrix(1.00, 0.00, -0.00, -1.00, 956.7, 438.6)">s</text><text xml:space="preserve" font-family="Georgia,Georgia" font-size="28.0" fill="#000000" transform="matrix(1.00, 0.00, -0.00, -1.00, 968.8, 438.6)">ä</text><text xml:space="preserve" font-family="Georgia,Georgia" font-size="28.0" fill="#000000" transform="matrix(1.00, 0.00, -0.00, -1.00, 982.9, 438.6)"> </text><text xml:space="preserve" font-family="Georgia,Georgia" font-size="28.0" fill="#000000" transform="matrix(1.00, 0.00, -0.00, -1.00, 989.6, 438.6)"> </text><text xml:space="preserve" font-family="Georgia,Georgia" font-size="28.0" fill="#000000" transform="matrix(1.00, 0.00, -0.00, -1.00, 504.4, 393.8)">=</text><text xml:space="preserve" font-family="Georgia,Georgia" font-size="28.0" fill="#000000" transform="matrix(1.00, 0.00, -0.00, -1.00, 522.4, 393.8)"> </text><text xml:space="preserve" font-family="Georgia,Georgia" font-size="28.0" fill="#000000" transform="matrix(1.00, 0.00, -0.00, -1.00, 529.2, 393.8)">k</text><text xml:space="preserve" font-family="Georgia,Georgia" font-size="28.0" fill="#000000" transform="matrix(1.00, 0.00, -0.00, -1.00, 544.2, 393.8)">i</text><text xml:space="preserve" font-family="Georgia,Georgia" font-size="28.0" fill="#000000" transform="matrix(1.00, 0.00, -0.00, -1.00, 552.4, 393.8)">e</text><text xml:space="preserve" font-family="Georgia,Georgia" font-size="28.0" fill="#000000" transform="matrix(1.00, 0.00, -0.00, -1.00, 565.9, 393.8)">r</text><text xml:space="preserve" font-family="Georgia,Georgia" font-size="28.0" fill="#000000" transform="matrix(1.00, 0.00, -0.00, -1.00, 577.4, 393.8)">r</text><text xml:space="preserve" font-family="Georgia,Georgia" font-size="28.0" fill="#000000" transform="matrix(1.00, 0.00, -0.00, -1.00, 588.9, 393.8)">o</text><text xml:space="preserve" font-family="Georgia,Georgia" font-size="28.0" fill="#000000" transform="matrix(1.00, 0.00, -0.00, -1.00, 604.0, 393.8)">s</text><text xml:space="preserve" font-family="Georgia,Georgia" font-size="28.0" fill="#000000" transform="matrix(1.00, 0.00, -0.00, -1.00, 616.1, 393.8)">t</text><text xml:space="preserve" font-family="Georgia,Georgia" font-size="28.0" fill="#000000" transform="matrix(1.00, 0.00, -0.00, -1.00, 625.7, 393.8)">e</text><text xml:space="preserve" font-family="Georgia,Georgia" font-size="28.0" fill="#000000" transform="matrix(1.00, 0.00, -0.00, -1.00, 639.3, 393.8)">n</text><text xml:space="preserve" font-family="Georgia,Georgia" font-size="28.0" fill="#000000" transform="matrix(1.00, 0.00, -0.00, -1.00, 655.8, 393.8)"> </text><text xml:space="preserve" font-family="Georgia,Georgia" font-size="28.0" fill="#000000" transform="matrix(1.00, 0.00, -0.00, -1.00, 662.6, 393.8)">l</text><text xml:space="preserve" font-family="Georgia,Georgia" font-size="28.0" fill="#000000" transform="matrix(1.00, 0.00, -0.00, -1.00, 670.6, 393.8)">u</text><text xml:space="preserve" font-family="Georgia,Georgia" font-size="28.0" fill="#000000" transform="matrix(1.00, 0.00, -0.00, -1.00, 686.7, 393.8)">k</text><text xml:space="preserve" font-family="Georgia,Georgia" font-size="28.0" fill="#000000" transform="matrix(1.00, 0.00, -0.00, -1.00, 701.7, 393.8)">u</text><text xml:space="preserve" font-family="Georgia,Georgia" font-size="28.0" fill="#000000" transform="matrix(1.00, 0.00, -0.00, -1.00, 717.8, 393.8)">m</text><text xml:space="preserve" font-family="Georgia,Georgia" font-size="28.0" fill="#000000" transform="matrix(1.00, 0.00, -0.00, -1.00, 742.5, 393.8)">ä</text><text xml:space="preserve" font-family="Georgia,Georgia" font-size="28.0" fill="#000000" transform="matrix(1.00, 0.00, -0.00, -1.00, 756.6, 393.8)">ä</text><text xml:space="preserve" font-family="Georgia,Georgia" font-size="28.0" fill="#000000" transform="matrix(1.00, 0.00, -0.00, -1.00, 770.7, 393.8)">r</text><text xml:space="preserve" font-family="Georgia,Georgia" font-size="28.0" fill="#000000" transform="matrix(1.00, 0.00, -0.00, -1.00, 782.1, 393.8)">ä</text><text xml:space="preserve" font-family="Georgia,Georgia" font-size="28.0" fill="#000000" transform="matrix(1.00, 0.00, -0.00, -1.00, 796.2, 393.8)"> </text><text xml:space="preserve" font-family="Georgia,Georgia" font-size="28.0" fill="#000000" transform="matrix(1.00, 0.00, -0.00, -1.00, 803.0, 393.8)">t</text><text xml:space="preserve" font-family="Georgia,Georgia" font-size="28.0" fill="#000000" transform="matrix(1.00, 0.00, -0.00, -1.00, 812.7, 393.8)">o</text><text xml:space="preserve" font-family="Georgia,Georgia" font-size="28.0" fill="#000000" transform="matrix(1.00, 0.00, -0.00, -1.00, 827.8, 393.8)">i</text><text xml:space="preserve" font-family="Georgia,Georgia" font-size="28.0" fill="#000000" transform="matrix(1.00, 0.00, -0.00, -1.00, 836.0, 393.8)">s</text><text xml:space="preserve" font-family="Georgia,Georgia" font-size="28.0" fill="#000000" transform="matrix(1.00, 0.00, -0.00, -1.00, 848.1, 393.8)">i</text><text xml:space="preserve" font-family="Georgia,Georgia" font-size="28.0" fill="#000000" transform="matrix(1.00, 0.00, -0.00, -1.00, 856.3, 393.8)">o</text><text xml:space="preserve" font-family="Georgia,Georgia" font-size="28.0" fill="#000000" transform="matrix(1.00, 0.00, -0.00, -1.00, 871.4, 393.8)">k</text><text xml:space="preserve" font-family="Georgia,Georgia" font-size="28.0" fill="#000000" transform="matrix(1.00, 0.00, -0.00, -1.00, 886.4, 393.8)">ä</text><text xml:space="preserve" font-family="Georgia,Georgia" font-size="28.0" fill="#000000" transform="matrix(1.00, 0.00, -0.00, -1.00, 900.5, 393.8)">ä</text><text xml:space="preserve" font-family="Georgia,Georgia" font-size="28.0" fill="#000000" transform="matrix(1.00, 0.00, -0.00, -1.00, 914.6, 393.8)">m</text><text xml:space="preserve" font-family="Georgia,Georgia" font-size="28.0" fill="#000000" transform="matrix(1.00, 0.00, -0.00, -1.00, 939.2, 393.8)">i</text><text xml:space="preserve" font-family="Georgia,Georgia" font-size="28.0" fill="#000000" transform="matrix(1.00, 0.00, -0.00, -1.00, 947.4, 393.8)">s</text><text xml:space="preserve" font-family="Georgia,Georgia" font-size="28.0" fill="#000000" transform="matrix(1.00, 0.00, -0.00, -1.00, 959.5, 393.8)">s</text><text xml:space="preserve" font-family="Georgia,Georgia" font-size="28.0" fill="#000000" transform="matrix(1.00, 0.00, -0.00, -1.00, 971.7, 393.8)">ä</text><text xml:space="preserve" font-family="Georgia,Georgia" font-size="28.0" fill="#000000" transform="matrix(1.00, 0.00, -0.00, -1.00, 985.8, 393.8)"> </text><text xml:space="preserve" font-family="Georgia,Georgia" font-size="28.0" fill="#000000" transform="matrix(1.00, 0.00, -0.00, -1.00, 504.4, 349.0)">=</text><text xml:space="preserve" font-family="Georgia,Georgia" font-size="28.0" fill="#000000" transform="matrix(1.00, 0.00, -0.00, -1.00, 522.4, 349.0)"> </text><text xml:space="preserve" font-family="Georgia,Georgia" font-size="28.0" fill="#000000" transform="matrix(1.00, 0.00, -0.00, -1.00, 529.2, 349.0)">j</text><text xml:space="preserve" font-family="Georgia,Georgia" font-size="28.0" fill="#000000" transform="matrix(1.00, 0.00, -0.00, -1.00, 537.4, 349.0)">ä</text><text xml:space="preserve" font-family="Georgia,Georgia" font-size="28.0" fill="#000000" transform="matrix(1.00, 0.00, -0.00, -1.00, 551.5, 349.0)">n</text><text xml:space="preserve" font-family="Georgia,Georgia" font-size="28.0" fill="#000000" transform="matrix(1.00, 0.00, -0.00, -1.00, 568.0, 349.0)">n</text><text xml:space="preserve" font-family="Georgia,Georgia" font-size="28.0" fill="#000000" transform="matrix(1.00, 0.00, -0.00, -1.00, 584.6, 349.0)">i</text><text xml:space="preserve" font-family="Georgia,Georgia" font-size="28.0" fill="#000000" transform="matrix(1.00, 0.00, -0.00, -1.00, 592.8, 349.0)">t</text><text xml:space="preserve" font-family="Georgia,Georgia" font-size="28.0" fill="#000000" transform="matrix(1.00, 0.00, -0.00, -1.00, 602.4, 349.0)">e</text><text xml:space="preserve" font-family="Georgia,Georgia" font-size="28.0" fill="#000000" transform="matrix(1.00, 0.00, -0.00, -1.00, 616.0, 349.0)"> </text><text xml:space="preserve" font-family="Georgia,Georgia" font-size="28.0" fill="#000000" transform="matrix(1.00, 0.00, -0.00, -1.00, 622.7, 349.0)">e</text><text xml:space="preserve" font-family="Georgia,Georgia" font-size="28.0" fill="#000000" transform="matrix(1.00, 0.00, -0.00, -1.00, 636.3, 349.0)">n</text><text xml:space="preserve" font-family="Georgia,Georgia" font-size="28.0" fill="#000000" transform="matrix(1.00, 0.00, -0.00, -1.00, 652.8, 349.0)">s</text><text xml:space="preserve" font-family="Georgia,Georgia" font-size="28.0" fill="#000000" transform="matrix(1.00, 0.00, -0.00, -1.00, 664.9, 349.0)">i</text><text xml:space="preserve" font-family="Georgia,Georgia" font-size="28.0" fill="#000000" transform="matrix(1.00, 0.00, -0.00, -1.00, 673.1, 349.0)">ö</text><text xml:space="preserve" font-family="Georgia,Georgia" font-size="28.0" fill="#000000" transform="matrix(1.00, 0.00, -0.00, -1.00, 688.2, 349.0)">k</text><text xml:space="preserve" font-family="Georgia,Georgia" font-size="28.0" fill="#000000" transform="matrix(1.00, 0.00, -0.00, -1.00, 703.2, 349.0)">ä</text><text xml:space="preserve" font-family="Georgia,Georgia" font-size="28.0" fill="#000000" transform="matrix(1.00, 0.00, -0.00, -1.00, 717.3, 349.0)">ä</text><text xml:space="preserve" font-family="Georgia,Georgia" font-size="28.0" fill="#000000" transform="matrix(1.00, 0.00, -0.00, -1.00, 731.4, 349.0)">m</text><text xml:space="preserve" font-family="Georgia,Georgia" font-size="28.0" fill="#000000" transform="matrix(1.00, 0.00, -0.00, -1.00, 756.1, 349.0)">i</text><text xml:space="preserve" font-family="Georgia,Georgia" font-size="28.0" fill="#000000" transform="matrix(1.00, 0.00, -0.00, -1.00, 764.3, 349.0)">s</text><text xml:space="preserve" font-family="Georgia,Georgia" font-size="28.0" fill="#000000" transform="matrix(1.00, 0.00, -0.00, -1.00, 776.4, 349.0)">s</text><text xml:space="preserve" font-family="Georgia,Georgia" font-size="28.0" fill="#000000" transform="matrix(1.00, 0.00, -0.00, -1.00, 788.5, 349.0)">ä</text><text xml:space="preserve" font-family="Georgia,Georgia" font-size="28.0" fill="#000000" transform="matrix(1.00, 0.00, -0.00, -1.00, 802.6, 349.0)"> </text><text xml:space="preserve" font-family="Georgia,Georgia" font-size="28.0" fill="#000000" transform="matrix(1.00, 0.00, -0.00, -1.00, 504.4, 304.2)">=</text><text xml:space="preserve" font-family="Georgia,Georgia" font-size="28.0" fill="#000000" transform="matrix(1.00, 0.00, -0.00, -1.00, 522.4, 304.2)"> </text><text xml:space="preserve" font-family="Georgia,Georgia" font-size="28.0" fill="#000000" transform="matrix(1.00, 0.00, -0.00, -1.00, 529.2, 304.2)">j</text><text xml:space="preserve" font-family="Georgia,Georgia" font-size="28.0" fill="#000000" transform="matrix(1.00, 0.00, -0.00, -1.00, 537.4, 304.2)">ä</text><text xml:space="preserve" font-family="Georgia,Georgia" font-size="28.0" fill="#000000" transform="matrix(1.00, 0.00, -0.00, -1.00, 551.5, 304.2)">n</text><text xml:space="preserve" font-family="Georgia,Georgia" font-size="28.0" fill="#000000" transform="matrix(1.00, 0.00, -0.00, -1.00, 568.0, 304.2)">n</text><text xml:space="preserve" font-family="Georgia,Georgia" font-size="28.0" fill="#000000" transform="matrix(1.00, 0.00, -0.00, -1.00, 584.6, 304.2)">i</text><text xml:space="preserve" font-family="Georgia,Georgia" font-size="28.0" fill="#000000" transform="matrix(1.00, 0.00, -0.00, -1.00, 592.8, 304.2)">t</text><text xml:space="preserve" font-family="Georgia,Georgia" font-size="28.0" fill="#000000" transform="matrix(1.00, 0.00, -0.00, -1.00, 602.4, 304.2)">e</text><text xml:space="preserve" font-family="Georgia,Georgia" font-size="28.0" fill="#000000" transform="matrix(1.00, 0.00, -0.00, -1.00, 616.0, 304.2)"> </text><text xml:space="preserve" font-family="Georgia,Georgia" font-size="28.0" fill="#000000" transform="matrix(1.00, 0.00, -0.00, -1.00, 622.7, 304.2)">t</text><text xml:space="preserve" font-family="Georgia,Georgia" font-size="28.0" fill="#000000" transform="matrix(1.00, 0.00, -0.00, -1.00, 632.4, 304.2)">o</text><text xml:space="preserve" font-family="Georgia,Georgia" font-size="28.0" fill="#000000" transform="matrix(1.00, 0.00, -0.00, -1.00, 647.5, 304.2)">i</text><text xml:space="preserve" font-family="Georgia,Georgia" font-size="28.0" fill="#000000" transform="matrix(1.00, 0.00, -0.00, -1.00, 655.7, 304.2)">s</text><text xml:space="preserve" font-family="Georgia,Georgia" font-size="28.0" fill="#000000" transform="matrix(1.00, 0.00, -0.00, -1.00, 667.8, 304.2)">i</text><text xml:space="preserve" font-family="Georgia,Georgia" font-size="28.0" fill="#000000" transform="matrix(1.00, 0.00, -0.00, -1.00, 676.0, 304.2)">o</text><text xml:space="preserve" font-family="Georgia,Georgia" font-size="28.0" fill="#000000" transform="matrix(1.00, 0.00, -0.00, -1.00, 691.1, 304.2)">k</text><text xml:space="preserve" font-family="Georgia,Georgia" font-size="28.0" fill="#000000" transform="matrix(1.00, 0.00, -0.00, -1.00, 706.1, 304.2)">ä</text><text xml:space="preserve" font-family="Georgia,Georgia" font-size="28.0" fill="#000000" transform="matrix(1.00, 0.00, -0.00, -1.00, 720.2, 304.2)">ä</text><text xml:space="preserve" font-family="Georgia,Georgia" font-size="28.0" fill="#000000" transform="matrix(1.00, 0.00, -0.00, -1.00, 734.3, 304.2)">m</text><text xml:space="preserve" font-family="Georgia,Georgia" font-size="28.0" fill="#000000" transform="matrix(1.00, 0.00, -0.00, -1.00, 759.0, 304.2)">i</text><text xml:space="preserve" font-family="Georgia,Georgia" font-size="28.0" fill="#000000" transform="matrix(1.00, 0.00, -0.00, -1.00, 767.2, 304.2)">s</text><text xml:space="preserve" font-family="Georgia,Georgia" font-size="28.0" fill="#000000" transform="matrix(1.00, 0.00, -0.00, -1.00, 779.3, 304.2)">s</text><text xml:space="preserve" font-family="Georgia,Georgia" font-size="28.0" fill="#000000" transform="matrix(1.00, 0.00, -0.00, -1.00, 791.4, 304.2)">ä</text><g><clipPath id="clip0x7f8e4554c650"><path d="M 448.0 441.0 L 489.0 441.0 L 489.0 472.0 L 448.0 472.0 Z M 448.0 441.0 "></path></clipPath><g clip-path="url(#clip0x7f8e4554c650)"><text xml:space="preserve" font-family="Helvetica,Helvetica" font-size="10.0" fill="#000000" transform="matrix(3.60, 0.00, -0.00, -3.60, 447.3, 447.4)">N</text><text xml:space="preserve" font-family="Helvetica,Helvetica" font-size="7.0" fill="#000000" transform="matrix(3.60, 0.00, -0.00, -3.60, 476.1, 442.0)">1</text></g></g><g><clipPath id="clip0x7f8e45527270"><path d="M 448.0 388.0 L 489.0 388.0 L 489.0 419.0 L 448.0 419.0 Z M 448.0 388.0 "></path></clipPath><g clip-path="url(#clip0x7f8e45527270)"><text xml:space="preserve" font-family="Helvetica,Helvetica" font-size="10.0" fill="#000000" transform="matrix(3.60, 0.00, -0.00, -3.60, 447.3, 394.4)">N</text><text xml:space="preserve" font-family="Helvetica,Helvetica" font-size="7.0" fill="#000000" transform="matrix(3.60, 0.00, -0.00, -3.60, 476.1, 389.0)">2</text></g></g><g><clipPath id="clip0x7f8e455297e0"><path d="M 450.0 283.0 L 486.0 283.0 L 486.0 314.0 L 450.0 314.0 Z M 450.0 283.0 "></path></clipPath><g clip-path="url(#clip0x7f8e455297e0)"><text xml:space="preserve" font-family="Helvetica,Helvetica" font-size="10.0" fill="#000000" transform="matrix(3.60, 0.00, -0.00, -3.60, 447.9, 289.4)">U</text><text xml:space="preserve" font-family="Helvetica,Helvetica" font-size="7.0" fill="#000000" transform="matrix(3.60, 0.00, -0.00, -3.60, 472.4, 284.0)">2</text></g></g><g><clipPath id="clip0x7f8e45525340"><path d="M 451.0 336.0 L 486.0 336.0 L 486.0 367.0 L 451.0 367.0 Z M 451.0 336.0 "></path></clipPath><g clip-path="url(#clip0x7f8e45525340)"><text xml:space="preserve" font-family="Helvetica,Helvetica" font-size="10.0" fill="#000000" transform="matrix(3.60, 0.00, -0.00, -3.60, 448.9, 342.4)">U</text><text xml:space="preserve" font-family="Helvetica,Helvetica" font-size="7.0" fill="#000000" transform="matrix(3.60, 0.00, -0.00, -3.60, 473.4, 337.0)">1</text></g></g></g></svg>