<?xml version="1.0" encoding="UTF-8" standalone="no"?><svg xmlns="http://www.w3.org/2000/svg" xmlns:xlink="http://www.w3.org/1999/xlink" clip-rule="evenodd" stroke-miterlimit="10" viewBox="0 0 1024 768"><desc>SVG generated by Keynote</desc><defs><linearGradient id="gradSh1.0" x1="0.0" y1="0.0" x2="100.0" y2="0.0" gradientUnits="userSpaceOnUse" gradientTransform="matrix(0.00, -1.02, -1.02, 0.00, 461.0, 490.0)"><stop offset="0.00000" stop-color="#DCDEE0"></stop><stop offset="0.00880" stop-color="#DCDDE0"></stop><stop offset="1.00000" stop-color="#A6AAA9"></stop></linearGradient><linearGradient id="gradSh1.1" x1="0.0" y1="0.0" x2="100.0" y2="0.0" gradientUnits="userSpaceOnUse" gradientTransform="matrix(0.00, -1.02, -1.02, 0.00, 454.0, 248.0)"><stop offset="0.00000" stop-color="#DCDEE0"></stop><stop offset="0.00880" stop-color="#DCDDE0"></stop><stop offset="1.00000" stop-color="#A6AAA9"></stop></linearGradient></defs><g transform="matrix(1.00, 0.00, -0.00, -1.00, 0.0, 768.0)"><path d="M 0.0 768.0 L 1024.0 768.0 L 1024.0 0.0 L 0.0 0.0 Z M 0.0 768.0 " fill="#FEFFFF"></path><text xml:space="preserve" font-family="Georgia,Georgia" font-size="80.0" fill="#000000" transform="matrix(1.00, 0.00, -0.00, -1.00, 238.3, 671.5)">K</text><text xml:space="preserve" font-family="Georgia,Georgia" font-size="80.0" fill="#000000" transform="matrix(1.00, 0.00, -0.00, -1.00, 293.9, 671.5)">o</text><text xml:space="preserve" font-family="Georgia,Georgia" font-size="80.0" fill="#000000" transform="matrix(1.00, 0.00, -0.00, -1.00, 337.1, 671.5)">k</text><text xml:space="preserve" font-family="Georgia,Georgia" font-size="80.0" fill="#000000" transform="matrix(1.00, 0.00, -0.00, -1.00, 379.9, 671.5)">o</text><text xml:space="preserve" font-family="Georgia,Georgia" font-size="80.0" fill="#000000" transform="matrix(1.00, 0.00, -0.00, -1.00, 423.0, 671.5)">n</text><text xml:space="preserve" font-family="Georgia,Georgia" font-size="80.0" fill="#000000" transform="matrix(1.00, 0.00, -0.00, -1.00, 470.3, 671.5)">a</text><text xml:space="preserve" font-family="Georgia,Georgia" font-size="80.0" fill="#000000" transform="matrix(1.00, 0.00, -0.00, -1.00, 510.6, 671.5)">i</text><text xml:space="preserve" font-family="Georgia,Georgia" font-size="80.0" fill="#000000" transform="matrix(1.00, 0.00, -0.00, -1.00, 534.0, 671.5)">s</text><text xml:space="preserve" font-family="Georgia,Georgia" font-size="80.0" fill="#000000" transform="matrix(1.00, 0.00, -0.00, -1.00, 568.6, 671.5)">v</text><text xml:space="preserve" font-family="Georgia,Georgia" font-size="80.0" fill="#000000" transform="matrix(1.00, 0.00, -0.00, -1.00, 608.3, 671.5)">o</text><text xml:space="preserve" font-family="Georgia,Georgia" font-size="80.0" fill="#000000" transform="matrix(1.00, 0.00, -0.00, -1.00, 651.4, 671.5)">i</text><text xml:space="preserve" font-family="Georgia,Georgia" font-size="80.0" fill="#000000" transform="matrix(1.00, 0.00, -0.00, -1.00, 674.8, 671.5)">m</text><text xml:space="preserve" font-family="Georgia,Georgia" font-size="80.0" fill="#000000" transform="matrix(1.00, 0.00, -0.00, -1.00, 745.3, 671.5)">a</text><text xml:space="preserve" font-family="Georgia,Georgia" font-size="24.8" fill="#000000" transform="matrix(1.00, 0.00, -0.00, -1.00, 111.1, 600.4)">-</text><text xml:space="preserve" font-family="Georgia,Georgia" font-size="33.0" fill="#000000" transform="matrix(1.00, 0.00, -0.00, -1.00, 143.2, 597.7)">K</text><text xml:space="preserve" font-family="Georgia,Georgia" font-size="33.0" fill="#000000" transform="matrix(1.00, 0.00, -0.00, -1.00, 166.1, 597.7)">o</text><text xml:space="preserve" font-family="Georgia,Georgia" font-size="33.0" fill="#000000" transform="matrix(1.00, 0.00, -0.00, -1.00, 183.9, 597.7)">k</text><text xml:space="preserve" font-family="Georgia,Georgia" font-size="33.0" fill="#000000" transform="matrix(1.00, 0.00, -0.00, -1.00, 201.5, 597.7)">o</text><text xml:space="preserve" font-family="Georgia,Georgia" font-size="33.0" fill="#000000" transform="matrix(1.00, 0.00, -0.00, -1.00, 219.3, 597.7)">n</text><text xml:space="preserve" font-family="Georgia,Georgia" font-size="33.0" fill="#000000" transform="matrix(1.00, 0.00, -0.00, -1.00, 238.8, 597.7)">a</text><text xml:space="preserve" font-family="Georgia,Georgia" font-size="33.0" fill="#000000" transform="matrix(1.00, 0.00, -0.00, -1.00, 255.5, 597.7)">i</text><text xml:space="preserve" font-family="Georgia,Georgia" font-size="33.0" fill="#000000" transform="matrix(1.00, 0.00, -0.00, -1.00, 265.1, 597.7)">s</text><text xml:space="preserve" font-family="Georgia,Georgia" font-size="33.0" fill="#000000" transform="matrix(1.00, 0.00, -0.00, -1.00, 279.4, 597.7)">v</text><text xml:space="preserve" font-family="Georgia,Georgia" font-size="33.0" fill="#000000" transform="matrix(1.00, 0.00, -0.00, -1.00, 295.8, 597.7)">o</text><text xml:space="preserve" font-family="Georgia,Georgia" font-size="33.0" fill="#000000" transform="matrix(1.00, 0.00, -0.00, -1.00, 313.6, 597.7)">i</text><text xml:space="preserve" font-family="Georgia,Georgia" font-size="33.0" fill="#000000" transform="matrix(1.00, 0.00, -0.00, -1.00, 323.2, 597.7)">m</text><text xml:space="preserve" font-family="Georgia,Georgia" font-size="33.0" fill="#000000" transform="matrix(1.00, 0.00, -0.00, -1.00, 352.3, 597.7)">a</text><text xml:space="preserve" font-family="Georgia,Georgia" font-size="33.0" fill="#000000" transform="matrix(1.00, 0.00, -0.00, -1.00, 368.9, 597.7)">l</text><text xml:space="preserve" font-family="Georgia,Georgia" font-size="33.0" fill="#000000" transform="matrix(1.00, 0.00, -0.00, -1.00, 378.4, 597.7)">l</text><text xml:space="preserve" font-family="Georgia,Georgia" font-size="33.0" fill="#000000" transform="matrix(1.00, 0.00, -0.00, -1.00, 387.8, 597.7)">a</text><text xml:space="preserve" font-family="Georgia,Georgia" font-size="33.0" fill="#000000" transform="matrix(1.00, 0.00, -0.00, -1.00, 404.4, 597.7)"> </text><text xml:space="preserve" font-family="Georgia,Georgia" font-size="33.0" fill="#000000" transform="matrix(1.00, 0.00, -0.00, -1.00, 412.4, 597.7)">t</text><text xml:space="preserve" font-family="Georgia,Georgia" font-size="33.0" fill="#000000" transform="matrix(1.00, 0.00, -0.00, -1.00, 423.8, 597.7)">a</text><text xml:space="preserve" font-family="Georgia,Georgia" font-size="33.0" fill="#000000" transform="matrix(1.00, 0.00, -0.00, -1.00, 440.4, 597.7)">r</text><text xml:space="preserve" font-family="Georgia,Georgia" font-size="33.0" fill="#000000" transform="matrix(1.00, 0.00, -0.00, -1.00, 453.9, 597.7)">k</text><text xml:space="preserve" font-family="Georgia,Georgia" font-size="33.0" fill="#000000" transform="matrix(1.00, 0.00, -0.00, -1.00, 471.6, 597.7)">o</text><text xml:space="preserve" font-family="Georgia,Georgia" font-size="33.0" fill="#000000" transform="matrix(1.00, 0.00, -0.00, -1.00, 489.4, 597.7)">i</text><text xml:space="preserve" font-family="Georgia,Georgia" font-size="33.0" fill="#000000" transform="matrix(1.00, 0.00, -0.00, -1.00, 499.1, 597.7)">t</text><text xml:space="preserve" font-family="Georgia,Georgia" font-size="33.0" fill="#000000" transform="matrix(1.00, 0.00, -0.00, -1.00, 510.4, 597.7)">e</text><text xml:space="preserve" font-family="Georgia,Georgia" font-size="33.0" fill="#000000" transform="matrix(1.00, 0.00, -0.00, -1.00, 526.4, 597.7)">t</text><text xml:space="preserve" font-family="Georgia,Georgia" font-size="33.0" fill="#000000" transform="matrix(1.00, 0.00, -0.00, -1.00, 537.8, 597.7)">a</text><text xml:space="preserve" font-family="Georgia,Georgia" font-size="33.0" fill="#000000" transform="matrix(1.00, 0.00, -0.00, -1.00, 554.4, 597.7)">a</text><text xml:space="preserve" font-family="Georgia,Georgia" font-size="33.0" fill="#000000" transform="matrix(1.00, 0.00, -0.00, -1.00, 571.1, 597.7)">n</text><text xml:space="preserve" font-family="Georgia,Georgia" font-size="33.0" fill="#000000" transform="matrix(1.00, 0.00, -0.00, -1.00, 590.6, 597.7)"> </text><text xml:space="preserve" font-family="Georgia,Georgia" font-size="33.0" fill="#000000" transform="matrix(1.00, 0.00, -0.00, -1.00, 598.5, 597.7)">k</text><text xml:space="preserve" font-family="Georgia,Georgia" font-size="33.0" fill="#000000" transform="matrix(1.00, 0.00, -0.00, -1.00, 616.2, 597.7)">a</text><text xml:space="preserve" font-family="Georgia,Georgia" font-size="33.0" fill="#000000" transform="matrix(1.00, 0.00, -0.00, -1.00, 632.8, 597.7)">i</text><text xml:space="preserve" font-family="Georgia,Georgia" font-size="33.0" fill="#000000" transform="matrix(1.00, 0.00, -0.00, -1.00, 642.5, 597.7)">k</text><text xml:space="preserve" font-family="Georgia,Georgia" font-size="33.0" fill="#000000" transform="matrix(1.00, 0.00, -0.00, -1.00, 660.1, 597.7)">k</text><text xml:space="preserve" font-family="Georgia,Georgia" font-size="33.0" fill="#000000" transform="matrix(1.00, 0.00, -0.00, -1.00, 677.8, 597.7)">i</text><text xml:space="preserve" font-family="Georgia,Georgia" font-size="33.0" fill="#000000" transform="matrix(1.00, 0.00, -0.00, -1.00, 687.5, 597.7)">e</text><text xml:space="preserve" font-family="Georgia,Georgia" font-size="33.0" fill="#000000" transform="matrix(1.00, 0.00, -0.00, -1.00, 703.4, 597.7)">n</text><text xml:space="preserve" font-family="Georgia,Georgia" font-size="33.0" fill="#000000" transform="matrix(1.00, 0.00, -0.00, -1.00, 722.9, 597.7)"> </text><text xml:space="preserve" font-family="Georgia,Georgia" font-size="33.0" fill="#000000" transform="matrix(1.00, 0.00, -0.00, -1.00, 730.9, 597.7)">k</text><text xml:space="preserve" font-family="Georgia,Georgia" font-size="33.0" fill="#000000" transform="matrix(1.00, 0.00, -0.00, -1.00, 748.6, 597.7)">a</text><text xml:space="preserve" font-family="Georgia,Georgia" font-size="33.0" fill="#000000" transform="matrix(1.00, 0.00, -0.00, -1.00, 765.2, 597.7)">p</text><text xml:space="preserve" font-family="Georgia,Georgia" font-size="33.0" fill="#000000" transform="matrix(1.00, 0.00, -0.00, -1.00, 784.0, 597.7)">p</text><text xml:space="preserve" font-family="Georgia,Georgia" font-size="33.0" fill="#000000" transform="matrix(1.00, 0.00, -0.00, -1.00, 802.9, 597.7)">a</text><text xml:space="preserve" font-family="Georgia,Georgia" font-size="33.0" fill="#000000" transform="matrix(1.00, 0.00, -0.00, -1.00, 819.5, 597.7)">l</text><text xml:space="preserve" font-family="Georgia,Georgia" font-size="33.0" fill="#000000" transform="matrix(1.00, 0.00, -0.00, -1.00, 829.0, 597.7)">e</text><text xml:space="preserve" font-family="Georgia,Georgia" font-size="33.0" fill="#000000" transform="matrix(1.00, 0.00, -0.00, -1.00, 844.9, 597.7)">e</text><text xml:space="preserve" font-family="Georgia,Georgia" font-size="33.0" fill="#000000" transform="matrix(1.00, 0.00, -0.00, -1.00, 860.9, 597.7)">s</text><text xml:space="preserve" font-family="Georgia,Georgia" font-size="33.0" fill="#000000" transform="matrix(1.00, 0.00, -0.00, -1.00, 875.2, 597.7)">e</text><text xml:space="preserve" font-family="Georgia,Georgia" font-size="33.0" fill="#000000" transform="matrix(1.00, 0.00, -0.00, -1.00, 891.1, 597.7)">e</text><text xml:space="preserve" font-family="Georgia,Georgia" font-size="33.0" fill="#000000" transform="matrix(1.00, 0.00, -0.00, -1.00, 907.1, 597.7)">n</text><text xml:space="preserve" font-family="Georgia,Georgia" font-size="33.0" fill="#000000" transform="matrix(1.00, 0.00, -0.00, -1.00, 926.6, 597.7)"> </text><text xml:space="preserve" font-family="Georgia,Georgia" font-size="33.0" fill="#000000" transform="matrix(1.00, 0.00, -0.00, -1.00, 143.2, 560.7)">v</text><text xml:space="preserve" font-family="Georgia,Georgia" font-size="33.0" fill="#000000" transform="matrix(1.00, 0.00, -0.00, -1.00, 159.5, 560.7)">a</text><text xml:space="preserve" font-family="Georgia,Georgia" font-size="33.0" fill="#000000" transform="matrix(1.00, 0.00, -0.00, -1.00, 176.2, 560.7)">i</text><text xml:space="preserve" font-family="Georgia,Georgia" font-size="33.0" fill="#000000" transform="matrix(1.00, 0.00, -0.00, -1.00, 185.8, 560.7)">k</text><text xml:space="preserve" font-family="Georgia,Georgia" font-size="33.0" fill="#000000" transform="matrix(1.00, 0.00, -0.00, -1.00, 203.5, 560.7)">u</text><text xml:space="preserve" font-family="Georgia,Georgia" font-size="33.0" fill="#000000" transform="matrix(1.00, 0.00, -0.00, -1.00, 222.5, 560.7)">t</text><text xml:space="preserve" font-family="Georgia,Georgia" font-size="33.0" fill="#000000" transform="matrix(1.00, 0.00, -0.00, -1.00, 233.9, 560.7)">t</text><text xml:space="preserve" font-family="Georgia,Georgia" font-size="33.0" fill="#000000" transform="matrix(1.00, 0.00, -0.00, -1.00, 245.3, 560.7)">a</text><text xml:space="preserve" font-family="Georgia,Georgia" font-size="33.0" fill="#000000" transform="matrix(1.00, 0.00, -0.00, -1.00, 261.9, 560.7)">v</text><text xml:space="preserve" font-family="Georgia,Georgia" font-size="33.0" fill="#000000" transform="matrix(1.00, 0.00, -0.00, -1.00, 278.3, 560.7)">i</text><text xml:space="preserve" font-family="Georgia,Georgia" font-size="33.0" fill="#000000" transform="matrix(1.00, 0.00, -0.00, -1.00, 288.0, 560.7)">e</text><text xml:space="preserve" font-family="Georgia,Georgia" font-size="33.0" fill="#000000" transform="matrix(1.00, 0.00, -0.00, -1.00, 303.9, 560.7)">n</text><text xml:space="preserve" font-family="Georgia,Georgia" font-size="33.0" fill="#000000" transform="matrix(1.00, 0.00, -0.00, -1.00, 323.4, 560.7)"> </text><text xml:space="preserve" font-family="Georgia,Georgia" font-size="33.0" fill="#000000" transform="matrix(1.00, 0.00, -0.00, -1.00, 331.4, 560.7)">v</text><text xml:space="preserve" font-family="Georgia,Georgia" font-size="33.0" fill="#000000" transform="matrix(1.00, 0.00, -0.00, -1.00, 347.7, 560.7)">o</text><text xml:space="preserve" font-family="Georgia,Georgia" font-size="33.0" fill="#000000" transform="matrix(1.00, 0.00, -0.00, -1.00, 365.5, 560.7)">i</text><text xml:space="preserve" font-family="Georgia,Georgia" font-size="33.0" fill="#000000" transform="matrix(1.00, 0.00, -0.00, -1.00, 375.2, 560.7)">m</text><text xml:space="preserve" font-family="Georgia,Georgia" font-size="33.0" fill="#000000" transform="matrix(1.00, 0.00, -0.00, -1.00, 404.3, 560.7)">i</text><text xml:space="preserve" font-family="Georgia,Georgia" font-size="33.0" fill="#000000" transform="matrix(1.00, 0.00, -0.00, -1.00, 413.9, 560.7)">e</text><text xml:space="preserve" font-family="Georgia,Georgia" font-size="33.0" fill="#000000" transform="matrix(1.00, 0.00, -0.00, -1.00, 429.9, 560.7)">n</text><text xml:space="preserve" font-family="Georgia,Georgia" font-size="33.0" fill="#000000" transform="matrix(1.00, 0.00, -0.00, -1.00, 449.4, 560.7)"> </text><text xml:space="preserve" font-family="Georgia,Georgia" font-size="33.0" fill="#000000" transform="matrix(1.00, 0.00, -0.00, -1.00, 457.4, 560.7)">y</text><text xml:space="preserve" font-family="Georgia,Georgia" font-size="33.0" fill="#000000" transform="matrix(1.00, 0.00, -0.00, -1.00, 473.6, 560.7)">h</text><text xml:space="preserve" font-family="Georgia,Georgia" font-size="33.0" fill="#000000" transform="matrix(1.00, 0.00, -0.00, -1.00, 492.8, 560.7)">t</text><text xml:space="preserve" font-family="Georgia,Georgia" font-size="33.0" fill="#000000" transform="matrix(1.00, 0.00, -0.00, -1.00, 504.2, 560.7)">e</text><text xml:space="preserve" font-family="Georgia,Georgia" font-size="33.0" fill="#000000" transform="matrix(1.00, 0.00, -0.00, -1.00, 520.2, 560.7)">i</text><text xml:space="preserve" font-family="Georgia,Georgia" font-size="33.0" fill="#000000" transform="matrix(1.00, 0.00, -0.00, -1.00, 529.9, 560.7)">s</text><text xml:space="preserve" font-family="Georgia,Georgia" font-size="33.0" fill="#000000" transform="matrix(1.00, 0.00, -0.00, -1.00, 544.1, 560.7)">v</text><text xml:space="preserve" font-family="Georgia,Georgia" font-size="33.0" fill="#000000" transform="matrix(1.00, 0.00, -0.00, -1.00, 560.5, 560.7)">a</text><text xml:space="preserve" font-family="Georgia,Georgia" font-size="33.0" fill="#000000" transform="matrix(1.00, 0.00, -0.00, -1.00, 577.1, 560.7)">i</text><text xml:space="preserve" font-family="Georgia,Georgia" font-size="33.0" fill="#000000" transform="matrix(1.00, 0.00, -0.00, -1.00, 586.8, 560.7)">k</text><text xml:space="preserve" font-family="Georgia,Georgia" font-size="33.0" fill="#000000" transform="matrix(1.00, 0.00, -0.00, -1.00, 604.4, 560.7)">u</text><text xml:space="preserve" font-family="Georgia,Georgia" font-size="33.0" fill="#000000" transform="matrix(1.00, 0.00, -0.00, -1.00, 623.4, 560.7)">t</text><text xml:space="preserve" font-family="Georgia,Georgia" font-size="33.0" fill="#000000" transform="matrix(1.00, 0.00, -0.00, -1.00, 634.8, 560.7)">u</text><text xml:space="preserve" font-family="Georgia,Georgia" font-size="33.0" fill="#000000" transform="matrix(1.00, 0.00, -0.00, -1.00, 653.8, 560.7)">s</text><text xml:space="preserve" font-family="Georgia,Georgia" font-size="33.0" fill="#000000" transform="matrix(1.00, 0.00, -0.00, -1.00, 668.1, 560.7)">t</text><text xml:space="preserve" font-family="Georgia,Georgia" font-size="33.0" fill="#000000" transform="matrix(1.00, 0.00, -0.00, -1.00, 679.5, 560.7)">a</text><text xml:space="preserve" font-family="Georgia,Georgia" font-size="33.0" fill="#000000" transform="matrix(1.00, 0.00, -0.00, -1.00, 696.1, 560.7)">.</text><g><clipPath id="clip0x6080012a9420"><path d="M 508.0 406.7 L 643.8 406.7 L 643.8 418.3 L 508.0 418.3 Z M 508.0 406.7 "></path></clipPath><g clip-path="url(#clip0x6080012a9420)"><path d="M 0.0 0.5 L 124.2 0.5 L 125.0 0.5 " fill="none" stroke="#000000" stroke-width="2.00" transform="matrix(1.00, 0.00, 0.00, -1.00, 509.0, 412.5)"></path><path d="M 633.0 407.2 L 642.6 412.0 L 633.0 416.8 Z M 633.0 407.2 " fill="#000000"></path></g></g><g><clipPath id="clip0x6080012a9720"><path d="M 547.7 347.5 L 654.9 347.5 L 654.9 395.4 L 547.7 395.4 Z M 547.7 347.5 "></path></clipPath><g clip-path="url(#clip0x6080012a9720)"><text xml:space="preserve" font-family="Georgia,Georgia" font-size="28.0" fill="#000000" transform="matrix(1.00, 0.00, -0.00, -1.00, 555.6, 361.6)">F</text><text xml:space="preserve" font-family="Georgia,Georgia" font-size="18.7" fill="#000000" transform="matrix(1.00, 0.00, -0.00, -1.00, 572.4, 359.6)">1</text><text xml:space="preserve" font-family="Georgia,Georgia" font-size="18.7" fill="#000000" transform="matrix(1.00, 0.00, -0.00, -1.00, 580.4, 359.6)"> </text><text xml:space="preserve" font-family="Georgia,Georgia" font-size="28.0" fill="#000000" transform="matrix(1.00, 0.00, -0.00, -1.00, 584.9, 361.6)">=</text><text xml:space="preserve" font-family="Georgia,Georgia" font-size="28.0" fill="#000000" transform="matrix(1.00, 0.00, -0.00, -1.00, 602.9, 361.6)"> </text><text xml:space="preserve" font-family="Georgia,Georgia" font-size="28.0" fill="#000000" transform="matrix(1.00, 0.00, -0.00, -1.00, 609.7, 361.6)">5</text><text xml:space="preserve" font-family="Georgia,Georgia" font-size="28.0" fill="#000000" transform="matrix(1.00, 0.00, -0.00, -1.00, 624.5, 361.6)">N</text></g></g><g><clipPath id="clip0x6080012a9ba0"><path d="M 335.0 406.7 L 409.9 406.7 L 409.9 418.3 L 335.0 418.3 Z M 335.0 406.7 "></path></clipPath><g clip-path="url(#clip0x6080012a9ba0)"><path d="M 0.0 0.5 L 63.4 0.5 L 64.0 0.5 " fill="none" stroke="#000000" stroke-width="2.00" transform="matrix(1.00, 0.00, 0.00, -1.00, 336.0, 412.5)"></path><path d="M 399.0 407.2 L 408.6 412.0 L 399.0 416.8 Z M 399.0 407.2 " fill="#000000"></path></g></g><g><clipPath id="clip0x6080012a9ea0"><path d="M 303.7 340.5 L 414.2 340.5 L 414.2 388.4 L 303.7 388.4 Z M 303.7 340.5 "></path></clipPath><g clip-path="url(#clip0x6080012a9ea0)"><text xml:space="preserve" font-family="Georgia,Georgia" font-size="28.0" fill="#000000" transform="matrix(1.00, 0.00, -0.00, -1.00, 311.6, 354.6)">F</text><text xml:space="preserve" font-family="Georgia,Georgia" font-size="18.7" fill="#000000" transform="matrix(1.00, 0.00, -0.00, -1.00, 328.4, 352.6)">2</text><text xml:space="preserve" font-family="Georgia,Georgia" font-size="18.7" fill="#000000" transform="matrix(1.00, 0.00, -0.00, -1.00, 338.8, 352.6)"> </text><text xml:space="preserve" font-family="Georgia,Georgia" font-size="28.0" fill="#000000" transform="matrix(1.00, 0.00, -0.00, -1.00, 343.3, 354.6)">=</text><text xml:space="preserve" font-family="Georgia,Georgia" font-size="28.0" fill="#000000" transform="matrix(1.00, 0.00, -0.00, -1.00, 361.3, 354.6)"> </text><text xml:space="preserve" font-family="Georgia,Georgia" font-size="28.0" fill="#000000" transform="matrix(1.00, 0.00, -0.00, -1.00, 368.1, 354.6)">2</text><text xml:space="preserve" font-family="Georgia,Georgia" font-size="28.0" fill="#000000" transform="matrix(1.00, 0.00, -0.00, -1.00, 383.7, 354.6)">N</text></g></g><g><clipPath id="clip0x6080012aa320"><path d="M 509.0 429.3 L 717.4 429.3 L 717.4 451.7 L 509.0 451.7 Z M 509.0 429.3 "></path></clipPath><g clip-path="url(#clip0x6080012aa320)"><path d="M 0.0 0.0 L 186.0 0.0 L 188.0 0.0 " fill="none" stroke="#C82505" stroke-width="5.00" transform="matrix(1.00, 0.00, 0.00, -1.00, 510.0, 440.5)"></path><path d="M 695.5 430.3 L 715.9 440.5 L 695.5 450.7 Z M 695.5 430.3 " fill="#C82505"></path></g></g><g><clipPath id="clip0x6080012aa620"><path d="M 527.3 460.8 L 655.9 460.8 L 655.9 508.7 L 527.3 508.7 Z M 527.3 460.8 "></path></clipPath><g clip-path="url(#clip0x6080012aa620)"><text xml:space="preserve" font-family="Georgia,Georgia" font-size="28.0" fill="#000000" transform="matrix(1.00, 0.00, -0.00, -1.00, 535.3, 474.8)">F</text><text xml:space="preserve" font-family="Georgia,Georgia" font-size="18.7" fill="#000000" transform="matrix(1.00, 0.00, -0.00, -1.00, 552.1, 472.8)">k</text><text xml:space="preserve" font-family="Georgia,Georgia" font-size="18.7" fill="#000000" transform="matrix(1.00, 0.00, -0.00, -1.00, 562.0, 472.8)">o</text><text xml:space="preserve" font-family="Georgia,Georgia" font-size="18.7" fill="#000000" transform="matrix(1.00, 0.00, -0.00, -1.00, 572.1, 472.8)">k</text><text xml:space="preserve" font-family="Georgia,Georgia" font-size="18.7" fill="#000000" transform="matrix(1.00, 0.00, -0.00, -1.00, 582.1, 472.8)"> </text><text xml:space="preserve" font-family="Georgia,Georgia" font-size="28.0" fill="#000000" transform="matrix(1.00, 0.00, -0.00, -1.00, 586.6, 474.8)">=</text><text xml:space="preserve" font-family="Georgia,Georgia" font-size="28.0" fill="#000000" transform="matrix(1.00, 0.00, -0.00, -1.00, 604.6, 474.8)"> </text><text xml:space="preserve" font-family="Georgia,Georgia" font-size="28.0" fill="#000000" transform="matrix(1.00, 0.00, -0.00, -1.00, 611.4, 474.8)">7</text><text xml:space="preserve" font-family="Georgia,Georgia" font-size="28.0" fill="#000000" transform="matrix(1.00, 0.00, -0.00, -1.00, 625.4, 474.8)">N</text></g></g><g><clipPath id="clip0x6080012aab60"><path d="M 500.0 168.7 L 635.8 168.7 L 635.8 180.3 L 500.0 180.3 Z M 500.0 168.7 "></path></clipPath><g clip-path="url(#clip0x6080012aab60)"><path d="M 0.0 0.5 L 124.2 0.5 L 125.0 0.5 " fill="none" stroke="#000000" stroke-width="2.00" transform="matrix(1.00, 0.00, 0.00, -1.00, 501.0, 174.5)"></path><path d="M 625.0 169.2 L 634.6 174.0 L 625.0 178.8 Z M 625.0 169.2 " fill="#000000"></path></g></g><g><clipPath id="clip0x6080012aae60"><path d="M 539.7 109.5 L 646.9 109.5 L 646.9 157.4 L 539.7 157.4 Z M 539.7 109.5 "></path></clipPath><g clip-path="url(#clip0x6080012aae60)"><text xml:space="preserve" font-family="Georgia,Georgia" font-size="28.0" fill="#000000" transform="matrix(1.00, 0.00, -0.00, -1.00, 547.6, 123.6)">F</text><text xml:space="preserve" font-family="Georgia,Georgia" font-size="18.7" fill="#000000" transform="matrix(1.00, 0.00, -0.00, -1.00, 564.4, 121.6)">1</text><text xml:space="preserve" font-family="Georgia,Georgia" font-size="18.7" fill="#000000" transform="matrix(1.00, 0.00, -0.00, -1.00, 572.4, 121.6)"> </text><text xml:space="preserve" font-family="Georgia,Georgia" font-size="28.0" fill="#000000" transform="matrix(1.00, 0.00, -0.00, -1.00, 576.9, 123.6)">=</text><text xml:space="preserve" font-family="Georgia,Georgia" font-size="28.0" fill="#000000" transform="matrix(1.00, 0.00, -0.00, -1.00, 594.9, 123.6)"> </text><text xml:space="preserve" font-family="Georgia,Georgia" font-size="28.0" fill="#000000" transform="matrix(1.00, 0.00, -0.00, -1.00, 601.7, 123.6)">5</text><text xml:space="preserve" font-family="Georgia,Georgia" font-size="28.0" fill="#000000" transform="matrix(1.00, 0.00, -0.00, -1.00, 616.5, 123.6)">N</text></g></g><g><clipPath id="clip0x6080012ab2e0"><path d="M 295.7 102.5 L 406.2 102.5 L 406.2 150.4 L 295.7 150.4 Z M 295.7 102.5 "></path></clipPath><g clip-path="url(#clip0x6080012ab2e0)"><text xml:space="preserve" font-family="Georgia,Georgia" font-size="28.0" fill="#000000" transform="matrix(1.00, 0.00, -0.00, -1.00, 303.6, 116.6)">F</text><text xml:space="preserve" font-family="Georgia,Georgia" font-size="18.7" fill="#000000" transform="matrix(1.00, 0.00, -0.00, -1.00, 320.4, 114.6)">2</text><text xml:space="preserve" font-family="Georgia,Georgia" font-size="18.7" fill="#000000" transform="matrix(1.00, 0.00, -0.00, -1.00, 330.8, 114.6)"> </text><text xml:space="preserve" font-family="Georgia,Georgia" font-size="28.0" fill="#000000" transform="matrix(1.00, 0.00, -0.00, -1.00, 335.3, 116.6)">=</text><text xml:space="preserve" font-family="Georgia,Georgia" font-size="28.0" fill="#000000" transform="matrix(1.00, 0.00, -0.00, -1.00, 353.3, 116.6)"> </text><text xml:space="preserve" font-family="Georgia,Georgia" font-size="28.0" fill="#000000" transform="matrix(1.00, 0.00, -0.00, -1.00, 360.1, 116.6)">2</text><text xml:space="preserve" font-family="Georgia,Georgia" font-size="28.0" fill="#000000" transform="matrix(1.00, 0.00, -0.00, -1.00, 375.7, 116.6)">N</text></g></g><g><clipPath id="clip0x6080012ab760"><path d="M 405.2 168.7 L 331.7 168.7 L 331.7 180.3 L 405.2 180.3 Z M 405.2 168.7 "></path></clipPath><g clip-path="url(#clip0x6080012ab760)"><path d="M 0.2 -0.5 L 61.9 -0.5 L 63.2 -0.5 " fill="none" stroke="#000000" stroke-width="2.00" transform="matrix(-1.00, 0.00, 0.00, 1.00, 404.2, 174.5)"></path><path d="M 342.0 178.8 L 332.4 174.0 L 342.0 169.2 Z M 342.0 178.8 " fill="#000000"></path></g></g><g><clipPath id="clip0x6080012aba60"><path d="M 411.0 489.0 L 511.0 489.0 L 511.0 389.0 L 411.0 389.0 Z M 411.3 489.2 "></path></clipPath><g clip-path="url(#clip0x6080012aba60)"><path d="M 411.0 489.0 L 511.0 489.0 L 511.0 389.0 L 411.0 389.0 Z M 411.3 489.2 " fill="url(#gradSh1.0)"></path></g></g><path d="M -0.3 0.2 L 99.7 0.2 L 99.7 100.2 L -0.3 100.2 Z M 0.0 0.0 " fill="none" stroke="#85878C" stroke-width="2.00" transform="matrix(1.00, 0.00, 0.00, -1.00, 411.3, 489.2)"></path><g><clipPath id="clip0x6080014abe20"><path d="M 404.0 247.0 L 504.0 247.0 L 504.0 147.0 L 404.0 147.0 Z M 404.0 247.2 "></path></clipPath><g clip-path="url(#clip0x6080014abe20)"><path d="M 404.0 247.0 L 504.0 247.0 L 504.0 147.0 L 404.0 147.0 Z M 404.0 247.2 " fill="url(#gradSh1.1)"></path></g></g><path d="M 0.0 0.2 L 100.0 0.2 L 100.0 100.2 L 0.0 100.2 Z M 0.0 0.0 " fill="none" stroke="#85878C" stroke-width="2.00" transform="matrix(1.00, 0.00, 0.00, -1.00, 404.0, 247.2)"></path><g><clipPath id="clip0x6080016ac120"><path d="M 501.0 191.3 L 575.9 191.3 L 575.9 213.7 L 501.0 213.7 Z M 501.0 191.3 "></path></clipPath><g clip-path="url(#clip0x6080016ac120)"><path d="M 0.0 0.0 L 52.6 0.0 L 55.0 0.0 " fill="none" stroke="#C82505" stroke-width="5.00" transform="matrix(1.00, 0.00, 0.00, -1.00, 502.0, 202.5)"></path><path d="M 554.5 192.3 L 574.9 202.5 L 554.5 212.7 Z M 554.5 192.3 " fill="#C82505"></path></g></g><g><clipPath id="clip0x6080016ac420"><path d="M 517.7 222.8 L 647.6 222.8 L 647.6 270.7 L 517.7 270.7 Z M 517.7 222.8 "></path></clipPath><g clip-path="url(#clip0x6080016ac420)"><text xml:space="preserve" font-family="Georgia,Georgia" font-size="28.0" fill="#000000" transform="matrix(1.00, 0.00, -0.00, -1.00, 525.6, 236.8)">F</text><text xml:space="preserve" font-family="Georgia,Georgia" font-size="18.7" fill="#000000" transform="matrix(1.00, 0.00, -0.00, -1.00, 542.4, 234.8)">k</text><text xml:space="preserve" font-family="Georgia,Georgia" font-size="18.7" fill="#000000" transform="matrix(1.00, 0.00, -0.00, -1.00, 552.4, 234.8)">o</text><text xml:space="preserve" font-family="Georgia,Georgia" font-size="18.7" fill="#000000" transform="matrix(1.00, 0.00, -0.00, -1.00, 562.4, 234.8)">k</text><text xml:space="preserve" font-family="Georgia,Georgia" font-size="18.7" fill="#000000" transform="matrix(1.00, 0.00, -0.00, -1.00, 572.4, 234.8)"> </text><text xml:space="preserve" font-family="Georgia,Georgia" font-size="28.0" fill="#000000" transform="matrix(1.00, 0.00, -0.00, -1.00, 576.9, 236.8)">=</text><text xml:space="preserve" font-family="Georgia,Georgia" font-size="28.0" fill="#000000" transform="matrix(1.00, 0.00, -0.00, -1.00, 595.0, 236.8)"> </text><text xml:space="preserve" font-family="Georgia,Georgia" font-size="28.0" fill="#000000" transform="matrix(1.00, 0.00, -0.00, -1.00, 601.7, 236.8)">3</text><text xml:space="preserve" font-family="Georgia,Georgia" font-size="28.0" fill="#000000" transform="matrix(1.00, 0.00, -0.00, -1.00, 617.2, 236.8)">N</text></g></g></g></svg>