<?xml version="1.0" encoding="UTF-8" standalone="no"?><svg xmlns="http://www.w3.org/2000/svg" xmlns:xlink="http://www.w3.org/1999/xlink" clip-rule="evenodd" stroke-miterlimit="10" viewBox="0 0 1024 768"><desc>SVG generated by Keynote</desc><defs></defs><g transform="matrix(1.00, 0.00, -0.00, -1.00, 0.0, 768.0)"><path d="M 0.0 768.0 L 1024.0 768.0 L 1024.0 0.0 L 0.0 0.0 Z M 0.0 768.0 " fill="#FEFFFF"></path><text xml:space="preserve" font-family="Georgia,Georgia" font-size="71.2" fill="#000000" transform="matrix(1.00, 0.00, -0.00, -1.00, 82.9, 645.3)">K</text><text xml:space="preserve" font-family="Georgia,Georgia" font-size="71.2" fill="#000000" transform="matrix(1.00, 0.00, -0.00, -1.00, 132.4, 645.3)">i</text><text xml:space="preserve" font-family="Georgia,Georgia" font-size="71.2" fill="#000000" transform="matrix(1.00, 0.00, -0.00, -1.00, 153.2, 645.3)">t</text><text xml:space="preserve" font-family="Georgia,Georgia" font-size="71.2" fill="#000000" transform="matrix(1.00, 0.00, -0.00, -1.00, 177.8, 645.3)">k</text><text xml:space="preserve" font-family="Georgia,Georgia" font-size="71.2" fill="#000000" transform="matrix(1.00, 0.00, -0.00, -1.00, 215.9, 645.3)">a</text><text xml:space="preserve" font-family="Georgia,Georgia" font-size="71.2" fill="#000000" transform="matrix(1.00, 0.00, -0.00, -1.00, 251.8, 645.3)">v</text><text xml:space="preserve" font-family="Georgia,Georgia" font-size="71.2" fill="#000000" transform="matrix(1.00, 0.00, -0.00, -1.00, 287.1, 645.3)">o</text><text xml:space="preserve" font-family="Georgia,Georgia" font-size="71.2" fill="#000000" transform="matrix(1.00, 0.00, -0.00, -1.00, 325.5, 645.3)">i</text><text xml:space="preserve" font-family="Georgia,Georgia" font-size="71.2" fill="#000000" transform="matrix(1.00, 0.00, -0.00, -1.00, 346.4, 645.3)">m</text><text xml:space="preserve" font-family="Georgia,Georgia" font-size="71.2" fill="#000000" transform="matrix(1.00, 0.00, -0.00, -1.00, 409.1, 645.3)">a</text><text xml:space="preserve" font-family="Georgia,Georgia" font-size="71.2" fill="#000000" transform="matrix(1.00, 0.00, -0.00, -1.00, 445.0, 645.3)">n</text><text xml:space="preserve" font-family="Georgia,Georgia" font-size="71.2" fill="#000000" transform="matrix(1.00, 0.00, -0.00, -1.00, 487.0, 645.3)"> </text><text xml:space="preserve" font-family="Georgia,Georgia" font-size="71.2" fill="#000000" transform="matrix(1.00, 0.00, -0.00, -1.00, 504.2, 645.3)">m</text><text xml:space="preserve" font-family="Georgia,Georgia" font-size="71.2" fill="#000000" transform="matrix(1.00, 0.00, -0.00, -1.00, 566.9, 645.3)">u</text><text xml:space="preserve" font-family="Georgia,Georgia" font-size="71.2" fill="#000000" transform="matrix(1.00, 0.00, -0.00, -1.00, 607.9, 645.3)">u</text><text xml:space="preserve" font-family="Georgia,Georgia" font-size="71.2" fill="#000000" transform="matrix(1.00, 0.00, -0.00, -1.00, 648.8, 645.3)">t</text><text xml:space="preserve" font-family="Georgia,Georgia" font-size="71.2" fill="#000000" transform="matrix(1.00, 0.00, -0.00, -1.00, 673.4, 645.3)">t</text><text xml:space="preserve" font-family="Georgia,Georgia" font-size="71.2" fill="#000000" transform="matrix(1.00, 0.00, -0.00, -1.00, 698.0, 645.3)">u</text><text xml:space="preserve" font-family="Georgia,Georgia" font-size="71.2" fill="#000000" transform="matrix(1.00, 0.00, -0.00, -1.00, 739.0, 645.3)">m</text><text xml:space="preserve" font-family="Georgia,Georgia" font-size="71.2" fill="#000000" transform="matrix(1.00, 0.00, -0.00, -1.00, 801.7, 645.3)">i</text><text xml:space="preserve" font-family="Georgia,Georgia" font-size="71.2" fill="#000000" transform="matrix(1.00, 0.00, -0.00, -1.00, 822.6, 645.3)">n</text><text xml:space="preserve" font-family="Georgia,Georgia" font-size="71.2" fill="#000000" transform="matrix(1.00, 0.00, -0.00, -1.00, 864.6, 645.3)">e</text><text xml:space="preserve" font-family="Georgia,Georgia" font-size="71.2" fill="#000000" transform="matrix(1.00, 0.00, -0.00, -1.00, 899.1, 645.3)">n</text><g><clipPath id="clip0x608001ab81e0"><path d="M 122.0 551.0 L 902.0 551.0 L 902.0 47.0 L 122.0 47.0 Z M 122.1 551.3 "></path></clipPath><g clip-path="url(#clip0x608001ab81e0)"><image xlink:href="../../031EB4F7-FC71-41C4-B3B7-D3EFBE0D82D7/assets/DD468D8C3246661D5DBE4A399E93166B.jpeg" width="590.00" height="382.00" transform="matrix(1.32, 0.00, -0.00, -1.32, 122.0, 551.0)"></image></g></g><path d="M 605.0 394.0 L 796.0 394.0 L 796.0 349.0 L 605.0 349.0 Z M 604.8 394.5 " fill="#FEFFFE"></path><g><clipPath id="clip0x608001ab84e0"><path d="M 599.5 344.1 L 801.4 344.1 L 801.4 399.9 L 599.5 399.9 Z M 599.5 344.1 "></path></clipPath><g clip-path="url(#clip0x608001ab84e0)"><text xml:space="preserve" font-family="Georgia,Georgia" font-size="33.0" fill="#000000" transform="matrix(1.00, 0.00, -0.00, -1.00, 608.8, 360.7)">L</text><text xml:space="preserve" font-family="Georgia,Georgia" font-size="33.0" fill="#000000" transform="matrix(1.00, 0.00, -0.00, -1.00, 628.7, 360.7)">i</text><text xml:space="preserve" font-family="Georgia,Georgia" font-size="33.0" fill="#000000" transform="matrix(1.00, 0.00, -0.00, -1.00, 638.4, 360.7)">u</text><text xml:space="preserve" font-family="Georgia,Georgia" font-size="33.0" fill="#000000" transform="matrix(1.00, 0.00, -0.00, -1.00, 657.4, 360.7)">k</text><text xml:space="preserve" font-family="Georgia,Georgia" font-size="33.0" fill="#000000" transform="matrix(1.00, 0.00, -0.00, -1.00, 675.1, 360.7)">u</text><text xml:space="preserve" font-family="Georgia,Georgia" font-size="33.0" fill="#000000" transform="matrix(1.00, 0.00, -0.00, -1.00, 694.0, 360.7)">k</text><text xml:space="preserve" font-family="Georgia,Georgia" font-size="33.0" fill="#000000" transform="matrix(1.00, 0.00, -0.00, -1.00, 711.7, 360.7)">i</text><text xml:space="preserve" font-family="Georgia,Georgia" font-size="33.0" fill="#000000" transform="matrix(1.00, 0.00, -0.00, -1.00, 721.4, 360.7)">t</text><text xml:space="preserve" font-family="Georgia,Georgia" font-size="33.0" fill="#000000" transform="matrix(1.00, 0.00, -0.00, -1.00, 732.8, 360.7)">k</text><text xml:space="preserve" font-family="Georgia,Georgia" font-size="33.0" fill="#000000" transform="matrix(1.00, 0.00, -0.00, -1.00, 750.4, 360.7)">a</text><text xml:space="preserve" font-family="Georgia,Georgia" font-size="33.0" fill="#000000" transform="matrix(1.00, 0.00, -0.00, -1.00, 767.1, 360.7)"> </text><text xml:space="preserve" font-family="Georgia,Georgia" font-size="33.0" fill="#000000" transform="matrix(1.00, 0.00, -0.00, -1.00, 775.0, 360.7)"> </text><text xml:space="preserve" font-family="Georgia,Georgia" font-size="33.0" fill="#000000" transform="matrix(1.00, 0.00, -0.00, -1.00, 783.0, 360.7)"> </text></g></g><path d="M 334.0 122.0 L 486.0 122.0 L 486.0 82.0 L 334.0 82.0 Z M 333.5 122.0 " fill="#FEFFFE"></path><g><clipPath id="clip0x608001ab8c60"><path d="M 329.5 78.0 L 490.2 78.0 L 490.2 126.0 L 329.5 126.0 Z M 329.5 78.0 "></path></clipPath><g clip-path="url(#clip0x608001ab8c60)"><text xml:space="preserve" font-family="Georgia,Georgia" font-size="28.0" fill="#000000" transform="matrix(1.00, 0.00, -0.00, -1.00, 337.5, 92.1)">L</text><text xml:space="preserve" font-family="Georgia,Georgia" font-size="28.0" fill="#000000" transform="matrix(1.00, 0.00, -0.00, -1.00, 354.4, 92.1)">e</text><text xml:space="preserve" font-family="Georgia,Georgia" font-size="28.0" fill="#000000" transform="matrix(1.00, 0.00, -0.00, -1.00, 367.9, 92.1)">p</text><text xml:space="preserve" font-family="Georgia,Georgia" font-size="28.0" fill="#000000" transform="matrix(1.00, 0.00, -0.00, -1.00, 383.9, 92.1)">o</text><text xml:space="preserve" font-family="Georgia,Georgia" font-size="28.0" fill="#000000" transform="matrix(1.00, 0.00, -0.00, -1.00, 399.0, 92.1)">k</text><text xml:space="preserve" font-family="Georgia,Georgia" font-size="28.0" fill="#000000" transform="matrix(1.00, 0.00, -0.00, -1.00, 414.0, 92.1)">i</text><text xml:space="preserve" font-family="Georgia,Georgia" font-size="28.0" fill="#000000" transform="matrix(1.00, 0.00, -0.00, -1.00, 422.2, 92.1)">t</text><text xml:space="preserve" font-family="Georgia,Georgia" font-size="28.0" fill="#000000" transform="matrix(1.00, 0.00, -0.00, -1.00, 431.9, 92.1)">k</text><text xml:space="preserve" font-family="Georgia,Georgia" font-size="28.0" fill="#000000" transform="matrix(1.00, 0.00, -0.00, -1.00, 446.9, 92.1)">a</text><text xml:space="preserve" font-family="Georgia,Georgia" font-size="28.0" fill="#000000" transform="matrix(1.00, 0.00, -0.00, -1.00, 461.0, 92.1)"> </text><text xml:space="preserve" font-family="Georgia,Georgia" font-size="28.0" fill="#000000" transform="matrix(1.00, 0.00, -0.00, -1.00, 467.7, 92.1)"> </text><text xml:space="preserve" font-family="Georgia,Georgia" font-size="28.0" fill="#000000" transform="matrix(1.00, 0.00, -0.00, -1.00, 474.5, 92.1)"> </text></g></g><path d="M 546.0 477.0 L 729.0 477.0 L 729.0 451.0 L 546.0 451.0 Z M 546.0 477.0 " fill="#FEFFFE"></path><path d="M 305.2 443.1 C 304.9 443.2 304.4 442.5 304.1 442.6 M 305.2 443.1 C 305.4 441.5 304.4 440.7 303.2 439.6 C 301.8 438.6 302.5 440.8 302.0 441.1 C 299.7 440.3 300.4 439.4 301.6 438.3 C 300.3 438.7 299.7 435.8 298.8 437.6 C 301.3 439.7 296.7 436.5 298.1 439.1 C 298.2 439.6 297.2 439.4 297.0 439.2 C 297.2 440.5 295.2 440.1 296.1 441.6 C 295.5 442.7 295.6 442.1 295.8 443.5 C 296.1 443.9 296.2 443.5 296.4 443.2 C 297.4 442.2 296.9 444.7 298.2 444.5 C 297.7 446.5 299.8 445.2 299.6 444.1 C 300.2 444.8 299.9 447.0 301.4 446.3 C 301.3 447.4 303.7 448.1 303.1 446.4 C 302.7 445.2 303.9 445.3 304.3 445.0 C 304.2 444.5 302.7 444.2 302.7 443.8 C 303.3 443.8 305.1 444.2 303.5 443.2 C 304.4 443.0 303.8 442.1 305.2 443.1 C 305.2 443.1 305.2 443.1 305.2 443.1 Z M 300.6 438.7 C 300.9 438.2 301.1 439.0 300.6 438.7 C 300.6 438.7 300.6 438.7 300.6 438.7 Z M 300.3 446.7 C 300.5 446.3 300.8 447.1 300.3 446.7 C 300.3 446.7 300.3 446.7 300.3 446.7 Z M 296.6 443.4 C 296.9 443.0 297.1 443.8 296.6 443.4 C 296.6 443.4 296.6 443.4 296.6 443.4 Z M 301.7 439.8 C 302.2 440.8 300.6 440.0 300.8 439.5 C 300.9 439.6 301.7 439.4 301.7 439.8 C 301.7 439.8 301.7 439.8 301.7 439.8 Z M 300.1 442.3 C 300.2 442.2 300.6 442.4 300.3 442.8 C 300.0 442.7 299.9 442.4 300.1 442.3 C 300.1 442.3 300.1 442.3 300.1 442.3 Z M 297.7 437.8 C 297.9 437.7 298.2 437.9 297.8 438.3 C 297.6 438.2 297.5 437.9 297.7 437.8 C 297.7 437.8 297.7 437.8 297.7 437.8 Z M 301.8 441.6 C 302.0 441.8 301.8 442.2 301.5 442.1 C 301.5 441.8 301.0 441.4 301.8 441.6 C 301.8 441.6 301.8 441.6 301.8 441.6 Z M 304.1 441.1 C 304.6 441.8 302.8 441.4 302.9 441.2 C 302.9 440.8 303.9 440.5 304.1 441.1 C 304.1 441.1 304.1 441.1 304.1 441.1 Z M 301.8 442.4 C 302.3 443.0 301.4 442.6 301.8 442.4 C 301.8 442.4 301.8 442.4 301.8 442.4 Z M 295.8 441.1 C 296.1 441.7 295.3 441.2 295.8 441.1 C 295.8 441.1 295.8 441.1 295.8 441.1 Z M 297.7 444.6 C 298.1 445.2 297.2 444.7 297.7 444.6 C 297.7 444.6 297.7 444.6 297.7 444.6 Z M 299.7 439.6 C 298.8 438.9 300.3 438.5 299.7 439.6 C 299.7 439.6 299.7 439.6 299.7 439.6 Z M 305.8 442.1 C 304.8 441.3 306.4 440.9 305.8 442.1 C 305.8 442.1 305.8 442.1 305.8 442.1 Z M 436.4 488.5 C 437.8 488.5 433.2 485.7 434.6 488.1 C 434.8 489.8 431.3 488.8 432.6 487.5 C 431.6 487.1 431.6 487.0 430.9 487.6 C 431.0 486.4 428.6 485.1 427.6 485.5 C 426.7 486.3 429.3 486.1 427.5 486.8 C 424.2 486.2 427.4 487.9 425.8 488.9 C 425.7 488.9 425.8 488.2 425.4 488.5 C 425.0 489.7 426.6 491.0 425.6 491.7 C 426.1 491.7 428.1 493.6 427.4 492.3 C 427.3 491.0 429.5 494.3 429.8 492.4 C 430.3 493.4 431.4 492.4 431.8 493.7 C 432.3 494.0 432.5 493.0 432.5 492.8 C 432.7 491.9 432.6 494.9 433.9 493.6 C 433.8 494.1 436.2 494.5 434.7 493.3 C 435.1 493.6 437.7 494.7 436.7 492.6 C 435.1 491.4 439.1 491.4 436.9 490.7 C 435.3 490.1 434.9 490.4 436.4 489.8 C 436.7 490.0 438.7 490.3 437.2 489.1 C 436.8 489.3 436.1 488.9 436.4 488.5 C 436.4 488.5 436.4 488.5 436.4 488.5 Z M 436.1 491.1 C 435.2 490.9 436.2 490.4 436.1 491.1 C 436.1 491.1 436.1 491.1 436.1 491.1 Z M 431.5 494.0 C 430.5 493.8 431.6 493.4 431.5 494.0 C 431.5 494.0 431.5 494.0 431.5 494.0 Z M 433.4 487.2 C 432.8 487.7 433.1 485.8 433.4 487.2 C 433.4 487.2 433.4 487.2 433.4 487.2 Z M 433.6 493.0 C 433.5 493.0 433.8 492.9 434.0 492.8 C 434.0 492.9 433.7 493.0 433.6 493.0 C 433.6 493.0 433.6 493.0 433.6 493.0 Z M 431.7 486.8 C 430.0 487.3 431.8 485.3 431.7 486.8 C 431.7 486.8 431.7 486.8 431.7 486.8 Z M 428.1 487.7 C 427.4 489.4 426.5 486.8 428.1 487.7 C 428.1 487.7 428.1 487.7 428.1 487.7 Z M 429.3 492.1 C 429.7 491.8 429.5 492.4 429.3 492.1 C 429.3 492.1 429.3 492.1 429.3 492.1 Z M 435.8 494.1 C 436.1 493.8 436.0 494.4 435.8 494.1 C 435.8 494.1 435.8 494.1 435.8 494.1 Z M 427.4 491.4 C 427.7 490.8 427.9 491.9 427.4 491.4 C 427.4 491.4 427.4 491.4 427.4 491.4 Z M 433.0 487.9 C 434.7 486.8 434.1 490.4 433.0 487.9 C 433.0 487.9 433.0 487.9 433.0 487.9 Z M 435.5 488.4 C 436.5 488.3 435.1 489.2 434.7 488.9 C 434.8 488.8 435.3 488.4 435.5 488.4 C 435.5 488.4 435.5 488.4 435.5 488.4 Z M 431.5 487.7 C 432.6 487.2 432.3 488.3 431.5 487.7 C 431.5 487.7 431.5 487.7 431.5 487.7 Z M 434.1 487.5 C 434.5 487.8 433.6 487.6 434.1 487.5 C 434.1 487.5 434.1 487.5 434.1 487.5 Z M 429.9 485.7 C 430.4 486.0 429.4 485.8 429.9 485.7 C 429.9 485.7 429.9 485.7 429.9 485.7 Z M 436.8 487.9 C 437.2 488.2 436.3 488.0 436.8 487.9 C 436.8 487.9 436.8 487.9 436.8 487.9 Z M 430.1 486.7 C 429.8 487.3 430.8 489.1 428.6 487.2 C 428.3 486.7 429.6 486.0 430.1 486.7 C 430.1 486.7 430.1 486.7 430.1 486.7 Z M 307.7 444.7 C 304.9 440.7 304.1 444.3 303.5 444.7 C 302.5 445.2 302.7 446.1 303.1 447.1 C 302.7 449.5 305.5 445.9 304.9 448.2 C 304.4 451.4 307.5 446.6 306.3 449.6 C 305.8 450.3 307.7 450.6 307.7 450.3 C 307.8 452.1 310.3 450.4 310.4 450.2 C 310.8 450.9 309.5 453.4 312.4 452.5 C 314.1 452.5 313.5 455.4 314.0 453.4 C 314.1 455.9 315.0 453.2 315.8 454.4 C 316.0 455.9 316.6 452.7 317.0 455.5 C 318.4 454.2 315.7 456.3 320.2 456.9 C 318.4 455.9 322.6 456.4 321.4 457.2 C 319.5 457.8 323.4 457.6 325.0 459.1 C 325.7 458.7 328.6 458.2 327.5 459.7 C 328.7 462.4 330.0 459.3 330.2 461.3 C 330.6 462.2 331.4 460.9 331.9 461.2 C 332.1 462.7 333.0 462.1 335.4 463.5 C 340.8 466.3 337.5 460.7 339.8 461.1 C 340.4 460.7 338.8 455.5 338.9 459.0 C 338.8 458.0 333.1 459.3 336.6 456.9 C 334.4 457.5 337.5 455.7 333.5 455.9 C 337.2 460.1 327.9 454.7 332.8 455.4 C 332.4 454.4 330.5 453.8 331.6 454.9 C 331.2 457.2 328.9 452.6 329.6 455.9 C 327.1 454.0 326.9 456.6 326.8 454.7 C 327.4 451.7 326.6 455.5 325.6 454.1 C 322.5 452.7 326.3 450.6 323.5 451.8 C 321.2 449.2 322.3 452.7 321.2 452.6 C 320.0 454.3 318.9 449.8 321.2 450.6 C 319.6 451.0 321.4 449.6 319.5 450.1 C 319.7 452.3 318.7 447.5 318.5 449.1 C 317.1 449.0 317.2 450.2 316.8 450.1 C 315.1 449.3 316.5 447.9 315.5 449.0 C 314.8 449.5 315.2 446.9 314.7 447.3 C 316.3 448.3 312.4 448.4 312.7 447.4 C 313.8 447.8 313.4 444.9 312.0 445.9 C 310.8 450.0 311.2 444.2 309.8 445.1 C 309.3 447.5 306.5 443.5 308.4 443.4 C 308.3 443.5 307.7 444.7 307.7 444.7 M 314.0 447.4 C 315.3 448.2 312.4 447.0 314.0 447.4 M 314.3 446.8 C 314.5 447.8 313.3 445.6 314.5 446.6 C 314.5 446.6 314.2 446.7 314.3 446.8 M 320.1 449.6 C 319.7 450.1 319.5 448.9 320.1 449.6 M 320.7 451.5 C 321.4 452.5 319.3 450.9 320.7 451.5 M 335.6 457.4 C 332.7 460.0 334.7 455.0 335.6 457.4 M 325.9 452.6 C 324.0 452.2 327.1 451.5 325.9 452.6 M 325.1 453.1 C 324.0 453.3 325.2 452.3 325.1 453.1 M 332.7 456.2 C 332.8 456.3 332.8 456.3 332.7 456.2 C 332.7 456.2 332.7 456.2 332.7 456.2 Z M 337.2 458.2 C 337.3 458.1 337.3 458.1 337.2 458.2 C 337.2 458.2 337.2 458.2 337.2 458.2 Z M 328.2 454.7 C 327.1 453.4 330.5 455.4 328.2 454.7 C 328.2 454.7 328.2 454.7 328.2 454.7 Z M 333.1 462.1 C 333.0 462.1 333.0 462.1 333.1 462.1 C 333.1 462.1 333.1 462.1 333.1 462.1 Z M 312.3 448.2 C 312.2 448.2 312.2 448.2 312.3 448.2 C 312.3 448.2 312.3 448.2 312.3 448.2 Z M 308.9 444.9 C 308.7 445.3 308.4 444.2 308.9 444.9 C 308.9 444.9 308.9 444.9 308.9 444.9 Z M 303.9 446.4 C 303.9 446.5 303.9 446.5 303.9 446.4 C 303.9 446.4 303.9 446.4 303.9 446.4 Z M 310.0 449.0 C 310.0 449.0 310.0 449.0 310.0 449.0 C 310.0 449.0 310.0 449.0 310.0 449.0 Z M 311.8 447.1 C 312.1 445.1 313.1 448.4 311.8 447.1 C 311.8 447.1 311.8 447.1 311.8 447.1 Z M 324.6 458.3 C 325.0 457.6 325.7 459.1 324.6 458.3 C 324.6 458.3 324.6 458.3 324.6 458.3 Z M 320.6 452.2 C 320.9 451.9 321.1 452.7 320.6 452.2 C 320.6 452.2 320.6 452.2 320.6 452.2 Z M 319.1 448.7 C 319.5 448.4 319.7 449.2 319.1 448.7 C 319.1 448.7 319.1 448.7 319.1 448.7 Z M 309.2 444.5 C 309.4 444.4 309.4 444.4 309.2 444.5 C 309.2 444.5 309.2 444.5 309.2 444.5 Z M 309.9 446.5 C 309.8 444.4 311.0 448.1 309.9 446.5 C 309.9 446.5 309.9 446.5 309.9 446.5 Z M 308.0 446.0 C 308.2 446.9 307.0 445.0 308.0 446.0 M 307.6 448.9 C 309.2 448.9 305.0 451.0 307.6 448.9 C 307.6 448.9 307.6 448.9 307.6 448.9 Z M 313.8 452.9 C 313.8 453.1 313.8 453.1 313.8 452.9 C 313.8 452.9 313.8 452.9 313.8 452.9 Z M 315.4 448.0 C 316.5 448.6 314.5 448.0 315.4 448.0 C 315.4 448.0 315.4 448.0 315.4 448.0 Z M 306.6 442.6 C 307.5 443.3 305.8 442.6 306.6 442.6 C 306.6 442.6 306.6 442.6 306.6 442.6 Z M 318.6 453.4 C 320.7 454.1 316.9 453.6 318.6 453.4 C 318.6 453.4 318.6 453.4 318.6 453.4 Z M 327.2 455.0 C 327.2 455.1 327.2 455.1 327.2 455.0 C 327.2 455.0 327.2 455.0 327.2 455.0 Z M 328.9 455.0 C 329.0 455.0 329.0 455.0 328.9 455.0 C 328.9 455.0 328.9 455.0 328.9 455.0 Z M 334.7 459.3 C 334.8 459.5 334.8 459.5 334.7 459.3 C 334.7 459.3 334.7 459.3 334.7 459.3 Z M 330.6 454.8 C 330.7 454.9 330.7 454.9 330.6 454.8 C 330.6 454.8 330.6 454.8 330.6 454.8 Z M 334.9 457.1 C 335.0 457.2 335.0 457.2 334.9 457.1 C 334.9 457.1 334.9 457.1 334.9 457.1 Z M 334.9 455.4 C 334.9 455.5 334.9 455.5 334.9 455.4 C 334.9 455.4 334.9 455.4 334.9 455.4 Z M 322.1 458.3 C 322.2 458.4 322.2 458.4 322.1 458.3 C 322.1 458.3 322.1 458.3 322.1 458.3 Z M 311.3 445.0 C 311.4 445.1 311.4 445.1 311.3 445.0 C 311.3 445.0 311.3 445.0 311.3 445.0 Z M 334.3 457.6 C 334.3 457.6 334.3 457.6 334.3 457.6 C 334.3 457.6 334.3 457.6 334.3 457.6 Z M 323.1 454.3 C 322.5 455.7 323.1 452.1 323.4 454.3 C 323.3 454.4 323.2 454.1 323.1 454.3 M 323.5 457.2 C 323.4 457.2 323.4 457.2 323.5 457.2 C 323.5 457.2 323.5 457.2 323.5 457.2 Z M 318.5 455.9 C 318.4 456.0 318.4 456.0 318.5 455.9 C 318.5 455.9 318.5 455.9 318.5 455.9 Z M 330.0 454.2 C 330.1 453.4 330.9 455.3 329.8 454.2 M 333.7 461.8 C 333.8 461.0 334.8 462.9 333.5 461.8 M 305.2 442.5 C 304.8 442.9 304.8 441.7 305.2 442.5 M 317.1 456.2 C 316.7 456.7 316.5 455.4 317.1 456.2 M 320.1 455.4 C 320.2 454.6 320.9 456.5 319.9 455.4 M 330.3 460.3 C 330.4 460.4 330.4 460.4 330.3 460.3 C 330.3 460.3 330.3 460.3 330.3 460.3 Z M 317.1 449.0 C 317.1 449.1 317.1 449.1 317.1 449.0 C 317.1 449.0 317.1 449.0 317.1 449.0 Z M 321.6 453.2 C 321.4 451.8 322.3 454.3 321.6 453.2 M 314.7 450.1 C 314.4 448.3 316.1 451.3 314.7 450.1 M 336.3 463.2 C 335.5 461.0 337.0 464.5 336.3 463.2 M 331.1 456.4 C 330.5 454.3 331.7 457.7 331.1 456.4 M 317.8 450.2 C 318.1 449.4 318.7 451.2 317.8 450.2 M 307.4 443.6 C 306.6 443.0 309.0 443.7 307.4 443.6 M 327.0 459.0 C 327.1 459.1 327.1 459.1 327.0 459.0 C 327.0 459.0 327.0 459.0 327.0 459.0 Z M 307.2 451.1 C 307.2 451.2 307.2 451.2 307.2 451.1 C 307.2 451.1 307.2 451.1 307.2 451.1 Z M 340.1 458.6 C 340.2 458.7 340.2 458.7 340.1 458.6 C 340.1 458.6 340.1 458.6 340.1 458.6 Z M 330.0 456.8 C 330.0 457.0 330.0 457.0 330.0 456.8 C 330.0 456.8 330.0 456.8 330.0 456.8 Z M 337.6 457.4 C 337.6 457.5 337.6 457.5 337.6 457.4 C 337.6 457.4 337.6 457.4 337.6 457.4 Z M 325.4 456.3 C 325.4 456.4 325.4 456.4 325.4 456.3 C 325.4 456.3 325.4 456.3 325.4 456.3 Z M 326.4 451.9 C 326.4 452.0 326.4 452.0 326.4 451.9 C 326.4 451.9 326.4 451.9 326.4 451.9 Z M 321.4 451.8 C 321.4 451.8 321.4 451.8 321.4 451.8 C 321.4 451.8 321.4 451.8 321.4 451.8 Z M 328.2 453.1 C 330.9 454.0 326.3 453.9 328.2 453.1 C 328.2 453.1 328.2 453.1 328.2 453.1 Z M 322.0 455.2 C 322.0 455.2 322.0 455.2 322.0 455.2 C 322.0 455.2 322.0 455.2 322.0 455.2 Z M 322.9 452.2 C 325.0 451.8 322.9 454.5 322.9 452.2 M 316.7 448.1 C 317.5 447.7 316.5 449.1 316.7 448.1 M 311.6 451.9 C 311.5 452.0 311.5 452.0 311.6 451.9 C 311.6 451.9 311.6 451.9 311.6 451.9 Z M 312.5 451.9 C 312.5 451.9 312.5 451.9 312.5 451.9 C 312.5 451.9 312.5 451.9 312.5 451.9 Z M 315.3 447.1 C 315.3 447.1 315.3 447.1 315.3 447.1 C 315.3 447.1 315.3 447.1 315.3 447.1 Z M 311.8 453.4 C 311.8 453.5 311.8 453.5 311.8 453.4 C 311.8 453.4 311.8 453.4 311.8 453.4 Z M 325.4 451.6 C 325.4 451.7 325.4 451.7 325.4 451.6 C 325.4 451.6 325.4 451.6 325.4 451.6 Z M 339.2 457.3 C 339.2 457.4 339.2 457.4 339.2 457.3 C 339.2 457.3 339.2 457.3 339.2 457.3 Z M 305.3 447.8 C 305.4 447.9 305.4 447.9 305.3 447.8 C 305.3 447.8 305.3 447.8 305.3 447.8 Z M 326.0 453.8 C 326.1 453.9 326.1 453.9 326.0 453.8 C 326.0 453.8 326.0 453.8 326.0 453.8 Z M 310.1 450.8 C 310.1 450.9 310.1 450.9 310.1 450.8 C 310.1 450.8 310.1 450.8 310.1 450.8 Z M 325.3 453.1 C 325.4 453.1 325.4 453.1 325.3 453.1 C 325.3 453.1 325.3 453.1 325.3 453.1 Z M 326.4 459.2 C 326.5 459.2 326.5 459.2 326.4 459.2 C 326.4 459.2 326.4 459.2 326.4 459.2 Z M 329.0 461.4 C 329.1 461.4 329.1 461.4 329.0 461.4 C 329.0 461.4 329.0 461.4 329.0 461.4 Z M 327.4 456.3 C 327.5 456.3 327.5 456.3 327.4 456.3 C 327.4 456.3 327.4 456.3 327.4 456.3 Z M 310.2 448.7 C 306.6 445.1 314.0 450.0 310.2 448.7 M 328.2 457.0 C 324.6 455.1 331.9 456.7 328.2 457.0 C 328.8 456.7 328.3 457.0 328.2 457.0 M 341.8 458.5 C 339.6 459.4 339.0 460.8 339.1 462.7 C 339.6 463.8 340.8 460.7 339.8 463.3 C 337.7 463.0 339.2 467.5 340.4 464.1 C 343.1 464.6 340.0 466.4 342.1 465.7 C 344.9 466.4 343.1 466.9 345.4 467.4 C 347.3 466.1 346.3 468.8 347.5 467.2 C 345.7 468.7 350.0 467.6 349.7 468.4 C 347.3 468.9 357.3 471.1 352.3 468.8 C 354.7 468.6 353.7 470.0 354.4 470.5 C 355.7 469.7 357.6 472.6 359.3 472.0 C 359.1 471.6 358.5 471.3 358.4 470.9 C 358.3 470.1 359.9 471.6 359.7 471.5 C 360.7 471.3 364.6 471.4 360.2 472.1 C 359.7 472.9 363.4 472.7 363.0 473.5 C 366.2 474.6 364.4 471.9 365.4 473.8 C 367.7 474.6 369.4 475.1 369.4 474.9 C 370.8 475.6 370.7 476.7 372.3 476.1 C 374.5 479.0 375.5 472.9 375.4 477.1 C 376.5 476.5 376.5 479.3 377.1 476.8 C 375.8 477.6 381.4 480.2 379.4 477.7 C 380.3 477.3 383.0 481.5 383.2 478.9 C 385.1 477.5 385.4 475.6 383.1 473.0 C 382.9 474.5 380.5 470.6 381.9 473.7 C 384.1 475.2 377.2 473.1 378.9 472.7 C 380.1 470.0 375.0 473.5 374.2 470.9 C 375.0 472.5 369.2 471.2 371.5 469.6 C 370.5 469.1 369.9 470.0 369.2 468.4 C 372.5 469.7 367.2 470.2 367.8 469.0 C 368.7 468.4 363.9 466.1 364.0 467.5 C 364.7 471.0 362.9 466.4 361.7 467.3 C 358.7 467.0 362.9 464.9 360.2 466.4 C 359.8 465.8 356.1 464.6 358.6 464.8 C 359.4 465.4 355.4 467.2 355.9 464.6 C 360.2 464.5 351.7 462.3 352.8 463.5 C 358.1 466.9 346.0 462.8 351.1 463.1 C 349.0 460.8 352.0 462.9 348.6 462.3 C 348.8 463.2 346.0 463.1 347.2 461.7 C 347.5 459.1 345.1 464.5 344.4 460.6 C 344.6 459.1 340.2 460.2 342.2 459.1 C 342.3 459.0 341.9 458.5 341.8 458.5 M 342.8 459.2 C 342.2 459.6 342.4 458.3 342.8 459.2 M 342.2 459.5 C 342.2 459.5 342.2 459.5 342.2 459.5 C 342.2 459.5 342.2 459.5 342.2 459.5 Z M 348.1 462.2 C 348.1 462.1 348.1 462.1 348.1 462.2 C 348.1 462.2 348.1 462.2 348.1 462.2 Z M 350.9 469.9 C 350.9 469.8 350.9 469.8 350.9 469.9 C 350.9 469.9 350.9 469.9 350.9 469.9 Z M 352.2 463.8 C 352.2 463.8 352.2 463.8 352.2 463.8 C 352.2 463.8 352.2 463.8 352.2 463.8 Z M 345.8 461.8 C 345.7 461.7 345.7 461.7 345.8 461.8 C 345.8 461.8 345.8 461.8 345.8 461.8 Z M 352.1 462.8 C 352.1 463.8 350.9 461.6 352.3 462.7 C 352.3 462.8 352.0 462.7 352.1 462.8 M 357.7 464.4 C 357.7 464.5 357.7 464.5 357.7 464.4 M 367.7 475.6 C 367.7 475.7 367.7 475.7 367.7 475.6 M 371.0 468.8 C 371.1 468.9 371.1 468.9 371.0 468.8 M 362.9 467.2 C 364.7 467.6 363.2 467.8 362.9 467.2 M 375.4 470.7 C 373.4 469.5 377.9 471.0 375.4 470.7 M 377.7 470.9 C 377.8 471.0 377.8 471.0 377.7 470.9 M 367.8 468.1 C 367.7 468.1 367.7 468.1 367.8 468.1 C 367.8 468.1 367.8 468.1 367.8 468.1 Z M 362.3 466.6 C 360.3 465.3 364.9 466.5 362.3 466.6 M 349.2 461.6 C 350.5 461.6 348.7 462.7 349.2 461.6 M 346.5 461.2 C 346.5 461.2 346.5 461.2 346.5 461.2 C 346.5 461.2 346.5 461.2 346.5 461.2 Z M 371.9 469.6 C 371.9 469.6 371.9 469.6 371.9 469.6 C 371.9 469.6 371.9 469.6 371.9 469.6 Z M 374.5 470.2 C 374.4 470.2 374.4 470.2 374.5 470.2 C 374.5 470.2 374.5 470.2 374.5 470.2 Z M 376.6 478.2 C 376.5 478.2 376.5 478.2 376.6 478.2 C 376.6 478.2 376.6 478.2 376.6 478.2 Z M 347.3 464.6 C 345.9 463.5 349.8 463.0 348.9 464.5 C 348.8 465.3 347.6 464.5 347.3 464.6 M 360.0 468.0 C 359.7 470.4 359.4 464.4 360.0 468.0 M 377.5 472.5 C 378.3 475.7 376.0 469.9 377.5 472.5 M 381.1 473.1 C 381.9 473.9 374.6 471.4 380.0 472.3 C 380.6 472.0 380.8 472.7 381.1 473.1 M 357.4 465.5 C 357.5 466.9 355.0 464.0 357.4 465.5 M 366.4 472.7 C 367.5 472.2 369.9 472.2 368.5 473.2 C 367.9 475.0 365.2 473.0 366.4 472.7 M 342.8 460.6 C 344.8 459.2 342.1 462.3 342.8 460.6 M 348.9 463.1 C 349.0 463.0 349.0 463.0 348.9 463.1 C 348.9 463.1 348.9 463.1 348.9 463.1 Z M 351.5 463.7 C 351.6 463.9 351.6 463.9 351.5 463.7 M 344.4 459.3 C 344.5 459.5 344.5 459.5 344.4 459.3 M 367.1 470.6 C 367.1 470.8 367.1 470.8 367.1 470.6 M 362.3 467.5 C 364.1 470.3 360.8 467.5 362.3 467.5 M 354.9 469.2 C 355.3 470.4 353.3 468.7 354.9 469.2 M 366.6 468.2 C 367.8 470.6 363.6 469.1 366.6 468.2 M 361.1 466.9 C 361.2 467.0 361.2 467.0 361.1 466.9 C 361.1 466.9 361.1 466.9 361.1 466.9 Z M 367.0 473.1 C 367.0 473.1 367.0 473.1 367.0 473.1 C 367.0 473.1 367.0 473.1 367.0 473.1 Z M 367.8 473.3 C 367.7 473.3 367.7 473.3 367.8 473.3 C 367.8 473.3 367.8 473.3 367.8 473.3 Z M 368.9 468.7 C 368.8 468.7 368.8 468.7 368.9 468.7 C 368.9 468.7 368.9 468.7 368.9 468.7 Z M 344.5 466.2 C 346.2 467.0 343.0 466.0 344.5 466.2 C 344.5 466.2 344.5 466.2 344.5 466.2 Z M 354.1 463.5 C 356.4 466.0 351.6 464.2 354.1 463.5 C 354.1 463.5 354.1 463.5 354.1 463.5 Z M 356.5 467.1 C 356.5 467.2 356.5 467.2 356.5 467.1 C 356.5 467.1 356.5 467.1 356.5 467.1 Z M 365.9 466.6 C 365.8 466.7 365.8 466.7 365.9 466.6 C 365.9 466.6 365.9 466.6 365.9 466.6 Z M 345.3 466.8 C 345.2 466.9 345.2 466.9 345.3 466.8 C 345.3 466.8 345.3 466.8 345.3 466.8 Z M 373.6 471.3 C 373.6 471.4 373.6 471.4 373.6 471.3 C 373.6 471.3 373.6 471.3 373.6 471.3 Z M 362.1 471.8 C 363.0 471.3 362.0 472.4 362.1 471.8 C 362.1 471.8 362.1 471.8 362.1 471.8 Z M 364.8 472.7 C 364.8 472.7 364.8 472.7 364.8 472.7 C 364.8 472.7 364.8 472.7 364.8 472.7 Z M 378.4 470.9 C 378.5 470.9 378.5 470.9 378.4 470.9 C 378.4 470.9 378.4 470.9 378.4 470.9 Z M 371.0 476.7 C 371.1 476.7 371.1 476.7 371.0 476.7 C 371.0 476.7 371.0 476.7 371.0 476.7 Z M 374.0 475.2 C 373.9 475.2 373.9 475.2 374.0 475.2 C 374.0 475.2 374.0 475.2 374.0 475.2 Z M 368.2 469.0 C 371.0 469.5 367.4 469.6 368.2 469.0 C 368.2 469.0 368.2 469.0 368.2 469.0 Z M 380.8 476.7 C 380.8 476.8 380.8 476.8 380.8 476.7 C 380.8 476.7 380.8 476.7 380.8 476.7 Z M 383.0 474.5 C 383.0 474.7 383.0 474.7 383.0 474.5 C 383.0 474.5 383.0 474.5 383.0 474.5 Z M 384.1 473.4 C 384.1 473.5 384.1 473.5 384.1 473.4 C 384.1 473.4 384.1 473.4 384.1 473.4 Z M 350.5 466.4 C 350.5 466.3 350.5 466.3 350.5 466.4 C 350.5 466.4 350.5 466.4 350.5 466.4 Z M 351.0 461.9 C 351.0 461.9 351.0 461.9 351.0 461.9 C 351.0 461.9 351.0 461.9 351.0 461.9 Z M 354.5 463.0 C 354.5 462.9 354.5 462.9 354.5 463.0 C 354.5 463.0 354.5 463.0 354.5 463.0 Z M 349.0 468.7 C 349.0 468.6 349.0 468.6 349.0 468.7 C 349.0 468.7 349.0 468.7 349.0 468.7 Z M 363.6 469.8 C 363.5 469.7 363.5 469.7 363.6 469.8 C 363.6 469.8 363.6 469.8 363.6 469.8 Z M 364.3 471.9 C 364.2 471.8 364.2 471.8 364.3 471.9 C 364.3 471.9 364.3 471.9 364.3 471.9 Z M 360.4 473.1 C 360.4 473.0 360.4 473.0 360.4 473.1 C 360.4 473.1 360.4 473.1 360.4 473.1 Z M 364.8 473.7 C 364.8 473.6 364.8 473.6 364.8 473.7 C 364.8 473.7 364.8 473.7 364.8 473.7 Z M 340.6 464.7 C 340.6 464.7 340.6 464.7 340.6 464.7 C 340.6 464.7 340.6 464.7 340.6 464.7 Z M 341.5 461.4 C 341.4 461.5 341.4 461.5 341.5 461.4 C 341.5 461.4 341.5 461.4 341.5 461.4 Z M 364.8 467.6 C 365.6 467.1 365.7 468.9 364.8 467.6 M 359.5 466.3 C 359.5 466.3 359.5 466.3 359.5 466.3 C 359.5 466.3 359.5 466.3 359.5 466.3 Z M 373.4 470.6 C 373.6 472.0 371.2 469.1 373.4 470.6 C 373.4 470.6 373.4 470.6 373.4 470.6 Z M 368.9 475.0 C 369.0 475.1 369.0 475.1 368.9 475.0 C 368.9 475.0 368.9 475.0 368.9 475.0 Z M 370.5 474.9 C 370.5 475.1 370.5 475.1 370.5 474.9 C 370.5 474.9 370.5 474.9 370.5 474.9 Z M 379.0 473.8 C 379.1 474.0 379.1 474.0 379.0 473.8 M 359.2 464.9 C 359.8 465.8 359.7 465.6 359.2 464.9 M 375.1 471.2 C 375.0 471.2 375.0 471.2 375.1 471.2 C 375.1 471.2 375.1 471.2 375.1 471.2 Z M 380.9 473.7 C 380.8 473.7 380.8 473.7 380.9 473.7 C 380.9 473.7 380.9 473.7 380.9 473.7 Z M 355.4 464.5 C 355.0 466.1 354.4 465.5 355.4 464.5 M 345.3 461.5 C 345.3 461.6 345.3 461.6 345.3 461.5 C 345.3 461.5 345.3 461.5 345.3 461.5 Z M 389.4 475.0 C 387.2 472.5 386.4 474.9 386.4 475.0 C 387.7 471.8 383.5 475.5 383.9 476.3 C 383.6 476.7 384.1 483.0 387.1 480.2 C 387.8 479.9 387.8 481.0 388.1 481.2 C 391.6 482.1 386.3 478.7 390.5 480.0 C 391.1 480.7 389.4 483.1 392.4 482.0 C 392.4 482.3 394.9 484.1 394.2 482.5 C 395.1 484.2 396.4 482.9 397.7 482.9 C 398.6 484.0 396.3 484.7 400.6 484.3 C 401.6 487.0 403.3 483.3 404.1 486.1 C 405.0 486.5 407.6 482.8 404.7 484.5 C 405.1 484.3 404.3 482.0 407.1 483.5 C 406.5 483.9 403.8 487.6 408.9 487.0 C 409.7 487.3 411.7 486.7 412.0 487.3 C 409.5 487.1 414.7 489.9 414.5 488.6 C 417.8 490.4 416.3 488.0 418.4 490.0 C 420.5 490.6 418.3 488.0 420.5 489.8 C 422.5 490.1 420.9 490.7 420.7 490.6 C 422.3 491.3 423.1 490.7 423.6 490.9 C 423.9 491.2 424.4 492.2 425.1 491.3 C 427.3 489.8 426.2 487.5 427.5 485.9 C 426.5 484.6 426.6 487.2 426.1 485.5 C 425.2 486.5 426.1 485.4 422.6 484.7 C 422.6 485.1 423.2 486.1 422.3 486.0 C 421.0 485.5 422.8 482.6 420.0 484.2 C 422.5 485.6 415.9 484.2 418.2 485.6 C 415.0 485.1 417.4 485.1 415.3 483.7 C 414.9 485.8 415.8 481.3 414.4 482.8 C 414.5 481.8 410.7 481.2 413.0 483.3 C 409.0 482.8 411.7 482.2 410.7 480.7 C 408.9 480.1 409.6 484.1 409.2 481.2 C 407.2 479.3 408.7 482.5 407.6 479.9 C 407.8 482.0 405.8 479.4 405.9 481.6 C 401.8 480.6 407.0 479.6 403.8 480.2 C 404.6 480.5 405.1 477.8 402.8 479.0 C 402.6 482.3 401.3 475.5 401.3 480.1 C 395.2 479.6 400.9 478.1 397.7 477.1 C 396.8 476.9 398.2 478.8 397.4 478.6 C 393.4 476.8 397.2 476.7 394.4 478.1 C 390.1 477.4 393.8 476.0 391.8 475.2 C 391.3 476.2 389.1 477.3 389.4 475.0 M 392.8 477.1 C 393.9 476.7 393.2 478.0 392.8 477.1 M 384.7 473.6 C 385.8 473.3 385.1 474.5 384.7 473.6 M 396.4 477.5 C 397.7 477.2 396.4 478.7 396.4 477.5 M 417.4 484.5 C 416.0 484.1 418.1 484.2 417.4 484.5 M 388.1 474.5 C 389.6 474.1 388.1 475.7 388.1 474.5 M 386.1 475.7 C 386.2 475.7 386.2 475.7 386.1 475.7 M 419.8 483.4 C 419.8 483.4 419.8 483.4 419.8 483.4 M 414.4 481.9 C 415.5 482.2 413.6 482.1 414.4 481.9 M 412.3 488.7 C 413.5 489.1 411.5 489.0 412.3 488.7 M 422.7 484.0 C 423.9 483.8 422.8 484.9 422.7 484.0 M 425.1 486.3 C 426.2 486.0 425.6 487.2 425.1 486.3 M 391.4 479.3 C 391.3 479.4 391.3 479.4 391.4 479.3 C 391.4 479.3 391.4 479.3 391.4 479.3 Z M 401.7 484.2 C 400.7 483.1 403.0 485.5 401.7 484.2 M 401.0 479.1 C 401.5 480.8 399.4 478.5 401.0 479.1 C 401.0 479.1 401.0 479.1 401.0 479.1 Z M 399.0 479.2 C 398.9 479.3 398.9 479.3 399.0 479.2 C 399.0 479.2 399.0 479.2 399.0 479.2 Z M 405.0 481.0 C 404.9 481.0 404.9 481.0 405.0 481.0 C 405.0 481.0 405.0 481.0 405.0 481.0 Z M 403.7 480.8 C 403.2 480.9 403.1 480.3 403.7 480.8 C 403.7 480.8 403.7 480.8 403.7 480.8 Z M 411.0 487.6 C 410.5 487.8 410.5 487.2 411.0 487.6 C 411.0 487.6 411.0 487.6 411.0 487.6 Z M 401.7 480.7 C 401.1 482.1 401.1 479.5 401.7 480.7 C 401.7 480.7 401.7 480.7 401.7 480.7 Z M 407.2 485.9 C 407.8 485.6 407.9 487.5 407.2 485.9 M 420.8 483.9 C 421.4 483.7 421.5 485.5 420.8 483.9 M 409.0 480.2 C 409.6 480.0 409.7 481.9 409.0 480.2 M 393.7 476.7 C 393.8 476.9 393.8 476.9 393.7 476.7 M 399.2 484.9 C 400.1 484.6 399.4 485.6 399.2 484.9 M 386.9 480.8 C 388.0 480.5 387.2 481.6 386.9 480.8 M 417.4 490.0 C 417.5 489.6 418.6 490.5 417.4 490.0 M 409.8 482.9 C 410.8 483.3 411.7 484.4 409.5 483.7 C 409.4 483.3 410.2 483.3 409.8 482.9 C 409.8 482.9 409.8 482.9 409.8 482.9 Z M 412.7 487.1 C 412.9 487.3 412.9 487.3 412.7 487.1 M 412.0 482.1 C 412.2 482.3 412.2 482.3 412.0 482.1 M 418.1 483.9 C 418.2 484.2 418.2 484.2 418.1 483.9 M 419.0 483.7 C 419.0 483.8 419.0 483.8 419.0 483.7 C 419.0 483.7 419.0 483.7 419.0 483.7 Z M 425.5 484.9 C 425.5 484.9 425.5 484.9 425.5 484.9 C 425.5 484.9 425.5 484.9 425.5 484.9 Z M 416.2 483.6 C 416.1 483.6 416.1 483.6 416.2 483.6 C 416.2 483.6 416.2 483.6 416.2 483.6 Z M 420.1 490.4 C 420.1 490.5 420.1 490.5 420.1 490.4 C 420.1 490.4 420.1 490.4 420.1 490.4 Z M 419.7 489.4 C 419.7 489.4 419.7 489.4 419.7 489.4 C 419.7 489.4 419.7 489.4 419.7 489.4 Z M 390.0 475.2 C 391.3 474.5 389.8 477.8 390.0 475.2 M 422.5 490.2 C 423.1 491.3 421.0 490.0 422.5 490.2 C 422.5 490.2 422.5 490.2 422.5 490.2 Z M 415.1 484.6 C 415.1 484.8 415.1 484.8 415.1 484.6 M 419.3 484.0 C 419.4 484.2 419.4 484.2 419.3 484.0 M 401.4 477.8 C 401.4 478.0 401.4 478.0 401.4 477.8 M 423.8 485.4 C 426.4 486.5 422.0 487.1 423.8 485.4 M 399.6 478.7 C 399.5 478.6 399.5 478.6 399.6 478.7 M 405.7 483.3 C 407.7 483.8 404.7 483.9 405.7 483.3 M 411.2 482.9 C 411.1 483.0 411.1 483.0 411.2 482.9 C 411.2 482.9 411.2 482.9 411.2 482.9 Z M 408.3 482.1 C 406.8 481.9 408.0 481.6 408.3 482.1 C 408.3 482.1 408.3 482.1 408.3 482.1 Z M 391.1 476.9 C 393.0 477.7 388.9 476.8 391.1 476.9 C 391.1 476.9 391.1 476.9 391.1 476.9 Z M 421.7 488.4 C 421.6 488.5 421.6 488.5 421.7 488.4 C 421.7 488.4 421.7 488.4 421.7 488.4 Z M 416.1 482.5 C 415.2 482.6 415.8 482.0 416.1 482.5 C 416.1 482.5 416.1 482.5 416.1 482.5 Z M 426.5 485.1 C 425.6 485.3 426.2 484.6 426.5 485.1 C 426.5 485.1 426.5 485.1 426.5 485.1 Z M 388.8 476.0 C 395.4 480.5 379.2 472.4 388.8 476.0 C 388.8 476.0 388.8 476.0 388.8 476.0 Z M 409.7 481.5 C 409.7 481.6 409.7 481.6 409.7 481.5 C 409.7 481.5 409.7 481.5 409.7 481.5 Z M 397.1 476.8 C 397.0 476.9 397.0 476.9 397.1 476.8 C 397.1 476.8 397.1 476.8 397.1 476.8 Z M 394.4 477.5 C 394.4 477.5 394.4 477.5 394.4 477.5 C 394.4 477.5 394.4 477.5 394.4 477.5 Z M 393.4 483.1 C 393.4 483.2 393.4 483.2 393.4 483.1 C 393.4 483.1 393.4 483.1 393.4 483.1 Z M 395.0 480.8 C 394.8 481.0 394.8 481.0 395.0 480.8 C 395.0 480.8 395.0 480.8 395.0 480.8 Z M 390.0 480.4 C 389.9 480.5 389.9 480.5 390.0 480.4 C 390.0 480.4 390.0 480.4 390.0 480.4 Z M 389.9 481.1 C 389.8 481.2 389.8 481.2 389.9 481.1 C 389.9 481.1 389.9 481.1 389.9 481.1 Z M 418.9 485.5 C 418.8 485.6 418.8 485.6 418.9 485.5 C 418.9 485.5 418.9 485.5 418.9 485.5 Z M 416.1 487.2 C 417.8 486.8 415.3 488.2 416.1 487.2 C 416.1 487.2 416.1 487.2 416.1 487.2 Z M 402.3 482.1 C 403.9 482.3 401.1 482.6 402.3 482.1 C 402.3 482.1 402.3 482.1 402.3 482.1 Z M 403.0 485.6 C 403.1 485.6 403.1 485.6 403.0 485.6 C 403.0 485.6 403.0 485.6 403.0 485.6 Z M 394.8 476.1 C 394.7 476.3 394.7 476.3 394.8 476.1 C 394.8 476.1 394.8 476.1 394.8 476.1 Z M 391.7 476.2 C 391.2 477.3 391.0 475.4 391.7 476.2 M 406.0 479.7 C 406.0 479.8 406.0 479.8 406.0 479.7 C 406.0 479.7 406.0 479.7 406.0 479.7 Z M 414.0 483.8 C 414.0 483.9 414.0 483.9 414.0 483.8 C 414.0 483.8 414.0 483.8 414.0 483.8 Z M 422.3 485.3 C 422.2 485.4 422.2 485.4 422.3 485.3 C 422.3 485.3 422.3 485.3 422.3 485.3 Z M 411.3 481.3 C 411.2 481.4 411.2 481.4 411.3 481.3 C 411.3 481.3 411.3 481.3 411.3 481.3 Z M 407.0 481.2 C 406.9 481.4 406.9 481.4 407.0 481.2 C 407.0 481.2 407.0 481.2 407.0 481.2 Z M 423.6 487.4 C 423.5 487.4 423.5 487.4 423.6 487.4 C 423.6 487.4 423.6 487.4 423.6 487.4 Z M 412.3 481.4 C 412.3 481.4 412.3 481.4 412.3 481.4 C 412.3 481.4 412.3 481.4 412.3 481.4 Z M 413.7 485.7 C 413.6 485.8 413.6 485.8 413.7 485.7 C 413.7 485.7 413.7 485.7 413.7 485.7 Z M 392.6 474.7 C 392.5 474.8 392.5 474.8 392.6 474.7 C 392.6 474.7 392.6 474.7 392.6 474.7 Z M 424.1 485.9 C 424.0 485.9 424.0 485.9 424.1 485.9 C 424.1 485.9 424.1 485.9 424.1 485.9 Z M 424.8 485.0 C 424.8 485.0 424.8 485.0 424.8 485.0 C 424.8 485.0 424.8 485.0 424.8 485.0 Z M 417.8 489.0 C 415.1 487.5 420.4 489.4 418.6 487.6 C 422.8 488.4 418.4 489.2 417.8 489.0 C 417.8 489.0 417.8 489.0 417.8 489.0 Z M 417.8 489.0 " fill="#C82505"></path><path d="M 431.8 507.9 C 431.4 508.6 429.3 508.8 431.0 507.8 C 431.1 507.8 431.9 507.7 431.8 507.9 Z M 435.2 506.9 C 435.0 507.0 434.8 507.0 434.5 506.9 C 434.0 506.4 436.1 506.6 435.2 506.9 Z M 430.0 507.7 C 429.9 507.9 428.8 508.2 428.9 507.9 C 429.1 507.7 430.0 507.7 430.0 507.7 Z M 438.0 504.6 C 438.0 504.9 436.8 505.2 436.6 505.2 C 435.9 504.9 437.8 504.0 438.0 504.6 Z M 430.9 497.5 C 430.9 497.4 430.9 497.3 430.9 497.2 C 431.0 497.3 430.9 497.4 430.9 497.5 Z M 454.3 500.4 C 454.1 500.5 453.6 500.3 453.6 500.1 C 453.7 499.7 454.9 500.1 454.3 500.4 Z M 435.2 477.4 C 435.2 477.4 434.9 477.8 434.8 477.5 C 434.6 477.3 435.0 477.2 435.2 477.4 Z M 434.8 477.3 C 434.6 477.3 434.6 476.9 434.8 477.0 C 435.0 477.2 435.1 477.3 434.8 477.3 Z M 450.0 485.5 C 450.1 485.6 450.2 485.6 450.0 485.6 C 449.8 485.6 449.7 485.3 450.0 485.5 Z M 449.3 485.4 C 449.0 485.5 449.1 484.9 449.3 485.1 C 449.5 485.2 449.6 485.3 449.3 485.4 Z M 447.9 481.7 C 448.0 481.8 448.1 481.8 447.9 481.8 C 447.8 481.9 447.7 481.6 447.9 481.7 Z M 432.4 485.4 C 432.3 485.2 432.6 484.6 432.8 484.7 C 433.1 484.9 432.5 485.7 432.4 485.4 Z M 432.4 484.5 C 432.2 484.5 432.2 484.1 432.4 484.3 C 432.5 484.4 432.6 484.5 432.4 484.5 Z M 432.3 487.2 C 432.6 487.2 432.4 488.0 432.3 488.1 C 432.2 488.3 432.0 488.5 431.9 488.7 C 431.8 488.8 431.8 487.1 432.3 487.2 Z M 431.3 492.6 C 431.2 492.6 431.1 492.5 431.3 492.3 C 431.5 492.1 431.4 492.6 431.3 492.6 Z M 431.8 489.5 C 431.7 489.5 431.6 489.4 431.8 489.2 C 432.0 489.0 432.0 489.6 431.8 489.5 Z M 444.7 503.3 C 444.8 503.5 443.9 503.6 443.8 503.6 C 443.7 503.5 444.1 503.4 443.9 503.4 C 443.6 503.4 443.9 502.6 444.7 503.3 Z M 437.1 506.2 C 436.9 506.2 436.9 506.2 436.9 506.0 C 436.9 505.9 437.6 505.9 437.1 506.2 Z M 443.2 502.6 C 443.2 502.8 443.0 502.8 443.0 502.7 C 443.0 502.6 443.2 502.5 443.2 502.6 Z M 443.8 502.3 C 443.6 502.4 443.1 502.2 443.1 502.0 C 443.1 501.6 444.4 502.0 443.8 502.3 Z M 445.8 503.3 C 445.6 503.4 445.6 503.4 445.7 503.3 C 445.8 503.1 445.8 503.3 445.8 503.3 Z M 441.5 505.1 C 441.2 505.2 441.2 505.2 441.4 505.0 C 441.5 504.9 441.5 505.1 441.5 505.1 Z M 447.8 502.2 C 447.8 502.2 447.3 502.7 447.0 502.2 C 446.6 501.6 447.7 502.1 447.8 502.2 Z M 450.7 500.5 C 450.4 500.6 450.5 500.3 450.7 500.3 C 450.9 500.4 450.9 500.5 450.7 500.5 Z M 451.5 499.1 C 451.9 499.2 452.2 499.3 451.7 499.4 C 451.1 499.5 451.1 499.1 451.5 499.1 Z M 451.0 499.5 C 450.9 499.5 451.1 499.4 451.2 499.5 C 451.2 499.6 451.0 499.6 451.0 499.5 Z M 448.6 501.1 C 448.3 501.4 447.9 501.1 448.3 500.9 C 448.7 500.7 448.8 500.9 448.6 501.1 Z M 428.9 499.9 C 428.9 500.1 428.6 500.0 428.5 499.8 C 428.4 499.7 428.8 499.7 428.9 499.9 Z M 432.9 488.7 C 432.7 488.8 432.7 488.6 432.8 488.4 C 433.0 488.1 433.1 488.6 432.9 488.7 Z M 435.3 481.5 C 435.0 481.6 435.0 481.5 435.2 481.2 C 435.4 480.9 435.5 481.4 435.3 481.5 Z M 432.2 491.6 C 432.0 491.7 431.7 490.8 432.3 490.5 C 432.9 490.2 432.7 491.5 432.2 491.6 Z M 436.2 500.2 C 436.3 500.4 436.1 500.2 436.1 500.2 C 436.2 500.0 436.2 500.0 436.2 500.2 Z M 433.4 490.2 C 433.5 490.4 433.2 490.2 433.1 490.1 C 433.0 489.9 433.4 489.9 433.4 490.2 Z M 434.5 482.7 C 434.3 483.0 433.9 482.7 433.8 482.5 C 433.4 481.8 434.1 481.5 434.5 481.1 C 434.9 480.9 434.6 482.6 434.5 482.7 Z M 429.5 501.9 C 429.7 501.8 429.7 501.6 429.8 501.5 C 429.7 501.4 429.7 501.3 429.9 501.1 C 430.0 500.4 429.4 499.8 429.4 499.3 C 429.2 498.1 430.7 498.1 430.9 497.5 C 430.9 497.6 430.8 497.8 431.0 497.9 C 431.3 498.3 431.7 495.7 431.7 495.6 C 431.9 493.3 430.9 495.8 430.2 495.6 C 429.9 495.6 431.1 494.3 431.1 494.2 C 431.6 493.6 430.9 493.3 431.4 492.8 C 431.6 492.6 433.4 492.1 433.2 491.8 C 433.1 491.6 433.5 490.9 433.5 490.7 C 433.6 490.3 433.7 489.5 433.0 489.8 C 432.5 490.0 432.1 490.0 432.6 489.5 C 433.0 489.2 434.7 486.9 433.4 486.7 C 433.3 486.7 432.8 487.1 432.8 487.2 C 432.7 486.4 433.6 484.3 433.3 483.7 C 432.4 482.3 433.8 484.2 434.3 483.7 C 435.1 482.9 435.6 482.4 435.7 481.1 C 435.7 480.8 436.0 479.7 435.2 480.1 C 434.6 480.3 434.4 480.0 434.1 480.7 C 433.7 479.7 435.0 479.4 434.8 479.2 C 434.5 478.9 434.2 479.3 434.4 478.8 C 434.7 478.1 434.4 478.3 435.0 478.3 C 435.2 478.3 435.5 477.7 435.5 477.7 C 435.6 477.8 435.6 477.8 435.7 477.8 C 435.8 477.2 434.8 476.0 435.2 475.9 C 435.4 475.8 436.1 476.3 436.3 476.4 C 436.4 476.3 436.4 476.3 436.4 476.2 C 436.4 475.9 436.1 475.2 436.2 475.2 C 436.4 475.1 437.3 475.8 437.1 475.5 C 436.8 475.1 437.5 473.9 437.9 473.9 C 438.2 473.9 439.8 473.9 439.9 473.7 C 440.1 473.5 440.6 474.2 440.8 474.3 C 441.1 474.4 441.1 475.1 441.1 475.2 C 441.1 475.3 441.6 475.7 441.6 475.7 C 441.6 475.7 441.9 475.8 442.3 476.1 C 442.7 476.4 442.7 476.9 443.1 477.5 C 443.4 478.1 443.9 478.0 444.3 478.4 C 444.8 478.7 444.5 479.8 444.8 480.2 C 445.1 480.7 445.6 480.1 446.1 480.5 C 446.6 480.9 446.7 481.3 446.5 481.3 C 446.3 481.2 446.3 481.5 446.4 481.6 C 446.5 481.8 446.9 482.5 447.2 482.6 C 447.5 482.7 446.6 480.8 448.2 482.6 C 449.1 483.5 449.1 484.7 448.9 484.5 C 448.2 483.9 448.7 486.0 449.0 485.8 C 449.3 485.5 450.7 487.0 450.8 486.2 C 450.8 485.9 452.5 487.2 452.6 487.5 C 452.7 487.8 453.5 488.4 453.3 489.0 C 453.1 489.3 454.6 489.5 454.8 489.7 C 454.9 489.9 456.0 491.1 456.2 491.5 C 456.3 491.9 455.7 491.3 455.5 491.1 C 455.2 490.8 455.1 490.2 454.8 490.0 C 454.5 489.9 454.8 490.6 455.0 490.9 C 455.3 491.2 455.1 491.5 455.3 491.8 C 455.5 491.9 455.6 492.1 455.8 492.4 C 456.0 492.5 456.1 492.5 456.2 492.4 C 456.3 492.3 456.3 492.0 456.4 492.0 C 456.5 491.9 456.8 492.0 457.1 492.4 C 457.5 492.7 457.8 493.1 458.1 493.7 C 458.4 494.3 458.7 494.3 459.1 494.5 C 459.4 494.8 459.7 495.2 459.6 495.3 C 459.5 495.4 459.0 495.1 458.9 495.1 C 458.8 495.2 459.0 495.9 459.1 496.1 C 459.9 497.0 458.5 497.1 459.2 498.1 C 459.7 498.6 458.9 498.4 458.3 498.4 C 458.3 498.5 458.3 498.6 457.8 498.9 C 457.9 499.0 457.1 499.1 456.7 499.2 C 456.5 499.4 455.1 500.1 455.9 499.4 C 455.9 499.3 456.0 499.3 456.0 499.3 C 456.0 499.2 456.0 499.2 456.0 499.2 C 456.0 499.2 456.2 498.5 456.2 498.5 C 456.2 498.5 456.0 499.2 456.0 499.2 C 455.7 499.0 455.5 498.9 455.4 498.8 C 455.3 498.8 455.2 498.9 455.2 499.0 C 455.2 499.0 455.2 499.0 455.1 499.1 C 455.1 499.1 455.1 499.1 455.2 499.1 C 455.3 499.3 455.2 499.3 455.0 499.3 C 454.5 499.8 453.1 499.7 452.6 499.7 C 453.6 498.0 451.3 498.8 450.5 499.2 C 449.8 499.6 450.3 501.1 450.7 501.0 C 450.1 501.2 449.9 501.0 449.6 500.6 C 449.7 500.7 448.7 499.9 448.8 499.9 C 447.3 499.8 448.0 501.0 447.7 501.2 C 447.4 501.5 447.0 501.7 446.7 501.9 C 446.3 502.1 446.7 502.3 446.6 502.5 C 446.4 503.2 445.1 502.4 444.7 502.4 C 445.0 502.2 445.3 502.0 445.5 501.7 C 445.2 502.2 444.7 501.5 444.5 501.4 C 444.0 501.4 443.5 501.7 443.1 501.8 C 442.4 502.1 441.7 502.5 441.0 502.8 C 441.3 502.9 442.6 503.4 442.7 503.3 C 442.4 503.4 441.7 503.4 442.1 503.9 C 442.9 504.7 440.9 504.8 440.5 504.9 C 439.6 505.1 438.8 506.3 437.5 505.6 C 437.5 505.6 438.9 504.9 438.8 504.7 C 438.2 504.0 437.7 503.7 436.7 504.2 C 436.6 504.3 435.4 505.4 435.4 505.4 C 435.4 505.3 437.4 506.8 436.0 506.6 C 435.7 506.5 436.1 506.0 435.7 506.0 C 435.2 505.9 434.6 506.3 434.2 506.4 C 434.1 506.4 433.2 506.3 433.2 506.4 C 433.1 506.7 433.2 507.1 433.0 507.3 C 432.7 507.6 432.3 507.5 432.2 507.2 C 432.2 507.1 432.2 507.1 432.2 507.1 C 432.1 507.1 432.0 507.0 432.0 506.8 C 431.9 506.9 431.7 507.0 431.4 506.8 C 431.3 506.8 431.7 506.6 431.9 506.7 C 431.9 506.6 431.9 506.5 431.9 506.3 C 431.5 506.5 431.1 506.7 431.1 506.8 C 430.6 507.4 430.7 507.7 429.5 507.2 C 428.5 506.8 428.4 504.3 429.1 502.9 C 429.1 502.6 429.2 502.3 429.5 501.9 Z M 456.1 493.3 C 456.1 493.2 456.0 493.2 456.0 493.2 C 455.9 493.3 455.8 493.4 455.7 493.5 C 455.9 493.8 455.8 493.2 456.1 493.5 C 456.3 493.9 456.4 493.7 456.1 493.3 Z M 455.1 496.5 C 455.3 496.6 455.3 496.5 455.3 496.3 C 455.1 496.4 455.1 496.4 455.1 496.5 Z M 455.4 498.0 C 455.8 497.7 454.9 497.4 454.2 497.8 C 454.8 498.0 455.2 498.1 455.4 498.0 Z M 454.5 499.0 C 454.5 498.9 454.5 498.8 454.5 498.7 C 454.5 498.5 454.1 498.9 454.1 498.7 C 454.1 498.5 454.5 498.2 454.1 498.2 C 454.0 498.2 453.9 498.1 453.8 498.1 C 453.8 498.2 453.8 498.2 453.7 498.3 C 453.6 498.6 454.1 499.0 454.5 499.0 Z M 453.7 492.5 C 454.0 492.6 453.9 492.4 453.8 492.3 C 453.6 492.2 453.5 492.4 453.7 492.5 Z M 452.7 489.5 C 452.7 489.8 453.0 489.9 453.0 489.6 C 453.0 489.3 452.6 489.2 452.7 489.5 Z M 448.2 492.4 C 448.4 492.4 448.2 492.4 448.1 492.3 C 447.9 492.1 448.0 492.4 448.2 492.4 Z M 447.4 495.0 C 447.2 495.2 447.4 495.5 447.5 495.4 C 447.6 495.2 447.5 494.9 447.4 495.0 Z M 449.2 489.0 C 449.0 488.9 449.0 489.1 449.2 489.2 C 449.4 489.2 449.4 489.1 449.2 489.0 Z M 448.9 492.8 C 448.7 492.5 448.6 492.5 448.5 492.6 C 448.4 492.6 448.4 492.9 448.6 493.0 C 448.9 493.2 449.0 493.1 448.9 492.8 Z M 448.5 495.1 C 447.8 495.3 447.8 495.6 448.7 495.2 C 449.5 494.8 449.0 495.0 448.5 495.1 Z M 451.7 487.3 C 451.8 487.4 452.2 487.7 452.2 487.7 C 452.2 487.7 451.5 486.8 451.7 487.3 Z M 446.8 501.2 C 447.1 501.1 447.2 500.8 446.8 500.9 C 446.3 500.9 446.5 501.2 446.8 501.2 Z M 445.7 499.7 C 446.2 500.3 446.7 500.2 446.7 500.3 C 446.6 500.2 446.7 499.7 446.8 499.6 C 447.2 499.2 448.0 499.6 448.4 499.1 C 448.8 498.6 447.6 498.8 447.5 498.9 C 447.6 498.8 447.7 498.7 447.6 498.6 C 447.5 498.4 447.3 498.4 447.2 498.6 C 447.0 498.8 445.2 499.1 445.7 499.7 Z M 447.3 493.3 C 447.6 493.5 447.9 493.4 447.8 493.0 C 447.6 492.7 447.4 492.5 447.3 492.5 C 447.2 492.6 447.1 493.1 447.3 493.3 Z M 447.6 491.2 C 447.9 491.2 447.8 491.1 447.6 491.0 C 447.2 490.7 447.3 491.3 447.6 491.2 Z M 446.0 481.8 C 445.7 481.8 446.1 482.1 446.2 482.0 C 446.3 481.9 446.2 481.8 446.0 481.8 Z M 445.3 485.2 C 444.8 484.9 445.0 485.5 445.2 485.6 C 445.3 485.6 445.6 485.3 445.3 485.2 Z M 446.8 487.7 C 446.5 487.5 446.7 487.9 446.9 487.9 C 447.0 487.9 446.9 487.7 446.8 487.7 Z M 446.7 489.0 C 446.5 488.9 446.4 489.2 446.8 489.3 C 446.9 489.3 446.9 489.2 446.7 489.0 Z M 443.0 499.7 C 443.0 499.7 443.0 499.1 442.7 499.5 C 442.3 499.9 442.3 499.9 443.0 499.7 Z M 444.9 496.0 C 445.3 495.8 445.6 495.6 445.5 494.4 C 445.4 493.3 445.1 493.6 444.8 494.3 C 444.5 494.9 444.4 493.0 443.8 494.2 C 443.6 494.7 444.5 496.2 444.9 496.0 Z M 444.7 488.6 C 444.9 489.4 445.9 489.4 445.5 488.9 C 445.0 488.3 444.5 488.0 444.7 488.6 Z M 444.7 488.1 C 444.9 488.2 444.9 488.1 444.7 487.9 C 444.5 487.8 444.5 488.1 444.7 488.1 Z M 441.4 504.3 C 442.6 503.6 440.9 503.2 440.9 503.2 C 439.4 503.3 440.1 505.0 441.4 504.3 Z M 436.1 478.5 C 436.1 478.6 436.1 478.6 436.1 478.6 C 436.0 478.7 436.0 478.7 436.1 478.7 C 436.2 479.0 436.5 478.5 436.5 478.5 C 436.4 478.4 436.2 478.4 436.1 478.5 Z M 434.1 485.4 C 434.2 485.1 434.2 484.9 434.1 484.7 C 433.4 484.6 432.9 486.7 434.2 486.2 C 434.4 486.1 435.6 485.0 435.1 484.7 C 434.8 484.6 433.9 486.1 434.1 485.4 Z M 435.5 483.4 C 435.2 484.2 436.5 482.9 436.0 483.0 C 435.8 483.0 435.6 483.2 435.5 483.4 Z M 438.9 477.7 C 438.8 476.5 437.1 476.3 437.5 478.3 C 437.9 480.2 438.6 480.5 438.6 479.5 C 438.6 478.6 439.2 479.5 438.9 477.7 Z M 436.7 486.8 C 435.6 486.3 435.8 486.9 436.6 487.4 C 436.8 487.5 437.4 487.1 436.7 486.8 Z M 436.3 489.3 C 436.1 489.6 436.1 489.6 436.3 489.5 C 436.7 489.3 436.5 489.0 436.3 489.3 Z M 441.0 476.3 C 440.9 475.9 440.5 475.5 440.8 475.5 C 441.1 475.6 441.0 475.5 440.9 475.2 C 440.7 474.8 440.5 475.4 440.5 475.6 C 440.5 475.9 441.1 476.8 441.0 476.3 Z M 442.7 487.0 C 442.5 486.9 442.5 487.1 442.7 487.2 C 442.9 487.3 442.9 487.2 442.7 487.0 Z M 441.6 496.9 C 441.6 496.9 441.6 496.6 441.4 496.8 C 441.2 497.0 441.2 497.0 441.6 496.9 Z M 439.3 504.4 C 439.6 504.3 439.0 504.1 439.2 503.7 C 439.3 503.6 439.4 503.9 439.5 503.9 C 439.5 503.8 439.5 502.9 439.0 503.4 C 438.8 503.6 438.7 504.8 439.3 504.4 Z M 441.7 489.6 C 442.0 490.1 442.7 488.5 442.9 488.9 C 443.2 489.2 443.2 489.1 443.0 488.6 C 442.7 488.2 441.5 489.0 441.7 489.6 Z M 442.5 485.4 C 442.4 485.7 443.1 486.6 443.0 486.1 C 442.9 485.6 442.5 485.3 442.8 485.3 C 443.1 485.4 443.0 485.3 442.8 485.0 C 442.6 484.6 442.5 485.2 442.5 485.4 Z M 443.8 478.6 C 443.9 478.7 444.3 479.1 444.2 478.7 C 444.1 478.5 443.8 478.4 443.8 478.6 Z M 438.8 497.4 C 439.0 497.1 438.9 497.0 438.6 497.2 C 438.2 497.4 438.6 497.6 438.8 497.4 Z M 442.5 478.9 C 442.8 479.4 442.7 478.7 442.9 479.0 C 443.2 479.4 443.3 479.2 443.0 478.8 C 442.7 478.3 442.3 478.4 442.5 478.9 Z M 436.2 503.3 C 436.3 503.1 436.2 502.8 436.1 503.0 C 435.9 503.1 436.1 503.4 436.2 503.3 Z M 435.9 500.5 C 436.0 500.5 436.1 500.5 436.2 500.5 C 438.1 499.7 434.9 499.9 435.9 500.5 Z M 437.1 496.6 C 437.1 497.2 437.5 496.6 437.5 496.6 C 437.3 496.5 437.2 496.5 437.1 496.6 Z M 438.1 492.4 C 437.9 492.2 437.8 492.6 438.1 492.6 C 438.3 492.6 438.2 492.5 438.1 492.4 Z M 433.9 506.0 C 434.2 506.0 434.2 505.8 434.0 505.8 C 433.8 505.8 433.7 506.0 433.9 506.0 Z M 436.4 495.3 C 436.5 495.4 436.5 495.4 436.5 495.1 C 436.5 494.9 436.3 495.2 436.4 495.3 Z M 439.5 482.2 C 439.6 482.3 439.7 482.5 439.8 482.6 C 440.0 482.5 440.3 481.8 440.6 481.8 C 440.6 481.8 440.6 481.9 440.6 481.9 C 440.6 481.9 440.7 481.8 440.7 481.9 C 440.8 481.9 440.9 482.1 440.8 482.1 C 440.8 482.2 440.8 482.3 440.8 482.5 C 441.1 482.3 441.4 482.1 441.2 481.8 C 441.1 481.5 440.5 481.3 440.0 481.2 C 439.9 481.4 439.8 481.5 439.7 481.7 C 439.7 481.7 439.7 481.7 439.7 481.7 C 440.0 481.9 440.1 482.2 439.9 482.1 C 439.7 482.1 439.6 482.0 439.6 481.9 C 439.5 482.0 439.5 482.1 439.5 482.2 Z M 436.2 493.5 C 436.3 493.9 436.4 493.7 436.7 493.3 C 436.8 493.0 436.1 493.1 436.2 493.5 Z M 433.6 505.4 C 433.6 505.3 433.6 505.2 433.5 505.1 C 433.5 505.1 433.5 505.2 433.4 505.2 C 433.3 505.5 433.2 505.7 433.1 505.9 C 433.4 506.0 433.6 505.9 433.6 505.4 Z M 433.3 501.4 C 433.3 501.5 432.9 503.0 433.3 502.8 C 433.9 502.6 434.4 503.4 434.4 502.2 C 434.4 501.6 433.7 501.0 433.7 500.4 C 433.7 497.5 432.8 500.9 432.5 501.6 C 432.4 501.8 433.3 501.2 433.3 501.4 Z M 433.4 497.5 C 433.2 497.4 432.7 497.7 432.7 497.9 C 432.6 498.6 433.6 497.8 433.4 497.5 Z M 431.1 505.2 C 431.1 505.2 431.2 505.2 431.3 505.2 C 431.2 505.1 431.1 505.1 431.1 505.0 C 431.1 505.1 431.1 505.1 431.1 505.2 Z M 430.3 507.0 C 431.3 506.5 429.8 506.2 429.4 506.3 C 428.8 506.4 429.8 507.3 430.3 507.0 Z M 431.6 499.3 C 431.7 498.8 430.3 497.7 430.1 498.7 C 430.0 499.6 431.2 500.5 431.6 499.3 Z M 430.9 493.0 C 431.1 493.3 430.6 493.8 430.5 493.4 C 430.4 493.2 430.9 492.9 430.9 493.0 Z M 428.0 501.4 C 428.1 501.2 428.1 501.5 428.1 501.5 C 427.8 501.5 427.8 501.5 428.0 501.4 Z M 429.3 500.9 C 429.2 501.1 429.0 501.4 428.8 501.6 C 428.7 501.8 428.7 501.2 428.8 501.2 C 428.8 500.9 429.3 500.9 429.3 500.9 Z M 430.6 496.3 C 430.3 496.6 430.4 496.1 430.5 496.0 C 430.6 495.8 430.7 496.2 430.6 496.3 Z M 429.9 497.3 C 430.0 497.2 430.2 497.4 430.1 497.5 C 430.0 497.8 429.8 497.5 429.9 497.3 Z M 431.3 495.6 C 431.3 496.2 431.3 496.9 430.9 496.7 C 430.7 496.6 431.3 494.6 431.3 495.6 Z M 431.3 495.6 " fill="#C82505"></path><path d="M 42.0 430.0 L 391.0 430.0 L 391.0 385.0 L 42.0 385.0 Z M 42.2 430.5 " fill="#FEFFFE"></path><g><clipPath id="clip0x608001ab9560"><path d="M 36.8 380.1 L 396.7 380.1 L 396.7 435.9 L 36.8 435.9 Z M 36.8 380.1 "></path></clipPath><g clip-path="url(#clip0x608001ab9560)"><text xml:space="preserve" font-family="Georgia,Georgia" font-size="33.0" fill="#000000" transform="matrix(1.00, 0.00, -0.00, -1.00, 46.2, 396.7)">L</text><text xml:space="preserve" font-family="Georgia,Georgia" font-size="33.0" fill="#000000" transform="matrix(1.00, 0.00, -0.00, -1.00, 66.1, 396.7)">e</text><text xml:space="preserve" font-family="Georgia,Georgia" font-size="33.0" fill="#000000" transform="matrix(1.00, 0.00, -0.00, -1.00, 82.0, 396.7)">p</text><text xml:space="preserve" font-family="Georgia,Georgia" font-size="33.0" fill="#000000" transform="matrix(1.00, 0.00, -0.00, -1.00, 100.9, 396.7)">o</text><text xml:space="preserve" font-family="Georgia,Georgia" font-size="33.0" fill="#000000" transform="matrix(1.00, 0.00, -0.00, -1.00, 118.7, 396.7)">k</text><text xml:space="preserve" font-family="Georgia,Georgia" font-size="33.0" fill="#000000" transform="matrix(1.00, 0.00, -0.00, -1.00, 136.3, 396.7)">i</text><text xml:space="preserve" font-family="Georgia,Georgia" font-size="33.0" fill="#000000" transform="matrix(1.00, 0.00, -0.00, -1.00, 146.0, 396.7)">t</text><text xml:space="preserve" font-family="Georgia,Georgia" font-size="33.0" fill="#000000" transform="matrix(1.00, 0.00, -0.00, -1.00, 157.4, 396.7)">k</text><text xml:space="preserve" font-family="Georgia,Georgia" font-size="33.0" fill="#000000" transform="matrix(1.00, 0.00, -0.00, -1.00, 175.1, 396.7)">a</text><text xml:space="preserve" font-family="Georgia,Georgia" font-size="33.0" fill="#000000" transform="matrix(1.00, 0.00, -0.00, -1.00, 191.7, 396.7)">n</text><text xml:space="preserve" font-family="Georgia,Georgia" font-size="33.0" fill="#000000" transform="matrix(1.00, 0.00, -0.00, -1.00, 211.2, 396.7)"> </text><text xml:space="preserve" font-family="Georgia,Georgia" font-size="33.0" fill="#000000" transform="matrix(1.00, 0.00, -0.00, -1.00, 219.2, 396.7)">s</text><text xml:space="preserve" font-family="Georgia,Georgia" font-size="33.0" fill="#000000" transform="matrix(1.00, 0.00, -0.00, -1.00, 233.4, 396.7)">u</text><text xml:space="preserve" font-family="Georgia,Georgia" font-size="33.0" fill="#000000" transform="matrix(1.00, 0.00, -0.00, -1.00, 252.4, 396.7)">u</text><text xml:space="preserve" font-family="Georgia,Georgia" font-size="33.0" fill="#000000" transform="matrix(1.00, 0.00, -0.00, -1.00, 271.4, 396.7)">r</text><text xml:space="preserve" font-family="Georgia,Georgia" font-size="33.0" fill="#000000" transform="matrix(1.00, 0.00, -0.00, -1.00, 284.9, 396.7)">i</text><text xml:space="preserve" font-family="Georgia,Georgia" font-size="33.0" fill="#000000" transform="matrix(1.00, 0.00, -0.00, -1.00, 294.6, 396.7)">n</text><text xml:space="preserve" font-family="Georgia,Georgia" font-size="33.0" fill="#000000" transform="matrix(1.00, 0.00, -0.00, -1.00, 314.1, 396.7)"> </text><text xml:space="preserve" font-family="Georgia,Georgia" font-size="33.0" fill="#000000" transform="matrix(1.00, 0.00, -0.00, -1.00, 322.0, 396.7)">a</text><text xml:space="preserve" font-family="Georgia,Georgia" font-size="33.0" fill="#000000" transform="matrix(1.00, 0.00, -0.00, -1.00, 338.7, 396.7)">r</text><text xml:space="preserve" font-family="Georgia,Georgia" font-size="33.0" fill="#000000" transform="matrix(1.00, 0.00, -0.00, -1.00, 352.2, 396.7)">v</text><text xml:space="preserve" font-family="Georgia,Georgia" font-size="33.0" fill="#000000" transform="matrix(1.00, 0.00, -0.00, -1.00, 368.5, 396.7)">o</text></g></g></g></svg>