<?xml version="1.0" encoding="UTF-8" standalone="no"?><svg xmlns="http://www.w3.org/2000/svg" xmlns:xlink="http://www.w3.org/1999/xlink" clip-rule="evenodd" stroke-miterlimit="10" viewBox="0 0 407 127"><desc>SVG generated by Keynote</desc><defs></defs><g transform="matrix(1.00, 0.00, -0.00, -1.00, 0.0, 127.0)"><text xml:space="preserve" font-family="Georgia,Georgia" font-size="28.0" fill="#000000" transform="matrix(1.00, 0.00, -0.00, -1.00, 4.7, 103.9)">U</text><text xml:space="preserve" font-family="Georgia,Georgia" font-size="28.0" fill="#000000" transform="matrix(1.00, 0.00, -0.00, -1.00, 25.8, 103.9)">l</text><text xml:space="preserve" font-family="Georgia,Georgia" font-size="28.0" fill="#000000" transform="matrix(1.00, 0.00, -0.00, -1.00, 33.9, 103.9)">k</text><text xml:space="preserve" font-family="Georgia,Georgia" font-size="28.0" fill="#000000" transform="matrix(1.00, 0.00, -0.00, -1.00, 48.9, 103.9)">o</text><text xml:space="preserve" font-family="Georgia,Georgia" font-size="28.0" fill="#000000" transform="matrix(1.00, 0.00, -0.00, -1.00, 63.9, 103.9)">i</text><text xml:space="preserve" font-family="Georgia,Georgia" font-size="28.0" fill="#000000" transform="matrix(1.00, 0.00, -0.00, -1.00, 72.2, 103.9)">n</text><text xml:space="preserve" font-family="Georgia,Georgia" font-size="28.0" fill="#000000" transform="matrix(1.00, 0.00, -0.00, -1.00, 88.7, 103.9)">e</text><text xml:space="preserve" font-family="Georgia,Georgia" font-size="28.0" fill="#000000" transform="matrix(1.00, 0.00, -0.00, -1.00, 102.2, 103.9)">n</text><text xml:space="preserve" font-family="Georgia,Georgia" font-size="28.0" fill="#000000" transform="matrix(1.00, 0.00, -0.00, -1.00, 118.8, 103.9)"> </text><text xml:space="preserve" font-family="Georgia,Georgia" font-size="28.0" fill="#000000" transform="matrix(1.00, 0.00, -0.00, -1.00, 125.5, 103.9)">m</text><text xml:space="preserve" font-family="Georgia,Georgia" font-size="28.0" fill="#000000" transform="matrix(1.00, 0.00, -0.00, -1.00, 150.2, 103.9)">a</text><text xml:space="preserve" font-family="Georgia,Georgia" font-size="28.0" fill="#000000" transform="matrix(1.00, 0.00, -0.00, -1.00, 164.3, 103.9)">g</text><text xml:space="preserve" font-family="Georgia,Georgia" font-size="28.0" fill="#000000" transform="matrix(1.00, 0.00, -0.00, -1.00, 178.6, 103.9)">n</text><text xml:space="preserve" font-family="Georgia,Georgia" font-size="28.0" fill="#000000" transform="matrix(1.00, 0.00, -0.00, -1.00, 195.1, 103.9)">e</text><text xml:space="preserve" font-family="Georgia,Georgia" font-size="28.0" fill="#000000" transform="matrix(1.00, 0.00, -0.00, -1.00, 208.7, 103.9)">e</text><text xml:space="preserve" font-family="Georgia,Georgia" font-size="28.0" fill="#000000" transform="matrix(1.00, 0.00, -0.00, -1.00, 222.2, 103.9)">t</text><text xml:space="preserve" font-family="Georgia,Georgia" font-size="28.0" fill="#000000" transform="matrix(1.00, 0.00, -0.00, -1.00, 231.9, 103.9)">t</text><text xml:space="preserve" font-family="Georgia,Georgia" font-size="28.0" fill="#000000" transform="matrix(1.00, 0.00, -0.00, -1.00, 241.5, 103.9)">i</text><text xml:space="preserve" font-family="Georgia,Georgia" font-size="28.0" fill="#000000" transform="matrix(1.00, 0.00, -0.00, -1.00, 249.7, 103.9)">k</text><text xml:space="preserve" font-family="Georgia,Georgia" font-size="28.0" fill="#000000" transform="matrix(1.00, 0.00, -0.00, -1.00, 264.7, 103.9)">e</text><text xml:space="preserve" font-family="Georgia,Georgia" font-size="28.0" fill="#000000" transform="matrix(1.00, 0.00, -0.00, -1.00, 278.3, 103.9)">n</text><text xml:space="preserve" font-family="Georgia,Georgia" font-size="28.0" fill="#000000" transform="matrix(1.00, 0.00, -0.00, -1.00, 294.8, 103.9)">t</text><text xml:space="preserve" font-family="Georgia,Georgia" font-size="28.0" fill="#000000" transform="matrix(1.00, 0.00, -0.00, -1.00, 304.5, 103.9)">t</text><text xml:space="preserve" font-family="Georgia,Georgia" font-size="28.0" fill="#000000" transform="matrix(1.00, 0.00, -0.00, -1.00, 314.2, 103.9)">ä</text><text xml:space="preserve" font-family="Georgia,Georgia" font-size="28.0" fill="#000000" transform="matrix(1.00, 0.00, -0.00, -1.00, 328.3, 103.9)"> </text><text xml:space="preserve" font-family="Georgia,Georgia" font-size="28.0" fill="#000000" transform="matrix(1.00, 0.00, -0.00, -1.00, 4.7, 71.9)">j</text><text xml:space="preserve" font-family="Georgia,Georgia" font-size="28.0" fill="#000000" transform="matrix(1.00, 0.00, -0.00, -1.00, 12.8, 71.9)">ä</text><text xml:space="preserve" font-family="Georgia,Georgia" font-size="28.0" fill="#000000" transform="matrix(1.00, 0.00, -0.00, -1.00, 26.9, 71.9)">r</text><text xml:space="preserve" font-family="Georgia,Georgia" font-size="28.0" fill="#000000" transform="matrix(1.00, 0.00, -0.00, -1.00, 38.4, 71.9)">j</text><text xml:space="preserve" font-family="Georgia,Georgia" font-size="28.0" fill="#000000" transform="matrix(1.00, 0.00, -0.00, -1.00, 46.6, 71.9)">e</text><text xml:space="preserve" font-family="Georgia,Georgia" font-size="28.0" fill="#000000" transform="matrix(1.00, 0.00, -0.00, -1.00, 60.1, 71.9)">s</text><text xml:space="preserve" font-family="Georgia,Georgia" font-size="28.0" fill="#000000" transform="matrix(1.00, 0.00, -0.00, -1.00, 72.2, 71.9)">t</text><text xml:space="preserve" font-family="Georgia,Georgia" font-size="28.0" fill="#000000" transform="matrix(1.00, 0.00, -0.00, -1.00, 81.9, 71.9)">ä</text><text xml:space="preserve" font-family="Georgia,Georgia" font-size="28.0" fill="#000000" transform="matrix(1.00, 0.00, -0.00, -1.00, 96.0, 71.9)">ä</text><text xml:space="preserve" font-family="Georgia,Georgia" font-size="28.0" fill="#000000" transform="matrix(1.00, 0.00, -0.00, -1.00, 110.1, 71.9)"> </text><text xml:space="preserve" font-family="Georgia,Georgia" font-size="28.0" fill="#000000" transform="matrix(1.00, 0.00, -0.00, -1.00, 116.9, 71.9)">a</text><text xml:space="preserve" font-family="Georgia,Georgia" font-size="28.0" fill="#000000" transform="matrix(1.00, 0.00, -0.00, -1.00, 131.0, 71.9)">l</text><text xml:space="preserve" font-family="Georgia,Georgia" font-size="28.0" fill="#000000" transform="matrix(1.00, 0.00, -0.00, -1.00, 139.0, 71.9)">k</text><text xml:space="preserve" font-family="Georgia,Georgia" font-size="28.0" fill="#000000" transform="matrix(1.00, 0.00, -0.00, -1.00, 154.0, 71.9)">e</text><text xml:space="preserve" font-family="Georgia,Georgia" font-size="28.0" fill="#000000" transform="matrix(1.00, 0.00, -0.00, -1.00, 167.5, 71.9)">i</text><text xml:space="preserve" font-family="Georgia,Georgia" font-size="28.0" fill="#000000" transform="matrix(1.00, 0.00, -0.00, -1.00, 175.7, 71.9)">s</text><text xml:space="preserve" font-family="Georgia,Georgia" font-size="28.0" fill="#000000" transform="matrix(1.00, 0.00, -0.00, -1.00, 187.8, 71.9)">m</text><text xml:space="preserve" font-family="Georgia,Georgia" font-size="28.0" fill="#000000" transform="matrix(1.00, 0.00, -0.00, -1.00, 212.5, 71.9)">a</text><text xml:space="preserve" font-family="Georgia,Georgia" font-size="28.0" fill="#000000" transform="matrix(1.00, 0.00, -0.00, -1.00, 226.6, 71.9)">g</text><text xml:space="preserve" font-family="Georgia,Georgia" font-size="28.0" fill="#000000" transform="matrix(1.00, 0.00, -0.00, -1.00, 240.9, 71.9)">n</text><text xml:space="preserve" font-family="Georgia,Georgia" font-size="28.0" fill="#000000" transform="matrix(1.00, 0.00, -0.00, -1.00, 257.4, 71.9)">e</text><text xml:space="preserve" font-family="Georgia,Georgia" font-size="28.0" fill="#000000" transform="matrix(1.00, 0.00, -0.00, -1.00, 271.0, 71.9)">e</text><text xml:space="preserve" font-family="Georgia,Georgia" font-size="28.0" fill="#000000" transform="matrix(1.00, 0.00, -0.00, -1.00, 284.5, 71.9)">t</text><text xml:space="preserve" font-family="Georgia,Georgia" font-size="28.0" fill="#000000" transform="matrix(1.00, 0.00, -0.00, -1.00, 294.2, 71.9)">i</text><text xml:space="preserve" font-family="Georgia,Georgia" font-size="28.0" fill="#000000" transform="matrix(1.00, 0.00, -0.00, -1.00, 302.4, 71.9)">t</text><text xml:space="preserve" font-family="Georgia,Georgia" font-size="28.0" fill="#000000" transform="matrix(1.00, 0.00, -0.00, -1.00, 312.0, 71.9)">,</text><text xml:space="preserve" font-family="Georgia,Georgia" font-size="28.0" fill="#000000" transform="matrix(1.00, 0.00, -0.00, -1.00, 319.6, 71.9)"> </text><text xml:space="preserve" font-family="Georgia,Georgia" font-size="28.0" fill="#000000" transform="matrix(1.00, 0.00, -0.00, -1.00, 326.3, 71.9)">j</text><text xml:space="preserve" font-family="Georgia,Georgia" font-size="28.0" fill="#000000" transform="matrix(1.00, 0.00, -0.00, -1.00, 334.5, 71.9)">o</text><text xml:space="preserve" font-family="Georgia,Georgia" font-size="28.0" fill="#000000" transform="matrix(1.00, 0.00, -0.00, -1.00, 349.6, 71.9)">l</text><text xml:space="preserve" font-family="Georgia,Georgia" font-size="28.0" fill="#000000" transform="matrix(1.00, 0.00, -0.00, -1.00, 357.6, 71.9)">l</text><text xml:space="preserve" font-family="Georgia,Georgia" font-size="28.0" fill="#000000" transform="matrix(1.00, 0.00, -0.00, -1.00, 365.6, 71.9)">o</text><text xml:space="preserve" font-family="Georgia,Georgia" font-size="28.0" fill="#000000" transform="matrix(1.00, 0.00, -0.00, -1.00, 380.7, 71.9)">i</text><text xml:space="preserve" font-family="Georgia,Georgia" font-size="28.0" fill="#000000" transform="matrix(1.00, 0.00, -0.00, -1.00, 388.9, 71.9)">n</text><text xml:space="preserve" font-family="Georgia,Georgia" font-size="28.0" fill="#000000" transform="matrix(1.00, 0.00, -0.00, -1.00, 405.5, 71.9)"> </text><text xml:space="preserve" font-family="Georgia,Georgia" font-size="28.0" fill="#000000" transform="matrix(1.00, 0.00, -0.00, -1.00, 4.7, 39.9)">r</text><text xml:space="preserve" font-family="Georgia,Georgia" font-size="28.0" fill="#000000" transform="matrix(1.00, 0.00, -0.00, -1.00, 16.1, 39.9)">a</text><text xml:space="preserve" font-family="Georgia,Georgia" font-size="28.0" fill="#000000" transform="matrix(1.00, 0.00, -0.00, -1.00, 30.2, 39.9)">u</text><text xml:space="preserve" font-family="Georgia,Georgia" font-size="28.0" fill="#000000" transform="matrix(1.00, 0.00, -0.00, -1.00, 46.3, 39.9)">d</text><text xml:space="preserve" font-family="Georgia,Georgia" font-size="28.0" fill="#000000" transform="matrix(1.00, 0.00, -0.00, -1.00, 62.4, 39.9)">a</text><text xml:space="preserve" font-family="Georgia,Georgia" font-size="28.0" fill="#000000" transform="matrix(1.00, 0.00, -0.00, -1.00, 76.5, 39.9)">s</text><text xml:space="preserve" font-family="Georgia,Georgia" font-size="28.0" fill="#000000" transform="matrix(1.00, 0.00, -0.00, -1.00, 88.6, 39.9)">t</text><text xml:space="preserve" font-family="Georgia,Georgia" font-size="28.0" fill="#000000" transform="matrix(1.00, 0.00, -0.00, -1.00, 98.3, 39.9)">a</text><text xml:space="preserve" font-family="Georgia,Georgia" font-size="28.0" fill="#000000" transform="matrix(1.00, 0.00, -0.00, -1.00, 112.4, 39.9)"> </text><text xml:space="preserve" font-family="Georgia,Georgia" font-size="28.0" fill="#000000" transform="matrix(1.00, 0.00, -0.00, -1.00, 119.2, 39.9)">t</text><text xml:space="preserve" font-family="Georgia,Georgia" font-size="28.0" fill="#000000" transform="matrix(1.00, 0.00, -0.00, -1.00, 128.8, 39.9)">u</text><text xml:space="preserve" font-family="Georgia,Georgia" font-size="28.0" fill="#000000" transform="matrix(1.00, 0.00, -0.00, -1.00, 145.0, 39.9)">l</text><text xml:space="preserve" font-family="Georgia,Georgia" font-size="28.0" fill="#000000" transform="matrix(1.00, 0.00, -0.00, -1.00, 153.0, 39.9)">e</text><text xml:space="preserve" font-family="Georgia,Georgia" font-size="28.0" fill="#000000" transform="matrix(1.00, 0.00, -0.00, -1.00, 166.5, 39.9)">e</text><text xml:space="preserve" font-family="Georgia,Georgia" font-size="28.0" fill="#000000" transform="matrix(1.00, 0.00, -0.00, -1.00, 180.1, 39.9)"> </text><text xml:space="preserve" font-family="Georgia,Georgia" font-size="28.0" fill="#000000" transform="matrix(1.00, 0.00, -0.00, -1.00, 186.8, 39.9)">v</text><text xml:space="preserve" font-family="Georgia,Georgia" font-size="28.0" fill="#000000" transform="matrix(1.00, 0.00, -0.00, -1.00, 200.7, 39.9)">ä</text><text xml:space="preserve" font-family="Georgia,Georgia" font-size="28.0" fill="#000000" transform="matrix(1.00, 0.00, -0.00, -1.00, 214.8, 39.9)">l</text><text xml:space="preserve" font-family="Georgia,Georgia" font-size="28.0" fill="#000000" transform="matrix(1.00, 0.00, -0.00, -1.00, 222.8, 39.9)">i</text><text xml:space="preserve" font-family="Georgia,Georgia" font-size="28.0" fill="#000000" transform="matrix(1.00, 0.00, -0.00, -1.00, 231.0, 39.9)">a</text><text xml:space="preserve" font-family="Georgia,Georgia" font-size="28.0" fill="#000000" transform="matrix(1.00, 0.00, -0.00, -1.00, 245.1, 39.9)">i</text><text xml:space="preserve" font-family="Georgia,Georgia" font-size="28.0" fill="#000000" transform="matrix(1.00, 0.00, -0.00, -1.00, 253.4, 39.9)">k</text><text xml:space="preserve" font-family="Georgia,Georgia" font-size="28.0" fill="#000000" transform="matrix(1.00, 0.00, -0.00, -1.00, 268.3, 39.9)">a</text><text xml:space="preserve" font-family="Georgia,Georgia" font-size="28.0" fill="#000000" transform="matrix(1.00, 0.00, -0.00, -1.00, 282.4, 39.9)">i</text><text xml:space="preserve" font-family="Georgia,Georgia" font-size="28.0" fill="#000000" transform="matrix(1.00, 0.00, -0.00, -1.00, 290.6, 39.9)">n</text><text xml:space="preserve" font-family="Georgia,Georgia" font-size="28.0" fill="#000000" transform="matrix(1.00, 0.00, -0.00, -1.00, 307.2, 39.9)">e</text><text xml:space="preserve" font-family="Georgia,Georgia" font-size="28.0" fill="#000000" transform="matrix(1.00, 0.00, -0.00, -1.00, 320.7, 39.9)">n</text><text xml:space="preserve" font-family="Georgia,Georgia" font-size="28.0" fill="#000000" transform="matrix(1.00, 0.00, -0.00, -1.00, 337.3, 39.9)"> </text><text xml:space="preserve" font-family="Georgia,Georgia" font-size="28.0" fill="#000000" transform="matrix(1.00, 0.00, -0.00, -1.00, 4.7, 7.9)">m</text><text xml:space="preserve" font-family="Georgia,Georgia" font-size="28.0" fill="#000000" transform="matrix(1.00, 0.00, -0.00, -1.00, 29.3, 7.9)">a</text><text xml:space="preserve" font-family="Georgia,Georgia" font-size="28.0" fill="#000000" transform="matrix(1.00, 0.00, -0.00, -1.00, 43.4, 7.9)">g</text><text xml:space="preserve" font-family="Georgia,Georgia" font-size="28.0" fill="#000000" transform="matrix(1.00, 0.00, -0.00, -1.00, 57.7, 7.9)">n</text><text xml:space="preserve" font-family="Georgia,Georgia" font-size="28.0" fill="#000000" transform="matrix(1.00, 0.00, -0.00, -1.00, 74.2, 7.9)">e</text><text xml:space="preserve" font-family="Georgia,Georgia" font-size="28.0" fill="#000000" transform="matrix(1.00, 0.00, -0.00, -1.00, 87.8, 7.9)">e</text><text xml:space="preserve" font-family="Georgia,Georgia" font-size="28.0" fill="#000000" transform="matrix(1.00, 0.00, -0.00, -1.00, 101.3, 7.9)">t</text><text xml:space="preserve" font-family="Georgia,Georgia" font-size="28.0" fill="#000000" transform="matrix(1.00, 0.00, -0.00, -1.00, 111.0, 7.9)">t</text><text xml:space="preserve" font-family="Georgia,Georgia" font-size="28.0" fill="#000000" transform="matrix(1.00, 0.00, -0.00, -1.00, 120.7, 7.9)">i</text></g></svg>