<?xml version="1.0" encoding="UTF-8" standalone="no"?><svg xmlns="http://www.w3.org/2000/svg" xmlns:xlink="http://www.w3.org/1999/xlink" clip-rule="evenodd" stroke-miterlimit="10" viewBox="0 0 362 407"><desc>SVG generated by Keynote</desc><defs><linearGradient id="gradSh1.6" x1="0.0" y1="0.0" x2="100.0" y2="0.0" gradientUnits="userSpaceOnUse" gradientTransform="matrix(3.55, 0.00, 0.00, -3.96, 3.5, 203.3)"><stop offset="0.00000" stop-color="#FBFBFB"></stop><stop offset="0.01466" stop-color="#FAFAFA"></stop><stop offset="1.00000" stop-color="#BEBEBE"></stop></linearGradient></defs><g transform="matrix(1.00, 0.00, -0.00, -1.00, 0.0, 407.0)"><image xlink:href="../../3B84F4DC-F4ED-4C67-80C5-7E53D3E10705/assets/CC6E6C695E21BB396239670B9D1A9670.png" width="400.00" height="359.00" transform="matrix(0.00, 1.00, 1.00, -0.00, 1.5, 1.5)" opacity="0.50"></image><g><clipPath id="clip0x608002eacae0"><path d="M 4.5 116.9 L 5.0 290.2 C 34.2 353.3 98.0 396.6 170.8 399.9 C 252.5 403.6 327.0 356.6 357.0 286.6 L 357.0 118.8 C 327.5 51.3 256.6 5.3 177.7 6.5 C 102.1 7.6 34.5 51.8 4.5 116.9 Z M 4.5 116.9 "></path></clipPath><g clip-path="url(#clip0x608002eacae0)"><path d="M 4.5 116.9 L 5.0 290.2 C 34.2 353.3 98.0 396.6 170.8 399.9 C 252.5 403.6 327.0 356.6 357.0 286.6 L 357.0 118.8 C 327.5 51.3 256.6 5.3 177.7 6.5 C 102.1 7.6 34.5 51.8 4.5 116.9 Z M 4.5 116.9 " fill="url(#gradSh1.6)"></path></g></g></g></svg>