<?xml version="1.0" encoding="UTF-8" standalone="no"?><svg xmlns="http://www.w3.org/2000/svg" xmlns:xlink="http://www.w3.org/1999/xlink" clip-rule="evenodd" stroke-miterlimit="10" viewBox="0 0 54 20"><desc>SVG generated by Keynote</desc><defs></defs><g transform="matrix(1.00, 0.00, -0.00, -1.00, 0.0, 20.0)"><g><clipPath id="clip0x6000026b2720"><path d="M 1.0 18.0 L 27.0 18.0 L 27.0 1.0 L 1.0 1.0 Z M 1.4 18.4 "></path></clipPath><g clip-path="url(#clip0x6000026b2720)"><g><clipPath id="clip0x6000026b2b40"><path d="M 0.4 0.5 L 27.9 0.5 L 27.9 19.4 L 0.4 19.4 Z M 0.4 0.5 "></path></clipPath><g clip-path="url(#clip0x6000026b2b40)"><image xlink:href="../../0099E750-43F4-4A1E-80C1-2076B752852F/assets/ADFEDB07BA590A41659D8979D96483E7.png" width="600.00" height="600.00" transform="matrix(0.50, 0.00, -0.00, -0.50, 1.0, 18.0)"></image></g></g></g></g><g><clipPath id="clip0x608002ea7980"><path d="M 27.0 18.0 L 53.0 18.0 L 53.0 1.0 L 27.0 1.0 Z M 27.0 18.4 "></path></clipPath><g clip-path="url(#clip0x608002ea7980)"><g><clipPath id="clip0x608002ea75c0"><path d="M 26.0 0.5 L 53.5 0.5 L 53.5 19.4 L 26.0 19.4 Z M 26.0 0.5 "></path></clipPath><g clip-path="url(#clip0x608002ea75c0)"><image xlink:href="../../0099E750-43F4-4A1E-80C1-2076B752852F/assets/57C63BC369DF2E161F93135AB5988468.png" width="600.00" height="600.00" transform="matrix(0.50, 0.00, -0.00, -0.50, 27.0, 18.0)"></image></g></g></g></g></g></svg>