<?xml version="1.0" encoding="UTF-8" standalone="no"?><svg xmlns="http://www.w3.org/2000/svg" xmlns:xlink="http://www.w3.org/1999/xlink" clip-rule="evenodd" stroke-miterlimit="10" viewBox="0 0 64 278"><desc>SVG generated by Keynote</desc><defs><linearGradient id="gradSh1.7" x1="0.0" y1="0.0" x2="100.0" y2="0.0" gradientUnits="userSpaceOnUse" gradientTransform="matrix(-0.72, -0.04, -0.16, 2.77, 68.1, 141.5)"><stop offset="0.00000" stop-color="#DCDEE0"></stop><stop offset="0.00880" stop-color="#DCDDE0"></stop><stop offset="1.00000" stop-color="#A6AAA9"></stop></linearGradient></defs><g transform="matrix(1.00, 0.00, -0.00, -1.00, 0.0, 278.0)"><g><clipPath id="clip0x600002eb3aa0"><path d="M 2.3 275.4 L 59.3 275.9 L 57.4 260.0 L 38.1 259.9 L 40.2 12.0 L 31.4 3.1 L 22.8 11.6 L 20.7 259.7 L 6.1 259.5 L 2.3 275.4 Z M 2.3 275.4 "></path></clipPath><g clip-path="url(#clip0x600002eb3aa0)"><path d="M 2.3 275.4 L 59.3 275.9 L 57.4 260.0 L 38.1 259.9 L 40.2 12.0 L 31.4 3.1 L 22.8 11.6 L 20.7 259.7 L 6.1 259.5 L 2.3 275.4 Z M 2.3 275.4 " fill="url(#gradSh1.7)"></path></g></g><path d="M 0.0 0.0 L 56.9 0.0 L 54.9 15.8 L 35.7 15.8 L 35.7 263.7 L 26.8 272.6 L 18.3 264.0 L 18.3 15.9 L 3.6 15.9 L 0.0 0.0 Z M 0.0 0.0 " fill="none" stroke="#A6AAA8" stroke-width="2.00" transform="matrix(1.00, 0.01, 0.01, -1.00, 2.3, 275.4)"></path></g></svg>