<?xml version="1.0" encoding="UTF-8" standalone="no"?><svg xmlns="http://www.w3.org/2000/svg" xmlns:xlink="http://www.w3.org/1999/xlink" clip-rule="evenodd" stroke-miterlimit="10" viewBox="0 0 1024 768"><desc>SVG generated by Keynote</desc><defs></defs><g transform="matrix(1.00, 0.00, -0.00, -1.00, 0.0, 768.0)"><path d="M 0.0 768.0 L 1024.0 768.0 L 1024.0 0.0 L 0.0 0.0 Z M 0.0 768.0 " fill="#FEFFFF"></path><text xml:space="preserve" font-family="Georgia,Georgia" font-size="65.0" fill="#000000" transform="matrix(1.00, 0.00, -0.00, -1.00, 245.2, 692.9)">H</text><text xml:space="preserve" font-family="Georgia,Georgia" font-size="65.0" fill="#000000" transform="matrix(1.00, 0.00, -0.00, -1.00, 298.2, 692.9)">a</text><text xml:space="preserve" font-family="Georgia,Georgia" font-size="65.0" fill="#000000" transform="matrix(1.00, 0.00, -0.00, -1.00, 331.0, 692.9)">r</text><text xml:space="preserve" font-family="Georgia,Georgia" font-size="65.0" fill="#000000" transform="matrix(1.00, 0.00, -0.00, -1.00, 357.6, 692.9)">j</text><text xml:space="preserve" font-family="Georgia,Georgia" font-size="65.0" fill="#000000" transform="matrix(1.00, 0.00, -0.00, -1.00, 376.5, 692.9)">o</text><text xml:space="preserve" font-family="Georgia,Georgia" font-size="65.0" fill="#000000" transform="matrix(1.00, 0.00, -0.00, -1.00, 411.6, 692.9)">i</text><text xml:space="preserve" font-family="Georgia,Georgia" font-size="65.0" fill="#000000" transform="matrix(1.00, 0.00, -0.00, -1.00, 430.6, 692.9)">t</text><text xml:space="preserve" font-family="Georgia,Georgia" font-size="65.0" fill="#000000" transform="matrix(1.00, 0.00, -0.00, -1.00, 453.1, 692.9)">u</text><text xml:space="preserve" font-family="Georgia,Georgia" font-size="65.0" fill="#000000" transform="matrix(1.00, 0.00, -0.00, -1.00, 490.5, 692.9)">s</text><text xml:space="preserve" font-family="Georgia,Georgia" font-size="65.0" fill="#000000" transform="matrix(1.00, 0.00, -0.00, -1.00, 518.6, 692.9)">t</text><text xml:space="preserve" font-family="Georgia,Georgia" font-size="65.0" fill="#000000" transform="matrix(1.00, 0.00, -0.00, -1.00, 541.0, 692.9)">e</text><text xml:space="preserve" font-family="Georgia,Georgia" font-size="65.0" fill="#000000" transform="matrix(1.00, 0.00, -0.00, -1.00, 572.5, 692.9)">h</text><text xml:space="preserve" font-family="Georgia,Georgia" font-size="65.0" fill="#000000" transform="matrix(1.00, 0.00, -0.00, -1.00, 610.3, 692.9)">t</text><text xml:space="preserve" font-family="Georgia,Georgia" font-size="65.0" fill="#000000" transform="matrix(1.00, 0.00, -0.00, -1.00, 632.8, 692.9)">ä</text><text xml:space="preserve" font-family="Georgia,Georgia" font-size="65.0" fill="#000000" transform="matrix(1.00, 0.00, -0.00, -1.00, 665.5, 692.9)">v</text><text xml:space="preserve" font-family="Georgia,Georgia" font-size="65.0" fill="#000000" transform="matrix(1.00, 0.00, -0.00, -1.00, 697.8, 692.9)">ä</text><text xml:space="preserve" font-family="Georgia,Georgia" font-size="32.0" fill="#000000" transform="matrix(1.00, 0.00, -0.00, -1.00, 45.1, 593.5)">P</text><text xml:space="preserve" font-family="Georgia,Georgia" font-size="32.0" fill="#000000" transform="matrix(1.00, 0.00, -0.00, -1.00, 64.7, 593.5)">o</text><text xml:space="preserve" font-family="Georgia,Georgia" font-size="32.0" fill="#000000" transform="matrix(1.00, 0.00, -0.00, -1.00, 81.9, 593.5)">l</text><text xml:space="preserve" font-family="Georgia,Georgia" font-size="32.0" fill="#000000" transform="matrix(1.00, 0.00, -0.00, -1.00, 91.1, 593.5)">k</text><text xml:space="preserve" font-family="Georgia,Georgia" font-size="32.0" fill="#000000" transform="matrix(1.00, 0.00, -0.00, -1.00, 108.2, 593.5)">u</text><text xml:space="preserve" font-family="Georgia,Georgia" font-size="32.0" fill="#000000" transform="matrix(1.00, 0.00, -0.00, -1.00, 126.6, 593.5)">p</text><text xml:space="preserve" font-family="Georgia,Georgia" font-size="32.0" fill="#000000" transform="matrix(1.00, 0.00, -0.00, -1.00, 144.9, 593.5)">y</text><text xml:space="preserve" font-family="Georgia,Georgia" font-size="32.0" fill="#000000" transform="matrix(1.00, 0.00, -0.00, -1.00, 160.7, 593.5)">ö</text><text xml:space="preserve" font-family="Georgia,Georgia" font-size="32.0" fill="#000000" transform="matrix(1.00, 0.00, -0.00, -1.00, 177.9, 593.5)">r</text><text xml:space="preserve" font-family="Georgia,Georgia" font-size="32.0" fill="#000000" transform="matrix(1.00, 0.00, -0.00, -1.00, 191.0, 593.5)">ä</text><text xml:space="preserve" font-family="Georgia,Georgia" font-size="32.0" fill="#000000" transform="matrix(1.00, 0.00, -0.00, -1.00, 207.1, 593.5)">i</text><text xml:space="preserve" font-family="Georgia,Georgia" font-size="32.0" fill="#000000" transform="matrix(1.00, 0.00, -0.00, -1.00, 216.5, 593.5)">l</text><text xml:space="preserve" font-family="Georgia,Georgia" font-size="32.0" fill="#000000" transform="matrix(1.00, 0.00, -0.00, -1.00, 225.7, 593.5)">i</text><text xml:space="preserve" font-family="Georgia,Georgia" font-size="32.0" fill="#000000" transform="matrix(1.00, 0.00, -0.00, -1.00, 235.0, 593.5)">j</text><text xml:space="preserve" font-family="Georgia,Georgia" font-size="32.0" fill="#000000" transform="matrix(1.00, 0.00, -0.00, -1.00, 244.4, 593.5)">ä</text><text xml:space="preserve" font-family="Georgia,Georgia" font-size="32.0" fill="#000000" transform="matrix(1.00, 0.00, -0.00, -1.00, 260.5, 593.5)">n</text><text xml:space="preserve" font-family="Georgia,Georgia" font-size="32.0" fill="#000000" transform="matrix(1.00, 0.00, -0.00, -1.00, 279.4, 593.5)"> </text><text xml:space="preserve" font-family="Georgia,Georgia" font-size="32.0" fill="#000000" transform="matrix(1.00, 0.00, -0.00, -1.00, 287.1, 593.5)">k</text><text xml:space="preserve" font-family="Georgia,Georgia" font-size="32.0" fill="#000000" transform="matrix(1.00, 0.00, -0.00, -1.00, 304.3, 593.5)">o</text><text xml:space="preserve" font-family="Georgia,Georgia" font-size="32.0" fill="#000000" transform="matrix(1.00, 0.00, -0.00, -1.00, 321.5, 593.5)">k</text><text xml:space="preserve" font-family="Georgia,Georgia" font-size="32.0" fill="#000000" transform="matrix(1.00, 0.00, -0.00, -1.00, 338.6, 593.5)">o</text><text xml:space="preserve" font-family="Georgia,Georgia" font-size="32.0" fill="#000000" transform="matrix(1.00, 0.00, -0.00, -1.00, 355.9, 593.5)">n</text><text xml:space="preserve" font-family="Georgia,Georgia" font-size="32.0" fill="#000000" transform="matrix(1.00, 0.00, -0.00, -1.00, 374.8, 593.5)">a</text><text xml:space="preserve" font-family="Georgia,Georgia" font-size="32.0" fill="#000000" transform="matrix(1.00, 0.00, -0.00, -1.00, 390.9, 593.5)">i</text><text xml:space="preserve" font-family="Georgia,Georgia" font-size="32.0" fill="#000000" transform="matrix(1.00, 0.00, -0.00, -1.00, 400.3, 593.5)">s</text><text xml:space="preserve" font-family="Georgia,Georgia" font-size="32.0" fill="#000000" transform="matrix(1.00, 0.00, -0.00, -1.00, 414.1, 593.5)">m</text><text xml:space="preserve" font-family="Georgia,Georgia" font-size="32.0" fill="#000000" transform="matrix(1.00, 0.00, -0.00, -1.00, 442.3, 593.5)">a</text><text xml:space="preserve" font-family="Georgia,Georgia" font-size="32.0" fill="#000000" transform="matrix(1.00, 0.00, -0.00, -1.00, 458.4, 593.5)">s</text><text xml:space="preserve" font-family="Georgia,Georgia" font-size="32.0" fill="#000000" transform="matrix(1.00, 0.00, -0.00, -1.00, 472.3, 593.5)">s</text><text xml:space="preserve" font-family="Georgia,Georgia" font-size="32.0" fill="#000000" transform="matrix(1.00, 0.00, -0.00, -1.00, 486.1, 593.5)">a</text><text xml:space="preserve" font-family="Georgia,Georgia" font-size="32.0" fill="#000000" transform="matrix(1.00, 0.00, -0.00, -1.00, 502.2, 593.5)"> </text><text xml:space="preserve" font-family="Georgia,Georgia" font-size="32.0" fill="#000000" transform="matrix(1.00, 0.00, -0.00, -1.00, 509.9, 593.5)">o</text><text xml:space="preserve" font-family="Georgia,Georgia" font-size="32.0" fill="#000000" transform="matrix(1.00, 0.00, -0.00, -1.00, 527.2, 593.5)">n</text><text xml:space="preserve" font-family="Georgia,Georgia" font-size="32.0" fill="#000000" transform="matrix(1.00, 0.00, -0.00, -1.00, 546.1, 593.5)"> </text><text xml:space="preserve" font-family="Georgia,Georgia" font-size="32.0" fill="#000000" transform="matrix(1.00, 0.00, -0.00, -1.00, 553.8, 593.5)">1</text><text xml:space="preserve" font-family="Georgia,Georgia" font-size="32.0" fill="#000000" transform="matrix(1.00, 0.00, -0.00, -1.00, 567.6, 593.5)">2</text><text xml:space="preserve" font-family="Georgia,Georgia" font-size="32.0" fill="#000000" transform="matrix(1.00, 0.00, -0.00, -1.00, 585.4, 593.5)">5</text><text xml:space="preserve" font-family="Georgia,Georgia" font-size="32.0" fill="#000000" transform="matrix(1.00, 0.00, -0.00, -1.00, 602.3, 593.5)">k</text><text xml:space="preserve" font-family="Georgia,Georgia" font-size="32.0" fill="#000000" transform="matrix(1.00, 0.00, -0.00, -1.00, 619.5, 593.5)">g</text><text xml:space="preserve" font-family="Georgia,Georgia" font-size="32.0" fill="#000000" transform="matrix(1.00, 0.00, -0.00, -1.00, 635.8, 593.5)">.</text><text xml:space="preserve" font-family="Georgia,Georgia" font-size="32.0" fill="#000000" transform="matrix(1.00, 0.00, -0.00, -1.00, 644.4, 593.5)"> </text><text xml:space="preserve" font-family="Georgia,Georgia" font-size="32.0" fill="#000000" transform="matrix(1.00, 0.00, -0.00, -1.00, 652.1, 593.5)">M</text><text xml:space="preserve" font-family="Georgia,Georgia" font-size="32.0" fill="#000000" transform="matrix(1.00, 0.00, -0.00, -1.00, 681.8, 593.5)">i</text><text xml:space="preserve" font-family="Georgia,Georgia" font-size="32.0" fill="#000000" transform="matrix(1.00, 0.00, -0.00, -1.00, 691.2, 593.5)">k</text><text xml:space="preserve" font-family="Georgia,Georgia" font-size="32.0" fill="#000000" transform="matrix(1.00, 0.00, -0.00, -1.00, 708.3, 593.5)">ä</text><text xml:space="preserve" font-family="Georgia,Georgia" font-size="32.0" fill="#000000" transform="matrix(1.00, 0.00, -0.00, -1.00, 724.4, 593.5)"> </text><text xml:space="preserve" font-family="Georgia,Georgia" font-size="32.0" fill="#000000" transform="matrix(1.00, 0.00, -0.00, -1.00, 732.1, 593.5)">o</text><text xml:space="preserve" font-family="Georgia,Georgia" font-size="32.0" fill="#000000" transform="matrix(1.00, 0.00, -0.00, -1.00, 749.4, 593.5)">n</text><text xml:space="preserve" font-family="Georgia,Georgia" font-size="32.0" fill="#000000" transform="matrix(1.00, 0.00, -0.00, -1.00, 768.3, 593.5)"> </text><text xml:space="preserve" font-family="Georgia,Georgia" font-size="32.0" fill="#000000" transform="matrix(1.00, 0.00, -0.00, -1.00, 776.0, 593.5)">h</text><text xml:space="preserve" font-family="Georgia,Georgia" font-size="32.0" fill="#000000" transform="matrix(1.00, 0.00, -0.00, -1.00, 794.6, 593.5)">ä</text><text xml:space="preserve" font-family="Georgia,Georgia" font-size="32.0" fill="#000000" transform="matrix(1.00, 0.00, -0.00, -1.00, 810.8, 593.5)">n</text><text xml:space="preserve" font-family="Georgia,Georgia" font-size="32.0" fill="#000000" transform="matrix(1.00, 0.00, -0.00, -1.00, 829.7, 593.5)">e</text><text xml:space="preserve" font-family="Georgia,Georgia" font-size="32.0" fill="#000000" transform="matrix(1.00, 0.00, -0.00, -1.00, 845.1, 593.5)">n</text><text xml:space="preserve" font-family="Georgia,Georgia" font-size="32.0" fill="#000000" transform="matrix(1.00, 0.00, -0.00, -1.00, 864.0, 593.5)"> </text><text xml:space="preserve" font-family="Georgia,Georgia" font-size="32.0" fill="#000000" transform="matrix(1.00, 0.00, -0.00, -1.00, 871.8, 593.5)">l</text><text xml:space="preserve" font-family="Georgia,Georgia" font-size="32.0" fill="#000000" transform="matrix(1.00, 0.00, -0.00, -1.00, 880.9, 593.5)">i</text><text xml:space="preserve" font-family="Georgia,Georgia" font-size="32.0" fill="#000000" transform="matrix(1.00, 0.00, -0.00, -1.00, 890.3, 593.5)">i</text><text xml:space="preserve" font-family="Georgia,Georgia" font-size="32.0" fill="#000000" transform="matrix(1.00, 0.00, -0.00, -1.00, 899.7, 593.5)">k</text><text xml:space="preserve" font-family="Georgia,Georgia" font-size="32.0" fill="#000000" transform="matrix(1.00, 0.00, -0.00, -1.00, 916.8, 593.5)">e</text><text xml:space="preserve" font-family="Georgia,Georgia" font-size="32.0" fill="#000000" transform="matrix(1.00, 0.00, -0.00, -1.00, 932.3, 593.5)">-</text><text xml:space="preserve" font-family="Georgia,Georgia" font-size="32.0" fill="#000000" transform="matrix(1.00, 0.00, -0.00, -1.00, 45.1, 557.5)">e</text><text xml:space="preserve" font-family="Georgia,Georgia" font-size="32.0" fill="#000000" transform="matrix(1.00, 0.00, -0.00, -1.00, 60.6, 557.5)">n</text><text xml:space="preserve" font-family="Georgia,Georgia" font-size="32.0" fill="#000000" transform="matrix(1.00, 0.00, -0.00, -1.00, 79.5, 557.5)">e</text><text xml:space="preserve" font-family="Georgia,Georgia" font-size="32.0" fill="#000000" transform="matrix(1.00, 0.00, -0.00, -1.00, 95.0, 557.5)">r</text><text xml:space="preserve" font-family="Georgia,Georgia" font-size="32.0" fill="#000000" transform="matrix(1.00, 0.00, -0.00, -1.00, 108.1, 557.5)">g</text><text xml:space="preserve" font-family="Georgia,Georgia" font-size="32.0" fill="#000000" transform="matrix(1.00, 0.00, -0.00, -1.00, 124.4, 557.5)">i</text><text xml:space="preserve" font-family="Georgia,Georgia" font-size="32.0" fill="#000000" transform="matrix(1.00, 0.00, -0.00, -1.00, 133.8, 557.5)">a</text><text xml:space="preserve" font-family="Georgia,Georgia" font-size="32.0" fill="#000000" transform="matrix(1.00, 0.00, -0.00, -1.00, 149.9, 557.5)">n</text><text xml:space="preserve" font-family="Georgia,Georgia" font-size="32.0" fill="#000000" transform="matrix(1.00, 0.00, -0.00, -1.00, 168.8, 557.5)">s</text><text xml:space="preserve" font-family="Georgia,Georgia" font-size="32.0" fill="#000000" transform="matrix(1.00, 0.00, -0.00, -1.00, 182.6, 557.5)">a</text><text xml:space="preserve" font-family="Georgia,Georgia" font-size="32.0" fill="#000000" transform="matrix(1.00, 0.00, -0.00, -1.00, 198.8, 557.5)"> </text><text xml:space="preserve" font-family="Georgia,Georgia" font-size="32.0" fill="#000000" transform="matrix(1.00, 0.00, -0.00, -1.00, 206.5, 557.5)">k</text><text xml:space="preserve" font-family="Georgia,Georgia" font-size="32.0" fill="#000000" transform="matrix(1.00, 0.00, -0.00, -1.00, 223.6, 557.5)">u</text><text xml:space="preserve" font-family="Georgia,Georgia" font-size="32.0" fill="#000000" transform="matrix(1.00, 0.00, -0.00, -1.00, 242.0, 557.5)">n</text><text xml:space="preserve" font-family="Georgia,Georgia" font-size="32.0" fill="#000000" transform="matrix(1.00, 0.00, -0.00, -1.00, 260.9, 557.5)"> </text><text xml:space="preserve" font-family="Georgia,Georgia" font-size="32.0" fill="#000000" transform="matrix(1.00, 0.00, -0.00, -1.00, 268.7, 557.5)">n</text><text xml:space="preserve" font-family="Georgia,Georgia" font-size="32.0" fill="#000000" transform="matrix(1.00, 0.00, -0.00, -1.00, 287.6, 557.5)">o</text><text xml:space="preserve" font-family="Georgia,Georgia" font-size="32.0" fill="#000000" transform="matrix(1.00, 0.00, -0.00, -1.00, 304.8, 557.5)">p</text><text xml:space="preserve" font-family="Georgia,Georgia" font-size="32.0" fill="#000000" transform="matrix(1.00, 0.00, -0.00, -1.00, 323.1, 557.5)">e</text><text xml:space="preserve" font-family="Georgia,Georgia" font-size="32.0" fill="#000000" transform="matrix(1.00, 0.00, -0.00, -1.00, 338.6, 557.5)">u</text><text xml:space="preserve" font-family="Georgia,Georgia" font-size="32.0" fill="#000000" transform="matrix(1.00, 0.00, -0.00, -1.00, 357.0, 557.5)">s</text><text xml:space="preserve" font-family="Georgia,Georgia" font-size="32.0" fill="#000000" transform="matrix(1.00, 0.00, -0.00, -1.00, 370.8, 557.5)"> </text><text xml:space="preserve" font-family="Georgia,Georgia" font-size="32.0" fill="#000000" transform="matrix(1.00, 0.00, -0.00, -1.00, 378.5, 557.5)">o</text><text xml:space="preserve" font-family="Georgia,Georgia" font-size="32.0" fill="#000000" transform="matrix(1.00, 0.00, -0.00, -1.00, 395.8, 557.5)">n</text><text xml:space="preserve" font-family="Georgia,Georgia" font-size="32.0" fill="#000000" transform="matrix(1.00, 0.00, -0.00, -1.00, 414.7, 557.5)"> </text><text xml:space="preserve" font-family="Georgia,Georgia" font-size="32.0" fill="#000000" transform="matrix(1.00, 0.00, -0.00, -1.00, 422.4, 557.5)"> </text><text xml:space="preserve" font-family="Georgia,Georgia" font-size="32.0" fill="#000000" transform="matrix(1.00, 0.00, -0.00, -1.00, 45.1, 521.5)">a</text><text xml:space="preserve" font-family="Georgia,Georgia" font-size="32.0" fill="#000000" transform="matrix(1.00, 0.00, -0.00, -1.00, 61.3, 521.5)">)</text><text xml:space="preserve" font-family="Georgia,Georgia" font-size="32.0" fill="#000000" transform="matrix(1.00, 0.00, -0.00, -1.00, 73.3, 521.5)"> </text><text xml:space="preserve" font-family="Georgia,Georgia" font-size="32.0" fill="#000000" transform="matrix(1.00, 0.00, -0.00, -1.00, 81.0, 521.5)">0</text><text xml:space="preserve" font-family="Georgia,Georgia" font-size="32.0" fill="#000000" transform="matrix(1.00, 0.00, -0.00, -1.00, 100.6, 521.5)"> </text><text xml:space="preserve" font-family="Georgia,Georgia" font-size="32.0" fill="#000000" transform="matrix(1.00, 0.00, -0.00, -1.00, 108.4, 521.5)">m</text><text xml:space="preserve" font-family="Georgia,Georgia" font-size="32.0" fill="#000000" transform="matrix(1.00, 0.00, -0.00, -1.00, 136.6, 521.5)">/</text><text xml:space="preserve" font-family="Georgia,Georgia" font-size="32.0" fill="#000000" transform="matrix(1.00, 0.00, -0.00, -1.00, 151.5, 521.5)">s</text><text xml:space="preserve" font-family="Georgia,Georgia" font-size="32.0" fill="#000000" transform="matrix(1.00, 0.00, -0.00, -1.00, 165.4, 521.5)"> </text><text xml:space="preserve" font-family="Georgia,Georgia" font-size="32.0" fill="#000000" transform="matrix(1.00, 0.00, -0.00, -1.00, 45.1, 398.5)">b</text><text xml:space="preserve" font-family="Georgia,Georgia" font-size="32.0" fill="#000000" transform="matrix(1.00, 0.00, -0.00, -1.00, 63.1, 398.5)">)</text><text xml:space="preserve" font-family="Georgia,Georgia" font-size="32.0" fill="#000000" transform="matrix(1.00, 0.00, -0.00, -1.00, 75.1, 398.5)"> </text><text xml:space="preserve" font-family="Georgia,Georgia" font-size="32.0" fill="#000000" transform="matrix(1.00, 0.00, -0.00, -1.00, 82.8, 398.5)">4</text><text xml:space="preserve" font-family="Georgia,Georgia" font-size="32.0" fill="#000000" transform="matrix(1.00, 0.00, -0.00, -1.00, 100.9, 398.5)"> </text><text xml:space="preserve" font-family="Georgia,Georgia" font-size="32.0" fill="#000000" transform="matrix(1.00, 0.00, -0.00, -1.00, 108.6, 398.5)">m</text><text xml:space="preserve" font-family="Georgia,Georgia" font-size="32.0" fill="#000000" transform="matrix(1.00, 0.00, -0.00, -1.00, 136.8, 398.5)">/</text><text xml:space="preserve" font-family="Georgia,Georgia" font-size="32.0" fill="#000000" transform="matrix(1.00, 0.00, -0.00, -1.00, 151.8, 398.5)">s</text><text xml:space="preserve" font-family="Georgia,Georgia" font-size="32.0" fill="#000000" transform="matrix(1.00, 0.00, -0.00, -1.00, 165.6, 398.5)"> </text><text xml:space="preserve" font-family="Georgia,Georgia" font-size="32.0" fill="#000000" transform="matrix(1.00, 0.00, -0.00, -1.00, 45.1, 275.5)">c</text><text xml:space="preserve" font-family="Georgia,Georgia" font-size="32.0" fill="#000000" transform="matrix(1.00, 0.00, -0.00, -1.00, 59.7, 275.5)">)</text><text xml:space="preserve" font-family="Georgia,Georgia" font-size="32.0" fill="#000000" transform="matrix(1.00, 0.00, -0.00, -1.00, 71.7, 275.5)"> </text><text xml:space="preserve" font-family="Georgia,Georgia" font-size="32.0" fill="#000000" transform="matrix(1.00, 0.00, -0.00, -1.00, 79.4, 275.5)">8</text><text xml:space="preserve" font-family="Georgia,Georgia" font-size="32.0" fill="#000000" transform="matrix(1.00, 0.00, -0.00, -1.00, 98.5, 275.5)"> </text><text xml:space="preserve" font-family="Georgia,Georgia" font-size="32.0" fill="#000000" transform="matrix(1.00, 0.00, -0.00, -1.00, 106.2, 275.5)">m</text><text xml:space="preserve" font-family="Georgia,Georgia" font-size="32.0" fill="#000000" transform="matrix(1.00, 0.00, -0.00, -1.00, 134.4, 275.5)">/</text><text xml:space="preserve" font-family="Georgia,Georgia" font-size="32.0" fill="#000000" transform="matrix(1.00, 0.00, -0.00, -1.00, 149.4, 275.5)">s</text><text xml:space="preserve" font-family="Georgia,Georgia" font-size="32.0" fill="#000000" transform="matrix(1.00, 0.00, -0.00, -1.00, 163.2, 275.5)"> </text><text xml:space="preserve" font-family="Georgia,Georgia" font-size="32.0" fill="#000000" transform="matrix(1.00, 0.00, -0.00, -1.00, 45.1, 152.5)">d</text><text xml:space="preserve" font-family="Georgia,Georgia" font-size="32.0" fill="#000000" transform="matrix(1.00, 0.00, -0.00, -1.00, 63.5, 152.5)">)</text><text xml:space="preserve" font-family="Georgia,Georgia" font-size="32.0" fill="#000000" transform="matrix(1.00, 0.00, -0.00, -1.00, 75.5, 152.5)">1</text><text xml:space="preserve" font-family="Georgia,Georgia" font-size="32.0" fill="#000000" transform="matrix(1.00, 0.00, -0.00, -1.00, 89.3, 152.5)">8</text><text xml:space="preserve" font-family="Georgia,Georgia" font-size="32.0" fill="#000000" transform="matrix(1.00, 0.00, -0.00, -1.00, 108.4, 152.5)"> </text><text xml:space="preserve" font-family="Georgia,Georgia" font-size="32.0" fill="#000000" transform="matrix(1.00, 0.00, -0.00, -1.00, 116.1, 152.5)">k</text><text xml:space="preserve" font-family="Georgia,Georgia" font-size="32.0" fill="#000000" transform="matrix(1.00, 0.00, -0.00, -1.00, 133.2, 152.5)">m</text><text xml:space="preserve" font-family="Georgia,Georgia" font-size="32.0" fill="#000000" transform="matrix(1.00, 0.00, -0.00, -1.00, 161.4, 152.5)">/</text><text xml:space="preserve" font-family="Georgia,Georgia" font-size="32.0" fill="#000000" transform="matrix(1.00, 0.00, -0.00, -1.00, 176.4, 152.5)">h</text><text xml:space="preserve" font-family="Georgia,Georgia" font-size="32.0" fill="#000000" transform="matrix(1.00, 0.00, -0.00, -1.00, 304.9, 467.4)">=</text><text xml:space="preserve" font-family="Georgia,Georgia" font-size="32.0" fill="#000000" transform="matrix(1.00, 0.00, -0.00, -1.00, 325.4, 467.4)"> </text><text xml:space="preserve" font-family="Georgia,Georgia" font-size="32.0" fill="#000000" transform="matrix(1.00, 0.00, -0.00, -1.00, 333.2, 467.4)">0</text><text xml:space="preserve" font-family="Georgia,Georgia" font-size="32.0" fill="#000000" transform="matrix(1.00, 0.00, -0.00, -1.00, 352.8, 467.4)">,</text><text xml:space="preserve" font-family="Georgia,Georgia" font-size="32.0" fill="#000000" transform="matrix(1.00, 0.00, -0.00, -1.00, 361.4, 467.4)">5</text><text xml:space="preserve" font-family="Georgia,Georgia" font-size="32.0" fill="#000000" transform="matrix(1.00, 0.00, -0.00, -1.00, 378.3, 467.4)"> </text><text xml:space="preserve" font-family="EuphemiaUCAS,Euphemia UCAS" font-size="32.0" fill="#000000" transform="matrix(1.00, 0.00, -0.00, -1.00, 386.1, 467.4)">ᐧ</text><text xml:space="preserve" font-family="Georgia,Georgia" font-size="32.0" fill="#000000" transform="matrix(1.00, 0.00, -0.00, -1.00, 392.7, 467.4)"> </text><text xml:space="preserve" font-family="Georgia,Georgia" font-size="32.0" fill="#000000" transform="matrix(1.00, 0.00, -0.00, -1.00, 400.4, 467.4)">1</text><text xml:space="preserve" font-family="Georgia,Georgia" font-size="32.0" fill="#000000" transform="matrix(1.00, 0.00, -0.00, -1.00, 414.2, 467.4)">2</text><text xml:space="preserve" font-family="Georgia,Georgia" font-size="32.0" fill="#000000" transform="matrix(1.00, 0.00, -0.00, -1.00, 432.0, 467.4)">5</text><text xml:space="preserve" font-family="Georgia,Georgia" font-size="32.0" fill="#000000" transform="matrix(1.00, 0.00, -0.00, -1.00, 448.9, 467.4)"> </text><text xml:space="preserve" font-family="Georgia,Georgia" font-size="32.0" fill="#000000" transform="matrix(1.00, 0.00, -0.00, -1.00, 456.6, 467.4)">k</text><text xml:space="preserve" font-family="Georgia,Georgia" font-size="32.0" fill="#000000" transform="matrix(1.00, 0.00, -0.00, -1.00, 473.8, 467.4)">g</text><text xml:space="preserve" font-family="Georgia,Georgia" font-size="32.0" fill="#000000" transform="matrix(1.00, 0.00, -0.00, -1.00, 490.1, 467.4)"> </text><text xml:space="preserve" font-family="EuphemiaUCAS,Euphemia UCAS" font-size="32.0" fill="#000000" transform="matrix(1.00, 0.00, -0.00, -1.00, 497.8, 467.4)">ᐧ</text><text xml:space="preserve" font-family="Georgia,Georgia" font-size="32.0" fill="#000000" transform="matrix(1.00, 0.00, -0.00, -1.00, 504.5, 467.4)"> </text><text xml:space="preserve" font-family="Georgia,Georgia" font-size="32.0" fill="#000000" transform="matrix(1.00, 0.00, -0.00, -1.00, 512.2, 467.4)">(</text><text xml:space="preserve" font-family="Georgia,Georgia" font-size="32.0" fill="#000000" transform="matrix(1.00, 0.00, -0.00, -1.00, 524.2, 467.4)">0</text><text xml:space="preserve" font-family="Georgia,Georgia" font-size="32.0" fill="#000000" transform="matrix(1.00, 0.00, -0.00, -1.00, 543.8, 467.4)"> </text><text xml:space="preserve" font-family="Georgia,Georgia" font-size="32.0" fill="#000000" transform="matrix(1.00, 0.00, -0.00, -1.00, 551.6, 467.4)">m</text><text xml:space="preserve" font-family="Georgia,Georgia" font-size="32.0" fill="#000000" transform="matrix(1.00, 0.00, -0.00, -1.00, 579.8, 467.4)">/</text><text xml:space="preserve" font-family="Georgia,Georgia" font-size="32.0" fill="#000000" transform="matrix(1.00, 0.00, -0.00, -1.00, 594.7, 467.4)">s</text><text xml:space="preserve" font-family="Georgia,Georgia" font-size="32.0" fill="#000000" transform="matrix(1.00, 0.00, -0.00, -1.00, 608.6, 467.4)">)</text><text xml:space="preserve" font-family="Georgia,Georgia" font-size="21.3" fill="#000000" transform="matrix(1.00, 0.00, -0.00, -1.00, 620.6, 477.2)">2</text><text xml:space="preserve" font-family="Georgia,Georgia" font-size="32.0" fill="#000000" transform="matrix(1.00, 0.00, -0.00, -1.00, 632.5, 467.4)"> </text><text xml:space="preserve" font-family="Georgia,Georgia" font-size="32.0" fill="#000000" transform="matrix(1.00, 0.00, -0.00, -1.00, 640.2, 467.4)">=</text><text xml:space="preserve" font-family="Georgia,Georgia" font-size="32.0" fill="#000000" transform="matrix(1.00, 0.00, -0.00, -1.00, 660.8, 467.4)"> </text><text xml:space="preserve" font-family="Georgia,Georgia" font-size="32.0" fill="#000000" transform="matrix(1.00, 0.00, -0.00, -1.00, 668.5, 467.4)">0</text><text xml:space="preserve" font-family="Georgia,Georgia" font-size="32.0" fill="#000000" transform="matrix(1.00, 0.00, -0.00, -1.00, 688.2, 467.4)"> </text><text xml:space="preserve" font-family="Georgia,Georgia" font-size="32.0" fill="#000000" transform="matrix(1.00, 0.00, -0.00, -1.00, 695.9, 467.4)">J</text><g><clipPath id="clip0x6080016a7bc0"><path d="M 132.0 511.0 L 296.0 511.0 L 296.0 439.0 L 132.0 439.0 Z M 132.1 511.2 "></path></clipPath><g clip-path="url(#clip0x6080016a7bc0)"><g><clipPath id="clip0x6080014a40e0"><path d="M 136.4 444.0 L 291.8 444.0 L 291.8 507.4 L 136.4 507.4 Z M 136.4 444.0 "></path></clipPath><g clip-path="url(#clip0x6080014a40e0)"><g><clipPath id="clip0x6080014b9140"><path d="M 136.4 444.0 L 291.8 444.0 L 291.8 507.4 L 136.4 507.4 Z M 136.4 444.0 "></path></clipPath><g clip-path="url(#clip0x6080014b9140)"><path d="M 157.2 472.9 C 157.3 473.1 157.4 473.3 157.4 473.4 C 157.4 473.4 157.4 473.7 157.0 473.7 C 156.7 473.7 156.7 473.5 156.6 473.3 C 154.6 468.8 153.5 466.7 148.2 466.7 L 143.7 466.7 C 143.3 466.7 143.2 466.7 143.0 466.7 C 142.7 466.8 142.6 466.8 142.6 467.0 C 142.6 467.1 142.6 467.2 142.8 467.7 L 144.9 476.2 L 147.9 476.2 C 150.5 476.2 150.5 475.5 150.5 474.8 C 150.5 474.5 150.5 474.2 150.3 473.2 C 150.3 473.1 150.2 473.0 150.2 472.9 C 150.2 472.7 150.4 472.6 150.6 472.6 C 150.9 472.6 151.0 472.7 151.1 473.2 L 152.9 480.4 C 152.9 480.6 152.7 480.7 152.5 480.7 C 152.2 480.7 152.1 480.5 152.1 480.2 C 151.4 477.8 150.8 477.1 148.0 477.1 L 145.1 477.1 L 147.0 484.5 C 147.2 485.6 147.3 485.7 148.6 485.7 L 153.0 485.7 C 156.7 485.7 157.7 484.8 157.7 482.3 C 157.7 481.6 157.7 481.5 157.5 480.7 C 157.5 480.5 157.5 480.3 157.5 480.1 C 157.5 480.0 157.6 479.8 157.9 479.8 C 158.2 479.8 158.2 480.0 158.3 480.5 L 158.9 485.8 C 159.0 486.7 158.9 486.7 158.1 486.7 L 142.5 486.7 C 141.9 486.7 141.6 486.7 141.6 486.1 C 141.6 485.7 141.9 485.7 142.5 485.7 C 143.6 485.7 144.5 485.7 144.5 485.2 C 144.5 485.0 144.5 485.0 144.3 484.4 L 140.2 468.2 C 139.9 466.9 139.9 466.7 137.4 466.7 C 136.9 466.7 136.6 466.7 136.6 466.1 C 136.6 465.8 136.8 465.8 137.4 465.8 L 153.4 465.8 C 154.2 465.8 154.2 465.8 154.4 466.3 L 157.2 472.9 " fill="#000000"></path><path d="M 164.9 475.4 C 164.9 475.4 165.0 475.7 165.0 475.7 C 165.0 475.9 164.9 476.0 164.6 476.0 C 164.2 476.0 162.4 475.9 161.9 475.8 C 161.7 475.8 161.4 475.8 161.4 475.3 C 161.4 475.0 161.7 475.0 162.0 475.0 C 163.0 475.0 163.0 474.9 163.0 474.7 C 163.0 474.5 163.0 474.4 162.9 474.2 L 159.9 462.1 C 159.8 461.7 159.8 461.6 159.8 461.6 C 159.8 461.3 160.0 460.9 160.5 460.9 C 161.1 460.9 161.4 461.3 161.5 461.8 C 161.5 461.9 162.5 465.7 162.5 466.0 C 164.1 465.8 165.3 465.3 165.3 464.2 C 165.3 464.1 165.3 464.0 165.3 463.8 C 165.2 463.5 165.2 463.4 165.2 463.1 C 165.2 461.6 166.4 460.9 167.5 460.9 C 169.5 460.9 170.2 464.2 170.2 464.2 C 170.2 464.5 169.9 464.5 169.8 464.5 C 169.5 464.5 169.5 464.4 169.4 464.0 C 169.2 463.0 168.6 461.5 167.5 461.5 C 166.9 461.5 166.8 462.0 166.8 462.6 C 166.8 463.0 166.8 463.0 166.9 463.6 C 166.9 463.7 167.0 464.0 167.0 464.3 C 167.0 466.2 164.4 466.5 163.5 466.5 C 164.1 466.9 164.9 467.6 165.3 468.0 C 166.4 469.0 167.5 470.0 168.7 470.0 C 168.9 470.0 169.2 469.9 169.4 469.7 C 168.5 469.6 168.3 468.8 168.3 468.5 C 168.3 468.0 168.6 467.7 169.1 467.7 C 169.7 467.7 170.4 468.2 170.4 469.1 C 170.4 469.8 169.8 470.6 168.7 470.6 C 167.5 470.6 166.3 469.7 165.3 468.7 C 164.4 467.8 163.6 467.2 162.8 466.8 L 164.9 475.4 " fill="#000000"></path><path d="M 203.0 475.8 C 203.5 475.8 204.1 475.8 204.1 476.4 C 204.1 477.1 203.5 477.1 203.1 477.1 L 184.6 477.1 C 184.2 477.1 183.6 477.1 183.6 476.4 C 183.6 475.8 184.2 475.8 184.6 475.8 L 203.0 475.8 Z M 203.1 469.8 C 203.5 469.8 204.1 469.8 204.1 470.5 C 204.1 471.1 203.5 471.1 203.0 471.1 L 184.6 471.1 C 184.2 471.1 183.6 471.1 183.6 470.5 C 183.6 469.8 184.2 469.8 184.6 469.8 L 203.1 469.8 " fill="#000000"></path><path d="M 227.2 506.3 C 227.2 507.0 227.2 507.1 226.4 507.1 C 224.5 505.1 221.8 505.1 220.8 505.1 L 220.8 504.2 C 221.4 504.2 223.3 504.2 224.9 505.0 L 224.9 489.0 C 224.9 487.9 224.8 487.5 222.0 487.5 L 221.0 487.5 L 221.0 486.6 C 222.1 486.7 224.8 486.7 226.0 486.7 C 227.2 486.7 229.9 486.7 231.0 486.6 L 231.0 487.5 L 230.0 487.5 C 227.2 487.5 227.2 487.9 227.2 489.0 L 227.2 506.3 " fill="#000000"></path><path d="M 14.7 5.8 L 17.3 5.8 " fill="none" stroke="#000000" stroke-width="0.21" transform="matrix(5.85, 0.00, 0.00, 5.84, 132.1, 439.7)"></path><path d="M 222.0 447.0 L 225.3 450.2 C 230.1 454.5 231.9 456.1 231.9 459.2 C 231.9 462.7 229.2 465.2 225.4 465.2 C 221.9 465.2 219.6 462.3 219.6 459.6 C 219.6 457.9 221.2 457.9 221.3 457.9 C 221.8 457.9 222.9 458.3 222.9 459.5 C 222.9 460.3 222.3 461.1 221.2 461.1 C 221.0 461.1 220.9 461.1 220.8 461.1 C 221.5 463.1 223.2 464.2 225.0 464.2 C 227.8 464.2 229.1 461.7 229.1 459.2 C 229.1 456.7 227.6 454.3 225.9 452.4 L 220.0 445.8 C 219.6 445.5 219.6 445.4 219.6 444.7 L 231.1 444.7 L 231.9 450.0 L 231.2 450.0 C 231.0 449.1 230.8 447.8 230.5 447.3 C 230.3 447.0 228.2 447.0 227.5 447.0 L 222.0 447.0 " fill="#000000"></path><path d="M 239.9 467.6 C 239.8 467.1 239.6 466.4 239.6 466.2 C 239.6 465.7 240.0 465.4 240.5 465.4 C 240.9 465.4 241.4 465.7 241.6 466.3 C 241.7 466.3 242.0 467.8 242.2 468.5 L 242.9 471.3 C 243.1 472.0 243.3 472.7 243.4 473.4 C 243.5 473.9 243.8 474.8 243.8 474.9 C 244.3 475.9 245.9 478.7 248.8 478.7 C 250.2 478.7 250.5 477.5 250.5 476.5 C 250.5 475.8 250.3 474.9 250.0 474.0 L 249.2 470.4 L 248.6 468.1 C 248.4 467.5 248.2 466.4 248.2 466.2 C 248.2 465.7 248.6 465.4 249.1 465.4 C 250.0 465.4 250.2 466.2 250.4 467.2 C 250.9 468.9 252.0 473.4 252.3 474.6 C 252.4 475.0 254.0 478.7 257.4 478.7 C 258.7 478.7 259.1 477.6 259.1 476.5 C 259.1 474.8 257.7 471.3 257.1 469.6 C 256.9 468.9 256.7 468.5 256.7 467.9 C 256.7 466.5 257.8 465.4 259.3 465.4 C 262.2 465.4 263.3 469.9 263.3 470.2 C 263.3 470.5 263.0 470.5 262.9 470.5 C 262.6 470.5 262.6 470.4 262.5 469.9 C 262.0 468.3 261.0 466.1 259.3 466.1 C 258.8 466.1 258.6 466.4 258.6 467.1 C 258.6 467.9 258.9 468.6 259.1 469.3 C 259.7 470.9 261.0 474.3 261.0 476.1 C 261.0 478.1 259.8 479.4 257.5 479.4 C 255.2 479.4 253.6 478.0 252.4 476.4 C 252.4 476.8 252.3 477.8 251.5 478.6 C 250.7 479.2 249.7 479.4 248.9 479.4 C 246.2 479.4 244.6 477.4 244.1 476.7 C 244.0 478.4 242.7 479.4 241.3 479.4 C 239.9 479.4 239.3 478.2 239.0 477.6 C 238.5 476.5 238.0 474.7 238.0 474.6 C 238.0 474.3 238.4 474.3 238.4 474.3 C 238.7 474.3 238.7 474.3 238.9 475.0 C 239.5 477.2 240.1 478.7 241.2 478.7 C 241.7 478.7 242.2 478.4 242.2 477.3 C 242.2 476.6 242.1 476.3 241.7 474.7 L 239.9 467.6 " fill="#000000"></path><path d="M 278.6 477.2 C 278.6 478.9 277.8 479.4 277.3 479.4 C 276.5 479.4 275.8 478.6 275.8 477.9 C 275.8 477.5 275.9 477.3 276.2 477.0 C 276.9 476.4 277.3 475.6 277.3 474.4 C 277.3 473.1 275.4 466.1 271.8 466.1 C 270.2 466.1 269.5 467.2 269.5 468.8 C 269.5 470.5 270.4 472.7 271.3 475.3 C 271.5 475.8 271.7 476.3 271.7 476.8 C 271.7 478.2 270.7 479.4 269.2 479.4 C 266.3 479.4 265.1 474.9 265.1 474.6 C 265.1 474.3 265.4 474.3 265.5 474.3 C 265.8 474.3 265.8 474.4 266.0 474.9 C 266.8 478.0 268.2 478.7 269.1 478.7 C 269.3 478.7 269.8 478.7 269.8 477.7 C 269.8 476.9 269.5 476.1 269.3 475.6 C 268.0 472.0 267.6 470.6 267.6 469.2 C 267.6 465.9 270.3 465.4 271.7 465.4 C 276.9 465.4 278.6 475.6 278.6 477.2 " fill="#000000"></path><path d="M 291.1 482.4 L 290.4 482.4 C 290.3 481.9 290.1 480.6 289.8 480.4 C 289.7 480.3 288.0 480.3 287.7 480.3 L 283.7 480.3 C 286.0 482.3 286.8 482.9 288.0 483.9 C 289.6 485.1 291.1 486.5 291.1 488.5 C 291.1 491.1 288.8 492.7 286.1 492.7 C 283.4 492.7 281.6 490.8 281.6 488.9 C 281.6 487.8 282.5 487.7 282.7 487.7 C 283.3 487.7 283.9 488.0 283.9 488.8 C 283.9 489.2 283.7 489.9 282.6 489.9 C 283.3 491.5 284.8 491.9 285.8 491.9 C 287.9 491.9 289.0 490.3 289.0 488.5 C 289.0 486.6 287.7 485.2 287.0 484.4 L 281.8 479.3 C 281.6 479.1 281.6 479.0 281.6 478.4 L 290.5 478.4 L 291.1 482.4 " fill="#000000"></path></g></g></g></g></g></g><text xml:space="preserve" font-family="Georgia,Georgia" font-size="32.0" fill="#000000" transform="matrix(1.00, 0.00, -0.00, -1.00, 301.9, 343.4)">=</text><text xml:space="preserve" font-family="Georgia,Georgia" font-size="32.0" fill="#000000" transform="matrix(1.00, 0.00, -0.00, -1.00, 322.4, 343.4)"> </text><text xml:space="preserve" font-family="Georgia,Georgia" font-size="32.0" fill="#000000" transform="matrix(1.00, 0.00, -0.00, -1.00, 330.2, 343.4)">0</text><text xml:space="preserve" font-family="Georgia,Georgia" font-size="32.0" fill="#000000" transform="matrix(1.00, 0.00, -0.00, -1.00, 349.8, 343.4)">,</text><text xml:space="preserve" font-family="Georgia,Georgia" font-size="32.0" fill="#000000" transform="matrix(1.00, 0.00, -0.00, -1.00, 358.4, 343.4)">5</text><text xml:space="preserve" font-family="Georgia,Georgia" font-size="32.0" fill="#000000" transform="matrix(1.00, 0.00, -0.00, -1.00, 375.3, 343.4)"> </text><text xml:space="preserve" font-family="EuphemiaUCAS,Euphemia UCAS" font-size="32.0" fill="#000000" transform="matrix(1.00, 0.00, -0.00, -1.00, 383.1, 343.4)">ᐧ</text><text xml:space="preserve" font-family="Georgia,Georgia" font-size="32.0" fill="#000000" transform="matrix(1.00, 0.00, -0.00, -1.00, 389.7, 343.4)"> </text><text xml:space="preserve" font-family="Georgia,Georgia" font-size="32.0" fill="#000000" transform="matrix(1.00, 0.00, -0.00, -1.00, 397.4, 343.4)">1</text><text xml:space="preserve" font-family="Georgia,Georgia" font-size="32.0" fill="#000000" transform="matrix(1.00, 0.00, -0.00, -1.00, 411.2, 343.4)">2</text><text xml:space="preserve" font-family="Georgia,Georgia" font-size="32.0" fill="#000000" transform="matrix(1.00, 0.00, -0.00, -1.00, 429.0, 343.4)">5</text><text xml:space="preserve" font-family="Georgia,Georgia" font-size="32.0" fill="#000000" transform="matrix(1.00, 0.00, -0.00, -1.00, 445.9, 343.4)"> </text><text xml:space="preserve" font-family="Georgia,Georgia" font-size="32.0" fill="#000000" transform="matrix(1.00, 0.00, -0.00, -1.00, 453.6, 343.4)">k</text><text xml:space="preserve" font-family="Georgia,Georgia" font-size="32.0" fill="#000000" transform="matrix(1.00, 0.00, -0.00, -1.00, 470.8, 343.4)">g</text><text xml:space="preserve" font-family="Georgia,Georgia" font-size="32.0" fill="#000000" transform="matrix(1.00, 0.00, -0.00, -1.00, 487.1, 343.4)"> </text><text xml:space="preserve" font-family="EuphemiaUCAS,Euphemia UCAS" font-size="32.0" fill="#000000" transform="matrix(1.00, 0.00, -0.00, -1.00, 494.8, 343.4)">ᐧ</text><text xml:space="preserve" font-family="Georgia,Georgia" font-size="32.0" fill="#000000" transform="matrix(1.00, 0.00, -0.00, -1.00, 501.5, 343.4)"> </text><text xml:space="preserve" font-family="Georgia,Georgia" font-size="32.0" fill="#000000" transform="matrix(1.00, 0.00, -0.00, -1.00, 509.2, 343.4)">(</text><text xml:space="preserve" font-family="Georgia,Georgia" font-size="32.0" fill="#000000" transform="matrix(1.00, 0.00, -0.00, -1.00, 521.2, 343.4)">4</text><text xml:space="preserve" font-family="Georgia,Georgia" font-size="32.0" fill="#000000" transform="matrix(1.00, 0.00, -0.00, -1.00, 539.3, 343.4)"> </text><text xml:space="preserve" font-family="Georgia,Georgia" font-size="32.0" fill="#000000" transform="matrix(1.00, 0.00, -0.00, -1.00, 547.0, 343.4)">m</text><text xml:space="preserve" font-family="Georgia,Georgia" font-size="32.0" fill="#000000" transform="matrix(1.00, 0.00, -0.00, -1.00, 575.2, 343.4)">/</text><text xml:space="preserve" font-family="Georgia,Georgia" font-size="32.0" fill="#000000" transform="matrix(1.00, 0.00, -0.00, -1.00, 590.2, 343.4)">s</text><text xml:space="preserve" font-family="Georgia,Georgia" font-size="32.0" fill="#000000" transform="matrix(1.00, 0.00, -0.00, -1.00, 604.0, 343.4)">)</text><text xml:space="preserve" font-family="Georgia,Georgia" font-size="21.3" fill="#000000" transform="matrix(1.00, 0.00, -0.00, -1.00, 616.0, 353.2)">2</text><text xml:space="preserve" font-family="Georgia,Georgia" font-size="32.0" fill="#000000" transform="matrix(1.00, 0.00, -0.00, -1.00, 627.9, 343.4)"> </text><text xml:space="preserve" font-family="Georgia,Georgia" font-size="32.0" fill="#000000" transform="matrix(1.00, 0.00, -0.00, -1.00, 635.7, 343.4)">=</text><text xml:space="preserve" font-family="Georgia,Georgia" font-size="32.0" fill="#000000" transform="matrix(1.00, 0.00, -0.00, -1.00, 656.2, 343.4)"> </text><text xml:space="preserve" font-family="Georgia,Georgia" font-size="32.0" fill="#000000" transform="matrix(1.00, 0.00, -0.00, -1.00, 664.0, 343.4)">1</text><text xml:space="preserve" font-family="Georgia,Georgia" font-size="32.0" fill="#000000" transform="matrix(1.00, 0.00, -0.00, -1.00, 677.7, 343.4)">0</text><text xml:space="preserve" font-family="Georgia,Georgia" font-size="32.0" fill="#000000" transform="matrix(1.00, 0.00, -0.00, -1.00, 697.3, 343.4)">0</text><text xml:space="preserve" font-family="Georgia,Georgia" font-size="32.0" fill="#000000" transform="matrix(1.00, 0.00, -0.00, -1.00, 717.0, 343.4)">0</text><text xml:space="preserve" font-family="Georgia,Georgia" font-size="32.0" fill="#000000" transform="matrix(1.00, 0.00, -0.00, -1.00, 736.6, 343.4)"> </text><text xml:space="preserve" font-family="Georgia,Georgia" font-size="32.0" fill="#000000" transform="matrix(1.00, 0.00, -0.00, -1.00, 744.4, 343.4)">J</text><g><clipPath id="clip0x6080016a6240"><path d="M 129.0 387.0 L 293.0 387.0 L 293.0 315.0 L 129.0 315.0 Z M 129.1 387.1 "></path></clipPath><g clip-path="url(#clip0x6080016a6240)"><g><clipPath id="clip0x6080014b3620"><path d="M 133.4 320.0 L 288.8 320.0 L 288.8 383.4 L 133.4 383.4 Z M 133.4 320.0 "></path></clipPath><g clip-path="url(#clip0x6080014b3620)"><g><clipPath id="clip0x6080010ab0a0"><path d="M 133.4 320.0 L 288.8 320.0 L 288.8 383.4 L 133.4 383.4 Z M 133.4 320.0 "></path></clipPath><g clip-path="url(#clip0x6080010ab0a0)"><path d="M 154.2 348.9 C 154.3 349.1 154.4 349.3 154.4 349.4 C 154.4 349.4 154.4 349.7 154.0 349.7 C 153.7 349.7 153.7 349.5 153.6 349.3 C 151.6 344.8 150.5 342.7 145.2 342.7 L 140.7 342.7 C 140.3 342.7 140.2 342.7 140.0 342.7 C 139.7 342.8 139.6 342.8 139.6 343.0 C 139.6 343.1 139.6 343.2 139.8 343.7 L 141.9 352.2 L 144.9 352.2 C 147.5 352.2 147.5 351.5 147.5 350.8 C 147.5 350.5 147.5 350.2 147.3 349.2 C 147.3 349.1 147.2 349.0 147.2 348.9 C 147.2 348.7 147.4 348.6 147.6 348.6 C 147.9 348.6 148.0 348.7 148.1 349.2 L 149.9 356.4 C 149.9 356.6 149.7 356.7 149.5 356.7 C 149.2 356.7 149.1 356.5 149.1 356.2 C 148.4 353.8 147.8 353.1 145.0 353.1 L 142.1 353.1 L 144.0 360.5 C 144.2 361.6 144.3 361.7 145.6 361.7 L 150.0 361.7 C 153.7 361.7 154.7 360.8 154.7 358.3 C 154.7 357.6 154.7 357.5 154.5 356.7 C 154.5 356.5 154.5 356.3 154.5 356.1 C 154.5 356.0 154.6 355.8 154.9 355.8 C 155.2 355.8 155.2 356.0 155.3 356.5 L 155.9 361.8 C 156.0 362.7 155.9 362.7 155.1 362.7 L 139.5 362.7 C 138.9 362.7 138.6 362.7 138.6 362.1 C 138.6 361.7 138.9 361.7 139.5 361.7 C 140.6 361.7 141.5 361.7 141.5 361.2 C 141.5 361.0 141.5 361.0 141.3 360.4 L 137.2 344.2 C 136.9 342.9 136.9 342.7 134.4 342.7 C 133.9 342.7 133.6 342.7 133.6 342.1 C 133.6 341.8 133.8 341.8 134.4 341.8 L 150.4 341.8 C 151.2 341.8 151.2 341.8 151.4 342.3 L 154.2 348.9 " fill="#000000"></path><path d="M 161.9 351.4 C 161.9 351.4 162.0 351.7 162.0 351.7 C 162.0 351.9 161.9 352.0 161.6 352.0 C 161.2 352.0 159.4 351.9 158.9 351.8 C 158.7 351.8 158.4 351.8 158.4 351.3 C 158.4 351.0 158.7 351.0 159.0 351.0 C 160.0 351.0 160.0 350.9 160.0 350.7 C 160.0 350.5 160.0 350.4 159.9 350.2 L 156.9 338.1 C 156.8 337.7 156.8 337.6 156.8 337.6 C 156.8 337.3 157.0 336.9 157.5 336.9 C 158.1 336.9 158.4 337.3 158.5 337.8 C 158.5 337.9 159.5 341.7 159.5 342.0 C 161.1 341.8 162.3 341.3 162.3 340.2 C 162.3 340.1 162.3 340.0 162.3 339.8 C 162.2 339.5 162.2 339.4 162.2 339.1 C 162.2 337.6 163.4 336.9 164.5 336.9 C 166.5 336.9 167.2 340.2 167.2 340.2 C 167.2 340.5 166.9 340.5 166.8 340.5 C 166.5 340.5 166.5 340.4 166.4 340.0 C 166.2 339.0 165.6 337.5 164.5 337.5 C 163.9 337.5 163.8 338.0 163.8 338.6 C 163.8 339.0 163.8 339.0 163.9 339.6 C 163.9 339.7 164.0 340.0 164.0 340.3 C 164.0 342.2 161.4 342.5 160.5 342.5 C 161.1 342.9 161.9 343.6 162.3 344.0 C 163.4 345.0 164.5 346.0 165.7 346.0 C 165.9 346.0 166.2 345.9 166.4 345.7 C 165.5 345.6 165.3 344.8 165.3 344.5 C 165.3 344.0 165.6 343.7 166.1 343.7 C 166.7 343.7 167.4 344.2 167.4 345.1 C 167.4 345.8 166.8 346.6 165.7 346.6 C 164.5 346.6 163.3 345.7 162.3 344.7 C 161.4 343.8 160.6 343.2 159.8 342.8 L 161.9 351.4 " fill="#000000"></path><path d="M 200.0 351.8 C 200.5 351.8 201.1 351.8 201.1 352.4 C 201.1 353.1 200.5 353.1 200.1 353.1 L 181.6 353.1 C 181.2 353.1 180.6 353.1 180.6 352.4 C 180.6 351.8 181.2 351.8 181.6 351.8 L 200.0 351.8 Z M 200.1 345.8 C 200.5 345.8 201.1 345.8 201.1 346.5 C 201.1 347.1 200.5 347.1 200.0 347.1 L 181.6 347.1 C 181.2 347.1 180.6 347.1 180.6 346.5 C 180.6 345.8 181.2 345.8 181.6 345.8 L 200.1 345.8 " fill="#000000"></path><path d="M 224.2 382.3 C 224.2 383.0 224.2 383.1 223.4 383.1 C 221.5 381.1 218.8 381.1 217.8 381.1 L 217.8 380.2 C 218.4 380.2 220.3 380.2 221.9 381.0 L 221.9 365.0 C 221.9 363.9 221.8 363.5 219.0 363.5 L 218.0 363.5 L 218.0 362.6 C 219.1 362.7 221.8 362.7 223.0 362.7 C 224.2 362.7 226.9 362.7 228.0 362.6 L 228.0 363.5 L 227.0 363.5 C 224.2 363.5 224.2 363.9 224.2 365.0 L 224.2 382.3 " fill="#000000"></path><path d="M 14.7 5.8 L 17.3 5.8 " fill="none" stroke="#000000" stroke-width="0.21" transform="matrix(5.85, 0.00, 0.00, 5.84, 129.1, 315.7)"></path><path d="M 219.0 323.0 L 222.3 326.2 C 227.1 330.5 228.9 332.1 228.9 335.2 C 228.9 338.7 226.2 341.2 222.4 341.2 C 218.9 341.2 216.6 338.3 216.6 335.6 C 216.6 333.9 218.2 333.9 218.3 333.9 C 218.8 333.9 219.9 334.3 219.9 335.5 C 219.9 336.3 219.3 337.1 218.2 337.1 C 218.0 337.1 217.9 337.1 217.8 337.1 C 218.5 339.1 220.2 340.2 222.0 340.2 C 224.8 340.2 226.1 337.7 226.1 335.2 C 226.1 332.7 224.6 330.3 222.9 328.4 L 217.0 321.8 C 216.6 321.5 216.6 321.4 216.6 320.7 L 228.1 320.7 L 228.9 326.0 L 228.2 326.0 C 228.0 325.1 227.8 323.8 227.5 323.3 C 227.3 323.0 225.2 323.0 224.5 323.0 L 219.0 323.0 " fill="#000000"></path><path d="M 236.9 343.6 C 236.8 343.1 236.6 342.4 236.6 342.2 C 236.6 341.7 237.0 341.4 237.5 341.4 C 237.9 341.4 238.4 341.7 238.6 342.3 C 238.7 342.3 239.0 343.8 239.2 344.5 L 239.9 347.3 C 240.1 348.0 240.3 348.7 240.4 349.4 C 240.5 349.9 240.8 350.8 240.8 350.9 C 241.3 351.9 242.9 354.7 245.8 354.7 C 247.2 354.7 247.5 353.5 247.5 352.5 C 247.5 351.8 247.3 350.9 247.0 350.0 L 246.2 346.4 L 245.6 344.1 C 245.4 343.5 245.2 342.4 245.2 342.2 C 245.2 341.7 245.6 341.4 246.1 341.4 C 247.0 341.4 247.2 342.2 247.4 343.2 C 247.9 344.9 249.0 349.4 249.3 350.6 C 249.4 351.0 251.0 354.7 254.4 354.7 C 255.7 354.7 256.1 353.6 256.1 352.5 C 256.1 350.8 254.7 347.3 254.1 345.6 C 253.9 344.9 253.7 344.5 253.7 343.9 C 253.7 342.5 254.8 341.4 256.3 341.4 C 259.2 341.4 260.3 345.9 260.3 346.2 C 260.3 346.5 260.0 346.5 259.9 346.5 C 259.6 346.5 259.6 346.4 259.5 345.9 C 259.0 344.3 258.0 342.1 256.3 342.1 C 255.8 342.1 255.6 342.4 255.6 343.1 C 255.6 343.9 255.9 344.6 256.1 345.3 C 256.7 346.9 258.0 350.3 258.0 352.1 C 258.0 354.1 256.8 355.4 254.5 355.4 C 252.2 355.4 250.6 354.0 249.4 352.4 C 249.4 352.8 249.3 353.8 248.5 354.6 C 247.7 355.2 246.7 355.4 245.9 355.4 C 243.2 355.4 241.6 353.4 241.1 352.7 C 241.0 354.4 239.7 355.4 238.3 355.4 C 236.9 355.4 236.3 354.2 236.0 353.6 C 235.5 352.5 235.0 350.7 235.0 350.6 C 235.0 350.3 235.4 350.3 235.4 350.3 C 235.7 350.3 235.7 350.3 235.9 351.0 C 236.5 353.2 237.1 354.7 238.2 354.7 C 238.7 354.7 239.2 354.4 239.2 353.3 C 239.2 352.6 239.1 352.3 238.7 350.7 L 236.9 343.6 " fill="#000000"></path><path d="M 275.6 353.2 C 275.6 354.9 274.8 355.4 274.3 355.4 C 273.5 355.4 272.8 354.6 272.8 353.9 C 272.8 353.5 272.9 353.3 273.2 353.0 C 273.9 352.4 274.3 351.6 274.3 350.4 C 274.3 349.1 272.4 342.1 268.8 342.1 C 267.2 342.1 266.5 343.2 266.5 344.8 C 266.5 346.5 267.4 348.7 268.3 351.3 C 268.5 351.8 268.7 352.3 268.7 352.8 C 268.7 354.2 267.7 355.4 266.2 355.4 C 263.3 355.4 262.1 350.9 262.1 350.6 C 262.1 350.3 262.4 350.3 262.5 350.3 C 262.8 350.3 262.8 350.4 263.0 350.9 C 263.8 354.0 265.2 354.7 266.1 354.7 C 266.3 354.7 266.8 354.7 266.8 353.7 C 266.8 352.9 266.5 352.1 266.3 351.6 C 265.0 348.0 264.6 346.6 264.6 345.2 C 264.6 341.9 267.3 341.4 268.7 341.4 C 273.9 341.4 275.6 351.6 275.6 353.2 " fill="#000000"></path><path d="M 288.1 358.4 L 287.4 358.4 C 287.3 357.9 287.1 356.6 286.8 356.4 C 286.7 356.3 285.0 356.3 284.7 356.3 L 280.7 356.3 C 283.0 358.3 283.8 358.9 285.0 359.9 C 286.6 361.1 288.1 362.5 288.1 364.5 C 288.1 367.1 285.8 368.7 283.1 368.7 C 280.4 368.7 278.6 366.8 278.6 364.9 C 278.6 363.8 279.5 363.7 279.7 363.7 C 280.3 363.7 280.9 364.0 280.9 364.8 C 280.9 365.2 280.7 365.9 279.6 365.9 C 280.3 367.5 281.8 367.9 282.8 367.9 C 284.9 367.9 286.0 366.3 286.0 364.5 C 286.0 362.6 284.7 361.2 284.0 360.4 L 278.8 355.3 C 278.6 355.1 278.6 355.0 278.6 354.4 L 287.5 354.4 L 288.1 358.4 " fill="#000000"></path></g></g></g></g></g></g><text xml:space="preserve" font-family="Georgia,Georgia" font-size="32.0" fill="#000000" transform="matrix(1.00, 0.00, -0.00, -1.00, 298.9, 215.7)">=</text><text xml:space="preserve" font-family="Georgia,Georgia" font-size="32.0" fill="#000000" transform="matrix(1.00, 0.00, -0.00, -1.00, 319.4, 215.7)"> </text><text xml:space="preserve" font-family="Georgia,Georgia" font-size="32.0" fill="#000000" transform="matrix(1.00, 0.00, -0.00, -1.00, 327.2, 215.7)">0</text><text xml:space="preserve" font-family="Georgia,Georgia" font-size="32.0" fill="#000000" transform="matrix(1.00, 0.00, -0.00, -1.00, 346.8, 215.7)">,</text><text xml:space="preserve" font-family="Georgia,Georgia" font-size="32.0" fill="#000000" transform="matrix(1.00, 0.00, -0.00, -1.00, 355.4, 215.7)">5</text><text xml:space="preserve" font-family="Georgia,Georgia" font-size="32.0" fill="#000000" transform="matrix(1.00, 0.00, -0.00, -1.00, 372.3, 215.7)"> </text><text xml:space="preserve" font-family="EuphemiaUCAS,Euphemia UCAS" font-size="32.0" fill="#000000" transform="matrix(1.00, 0.00, -0.00, -1.00, 380.1, 215.7)">ᐧ</text><text xml:space="preserve" font-family="Georgia,Georgia" font-size="32.0" fill="#000000" transform="matrix(1.00, 0.00, -0.00, -1.00, 386.7, 215.7)"> </text><text xml:space="preserve" font-family="Georgia,Georgia" font-size="32.0" fill="#000000" transform="matrix(1.00, 0.00, -0.00, -1.00, 394.4, 215.7)">1</text><text xml:space="preserve" font-family="Georgia,Georgia" font-size="32.0" fill="#000000" transform="matrix(1.00, 0.00, -0.00, -1.00, 408.2, 215.7)">2</text><text xml:space="preserve" font-family="Georgia,Georgia" font-size="32.0" fill="#000000" transform="matrix(1.00, 0.00, -0.00, -1.00, 426.0, 215.7)">5</text><text xml:space="preserve" font-family="Georgia,Georgia" font-size="32.0" fill="#000000" transform="matrix(1.00, 0.00, -0.00, -1.00, 442.9, 215.7)"> </text><text xml:space="preserve" font-family="Georgia,Georgia" font-size="32.0" fill="#000000" transform="matrix(1.00, 0.00, -0.00, -1.00, 450.6, 215.7)">k</text><text xml:space="preserve" font-family="Georgia,Georgia" font-size="32.0" fill="#000000" transform="matrix(1.00, 0.00, -0.00, -1.00, 467.8, 215.7)">g</text><text xml:space="preserve" font-family="Georgia,Georgia" font-size="32.0" fill="#000000" transform="matrix(1.00, 0.00, -0.00, -1.00, 484.1, 215.7)"> </text><text xml:space="preserve" font-family="EuphemiaUCAS,Euphemia UCAS" font-size="32.0" fill="#000000" transform="matrix(1.00, 0.00, -0.00, -1.00, 491.8, 215.7)">ᐧ</text><text xml:space="preserve" font-family="Georgia,Georgia" font-size="32.0" fill="#000000" transform="matrix(1.00, 0.00, -0.00, -1.00, 498.5, 215.7)"> </text><text xml:space="preserve" font-family="Georgia,Georgia" font-size="32.0" fill="#000000" transform="matrix(1.00, 0.00, -0.00, -1.00, 506.2, 215.7)">(</text><text xml:space="preserve" font-family="Georgia,Georgia" font-size="32.0" fill="#000000" transform="matrix(1.00, 0.00, -0.00, -1.00, 518.2, 215.7)">8</text><text xml:space="preserve" font-family="Georgia,Georgia" font-size="32.0" fill="#000000" transform="matrix(1.00, 0.00, -0.00, -1.00, 537.3, 215.7)"> </text><text xml:space="preserve" font-family="Georgia,Georgia" font-size="32.0" fill="#000000" transform="matrix(1.00, 0.00, -0.00, -1.00, 545.0, 215.7)">m</text><text xml:space="preserve" font-family="Georgia,Georgia" font-size="32.0" fill="#000000" transform="matrix(1.00, 0.00, -0.00, -1.00, 573.2, 215.7)">/</text><text xml:space="preserve" font-family="Georgia,Georgia" font-size="32.0" fill="#000000" transform="matrix(1.00, 0.00, -0.00, -1.00, 588.2, 215.7)">s</text><text xml:space="preserve" font-family="Georgia,Georgia" font-size="32.0" fill="#000000" transform="matrix(1.00, 0.00, -0.00, -1.00, 602.0, 215.7)">)</text><text xml:space="preserve" font-family="Georgia,Georgia" font-size="21.3" fill="#000000" transform="matrix(1.00, 0.00, -0.00, -1.00, 614.0, 225.5)">2</text><text xml:space="preserve" font-family="Georgia,Georgia" font-size="32.0" fill="#000000" transform="matrix(1.00, 0.00, -0.00, -1.00, 625.9, 215.7)"> </text><text xml:space="preserve" font-family="Georgia,Georgia" font-size="32.0" fill="#000000" transform="matrix(1.00, 0.00, -0.00, -1.00, 633.7, 215.7)">=</text><text xml:space="preserve" font-family="Georgia,Georgia" font-size="32.0" fill="#000000" transform="matrix(1.00, 0.00, -0.00, -1.00, 654.2, 215.7)"> </text><text xml:space="preserve" font-family="Georgia,Georgia" font-size="32.0" fill="#000000" transform="matrix(1.00, 0.00, -0.00, -1.00, 662.0, 215.7)">4</text><text xml:space="preserve" font-family="Georgia,Georgia" font-size="32.0" fill="#000000" transform="matrix(1.00, 0.00, -0.00, -1.00, 680.1, 215.7)">0</text><text xml:space="preserve" font-family="Georgia,Georgia" font-size="32.0" fill="#000000" transform="matrix(1.00, 0.00, -0.00, -1.00, 699.7, 215.7)">0</text><text xml:space="preserve" font-family="Georgia,Georgia" font-size="32.0" fill="#000000" transform="matrix(1.00, 0.00, -0.00, -1.00, 719.4, 215.7)">0</text><text xml:space="preserve" font-family="Georgia,Georgia" font-size="32.0" fill="#000000" transform="matrix(1.00, 0.00, -0.00, -1.00, 739.0, 215.7)"> </text><text xml:space="preserve" font-family="Georgia,Georgia" font-size="32.0" fill="#000000" transform="matrix(1.00, 0.00, -0.00, -1.00, 746.7, 215.7)">J</text><g><clipPath id="clip0x6000016aea00"><path d="M 126.0 259.0 L 290.0 259.0 L 290.0 187.0 L 126.0 187.0 Z M 126.1 259.4 "></path></clipPath><g clip-path="url(#clip0x6000016aea00)"><g><clipPath id="clip0x6000016af6c0"><path d="M 130.4 192.0 L 285.8 192.0 L 285.8 255.4 L 130.4 255.4 Z M 130.4 192.0 "></path></clipPath><g clip-path="url(#clip0x6000016af6c0)"><g><clipPath id="clip0x6000014ba9a0"><path d="M 130.4 192.0 L 285.8 192.0 L 285.8 255.4 L 130.4 255.4 Z M 130.4 192.0 "></path></clipPath><g clip-path="url(#clip0x6000014ba9a0)"><path d="M 151.2 220.9 C 151.3 221.1 151.4 221.3 151.4 221.4 C 151.4 221.4 151.4 221.7 151.0 221.7 C 150.7 221.7 150.7 221.5 150.6 221.3 C 148.6 216.8 147.5 214.7 142.2 214.7 L 137.7 214.7 C 137.3 214.7 137.2 214.7 137.0 214.7 C 136.7 214.8 136.6 214.8 136.6 215.0 C 136.6 215.1 136.6 215.2 136.8 215.7 L 138.9 224.2 L 141.9 224.2 C 144.5 224.2 144.5 223.5 144.5 222.8 C 144.5 222.5 144.5 222.2 144.3 221.2 C 144.3 221.1 144.2 221.0 144.2 220.9 C 144.2 220.7 144.4 220.6 144.6 220.6 C 144.9 220.6 145.0 220.7 145.1 221.2 L 146.9 228.4 C 146.9 228.6 146.7 228.7 146.5 228.7 C 146.2 228.7 146.1 228.5 146.1 228.2 C 145.4 225.8 144.8 225.1 142.0 225.1 L 139.1 225.1 L 141.0 232.5 C 141.2 233.6 141.3 233.7 142.6 233.7 L 147.0 233.7 C 150.7 233.7 151.7 232.8 151.7 230.3 C 151.7 229.6 151.7 229.5 151.5 228.7 C 151.5 228.5 151.5 228.3 151.5 228.1 C 151.5 228.0 151.6 227.8 151.9 227.8 C 152.2 227.8 152.2 228.0 152.3 228.5 L 152.9 233.8 C 153.0 234.7 152.9 234.7 152.1 234.7 L 136.5 234.7 C 135.9 234.7 135.6 234.7 135.6 234.1 C 135.6 233.7 135.9 233.7 136.5 233.7 C 137.6 233.7 138.5 233.7 138.5 233.2 C 138.5 233.0 138.5 233.0 138.3 232.4 L 134.2 216.2 C 133.9 214.9 133.9 214.7 131.4 214.7 C 130.9 214.7 130.6 214.7 130.6 214.1 C 130.6 213.8 130.8 213.8 131.4 213.8 L 147.4 213.8 C 148.2 213.8 148.2 213.8 148.4 214.3 L 151.2 220.9 " fill="#000000"></path><path d="M 158.9 223.4 C 158.9 223.4 159.0 223.7 159.0 223.7 C 159.0 223.9 158.9 224.0 158.6 224.0 C 158.2 224.0 156.4 223.9 155.9 223.8 C 155.7 223.8 155.4 223.8 155.4 223.3 C 155.4 223.0 155.7 223.0 156.0 223.0 C 157.0 223.0 157.0 222.9 157.0 222.7 C 157.0 222.5 157.0 222.4 156.9 222.2 L 153.9 210.1 C 153.8 209.7 153.8 209.6 153.8 209.6 C 153.8 209.3 154.0 208.9 154.5 208.9 C 155.1 208.9 155.4 209.3 155.5 209.8 C 155.5 209.9 156.5 213.7 156.5 214.0 C 158.1 213.8 159.3 213.3 159.3 212.2 C 159.3 212.1 159.3 212.0 159.3 211.8 C 159.2 211.5 159.2 211.4 159.2 211.1 C 159.2 209.6 160.4 208.9 161.5 208.9 C 163.5 208.9 164.2 212.2 164.2 212.2 C 164.2 212.5 163.9 212.5 163.8 212.5 C 163.5 212.5 163.5 212.4 163.4 212.0 C 163.2 211.0 162.6 209.5 161.5 209.5 C 160.9 209.5 160.8 210.0 160.8 210.6 C 160.8 211.0 160.8 211.0 160.9 211.6 C 160.9 211.7 161.0 212.0 161.0 212.3 C 161.0 214.2 158.4 214.5 157.5 214.5 C 158.1 214.9 158.9 215.6 159.3 216.0 C 160.4 217.0 161.5 218.0 162.7 218.0 C 162.9 218.0 163.2 217.9 163.4 217.7 C 162.5 217.6 162.3 216.8 162.3 216.5 C 162.3 216.0 162.6 215.7 163.1 215.7 C 163.7 215.7 164.4 216.2 164.4 217.1 C 164.4 217.8 163.8 218.6 162.7 218.6 C 161.5 218.6 160.3 217.7 159.3 216.7 C 158.4 215.8 157.6 215.2 156.8 214.8 L 158.9 223.4 " fill="#000000"></path><path d="M 197.0 223.8 C 197.5 223.8 198.1 223.8 198.1 224.4 C 198.1 225.1 197.5 225.1 197.1 225.1 L 178.6 225.1 C 178.2 225.1 177.6 225.1 177.6 224.4 C 177.6 223.8 178.2 223.8 178.6 223.8 L 197.0 223.8 Z M 197.1 217.8 C 197.5 217.8 198.1 217.8 198.1 218.5 C 198.1 219.1 197.5 219.1 197.0 219.1 L 178.6 219.1 C 178.2 219.1 177.6 219.1 177.6 218.5 C 177.6 217.8 178.2 217.8 178.6 217.8 L 197.1 217.8 " fill="#000000"></path><path d="M 221.2 254.3 C 221.2 255.0 221.2 255.1 220.4 255.1 C 218.5 253.1 215.8 253.1 214.8 253.1 L 214.8 252.2 C 215.4 252.2 217.3 252.2 218.9 253.0 L 218.9 237.0 C 218.9 235.9 218.8 235.5 216.0 235.5 L 215.0 235.5 L 215.0 234.6 C 216.1 234.7 218.8 234.7 220.0 234.7 C 221.2 234.7 223.9 234.7 225.0 234.6 L 225.0 235.5 L 224.0 235.5 C 221.2 235.5 221.2 235.9 221.2 237.0 L 221.2 254.3 " fill="#000000"></path><path d="M 14.7 5.8 L 17.3 5.8 " fill="none" stroke="#000000" stroke-width="0.21" transform="matrix(5.85, 0.00, 0.00, 5.84, 126.1, 187.7)"></path><path d="M 216.0 195.0 L 219.3 198.2 C 224.1 202.5 225.9 204.1 225.9 207.2 C 225.9 210.7 223.2 213.2 219.4 213.2 C 215.9 213.2 213.6 210.3 213.6 207.6 C 213.6 205.9 215.2 205.9 215.3 205.9 C 215.8 205.9 216.9 206.3 216.9 207.5 C 216.9 208.3 216.3 209.1 215.2 209.1 C 215.0 209.1 214.9 209.1 214.8 209.1 C 215.5 211.1 217.2 212.2 219.0 212.2 C 221.8 212.2 223.1 209.7 223.1 207.2 C 223.1 204.7 221.6 202.3 219.9 200.4 L 214.0 193.8 C 213.6 193.5 213.6 193.4 213.6 192.7 L 225.1 192.7 L 225.9 198.0 L 225.2 198.0 C 225.0 197.1 224.8 195.8 224.5 195.3 C 224.3 195.0 222.2 195.0 221.5 195.0 L 216.0 195.0 " fill="#000000"></path><path d="M 233.9 215.6 C 233.8 215.1 233.6 214.4 233.6 214.2 C 233.6 213.7 234.0 213.4 234.5 213.4 C 234.9 213.4 235.4 213.7 235.6 214.3 C 235.7 214.3 236.0 215.8 236.2 216.5 L 236.9 219.3 C 237.1 220.0 237.3 220.7 237.4 221.4 C 237.5 221.9 237.8 222.8 237.8 222.9 C 238.3 223.9 239.9 226.7 242.8 226.7 C 244.2 226.7 244.5 225.5 244.5 224.5 C 244.5 223.8 244.3 222.9 244.0 222.0 L 243.2 218.4 L 242.6 216.1 C 242.4 215.5 242.2 214.4 242.2 214.2 C 242.2 213.7 242.6 213.4 243.1 213.4 C 244.0 213.4 244.2 214.2 244.4 215.2 C 244.9 216.9 246.0 221.4 246.3 222.6 C 246.4 223.0 248.0 226.7 251.4 226.7 C 252.7 226.7 253.1 225.6 253.1 224.5 C 253.1 222.8 251.7 219.3 251.1 217.6 C 250.9 216.9 250.7 216.5 250.7 215.9 C 250.7 214.5 251.8 213.4 253.3 213.4 C 256.2 213.4 257.3 217.9 257.3 218.2 C 257.3 218.5 257.0 218.5 256.9 218.5 C 256.6 218.5 256.6 218.4 256.5 217.9 C 256.0 216.3 255.0 214.1 253.3 214.1 C 252.8 214.1 252.6 214.4 252.6 215.1 C 252.6 215.9 252.9 216.6 253.1 217.3 C 253.7 218.9 255.0 222.3 255.0 224.1 C 255.0 226.1 253.8 227.4 251.5 227.4 C 249.2 227.4 247.6 226.0 246.4 224.4 C 246.4 224.8 246.3 225.8 245.5 226.6 C 244.7 227.2 243.7 227.4 242.9 227.4 C 240.2 227.4 238.6 225.4 238.1 224.7 C 238.0 226.4 236.7 227.4 235.3 227.4 C 233.9 227.4 233.3 226.2 233.0 225.6 C 232.5 224.5 232.0 222.7 232.0 222.6 C 232.0 222.3 232.4 222.3 232.4 222.3 C 232.7 222.3 232.7 222.3 232.9 223.0 C 233.5 225.2 234.1 226.7 235.2 226.7 C 235.7 226.7 236.2 226.4 236.2 225.3 C 236.2 224.6 236.1 224.3 235.7 222.7 L 233.9 215.6 " fill="#000000"></path><path d="M 272.6 225.2 C 272.6 226.9 271.8 227.4 271.3 227.4 C 270.5 227.4 269.8 226.6 269.8 225.9 C 269.8 225.5 269.9 225.3 270.2 225.0 C 270.9 224.4 271.3 223.6 271.3 222.4 C 271.3 221.1 269.4 214.1 265.8 214.1 C 264.2 214.1 263.5 215.2 263.5 216.8 C 263.5 218.5 264.4 220.7 265.3 223.3 C 265.5 223.8 265.7 224.3 265.7 224.8 C 265.7 226.2 264.7 227.4 263.2 227.4 C 260.3 227.4 259.1 222.9 259.1 222.6 C 259.1 222.3 259.4 222.3 259.5 222.3 C 259.8 222.3 259.8 222.4 260.0 222.9 C 260.8 226.0 262.2 226.7 263.1 226.7 C 263.3 226.7 263.8 226.7 263.8 225.7 C 263.8 224.9 263.5 224.1 263.3 223.6 C 262.0 220.0 261.6 218.6 261.6 217.2 C 261.6 213.9 264.3 213.4 265.7 213.4 C 270.9 213.4 272.6 223.6 272.6 225.2 " fill="#000000"></path><path d="M 285.1 230.4 L 284.4 230.4 C 284.3 229.9 284.1 228.6 283.8 228.4 C 283.7 228.3 282.0 228.3 281.7 228.3 L 277.7 228.3 C 280.0 230.3 280.8 230.9 282.0 231.9 C 283.6 233.1 285.1 234.5 285.1 236.5 C 285.1 239.1 282.8 240.7 280.1 240.7 C 277.4 240.7 275.6 238.8 275.6 236.9 C 275.6 235.8 276.5 235.7 276.7 235.7 C 277.3 235.7 277.9 236.0 277.9 236.8 C 277.9 237.2 277.7 237.9 276.6 237.9 C 277.3 239.5 278.8 239.9 279.8 239.9 C 281.9 239.9 283.0 238.3 283.0 236.5 C 283.0 234.6 281.7 233.2 281.0 232.4 L 275.8 227.3 C 275.6 227.1 275.6 227.0 275.6 226.4 L 284.5 226.4 L 285.1 230.4 " fill="#000000"></path></g></g></g></g></g></g><g><clipPath id="clip0x6000016a1200"><path d="M 276.0 169.0 L 610.0 169.0 L 610.0 100.0 L 276.0 100.0 Z M 276.4 168.6 "></path></clipPath><g clip-path="url(#clip0x6000016a1200)"><g><clipPath id="clip0x6000014a16e0"><path d="M 279.7 103.8 L 606.2 103.8 L 606.2 165.2 L 279.7 165.2 Z M 279.7 103.8 "></path></clipPath><g clip-path="url(#clip0x6000014a16e0)"><text xml:space="preserve" font-family="Helvetica,Helvetica" font-size="10.0" fill="#000000" transform="matrix(2.71, 0.00, -0.00, -2.73, 277.5, 128.4)">1</text><text xml:space="preserve" font-family="Helvetica,Helvetica" font-size="10.0" fill="#000000" transform="matrix(2.71, 0.00, -0.00, -2.73, 292.5, 128.4)">8</text><text xml:space="preserve" font-family="Helvetica,Helvetica" font-size="7.0" fill="#000000" transform="matrix(2.71, 0.00, -0.00, -2.73, 312.0, 139.6)">k</text><text xml:space="preserve" font-family="Helvetica,Helvetica" font-size="7.0" fill="#000000" transform="matrix(2.71, 0.00, -0.00, -2.73, 321.9, 139.6)">m</text><text xml:space="preserve" font-family="Helvetica,Helvetica" font-size="10.0" fill="#000000" transform="matrix(2.71, 0.00, -0.00, -2.73, 344.4, 128.4)">/</text><text xml:space="preserve" font-family="Helvetica,Helvetica" font-size="7.0" fill="#000000" transform="matrix(2.71, 0.00, -0.00, -2.73, 357.9, 124.3)">h</text><text xml:space="preserve" font-family="Helvetica,Helvetica" font-size="10.0" fill="#000000" transform="matrix(2.71, 0.00, -0.00, -2.73, 379.4, 128.4)">=</text><text xml:space="preserve" font-family="Helvetica,Helvetica" font-size="10.0" fill="#000000" transform="matrix(2.71, 0.00, -0.00, -2.73, 417.1, 146.8)">1</text><text xml:space="preserve" font-family="Helvetica,Helvetica" font-size="10.0" fill="#000000" transform="matrix(2.71, 0.00, -0.00, -2.73, 432.1, 146.8)">8</text><path d="M 0.0 0.0 L 14.4 0.0 " fill="none" stroke="#000000" stroke-width="0.40" transform="matrix(2.71, 0.00, 0.00, 2.73, 411.1, 135.2)"></path><text xml:space="preserve" font-family="Helvetica,Helvetica" font-size="10.0" fill="#000000" transform="matrix(2.71, 0.00, -0.00, -2.73, 411.1, 109.7)">3</text><text xml:space="preserve" font-family="Helvetica,Helvetica" font-size="10.0" fill="#000000" transform="matrix(2.71, 0.00, -0.00, -2.73, 424.6, 109.7)">,</text><text xml:space="preserve" font-family="Helvetica,Helvetica" font-size="10.0" fill="#000000" transform="matrix(2.71, 0.00, -0.00, -2.73, 436.6, 109.7)">6</text><text xml:space="preserve" font-family="Helvetica,Helvetica" font-size="7.0" fill="#000000" transform="matrix(2.71, 0.00, -0.00, -2.73, 460.8, 139.6)">m</text><text xml:space="preserve" font-family="Helvetica,Helvetica" font-size="10.0" fill="#000000" transform="matrix(2.71, 0.00, -0.00, -2.73, 481.3, 128.4)">/</text><text xml:space="preserve" font-family="Helvetica,Helvetica" font-size="7.0" fill="#000000" transform="matrix(2.71, 0.00, -0.00, -2.73, 494.8, 124.3)">s</text><text xml:space="preserve" font-family="Helvetica,Helvetica" font-size="10.0" fill="#000000" transform="matrix(2.71, 0.00, -0.00, -2.73, 513.8, 128.4)">=</text><text xml:space="preserve" font-family="Helvetica,Helvetica" font-size="10.0" fill="#000000" transform="matrix(2.71, 0.00, -0.00, -2.73, 537.1, 128.4)">5</text><text xml:space="preserve" font-family="Helvetica,Helvetica" font-size="7.0" fill="#000000" transform="matrix(2.71, 0.00, -0.00, -2.73, 563.2, 139.6)">m</text><text xml:space="preserve" font-family="Helvetica,Helvetica" font-size="10.0" fill="#000000" transform="matrix(2.71, 0.00, -0.00, -2.73, 583.7, 128.4)">/</text><text xml:space="preserve" font-family="Helvetica,Helvetica" font-size="7.0" fill="#000000" transform="matrix(2.71, 0.00, -0.00, -2.73, 597.2, 124.3)">s</text></g></g></g></g><g><clipPath id="clip0x6080016ae340"><path d="M 126.0 82.0 L 290.0 82.0 L 290.0 9.0 L 126.0 9.0 Z M 126.1 81.7 "></path></clipPath><g clip-path="url(#clip0x6080016ae340)"><g><clipPath id="clip0x6080016a3a20"><path d="M 130.4 14.1 L 285.8 14.1 L 285.8 78.4 L 130.4 78.4 Z M 130.4 14.1 "></path></clipPath><g clip-path="url(#clip0x6080016a3a20)"><g><clipPath id="clip0x6080016a0a20"><path d="M 130.4 14.1 L 285.8 14.1 L 285.8 78.4 L 130.4 78.4 Z M 130.4 14.1 "></path></clipPath><g clip-path="url(#clip0x6080016a0a20)"><path d="M 151.2 43.4 C 151.3 43.6 151.4 43.8 151.4 43.8 C 151.4 43.9 151.4 44.2 151.0 44.2 C 150.7 44.2 150.7 44.0 150.6 43.8 C 148.6 39.2 147.5 37.1 142.2 37.1 L 137.7 37.1 C 137.3 37.1 137.2 37.1 137.0 37.1 C 136.7 37.2 136.6 37.2 136.6 37.4 C 136.6 37.5 136.6 37.6 136.8 38.1 L 138.9 46.7 L 141.9 46.7 C 144.5 46.7 144.5 46.0 144.5 45.3 C 144.5 45.0 144.5 44.6 144.3 43.7 C 144.3 43.6 144.2 43.5 144.2 43.4 C 144.2 43.2 144.4 43.0 144.6 43.0 C 144.9 43.0 145.0 43.2 145.1 43.7 L 146.9 50.9 C 146.9 51.2 146.7 51.3 146.5 51.3 C 146.2 51.3 146.1 51.1 146.1 50.7 C 145.4 48.4 144.8 47.6 142.0 47.6 L 139.1 47.6 L 141.0 55.2 C 141.2 56.3 141.3 56.4 142.6 56.4 L 147.0 56.4 C 150.7 56.4 151.7 55.5 151.7 52.9 C 151.7 52.2 151.7 52.1 151.5 51.3 C 151.5 51.1 151.5 50.9 151.5 50.7 C 151.5 50.6 151.6 50.3 151.9 50.3 C 152.2 50.3 152.2 50.5 152.3 51.1 L 152.9 56.5 C 153.0 57.4 152.9 57.4 152.1 57.4 L 136.5 57.4 C 135.9 57.4 135.6 57.4 135.6 56.7 C 135.6 56.4 135.9 56.4 136.5 56.4 C 137.6 56.4 138.5 56.4 138.5 55.8 C 138.5 55.7 138.5 55.6 138.3 55.1 L 134.2 38.6 C 133.9 37.3 133.9 37.1 131.4 37.1 C 130.9 37.1 130.6 37.1 130.6 36.5 C 130.6 36.1 130.8 36.1 131.4 36.1 L 147.4 36.1 C 148.2 36.1 148.2 36.2 148.4 36.7 L 151.2 43.4 " fill="#000000"></path><path d="M 158.9 45.9 C 158.9 45.9 159.0 46.2 159.0 46.2 C 159.0 46.4 158.9 46.5 158.6 46.5 C 158.2 46.5 156.4 46.4 155.9 46.3 C 155.7 46.3 155.4 46.3 155.4 45.8 C 155.4 45.5 155.7 45.5 156.0 45.5 C 157.0 45.5 157.0 45.4 157.0 45.2 C 157.0 45.0 157.0 44.9 156.9 44.7 L 153.9 32.4 C 153.8 32.0 153.8 31.9 153.8 31.9 C 153.8 31.6 154.0 31.2 154.5 31.2 C 155.1 31.2 155.4 31.6 155.5 32.1 C 155.5 32.2 156.5 36.0 156.5 36.4 C 158.1 36.2 159.3 35.7 159.3 34.6 C 159.3 34.5 159.3 34.4 159.3 34.1 C 159.2 33.8 159.2 33.7 159.2 33.4 C 159.2 31.9 160.4 31.2 161.5 31.2 C 163.5 31.2 164.2 34.5 164.2 34.5 C 164.2 34.8 163.9 34.8 163.8 34.8 C 163.5 34.8 163.5 34.7 163.4 34.3 C 163.2 33.4 162.6 31.8 161.5 31.8 C 160.9 31.8 160.8 32.4 160.8 33.0 C 160.8 33.3 160.8 33.4 160.9 33.9 C 160.9 34.0 161.0 34.4 161.0 34.6 C 161.0 36.6 158.4 36.9 157.5 36.9 C 158.1 37.3 158.9 38.0 159.3 38.4 C 160.4 39.4 161.5 40.4 162.7 40.4 C 162.9 40.4 163.2 40.4 163.4 40.1 C 162.5 40.0 162.3 39.3 162.3 38.9 C 162.3 38.4 162.6 38.1 163.1 38.1 C 163.7 38.1 164.4 38.6 164.4 39.5 C 164.4 40.2 163.8 41.0 162.7 41.0 C 161.5 41.0 160.3 40.1 159.3 39.1 C 158.4 38.2 157.6 37.6 156.8 37.2 L 158.9 45.9 " fill="#000000"></path><path d="M 197.0 46.3 C 197.5 46.3 198.1 46.3 198.1 47.0 C 198.1 47.6 197.5 47.6 197.1 47.6 L 178.6 47.6 C 178.2 47.6 177.6 47.6 177.6 47.0 C 177.6 46.3 178.2 46.3 178.6 46.3 L 197.0 46.3 Z M 197.1 40.3 C 197.5 40.3 198.1 40.3 198.1 40.9 C 198.1 41.5 197.5 41.5 197.0 41.5 L 178.6 41.5 C 178.2 41.5 177.6 41.5 177.6 40.9 C 177.6 40.3 178.2 40.3 178.6 40.3 L 197.1 40.3 " fill="#000000"></path><path d="M 221.2 77.2 C 221.2 78.0 221.2 78.0 220.4 78.0 C 218.5 76.0 215.8 76.0 214.8 76.0 L 214.8 75.1 C 215.4 75.1 217.3 75.1 218.9 75.9 L 218.9 59.7 C 218.9 58.6 218.8 58.2 216.0 58.2 L 215.0 58.2 L 215.0 57.2 C 216.1 57.3 218.8 57.3 220.0 57.3 C 221.2 57.3 223.9 57.3 225.0 57.2 L 225.0 58.2 L 224.0 58.2 C 221.2 58.2 221.2 58.6 221.2 59.7 L 221.2 77.2 " fill="#000000"></path><path d="M 14.7 5.8 L 17.3 5.8 " fill="none" stroke="#000000" stroke-width="0.21" transform="matrix(5.85, 0.00, 0.00, 5.92, 126.1, 9.7)"></path><path d="M 216.0 17.2 L 219.3 20.4 C 224.1 24.7 225.9 26.4 225.9 29.5 C 225.9 33.0 223.2 35.5 219.4 35.5 C 215.9 35.5 213.6 32.7 213.6 29.9 C 213.6 28.1 215.2 28.1 215.3 28.1 C 215.8 28.1 216.9 28.5 216.9 29.8 C 216.9 30.6 216.3 31.4 215.2 31.4 C 215.0 31.4 214.9 31.4 214.8 31.4 C 215.5 33.4 217.2 34.6 219.0 34.6 C 221.8 34.6 223.1 32.0 223.1 29.5 C 223.1 27.0 221.6 24.5 219.9 22.6 L 214.0 15.9 C 213.6 15.6 213.6 15.5 213.6 14.8 L 225.1 14.8 L 225.9 20.2 L 225.2 20.2 C 225.0 19.2 224.8 17.9 224.5 17.4 C 224.3 17.2 222.2 17.2 221.5 17.2 L 216.0 17.2 " fill="#000000"></path><path d="M 233.9 38.0 C 233.8 37.5 233.6 36.8 233.6 36.6 C 233.6 36.1 234.0 35.8 234.5 35.8 C 234.9 35.8 235.4 36.0 235.6 36.7 C 235.7 36.7 236.0 38.2 236.2 39.0 L 236.9 41.8 C 237.1 42.5 237.3 43.1 237.4 43.9 C 237.5 44.4 237.8 45.3 237.8 45.4 C 238.3 46.4 239.9 49.2 242.8 49.2 C 244.2 49.2 244.5 48.1 244.5 47.1 C 244.5 46.3 244.3 45.4 244.0 44.5 L 243.2 40.8 L 242.6 38.5 C 242.4 37.8 242.2 36.8 242.2 36.6 C 242.2 36.1 242.6 35.8 243.1 35.8 C 244.0 35.8 244.2 36.6 244.4 37.6 C 244.9 39.3 246.0 43.9 246.3 45.1 C 246.4 45.5 248.0 49.2 251.4 49.2 C 252.7 49.2 253.1 48.2 253.1 47.1 C 253.1 45.3 251.7 41.7 251.1 40.1 C 250.9 39.3 250.7 39.0 250.7 38.3 C 250.7 36.9 251.8 35.8 253.3 35.8 C 256.2 35.8 257.3 40.3 257.3 40.6 C 257.3 40.9 257.0 40.9 256.9 40.9 C 256.6 40.9 256.6 40.8 256.5 40.3 C 256.0 38.7 255.0 36.5 253.3 36.5 C 252.8 36.5 252.6 36.8 252.6 37.5 C 252.6 38.3 252.9 39.0 253.1 39.7 C 253.7 41.3 255.0 44.8 255.0 46.6 C 255.0 48.6 253.8 49.9 251.5 49.9 C 249.2 49.9 247.6 48.5 246.4 46.9 C 246.4 47.3 246.3 48.4 245.5 49.1 C 244.7 49.8 243.7 49.9 242.9 49.9 C 240.2 49.9 238.6 47.9 238.1 47.2 C 238.0 49.0 236.7 49.9 235.3 49.9 C 233.9 49.9 233.3 48.7 233.0 48.1 C 232.5 47.1 232.0 45.2 232.0 45.1 C 232.0 44.8 232.4 44.8 232.4 44.8 C 232.7 44.8 232.7 44.8 232.9 45.5 C 233.5 47.7 234.1 49.2 235.2 49.2 C 235.7 49.2 236.2 49.0 236.2 47.8 C 236.2 47.1 236.1 46.8 235.7 45.2 L 233.9 38.0 " fill="#000000"></path><path d="M 272.6 47.7 C 272.6 49.4 271.8 49.9 271.3 49.9 C 270.5 49.9 269.8 49.1 269.8 48.4 C 269.8 48.0 269.9 47.8 270.2 47.5 C 270.9 46.9 271.3 46.1 271.3 44.9 C 271.3 43.6 269.4 36.5 265.8 36.5 C 264.2 36.5 263.5 37.6 263.5 39.2 C 263.5 40.9 264.4 43.2 265.3 45.8 C 265.5 46.3 265.7 46.8 265.7 47.4 C 265.7 48.8 264.7 49.9 263.2 49.9 C 260.3 49.9 259.1 45.4 259.1 45.1 C 259.1 44.8 259.4 44.8 259.5 44.8 C 259.8 44.8 259.8 44.9 260.0 45.4 C 260.8 48.5 262.2 49.2 263.1 49.2 C 263.3 49.2 263.8 49.2 263.8 48.2 C 263.8 47.4 263.5 46.6 263.3 46.1 C 262.0 42.4 261.6 41.0 261.6 39.7 C 261.6 36.3 264.3 35.8 265.7 35.8 C 270.9 35.8 272.6 46.1 272.6 47.7 " fill="#000000"></path><path d="M 285.1 53.0 L 284.4 53.0 C 284.3 52.5 284.1 51.2 283.8 51.0 C 283.7 50.8 282.0 50.8 281.7 50.8 L 277.7 50.8 C 280.0 52.9 280.8 53.5 282.0 54.5 C 283.6 55.8 285.1 57.1 285.1 59.2 C 285.1 61.8 282.8 63.4 280.1 63.4 C 277.4 63.4 275.6 61.6 275.6 59.6 C 275.6 58.4 276.5 58.3 276.7 58.3 C 277.3 58.3 277.9 58.7 277.9 59.5 C 277.9 59.9 277.7 60.6 276.6 60.6 C 277.3 62.2 278.8 62.7 279.8 62.7 C 281.9 62.7 283.0 61.0 283.0 59.2 C 283.0 57.3 281.7 55.8 281.0 55.0 L 275.8 49.8 C 275.6 49.6 275.6 49.6 275.6 49.0 L 284.5 49.0 L 285.1 53.0 " fill="#000000"></path></g></g></g></g></g></g><text xml:space="preserve" font-family="Georgia,Georgia" font-size="32.0" fill="#000000" transform="matrix(1.00, 0.00, -0.00, -1.00, 296.9, 37.7)">=</text><text xml:space="preserve" font-family="Georgia,Georgia" font-size="32.0" fill="#000000" transform="matrix(1.00, 0.00, -0.00, -1.00, 317.4, 37.7)"> </text><text xml:space="preserve" font-family="Georgia,Georgia" font-size="32.0" fill="#000000" transform="matrix(1.00, 0.00, -0.00, -1.00, 325.2, 37.7)">0</text><text xml:space="preserve" font-family="Georgia,Georgia" font-size="32.0" fill="#000000" transform="matrix(1.00, 0.00, -0.00, -1.00, 344.8, 37.7)">,</text><text xml:space="preserve" font-family="Georgia,Georgia" font-size="32.0" fill="#000000" transform="matrix(1.00, 0.00, -0.00, -1.00, 353.4, 37.7)">5</text><text xml:space="preserve" font-family="Georgia,Georgia" font-size="32.0" fill="#000000" transform="matrix(1.00, 0.00, -0.00, -1.00, 370.3, 37.7)"> </text><text xml:space="preserve" font-family="EuphemiaUCAS,Euphemia UCAS" font-size="32.0" fill="#000000" transform="matrix(1.00, 0.00, -0.00, -1.00, 378.1, 37.7)">ᐧ</text><text xml:space="preserve" font-family="Georgia,Georgia" font-size="32.0" fill="#000000" transform="matrix(1.00, 0.00, -0.00, -1.00, 384.7, 37.7)"> </text><text xml:space="preserve" font-family="Georgia,Georgia" font-size="32.0" fill="#000000" transform="matrix(1.00, 0.00, -0.00, -1.00, 392.4, 37.7)">1</text><text xml:space="preserve" font-family="Georgia,Georgia" font-size="32.0" fill="#000000" transform="matrix(1.00, 0.00, -0.00, -1.00, 406.2, 37.7)">2</text><text xml:space="preserve" font-family="Georgia,Georgia" font-size="32.0" fill="#000000" transform="matrix(1.00, 0.00, -0.00, -1.00, 424.0, 37.7)">5</text><text xml:space="preserve" font-family="Georgia,Georgia" font-size="32.0" fill="#000000" transform="matrix(1.00, 0.00, -0.00, -1.00, 440.9, 37.7)"> </text><text xml:space="preserve" font-family="Georgia,Georgia" font-size="32.0" fill="#000000" transform="matrix(1.00, 0.00, -0.00, -1.00, 448.6, 37.7)">k</text><text xml:space="preserve" font-family="Georgia,Georgia" font-size="32.0" fill="#000000" transform="matrix(1.00, 0.00, -0.00, -1.00, 465.8, 37.7)">g</text><text xml:space="preserve" font-family="Georgia,Georgia" font-size="32.0" fill="#000000" transform="matrix(1.00, 0.00, -0.00, -1.00, 482.1, 37.7)"> </text><text xml:space="preserve" font-family="EuphemiaUCAS,Euphemia UCAS" font-size="32.0" fill="#000000" transform="matrix(1.00, 0.00, -0.00, -1.00, 489.8, 37.7)">ᐧ</text><text xml:space="preserve" font-family="Georgia,Georgia" font-size="32.0" fill="#000000" transform="matrix(1.00, 0.00, -0.00, -1.00, 496.5, 37.7)"> </text><text xml:space="preserve" font-family="Georgia,Georgia" font-size="32.0" fill="#000000" transform="matrix(1.00, 0.00, -0.00, -1.00, 504.2, 37.7)">(</text><text xml:space="preserve" font-family="Georgia,Georgia" font-size="32.0" fill="#000000" transform="matrix(1.00, 0.00, -0.00, -1.00, 516.2, 37.7)">5</text><text xml:space="preserve" font-family="Georgia,Georgia" font-size="32.0" fill="#000000" transform="matrix(1.00, 0.00, -0.00, -1.00, 533.1, 37.7)"> </text><text xml:space="preserve" font-family="Georgia,Georgia" font-size="32.0" fill="#000000" transform="matrix(1.00, 0.00, -0.00, -1.00, 540.9, 37.7)">m</text><text xml:space="preserve" font-family="Georgia,Georgia" font-size="32.0" fill="#000000" transform="matrix(1.00, 0.00, -0.00, -1.00, 569.0, 37.7)">/</text><text xml:space="preserve" font-family="Georgia,Georgia" font-size="32.0" fill="#000000" transform="matrix(1.00, 0.00, -0.00, -1.00, 584.0, 37.7)">s</text><text xml:space="preserve" font-family="Georgia,Georgia" font-size="32.0" fill="#000000" transform="matrix(1.00, 0.00, -0.00, -1.00, 597.9, 37.7)">)</text><text xml:space="preserve" font-family="Georgia,Georgia" font-size="21.3" fill="#000000" transform="matrix(1.00, 0.00, -0.00, -1.00, 609.8, 47.5)">2</text><text xml:space="preserve" font-family="Georgia,Georgia" font-size="32.0" fill="#000000" transform="matrix(1.00, 0.00, -0.00, -1.00, 621.8, 37.7)"> </text><text xml:space="preserve" font-family="Georgia,Georgia" font-size="32.0" fill="#000000" transform="matrix(1.00, 0.00, -0.00, -1.00, 629.5, 37.7)">=</text><text xml:space="preserve" font-family="Georgia,Georgia" font-size="32.0" fill="#000000" transform="matrix(1.00, 0.00, -0.00, -1.00, 650.1, 37.7)"> </text><text xml:space="preserve" font-family="Georgia,Georgia" font-size="32.0" fill="#000000" transform="matrix(1.00, 0.00, -0.00, -1.00, 657.8, 37.7)">1</text><text xml:space="preserve" font-family="Georgia,Georgia" font-size="32.0" fill="#000000" transform="matrix(1.00, 0.00, -0.00, -1.00, 671.5, 37.7)">5</text><text xml:space="preserve" font-family="Georgia,Georgia" font-size="32.0" fill="#000000" transform="matrix(1.00, 0.00, -0.00, -1.00, 688.4, 37.7)">6</text><text xml:space="preserve" font-family="Georgia,Georgia" font-size="32.0" fill="#000000" transform="matrix(1.00, 0.00, -0.00, -1.00, 706.6, 37.7)">2</text><text xml:space="preserve" font-family="Georgia,Georgia" font-size="32.0" fill="#000000" transform="matrix(1.00, 0.00, -0.00, -1.00, 724.4, 37.7)">,</text><text xml:space="preserve" font-family="Georgia,Georgia" font-size="32.0" fill="#000000" transform="matrix(1.00, 0.00, -0.00, -1.00, 733.0, 37.7)">5</text><text xml:space="preserve" font-family="Georgia,Georgia" font-size="32.0" fill="#000000" transform="matrix(1.00, 0.00, -0.00, -1.00, 749.9, 37.7)"> </text><text xml:space="preserve" font-family="Georgia,Georgia" font-size="32.0" fill="#000000" transform="matrix(1.00, 0.00, -0.00, -1.00, 757.6, 37.7)">J</text></g></svg>