<?xml version="1.0" encoding="UTF-8" standalone="no"?><svg xmlns="http://www.w3.org/2000/svg" xmlns:xlink="http://www.w3.org/1999/xlink" clip-rule="evenodd" stroke-miterlimit="10" viewBox="0 0 1024 768"><desc>SVG generated by Keynote</desc><defs></defs><g transform="matrix(1.00, 0.00, -0.00, -1.00, 0.0, 768.0)"><path d="M 0.0 768.0 L 1024.0 768.0 L 1024.0 0.0 L 0.0 0.0 Z M 0.0 768.0 " fill="#FEFFFF"></path><text xml:space="preserve" font-family="Georgia,Georgia" font-size="65.0" fill="#000000" transform="matrix(1.00, 0.00, -0.00, -1.00, 238.9, 648.3)">F</text><text xml:space="preserve" font-family="Georgia,Georgia" font-size="65.0" fill="#000000" transform="matrix(1.00, 0.00, -0.00, -1.00, 277.8, 648.3)">y</text><text xml:space="preserve" font-family="Georgia,Georgia" font-size="65.0" fill="#000000" transform="matrix(1.00, 0.00, -0.00, -1.00, 309.8, 648.3)">s</text><text xml:space="preserve" font-family="Georgia,Georgia" font-size="65.0" fill="#000000" transform="matrix(1.00, 0.00, -0.00, -1.00, 337.9, 648.3)">i</text><text xml:space="preserve" font-family="Georgia,Georgia" font-size="65.0" fill="#000000" transform="matrix(1.00, 0.00, -0.00, -1.00, 357.0, 648.3)">i</text><text xml:space="preserve" font-family="Georgia,Georgia" font-size="65.0" fill="#000000" transform="matrix(1.00, 0.00, -0.00, -1.00, 376.0, 648.3)">k</text><text xml:space="preserve" font-family="Georgia,Georgia" font-size="65.0" fill="#000000" transform="matrix(1.00, 0.00, -0.00, -1.00, 410.8, 648.3)">k</text><text xml:space="preserve" font-family="Georgia,Georgia" font-size="65.0" fill="#000000" transform="matrix(1.00, 0.00, -0.00, -1.00, 445.6, 648.3)">a</text><text xml:space="preserve" font-family="Georgia,Georgia" font-size="65.0" fill="#000000" transform="matrix(1.00, 0.00, -0.00, -1.00, 478.3, 648.3)">a</text><text xml:space="preserve" font-family="Georgia,Georgia" font-size="65.0" fill="#000000" transform="matrix(1.00, 0.00, -0.00, -1.00, 511.1, 648.3)"> </text><text xml:space="preserve" font-family="Georgia,Georgia" font-size="65.0" fill="#000000" transform="matrix(1.00, 0.00, -0.00, -1.00, 526.8, 648.3)">s</text><text xml:space="preserve" font-family="Georgia,Georgia" font-size="65.0" fill="#000000" transform="matrix(1.00, 0.00, -0.00, -1.00, 554.9, 648.3)">a</text><text xml:space="preserve" font-family="Georgia,Georgia" font-size="65.0" fill="#000000" transform="matrix(1.00, 0.00, -0.00, -1.00, 587.6, 648.3)">u</text><text xml:space="preserve" font-family="Georgia,Georgia" font-size="65.0" fill="#000000" transform="matrix(1.00, 0.00, -0.00, -1.00, 625.0, 648.3)">n</text><text xml:space="preserve" font-family="Georgia,Georgia" font-size="65.0" fill="#000000" transform="matrix(1.00, 0.00, -0.00, -1.00, 663.4, 648.3)">a</text><text xml:space="preserve" font-family="Georgia,Georgia" font-size="65.0" fill="#000000" transform="matrix(1.00, 0.00, -0.00, -1.00, 696.2, 648.3)">s</text><text xml:space="preserve" font-family="Georgia,Georgia" font-size="65.0" fill="#000000" transform="matrix(1.00, 0.00, -0.00, -1.00, 724.3, 648.3)">s</text><text xml:space="preserve" font-family="Georgia,Georgia" font-size="65.0" fill="#000000" transform="matrix(1.00, 0.00, -0.00, -1.00, 752.4, 648.3)">a</text><text xml:space="preserve" font-family="Georgia,Georgia" font-size="27.0" fill="#000000" transform="matrix(1.00, 0.00, -0.00, -1.00, 79.0, 589.7)">•</text><text xml:space="preserve" font-family="Georgia,Georgia" font-size="36.0" fill="#000000" transform="matrix(1.00, 0.00, -0.00, -1.00, 114.0, 586.6)">M</text><text xml:space="preserve" font-family="Georgia,Georgia" font-size="36.0" fill="#000000" transform="matrix(1.00, 0.00, -0.00, -1.00, 147.4, 586.6)">i</text><text xml:space="preserve" font-family="Georgia,Georgia" font-size="36.0" fill="#000000" transform="matrix(1.00, 0.00, -0.00, -1.00, 157.9, 586.6)">h</text><text xml:space="preserve" font-family="Georgia,Georgia" font-size="36.0" fill="#000000" transform="matrix(1.00, 0.00, -0.00, -1.00, 178.9, 586.6)">i</text><text xml:space="preserve" font-family="Georgia,Georgia" font-size="36.0" fill="#000000" transform="matrix(1.00, 0.00, -0.00, -1.00, 189.4, 586.6)">n</text><text xml:space="preserve" font-family="Georgia,Georgia" font-size="36.0" fill="#000000" transform="matrix(1.00, 0.00, -0.00, -1.00, 210.7, 586.6)"> </text><text xml:space="preserve" font-family="Georgia,Georgia" font-size="36.0" fill="#000000" transform="matrix(1.00, 0.00, -0.00, -1.00, 219.4, 586.6)">k</text><text xml:space="preserve" font-family="Georgia,Georgia" font-size="36.0" fill="#000000" transform="matrix(1.00, 0.00, -0.00, -1.00, 238.7, 586.6)">i</text><text xml:space="preserve" font-family="Georgia,Georgia" font-size="36.0" fill="#000000" transform="matrix(1.00, 0.00, -0.00, -1.00, 249.2, 586.6)">u</text><text xml:space="preserve" font-family="Georgia,Georgia" font-size="36.0" fill="#000000" transform="matrix(1.00, 0.00, -0.00, -1.00, 269.9, 586.6)">k</text><text xml:space="preserve" font-family="Georgia,Georgia" font-size="36.0" fill="#000000" transform="matrix(1.00, 0.00, -0.00, -1.00, 289.2, 586.6)">a</text><text xml:space="preserve" font-family="Georgia,Georgia" font-size="36.0" fill="#000000" transform="matrix(1.00, 0.00, -0.00, -1.00, 307.3, 586.6)">a</text><text xml:space="preserve" font-family="Georgia,Georgia" font-size="36.0" fill="#000000" transform="matrix(1.00, 0.00, -0.00, -1.00, 325.5, 586.6)">n</text><text xml:space="preserve" font-family="Georgia,Georgia" font-size="36.0" fill="#000000" transform="matrix(1.00, 0.00, -0.00, -1.00, 346.7, 586.6)"> </text><text xml:space="preserve" font-family="Georgia,Georgia" font-size="36.0" fill="#000000" transform="matrix(1.00, 0.00, -0.00, -1.00, 355.4, 586.6)">l</text><text xml:space="preserve" font-family="Georgia,Georgia" font-size="36.0" fill="#000000" transform="matrix(1.00, 0.00, -0.00, -1.00, 365.7, 586.6)">ä</text><text xml:space="preserve" font-family="Georgia,Georgia" font-size="36.0" fill="#000000" transform="matrix(1.00, 0.00, -0.00, -1.00, 383.9, 586.6)">m</text><text xml:space="preserve" font-family="Georgia,Georgia" font-size="36.0" fill="#000000" transform="matrix(1.00, 0.00, -0.00, -1.00, 415.6, 586.6)">p</text><text xml:space="preserve" font-family="Georgia,Georgia" font-size="36.0" fill="#000000" transform="matrix(1.00, 0.00, -0.00, -1.00, 436.1, 586.6)">ö</text><text xml:space="preserve" font-family="Georgia,Georgia" font-size="36.0" fill="#000000" transform="matrix(1.00, 0.00, -0.00, -1.00, 455.5, 586.6)">e</text><text xml:space="preserve" font-family="Georgia,Georgia" font-size="36.0" fill="#000000" transform="matrix(1.00, 0.00, -0.00, -1.00, 473.0, 586.6)">n</text><text xml:space="preserve" font-family="Georgia,Georgia" font-size="36.0" fill="#000000" transform="matrix(1.00, 0.00, -0.00, -1.00, 494.2, 586.6)">e</text><text xml:space="preserve" font-family="Georgia,Georgia" font-size="36.0" fill="#000000" transform="matrix(1.00, 0.00, -0.00, -1.00, 511.6, 586.6)">r</text><text xml:space="preserve" font-family="Georgia,Georgia" font-size="36.0" fill="#000000" transform="matrix(1.00, 0.00, -0.00, -1.00, 526.4, 586.6)">g</text><text xml:space="preserve" font-family="Georgia,Georgia" font-size="36.0" fill="#000000" transform="matrix(1.00, 0.00, -0.00, -1.00, 544.7, 586.6)">i</text><text xml:space="preserve" font-family="Georgia,Georgia" font-size="36.0" fill="#000000" transform="matrix(1.00, 0.00, -0.00, -1.00, 555.3, 586.6)">a</text><text xml:space="preserve" font-family="Georgia,Georgia" font-size="36.0" fill="#000000" transform="matrix(1.00, 0.00, -0.00, -1.00, 573.4, 586.6)"> </text><text xml:space="preserve" font-family="Georgia,Georgia" font-size="36.0" fill="#000000" transform="matrix(1.00, 0.00, -0.00, -1.00, 582.1, 586.6)">k</text><text xml:space="preserve" font-family="Georgia,Georgia" font-size="36.0" fill="#000000" transform="matrix(1.00, 0.00, -0.00, -1.00, 601.4, 586.6)">u</text><text xml:space="preserve" font-family="Georgia,Georgia" font-size="36.0" fill="#000000" transform="matrix(1.00, 0.00, -0.00, -1.00, 622.1, 586.6)">l</text><text xml:space="preserve" font-family="Georgia,Georgia" font-size="36.0" fill="#000000" transform="matrix(1.00, 0.00, -0.00, -1.00, 632.4, 586.6)">u</text><text xml:space="preserve" font-family="Georgia,Georgia" font-size="36.0" fill="#000000" transform="matrix(1.00, 0.00, -0.00, -1.00, 653.1, 586.6)">i</text><text xml:space="preserve" font-family="Georgia,Georgia" font-size="36.0" fill="#000000" transform="matrix(1.00, 0.00, -0.00, -1.00, 663.7, 586.6)">?</text><g><clipPath id="clip0x6080024bea20"><path d="M 126.8 333.0 L 264.3 333.0 L 264.3 464.4 L 126.8 464.4 Z M 126.8 333.0 "></path></clipPath><g clip-path="url(#clip0x6080024bea20)"><path d="M 0.2 0.4 L 133.2 0.4 L 133.2 127.4 L 0.2 127.4 Z M 0.0 0.0 " fill="none" stroke="#000000" stroke-width="2.00" transform="matrix(1.00, 0.00, 0.00, -1.00, 128.8, 462.4)"></path></g></g><g><clipPath id="clip0x6080024bec60"><path d="M 209.9 380.6 L 225.7 380.6 L 225.7 396.4 L 209.9 396.4 Z M 209.9 380.6 "></path></clipPath><g clip-path="url(#clip0x6080024bec60)"><path d="M 222.7 393.4 C 225.4 390.7 225.4 386.3 222.7 383.6 C 220.0 380.9 215.6 380.9 212.9 383.6 C 210.2 386.3 210.2 390.7 212.9 393.4 C 215.6 396.1 220.0 396.1 222.7 393.4 Z M 222.7 393.4 " fill="#0B4DC6"></path></g></g><g><clipPath id="clip0x6080024beea0"><path d="M 211.9 393.9 L 220.4 401.8 L 228.3 393.3 L 219.8 385.4 Z M 211.9 393.9 "></path></clipPath><g clip-path="url(#clip0x6080024beea0)"><path d="M 0.0 0.0 L 3.9 0.0 L -4.7 0.0 " fill="none" stroke="#000000" stroke-width="2.00" transform="matrix(0.73, 0.68, 0.68, -0.73, 220.7, 394.2)"></path><path d="M 219.8 386.8 L 223.6 396.8 L 213.3 393.8 Z M 219.8 386.8 " fill="#000000"></path></g></g><g><clipPath id="clip0x6080024bf1a0"><path d="M 165.4 386.2 L 181.2 386.2 L 181.2 402.0 L 165.4 402.0 Z M 165.4 386.2 "></path></clipPath><g clip-path="url(#clip0x6080024bf1a0)"><path d="M 178.2 399.0 C 180.9 396.3 180.9 391.9 178.2 389.2 C 175.5 386.5 171.1 386.5 168.4 389.2 C 165.7 391.9 165.7 396.3 168.4 399.0 C 171.1 401.7 175.5 401.7 178.2 399.0 Z M 178.2 399.0 " fill="#0B4DC6"></path></g></g><g><clipPath id="clip0x6080024bf3e0"><path d="M 172.9 397.6 L 183.7 401.7 L 187.9 390.9 L 177.0 386.8 Z M 172.9 397.6 "></path></clipPath><g clip-path="url(#clip0x6080024bf3e0)"><path d="M 0.0 0.0 L 5.4 0.0 L -3.2 0.0 " fill="none" stroke="#000000" stroke-width="2.00" transform="matrix(0.93, 0.35, 0.35, -0.93, 179.8, 394.0)"></path><path d="M 177.6 388.0 L 184.9 395.9 L 174.2 397.0 Z M 177.6 388.0 " fill="#000000"></path></g></g><g><clipPath id="clip0x6080024bf6e0"><path d="M 187.5 374.1 L 203.3 374.1 L 203.3 389.9 L 187.5 389.9 Z M 187.5 374.1 "></path></clipPath><g clip-path="url(#clip0x6080024bf6e0)"><path d="M 200.3 386.9 C 203.0 384.2 203.0 379.8 200.3 377.1 C 197.6 374.4 193.2 374.4 190.5 377.1 C 187.9 379.8 187.9 384.2 190.5 386.9 C 193.2 389.6 197.6 389.6 200.3 386.9 Z M 200.3 386.9 " fill="#0B4DC6"></path></g></g><g><clipPath id="clip0x6080024bf920"><path d="M 202.4 382.8 L 205.1 371.6 L 193.9 368.8 L 191.1 380.1 Z M 202.4 382.8 "></path></clipPath><g clip-path="url(#clip0x6080024bf920)"><path d="M 0.0 0.0 L 5.2 0.0 L -3.4 0.0 " fill="none" stroke="#000000" stroke-width="2.00" transform="matrix(0.24, -0.97, -0.97, -0.24, 198.0, 376.2)"></path><path d="M 192.3 379.3 L 199.3 371.2 L 201.7 381.6 Z M 192.3 379.3 " fill="#000000"></path></g></g><g><clipPath id="clip0x6080024bfc20"><path d="M 165.4 364.9 L 181.2 364.9 L 181.2 380.7 L 165.4 380.7 Z M 165.4 364.9 "></path></clipPath><g clip-path="url(#clip0x6080024bfc20)"><path d="M 178.2 377.6 C 180.9 375.0 180.9 370.6 178.2 367.9 C 175.5 365.2 171.1 365.2 168.4 367.9 C 165.7 370.6 165.7 375.0 168.4 377.6 C 171.1 380.3 175.5 380.3 178.2 377.6 Z M 178.2 377.6 " fill="#0B4DC6"></path></g></g><g><clipPath id="clip0x6080024bfe60"><path d="M 177.0 373.4 L 179.7 362.1 L 168.4 359.4 L 165.7 370.7 Z M 177.0 373.4 "></path></clipPath><g clip-path="url(#clip0x6080024bfe60)"><path d="M 0.0 0.0 L 5.1 0.0 L -3.5 0.0 " fill="none" stroke="#000000" stroke-width="2.00" transform="matrix(0.23, -0.97, -0.97, -0.23, 172.6, 366.7)"></path><path d="M 166.9 370.0 L 173.8 361.7 L 176.3 372.2 Z M 166.9 370.0 " fill="#000000"></path></g></g><g><clipPath id="clip0x6080026a0180"><path d="M 185.7 348.1 L 201.5 348.1 L 201.5 363.9 L 185.7 363.9 Z M 185.7 348.1 "></path></clipPath><g clip-path="url(#clip0x6080026a0180)"><path d="M 198.5 360.8 C 201.1 358.2 201.1 353.8 198.5 351.1 C 195.8 348.4 191.4 348.4 188.7 351.1 C 186.0 353.8 186.0 358.2 188.7 360.8 C 191.4 363.5 195.8 363.5 198.5 360.8 Z M 198.5 360.8 " fill="#0B4DC6"></path></g></g><g><clipPath id="clip0x6080026a03c0"><path d="M 188.4 354.2 L 182.7 364.3 L 192.8 370.0 L 198.5 359.9 Z M 188.4 354.2 "></path></clipPath><g clip-path="url(#clip0x6080026a03c0)"><path d="M 0.0 0.0 L 4.5 0.0 L -4.1 0.0 " fill="none" stroke="#000000" stroke-width="2.00" transform="matrix(-0.49, 0.87, 0.87, 0.49, 190.5, 362.4)"></path><path d="M 197.2 360.3 L 188.2 366.3 L 188.8 355.5 Z M 197.2 360.3 " fill="#000000"></path></g></g><g><clipPath id="clip0x6080026a06c0"><path d="M 206.5 357.6 L 222.3 357.6 L 222.3 373.4 L 206.5 373.4 Z M 206.5 357.6 "></path></clipPath><g clip-path="url(#clip0x6080026a06c0)"><path d="M 219.3 370.4 C 222.0 367.7 222.0 363.3 219.3 360.6 C 216.6 358.0 212.3 358.0 209.6 360.6 C 206.9 363.3 206.9 367.7 209.6 370.4 C 212.3 373.1 216.6 373.1 219.3 370.4 Z M 219.3 370.4 " fill="#0B4DC6"></path></g></g><g><clipPath id="clip0x6080026a0900"><path d="M 218.7 361.6 L 213.9 351.1 L 203.4 355.9 L 208.2 366.5 Z M 218.7 361.6 "></path></clipPath><g clip-path="url(#clip0x6080026a0900)"><path d="M 0.0 0.0 L 7.9 0.0 L -0.7 0.0 " fill="none" stroke="#000000" stroke-width="2.00" transform="matrix(-0.42, -0.91, -0.91, 0.42, 212.3, 361.6)"></path><path d="M 208.7 365.1 L 209.1 354.4 L 217.4 361.2 Z M 208.7 365.1 " fill="#000000"></path></g></g><g><clipPath id="clip0x6080026a0c00"><path d="M 291.5 335.8 L 428.0 335.8 L 428.0 466.2 L 291.5 466.2 Z M 291.5 335.8 "></path></clipPath><g clip-path="url(#clip0x6080026a0c00)"><path d="M 0.5 0.2 L 132.5 0.2 L 132.5 126.2 L 0.5 126.2 Z M 0.0 0.0 " fill="none" stroke="#000000" stroke-width="2.00" transform="matrix(1.00, 0.00, 0.00, -1.00, 293.5, 464.2)"></path></g></g><g><clipPath id="clip0x6080026a0e40"><path d="M 363.8 380.9 L 379.5 380.9 L 379.5 396.6 L 363.8 396.6 Z M 363.8 380.9 "></path></clipPath><g clip-path="url(#clip0x6080026a0e40)"><path d="M 376.5 393.6 C 379.2 390.9 379.2 386.6 376.5 383.9 C 373.8 381.3 369.5 381.3 366.8 383.9 C 364.2 386.6 364.2 390.9 366.8 393.6 C 369.5 396.3 373.8 396.3 376.5 393.6 Z M 376.5 393.6 " fill="#C7786D"></path></g></g><g><clipPath id="clip0x6080026a1080"><path d="M 369.1 396.6 L 386.4 424.0 L 396.2 417.8 L 378.9 390.5 Z M 369.1 396.6 "></path></clipPath><g clip-path="url(#clip0x6080026a1080)"><path d="M 0.0 0.0 L 20.7 0.0 L 21.7 0.0 " fill="none" stroke="#000000" stroke-width="2.00" transform="matrix(0.53, 0.85, 0.85, -0.53, 374.6, 394.4)"></path><path d="M 389.7 409.4 L 390.8 420.1 L 381.6 414.5 Z M 389.7 409.4 " fill="#000000"></path></g></g><g><clipPath id="clip0x6080026a1380"><path d="M 384.2 367.2 L 399.9 367.2 L 399.9 382.9 L 384.2 382.9 Z M 384.2 367.2 "></path></clipPath><g clip-path="url(#clip0x6080026a1380)"><path d="M 396.9 379.9 C 399.6 377.2 399.6 372.9 396.9 370.2 C 394.3 367.5 389.9 367.5 387.2 370.2 C 384.6 372.9 384.6 377.2 387.2 379.9 C 389.9 382.5 394.3 382.5 396.9 379.9 Z M 396.9 379.9 " fill="#C7786D"></path></g></g><g><clipPath id="clip0x6080026a15c0"><path d="M 398.0 380.8 L 433.3 377.9 L 432.4 366.4 L 397.1 369.3 Z M 398.0 380.8 "></path></clipPath><g clip-path="url(#clip0x6080026a15c0)"><path d="M 0.0 0.0 L 23.8 0.0 L 24.8 0.0 " fill="none" stroke="#000000" stroke-width="2.00" transform="matrix(1.00, -0.08, -0.08, -1.00, 398.6, 375.0)"></path><path d="M 421.9 368.2 L 431.8 372.2 L 422.7 377.8 Z M 421.9 368.2 " fill="#000000"></path></g></g><g><clipPath id="clip0x6080026a18c0"><path d="M 349.1 376.3 L 364.8 376.3 L 364.8 392.0 L 349.1 392.0 Z M 349.1 376.3 "></path></clipPath><g clip-path="url(#clip0x6080026a18c0)"><path d="M 361.8 389.0 C 364.5 386.3 364.5 382.0 361.8 379.3 C 359.1 376.6 354.8 376.6 352.1 379.3 C 349.5 382.0 349.5 386.3 352.1 389.0 C 354.8 391.6 359.1 391.6 361.8 389.0 Z M 361.8 389.0 " fill="#C7786D"></path></g></g><g><clipPath id="clip0x6080026a1b00"><path d="M 364.8 381.1 L 375.3 348.8 L 364.2 345.2 L 353.7 377.5 Z M 364.8 381.1 "></path></clipPath><g clip-path="url(#clip0x6080026a1b00)"><path d="M 0.0 0.0 L 22.4 0.0 L 23.4 0.0 " fill="none" stroke="#000000" stroke-width="2.00" transform="matrix(0.31, -0.95, -0.95, -0.31, 359.6, 378.4)"></path><path d="M 361.9 355.6 L 369.4 348.0 L 371.0 358.6 Z M 361.9 355.6 " fill="#000000"></path></g></g><g><clipPath id="clip0x6080026a1e00"><path d="M 329.3 369.3 L 345.0 369.3 L 345.0 385.0 L 329.3 385.0 Z M 329.3 369.3 "></path></clipPath><g clip-path="url(#clip0x6080026a1e00)"><path d="M 342.0 382.0 C 344.7 379.3 344.7 375.0 342.0 372.3 C 339.3 369.6 335.0 369.6 332.3 372.3 C 329.7 375.0 329.7 379.3 332.3 382.0 C 335.0 384.7 339.3 384.7 342.0 382.0 Z M 342.0 382.0 " fill="#C7786D"></path></g></g><g><clipPath id="clip0x6080026a2040"><path d="M 342.4 371.5 L 340.4 353.3 L 328.8 354.6 L 330.9 372.7 Z M 342.4 371.5 "></path></clipPath><g clip-path="url(#clip0x6080026a2040)"><path d="M 0.0 0.0 L 6.7 0.0 L 7.7 0.0 " fill="none" stroke="#000000" stroke-width="2.00" transform="matrix(-0.11, -0.99, -0.99, 0.11, 336.5, 371.1)"></path><path d="M 331.0 365.0 L 334.7 354.9 L 340.5 363.9 Z M 331.0 365.0 " fill="#000000"></path></g></g><g><clipPath id="clip0x6080026a2340"><path d="M 347.2 355.8 L 362.9 355.8 L 362.9 371.4 L 347.2 371.4 Z M 347.2 355.8 "></path></clipPath><g clip-path="url(#clip0x6080026a2340)"><path d="M 359.9 368.4 C 362.5 365.8 362.5 361.4 359.9 358.8 C 357.2 356.1 352.9 356.1 350.2 358.8 C 347.5 361.4 347.5 365.8 350.2 368.4 C 352.9 371.1 357.2 371.1 359.9 368.4 Z M 359.9 368.4 " fill="#C7786D"></path></g></g><g><clipPath id="clip0x6080026a2580"><path d="M 347.9 365.7 L 329.4 390.7 L 338.7 397.6 L 357.2 372.6 Z M 347.9 365.7 "></path></clipPath><g clip-path="url(#clip0x6080026a2580)"><path d="M 0.0 0.0 L 19.5 0.0 L 20.5 0.0 " fill="none" stroke="#000000" stroke-width="2.00" transform="matrix(-0.59, 0.80, 0.80, 0.59, 351.9, 369.9)"></path><path d="M 344.2 388.4 L 334.7 393.3 L 336.5 382.7 Z M 344.2 388.4 " fill="#000000"></path></g></g><g><clipPath id="clip0x6080026a2880"><path d="M 367.6 361.6 L 383.3 361.6 L 383.3 377.3 L 367.6 377.3 Z M 367.6 361.6 "></path></clipPath><g clip-path="url(#clip0x6080026a2880)"><path d="M 380.3 374.3 C 383.0 371.6 383.0 367.3 380.3 364.6 C 377.6 361.9 373.3 361.9 370.6 364.6 C 367.9 367.3 367.9 371.6 370.6 374.3 C 373.3 376.9 377.6 376.9 380.3 374.3 Z M 380.3 374.3 " fill="#C7786D"></path></g></g><g><clipPath id="clip0x6080026a2ac0"><path d="M 379.2 365.1 L 370.6 330.8 L 359.3 333.6 L 368.0 367.9 Z M 379.2 365.1 "></path></clipPath><g clip-path="url(#clip0x6080026a2ac0)"><path d="M 0.0 0.0 L 23.8 0.0 L 24.8 0.0 " fill="none" stroke="#000000" stroke-width="2.00" transform="matrix(-0.24, -0.97, -0.97, 0.24, 373.4, 365.5)"></path><path d="M 362.9 343.6 L 365.2 333.1 L 372.2 341.3 Z M 362.9 343.6 " fill="#000000"></path></g></g><g><clipPath id="clip0x6080026a2e20"><path d="M 795.4 337.9 L 931.9 337.9 L 931.9 468.3 L 795.4 468.3 Z M 795.4 337.9 "></path></clipPath><g clip-path="url(#clip0x6080026a2e20)"><path d="M -0.4 0.3 L 132.6 0.3 L 132.6 126.3 L -0.4 126.3 Z M 0.0 0.0 " fill="none" stroke="#000000" stroke-width="2.00" transform="matrix(1.00, 0.00, 0.00, -1.00, 797.4, 466.3)"></path></g></g><g><clipPath id="clip0x6080026a3060"><path d="M 894.0 378.4 L 909.7 378.4 L 909.7 394.1 L 894.0 394.1 Z M 894.0 378.4 "></path></clipPath><g clip-path="url(#clip0x6080026a3060)"><path d="M 906.7 391.1 C 909.3 388.4 909.3 384.1 906.7 381.4 C 904.0 378.7 899.7 378.7 897.0 381.4 C 894.3 384.1 894.3 388.4 897.0 391.1 C 899.7 393.8 904.0 393.8 906.7 391.1 Z M 906.7 391.1 " fill="#C7786D"></path></g></g><g><clipPath id="clip0x6080026a3300"><path d="M 855.8 403.1 L 871.5 403.1 L 871.5 418.7 L 855.8 418.7 Z M 855.8 403.1 "></path></clipPath><g clip-path="url(#clip0x6080026a3300)"><path d="M 868.5 415.7 C 871.2 413.1 871.2 408.7 868.5 406.1 C 865.8 403.4 861.5 403.4 858.8 406.1 C 856.2 408.7 856.2 413.1 858.8 415.7 C 861.5 418.4 865.8 418.4 868.5 415.7 Z M 868.5 415.7 " fill="#C7786D"></path></g></g><g><clipPath id="clip0x6080026a3540"><path d="M 900.4 425.8 L 916.1 425.8 L 916.1 441.5 L 900.4 441.5 Z M 900.4 425.8 "></path></clipPath><g clip-path="url(#clip0x6080026a3540)"><path d="M 913.1 438.5 C 915.7 435.9 915.7 431.5 913.1 428.8 C 910.4 426.2 906.1 426.2 903.4 428.8 C 900.7 431.5 900.7 435.9 903.4 438.5 C 906.1 441.2 910.4 441.2 913.1 438.5 Z M 913.1 438.5 " fill="#C7786D"></path></g></g><g><clipPath id="clip0x6080026a3780"><path d="M 855.8 352.5 L 871.5 352.5 L 871.5 368.2 L 855.8 368.2 Z M 855.8 352.5 "></path></clipPath><g clip-path="url(#clip0x6080026a3780)"><path d="M 868.5 365.2 C 871.2 362.5 871.2 358.2 868.5 355.5 C 865.8 352.8 861.5 352.8 858.8 355.5 C 856.2 358.2 856.2 362.5 858.8 365.2 C 861.5 367.9 865.8 367.9 868.5 365.2 Z M 868.5 365.2 " fill="#C7786D"></path></g></g><g><clipPath id="clip0x6080026a39c0"><path d="M 821.4 436.5 L 837.0 436.5 L 837.0 452.2 L 821.4 452.2 Z M 821.4 436.5 "></path></clipPath><g clip-path="url(#clip0x6080026a39c0)"><path d="M 834.0 449.2 C 836.7 446.5 836.7 442.2 834.0 439.5 C 831.4 436.9 827.0 436.9 824.4 439.5 C 821.7 442.2 821.7 446.5 824.4 449.2 C 827.0 451.9 831.4 451.9 834.0 449.2 Z M 834.0 449.2 " fill="#C7786D"></path></g></g><g><clipPath id="clip0x6080026a3c00"><path d="M 821.4 378.4 L 837.0 378.4 L 837.0 394.1 L 821.4 394.1 Z M 821.4 378.4 "></path></clipPath><g clip-path="url(#clip0x6080026a3c00)"><path d="M 834.0 391.1 C 836.7 388.4 836.7 384.1 834.0 381.4 C 831.4 378.7 827.0 378.7 824.4 381.4 C 821.7 384.1 821.7 388.4 824.4 391.1 C 827.0 393.8 831.4 393.8 834.0 391.1 Z M 834.0 391.1 " fill="#C7786D"></path></g></g><g><clipPath id="clip0x6080026a3e40"><path d="M 905.7 441.6 L 922.9 468.9 L 932.8 462.7 L 915.5 435.4 Z M 905.7 441.6 "></path></clipPath><g clip-path="url(#clip0x6080026a3e40)"><path d="M 0.0 0.0 L 20.7 0.0 L 21.7 0.0 " fill="none" stroke="#000000" stroke-width="2.00" transform="matrix(0.53, 0.85, 0.85, -0.53, 911.1, 439.3)"></path><path d="M 926.3 454.3 L 927.3 465.0 L 918.1 459.4 Z M 926.3 454.3 " fill="#000000"></path></g></g><g><clipPath id="clip0x6080026a4140"><path d="M 835.1 450.1 L 870.4 447.2 L 869.5 435.7 L 834.2 438.6 Z M 835.1 450.1 "></path></clipPath><g clip-path="url(#clip0x6080026a4140)"><path d="M 0.0 0.0 L 23.8 0.0 L 24.8 0.0 " fill="none" stroke="#000000" stroke-width="2.00" transform="matrix(1.00, -0.08, -0.08, -1.00, 835.7, 444.3)"></path><path d="M 859.0 437.6 L 868.9 441.6 L 859.8 447.1 Z M 859.0 437.6 " fill="#000000"></path></g></g><g><clipPath id="clip0x6080026a4440"><path d="M 871.5 407.9 L 882.0 375.6 L 870.9 372.0 L 860.4 404.3 Z M 871.5 407.9 "></path></clipPath><g clip-path="url(#clip0x6080026a4440)"><path d="M 0.0 0.0 L 22.4 0.0 L 23.4 0.0 " fill="none" stroke="#000000" stroke-width="2.00" transform="matrix(0.31, -0.95, -0.95, -0.31, 866.3, 405.1)"></path><path d="M 868.6 382.4 L 876.1 374.7 L 877.7 385.3 Z M 868.6 382.4 " fill="#000000"></path></g></g><g><clipPath id="clip0x6080026a4740"><path d="M 834.4 380.6 L 832.4 362.4 L 820.9 363.7 L 822.9 381.8 Z M 834.4 380.6 "></path></clipPath><g clip-path="url(#clip0x6080026a4740)"><path d="M 0.0 0.0 L 6.7 0.0 L 7.7 0.0 " fill="none" stroke="#000000" stroke-width="2.00" transform="matrix(-0.11, -0.99, -0.99, 0.11, 828.5, 380.2)"></path><path d="M 823.0 374.1 L 826.7 364.0 L 832.6 373.0 Z M 823.0 374.1 " fill="#000000"></path></g></g><g><clipPath id="clip0x6080026a4a40"><path d="M 856.5 362.4 L 838.0 387.4 L 847.4 394.3 L 865.8 369.3 Z M 856.5 362.4 "></path></clipPath><g clip-path="url(#clip0x6080026a4a40)"><path d="M 0.0 0.0 L 19.5 0.0 L 20.5 0.0 " fill="none" stroke="#000000" stroke-width="2.00" transform="matrix(-0.59, 0.80, 0.80, 0.59, 860.6, 366.7)"></path><path d="M 852.9 385.2 L 843.3 390.1 L 845.1 379.5 Z M 852.9 385.2 " fill="#000000"></path></g></g><g><clipPath id="clip0x6080026a4d40"><path d="M 905.6 381.9 L 897.0 347.6 L 885.7 350.4 L 894.4 384.7 Z M 905.6 381.9 "></path></clipPath><g clip-path="url(#clip0x6080026a4d40)"><path d="M 0.0 0.0 L 23.8 0.0 L 24.8 0.0 " fill="none" stroke="#000000" stroke-width="2.00" transform="matrix(-0.24, -0.97, -0.97, 0.24, 899.7, 382.3)"></path><path d="M 889.3 360.4 L 891.6 350.0 L 898.6 358.1 Z M 889.3 360.4 " fill="#000000"></path></g></g><g><clipPath id="clip0x6080026a5040"><path d="M 629.6 337.9 L 766.0 337.9 L 766.0 468.3 L 629.6 468.3 Z M 629.6 337.9 "></path></clipPath><g clip-path="url(#clip0x6080026a5040)"><path d="M 0.4 0.3 L 132.4 0.3 L 132.4 126.3 L 0.4 126.3 Z M 0.0 0.0 " fill="none" stroke="#000000" stroke-width="2.00" transform="matrix(1.00, 0.00, 0.00, -1.00, 631.6, 466.3)"></path></g></g><g><clipPath id="clip0x6080026a5280"><path d="M 701.8 383.0 L 717.5 383.0 L 717.5 398.7 L 701.8 398.7 Z M 701.8 383.0 "></path></clipPath><g clip-path="url(#clip0x6080026a5280)"><path d="M 714.5 395.7 C 717.2 393.0 717.2 388.7 714.5 386.0 C 711.9 383.3 707.5 383.3 704.8 386.0 C 702.2 388.7 702.2 393.0 704.8 395.7 C 707.5 398.4 711.9 398.4 714.5 395.7 Z M 714.5 395.7 " fill="#C7786D"></path></g></g><g><clipPath id="clip0x6080026a54c0"><path d="M 707.2 398.7 L 724.4 426.1 L 734.2 419.9 L 717.0 392.5 Z M 707.2 398.7 "></path></clipPath><g clip-path="url(#clip0x6080026a54c0)"><path d="M 0.0 0.0 L 20.7 0.0 L 21.7 0.0 " fill="none" stroke="#000000" stroke-width="2.00" transform="matrix(0.53, 0.85, 0.85, -0.53, 712.6, 396.5)"></path><path d="M 727.7 411.4 L 728.8 422.1 L 719.6 416.6 Z M 727.7 411.4 " fill="#000000"></path></g></g><g><clipPath id="clip0x6080026a57c0"><path d="M 722.3 369.3 L 738.0 369.3 L 738.0 384.9 L 722.3 384.9 Z M 722.3 369.3 "></path></clipPath><g clip-path="url(#clip0x6080026a57c0)"><path d="M 734.9 381.9 C 737.6 379.3 737.6 374.9 734.9 372.3 C 732.3 369.6 727.9 369.6 725.3 372.3 C 722.6 374.9 722.6 379.3 725.3 381.9 C 727.9 384.6 732.3 384.6 734.9 381.9 Z M 734.9 381.9 " fill="#C7786D"></path></g></g><g><clipPath id="clip0x6080026a5a00"><path d="M 736.1 382.9 L 771.3 380.0 L 770.4 368.4 L 735.1 371.3 Z M 736.1 382.9 "></path></clipPath><g clip-path="url(#clip0x6080026a5a00)"><path d="M 0.0 0.0 L 23.8 0.0 L 24.8 0.0 " fill="none" stroke="#000000" stroke-width="2.00" transform="matrix(1.00, -0.08, -0.08, -1.00, 736.6, 377.0)"></path><path d="M 759.9 370.3 L 769.9 374.3 L 760.7 379.9 Z M 759.9 370.3 " fill="#000000"></path></g></g><g><clipPath id="clip0x6080026a5d00"><path d="M 687.2 378.4 L 702.8 378.4 L 702.8 394.0 L 687.2 394.0 Z M 687.2 378.4 "></path></clipPath><g clip-path="url(#clip0x6080026a5d00)"><path d="M 699.8 391.0 C 702.5 388.4 702.5 384.0 699.8 381.4 C 697.2 378.7 692.8 378.7 690.2 381.4 C 687.5 384.0 687.5 388.4 690.2 391.0 C 692.8 393.7 697.2 393.7 699.8 391.0 Z M 699.8 391.0 " fill="#C7786D"></path></g></g><g><clipPath id="clip0x6080026a5f40"><path d="M 702.8 383.2 L 713.3 350.9 L 702.3 347.3 L 691.8 379.6 Z M 702.8 383.2 "></path></clipPath><g clip-path="url(#clip0x6080026a5f40)"><path d="M 0.0 0.0 L 22.4 0.0 L 23.4 0.0 " fill="none" stroke="#000000" stroke-width="2.00" transform="matrix(0.31, -0.95, -0.95, -0.31, 697.6, 380.4)"></path><path d="M 699.9 357.7 L 707.5 350.0 L 709.1 360.6 Z M 699.9 357.7 " fill="#000000"></path></g></g><g><clipPath id="clip0x6080026a6240"><path d="M 667.3 371.4 L 683.0 371.4 L 683.0 387.1 L 667.3 387.1 Z M 667.3 371.4 "></path></clipPath><g clip-path="url(#clip0x6080026a6240)"><path d="M 680.0 384.1 C 682.7 381.4 682.7 377.1 680.0 374.4 C 677.4 371.7 673.0 371.7 670.4 374.4 C 667.7 377.1 667.7 381.4 670.4 384.1 C 673.0 386.7 677.4 386.7 680.0 384.1 Z M 680.0 384.1 " fill="#C7786D"></path></g></g><g><clipPath id="clip0x6080026a6480"><path d="M 680.4 373.5 L 678.4 355.4 L 666.9 356.6 L 668.9 374.8 Z M 680.4 373.5 "></path></clipPath><g clip-path="url(#clip0x6080026a6480)"><path d="M 0.0 0.0 L 6.7 0.0 L 7.7 0.0 " fill="none" stroke="#000000" stroke-width="2.00" transform="matrix(-0.11, -0.99, -0.99, 0.11, 674.5, 373.2)"></path><path d="M 669.0 367.1 L 672.7 357.0 L 678.6 366.0 Z M 669.0 367.1 " fill="#000000"></path></g></g><g><clipPath id="clip0x6080026a6780"><path d="M 685.2 357.8 L 700.9 357.8 L 700.9 373.5 L 685.2 373.5 Z M 685.2 357.8 "></path></clipPath><g clip-path="url(#clip0x6080026a6780)"><path d="M 697.9 370.5 C 700.6 367.8 700.6 363.5 697.9 360.8 C 695.2 358.2 690.9 358.2 688.2 360.8 C 685.5 363.5 685.5 367.8 688.2 370.5 C 690.9 373.2 695.2 373.2 697.9 370.5 Z M 697.9 370.5 " fill="#C7786D"></path></g></g><g><clipPath id="clip0x6080026a69c0"><path d="M 685.9 367.8 L 667.4 392.7 L 676.8 399.6 L 695.2 374.6 Z M 685.9 367.8 "></path></clipPath><g clip-path="url(#clip0x6080026a69c0)"><path d="M 0.0 0.0 L 19.5 0.0 L 20.5 0.0 " fill="none" stroke="#000000" stroke-width="2.00" transform="matrix(-0.59, 0.80, 0.80, 0.59, 690.0, 372.0)"></path><path d="M 682.2 390.5 L 672.7 395.4 L 674.5 384.8 Z M 682.2 390.5 " fill="#000000"></path></g></g><g><clipPath id="clip0x6080026a6cc0"><path d="M 705.6 363.7 L 721.3 363.7 L 721.3 379.4 L 705.6 379.4 Z M 705.6 363.7 "></path></clipPath><g clip-path="url(#clip0x6080026a6cc0)"><path d="M 718.3 376.3 C 721.0 373.7 721.0 369.3 718.3 366.7 C 715.6 364.0 711.3 364.0 708.6 366.7 C 706.0 369.3 706.0 373.7 708.6 376.3 C 711.3 379.0 715.6 379.0 718.3 376.3 Z M 718.3 376.3 " fill="#C7786D"></path></g></g><g><clipPath id="clip0x6080026a6f00"><path d="M 717.3 367.2 L 708.6 332.8 L 697.4 335.7 L 706.0 370.0 Z M 717.3 367.2 "></path></clipPath><g clip-path="url(#clip0x6080026a6f00)"><path d="M 0.0 0.0 L 23.8 0.0 L 24.8 0.0 " fill="none" stroke="#000000" stroke-width="2.00" transform="matrix(-0.24, -0.97, -0.97, 0.24, 711.4, 367.6)"></path><path d="M 700.9 345.7 L 703.2 335.2 L 710.2 343.3 Z M 700.9 345.7 " fill="#000000"></path></g></g><text xml:space="preserve" font-family="Georgia,Georgia" font-size="28.0" fill="#000000" transform="matrix(1.00, 0.00, -0.00, -1.00, 168.6, 473.9)">1</text><text xml:space="preserve" font-family="Georgia,Georgia" font-size="28.0" fill="#000000" transform="matrix(1.00, 0.00, -0.00, -1.00, 180.7, 473.9)">0</text><text xml:space="preserve" font-family="Georgia,Georgia" font-size="28.0" fill="#000000" transform="matrix(1.00, 0.00, -0.00, -1.00, 197.8, 473.9)"> </text><text xml:space="preserve" font-family="Georgia,Georgia" font-size="18.7" fill="#000000" transform="matrix(1.00, 0.00, -0.00, -1.00, 204.6, 482.5)">o</text><text xml:space="preserve" font-family="Georgia,Georgia" font-size="28.0" fill="#000000" transform="matrix(1.00, 0.00, -0.00, -1.00, 214.7, 473.9)">C</text><text xml:space="preserve" font-family="Georgia,Georgia" font-size="28.0" fill="#000000" transform="matrix(1.00, 0.00, -0.00, -1.00, 327.7, 473.9)">1</text><text xml:space="preserve" font-family="Georgia,Georgia" font-size="28.0" fill="#000000" transform="matrix(1.00, 0.00, -0.00, -1.00, 339.7, 473.9)">0</text><text xml:space="preserve" font-family="Georgia,Georgia" font-size="28.0" fill="#000000" transform="matrix(1.00, 0.00, -0.00, -1.00, 356.9, 473.9)">0</text><text xml:space="preserve" font-family="Georgia,Georgia" font-size="28.0" fill="#000000" transform="matrix(1.00, 0.00, -0.00, -1.00, 374.1, 473.9)"> </text><text xml:space="preserve" font-family="Georgia,Georgia" font-size="18.7" fill="#000000" transform="matrix(1.00, 0.00, -0.00, -1.00, 380.8, 482.5)">o</text><text xml:space="preserve" font-family="Georgia,Georgia" font-size="28.0" fill="#000000" transform="matrix(1.00, 0.00, -0.00, -1.00, 390.9, 473.9)">C</text><text xml:space="preserve" font-family="Georgia,Georgia" font-size="28.0" fill="#000000" transform="matrix(1.00, 0.00, -0.00, -1.00, 659.0, 476.0)">1</text><text xml:space="preserve" font-family="Georgia,Georgia" font-size="28.0" fill="#000000" transform="matrix(1.00, 0.00, -0.00, -1.00, 671.0, 476.0)">0</text><text xml:space="preserve" font-family="Georgia,Georgia" font-size="28.0" fill="#000000" transform="matrix(1.00, 0.00, -0.00, -1.00, 688.2, 476.0)">0</text><text xml:space="preserve" font-family="Georgia,Georgia" font-size="28.0" fill="#000000" transform="matrix(1.00, 0.00, -0.00, -1.00, 705.4, 476.0)"> </text><text xml:space="preserve" font-family="Georgia,Georgia" font-size="18.7" fill="#000000" transform="matrix(1.00, 0.00, -0.00, -1.00, 712.2, 484.5)">o</text><text xml:space="preserve" font-family="Georgia,Georgia" font-size="28.0" fill="#000000" transform="matrix(1.00, 0.00, -0.00, -1.00, 722.2, 476.0)">C</text><text xml:space="preserve" font-family="Georgia,Georgia" font-size="28.0" fill="#000000" transform="matrix(1.00, 0.00, -0.00, -1.00, 827.4, 476.0)">1</text><text xml:space="preserve" font-family="Georgia,Georgia" font-size="28.0" fill="#000000" transform="matrix(1.00, 0.00, -0.00, -1.00, 839.4, 476.0)">0</text><text xml:space="preserve" font-family="Georgia,Georgia" font-size="28.0" fill="#000000" transform="matrix(1.00, 0.00, -0.00, -1.00, 856.6, 476.0)">0</text><text xml:space="preserve" font-family="Georgia,Georgia" font-size="28.0" fill="#000000" transform="matrix(1.00, 0.00, -0.00, -1.00, 873.8, 476.0)"> </text><text xml:space="preserve" font-family="Georgia,Georgia" font-size="18.7" fill="#000000" transform="matrix(1.00, 0.00, -0.00, -1.00, 880.5, 484.5)">o</text><text xml:space="preserve" font-family="Georgia,Georgia" font-size="28.0" fill="#000000" transform="matrix(1.00, 0.00, -0.00, -1.00, 890.6, 476.0)">C</text><text xml:space="preserve" font-family="Georgia,Georgia" font-size="28.0" fill="#000000" transform="matrix(1.00, 0.00, -0.00, -1.00, 161.1, 526.0)">V</text><text xml:space="preserve" font-family="Georgia,Georgia" font-size="28.0" fill="#000000" transform="matrix(1.00, 0.00, -0.00, -1.00, 179.8, 526.0)">e</text><text xml:space="preserve" font-family="Georgia,Georgia" font-size="28.0" fill="#000000" transform="matrix(1.00, 0.00, -0.00, -1.00, 193.3, 526.0)">d</text><text xml:space="preserve" font-family="Georgia,Georgia" font-size="28.0" fill="#000000" transform="matrix(1.00, 0.00, -0.00, -1.00, 209.4, 526.0)">e</text><text xml:space="preserve" font-family="Georgia,Georgia" font-size="28.0" fill="#000000" transform="matrix(1.00, 0.00, -0.00, -1.00, 223.0, 526.0)">n</text><text xml:space="preserve" font-family="Georgia,Georgia" font-size="28.0" fill="#000000" transform="matrix(1.00, 0.00, -0.00, -1.00, 239.5, 526.0)"> </text><text xml:space="preserve" font-family="Georgia,Georgia" font-size="28.0" fill="#000000" transform="matrix(1.00, 0.00, -0.00, -1.00, 246.3, 526.0)">l</text><text xml:space="preserve" font-family="Georgia,Georgia" font-size="28.0" fill="#000000" transform="matrix(1.00, 0.00, -0.00, -1.00, 254.3, 526.0)">ä</text><text xml:space="preserve" font-family="Georgia,Georgia" font-size="28.0" fill="#000000" transform="matrix(1.00, 0.00, -0.00, -1.00, 268.4, 526.0)">m</text><text xml:space="preserve" font-family="Georgia,Georgia" font-size="28.0" fill="#000000" transform="matrix(1.00, 0.00, -0.00, -1.00, 293.0, 526.0)">m</text><text xml:space="preserve" font-family="Georgia,Georgia" font-size="28.0" fill="#000000" transform="matrix(1.00, 0.00, -0.00, -1.00, 317.7, 526.0)">i</text><text xml:space="preserve" font-family="Georgia,Georgia" font-size="28.0" fill="#000000" transform="matrix(1.00, 0.00, -0.00, -1.00, 325.9, 526.0)">t</text><text xml:space="preserve" font-family="Georgia,Georgia" font-size="28.0" fill="#000000" transform="matrix(1.00, 0.00, -0.00, -1.00, 335.6, 526.0)">t</text><text xml:space="preserve" font-family="Georgia,Georgia" font-size="28.0" fill="#000000" transform="matrix(1.00, 0.00, -0.00, -1.00, 345.3, 526.0)">ä</text><text xml:space="preserve" font-family="Georgia,Georgia" font-size="28.0" fill="#000000" transform="matrix(1.00, 0.00, -0.00, -1.00, 359.4, 526.0)">m</text><text xml:space="preserve" font-family="Georgia,Georgia" font-size="28.0" fill="#000000" transform="matrix(1.00, 0.00, -0.00, -1.00, 384.0, 526.0)">i</text><text xml:space="preserve" font-family="Georgia,Georgia" font-size="28.0" fill="#000000" transform="matrix(1.00, 0.00, -0.00, -1.00, 392.2, 526.0)">s</text><text xml:space="preserve" font-family="Georgia,Georgia" font-size="28.0" fill="#000000" transform="matrix(1.00, 0.00, -0.00, -1.00, 404.3, 526.0)">e</text><text xml:space="preserve" font-family="Georgia,Georgia" font-size="28.0" fill="#000000" transform="matrix(1.00, 0.00, -0.00, -1.00, 417.9, 526.0)">e</text><text xml:space="preserve" font-family="Georgia,Georgia" font-size="28.0" fill="#000000" transform="matrix(1.00, 0.00, -0.00, -1.00, 431.4, 526.0)">n</text><text xml:space="preserve" font-family="Georgia,Georgia" font-size="28.0" fill="#000000" transform="matrix(1.00, 0.00, -0.00, -1.00, 644.3, 528.1)">V</text><text xml:space="preserve" font-family="Georgia,Georgia" font-size="28.0" fill="#000000" transform="matrix(1.00, 0.00, -0.00, -1.00, 663.0, 528.1)">e</text><text xml:space="preserve" font-family="Georgia,Georgia" font-size="28.0" fill="#000000" transform="matrix(1.00, 0.00, -0.00, -1.00, 676.5, 528.1)">d</text><text xml:space="preserve" font-family="Georgia,Georgia" font-size="28.0" fill="#000000" transform="matrix(1.00, 0.00, -0.00, -1.00, 692.6, 528.1)">e</text><text xml:space="preserve" font-family="Georgia,Georgia" font-size="28.0" fill="#000000" transform="matrix(1.00, 0.00, -0.00, -1.00, 706.2, 528.1)">n</text><text xml:space="preserve" font-family="Georgia,Georgia" font-size="28.0" fill="#000000" transform="matrix(1.00, 0.00, -0.00, -1.00, 722.7, 528.1)"> </text><text xml:space="preserve" font-family="Georgia,Georgia" font-size="28.0" fill="#000000" transform="matrix(1.00, 0.00, -0.00, -1.00, 729.4, 528.1)">h</text><text xml:space="preserve" font-family="Georgia,Georgia" font-size="28.0" fill="#000000" transform="matrix(1.00, 0.00, -0.00, -1.00, 745.7, 528.1)">ö</text><text xml:space="preserve" font-family="Georgia,Georgia" font-size="28.0" fill="#000000" transform="matrix(1.00, 0.00, -0.00, -1.00, 760.8, 528.1)">y</text><text xml:space="preserve" font-family="Georgia,Georgia" font-size="28.0" fill="#000000" transform="matrix(1.00, 0.00, -0.00, -1.00, 774.6, 528.1)">r</text><text xml:space="preserve" font-family="Georgia,Georgia" font-size="28.0" fill="#000000" transform="matrix(1.00, 0.00, -0.00, -1.00, 786.1, 528.1)">y</text><text xml:space="preserve" font-family="Georgia,Georgia" font-size="28.0" fill="#000000" transform="matrix(1.00, 0.00, -0.00, -1.00, 799.9, 528.1)">s</text><text xml:space="preserve" font-family="Georgia,Georgia" font-size="28.0" fill="#000000" transform="matrix(1.00, 0.00, -0.00, -1.00, 812.0, 528.1)">t</text><text xml:space="preserve" font-family="Georgia,Georgia" font-size="28.0" fill="#000000" transform="matrix(1.00, 0.00, -0.00, -1.00, 821.7, 528.1)">ä</text><text xml:space="preserve" font-family="Georgia,Georgia" font-size="28.0" fill="#000000" transform="matrix(1.00, 0.00, -0.00, -1.00, 835.8, 528.1)">m</text><text xml:space="preserve" font-family="Georgia,Georgia" font-size="28.0" fill="#000000" transform="matrix(1.00, 0.00, -0.00, -1.00, 860.4, 528.1)">i</text><text xml:space="preserve" font-family="Georgia,Georgia" font-size="28.0" fill="#000000" transform="matrix(1.00, 0.00, -0.00, -1.00, 868.6, 528.1)">s</text><text xml:space="preserve" font-family="Georgia,Georgia" font-size="28.0" fill="#000000" transform="matrix(1.00, 0.00, -0.00, -1.00, 880.7, 528.1)">e</text><text xml:space="preserve" font-family="Georgia,Georgia" font-size="28.0" fill="#000000" transform="matrix(1.00, 0.00, -0.00, -1.00, 894.3, 528.1)">e</text><text xml:space="preserve" font-family="Georgia,Georgia" font-size="28.0" fill="#000000" transform="matrix(1.00, 0.00, -0.00, -1.00, 907.8, 528.1)">n</text><text xml:space="preserve" font-family="Georgia,Georgia" font-size="36.0" fill="#000000" transform="matrix(1.00, 0.00, -0.00, -1.00, 351.9, 201.7)">M</text><text xml:space="preserve" font-family="Georgia,Georgia" font-size="36.0" fill="#000000" transform="matrix(1.00, 0.00, -0.00, -1.00, 385.3, 201.7)">u</text><text xml:space="preserve" font-family="Georgia,Georgia" font-size="36.0" fill="#000000" transform="matrix(1.00, 0.00, -0.00, -1.00, 406.0, 201.7)">t</text><text xml:space="preserve" font-family="Georgia,Georgia" font-size="36.0" fill="#000000" transform="matrix(1.00, 0.00, -0.00, -1.00, 418.5, 201.7)">t</text><text xml:space="preserve" font-family="Georgia,Georgia" font-size="36.0" fill="#000000" transform="matrix(1.00, 0.00, -0.00, -1.00, 430.9, 201.7)">a</text><text xml:space="preserve" font-family="Georgia,Georgia" font-size="36.0" fill="#000000" transform="matrix(1.00, 0.00, -0.00, -1.00, 449.0, 201.7)"> </text><text xml:space="preserve" font-family="Georgia,Georgia" font-size="36.0" fill="#000000" transform="matrix(1.00, 0.00, -0.00, -1.00, 457.7, 201.7)">k</text><text xml:space="preserve" font-family="Georgia,Georgia" font-size="36.0" fill="#000000" transform="matrix(1.00, 0.00, -0.00, -1.00, 477.0, 201.7)">u</text><text xml:space="preserve" font-family="Georgia,Georgia" font-size="36.0" fill="#000000" transform="matrix(1.00, 0.00, -0.00, -1.00, 497.7, 201.7)">i</text><text xml:space="preserve" font-family="Georgia,Georgia" font-size="36.0" fill="#000000" transform="matrix(1.00, 0.00, -0.00, -1.00, 508.2, 201.7)">n</text><text xml:space="preserve" font-family="Georgia,Georgia" font-size="36.0" fill="#000000" transform="matrix(1.00, 0.00, -0.00, -1.00, 529.5, 201.7)">k</text><text xml:space="preserve" font-family="Georgia,Georgia" font-size="36.0" fill="#000000" transform="matrix(1.00, 0.00, -0.00, -1.00, 548.8, 201.7)">a</text><text xml:space="preserve" font-family="Georgia,Georgia" font-size="36.0" fill="#000000" transform="matrix(1.00, 0.00, -0.00, -1.00, 566.9, 201.7)"> </text><text xml:space="preserve" font-family="Georgia,Georgia" font-size="36.0" fill="#000000" transform="matrix(1.00, 0.00, -0.00, -1.00, 575.6, 201.7)">p</text><text xml:space="preserve" font-family="Georgia,Georgia" font-size="36.0" fill="#000000" transform="matrix(1.00, 0.00, -0.00, -1.00, 596.2, 201.7)">a</text><text xml:space="preserve" font-family="Georgia,Georgia" font-size="36.0" fill="#000000" transform="matrix(1.00, 0.00, -0.00, -1.00, 614.3, 201.7)">l</text><text xml:space="preserve" font-family="Georgia,Georgia" font-size="36.0" fill="#000000" transform="matrix(1.00, 0.00, -0.00, -1.00, 624.6, 201.7)">j</text><text xml:space="preserve" font-family="Georgia,Georgia" font-size="36.0" fill="#000000" transform="matrix(1.00, 0.00, -0.00, -1.00, 635.1, 201.7)">o</text><text xml:space="preserve" font-family="Georgia,Georgia" font-size="36.0" fill="#000000" transform="matrix(1.00, 0.00, -0.00, -1.00, 654.5, 201.7)">n</text><text xml:space="preserve" font-family="Georgia,Georgia" font-size="36.0" fill="#000000" transform="matrix(1.00, 0.00, -0.00, -1.00, 675.8, 201.7)">!</text><text xml:space="preserve" font-family="Georgia,Georgia" font-size="36.0" fill="#000000" transform="matrix(1.00, 0.00, -0.00, -1.00, 687.7, 201.7)">?</text><text xml:space="preserve" font-family="Georgia,Georgia" font-size="36.0" fill="#000000" transform="matrix(1.00, 0.00, -0.00, -1.00, 704.9, 201.7)">!</text></g></svg>