<?xml version="1.0" encoding="UTF-8" standalone="no"?><svg xmlns="http://www.w3.org/2000/svg" xmlns:xlink="http://www.w3.org/1999/xlink" clip-rule="evenodd" stroke-miterlimit="10" viewBox="0 0 1024 768"><desc>SVG generated by Keynote</desc><defs></defs><g transform="matrix(1.00, 0.00, -0.00, -1.00, 0.0, 768.0)"><path d="M 0.0 768.0 L 1024.0 768.0 L 1024.0 0.0 L 0.0 0.0 Z M 0.0 768.0 " fill="#FEFFFF"></path><text xml:space="preserve" font-family="Georgia,Georgia" font-size="65.0" fill="#000000" transform="matrix(1.00, 0.00, -0.00, -1.00, 177.6, 672.0)">I</text><text xml:space="preserve" font-family="Georgia,Georgia" font-size="65.0" fill="#000000" transform="matrix(1.00, 0.00, -0.00, -1.00, 202.9, 672.0)">l</text><text xml:space="preserve" font-family="Georgia,Georgia" font-size="65.0" fill="#000000" transform="matrix(1.00, 0.00, -0.00, -1.00, 221.5, 672.0)">m</text><text xml:space="preserve" font-family="Georgia,Georgia" font-size="65.0" fill="#000000" transform="matrix(1.00, 0.00, -0.00, -1.00, 278.7, 672.0)">a</text><text xml:space="preserve" font-family="Georgia,Georgia" font-size="65.0" fill="#000000" transform="matrix(1.00, 0.00, -0.00, -1.00, 311.5, 672.0)">n</text><text xml:space="preserve" font-family="Georgia,Georgia" font-size="65.0" fill="#000000" transform="matrix(1.00, 0.00, -0.00, -1.00, 349.9, 672.0)"> </text><text xml:space="preserve" font-family="Georgia,Georgia" font-size="65.0" fill="#000000" transform="matrix(1.00, 0.00, -0.00, -1.00, 365.5, 672.0)">j</text><text xml:space="preserve" font-family="Georgia,Georgia" font-size="65.0" fill="#000000" transform="matrix(1.00, 0.00, -0.00, -1.00, 384.5, 672.0)">a</text><text xml:space="preserve" font-family="Georgia,Georgia" font-size="65.0" fill="#000000" transform="matrix(1.00, 0.00, -0.00, -1.00, 417.3, 672.0)"> </text><text xml:space="preserve" font-family="Georgia,Georgia" font-size="65.0" fill="#000000" transform="matrix(1.00, 0.00, -0.00, -1.00, 433.0, 672.0)">l</text><text xml:space="preserve" font-family="Georgia,Georgia" font-size="65.0" fill="#000000" transform="matrix(1.00, 0.00, -0.00, -1.00, 451.6, 672.0)">a</text><text xml:space="preserve" font-family="Georgia,Georgia" font-size="65.0" fill="#000000" transform="matrix(1.00, 0.00, -0.00, -1.00, 484.3, 672.0)">s</text><text xml:space="preserve" font-family="Georgia,Georgia" font-size="65.0" fill="#000000" transform="matrix(1.00, 0.00, -0.00, -1.00, 512.4, 672.0)">i</text><text xml:space="preserve" font-family="Georgia,Georgia" font-size="65.0" fill="#000000" transform="matrix(1.00, 0.00, -0.00, -1.00, 531.5, 672.0)">n</text><text xml:space="preserve" font-family="Georgia,Georgia" font-size="65.0" fill="#000000" transform="matrix(1.00, 0.00, -0.00, -1.00, 569.8, 672.0)"> </text><text xml:space="preserve" font-family="Georgia,Georgia" font-size="65.0" fill="#000000" transform="matrix(1.00, 0.00, -0.00, -1.00, 585.5, 672.0)">r</text><text xml:space="preserve" font-family="Georgia,Georgia" font-size="65.0" fill="#000000" transform="matrix(1.00, 0.00, -0.00, -1.00, 612.1, 672.0)">a</text><text xml:space="preserve" font-family="Georgia,Georgia" font-size="65.0" fill="#000000" transform="matrix(1.00, 0.00, -0.00, -1.00, 644.9, 672.0)">j</text><text xml:space="preserve" font-family="Georgia,Georgia" font-size="65.0" fill="#000000" transform="matrix(1.00, 0.00, -0.00, -1.00, 663.9, 672.0)">a</text><text xml:space="preserve" font-family="Georgia,Georgia" font-size="65.0" fill="#000000" transform="matrix(1.00, 0.00, -0.00, -1.00, 696.6, 672.0)">p</text><text xml:space="preserve" font-family="Georgia,Georgia" font-size="65.0" fill="#000000" transform="matrix(1.00, 0.00, -0.00, -1.00, 733.8, 672.0)">i</text><text xml:space="preserve" font-family="Georgia,Georgia" font-size="65.0" fill="#000000" transform="matrix(1.00, 0.00, -0.00, -1.00, 752.8, 672.0)">n</text><text xml:space="preserve" font-family="Georgia,Georgia" font-size="65.0" fill="#000000" transform="matrix(1.00, 0.00, -0.00, -1.00, 791.2, 672.0)">t</text><text xml:space="preserve" font-family="Georgia,Georgia" font-size="65.0" fill="#000000" transform="matrix(1.00, 0.00, -0.00, -1.00, 813.7, 672.0)">a</text><g><clipPath id="clip0x7ff023d20ca0"><path d="M -16.5 -14.9 L 1040.5 -14.9 L 1040.5 318.3 L -16.5 318.3 Z M -16.5 -14.9 "></path></clipPath><g clip-path="url(#clip0x7ff023d20ca0)"><image xlink:href="../../101A1250-06D7-47F6-A14A-3ED0F47F115B/assets/503BC663F5F2A0D1409F9AF31486FDB8.png" width="1055.00" height="331.00" transform="matrix(1.00, 0.00, -0.00, -1.00, -15.5, 317.3)" opacity="0.50"></image><path d="M -12.0 316.0 L 1037.0 316.0 L 1037.0 -9.0 L -12.0 -9.0 Z M -12.5 316.3 " fill="#C0FAFE"></path></g></g><g><clipPath id="clip0x7ff0415aa0e0"><path d="M 2.0 320.5 L 150.6 320.5 L 150.6 421.0 L 2.0 421.0 Z M 2.0 320.5 "></path></clipPath><g clip-path="url(#clip0x7ff0415aa0e0)"><text xml:space="preserve" font-family="Georgia,Georgia" font-size="36.0" fill="#000000" transform="matrix(1.00, 0.00, -0.00, -1.00, 12.2, 357.9)">I</text><text xml:space="preserve" font-family="Georgia,Georgia" font-size="36.0" fill="#000000" transform="matrix(1.00, 0.00, -0.00, -1.00, 26.2, 357.9)">l</text><text xml:space="preserve" font-family="Georgia,Georgia" font-size="36.0" fill="#000000" transform="matrix(1.00, 0.00, -0.00, -1.00, 36.5, 357.9)">m</text><text xml:space="preserve" font-family="Georgia,Georgia" font-size="36.0" fill="#000000" transform="matrix(1.00, 0.00, -0.00, -1.00, 68.2, 357.9)">a</text></g></g><g><clipPath id="clip0x7ff025c61790"><path d="M 7.3 215.5 L 145.3 215.5 L 145.3 316.0 L 7.3 316.0 Z M 7.3 215.5 "></path></clipPath><g clip-path="url(#clip0x7ff025c61790)"><text xml:space="preserve" font-family="Georgia,Georgia" font-size="36.0" fill="#000000" transform="matrix(1.00, 0.00, -0.00, -1.00, 17.5, 252.9)">L</text><text xml:space="preserve" font-family="Georgia,Georgia" font-size="36.0" fill="#000000" transform="matrix(1.00, 0.00, -0.00, -1.00, 39.3, 252.9)">a</text><text xml:space="preserve" font-family="Georgia,Georgia" font-size="36.0" fill="#000000" transform="matrix(1.00, 0.00, -0.00, -1.00, 57.4, 252.9)">s</text><text xml:space="preserve" font-family="Georgia,Georgia" font-size="36.0" fill="#000000" transform="matrix(1.00, 0.00, -0.00, -1.00, 73.0, 252.9)">i</text></g></g><g><clipPath id="clip0x7ff03fb5fe10"><path d="M 125.5 600.6 L 315.0 464.0 L 306.1 451.6 L 116.6 588.3 Z M 125.5 600.6 "></path></clipPath><g clip-path="url(#clip0x7ff03fb5fe10)"><path d="M 0.0 0.0 L 218.4 0.0 L 219.9 0.0 " fill="none" stroke="#DE1F02" stroke-width="3.00" transform="matrix(0.81, -0.58, -0.58, -0.81, 121.9, 593.8)"></path><path d="M 295.2 460.8 L 309.8 458.4 L 302.9 471.5 Z M 295.2 460.8 " fill="#DE1F02"></path></g></g><g><clipPath id="clip0x7ff03c327f80"><path d="M 309.5 461.7 L 512.3 315.5 L 509.3 311.4 L 306.6 457.6 Z M 309.5 461.7 "></path></clipPath><g clip-path="url(#clip0x7ff03c327f80)"><path d="M 0.0 0.0 L 248.0 0.0 " fill="none" stroke="#DE1F02" stroke-width="3.00" transform="matrix(0.81, -0.58, -0.58, -0.81, 308.8, 459.1)"></path></g></g><path d="M 0.4 -0.4 L 505.4 -0.4 " fill="none" stroke="#000000" stroke-width="2.00" stroke-dasharray="4.0, 4.0" transform="matrix(0.00, 1.00, 1.00, 0.00, 511.4, 74.6)"></path><g><clipPath id="clip0x7ff0415ab1d0"><path d="M 518.0 317.3 L 580.7 163.5 L 566.7 157.8 L 503.9 311.5 Z M 518.0 317.3 "></path></clipPath><g clip-path="url(#clip0x7ff0415ab1d0)"><g opacity="0.50"><g><clipPath id="clip0x7ff024027610"><path d="M 505.0 159.0 L 580.0 159.0 L 580.0 316.0 L 505.0 316.0 Z M 505.0 159.0 "></path></clipPath><g clip-path="url(#clip0x7ff024027610)"><path d="M 0.0 0.0 L 150.9 0.0 L 152.4 0.0 " fill="none" stroke="#DE1F02" stroke-width="3.00" transform="matrix(0.38, -0.93, -0.93, -0.38, 511.3, 313.5)"></path><path d="M 562.2 171.3 L 573.3 161.5 L 574.5 176.3 Z M 562.2 171.3 " fill="#DE1F02"></path></g></g></g></g></g><g><clipPath id="clip0x7ff04113e410"><path d="M 575.0 164.2 L 642.1 -0.3 L 637.4 -2.2 L 570.3 162.3 Z M 575.0 164.2 "></path></clipPath><g clip-path="url(#clip0x7ff04113e410)"><g opacity="0.50"><g><clipPath id="clip0x7ff041256920"><path d="M 571.0 0.0 L 641.0 0.0 L 641.0 163.0 L 571.0 163.0 Z M 571.0 0.0 "></path></clipPath><g clip-path="url(#clip0x7ff041256920)"><path d="M 0.0 0.0 L 175.7 0.0 " fill="none" stroke="#DE1F02" stroke-width="3.00" transform="matrix(0.38, -0.93, -0.93, -0.38, 573.0, 162.3)"></path></g></g></g></g></g><g><clipPath id="clip0x7ff0412549c0"><path d="M 901.8 592.4 L 712.3 455.8 L 709.4 459.8 L 898.9 596.5 Z M 901.8 592.4 "></path></clipPath><g clip-path="url(#clip0x7ff0412549c0)"><g opacity="0.50"><g><clipPath id="clip0x7ff025c5d350"><path d="M 710.0 457.0 L 901.0 457.0 L 901.0 596.0 L 710.0 596.0 Z M 710.0 457.0 "></path></clipPath><g clip-path="url(#clip0x7ff025c5d350)"><path d="M 0.0 0.0 L 231.6 0.0 " fill="none" stroke="#DE1F02" stroke-width="3.00" transform="matrix(-0.81, -0.58, -0.58, 0.81, 899.6, 593.8)"></path></g></g></g></g></g><g><clipPath id="clip0x7ff025c5c100"><path d="M 717.8 453.5 L 515.1 307.3 L 506.2 319.6 L 709.0 465.8 Z M 717.8 453.5 "></path></clipPath><g clip-path="url(#clip0x7ff025c5c100)"><g opacity="0.50"><g><clipPath id="clip0x7ff025c60000"><path d="M 507.0 308.0 L 717.0 308.0 L 717.0 465.0 L 507.0 465.0 Z M 507.0 308.0 "></path></clipPath><g clip-path="url(#clip0x7ff025c60000)"><path d="M 11.7 0.0 L 13.2 0.0 L 248.0 0.0 " fill="none" stroke="#DE1F02" stroke-width="3.00" transform="matrix(-0.81, -0.58, -0.58, 0.81, 712.6, 459.1)"></path><path d="M 705.7 446.0 L 712.6 459.1 L 698.0 456.7 Z M 705.7 446.0 " fill="#DE1F02"></path></g></g></g></g></g><path d="M 0.0 25.4 C 9.6 7.7 25.7 -0.8 48.3 0.1 " fill="none" stroke="#000000" stroke-width="2.00" transform="matrix(1.00, 0.00, 0.00, -1.00, 465.1, 374.5)"></path><text xml:space="preserve" font-family="Georgia,Georgia" font-size="28.0" fill="#000000" transform="matrix(1.00, 0.00, -0.00, -1.00, 337.1, 488.8)">T</text><text xml:space="preserve" font-family="Georgia,Georgia" font-size="28.0" fill="#000000" transform="matrix(1.00, 0.00, -0.00, -1.00, 354.4, 488.8)">u</text><text xml:space="preserve" font-family="Georgia,Georgia" font-size="28.0" fill="#000000" transform="matrix(1.00, 0.00, -0.00, -1.00, 370.5, 488.8)">l</text><text xml:space="preserve" font-family="Georgia,Georgia" font-size="28.0" fill="#000000" transform="matrix(1.00, 0.00, -0.00, -1.00, 378.5, 488.8)">o</text><text xml:space="preserve" font-family="Georgia,Georgia" font-size="28.0" fill="#000000" transform="matrix(1.00, 0.00, -0.00, -1.00, 393.6, 488.8)">k</text><text xml:space="preserve" font-family="Georgia,Georgia" font-size="28.0" fill="#000000" transform="matrix(1.00, 0.00, -0.00, -1.00, 408.6, 488.8)">u</text><text xml:space="preserve" font-family="Georgia,Georgia" font-size="28.0" fill="#000000" transform="matrix(1.00, 0.00, -0.00, -1.00, 424.7, 488.8)">l</text><text xml:space="preserve" font-family="Georgia,Georgia" font-size="28.0" fill="#000000" transform="matrix(1.00, 0.00, -0.00, -1.00, 432.7, 488.8)">m</text><text xml:space="preserve" font-family="Georgia,Georgia" font-size="28.0" fill="#000000" transform="matrix(1.00, 0.00, -0.00, -1.00, 457.4, 488.8)">a</text><text xml:space="preserve" font-family="Georgia,Georgia" font-size="28.0" fill="#000000" transform="matrix(1.00, 0.00, -0.00, -1.00, 527.4, 488.8)">H</text><text xml:space="preserve" font-family="Georgia,Georgia" font-size="28.0" fill="#000000" transform="matrix(1.00, 0.00, -0.00, -1.00, 550.2, 488.8)">e</text><text xml:space="preserve" font-family="Georgia,Georgia" font-size="28.0" fill="#000000" transform="matrix(1.00, 0.00, -0.00, -1.00, 563.7, 488.8)">i</text><text xml:space="preserve" font-family="Georgia,Georgia" font-size="28.0" fill="#000000" transform="matrix(1.00, 0.00, -0.00, -1.00, 571.9, 488.8)">j</text><text xml:space="preserve" font-family="Georgia,Georgia" font-size="28.0" fill="#000000" transform="matrix(1.00, 0.00, -0.00, -1.00, 580.1, 488.8)">a</text><text xml:space="preserve" font-family="Georgia,Georgia" font-size="28.0" fill="#000000" transform="matrix(1.00, 0.00, -0.00, -1.00, 594.2, 488.8)">s</text><text xml:space="preserve" font-family="Georgia,Georgia" font-size="28.0" fill="#000000" transform="matrix(1.00, 0.00, -0.00, -1.00, 606.3, 488.8)">t</text><text xml:space="preserve" font-family="Georgia,Georgia" font-size="28.0" fill="#000000" transform="matrix(1.00, 0.00, -0.00, -1.00, 616.0, 488.8)">u</text><text xml:space="preserve" font-family="Georgia,Georgia" font-size="28.0" fill="#000000" transform="matrix(1.00, 0.00, -0.00, -1.00, 632.1, 488.8)">s</text><text xml:space="preserve" font-family="Georgia,Georgia" font-size="28.0" fill="#000000" transform="matrix(1.00, 0.00, -0.00, -1.00, 644.2, 488.8)">k</text><text xml:space="preserve" font-family="Georgia,Georgia" font-size="28.0" fill="#000000" transform="matrix(1.00, 0.00, -0.00, -1.00, 659.2, 488.8)">u</text><text xml:space="preserve" font-family="Georgia,Georgia" font-size="28.0" fill="#000000" transform="matrix(1.00, 0.00, -0.00, -1.00, 675.3, 488.8)">l</text><text xml:space="preserve" font-family="Georgia,Georgia" font-size="28.0" fill="#000000" transform="matrix(1.00, 0.00, -0.00, -1.00, 683.3, 488.8)">m</text><text xml:space="preserve" font-family="Georgia,Georgia" font-size="28.0" fill="#000000" transform="matrix(1.00, 0.00, -0.00, -1.00, 708.0, 488.8)">a</text><path d="M 0.0 0.0 C 21.3 1.1 33.3 8.6 35.7 22.6 " fill="none" stroke="#000000" stroke-width="2.00" transform="matrix(1.00, 0.00, 0.00, -1.00, 514.3, 362.6)"></path><path d="M 0.0 14.0 C 15.9 15.9 28.8 11.2 38.5 0.0 " fill="none" stroke="#000000" stroke-width="2.00" transform="matrix(1.00, 0.00, 0.00, -1.00, 514.3, 209.1)"></path><text xml:space="preserve" font-family="Georgia,Georgia" font-size="28.0" fill="#000000" transform="matrix(1.00, 0.00, -0.00, -1.00, 593.4, 171.6)">T</text><text xml:space="preserve" font-family="Georgia,Georgia" font-size="28.0" fill="#000000" transform="matrix(1.00, 0.00, -0.00, -1.00, 610.7, 171.6)">a</text><text xml:space="preserve" font-family="Georgia,Georgia" font-size="28.0" fill="#000000" transform="matrix(1.00, 0.00, -0.00, -1.00, 624.8, 171.6)">i</text><text xml:space="preserve" font-family="Georgia,Georgia" font-size="28.0" fill="#000000" transform="matrix(1.00, 0.00, -0.00, -1.00, 633.0, 171.6)">t</text><text xml:space="preserve" font-family="Georgia,Georgia" font-size="28.0" fill="#000000" transform="matrix(1.00, 0.00, -0.00, -1.00, 642.7, 171.6)">e</text><text xml:space="preserve" font-family="Georgia,Georgia" font-size="28.0" fill="#000000" transform="matrix(1.00, 0.00, -0.00, -1.00, 656.2, 171.6)">k</text><text xml:space="preserve" font-family="Georgia,Georgia" font-size="28.0" fill="#000000" transform="matrix(1.00, 0.00, -0.00, -1.00, 671.2, 171.6)">u</text><text xml:space="preserve" font-family="Georgia,Georgia" font-size="28.0" fill="#000000" transform="matrix(1.00, 0.00, -0.00, -1.00, 687.3, 171.6)">l</text><text xml:space="preserve" font-family="Georgia,Georgia" font-size="28.0" fill="#000000" transform="matrix(1.00, 0.00, -0.00, -1.00, 695.3, 171.6)">m</text><text xml:space="preserve" font-family="Georgia,Georgia" font-size="28.0" fill="#000000" transform="matrix(1.00, 0.00, -0.00, -1.00, 720.0, 171.6)">a</text><text xml:space="preserve" font-family="Georgia,Georgia" font-size="28.0" fill="#000000" transform="matrix(1.00, 0.00, -0.00, -1.00, 812.1, 504.8)">O</text><text xml:space="preserve" font-family="Georgia,Georgia" font-size="28.0" fill="#000000" transform="matrix(1.00, 0.00, -0.00, -1.00, 832.9, 504.8)">s</text><text xml:space="preserve" font-family="Georgia,Georgia" font-size="28.0" fill="#000000" transform="matrix(1.00, 0.00, -0.00, -1.00, 845.0, 504.8)">a</text><text xml:space="preserve" font-family="Georgia,Georgia" font-size="28.0" fill="#000000" transform="matrix(1.00, 0.00, -0.00, -1.00, 859.1, 504.8)"> </text><text xml:space="preserve" font-family="Georgia,Georgia" font-size="28.0" fill="#000000" transform="matrix(1.00, 0.00, -0.00, -1.00, 865.9, 504.8)">v</text><text xml:space="preserve" font-family="Georgia,Georgia" font-size="28.0" fill="#000000" transform="matrix(1.00, 0.00, -0.00, -1.00, 879.8, 504.8)">a</text><text xml:space="preserve" font-family="Georgia,Georgia" font-size="28.0" fill="#000000" transform="matrix(1.00, 0.00, -0.00, -1.00, 893.9, 504.8)">l</text><text xml:space="preserve" font-family="Georgia,Georgia" font-size="28.0" fill="#000000" transform="matrix(1.00, 0.00, -0.00, -1.00, 901.9, 504.8)">o</text><text xml:space="preserve" font-family="Georgia,Georgia" font-size="28.0" fill="#000000" transform="matrix(1.00, 0.00, -0.00, -1.00, 917.0, 504.8)">s</text><text xml:space="preserve" font-family="Georgia,Georgia" font-size="28.0" fill="#000000" transform="matrix(1.00, 0.00, -0.00, -1.00, 929.1, 504.8)">t</text><text xml:space="preserve" font-family="Georgia,Georgia" font-size="28.0" fill="#000000" transform="matrix(1.00, 0.00, -0.00, -1.00, 938.8, 504.8)">a</text><text xml:space="preserve" font-family="Georgia,Georgia" font-size="28.0" fill="#000000" transform="matrix(1.00, 0.00, -0.00, -1.00, 952.9, 504.8)"> </text><text xml:space="preserve" font-family="LucidaGrande,Lucida Grande" font-size="28.0" fill="#000000" transform="matrix(1.00, 0.00, -0.00, -1.00, 959.6, 504.8)"> </text><text xml:space="preserve" font-family="Georgia,Georgia" font-size="28.0" fill="#000000" transform="matrix(1.00, 0.00, -0.00, -1.00, 812.1, 472.8)">h</text><text xml:space="preserve" font-family="Georgia,Georgia" font-size="28.0" fill="#000000" transform="matrix(1.00, 0.00, -0.00, -1.00, 828.4, 472.8)">e</text><text xml:space="preserve" font-family="Georgia,Georgia" font-size="28.0" fill="#000000" transform="matrix(1.00, 0.00, -0.00, -1.00, 841.9, 472.8)">i</text><text xml:space="preserve" font-family="Georgia,Georgia" font-size="28.0" fill="#000000" transform="matrix(1.00, 0.00, -0.00, -1.00, 850.1, 472.8)">j</text><text xml:space="preserve" font-family="Georgia,Georgia" font-size="28.0" fill="#000000" transform="matrix(1.00, 0.00, -0.00, -1.00, 858.3, 472.8)">a</text><text xml:space="preserve" font-family="Georgia,Georgia" font-size="28.0" fill="#000000" transform="matrix(1.00, 0.00, -0.00, -1.00, 872.4, 472.8)">s</text><text xml:space="preserve" font-family="Georgia,Georgia" font-size="28.0" fill="#000000" transform="matrix(1.00, 0.00, -0.00, -1.00, 884.5, 472.8)">t</text><text xml:space="preserve" font-family="Georgia,Georgia" font-size="28.0" fill="#000000" transform="matrix(1.00, 0.00, -0.00, -1.00, 894.2, 472.8)">u</text><text xml:space="preserve" font-family="Georgia,Georgia" font-size="28.0" fill="#000000" transform="matrix(1.00, 0.00, -0.00, -1.00, 910.3, 472.8)">u</text><text xml:space="preserve" font-family="Georgia,Georgia" font-size="28.0" fill="#000000" transform="matrix(1.00, 0.00, -0.00, -1.00, 629.8, 59.8)">O</text><text xml:space="preserve" font-family="Georgia,Georgia" font-size="28.0" fill="#000000" transform="matrix(1.00, 0.00, -0.00, -1.00, 650.6, 59.8)">s</text><text xml:space="preserve" font-family="Georgia,Georgia" font-size="28.0" fill="#000000" transform="matrix(1.00, 0.00, -0.00, -1.00, 662.7, 59.8)">a</text><text xml:space="preserve" font-family="Georgia,Georgia" font-size="28.0" fill="#000000" transform="matrix(1.00, 0.00, -0.00, -1.00, 676.8, 59.8)"> </text><text xml:space="preserve" font-family="Georgia,Georgia" font-size="28.0" fill="#000000" transform="matrix(1.00, 0.00, -0.00, -1.00, 683.6, 59.8)">v</text><text xml:space="preserve" font-family="Georgia,Georgia" font-size="28.0" fill="#000000" transform="matrix(1.00, 0.00, -0.00, -1.00, 697.5, 59.8)">a</text><text xml:space="preserve" font-family="Georgia,Georgia" font-size="28.0" fill="#000000" transform="matrix(1.00, 0.00, -0.00, -1.00, 711.6, 59.8)">l</text><text xml:space="preserve" font-family="Georgia,Georgia" font-size="28.0" fill="#000000" transform="matrix(1.00, 0.00, -0.00, -1.00, 719.6, 59.8)">o</text><text xml:space="preserve" font-family="Georgia,Georgia" font-size="28.0" fill="#000000" transform="matrix(1.00, 0.00, -0.00, -1.00, 734.7, 59.8)">s</text><text xml:space="preserve" font-family="Georgia,Georgia" font-size="28.0" fill="#000000" transform="matrix(1.00, 0.00, -0.00, -1.00, 746.8, 59.8)">t</text><text xml:space="preserve" font-family="Georgia,Georgia" font-size="28.0" fill="#000000" transform="matrix(1.00, 0.00, -0.00, -1.00, 756.5, 59.8)">a</text><text xml:space="preserve" font-family="Georgia,Georgia" font-size="28.0" fill="#000000" transform="matrix(1.00, 0.00, -0.00, -1.00, 770.6, 59.8)"> </text><text xml:space="preserve" font-family="Georgia,Georgia" font-size="28.0" fill="#000000" transform="matrix(1.00, 0.00, -0.00, -1.00, 777.4, 59.8)">t</text><text xml:space="preserve" font-family="Georgia,Georgia" font-size="28.0" fill="#000000" transform="matrix(1.00, 0.00, -0.00, -1.00, 787.0, 59.8)">a</text><text xml:space="preserve" font-family="Georgia,Georgia" font-size="28.0" fill="#000000" transform="matrix(1.00, 0.00, -0.00, -1.00, 801.1, 59.8)">i</text><text xml:space="preserve" font-family="Georgia,Georgia" font-size="28.0" fill="#000000" transform="matrix(1.00, 0.00, -0.00, -1.00, 809.3, 59.8)">t</text><text xml:space="preserve" font-family="Georgia,Georgia" font-size="28.0" fill="#000000" transform="matrix(1.00, 0.00, -0.00, -1.00, 819.0, 59.8)">t</text><text xml:space="preserve" font-family="Georgia,Georgia" font-size="28.0" fill="#000000" transform="matrix(1.00, 0.00, -0.00, -1.00, 828.7, 59.8)">u</text><text xml:space="preserve" font-family="Georgia,Georgia" font-size="28.0" fill="#000000" transform="matrix(1.00, 0.00, -0.00, -1.00, 844.8, 59.8)">u</text></g></svg>