<?xml version="1.0" encoding="UTF-8" standalone="no"?><svg xmlns="http://www.w3.org/2000/svg" xmlns:xlink="http://www.w3.org/1999/xlink" clip-rule="evenodd" stroke-miterlimit="10" viewBox="0 0 244 109"><desc>SVG generated by Keynote</desc><defs></defs><g transform="matrix(1.00, 0.00, -0.00, -1.00, 0.0, 109.0)"><g><clipPath id="clip0x7fb6c730e6a0"><path d="M 1.0 107.0 L 243.0 107.0 L 243.0 1.0 L 1.0 1.0 Z M 1.5 107.2 "></path></clipPath><g clip-path="url(#clip0x7fb6c730e6a0)"><g><clipPath id="clip0x7fb6c730edc0"><path d="M 7.5 8.3 L 236.9 8.3 L 236.9 101.7 L 7.5 101.7 Z M 7.5 8.3 "></path></clipPath><g clip-path="url(#clip0x7fb6c730edc0)"><g><clipPath id="clip0x7fb6c730f530"><path d="M 7.5 8.3 L 236.9 8.3 L 236.9 101.7 L 7.5 101.7 Z M 7.5 8.3 "></path></clipPath><g clip-path="url(#clip0x7fb6c730f530)"><path d="M 38.2 51.0 C 38.3 51.2 38.4 51.5 38.4 51.6 C 38.4 51.6 38.4 52.1 37.9 52.1 C 37.5 52.1 37.4 51.8 37.3 51.5 C 34.4 44.8 32.7 41.8 24.9 41.8 L 18.3 41.8 C 17.6 41.8 17.5 41.8 17.3 41.8 C 16.8 41.9 16.7 41.9 16.7 42.3 C 16.7 42.4 16.7 42.5 16.9 43.3 L 20.0 55.7 L 24.5 55.7 C 28.4 55.7 28.4 54.7 28.4 53.6 C 28.4 53.3 28.4 52.8 28.0 51.4 C 28.0 51.2 27.9 51.1 27.9 50.9 C 27.9 50.7 28.1 50.4 28.5 50.4 C 28.9 50.4 29.0 50.6 29.2 51.3 L 31.8 61.9 C 31.8 62.2 31.5 62.4 31.2 62.4 C 30.8 62.4 30.7 62.1 30.6 61.6 C 29.6 58.1 28.8 57.1 24.6 57.1 L 20.3 57.1 L 23.1 68.0 C 23.5 69.6 23.5 69.8 25.5 69.8 L 31.9 69.8 C 37.5 69.8 38.9 68.5 38.9 64.8 C 38.9 63.7 38.9 63.6 38.7 62.4 C 38.7 62.1 38.7 61.8 38.7 61.6 C 38.7 61.3 38.8 61.0 39.2 61.0 C 39.7 61.0 39.7 61.3 39.8 62.1 L 40.7 70.0 C 40.9 71.2 40.6 71.2 39.5 71.2 L 16.5 71.2 C 15.6 71.2 15.2 71.2 15.2 70.3 C 15.2 69.8 15.6 69.8 16.5 69.8 C 18.1 69.8 19.4 69.8 19.4 69.0 C 19.4 68.8 19.4 68.7 19.2 67.9 L 13.1 43.9 C 12.7 42.1 12.6 41.8 9.0 41.8 C 8.3 41.8 7.7 41.8 7.7 40.9 C 7.7 40.4 8.2 40.4 9.0 40.4 L 32.6 40.4 C 33.7 40.4 33.7 40.4 34.0 41.2 L 38.2 51.0 " fill="#000000"></path><path d="M 49.5 54.6 C 49.5 54.6 49.6 55.1 49.6 55.1 C 49.6 55.3 49.5 55.5 49.1 55.5 C 48.5 55.5 45.9 55.3 45.1 55.2 C 44.8 55.2 44.4 55.2 44.4 54.5 C 44.4 54.0 44.8 54.0 45.2 54.0 C 46.7 54.0 46.7 53.8 46.7 53.6 C 46.7 53.3 46.7 53.1 46.6 52.9 L 42.1 35.0 C 42.0 34.4 42.0 34.3 42.0 34.3 C 42.0 33.8 42.4 33.2 43.0 33.2 C 43.9 33.2 44.3 33.9 44.5 34.6 C 44.6 34.7 45.9 40.3 46.1 40.7 C 48.3 40.5 50.1 39.8 50.1 38.1 C 50.1 38.0 50.1 37.8 50.1 37.5 C 50.0 37.0 50.0 36.9 50.0 36.5 C 50.0 34.3 51.8 33.2 53.3 33.2 C 56.4 33.2 57.3 38.0 57.3 38.1 C 57.3 38.5 56.9 38.5 56.8 38.5 C 56.4 38.5 56.4 38.4 56.2 37.7 C 55.8 36.4 54.9 34.2 53.4 34.2 C 52.6 34.2 52.3 34.9 52.3 35.8 C 52.3 36.3 52.3 36.4 52.5 37.2 C 52.5 37.3 52.7 37.8 52.7 38.2 C 52.7 41.0 48.8 41.4 47.5 41.5 C 48.4 42.1 49.6 43.2 50.1 43.6 C 51.7 45.1 53.4 46.6 55.1 46.6 C 55.5 46.6 55.9 46.5 56.2 46.2 C 54.8 46.0 54.5 44.9 54.5 44.5 C 54.5 43.8 55.0 43.3 55.8 43.3 C 56.6 43.3 57.6 44.0 57.6 45.3 C 57.6 46.3 56.8 47.5 55.1 47.5 C 53.4 47.5 51.7 46.2 50.1 44.7 C 48.7 43.5 47.7 42.5 46.4 41.9 L 49.5 54.6 " fill="#000000"></path><path d="M 105.8 55.2 C 106.5 55.2 107.4 55.2 107.4 56.1 C 107.4 57.0 106.5 57.0 105.9 57.0 L 78.6 57.0 C 78.0 57.0 77.1 57.0 77.1 56.1 C 77.1 55.2 78.0 55.2 78.7 55.2 L 105.8 55.2 Z M 105.9 46.4 C 106.5 46.4 107.4 46.4 107.4 47.3 C 107.4 48.2 106.5 48.2 105.8 48.2 L 78.7 48.2 C 78.0 48.2 77.1 48.2 77.1 47.3 C 77.1 46.4 78.0 46.4 78.6 46.4 L 105.9 46.4 " fill="#000000"></path><path d="M 141.4 100.0 C 141.4 101.2 141.4 101.3 140.4 101.3 C 137.5 98.3 133.5 98.3 132.1 98.3 L 132.1 96.9 C 133.0 96.9 135.7 96.9 138.0 98.1 L 138.0 74.6 C 138.0 73.0 137.9 72.5 133.8 72.5 L 132.3 72.5 L 132.3 71.0 C 134.0 71.2 137.9 71.2 139.7 71.2 C 141.6 71.2 145.5 71.2 147.1 71.0 L 147.1 72.5 L 145.6 72.5 C 141.6 72.5 141.4 73.0 141.4 74.6 L 141.4 100.0 " fill="#000000"></path><path d="M 14.7 5.8 L 17.3 5.8 " fill="none" stroke="#000000" stroke-width="0.21" transform="matrix(8.64, 0.00, 0.00, 8.60, 1.2, 2.0)"></path><path d="M 133.8 12.8 L 138.6 17.5 C 145.7 23.8 148.5 26.2 148.5 30.7 C 148.5 35.9 144.4 39.5 138.8 39.5 C 133.7 39.5 130.3 35.4 130.3 31.3 C 130.3 28.8 132.6 28.8 132.7 28.8 C 133.5 28.8 135.1 29.3 135.1 31.2 C 135.1 32.4 134.3 33.5 132.7 33.5 C 132.3 33.5 132.2 33.5 132.1 33.5 C 133.1 36.4 135.6 38.1 138.2 38.1 C 142.4 38.1 144.3 34.5 144.3 30.7 C 144.3 27.1 142.1 23.5 139.5 20.7 L 130.8 11.0 C 130.3 10.5 130.3 10.4 130.3 9.4 L 147.2 9.4 L 148.5 17.2 L 147.3 17.2 C 147.1 15.9 146.8 13.9 146.3 13.2 C 146.0 12.8 143.0 12.8 142.0 12.8 L 133.8 12.8 " fill="#000000"></path><path d="M 160.2 43.1 C 160.0 42.4 159.8 41.3 159.8 41.1 C 159.8 40.3 160.4 39.9 161.1 39.9 C 161.6 39.9 162.4 40.3 162.8 41.2 C 162.8 41.2 163.3 43.4 163.6 44.5 L 164.6 48.6 C 164.9 49.6 165.2 50.6 165.4 51.6 C 165.6 52.4 165.9 53.7 166.0 53.9 C 166.7 55.3 169.1 59.4 173.4 59.4 C 175.5 59.4 175.9 57.7 175.9 56.3 C 175.9 55.1 175.6 53.8 175.2 52.5 L 173.9 47.2 L 173.0 43.8 C 172.8 42.9 172.4 41.3 172.4 41.1 C 172.4 40.3 173.0 39.9 173.7 39.9 C 175.2 39.9 175.4 41.0 175.8 42.5 C 176.4 45.0 178.1 51.6 178.5 53.4 C 178.6 54.0 181.1 59.4 186.0 59.4 C 188.0 59.4 188.5 57.9 188.5 56.3 C 188.5 53.7 186.6 48.5 185.6 46.1 C 185.2 45.0 185.1 44.5 185.1 43.6 C 185.1 41.5 186.7 39.9 188.8 39.9 C 193.1 39.9 194.8 46.5 194.8 46.9 C 194.8 47.3 194.3 47.3 194.2 47.3 C 193.7 47.3 193.7 47.2 193.5 46.5 C 192.8 44.1 191.4 40.9 188.9 40.9 C 188.1 40.9 187.8 41.3 187.8 42.4 C 187.8 43.5 188.2 44.6 188.6 45.6 C 189.5 48.0 191.4 53.0 191.4 55.6 C 191.4 58.5 189.6 60.4 186.2 60.4 C 182.7 60.4 180.4 58.4 178.7 56.0 C 178.7 56.6 178.6 58.1 177.3 59.3 C 176.1 60.2 174.7 60.4 173.5 60.4 C 169.5 60.4 167.2 57.5 166.4 56.5 C 166.2 59.0 164.3 60.4 162.3 60.4 C 160.2 60.4 159.3 58.6 158.9 57.8 C 158.1 56.3 157.5 53.6 157.5 53.4 C 157.5 53.0 157.9 53.0 158.0 53.0 C 158.5 53.0 158.5 53.0 158.8 54.0 C 159.6 57.2 160.5 59.4 162.1 59.4 C 162.8 59.4 163.5 59.0 163.5 57.3 C 163.5 56.4 163.4 55.9 162.8 53.5 L 160.2 43.1 " fill="#000000"></path><path d="M 217.4 57.2 C 217.4 59.7 216.2 60.4 215.4 60.4 C 214.2 60.4 213.1 59.3 213.1 58.2 C 213.1 57.7 213.4 57.4 213.8 56.9 C 214.8 56.0 215.4 54.8 215.4 53.2 C 215.4 51.3 212.6 40.9 207.3 40.9 C 205.0 40.9 203.9 42.5 203.9 44.8 C 203.9 47.4 205.2 50.7 206.6 54.4 C 206.9 55.2 207.1 55.9 207.1 56.7 C 207.1 58.7 205.7 60.4 203.4 60.4 C 199.1 60.4 197.4 53.8 197.4 53.4 C 197.4 53.0 197.9 53.0 197.9 53.0 C 198.4 53.0 198.4 53.1 198.7 53.8 C 200.0 58.4 201.9 59.4 203.3 59.4 C 203.6 59.4 204.4 59.4 204.4 58.0 C 204.4 56.8 203.9 55.6 203.6 54.8 C 201.6 49.5 201.0 47.5 201.0 45.5 C 201.0 40.6 205.0 39.9 207.1 39.9 C 214.8 39.9 217.4 54.9 217.4 57.2 " fill="#000000"></path><path d="M 235.8 64.8 L 234.7 64.8 C 234.6 64.1 234.3 62.3 233.9 61.9 C 233.7 61.7 231.2 61.7 230.8 61.7 L 224.9 61.7 C 228.3 64.7 229.4 65.6 231.3 67.1 C 233.6 68.9 235.8 70.9 235.8 73.9 C 235.8 77.7 232.4 80.0 228.4 80.0 C 224.4 80.0 221.8 77.3 221.8 74.4 C 221.8 72.8 223.1 72.6 223.4 72.6 C 224.2 72.6 225.1 73.2 225.1 74.3 C 225.1 74.9 224.9 76.0 223.3 76.0 C 224.2 78.2 226.4 78.9 227.9 78.9 C 231.1 78.9 232.7 76.5 232.7 73.9 C 232.7 71.1 230.8 69.0 229.7 67.8 L 222.1 60.3 C 221.8 60.0 221.8 60.0 221.8 59.0 L 234.8 59.0 L 235.8 64.8 " fill="#000000"></path></g></g></g></g></g></g></g></svg>