<?xml version="1.0" encoding="UTF-8" standalone="no"?><svg xmlns="http://www.w3.org/2000/svg" xmlns:xlink="http://www.w3.org/1999/xlink" clip-rule="evenodd" stroke-miterlimit="10" viewBox="0 0 1024 768"><desc>SVG generated by Keynote</desc><defs></defs><g transform="matrix(1.00, 0.00, -0.00, -1.00, 0.0, 768.0)"><path d="M 0.0 768.0 L 1024.0 768.0 L 1024.0 0.0 L 0.0 0.0 Z M 0.0 768.0 " fill="#FEFFFF"></path><text xml:space="preserve" font-family="Georgia,Georgia" font-size="65.0" fill="#000000" transform="matrix(1.00, 0.00, -0.00, -1.00, 372.1, 648.3)">R</text><text xml:space="preserve" font-family="Georgia,Georgia" font-size="65.0" fill="#000000" transform="matrix(1.00, 0.00, -0.00, -1.00, 417.7, 648.3)">a</text><text xml:space="preserve" font-family="Georgia,Georgia" font-size="65.0" fill="#000000" transform="matrix(1.00, 0.00, -0.00, -1.00, 450.4, 648.3)">j</text><text xml:space="preserve" font-family="Georgia,Georgia" font-size="65.0" fill="#000000" transform="matrix(1.00, 0.00, -0.00, -1.00, 469.4, 648.3)">a</text><text xml:space="preserve" font-family="Georgia,Georgia" font-size="65.0" fill="#000000" transform="matrix(1.00, 0.00, -0.00, -1.00, 502.1, 648.3)">p</text><text xml:space="preserve" font-family="Georgia,Georgia" font-size="65.0" fill="#000000" transform="matrix(1.00, 0.00, -0.00, -1.00, 539.3, 648.3)">i</text><text xml:space="preserve" font-family="Georgia,Georgia" font-size="65.0" fill="#000000" transform="matrix(1.00, 0.00, -0.00, -1.00, 558.3, 648.3)">n</text><text xml:space="preserve" font-family="Georgia,Georgia" font-size="65.0" fill="#000000" transform="matrix(1.00, 0.00, -0.00, -1.00, 596.7, 648.3)">t</text><text xml:space="preserve" font-family="Georgia,Georgia" font-size="65.0" fill="#000000" transform="matrix(1.00, 0.00, -0.00, -1.00, 619.2, 648.3)">a</text><text xml:space="preserve" font-family="Georgia,Georgia" font-size="27.0" fill="#000000" transform="matrix(1.00, 0.00, -0.00, -1.00, 79.0, 482.8)">•</text><text xml:space="preserve" font-family="Georgia,Georgia" font-size="36.0" fill="#000000" transform="matrix(1.00, 0.00, -0.00, -1.00, 114.0, 479.8)">K</text><text xml:space="preserve" font-family="Georgia,Georgia" font-size="36.0" fill="#000000" transform="matrix(1.00, 0.00, -0.00, -1.00, 139.0, 479.8)">a</text><text xml:space="preserve" font-family="Georgia,Georgia" font-size="36.0" fill="#000000" transform="matrix(1.00, 0.00, -0.00, -1.00, 157.1, 479.8)">h</text><text xml:space="preserve" font-family="Georgia,Georgia" font-size="36.0" fill="#000000" transform="matrix(1.00, 0.00, -0.00, -1.00, 178.1, 479.8)">d</text><text xml:space="preserve" font-family="Georgia,Georgia" font-size="36.0" fill="#000000" transform="matrix(1.00, 0.00, -0.00, -1.00, 198.8, 479.8)">e</text><text xml:space="preserve" font-family="Georgia,Georgia" font-size="36.0" fill="#000000" transform="matrix(1.00, 0.00, -0.00, -1.00, 216.2, 479.8)">n</text><text xml:space="preserve" font-family="Georgia,Georgia" font-size="36.0" fill="#000000" transform="matrix(1.00, 0.00, -0.00, -1.00, 237.5, 479.8)"> </text><text xml:space="preserve" font-family="Georgia,Georgia" font-size="36.0" fill="#000000" transform="matrix(1.00, 0.00, -0.00, -1.00, 246.1, 479.8)">a</text><text xml:space="preserve" font-family="Georgia,Georgia" font-size="36.0" fill="#000000" transform="matrix(1.00, 0.00, -0.00, -1.00, 264.3, 479.8)">i</text><text xml:space="preserve" font-family="Georgia,Georgia" font-size="36.0" fill="#000000" transform="matrix(1.00, 0.00, -0.00, -1.00, 274.8, 479.8)">n</text><text xml:space="preserve" font-family="Georgia,Georgia" font-size="36.0" fill="#000000" transform="matrix(1.00, 0.00, -0.00, -1.00, 296.1, 479.8)">e</text><text xml:space="preserve" font-family="Georgia,Georgia" font-size="36.0" fill="#000000" transform="matrix(1.00, 0.00, -0.00, -1.00, 313.5, 479.8)">e</text><text xml:space="preserve" font-family="Georgia,Georgia" font-size="36.0" fill="#000000" transform="matrix(1.00, 0.00, -0.00, -1.00, 330.9, 479.8)">n</text><text xml:space="preserve" font-family="Georgia,Georgia" font-size="36.0" fill="#000000" transform="matrix(1.00, 0.00, -0.00, -1.00, 352.2, 479.8)"> </text><text xml:space="preserve" font-family="Georgia,Georgia" font-size="36.0" fill="#000000" transform="matrix(1.00, 0.00, -0.00, -1.00, 360.9, 479.8)">v</text><text xml:space="preserve" font-family="Georgia,Georgia" font-size="36.0" fill="#000000" transform="matrix(1.00, 0.00, -0.00, -1.00, 378.7, 479.8)">ä</text><text xml:space="preserve" font-family="Georgia,Georgia" font-size="36.0" fill="#000000" transform="matrix(1.00, 0.00, -0.00, -1.00, 396.9, 479.8)">l</text><text xml:space="preserve" font-family="Georgia,Georgia" font-size="36.0" fill="#000000" transform="matrix(1.00, 0.00, -0.00, -1.00, 407.2, 479.8)">i</text><text xml:space="preserve" font-family="Georgia,Georgia" font-size="36.0" fill="#000000" transform="matrix(1.00, 0.00, -0.00, -1.00, 417.7, 479.8)">s</text><text xml:space="preserve" font-family="Georgia,Georgia" font-size="36.0" fill="#000000" transform="matrix(1.00, 0.00, -0.00, -1.00, 433.3, 479.8)">t</text><text xml:space="preserve" font-family="Georgia,Georgia" font-size="36.0" fill="#000000" transform="matrix(1.00, 0.00, -0.00, -1.00, 445.7, 479.8)">ä</text><text xml:space="preserve" font-family="Georgia,Georgia" font-size="36.0" fill="#000000" transform="matrix(1.00, 0.00, -0.00, -1.00, 463.9, 479.8)"> </text><text xml:space="preserve" font-family="Georgia,Georgia" font-size="36.0" fill="#000000" transform="matrix(1.00, 0.00, -0.00, -1.00, 472.6, 479.8)">p</text><text xml:space="preserve" font-family="Georgia,Georgia" font-size="36.0" fill="#000000" transform="matrix(1.00, 0.00, -0.00, -1.00, 493.1, 479.8)">i</text><text xml:space="preserve" font-family="Georgia,Georgia" font-size="36.0" fill="#000000" transform="matrix(1.00, 0.00, -0.00, -1.00, 503.7, 479.8)">n</text><text xml:space="preserve" font-family="Georgia,Georgia" font-size="36.0" fill="#000000" transform="matrix(1.00, 0.00, -0.00, -1.00, 524.9, 479.8)">t</text><text xml:space="preserve" font-family="Georgia,Georgia" font-size="36.0" fill="#000000" transform="matrix(1.00, 0.00, -0.00, -1.00, 537.4, 479.8)">a</text><text xml:space="preserve" font-family="Georgia,Georgia" font-size="36.0" fill="#000000" transform="matrix(1.00, 0.00, -0.00, -1.00, 555.5, 479.8)">a</text><text xml:space="preserve" font-family="Georgia,Georgia" font-size="36.0" fill="#000000" transform="matrix(1.00, 0.00, -0.00, -1.00, 573.6, 479.8)"> </text><text xml:space="preserve" font-family="Georgia,Georgia" font-size="36.0" fill="#000000" transform="matrix(1.00, 0.00, -0.00, -1.00, 582.3, 479.8)">k</text><text xml:space="preserve" font-family="Georgia,Georgia" font-size="36.0" fill="#000000" transform="matrix(1.00, 0.00, -0.00, -1.00, 601.6, 479.8)">u</text><text xml:space="preserve" font-family="Georgia,Georgia" font-size="36.0" fill="#000000" transform="matrix(1.00, 0.00, -0.00, -1.00, 622.3, 479.8)">t</text><text xml:space="preserve" font-family="Georgia,Georgia" font-size="36.0" fill="#000000" transform="matrix(1.00, 0.00, -0.00, -1.00, 634.8, 479.8)">s</text><text xml:space="preserve" font-family="Georgia,Georgia" font-size="36.0" fill="#000000" transform="matrix(1.00, 0.00, -0.00, -1.00, 650.3, 479.8)">u</text><text xml:space="preserve" font-family="Georgia,Georgia" font-size="36.0" fill="#000000" transform="matrix(1.00, 0.00, -0.00, -1.00, 671.0, 479.8)">t</text><text xml:space="preserve" font-family="Georgia,Georgia" font-size="36.0" fill="#000000" transform="matrix(1.00, 0.00, -0.00, -1.00, 683.5, 479.8)">a</text><text xml:space="preserve" font-family="Georgia,Georgia" font-size="36.0" fill="#000000" transform="matrix(1.00, 0.00, -0.00, -1.00, 701.6, 479.8)">a</text><text xml:space="preserve" font-family="Georgia,Georgia" font-size="36.0" fill="#000000" transform="matrix(1.00, 0.00, -0.00, -1.00, 719.7, 479.8)">n</text><text xml:space="preserve" font-family="Georgia,Georgia" font-size="36.0" fill="#000000" transform="matrix(1.00, 0.00, -0.00, -1.00, 741.0, 479.8)"> </text><text xml:space="preserve" font-family="Georgia,Georgia" font-size="36.0" fill="#000000" transform="matrix(1.00, 0.00, -0.00, -1.00, 749.7, 479.8)">o</text><text xml:space="preserve" font-family="Georgia,Georgia" font-size="36.0" fill="#000000" transform="matrix(1.00, 0.00, -0.00, -1.00, 769.1, 479.8)">p</text><text xml:space="preserve" font-family="Georgia,Georgia" font-size="36.0" fill="#000000" transform="matrix(1.00, 0.00, -0.00, -1.00, 789.7, 479.8)">t</text><text xml:space="preserve" font-family="Georgia,Georgia" font-size="36.0" fill="#000000" transform="matrix(1.00, 0.00, -0.00, -1.00, 802.1, 479.8)">i</text><text xml:space="preserve" font-family="Georgia,Georgia" font-size="36.0" fill="#000000" transform="matrix(1.00, 0.00, -0.00, -1.00, 812.7, 479.8)">i</text><text xml:space="preserve" font-family="Georgia,Georgia" font-size="36.0" fill="#000000" transform="matrix(1.00, 0.00, -0.00, -1.00, 823.2, 479.8)">k</text><text xml:space="preserve" font-family="Georgia,Georgia" font-size="36.0" fill="#000000" transform="matrix(1.00, 0.00, -0.00, -1.00, 842.5, 479.8)">a</text><text xml:space="preserve" font-family="Georgia,Georgia" font-size="36.0" fill="#000000" transform="matrix(1.00, 0.00, -0.00, -1.00, 860.6, 479.8)">s</text><text xml:space="preserve" font-family="Georgia,Georgia" font-size="36.0" fill="#000000" transform="matrix(1.00, 0.00, -0.00, -1.00, 876.2, 479.8)">s</text><text xml:space="preserve" font-family="Georgia,Georgia" font-size="36.0" fill="#000000" transform="matrix(1.00, 0.00, -0.00, -1.00, 891.7, 479.8)">a</text><text xml:space="preserve" font-family="Georgia,Georgia" font-size="36.0" fill="#000000" transform="matrix(1.00, 0.00, -0.00, -1.00, 909.9, 479.8)"> </text><text xml:space="preserve" font-family="Georgia-Bold,Georgia" font-weight="bold" font-size="36.0" fill="#000000" transform="matrix(1.00, 0.00, -0.00, -1.00, 114.0, 438.8)">r</text><text xml:space="preserve" font-family="Georgia-Bold,Georgia" font-weight="bold" font-size="36.0" fill="#000000" transform="matrix(1.00, 0.00, -0.00, -1.00, 132.7, 438.8)">a</text><text xml:space="preserve" font-family="Georgia-Bold,Georgia" font-weight="bold" font-size="36.0" fill="#000000" transform="matrix(1.00, 0.00, -0.00, -1.00, 154.2, 438.8)">j</text><text xml:space="preserve" font-family="Georgia-Bold,Georgia" font-weight="bold" font-size="36.0" fill="#000000" transform="matrix(1.00, 0.00, -0.00, -1.00, 166.6, 438.8)">a</text><text xml:space="preserve" font-family="Georgia-Bold,Georgia" font-weight="bold" font-size="36.0" fill="#000000" transform="matrix(1.00, 0.00, -0.00, -1.00, 188.1, 438.8)">p</text><text xml:space="preserve" font-family="Georgia-Bold,Georgia" font-weight="bold" font-size="36.0" fill="#000000" transform="matrix(1.00, 0.00, -0.00, -1.00, 211.7, 438.8)">i</text><text xml:space="preserve" font-family="Georgia-Bold,Georgia" font-weight="bold" font-size="36.0" fill="#000000" transform="matrix(1.00, 0.00, -0.00, -1.00, 224.4, 438.8)">n</text><text xml:space="preserve" font-family="Georgia-Bold,Georgia" font-weight="bold" font-size="36.0" fill="#000000" transform="matrix(1.00, 0.00, -0.00, -1.00, 249.3, 438.8)">n</text><text xml:space="preserve" font-family="Georgia-Bold,Georgia" font-weight="bold" font-size="36.0" fill="#000000" transform="matrix(1.00, 0.00, -0.00, -1.00, 274.1, 438.8)">a</text><text xml:space="preserve" font-family="Georgia-Bold,Georgia" font-weight="bold" font-size="36.0" fill="#000000" transform="matrix(1.00, 0.00, -0.00, -1.00, 295.5, 438.8)">k</text><text xml:space="preserve" font-family="Georgia-Bold,Georgia" font-weight="bold" font-size="36.0" fill="#000000" transform="matrix(1.00, 0.00, -0.00, -1.00, 318.3, 438.8)">s</text><text xml:space="preserve" font-family="Georgia-Bold,Georgia" font-weight="bold" font-size="36.0" fill="#000000" transform="matrix(1.00, 0.00, -0.00, -1.00, 336.7, 438.8)">i</text><text xml:space="preserve" font-family="Georgia,Georgia" font-size="36.0" fill="#000000" transform="matrix(1.00, 0.00, -0.00, -1.00, 455.3, 183.1)">R</text><text xml:space="preserve" font-family="Georgia,Georgia" font-size="36.0" fill="#000000" transform="matrix(1.00, 0.00, -0.00, -1.00, 480.5, 183.1)">a</text><text xml:space="preserve" font-family="Georgia,Georgia" font-size="36.0" fill="#000000" transform="matrix(1.00, 0.00, -0.00, -1.00, 498.7, 183.1)">j</text><text xml:space="preserve" font-family="Georgia,Georgia" font-size="36.0" fill="#000000" transform="matrix(1.00, 0.00, -0.00, -1.00, 509.2, 183.1)">a</text><text xml:space="preserve" font-family="Georgia,Georgia" font-size="36.0" fill="#000000" transform="matrix(1.00, 0.00, -0.00, -1.00, 527.3, 183.1)">p</text><text xml:space="preserve" font-family="Georgia,Georgia" font-size="36.0" fill="#000000" transform="matrix(1.00, 0.00, -0.00, -1.00, 547.9, 183.1)">i</text><text xml:space="preserve" font-family="Georgia,Georgia" font-size="36.0" fill="#000000" transform="matrix(1.00, 0.00, -0.00, -1.00, 558.4, 183.1)">n</text><text xml:space="preserve" font-family="Georgia,Georgia" font-size="36.0" fill="#000000" transform="matrix(1.00, 0.00, -0.00, -1.00, 579.7, 183.1)">t</text><text xml:space="preserve" font-family="Georgia,Georgia" font-size="36.0" fill="#000000" transform="matrix(1.00, 0.00, -0.00, -1.00, 592.1, 183.1)">a</text><path d="M 625.9 184.4 C 625.6 184.6 624.9 184.4 624.6 184.5 M 625.9 184.4 C 625.1 183.3 623.8 183.3 622.1 183.1 C 620.2 183.0 622.1 184.1 621.9 184.5 C 619.4 185.0 619.4 184.2 619.8 183.0 C 618.8 183.8 616.0 182.4 616.6 183.9 C 620.6 183.9 613.7 184.2 617.1 185.1 C 617.5 185.3 616.5 185.7 616.1 185.7 C 617.2 186.3 615.3 187.0 617.1 187.5 C 617.4 188.4 617.0 188.0 618.2 188.7 C 618.7 188.8 618.5 188.5 618.4 188.3 C 618.6 187.2 619.8 188.9 620.7 188.2 C 621.6 189.7 622.5 188.0 621.7 187.4 C 622.5 187.5 623.5 189.0 624.4 188.0 C 624.9 188.7 627.2 188.2 625.8 187.3 C 624.8 186.8 625.9 186.3 626.1 186.0 C 625.7 185.7 624.3 186.1 624.1 185.9 C 624.6 185.6 626.3 185.1 624.4 185.2 C 625.0 184.7 624.1 184.4 625.9 184.4 C 625.9 184.4 625.9 184.4 625.9 184.4 Z M 619.1 183.6 C 619.1 183.2 619.7 183.6 619.1 183.6 C 619.1 183.6 619.1 183.6 619.1 183.6 Z M 623.7 188.7 C 623.7 188.3 624.3 188.7 623.7 188.7 C 623.7 188.7 623.7 188.7 623.7 188.7 Z M 618.7 188.3 C 618.7 187.9 619.4 188.3 618.7 188.3 C 618.7 188.3 618.7 188.3 618.7 188.3 Z M 620.8 183.9 C 621.9 184.2 619.9 184.4 619.8 184.0 C 620.0 184.1 620.6 183.6 620.8 183.9 C 620.8 183.9 620.8 183.9 620.8 183.9 Z M 621.0 186.1 C 621.1 185.9 621.5 185.9 621.5 186.3 C 621.2 186.4 620.9 186.2 621.0 186.1 C 621.0 186.1 621.0 186.1 621.0 186.1 Z M 615.7 184.5 C 615.8 184.4 616.2 184.3 616.2 184.7 C 615.9 184.8 615.6 184.6 615.7 184.5 C 615.7 184.5 615.7 184.5 615.7 184.5 Z M 622.1 184.9 C 622.3 184.9 622.4 185.3 622.1 185.3 C 622.0 185.2 621.2 185.1 622.1 184.9 C 622.1 184.9 622.1 184.9 622.1 184.9 Z M 623.7 183.6 C 624.6 183.8 622.8 184.4 622.8 184.2 C 622.5 183.9 623.2 183.3 623.7 183.6 C 623.7 183.6 623.7 183.6 623.7 183.6 Z M 622.6 185.4 C 623.3 185.6 622.3 185.7 622.6 185.4 C 622.6 185.4 622.6 185.4 622.6 185.4 Z M 616.4 187.3 C 617.2 187.5 616.1 187.6 616.4 187.3 C 616.4 187.3 616.4 187.3 616.4 187.3 Z M 620.3 188.5 C 621.1 188.7 620.0 188.8 620.3 188.5 C 620.3 188.5 620.3 188.5 620.3 188.5 Z M 618.9 184.6 C 617.6 184.6 618.7 183.7 618.9 184.6 C 618.9 184.6 618.9 184.6 618.9 184.6 Z M 625.8 183.5 C 624.5 183.5 625.6 182.6 625.8 183.5 C 625.8 183.5 625.8 183.5 625.8 183.5 Z M 667.4 183.9 C 668.6 183.7 664.0 182.4 665.7 183.9 C 666.3 185.1 663.1 185.0 663.9 183.9 C 663.0 183.8 663.0 183.7 662.5 184.3 C 662.3 183.4 660.2 182.9 659.4 183.4 C 658.9 184.1 660.8 183.5 659.6 184.3 C 656.9 184.5 659.8 185.1 658.8 186.2 C 658.6 186.2 658.6 185.7 658.3 186.0 C 658.3 186.9 659.8 187.6 659.1 188.3 C 659.5 188.1 661.5 189.2 660.7 188.3 C 660.4 187.4 662.8 189.4 662.6 187.9 C 663.3 188.6 664.0 187.7 664.6 188.5 C 665.1 188.7 665.1 187.9 665.0 187.7 C 664.9 187.0 665.6 189.3 666.3 188.0 C 666.4 188.4 668.6 188.3 667.0 187.7 C 667.4 187.8 669.9 188.1 668.6 186.8 C 666.9 186.2 670.4 185.5 668.4 185.4 C 666.8 185.3 666.5 185.5 667.7 184.8 C 668.0 184.9 669.8 184.8 668.3 184.2 C 668.0 184.4 667.2 184.2 667.4 183.9 C 667.4 183.9 667.4 183.9 667.4 183.9 Z M 667.7 185.8 C 666.8 185.9 667.7 185.3 667.7 185.8 C 667.7 185.8 667.7 185.8 667.7 185.8 Z M 664.4 188.8 C 663.5 188.9 664.4 188.3 664.4 188.8 C 664.4 188.8 664.4 188.8 664.4 188.8 Z M 664.6 183.5 C 664.1 183.9 664.0 182.6 664.6 183.5 C 664.6 183.5 664.6 183.5 664.6 183.5 Z M 666.0 187.7 C 665.9 187.7 666.1 187.5 666.3 187.5 C 666.3 187.5 666.0 187.7 666.0 187.7 C 666.0 187.7 666.0 187.7 666.0 187.7 Z M 663.0 183.5 C 661.7 184.2 662.8 182.5 663.0 183.5 C 663.0 183.5 663.0 183.5 663.0 183.5 Z M 660.3 184.8 C 660.1 186.2 658.9 184.5 660.3 184.8 C 660.3 184.8 660.3 184.8 660.3 184.8 Z M 662.2 187.8 C 662.4 187.6 662.4 188.0 662.2 187.8 C 662.2 187.8 662.2 187.8 662.2 187.8 Z M 668.1 188.0 C 668.4 187.8 668.4 188.2 668.1 188.0 C 668.1 188.0 668.1 188.0 668.1 188.0 Z M 660.5 187.7 C 660.6 187.2 661.0 188.0 660.5 187.7 C 660.5 187.7 660.5 187.7 660.5 187.7 Z M 664.3 184.1 C 665.6 183.0 665.8 185.7 664.3 184.1 C 664.3 184.1 664.3 184.1 664.3 184.1 Z M 666.5 184.0 C 667.4 183.7 666.4 184.7 666.0 184.5 C 666.1 184.4 666.4 184.0 666.5 184.0 C 666.5 184.0 666.5 184.0 666.5 184.0 Z M 663.0 184.2 C 663.9 183.7 663.8 184.5 663.0 184.2 C 663.0 184.2 663.0 184.2 663.0 184.2 Z M 665.2 183.6 C 665.6 183.7 664.8 183.7 665.2 183.6 C 665.2 183.6 665.2 183.6 665.2 183.6 Z M 661.3 183.1 C 661.7 183.2 661.0 183.2 661.3 183.1 C 661.3 183.1 661.3 183.1 661.3 183.1 Z M 667.6 183.4 C 668.0 183.5 667.2 183.6 667.6 183.4 C 667.6 183.4 667.6 183.4 667.6 183.4 Z M 661.7 183.8 C 661.5 184.3 662.7 185.4 660.6 184.4 C 660.2 184.1 661.1 183.4 661.7 183.8 C 661.7 183.8 661.7 183.8 661.7 183.8 Z M 629.0 184.5 C 624.4 183.0 625.5 185.6 625.3 186.1 C 624.7 186.9 625.3 187.3 626.2 187.8 C 627.2 189.5 627.6 186.1 628.3 187.8 C 629.6 190.0 629.7 185.8 630.3 188.2 C 630.1 188.8 631.8 188.3 631.7 188.2 C 632.6 189.3 633.9 187.3 633.9 187.1 C 634.5 187.4 634.5 189.5 636.4 187.9 C 637.8 187.3 638.4 189.5 638.0 188.0 C 639.1 189.6 638.8 187.5 639.8 188.1 C 640.5 189.0 639.8 186.7 641.1 188.4 C 641.7 187.0 640.5 189.3 644.1 188.3 C 642.4 188.2 645.7 187.2 645.1 188.2 C 643.9 189.1 646.7 187.8 648.3 188.4 C 648.8 187.9 650.7 186.6 650.4 188.0 C 652.0 189.6 652.1 187.0 652.8 188.3 C 653.3 188.9 653.5 187.7 653.9 187.8 C 654.5 188.8 655.0 188.1 657.1 188.4 C 661.6 188.9 657.8 185.9 659.5 185.6 C 659.8 185.1 657.3 181.9 658.3 184.3 C 657.9 183.6 654.3 186.1 656.1 183.5 C 654.7 184.5 656.4 182.4 653.6 183.7 C 657.4 185.5 649.2 184.4 652.9 183.5 C 652.3 183.0 650.7 183.1 651.8 183.5 C 652.3 185.2 649.2 182.7 650.7 184.8 C 648.3 184.2 648.9 186.1 648.3 184.8 C 647.7 182.6 648.4 185.4 647.2 184.7 C 644.4 184.7 646.6 182.2 644.9 183.8 C 642.1 182.7 644.3 184.8 643.3 185.1 C 643.0 186.6 640.5 183.9 642.6 183.7 C 641.5 184.5 642.4 183.0 641.1 183.9 C 642.1 185.4 639.5 182.4 639.9 183.6 C 638.8 183.9 639.3 184.8 639.0 184.8 C 637.3 184.8 637.8 183.4 637.5 184.5 C 637.1 185.1 636.3 183.2 636.1 183.7 C 637.8 183.7 634.7 185.2 634.5 184.4 C 635.6 184.3 634.0 182.5 633.3 183.7 C 634.1 186.8 631.8 182.8 631.0 184.0 C 631.8 185.7 627.2 184.2 628.9 183.4 C 628.8 183.5 629.0 184.5 629.0 184.5 M 635.6 183.9 C 637.0 184.1 634.1 184.3 635.6 183.9 M 635.6 183.5 C 636.2 184.0 634.2 183.0 635.6 183.3 C 635.6 183.3 635.5 183.4 635.6 183.5 M 641.4 183.4 C 641.2 183.9 640.6 183.1 641.4 183.4 M 642.5 184.5 C 643.5 184.9 641.3 184.6 642.5 184.5 M 655.5 184.1 C 654.2 186.7 654.1 182.7 655.5 184.1 M 646.9 183.6 C 645.3 184.0 647.5 182.5 646.9 183.6 M 646.5 184.3 C 645.7 184.7 646.3 183.7 646.5 184.3 M 653.0 184.1 C 653.1 184.2 653.1 184.2 653.0 184.1 C 653.0 184.1 653.0 184.1 653.0 184.1 Z M 656.9 184.2 C 656.9 184.2 656.9 184.2 656.9 184.2 C 656.9 184.2 656.9 184.2 656.9 184.2 Z M 649.3 184.4 C 648.1 183.8 651.2 184.2 649.3 184.4 C 649.3 184.4 649.3 184.4 649.3 184.4 Z M 655.0 188.1 C 655.0 188.1 655.0 188.1 655.0 188.1 C 655.0 188.1 655.0 188.1 655.0 188.1 Z M 634.5 185.1 C 634.4 185.1 634.4 185.1 634.5 185.1 C 634.5 185.1 634.5 185.1 634.5 185.1 Z M 630.1 184.1 C 630.2 184.5 629.3 183.9 630.1 184.1 C 630.1 184.1 630.1 184.1 630.1 184.1 Z M 626.6 187.1 C 626.5 187.1 626.5 187.1 626.6 187.1 C 626.6 187.1 626.6 187.1 626.6 187.1 Z M 633.0 186.4 C 633.0 186.5 633.0 186.5 633.0 186.4 C 633.0 186.4 633.0 186.4 633.0 186.4 Z M 633.6 184.5 C 632.9 183.1 635.3 184.9 633.6 184.5 C 633.6 184.5 633.6 184.5 633.6 184.5 Z M 647.8 188.0 C 647.9 187.3 648.8 188.2 647.8 188.0 C 647.8 188.0 647.8 188.0 647.8 188.0 Z M 642.7 185.0 C 642.9 184.7 643.3 185.2 642.7 185.0 C 642.7 185.0 642.7 185.0 642.7 185.0 Z M 640.3 183.1 C 640.5 182.8 640.9 183.3 640.3 183.1 C 640.3 183.1 640.3 183.1 640.3 183.1 Z M 630.2 183.7 C 630.3 183.6 630.3 183.6 630.2 183.7 C 630.2 183.7 630.2 183.7 630.2 183.7 Z M 631.7 184.8 C 630.7 183.5 633.4 185.5 631.7 184.8 C 631.7 184.8 631.7 184.8 631.7 184.8 Z M 629.9 185.2 C 630.5 185.7 628.5 185.0 629.9 185.2 M 631.0 187.2 C 632.3 186.7 629.8 189.6 631.0 187.2 C 631.0 187.2 631.0 187.2 631.0 187.2 Z M 637.7 187.7 C 637.8 187.8 637.8 187.8 637.7 187.7 C 637.7 187.7 637.7 187.7 637.7 187.7 Z M 637.0 183.9 C 638.2 183.9 636.2 184.2 637.0 183.9 C 637.0 183.9 637.0 183.9 637.0 183.9 Z M 626.8 183.6 C 628.0 183.6 626.1 183.9 626.8 183.6 C 626.8 183.6 626.8 183.6 626.8 183.6 Z M 641.6 186.4 C 643.5 186.2 640.4 187.2 641.6 186.4 C 641.6 186.4 641.6 186.4 641.6 186.4 Z M 648.6 184.9 C 648.7 184.9 648.7 184.9 648.6 184.9 C 648.6 184.9 648.6 184.9 648.6 184.9 Z M 649.9 184.4 C 650.0 184.4 650.0 184.4 649.9 184.4 C 649.9 184.4 649.9 184.4 649.9 184.4 Z M 655.4 185.7 C 655.5 185.8 655.5 185.8 655.4 185.7 C 655.4 185.7 655.4 185.7 655.4 185.7 Z M 651.1 183.7 C 651.2 183.8 651.2 183.8 651.1 183.7 C 651.1 183.7 651.1 183.7 651.1 183.7 Z M 654.9 184.1 C 655.0 184.1 655.0 184.1 654.9 184.1 C 654.9 184.1 654.9 184.1 654.9 184.1 Z M 654.4 182.9 C 654.5 183.0 654.5 183.0 654.4 182.9 C 654.4 182.9 654.4 182.9 654.4 182.9 Z M 646.0 188.7 C 646.1 188.8 646.1 188.8 646.0 188.7 C 646.0 188.7 646.0 188.7 646.0 188.7 Z M 632.3 183.3 C 632.4 183.4 632.4 183.4 632.3 183.3 C 632.3 183.3 632.3 183.3 632.3 183.3 Z M 654.6 184.6 C 654.6 184.6 654.6 184.6 654.6 184.6 C 654.6 184.6 654.6 184.6 654.6 184.6 Z M 645.4 185.6 C 645.4 186.8 644.6 184.2 645.6 185.6 C 645.6 185.6 645.3 185.5 645.4 185.6 M 646.6 187.5 C 646.6 187.6 646.6 187.6 646.6 187.5 C 646.6 187.5 646.6 187.5 646.6 187.5 Z M 642.5 188.2 C 642.4 188.2 642.4 188.2 642.5 188.2 C 642.5 188.2 642.5 188.2 642.5 188.2 Z M 650.5 183.5 C 650.3 182.9 651.5 184.0 650.3 183.5 M 655.4 187.7 C 655.3 187.1 656.5 188.2 655.3 187.7 M 625.5 184.0 C 625.4 184.5 624.7 183.7 625.5 184.0 M 641.5 188.8 C 641.4 189.3 640.7 188.5 641.5 188.8 M 643.5 187.4 C 643.3 186.7 644.5 187.9 643.3 187.4 M 652.6 187.7 C 652.6 187.7 652.6 187.7 652.6 187.7 C 652.6 187.7 652.6 187.7 652.6 187.7 Z M 638.8 184.0 C 638.8 184.0 638.8 184.0 638.8 184.0 C 638.8 184.0 638.8 184.0 638.8 184.0 Z M 643.9 185.3 C 643.2 184.5 644.8 185.9 643.9 185.3 M 637.3 185.5 C 636.3 184.4 638.9 185.9 637.3 185.5 M 657.6 188.0 C 656.5 186.7 658.4 188.7 657.6 188.0 M 652.0 184.7 C 650.9 183.4 652.8 185.4 652.0 184.7 M 639.8 184.5 C 639.7 183.9 640.9 184.9 639.8 184.5 M 628.2 183.9 C 627.1 183.8 629.6 183.4 628.2 183.9 M 649.8 187.7 C 649.9 187.8 649.9 187.8 649.8 187.7 C 649.8 187.7 649.8 187.7 649.8 187.7 Z M 631.7 188.8 C 631.7 188.9 631.7 188.9 631.7 188.8 C 631.7 188.8 631.7 188.8 631.7 188.8 Z M 659.0 183.7 C 659.1 183.8 659.1 183.8 659.0 183.7 C 659.0 183.7 659.0 183.7 659.0 183.7 Z M 651.3 185.3 C 651.3 185.4 651.3 185.4 651.3 185.3 C 651.3 185.3 651.3 185.3 651.3 185.3 Z M 656.9 183.5 C 656.9 183.6 656.9 183.6 656.9 183.5 C 656.9 183.5 656.9 183.5 656.9 183.5 Z M 647.8 186.3 C 647.8 186.4 647.8 186.4 647.8 186.3 C 647.8 186.3 647.8 186.3 647.8 186.3 Z M 647.1 183.0 C 647.1 183.1 647.1 183.1 647.1 183.0 C 647.1 183.0 647.1 183.0 647.1 183.0 Z M 643.2 184.4 C 643.2 184.5 643.2 184.5 643.2 184.4 C 643.2 184.4 643.2 184.4 643.2 184.4 Z M 648.8 183.3 C 651.1 183.1 647.7 184.4 648.8 183.3 C 648.8 183.3 648.8 183.3 648.8 183.3 Z M 644.8 186.6 C 644.9 186.6 644.9 186.6 644.8 186.6 C 644.8 186.6 644.8 186.6 644.8 186.6 Z M 644.5 184.3 C 646.0 183.3 645.3 185.8 644.5 184.3 M 638.1 183.5 C 638.5 183.0 638.3 184.3 638.1 183.5 M 635.5 187.8 C 635.5 187.9 635.5 187.9 635.5 187.8 C 635.5 187.8 635.5 187.8 635.5 187.8 Z M 636.2 187.5 C 636.3 187.5 636.3 187.5 636.2 187.5 C 636.2 187.5 636.2 187.5 636.2 187.5 Z M 636.5 183.3 C 636.6 183.3 636.6 183.3 636.5 183.3 C 636.5 183.3 636.5 183.3 636.5 183.3 Z M 636.3 188.7 C 636.4 188.7 636.4 188.7 636.3 188.7 C 636.3 188.7 636.3 188.7 636.3 188.7 Z M 646.2 183.1 C 646.2 183.1 646.2 183.1 646.2 183.1 C 646.2 183.1 646.2 183.1 646.2 183.1 Z M 658.0 183.1 C 658.0 183.1 658.0 183.1 658.0 183.1 C 658.0 183.1 658.0 183.1 658.0 183.1 Z M 628.5 187.4 C 628.6 187.4 628.6 187.4 628.5 187.4 C 628.5 187.4 628.5 187.4 628.5 187.4 Z M 647.4 184.4 C 647.5 184.5 647.5 184.5 647.4 184.4 C 647.4 184.4 647.4 184.4 647.4 184.4 Z M 633.9 187.6 C 633.9 187.7 633.9 187.7 633.9 187.6 C 633.9 187.6 633.9 187.6 633.9 187.6 Z M 646.7 184.1 C 646.7 184.2 646.7 184.2 646.7 184.1 C 646.7 184.1 646.7 184.1 646.7 184.1 Z M 649.4 188.0 C 649.5 188.0 649.5 188.0 649.4 188.0 C 649.4 188.0 649.4 188.0 649.4 188.0 Z M 652.0 188.7 C 652.0 188.7 652.0 188.7 652.0 188.7 C 652.0 188.7 652.0 188.7 652.0 188.7 Z M 649.2 185.7 C 649.3 185.7 649.3 185.7 649.2 185.7 C 649.2 185.7 649.2 185.7 649.2 185.7 Z M 633.0 186.2 C 628.4 185.1 636.7 185.7 633.0 186.2 M 650.0 186.0 C 646.8 185.7 652.6 184.7 650.0 186.0 C 650.4 185.6 650.1 185.9 650.0 186.0 " fill="#EB5C56"></path><path d="M 667.8 199.2 C 667.7 199.7 666.1 200.3 667.2 199.2 C 667.3 199.2 667.9 199.0 667.8 199.2 Z M 670.2 197.8 C 670.0 197.9 669.9 198.0 669.7 197.9 C 669.2 197.6 670.8 197.4 670.2 197.8 Z M 666.4 199.4 C 666.4 199.5 665.6 199.9 665.7 199.7 C 665.7 199.5 666.4 199.3 666.4 199.4 Z M 671.8 195.6 C 671.9 195.8 671.1 196.2 670.9 196.2 C 670.3 196.2 671.6 195.1 671.8 195.6 Z M 665.3 191.5 C 665.2 191.4 665.2 191.4 665.2 191.3 C 665.3 191.4 665.3 191.5 665.3 191.5 Z M 683.3 189.4 C 683.1 189.5 682.7 189.5 682.7 189.3 C 682.7 189.0 683.7 189.1 683.3 189.4 Z M 664.8 175.7 C 664.8 175.7 664.6 176.1 664.5 175.9 C 664.3 175.8 664.6 175.6 664.8 175.7 Z M 664.5 175.7 C 664.3 175.8 664.2 175.5 664.4 175.5 C 664.6 175.6 664.7 175.7 664.5 175.7 Z M 677.3 179.1 C 677.4 179.1 677.5 179.1 677.4 179.2 C 677.2 179.2 677.1 179.0 677.3 179.1 Z M 676.8 179.1 C 676.6 179.3 676.5 178.8 676.7 178.9 C 676.9 179.0 677.0 179.0 676.8 179.1 Z M 675.1 176.6 C 675.2 176.7 675.2 176.7 675.1 176.7 C 675.0 176.8 674.9 176.6 675.1 176.6 Z M 664.1 182.2 C 664.0 182.1 664.2 181.6 664.3 181.7 C 664.6 181.7 664.3 182.4 664.1 182.2 Z M 664.0 181.6 C 663.8 181.6 663.8 181.3 664.0 181.4 C 664.1 181.4 664.2 181.5 664.0 181.6 Z M 664.4 183.6 C 664.6 183.6 664.6 184.1 664.6 184.2 C 664.5 184.4 664.5 184.6 664.4 184.8 C 664.3 184.9 664.0 183.6 664.4 183.6 Z M 664.6 187.8 C 664.5 187.8 664.5 187.8 664.6 187.6 C 664.7 187.4 664.7 187.8 664.6 187.8 Z M 664.5 185.4 C 664.4 185.4 664.3 185.4 664.4 185.2 C 664.5 185.0 664.6 185.4 664.5 185.4 Z M 676.6 193.4 C 676.8 193.5 676.1 193.7 676.0 193.7 C 675.9 193.7 676.2 193.6 676.0 193.6 C 675.8 193.6 675.9 193.0 676.6 193.4 Z M 671.5 196.9 C 671.4 197.0 671.3 196.9 671.3 196.8 C 671.3 196.7 671.8 196.6 671.5 196.9 Z M 675.4 193.1 C 675.4 193.2 675.3 193.3 675.2 193.2 C 675.2 193.2 675.3 193.1 675.4 193.1 Z M 675.7 192.8 C 675.6 192.9 675.2 192.9 675.2 192.7 C 675.2 192.4 676.2 192.4 675.7 192.8 Z M 677.5 193.2 C 677.3 193.3 677.3 193.3 677.4 193.1 C 677.4 193.0 677.5 193.2 677.5 193.2 Z M 674.6 195.3 C 674.4 195.4 674.4 195.4 674.4 195.3 C 674.5 195.1 674.6 195.3 674.6 195.3 Z M 678.7 191.9 C 678.7 191.9 678.4 192.4 678.1 192.1 C 677.7 191.7 678.7 191.9 678.7 191.9 Z M 680.6 190.2 C 680.4 190.3 680.4 190.1 680.6 190.1 C 680.7 190.0 680.7 190.1 680.6 190.2 Z M 680.9 189.0 C 681.2 189.0 681.5 189.0 681.1 189.2 C 680.7 189.4 680.6 189.1 680.9 189.0 Z M 680.6 189.4 C 680.6 189.4 680.7 189.3 680.8 189.3 C 680.8 189.4 680.7 189.5 680.6 189.4 Z M 679.1 191.0 C 679.0 191.3 678.7 191.2 678.9 190.9 C 679.1 190.7 679.2 190.8 679.1 191.0 Z M 664.2 193.7 C 664.2 193.8 664.0 193.8 663.9 193.7 C 663.8 193.6 664.1 193.5 664.2 193.7 Z M 665.1 184.6 C 665.0 184.7 665.0 184.6 665.0 184.4 C 665.1 184.1 665.2 184.5 665.1 184.6 Z M 665.6 178.8 C 665.4 178.9 665.4 178.8 665.5 178.6 C 665.6 178.4 665.7 178.7 665.6 178.8 Z M 665.1 186.9 C 665.0 187.0 664.6 186.4 665.0 186.0 C 665.4 185.7 665.5 186.7 665.1 186.9 Z M 669.7 192.6 C 669.8 192.7 669.6 192.7 669.6 192.7 C 669.6 192.5 669.6 192.5 669.7 192.6 Z M 665.8 185.6 C 665.9 185.7 665.6 185.7 665.5 185.6 C 665.4 185.5 665.7 185.4 665.8 185.6 Z M 665.2 179.8 C 665.1 180.1 664.8 179.9 664.6 179.8 C 664.3 179.3 664.7 179.0 665.0 178.6 C 665.2 178.4 665.3 179.7 665.2 179.8 Z M 665.0 195.1 C 665.1 195.0 665.1 194.8 665.2 194.7 C 665.0 194.7 665.1 194.6 665.2 194.5 C 665.1 193.9 664.6 193.5 664.4 193.2 C 664.1 192.3 665.2 192.0 665.3 191.5 C 665.3 191.6 665.3 191.8 665.4 191.9 C 665.7 192.1 665.5 190.0 665.5 189.9 C 665.3 188.2 665.0 190.3 664.4 190.3 C 664.1 190.3 664.8 189.1 664.8 189.0 C 665.1 188.5 664.5 188.4 664.7 187.9 C 664.8 187.7 666.2 187.1 666.0 186.9 C 665.8 186.7 666.0 186.2 666.0 186.0 C 666.0 185.6 665.9 185.1 665.4 185.4 C 665.1 185.6 664.8 185.7 665.1 185.3 C 665.3 185.0 666.1 182.9 665.2 183.0 C 665.1 183.0 664.8 183.5 664.8 183.5 C 664.6 182.9 664.9 181.2 664.5 180.8 C 663.6 179.9 665.0 181.1 665.3 180.6 C 665.7 179.9 666.0 179.4 665.8 178.4 C 665.8 178.2 665.8 177.3 665.3 177.7 C 664.9 178.1 664.7 177.8 664.6 178.4 C 664.1 177.7 665.0 177.3 664.8 177.2 C 664.5 177.0 664.4 177.4 664.4 176.9 C 664.5 176.3 664.3 176.6 664.8 176.5 C 665.0 176.4 665.1 175.9 665.1 175.9 C 665.2 175.9 665.2 175.9 665.2 175.9 C 665.2 175.5 664.3 174.7 664.5 174.6 C 664.7 174.5 665.3 174.8 665.5 174.8 C 665.5 174.7 665.5 174.7 665.5 174.7 C 665.4 174.4 665.1 174.0 665.1 173.9 C 665.2 173.8 666.1 174.2 665.8 174.0 C 665.6 173.7 665.9 172.7 666.2 172.7 C 666.4 172.6 667.6 172.3 667.7 172.1 C 667.7 171.9 668.3 172.3 668.4 172.4 C 668.6 172.5 668.8 172.9 668.8 173.0 C 668.8 173.1 669.3 173.3 669.3 173.3 C 669.3 173.3 669.5 173.3 669.9 173.5 C 670.2 173.7 670.3 174.0 670.7 174.4 C 671.0 174.8 671.4 174.6 671.8 174.8 C 672.2 175.0 672.2 175.8 672.5 176.1 C 672.8 176.4 673.1 175.9 673.5 176.1 C 674.0 176.3 674.1 176.6 673.9 176.6 C 673.8 176.6 673.8 176.8 673.9 176.9 C 674.1 176.9 674.5 177.4 674.7 177.4 C 674.9 177.4 673.9 176.2 675.5 177.3 C 676.3 177.8 676.5 178.6 676.3 178.5 C 675.7 178.2 676.5 179.7 676.6 179.5 C 676.8 179.2 678.1 180.1 678.0 179.5 C 678.0 179.3 679.5 179.9 679.6 180.1 C 679.8 180.3 680.5 180.6 680.4 181.1 C 680.4 181.4 681.5 181.3 681.7 181.4 C 681.8 181.5 682.9 182.2 683.0 182.5 C 683.2 182.7 682.7 182.4 682.4 182.3 C 682.2 182.1 682.0 181.7 681.7 181.6 C 681.5 181.5 681.8 182.0 682.1 182.2 C 682.3 182.4 682.3 182.6 682.4 182.9 C 682.6 182.9 682.7 183.0 683.0 183.2 C 683.1 183.2 683.2 183.2 683.2 183.1 C 683.3 183.0 683.2 182.8 683.3 182.8 C 683.3 182.7 683.6 182.7 683.9 182.9 C 684.3 183.1 684.5 183.3 684.9 183.7 C 685.2 184.1 685.4 184.1 685.7 184.2 C 686.1 184.3 686.3 184.6 686.3 184.7 C 686.2 184.8 685.8 184.6 685.7 184.7 C 685.6 184.7 685.9 185.2 686.1 185.3 C 686.8 185.9 685.8 186.2 686.5 186.8 C 687.0 187.1 686.3 187.1 685.9 187.2 C 685.9 187.3 685.9 187.3 685.6 187.6 C 685.7 187.8 685.1 188.0 684.8 188.1 C 684.7 188.3 683.8 189.1 684.2 188.4 C 684.3 188.4 684.3 188.3 684.4 188.3 C 684.3 188.3 684.3 188.3 684.3 188.3 C 684.3 188.3 684.4 187.7 684.4 187.7 C 684.4 187.7 684.3 188.2 684.3 188.2 C 684.1 188.2 683.9 188.1 683.8 188.0 C 683.7 188.1 683.7 188.2 683.7 188.2 C 683.7 188.3 683.7 188.3 683.6 188.3 C 683.7 188.3 683.7 188.3 683.7 188.3 C 683.8 188.5 683.7 188.5 683.6 188.5 C 683.3 188.9 682.3 189.1 681.9 189.2 C 682.3 187.8 680.7 188.8 680.2 189.2 C 679.7 189.7 680.4 190.7 680.7 190.6 C 680.3 190.8 680.1 190.7 679.8 190.4 C 679.9 190.5 679.0 190.1 679.1 190.1 C 677.9 190.2 678.7 191.0 678.5 191.3 C 678.3 191.5 678.1 191.7 677.8 192.0 C 677.6 192.2 677.9 192.2 677.9 192.4 C 677.9 193.0 676.7 192.6 676.4 192.7 C 676.6 192.5 676.8 192.3 677.0 192.0 C 676.8 192.4 676.3 192.0 676.1 192.0 C 675.8 192.1 675.4 192.4 675.2 192.6 C 674.7 192.9 674.2 193.3 673.8 193.7 C 674.0 193.7 675.1 193.8 675.1 193.8 C 675.0 193.9 674.4 194.0 674.8 194.3 C 675.5 194.8 674.0 195.2 673.8 195.3 C 673.1 195.6 672.8 196.7 671.7 196.4 C 671.7 196.4 672.6 195.6 672.5 195.5 C 671.9 195.1 671.5 194.9 670.8 195.5 C 670.7 195.6 670.0 196.6 670.0 196.7 C 670.0 196.6 671.8 197.3 670.7 197.4 C 670.5 197.4 670.7 197.0 670.4 197.0 C 670.0 197.0 669.6 197.4 669.3 197.6 C 669.2 197.6 668.6 197.7 668.6 197.8 C 668.6 198.0 668.7 198.3 668.6 198.5 C 668.5 198.7 668.1 198.7 668.0 198.5 C 668.0 198.5 668.0 198.5 668.0 198.5 C 667.9 198.5 667.8 198.4 667.7 198.3 C 667.7 198.4 667.5 198.5 667.4 198.4 C 667.3 198.4 667.5 198.2 667.7 198.2 C 667.7 198.1 667.6 198.1 667.6 198.0 C 667.4 198.2 667.1 198.4 667.1 198.4 C 666.8 199.0 666.9 199.2 665.9 199.1 C 665.2 198.9 664.7 197.1 664.9 195.9 C 664.8 195.7 664.9 195.4 665.0 195.1 Z M 683.3 183.8 C 683.3 183.8 683.3 183.7 683.2 183.7 C 683.2 183.8 683.1 183.9 683.1 184.0 C 683.3 184.2 683.1 183.8 683.3 184.0 C 683.6 184.2 683.6 184.1 683.3 183.8 Z M 683.1 186.4 C 683.3 186.4 683.3 186.3 683.2 186.2 C 683.2 186.3 683.1 186.3 683.1 186.4 Z M 683.6 187.5 C 683.9 187.2 683.2 187.1 682.7 187.5 C 683.2 187.5 683.5 187.5 683.6 187.5 Z M 683.1 188.4 C 683.1 188.3 683.1 188.2 683.1 188.2 C 683.1 188.0 682.8 188.4 682.8 188.2 C 682.8 188.1 683.0 187.8 682.7 187.8 C 682.7 187.8 682.6 187.8 682.5 187.8 C 682.5 187.9 682.5 187.9 682.5 188.0 C 682.4 188.2 682.9 188.5 683.1 188.4 Z M 681.4 183.6 C 681.6 183.7 681.5 183.5 681.4 183.5 C 681.2 183.5 681.2 183.6 681.4 183.6 Z M 680.1 181.6 C 680.2 181.8 680.4 181.9 680.3 181.6 C 680.2 181.4 680.0 181.4 680.1 181.6 Z M 677.2 184.6 C 677.4 184.5 677.3 184.5 677.2 184.5 C 677.0 184.4 677.1 184.6 677.2 184.6 Z M 677.1 186.7 C 677.0 186.9 677.2 187.1 677.3 186.9 C 677.3 186.8 677.2 186.6 677.1 186.7 Z M 677.4 181.9 C 677.2 181.8 677.2 182.0 677.4 182.0 C 677.5 182.0 677.5 181.9 677.4 181.9 Z M 677.8 184.7 C 677.7 184.5 677.6 184.6 677.5 184.6 C 677.4 184.7 677.5 184.9 677.7 185.0 C 677.9 185.1 678.0 185.0 677.8 184.7 Z M 678.0 186.5 C 677.5 186.8 677.6 187.1 678.1 186.6 C 678.7 186.1 678.3 186.4 678.0 186.5 Z M 679.0 180.1 C 679.0 180.2 679.3 180.3 679.3 180.3 C 679.3 180.3 678.7 179.8 679.0 180.1 Z M 677.8 191.4 C 678.0 191.3 678.0 191.0 677.7 191.2 C 677.4 191.3 677.6 191.5 677.8 191.4 Z M 676.7 190.5 C 677.2 190.8 677.6 190.7 677.6 190.7 C 677.5 190.7 677.4 190.3 677.5 190.2 C 677.8 189.9 678.4 190.0 678.6 189.6 C 678.8 189.1 678.0 189.5 677.9 189.6 C 678.0 189.5 678.0 189.4 678.0 189.3 C 677.8 189.2 677.7 189.2 677.6 189.4 C 677.5 189.6 676.3 190.1 676.7 190.5 Z M 676.8 185.4 C 677.0 185.5 677.2 185.3 677.1 185.1 C 676.9 184.9 676.7 184.8 676.6 184.8 C 676.5 184.9 676.6 185.3 676.8 185.4 Z M 676.6 183.8 C 676.8 183.7 676.7 183.7 676.6 183.6 C 676.2 183.5 676.4 183.9 676.6 183.8 Z M 673.6 177.0 C 673.5 177.1 673.8 177.3 673.8 177.2 C 673.9 177.1 673.8 177.0 673.6 177.0 Z M 673.7 179.7 C 673.3 179.6 673.6 180.0 673.7 180.0 C 673.8 180.0 674.0 179.8 673.7 179.7 Z M 675.3 181.3 C 675.1 181.2 675.3 181.5 675.4 181.5 C 675.5 181.4 675.4 181.3 675.3 181.3 Z M 675.5 182.3 C 675.3 182.2 675.3 182.5 675.6 182.5 C 675.7 182.5 675.7 182.4 675.5 182.3 Z M 674.7 191.0 C 674.7 191.0 674.6 190.6 674.4 190.9 C 674.2 191.2 674.2 191.2 674.7 191.0 Z M 675.4 187.9 C 675.7 187.7 675.9 187.4 675.6 186.6 C 675.3 185.7 675.2 186.1 675.0 186.6 C 674.9 187.1 674.5 185.7 674.3 186.7 C 674.2 187.1 675.2 188.1 675.4 187.9 Z M 673.9 182.4 C 674.2 182.9 675.0 182.8 674.6 182.5 C 674.1 182.1 673.7 182.0 673.9 182.4 Z M 673.9 182.0 C 674.0 182.0 674.0 182.0 673.8 181.9 C 673.6 181.8 673.7 182.0 673.9 182.0 Z M 674.3 194.7 C 675.1 194.0 673.8 194.0 673.8 194.0 C 672.6 194.3 673.5 195.5 674.3 194.7 Z M 665.7 176.4 C 665.7 176.4 665.7 176.5 665.7 176.5 C 665.7 176.5 665.7 176.6 665.7 176.6 C 665.8 176.7 666.0 176.4 666.0 176.4 C 665.9 176.3 665.7 176.3 665.7 176.4 Z M 665.4 181.9 C 665.5 181.7 665.4 181.5 665.3 181.4 C 664.8 181.5 664.8 183.1 665.6 182.5 C 665.8 182.4 666.5 181.3 666.1 181.2 C 665.8 181.2 665.4 182.5 665.4 181.9 Z M 666.1 180.2 C 666.1 180.8 666.8 179.6 666.4 179.8 C 666.2 179.9 666.1 180.0 666.1 180.2 Z M 667.6 175.3 C 667.3 174.4 666.0 174.6 666.7 176.0 C 667.3 177.3 667.9 177.4 667.7 176.7 C 667.5 176.0 668.2 176.6 667.6 175.3 Z M 667.6 182.5 C 666.7 182.3 667.0 182.7 667.6 183.0 C 667.8 183.0 668.2 182.6 667.6 182.5 Z M 667.8 184.5 C 667.7 184.7 667.7 184.7 667.9 184.6 C 668.1 184.4 667.9 184.2 667.8 184.5 Z M 669.0 173.9 C 668.8 173.6 668.4 173.3 668.7 173.3 C 668.9 173.3 668.8 173.3 668.6 173.0 C 668.4 172.8 668.4 173.3 668.4 173.5 C 668.5 173.7 669.1 174.2 669.0 173.9 Z M 672.1 181.6 C 672.0 181.5 672.1 181.7 672.2 181.7 C 672.3 181.7 672.3 181.6 672.1 181.6 Z M 673.1 189.1 C 673.1 189.1 673.1 188.9 673.0 189.1 C 672.9 189.3 672.9 189.3 673.1 189.1 Z M 672.8 195.2 C 673.0 195.0 672.5 195.0 672.6 194.7 C 672.6 194.6 672.8 194.7 672.8 194.8 C 672.8 194.7 672.7 194.0 672.4 194.5 C 672.3 194.7 672.4 195.6 672.8 195.2 Z M 671.9 183.6 C 672.2 184.0 672.4 182.7 672.7 182.9 C 672.9 183.1 672.9 183.0 672.6 182.7 C 672.4 182.4 671.6 183.3 671.9 183.6 Z M 671.7 180.4 C 671.7 180.6 672.3 181.2 672.2 180.8 C 672.1 180.5 671.7 180.3 671.9 180.3 C 672.1 180.2 672.0 180.2 671.9 180.0 C 671.7 179.8 671.7 180.2 671.7 180.4 Z M 671.5 175.0 C 671.5 175.2 671.9 175.4 671.8 175.1 C 671.7 174.9 671.4 174.9 671.5 175.0 Z M 671.1 190.0 C 671.2 189.8 671.2 189.7 670.9 189.9 C 670.7 190.1 671.0 190.2 671.1 190.0 Z M 670.6 175.5 C 670.8 175.9 670.6 175.3 670.9 175.5 C 671.1 175.7 671.1 175.6 670.8 175.3 C 670.6 175.1 670.3 175.2 670.6 175.5 Z M 670.3 194.9 C 670.3 194.8 670.2 194.6 670.1 194.7 C 670.0 194.8 670.3 195.0 670.3 194.9 Z M 669.5 192.9 C 669.6 192.9 669.7 192.8 669.8 192.8 C 671.1 191.9 668.7 192.6 669.5 192.9 Z M 669.7 189.8 C 669.8 190.2 670.0 189.7 670.0 189.7 C 669.9 189.6 669.8 189.6 669.7 189.8 Z M 669.7 186.4 C 669.5 186.3 669.6 186.7 669.7 186.6 C 669.9 186.5 669.8 186.5 669.7 186.4 Z M 669.1 197.4 C 669.3 197.3 669.2 197.2 669.1 197.2 C 669.0 197.2 668.9 197.4 669.1 197.4 Z M 668.9 188.9 C 669.0 188.9 669.1 188.9 669.0 188.8 C 669.0 188.6 668.9 188.8 668.9 188.9 Z M 668.9 178.6 C 669.0 178.6 669.1 178.7 669.2 178.8 C 669.3 178.7 669.4 178.1 669.6 178.1 C 669.6 178.1 669.6 178.1 669.7 178.1 C 669.7 178.1 669.7 178.1 669.7 178.1 C 669.8 178.1 669.9 178.2 669.8 178.2 C 669.9 178.3 669.9 178.4 669.9 178.5 C 670.1 178.3 670.2 178.1 670.1 177.9 C 669.9 177.7 669.5 177.7 669.1 177.7 C 669.0 177.8 669.0 178.0 668.9 178.1 C 668.9 178.1 669.0 178.1 669.0 178.1 C 669.2 178.3 669.3 178.4 669.1 178.4 C 669.0 178.4 668.9 178.4 668.9 178.3 C 668.9 178.4 668.9 178.5 668.9 178.6 Z M 668.5 187.6 C 668.6 187.9 668.7 187.7 668.8 187.3 C 668.8 187.1 668.3 187.3 668.5 187.6 Z M 668.7 197.0 C 668.7 196.9 668.7 196.8 668.6 196.7 C 668.6 196.8 668.6 196.8 668.6 196.9 C 668.5 197.0 668.5 197.2 668.4 197.4 C 668.7 197.4 668.8 197.3 668.7 197.0 Z M 667.8 194.0 C 667.8 194.1 667.7 195.3 668.0 195.1 C 668.5 194.8 668.9 195.3 668.7 194.4 C 668.6 194.0 668.0 193.6 667.9 193.2 C 667.4 191.0 667.3 193.8 667.2 194.3 C 667.2 194.5 667.7 193.9 667.8 194.0 Z M 667.1 191.1 C 666.9 191.0 666.7 191.4 666.7 191.5 C 666.8 192.0 667.4 191.3 667.1 191.1 Z M 666.8 197.2 C 666.8 197.3 666.8 197.3 666.9 197.2 C 666.9 197.2 666.8 197.2 666.8 197.1 C 666.8 197.2 666.8 197.2 666.8 197.2 Z M 666.5 198.8 C 667.2 198.2 666.0 198.3 665.7 198.4 C 665.3 198.6 666.2 199.0 666.5 198.8 Z M 666.1 192.8 C 666.1 192.3 664.8 191.8 664.9 192.6 C 664.9 193.3 666.0 193.7 666.1 192.8 Z M 664.5 188.2 C 664.6 188.4 664.4 188.8 664.2 188.6 C 664.1 188.4 664.4 188.1 664.5 188.2 Z M 663.8 195.0 C 663.8 194.9 663.9 195.0 663.9 195.0 C 663.7 195.1 663.7 195.1 663.8 195.0 Z M 664.7 194.4 C 664.6 194.6 664.5 194.8 664.5 195.0 C 664.4 195.1 664.3 194.7 664.3 194.7 C 664.3 194.5 664.7 194.4 664.7 194.4 Z M 664.8 190.7 C 664.7 190.9 664.6 190.6 664.7 190.5 C 664.7 190.4 664.9 190.6 664.8 190.7 Z M 664.5 191.6 C 664.5 191.5 664.7 191.6 664.7 191.7 C 664.6 191.9 664.5 191.7 664.5 191.6 Z M 665.2 190.1 C 665.3 190.5 665.4 191.0 665.1 191.0 C 664.9 190.9 665.0 189.3 665.2 190.1 Z M 665.2 190.1 " fill="#EB5C56"></path><path d="M 397.2 184.5 C 397.0 184.7 396.2 184.4 396.0 184.6 M 397.2 184.5 C 396.5 183.4 395.2 183.3 393.4 183.1 C 391.5 183.1 393.5 184.1 393.3 184.6 C 390.8 185.0 390.8 184.2 391.1 183.0 C 390.2 183.8 387.3 182.4 387.9 183.9 C 391.9 183.9 385.1 184.3 388.5 185.1 C 388.8 185.3 387.9 185.7 387.5 185.7 C 388.6 186.4 386.7 187.1 388.5 187.5 C 388.7 188.4 388.4 188.0 389.6 188.8 C 390.0 188.9 389.8 188.5 389.8 188.3 C 390.0 187.2 391.2 188.9 392.1 188.3 C 392.9 189.7 393.8 188.0 393.1 187.4 C 393.9 187.6 394.9 189.1 395.8 188.0 C 396.3 188.7 398.6 188.3 397.2 187.4 C 396.2 186.8 397.3 186.4 397.5 186.0 C 397.1 185.7 395.7 186.2 395.5 185.9 C 395.9 185.7 397.7 185.2 395.8 185.2 C 396.4 184.7 395.5 184.4 397.2 184.5 C 397.2 184.5 397.2 184.5 397.2 184.5 Z M 390.4 183.7 C 390.4 183.3 391.1 183.7 390.4 183.7 C 390.4 183.7 390.4 183.7 390.4 183.7 Z M 395.1 188.8 C 395.1 188.4 395.7 188.8 395.1 188.8 C 395.1 188.8 395.1 188.8 395.1 188.8 Z M 390.1 188.4 C 390.1 188.0 390.8 188.4 390.1 188.4 C 390.1 188.4 390.1 188.4 390.1 188.4 Z M 392.2 183.9 C 393.3 184.2 391.3 184.5 391.2 184.1 C 391.4 184.1 391.9 183.6 392.2 183.9 C 392.2 183.9 392.2 183.9 392.2 183.9 Z M 392.4 186.1 C 392.4 186.0 392.9 185.9 392.8 186.3 C 392.6 186.4 392.3 186.2 392.4 186.1 C 392.4 186.1 392.4 186.1 392.4 186.1 Z M 387.1 184.6 C 387.1 184.4 387.6 184.4 387.5 184.8 C 387.3 184.9 387.0 184.7 387.1 184.6 C 387.1 184.6 387.1 184.6 387.1 184.6 Z M 393.4 184.9 C 393.7 185.0 393.8 185.3 393.5 185.4 C 393.3 185.2 392.6 185.1 393.4 184.9 C 393.4 184.9 393.4 184.9 393.4 184.9 Z M 395.1 183.7 C 396.0 183.8 394.2 184.4 394.2 184.2 C 393.9 184.0 394.6 183.3 395.1 183.7 C 395.1 183.7 395.1 183.7 395.1 183.7 Z M 393.9 185.4 C 394.7 185.6 393.6 185.7 393.9 185.4 C 393.9 185.4 393.9 185.4 393.9 185.4 Z M 387.8 187.4 C 388.5 187.6 387.5 187.6 387.8 187.4 C 387.8 187.4 387.8 187.4 387.8 187.4 Z M 391.7 188.6 C 392.4 188.7 391.4 188.8 391.7 188.6 C 391.7 188.6 391.7 188.6 391.7 188.6 Z M 390.2 184.7 C 388.9 184.6 390.1 183.7 390.2 184.7 C 390.2 184.7 390.2 184.7 390.2 184.7 Z M 397.2 183.6 C 395.9 183.5 397.0 182.6 397.2 183.6 C 397.2 183.6 397.2 183.6 397.2 183.6 Z M 438.8 183.9 C 440.0 183.7 435.4 182.5 437.1 183.9 C 437.6 185.2 434.5 185.1 435.3 183.9 C 434.4 183.8 434.4 183.7 433.9 184.3 C 433.7 183.4 431.5 182.9 430.8 183.4 C 430.3 184.2 432.2 183.5 431.0 184.3 C 428.3 184.6 431.2 185.2 430.1 186.2 C 430.0 186.2 430.0 185.7 429.7 186.0 C 429.6 186.9 431.2 187.6 430.5 188.3 C 430.9 188.2 432.9 189.2 432.0 188.4 C 431.8 187.5 434.2 189.5 434.0 188.0 C 434.6 188.7 435.3 187.7 435.9 188.6 C 436.4 188.7 436.4 187.9 436.4 187.8 C 436.3 187.1 436.9 189.3 437.7 188.1 C 437.8 188.4 440.0 188.3 438.3 187.8 C 438.8 187.9 441.3 188.2 440.0 186.9 C 438.3 186.3 441.8 185.5 439.7 185.4 C 438.2 185.3 437.9 185.6 439.0 184.9 C 439.4 184.9 441.2 184.8 439.7 184.2 C 439.3 184.4 438.6 184.3 438.8 183.9 C 438.8 183.9 438.8 183.9 438.8 183.9 Z M 439.1 185.9 C 438.2 185.9 439.0 185.3 439.1 185.9 C 439.1 185.9 439.1 185.9 439.1 185.9 Z M 435.8 188.8 C 434.9 188.9 435.7 188.3 435.8 188.8 C 435.8 188.8 435.8 188.8 435.8 188.8 Z M 435.9 183.6 C 435.5 184.0 435.3 182.6 435.9 183.6 C 435.9 183.6 435.9 183.6 435.9 183.6 Z M 437.3 187.7 C 437.3 187.7 437.5 187.6 437.7 187.5 C 437.6 187.6 437.4 187.7 437.3 187.7 C 437.3 187.7 437.3 187.7 437.3 187.7 Z M 434.4 183.6 C 433.0 184.2 434.1 182.5 434.4 183.6 C 434.4 183.6 434.4 183.6 434.4 183.6 Z M 431.6 184.9 C 431.5 186.2 430.2 184.6 431.6 184.9 C 431.6 184.9 431.6 184.9 431.6 184.9 Z M 433.6 187.9 C 433.8 187.6 433.8 188.1 433.6 187.9 C 433.6 187.9 433.6 187.9 433.6 187.9 Z M 439.5 188.1 C 439.7 187.8 439.7 188.3 439.5 188.1 C 439.5 188.1 439.5 188.1 439.5 188.1 Z M 431.9 187.8 C 432.0 187.3 432.4 188.0 431.9 187.8 C 431.9 187.8 431.9 187.8 431.9 187.8 Z M 435.7 184.1 C 436.9 183.0 437.2 185.7 435.7 184.1 C 435.7 184.1 435.7 184.1 435.7 184.1 Z M 437.9 184.0 C 438.8 183.8 437.8 184.7 437.4 184.5 C 437.4 184.4 437.8 184.1 437.9 184.0 C 437.9 184.0 437.9 184.0 437.9 184.0 Z M 434.4 184.2 C 435.2 183.7 435.2 184.5 434.4 184.2 C 434.4 184.2 434.4 184.2 434.4 184.2 Z M 436.5 183.6 C 437.0 183.8 436.2 183.8 436.5 183.6 C 436.5 183.6 436.5 183.6 436.5 183.6 Z M 432.7 183.1 C 433.1 183.2 432.3 183.3 432.7 183.1 C 432.7 183.1 432.7 183.1 432.7 183.1 Z M 439.0 183.5 C 439.4 183.6 438.6 183.6 439.0 183.5 C 439.0 183.5 439.0 183.5 439.0 183.5 Z M 433.0 183.8 C 432.9 184.3 434.1 185.4 431.9 184.5 C 431.6 184.1 432.5 183.4 433.0 183.8 C 433.0 183.8 433.0 183.8 433.0 183.8 Z M 400.4 184.5 C 395.8 183.0 396.9 185.7 396.7 186.2 C 396.0 186.9 396.7 187.4 397.6 187.9 C 398.5 189.6 399.0 186.1 399.7 187.8 C 400.9 190.1 401.1 185.8 401.6 188.2 C 401.4 188.9 403.2 188.3 403.1 188.2 C 404.0 189.3 405.2 187.3 405.2 187.1 C 405.8 187.4 405.9 189.5 407.8 187.9 C 409.2 187.4 409.8 189.5 409.4 188.0 C 410.5 189.7 410.1 187.6 411.2 188.1 C 411.9 189.0 411.2 186.7 412.5 188.4 C 413.1 187.1 411.9 189.4 415.5 188.4 C 413.8 188.3 417.1 187.3 416.4 188.2 C 415.2 189.2 418.1 187.8 419.7 188.4 C 420.1 187.9 422.1 186.7 421.7 188.0 C 423.4 189.6 423.4 187.1 424.1 188.4 C 424.7 188.9 424.9 187.7 425.3 187.8 C 425.9 188.8 426.4 188.2 428.5 188.4 C 433.0 188.9 429.1 185.9 430.9 185.6 C 431.2 185.1 428.6 181.9 429.6 184.3 C 429.3 183.7 425.6 186.2 427.5 183.5 C 426.0 184.6 427.8 182.4 424.9 183.7 C 428.8 185.6 420.5 184.5 424.2 183.5 C 423.6 183.0 422.1 183.1 423.2 183.6 C 423.6 185.2 420.5 182.8 422.1 184.9 C 419.7 184.3 420.3 186.1 419.7 184.8 C 419.1 182.6 419.8 185.4 418.6 184.8 C 415.8 184.7 417.9 182.2 416.2 183.9 C 413.5 182.8 415.6 184.9 414.7 185.1 C 414.4 186.7 411.9 183.9 414.0 183.7 C 412.9 184.6 413.8 183.0 412.5 184.0 C 413.4 185.4 410.9 182.5 411.3 183.6 C 410.1 184.0 410.7 184.8 410.4 184.9 C 408.7 184.9 409.2 183.5 408.9 184.5 C 408.5 185.1 407.7 183.2 407.5 183.7 C 409.2 183.8 406.1 185.2 405.9 184.4 C 406.9 184.3 405.3 182.6 404.7 183.7 C 405.5 186.8 403.2 182.9 402.4 184.0 C 403.1 185.7 398.6 184.2 400.3 183.4 C 400.2 183.5 400.4 184.5 400.4 184.5 M 407.0 184.0 C 408.4 184.1 405.4 184.3 407.0 184.0 M 406.9 183.5 C 407.5 184.1 405.6 183.1 407.0 183.3 C 407.0 183.3 406.8 183.5 406.9 183.5 M 412.8 183.4 C 412.6 183.9 412.0 183.2 412.8 183.4 M 413.9 184.5 C 414.8 185.0 412.6 184.6 413.9 184.5 M 426.9 184.2 C 425.6 186.7 425.5 182.7 426.9 184.2 M 418.3 183.6 C 416.7 184.0 418.8 182.6 418.3 183.6 M 417.8 184.3 C 417.1 184.7 417.7 183.7 417.8 184.3 M 424.4 184.2 C 424.5 184.2 424.5 184.2 424.4 184.2 C 424.4 184.2 424.4 184.2 424.4 184.2 Z M 428.2 184.2 C 428.3 184.2 428.3 184.2 428.2 184.2 C 428.2 184.2 428.2 184.2 428.2 184.2 Z M 420.7 184.4 C 419.5 183.8 422.6 184.2 420.7 184.4 C 420.7 184.4 420.7 184.4 420.7 184.4 Z M 426.4 188.1 C 426.3 188.2 426.3 188.2 426.4 188.1 C 426.4 188.1 426.4 188.1 426.4 188.1 Z M 405.9 185.1 C 405.8 185.2 405.8 185.2 405.9 185.1 C 405.9 185.1 405.9 185.1 405.9 185.1 Z M 401.5 184.2 C 401.5 184.5 400.7 183.9 401.5 184.2 C 401.5 184.2 401.5 184.2 401.5 184.2 Z M 397.9 187.1 C 397.9 187.1 397.9 187.1 397.9 187.1 C 397.9 187.1 397.9 187.1 397.9 187.1 Z M 404.4 186.5 C 404.3 186.5 404.3 186.5 404.4 186.5 C 404.4 186.5 404.4 186.5 404.4 186.5 Z M 405.0 184.6 C 404.3 183.2 406.7 185.0 405.0 184.6 C 405.0 184.6 405.0 184.6 405.0 184.6 Z M 419.2 188.0 C 419.2 187.4 420.2 188.2 419.2 188.0 C 419.2 188.0 419.2 188.0 419.2 188.0 Z M 414.1 185.1 C 414.3 184.8 414.7 185.2 414.1 185.1 C 414.1 185.1 414.1 185.1 414.1 185.1 Z M 411.7 183.2 C 411.9 182.8 412.3 183.3 411.7 183.2 C 411.7 183.2 411.7 183.2 411.7 183.2 Z M 401.6 183.8 C 401.7 183.7 401.7 183.7 401.6 183.8 C 401.6 183.8 401.6 183.8 401.6 183.8 Z M 403.1 184.8 C 402.0 183.5 404.8 185.6 403.1 184.8 C 403.1 184.8 403.1 184.8 403.1 184.8 Z M 401.3 185.2 C 401.8 185.7 399.9 185.0 401.3 185.2 M 402.3 187.3 C 403.7 186.7 401.1 189.6 402.3 187.3 C 402.3 187.3 402.3 187.3 402.3 187.3 Z M 409.1 187.8 C 409.2 187.8 409.2 187.8 409.1 187.8 C 409.1 187.8 409.1 187.8 409.1 187.8 Z M 408.4 183.9 C 409.5 184.0 407.6 184.2 408.4 183.9 C 408.4 183.9 408.4 183.9 408.4 183.9 Z M 398.2 183.6 C 399.4 183.7 397.5 183.9 398.2 183.6 C 398.2 183.6 398.2 183.6 398.2 183.6 Z M 413.0 186.5 C 414.9 186.3 411.8 187.2 413.0 186.5 C 413.0 186.5 413.0 186.5 413.0 186.5 Z M 420.0 185.0 C 420.1 185.0 420.1 185.0 420.0 185.0 C 420.0 185.0 420.0 185.0 420.0 185.0 Z M 421.3 184.4 C 421.4 184.4 421.4 184.4 421.3 184.4 C 421.3 184.4 421.3 184.4 421.3 184.4 Z M 426.8 185.8 C 426.8 185.8 426.8 185.8 426.8 185.8 C 426.8 185.8 426.8 185.8 426.8 185.8 Z M 422.5 183.8 C 422.5 183.8 422.5 183.8 422.5 183.8 C 422.5 183.8 422.5 183.8 422.5 183.8 Z M 426.3 184.1 C 426.4 184.2 426.4 184.2 426.3 184.1 C 426.3 184.1 426.3 184.1 426.3 184.1 Z M 425.7 183.0 C 425.8 183.0 425.8 183.0 425.7 183.0 C 425.7 183.0 425.7 183.0 425.7 183.0 Z M 417.4 188.8 C 417.4 188.8 417.4 188.8 417.4 188.8 C 417.4 188.8 417.4 188.8 417.4 188.8 Z M 403.6 183.3 C 403.7 183.4 403.7 183.4 403.6 183.3 C 403.6 183.3 403.6 183.3 403.6 183.3 Z M 426.0 184.6 C 426.0 184.7 426.0 184.7 426.0 184.6 C 426.0 184.6 426.0 184.6 426.0 184.6 Z M 416.8 185.7 C 416.8 186.8 416.0 184.2 417.0 185.6 C 417.0 185.7 416.7 185.5 416.8 185.7 M 418.0 187.6 C 417.9 187.6 417.9 187.6 418.0 187.6 C 418.0 187.6 418.0 187.6 418.0 187.6 Z M 413.8 188.3 C 413.8 188.3 413.8 188.3 413.8 188.3 C 413.8 188.3 413.8 188.3 413.8 188.3 Z M 421.8 183.5 C 421.7 182.9 422.9 184.0 421.7 183.6 M 426.8 187.7 C 426.6 187.1 427.8 188.2 426.6 187.8 M 396.9 184.0 C 396.7 184.5 396.1 183.8 396.9 184.0 M 412.9 188.8 C 412.7 189.3 412.1 188.6 412.9 188.8 M 414.8 187.4 C 414.7 186.8 415.9 187.9 414.7 187.4 M 423.9 187.7 C 424.0 187.7 424.0 187.7 423.9 187.7 C 423.9 187.7 423.9 187.7 423.9 187.7 Z M 410.1 184.0 C 410.2 184.1 410.2 184.1 410.1 184.0 C 410.1 184.0 410.1 184.0 410.1 184.0 Z M 415.2 185.4 C 414.5 184.5 416.1 185.9 415.2 185.4 M 408.7 185.5 C 407.7 184.5 410.3 185.9 408.7 185.5 M 429.0 188.0 C 427.8 186.7 429.8 188.7 429.0 188.0 M 423.4 184.8 C 422.2 183.5 424.2 185.5 423.4 184.8 M 411.2 184.6 C 411.1 183.9 412.3 185.0 411.2 184.6 M 399.5 183.9 C 398.5 183.8 401.0 183.4 399.5 183.9 M 421.2 187.7 C 421.2 187.8 421.2 187.8 421.2 187.7 C 421.2 187.7 421.2 187.7 421.2 187.7 Z M 403.0 188.9 C 403.1 188.9 403.1 188.9 403.0 188.9 C 403.0 188.9 403.0 188.9 403.0 188.9 Z M 430.4 183.8 C 430.5 183.8 430.5 183.8 430.4 183.8 C 430.4 183.8 430.4 183.8 430.4 183.8 Z M 422.7 185.4 C 422.7 185.4 422.7 185.4 422.7 185.4 C 422.7 185.4 422.7 185.4 422.7 185.4 Z M 428.2 183.6 C 428.3 183.7 428.3 183.7 428.2 183.6 C 428.2 183.6 428.2 183.6 428.2 183.6 Z M 419.2 186.4 C 419.2 186.4 419.2 186.4 419.2 186.4 C 419.2 186.4 419.2 186.4 419.2 186.4 Z M 418.4 183.1 C 418.5 183.1 418.5 183.1 418.4 183.1 C 418.4 183.1 418.4 183.1 418.4 183.1 Z M 414.6 184.5 C 414.6 184.5 414.6 184.5 414.6 184.5 C 414.6 184.5 414.6 184.5 414.6 184.5 Z M 420.2 183.3 C 422.5 183.1 419.0 184.4 420.2 183.3 C 420.2 183.3 420.2 183.3 420.2 183.3 Z M 416.2 186.6 C 416.2 186.7 416.2 186.7 416.2 186.6 C 416.2 186.6 416.2 186.6 416.2 186.6 Z M 415.9 184.3 C 417.3 183.3 416.7 185.9 415.9 184.3 M 409.5 183.5 C 409.9 183.0 409.7 184.3 409.5 183.5 M 406.9 187.8 C 406.9 187.9 406.9 187.9 406.9 187.8 C 406.9 187.8 406.9 187.8 406.9 187.8 Z M 407.6 187.5 C 407.7 187.5 407.7 187.5 407.6 187.5 C 407.6 187.5 407.6 187.5 407.6 187.5 Z M 407.9 183.3 C 407.9 183.3 407.9 183.3 407.9 183.3 C 407.9 183.3 407.9 183.3 407.9 183.3 Z M 407.7 188.7 C 407.8 188.8 407.8 188.8 407.7 188.7 C 407.7 188.7 407.7 188.7 407.7 188.7 Z M 417.6 183.2 C 417.6 183.2 417.6 183.2 417.6 183.2 C 417.6 183.2 417.6 183.2 417.6 183.2 Z M 429.4 183.1 C 429.4 183.1 429.4 183.1 429.4 183.1 C 429.4 183.1 429.4 183.1 429.4 183.1 Z M 399.9 187.4 C 399.9 187.4 399.9 187.4 399.9 187.4 C 399.9 187.4 399.9 187.4 399.9 187.4 Z M 418.8 184.5 C 418.8 184.5 418.8 184.5 418.8 184.5 C 418.8 184.5 418.8 184.5 418.8 184.5 Z M 405.2 187.7 C 405.3 187.7 405.3 187.7 405.2 187.7 C 405.2 187.7 405.2 187.7 405.2 187.7 Z M 418.0 184.2 C 418.1 184.2 418.1 184.2 418.0 184.2 C 418.0 184.2 418.0 184.2 418.0 184.2 Z M 420.8 188.0 C 420.8 188.0 420.8 188.0 420.8 188.0 C 420.8 188.0 420.8 188.0 420.8 188.0 Z M 423.3 188.8 C 423.4 188.8 423.4 188.8 423.3 188.8 C 423.3 188.8 423.3 188.8 423.3 188.8 Z M 420.6 185.7 C 420.7 185.7 420.7 185.7 420.6 185.7 C 420.6 185.7 420.6 185.7 420.6 185.7 Z M 404.4 186.2 C 399.8 185.1 408.1 185.7 404.4 186.2 M 421.4 186.0 C 418.2 185.7 424.0 184.7 421.4 186.0 C 421.8 185.7 421.5 186.0 421.4 186.0 " fill="#EB5C56"></path><path d="M 388.1 172.7 C 388.3 172.2 389.8 171.7 388.7 172.7 C 388.7 172.7 388.1 172.9 388.1 172.7 Z M 385.7 174.1 C 385.9 174.0 386.1 174.0 386.3 174.0 C 386.8 174.3 385.1 174.5 385.7 174.1 Z M 389.5 172.5 C 389.6 172.4 390.3 172.0 390.3 172.2 C 390.2 172.4 389.5 172.6 389.5 172.5 Z M 384.1 176.3 C 384.0 176.1 384.8 175.7 385.0 175.7 C 385.6 175.7 384.3 176.8 384.1 176.3 Z M 390.7 180.4 C 390.7 180.5 390.7 180.5 390.7 180.6 C 390.7 180.5 390.7 180.5 390.7 180.4 Z M 372.7 182.5 C 372.8 182.4 373.2 182.4 373.2 182.6 C 373.3 182.9 372.2 182.8 372.7 182.5 Z M 391.1 196.2 C 391.1 196.2 391.3 195.8 391.5 196.0 C 391.6 196.1 391.3 196.3 391.1 196.2 Z M 391.4 196.2 C 391.6 196.1 391.7 196.4 391.6 196.4 C 391.3 196.3 391.2 196.2 391.4 196.2 Z M 378.6 192.8 C 378.5 192.8 378.5 192.8 378.6 192.7 C 378.7 192.7 378.8 192.9 378.6 192.8 Z M 379.1 192.8 C 379.4 192.6 379.4 193.1 379.2 193.0 C 379.0 192.9 378.9 192.9 379.1 192.8 Z M 380.9 195.3 C 380.8 195.2 380.7 195.2 380.8 195.2 C 380.9 195.1 381.1 195.3 380.9 195.3 Z M 391.8 189.7 C 391.9 189.8 391.8 190.3 391.6 190.2 C 391.3 190.2 391.7 189.5 391.8 189.7 Z M 391.9 190.3 C 392.1 190.3 392.2 190.6 392.0 190.5 C 391.9 190.5 391.8 190.4 391.9 190.3 Z M 391.6 188.3 C 391.3 188.3 391.3 187.8 391.3 187.7 C 391.4 187.5 391.5 187.3 391.6 187.1 C 391.6 187.0 391.9 188.3 391.6 188.3 Z M 391.3 184.1 C 391.4 184.1 391.5 184.2 391.4 184.3 C 391.3 184.5 391.2 184.1 391.3 184.1 Z M 391.5 186.5 C 391.5 186.5 391.6 186.5 391.5 186.7 C 391.4 186.9 391.3 186.5 391.5 186.5 Z M 379.3 178.5 C 379.2 178.4 379.8 178.2 379.9 178.2 C 380.0 178.2 379.7 178.3 379.9 178.3 C 380.1 178.3 380.0 178.9 379.3 178.5 Z M 384.4 175.0 C 384.6 174.9 384.7 175.0 384.7 175.1 C 384.7 175.2 384.1 175.3 384.4 175.0 Z M 380.6 178.8 C 380.5 178.7 380.7 178.6 380.7 178.7 C 380.7 178.7 380.6 178.8 380.6 178.8 Z M 380.2 179.1 C 380.3 179.0 380.7 179.0 380.7 179.2 C 380.8 179.5 379.8 179.5 380.2 179.1 Z M 378.5 178.7 C 378.6 178.6 378.6 178.6 378.6 178.8 C 378.5 178.9 378.5 178.7 378.5 178.7 Z M 381.4 176.6 C 381.6 176.5 381.6 176.5 381.5 176.6 C 381.4 176.8 381.4 176.6 381.4 176.6 Z M 377.2 180.0 C 377.2 180.0 377.5 179.5 377.8 179.8 C 378.2 180.2 377.3 180.0 377.2 180.0 Z M 375.4 181.7 C 375.5 181.6 375.5 181.8 375.4 181.9 C 375.2 181.9 375.2 181.8 375.4 181.7 Z M 375.0 182.9 C 374.7 183.0 374.4 182.9 374.8 182.7 C 375.2 182.5 375.3 182.9 375.0 182.9 Z M 375.3 182.5 C 375.4 182.6 375.2 182.6 375.2 182.6 C 375.1 182.5 375.3 182.4 375.3 182.5 Z M 376.8 180.9 C 376.9 180.6 377.3 180.7 377.0 181.0 C 376.8 181.2 376.7 181.1 376.8 180.9 Z M 391.8 178.2 C 391.7 178.1 392.0 178.1 392.1 178.2 C 392.2 178.3 391.8 178.4 391.8 178.2 Z M 390.8 187.3 C 391.0 187.2 391.0 187.3 390.9 187.5 C 390.8 187.8 390.7 187.4 390.8 187.3 Z M 390.3 193.1 C 390.5 193.0 390.5 193.1 390.4 193.3 C 390.4 193.5 390.2 193.2 390.3 193.1 Z M 390.8 185.0 C 390.9 184.9 391.4 185.5 391.0 185.9 C 390.5 186.2 390.5 185.2 390.8 185.0 Z M 386.2 179.3 C 386.2 179.2 386.3 179.2 386.3 179.2 C 386.3 179.5 386.3 179.5 386.2 179.3 Z M 390.1 186.3 C 390.1 186.2 390.3 186.2 390.4 186.3 C 390.5 186.4 390.2 186.5 390.1 186.3 Z M 390.7 192.1 C 390.8 191.8 391.2 192.0 391.3 192.1 C 391.7 192.6 391.2 192.9 391.0 193.3 C 390.8 193.5 390.6 192.2 390.7 192.1 Z M 390.9 176.8 C 390.8 177.0 390.8 177.1 390.8 177.2 C 390.9 177.2 390.9 177.3 390.8 177.4 C 390.8 178.0 391.4 178.4 391.5 178.7 C 391.8 179.6 390.7 179.9 390.7 180.4 C 390.7 180.3 390.7 180.1 390.6 180.1 C 390.2 179.8 390.4 181.9 390.4 182.0 C 390.7 183.7 391.0 181.6 391.5 181.6 C 391.8 181.6 391.1 182.8 391.1 182.9 C 390.9 183.4 391.4 183.5 391.2 184.0 C 391.1 184.2 389.8 184.8 390.0 185.1 C 390.1 185.2 390.0 185.8 390.0 185.9 C 390.0 186.3 390.0 186.8 390.5 186.5 C 390.8 186.3 391.2 186.2 390.9 186.7 C 390.6 186.9 389.8 189.0 390.8 188.9 C 390.9 188.9 391.2 188.4 391.1 188.4 C 391.4 189.0 391.0 190.7 391.4 191.1 C 392.3 192.0 390.9 190.8 390.7 191.3 C 390.2 192.1 389.9 192.5 390.1 193.5 C 390.1 193.7 390.2 194.6 390.7 194.2 C 391.0 193.9 391.3 194.1 391.4 193.5 C 391.9 194.2 390.9 194.6 391.1 194.7 C 391.4 194.9 391.6 194.5 391.5 195.0 C 391.4 195.6 391.6 195.3 391.1 195.4 C 390.9 195.5 390.8 196.0 390.8 196.0 C 390.8 196.0 390.7 196.0 390.7 196.0 C 390.7 196.4 391.7 197.2 391.5 197.3 C 391.3 197.4 390.7 197.1 390.5 197.2 C 390.5 197.2 390.4 197.2 390.4 197.3 C 390.5 197.5 390.9 197.9 390.8 198.0 C 390.7 198.1 389.8 197.7 390.1 198.0 C 390.3 198.2 390.0 199.2 389.8 199.3 C 389.5 199.3 388.3 199.6 388.3 199.8 C 388.2 200.0 387.7 199.6 387.5 199.5 C 387.3 199.5 387.2 199.0 387.1 198.9 C 387.1 198.8 386.6 198.6 386.6 198.6 C 386.6 198.6 386.4 198.6 386.1 198.4 C 385.7 198.3 385.6 197.9 385.2 197.5 C 384.9 197.1 384.6 197.3 384.1 197.1 C 383.7 196.9 383.8 196.1 383.5 195.8 C 383.2 195.5 382.9 196.0 382.4 195.8 C 382.0 195.6 381.8 195.3 382.0 195.3 C 382.2 195.3 382.1 195.1 382.0 195.1 C 381.9 195.0 381.5 194.5 381.2 194.5 C 381.0 194.5 382.0 195.7 380.4 194.7 C 379.7 194.2 379.4 193.3 379.6 193.4 C 380.2 193.7 379.5 192.2 379.3 192.4 C 379.2 192.7 377.8 191.8 377.9 192.4 C 377.9 192.6 376.4 192.0 376.3 191.8 C 376.2 191.6 375.5 191.3 375.5 190.8 C 375.6 190.5 374.5 190.6 374.3 190.5 C 374.1 190.4 373.1 189.7 372.9 189.5 C 372.7 189.2 373.3 189.5 373.5 189.7 C 373.8 189.8 374.0 190.2 374.2 190.3 C 374.4 190.4 374.1 189.9 373.8 189.7 C 373.6 189.5 373.7 189.3 373.5 189.1 C 373.3 189.0 373.2 188.9 373.0 188.7 C 372.9 188.7 372.8 188.7 372.7 188.8 C 372.6 188.9 372.7 189.1 372.7 189.1 C 372.6 189.2 372.3 189.2 372.0 189.0 C 371.7 188.8 371.4 188.6 371.1 188.2 C 370.7 187.8 370.5 187.9 370.2 187.7 C 369.9 187.6 369.6 187.4 369.7 187.3 C 369.7 187.2 370.1 187.3 370.2 187.2 C 370.3 187.2 370.0 186.7 369.9 186.6 C 369.1 186.0 370.2 185.7 369.4 185.1 C 369.0 184.8 369.6 184.8 370.1 184.7 C 370.0 184.6 370.0 184.6 370.3 184.3 C 370.3 184.1 370.8 184.0 371.1 183.8 C 371.2 183.6 372.1 182.9 371.7 183.5 C 371.7 183.6 371.6 183.6 371.6 183.6 C 371.6 183.6 371.6 183.6 371.6 183.7 C 371.6 183.7 371.6 184.2 371.6 184.2 C 371.6 184.2 371.6 183.7 371.6 183.7 C 371.8 183.8 372.0 183.8 372.2 183.9 C 372.2 183.8 372.2 183.8 372.3 183.7 C 372.3 183.7 372.3 183.6 372.3 183.6 C 372.3 183.6 372.3 183.6 372.3 183.6 C 372.2 183.5 372.2 183.4 372.4 183.4 C 372.7 183.0 373.7 182.8 374.1 182.7 C 373.6 184.1 375.2 183.1 375.7 182.7 C 376.2 182.2 375.5 181.2 375.2 181.3 C 375.6 181.1 375.8 181.2 376.1 181.5 C 376.1 181.4 376.9 181.8 376.9 181.8 C 378.0 181.7 377.2 180.9 377.4 180.6 C 377.6 180.4 377.9 180.2 378.1 180.0 C 378.3 179.7 378.0 179.7 378.0 179.5 C 378.1 178.9 379.2 179.3 379.5 179.2 C 379.3 179.4 379.1 179.7 379.0 179.9 C 379.2 179.5 379.7 179.9 379.8 179.9 C 380.2 179.8 380.5 179.5 380.8 179.4 C 381.3 179.0 381.7 178.6 382.2 178.2 C 382.0 178.2 380.9 178.1 380.8 178.2 C 381.0 178.0 381.5 177.9 381.1 177.6 C 380.4 177.2 381.9 176.7 382.1 176.6 C 382.8 176.3 383.2 175.2 384.3 175.5 C 384.3 175.5 383.4 176.3 383.5 176.4 C 384.0 176.8 384.5 177.0 385.1 176.4 C 385.2 176.3 385.9 175.3 385.9 175.3 C 385.9 175.3 384.1 174.6 385.2 174.5 C 385.5 174.5 385.2 174.9 385.5 174.9 C 385.9 174.9 386.3 174.5 386.6 174.3 C 386.7 174.3 387.3 174.2 387.3 174.1 C 387.4 173.9 387.2 173.6 387.3 173.4 C 387.5 173.2 387.8 173.2 387.9 173.4 C 388.0 173.4 388.0 173.4 388.0 173.5 C 388.0 173.4 388.1 173.5 388.2 173.6 C 388.2 173.5 388.4 173.4 388.6 173.5 C 388.7 173.5 388.4 173.7 388.2 173.7 C 388.3 173.8 388.3 173.8 388.3 173.9 C 388.6 173.7 388.8 173.5 388.8 173.5 C 389.1 172.9 389.0 172.7 390.0 172.8 C 390.8 173.0 391.3 174.8 391.0 176.0 C 391.1 176.2 391.1 176.5 390.9 176.8 Z M 372.6 188.1 C 372.7 188.2 372.7 188.2 372.7 188.2 C 372.7 188.1 372.8 188.0 372.9 187.9 C 372.7 187.7 372.8 188.1 372.6 187.9 C 372.4 187.7 372.3 187.8 372.6 188.1 Z M 372.8 185.5 C 372.6 185.5 372.6 185.6 372.7 185.7 C 372.8 185.6 372.8 185.6 372.8 185.5 Z M 372.3 184.5 C 372.0 184.7 372.8 184.8 373.2 184.4 C 372.7 184.4 372.4 184.4 372.3 184.5 Z M 372.8 183.5 C 372.8 183.6 372.8 183.7 372.8 183.7 C 372.9 183.9 373.1 183.5 373.2 183.7 C 373.2 183.8 372.9 184.2 373.2 184.1 C 373.3 184.1 373.3 184.1 373.4 184.1 C 373.4 184.0 373.5 184.0 373.5 183.9 C 373.5 183.7 373.0 183.5 372.8 183.5 Z M 374.5 188.3 C 374.4 188.2 374.4 188.4 374.6 188.4 C 374.7 188.4 374.7 188.3 374.5 188.3 Z M 375.9 190.3 C 375.8 190.1 375.6 190.0 375.6 190.3 C 375.7 190.5 376.0 190.5 375.9 190.3 Z M 378.7 187.3 C 378.6 187.4 378.7 187.4 378.8 187.4 C 378.9 187.5 378.8 187.3 378.7 187.3 Z M 378.8 185.2 C 378.9 185.0 378.7 184.8 378.7 185.0 C 378.6 185.1 378.8 185.3 378.8 185.2 Z M 378.6 190.0 C 378.8 190.1 378.7 189.9 378.6 189.9 C 378.4 189.9 378.4 190.0 378.6 190.0 Z M 378.1 187.2 C 378.3 187.4 378.3 187.3 378.4 187.3 C 378.5 187.2 378.5 187.0 378.3 186.9 C 378.0 186.9 378.0 186.9 378.1 187.2 Z M 378.0 185.4 C 378.5 185.1 378.4 184.8 377.8 185.3 C 377.2 185.8 377.6 185.6 378.0 185.4 Z M 377.0 191.8 C 376.9 191.7 376.6 191.6 376.6 191.6 C 376.6 191.6 377.3 192.1 377.0 191.8 Z M 378.1 180.5 C 377.9 180.6 377.9 180.9 378.2 180.7 C 378.5 180.6 378.3 180.4 378.1 180.5 Z M 379.2 181.4 C 378.8 181.1 378.4 181.2 378.4 181.2 C 378.4 181.2 378.5 181.6 378.4 181.7 C 378.2 182.0 377.5 181.9 377.3 182.3 C 377.1 182.8 377.9 182.4 378.0 182.3 C 378.0 182.4 377.9 182.5 378.0 182.6 C 378.1 182.7 378.2 182.7 378.3 182.5 C 378.4 182.3 379.7 181.8 379.2 181.4 Z M 379.2 186.5 C 378.9 186.4 378.7 186.6 378.9 186.8 C 379.0 187.0 379.2 187.1 379.3 187.1 C 379.4 187.0 379.4 186.6 379.2 186.5 Z M 379.3 188.1 C 379.1 188.2 379.2 188.2 379.4 188.3 C 379.7 188.4 379.6 188.0 379.3 188.1 Z M 382.3 194.9 C 382.5 194.8 382.2 194.6 382.1 194.7 C 382.1 194.8 382.2 194.9 382.3 194.9 Z M 382.2 192.2 C 382.6 192.3 382.3 191.9 382.2 191.9 C 382.1 191.9 381.9 192.1 382.2 192.2 Z M 380.6 190.6 C 380.8 190.7 380.6 190.4 380.5 190.4 C 380.4 190.5 380.5 190.6 380.6 190.6 Z M 380.5 189.6 C 380.6 189.7 380.6 189.4 380.3 189.4 C 380.2 189.4 380.3 189.5 380.5 189.6 Z M 381.2 180.9 C 381.2 180.9 381.4 181.3 381.5 181.0 C 381.7 180.7 381.7 180.7 381.2 180.9 Z M 380.5 184.0 C 380.3 184.2 380.0 184.5 380.3 185.3 C 380.6 186.2 380.8 185.8 380.9 185.3 C 381.0 184.8 381.4 186.2 381.6 185.2 C 381.7 184.8 380.8 183.8 380.5 184.0 Z M 382.0 189.5 C 381.7 189.0 381.0 189.1 381.4 189.4 C 381.9 189.8 382.3 190.0 382.0 189.5 Z M 382.1 189.9 C 381.9 189.9 382.0 189.9 382.1 190.0 C 382.3 190.1 382.2 189.9 382.1 189.9 Z M 381.6 177.2 C 380.8 178.0 382.2 177.9 382.2 177.9 C 383.3 177.6 382.4 176.5 381.6 177.2 Z M 390.3 195.5 C 390.3 195.5 390.3 195.4 390.3 195.4 C 390.3 195.4 390.3 195.4 390.3 195.3 C 390.1 195.2 389.9 195.5 389.9 195.5 C 390.0 195.6 390.2 195.6 390.3 195.5 Z M 390.5 190.0 C 390.5 190.2 390.5 190.4 390.7 190.5 C 391.1 190.4 391.2 188.8 390.3 189.4 C 390.2 189.5 389.5 190.6 389.9 190.7 C 390.1 190.7 390.5 189.5 390.5 190.0 Z M 389.8 191.7 C 389.9 191.1 389.2 192.3 389.5 192.1 C 389.7 192.1 389.8 191.9 389.8 191.7 Z M 388.3 196.6 C 388.6 197.5 390.0 197.3 389.3 195.9 C 388.6 194.6 388.0 194.5 388.2 195.2 C 388.4 195.9 387.8 195.3 388.3 196.6 Z M 388.3 189.4 C 389.2 189.6 389.0 189.2 388.3 188.9 C 388.1 188.9 387.7 189.3 388.3 189.4 Z M 388.1 187.4 C 388.2 187.2 388.2 187.2 388.1 187.3 C 387.9 187.5 388.1 187.7 388.1 187.4 Z M 387.0 198.0 C 387.1 198.4 387.5 198.6 387.3 198.6 C 387.1 198.6 387.2 198.7 387.3 198.9 C 387.5 199.1 387.5 198.6 387.5 198.4 C 387.5 198.2 386.8 197.7 387.0 198.0 Z M 383.8 190.4 C 384.0 190.4 383.9 190.2 383.7 190.2 C 383.6 190.2 383.6 190.3 383.8 190.4 Z M 382.8 182.8 C 382.8 182.8 382.9 183.0 383.0 182.8 C 383.1 182.6 383.1 182.6 382.8 182.8 Z M 383.1 176.7 C 383.0 176.9 383.4 176.9 383.3 177.2 C 383.3 177.4 383.1 177.2 383.1 177.1 C 383.1 177.2 383.2 177.9 383.5 177.4 C 383.7 177.2 383.5 176.3 383.1 176.7 Z M 384.0 188.3 C 383.8 187.9 383.5 189.2 383.3 189.0 C 383.0 188.8 383.0 188.9 383.3 189.2 C 383.6 189.5 384.3 188.6 384.0 188.3 Z M 384.3 191.5 C 384.2 191.3 383.6 190.7 383.7 191.1 C 383.9 191.4 384.3 191.6 384.0 191.6 C 383.8 191.7 383.9 191.7 384.1 191.9 C 384.3 192.2 384.3 191.7 384.3 191.5 Z M 384.5 196.9 C 384.4 196.7 384.0 196.6 384.2 196.8 C 384.3 197.0 384.5 197.0 384.5 196.9 Z M 384.8 181.9 C 384.7 182.1 384.8 182.2 385.0 182.0 C 385.3 181.8 384.9 181.7 384.8 181.9 Z M 385.4 196.4 C 385.1 196.0 385.3 196.6 385.1 196.4 C 384.8 196.2 384.8 196.3 385.1 196.6 C 385.3 196.8 385.7 196.7 385.4 196.4 Z M 385.6 177.0 C 385.6 177.1 385.7 177.4 385.8 177.2 C 385.9 177.1 385.7 176.9 385.6 177.0 Z M 386.4 179.0 C 386.3 179.1 386.2 179.1 386.2 179.1 C 384.9 180.0 387.3 179.3 386.4 179.0 Z M 386.2 182.1 C 386.1 181.7 385.9 182.2 385.9 182.2 C 386.1 182.3 386.2 182.3 386.2 182.1 Z M 386.3 185.5 C 386.4 185.6 386.4 185.3 386.2 185.3 C 386.0 185.4 386.1 185.5 386.3 185.5 Z M 386.9 174.5 C 386.7 174.6 386.7 174.7 386.9 174.7 C 387.0 174.7 387.0 174.5 386.9 174.5 Z M 387.0 183.0 C 386.9 183.0 386.9 183.0 386.9 183.2 C 387.0 183.3 387.1 183.1 387.0 183.0 Z M 387.1 193.4 C 387.0 193.3 386.9 193.2 386.8 193.1 C 386.6 193.2 386.5 193.8 386.3 193.8 C 386.3 193.8 386.3 193.8 386.3 193.8 C 386.3 193.8 386.3 193.8 386.2 193.8 C 386.1 193.8 386.0 193.7 386.1 193.7 C 386.1 193.6 386.0 193.5 386.0 193.4 C 385.8 193.6 385.7 193.8 385.8 194.0 C 386.0 194.2 386.5 194.2 386.9 194.2 C 386.9 194.1 387.0 193.9 387.0 193.8 C 387.0 193.8 387.0 193.8 387.0 193.8 C 386.7 193.6 386.6 193.5 386.8 193.5 C 386.9 193.5 387.0 193.5 387.1 193.6 C 387.1 193.5 387.1 193.4 387.1 193.4 Z M 387.5 184.3 C 387.3 184.1 387.2 184.2 387.1 184.6 C 387.1 184.8 387.6 184.6 387.5 184.3 Z M 387.2 175.0 C 387.2 175.1 387.3 175.1 387.3 175.2 C 387.3 175.1 387.4 175.1 387.4 175.0 C 387.4 174.9 387.4 174.7 387.5 174.5 C 387.3 174.5 387.1 174.6 387.2 175.0 Z M 388.2 177.9 C 388.1 177.8 388.2 176.6 387.9 176.8 C 387.5 177.1 387.0 176.6 387.2 177.5 C 387.3 177.9 387.9 178.3 388.0 178.7 C 388.6 180.9 388.6 178.2 388.8 177.6 C 388.8 177.5 388.2 178.1 388.2 177.9 Z M 388.8 180.8 C 389.0 180.9 389.3 180.5 389.3 180.4 C 389.2 179.9 388.6 180.6 388.8 180.8 Z M 389.2 174.7 C 389.1 174.6 389.1 174.6 389.0 174.7 C 389.1 174.7 389.1 174.7 389.2 174.8 C 389.2 174.7 389.2 174.7 389.2 174.7 Z M 389.4 173.1 C 388.7 173.7 389.9 173.6 390.2 173.5 C 390.6 173.3 389.7 172.9 389.4 173.1 Z M 389.9 179.1 C 389.8 179.6 391.1 180.1 391.0 179.3 C 391.0 178.6 389.9 178.2 389.9 179.1 Z M 391.5 183.7 C 391.3 183.5 391.6 183.1 391.7 183.3 C 391.9 183.5 391.5 183.8 391.5 183.7 Z M 392.2 176.9 C 392.1 177.0 392.1 176.9 392.1 176.9 C 392.2 176.8 392.2 176.8 392.2 176.9 Z M 391.2 177.5 C 391.3 177.3 391.4 177.1 391.5 176.9 C 391.5 176.8 391.6 177.2 391.6 177.2 C 391.6 177.4 391.3 177.5 391.2 177.5 Z M 391.1 181.2 C 391.3 181.0 391.3 181.3 391.3 181.4 C 391.2 181.5 391.0 181.3 391.1 181.2 Z M 391.4 180.3 C 391.4 180.4 391.2 180.3 391.3 180.2 C 391.3 180.0 391.5 180.2 391.4 180.3 Z M 390.7 181.8 C 390.6 181.4 390.5 180.9 390.9 181.0 C 391.0 181.0 390.9 182.6 390.7 181.8 Z M 390.7 181.8 " fill="#EB5C56"></path><g><clipPath id="clip0x7ff02383a2c0"><path d="M 116.3 179.4 L 371.1 179.4 L 371.1 264.0 L 116.3 264.0 Z M 116.3 179.4 "></path></clipPath><g clip-path="url(#clip0x7ff02383a2c0)"><image xlink:href="../../8F83D4A2-5DB4-4E8E-AB7A-6939C364D0E3/assets/F9C999E3DB55D99064BB8C25535E3DC0.png" width="253.00" height="83.00" transform="matrix(1.00, 0.00, -0.00, -0.99, 117.3, 263.0)" opacity="0.50"></image><path d="M 120.0 262.0 L 367.0 262.0 L 367.0 185.0 L 120.0 185.0 Z M 120.3 262.0 " fill="#FEFCFE"></path></g></g><g><clipPath id="clip0x7ff023fbbed0"><path d="M 116.3 103.9 L 371.1 103.9 L 371.1 188.5 L 116.3 188.5 Z M 116.3 103.9 "></path></clipPath><g clip-path="url(#clip0x7ff023fbbed0)"><image xlink:href="../../8F83D4A2-5DB4-4E8E-AB7A-6939C364D0E3/assets/067647570780E954CFBD853CFF1ACE6A.png" width="253.00" height="83.00" transform="matrix(1.00, 0.00, -0.00, -0.99, 117.3, 187.5)" opacity="0.50"></image><path d="M 120.0 186.0 L 367.0 186.0 L 367.0 110.0 L 120.0 110.0 Z M 120.3 186.5 " fill="#7AB3DC"></path></g></g><g><clipPath id="clip0x7ff023fbda30"><path d="M 197.5 198.3 L 293.1 198.3 L 293.1 259.7 L 197.5 259.7 Z M 197.5 198.3 "></path></clipPath><g clip-path="url(#clip0x7ff023fbda30)"><text xml:space="preserve" font-family="Georgia,Georgia" font-size="36.0" fill="#000000" transform="matrix(1.00, 0.00, -0.00, -1.00, 207.7, 216.4)">I</text><text xml:space="preserve" font-family="Georgia,Georgia" font-size="36.0" fill="#000000" transform="matrix(1.00, 0.00, -0.00, -1.00, 221.7, 216.4)">l</text><text xml:space="preserve" font-family="Georgia,Georgia" font-size="36.0" fill="#000000" transform="matrix(1.00, 0.00, -0.00, -1.00, 232.0, 216.4)">m</text><text xml:space="preserve" font-family="Georgia,Georgia" font-size="36.0" fill="#000000" transform="matrix(1.00, 0.00, -0.00, -1.00, 263.7, 216.4)">a</text></g></g><g><clipPath id="clip0x7ff023fbff80"><path d="M 200.9 118.5 L 289.8 118.5 L 289.8 179.9 L 200.9 179.9 Z M 200.9 118.5 "></path></clipPath><g clip-path="url(#clip0x7ff023fbff80)"><text xml:space="preserve" font-family="Georgia,Georgia" font-size="36.0" fill="#000000" transform="matrix(1.00, 0.00, -0.00, -1.00, 211.1, 136.6)">V</text><text xml:space="preserve" font-family="Georgia,Georgia" font-size="36.0" fill="#000000" transform="matrix(1.00, 0.00, -0.00, -1.00, 235.1, 136.6)">e</text><text xml:space="preserve" font-family="Georgia,Georgia" font-size="36.0" fill="#000000" transform="matrix(1.00, 0.00, -0.00, -1.00, 252.5, 136.6)">s</text><text xml:space="preserve" font-family="Georgia,Georgia" font-size="36.0" fill="#000000" transform="matrix(1.00, 0.00, -0.00, -1.00, 268.1, 136.6)">i</text></g></g><g><clipPath id="clip0x7ff023fc2560"><path d="M 684.8 179.4 L 939.6 179.4 L 939.6 264.0 L 684.8 264.0 Z M 684.8 179.4 "></path></clipPath><g clip-path="url(#clip0x7ff023fc2560)"><image xlink:href="../../8F83D4A2-5DB4-4E8E-AB7A-6939C364D0E3/assets/ED364FA7C3B5E6B22648C10C99C47D5D.png" width="253.00" height="83.00" transform="matrix(1.00, 0.00, -0.00, -0.99, 685.8, 263.0)" opacity="0.50"></image><path d="M 689.0 262.0 L 936.0 262.0 L 936.0 185.0 L 689.0 185.0 Z M 688.8 262.0 " fill="#C0FBFF"></path></g></g><g><clipPath id="clip0x7ff040cca130"><path d="M 684.8 103.9 L 939.6 103.9 L 939.6 188.5 L 684.8 188.5 Z M 684.8 103.9 "></path></clipPath><g clip-path="url(#clip0x7ff040cca130)"><image xlink:href="../../8F83D4A2-5DB4-4E8E-AB7A-6939C364D0E3/assets/F79048F1738B5E3C5AA3D77EF49D74BD.png" width="253.00" height="83.00" transform="matrix(1.00, 0.00, -0.00, -0.99, 685.8, 187.5)" opacity="0.50"></image><path d="M 689.0 186.0 L 936.0 186.0 L 936.0 110.0 L 689.0 110.0 Z M 688.8 186.5 " fill="#7AB3DC"></path></g></g><g><clipPath id="clip0x7ff023ee8e60"><path d="M 766.0 198.3 L 853.4 198.3 L 853.4 259.7 L 766.0 259.7 Z M 766.0 198.3 "></path></clipPath><g clip-path="url(#clip0x7ff023ee8e60)"><text xml:space="preserve" font-family="Georgia,Georgia" font-size="36.0" fill="#000000" transform="matrix(1.00, 0.00, -0.00, -1.00, 776.2, 216.4)">L</text><text xml:space="preserve" font-family="Georgia,Georgia" font-size="36.0" fill="#000000" transform="matrix(1.00, 0.00, -0.00, -1.00, 797.9, 216.4)">a</text><text xml:space="preserve" font-family="Georgia,Georgia" font-size="36.0" fill="#000000" transform="matrix(1.00, 0.00, -0.00, -1.00, 816.1, 216.4)">s</text><text xml:space="preserve" font-family="Georgia,Georgia" font-size="36.0" fill="#000000" transform="matrix(1.00, 0.00, -0.00, -1.00, 831.6, 216.4)">i</text></g></g><g><clipPath id="clip0x7ff0243618f0"><path d="M 769.4 118.5 L 858.4 118.5 L 858.4 179.9 L 769.4 179.9 Z M 769.4 118.5 "></path></clipPath><g clip-path="url(#clip0x7ff0243618f0)"><text xml:space="preserve" font-family="Georgia,Georgia" font-size="36.0" fill="#000000" transform="matrix(1.00, 0.00, -0.00, -1.00, 779.6, 136.6)">V</text><text xml:space="preserve" font-family="Georgia,Georgia" font-size="36.0" fill="#000000" transform="matrix(1.00, 0.00, -0.00, -1.00, 803.6, 136.6)">e</text><text xml:space="preserve" font-family="Georgia,Georgia" font-size="36.0" fill="#000000" transform="matrix(1.00, 0.00, -0.00, -1.00, 821.0, 136.6)">s</text><text xml:space="preserve" font-family="Georgia,Georgia" font-size="36.0" fill="#000000" transform="matrix(1.00, 0.00, -0.00, -1.00, 836.6, 136.6)">i</text></g></g></g></svg>