<?xml version="1.0" encoding="UTF-8" standalone="no"?><svg xmlns="http://www.w3.org/2000/svg" xmlns:xlink="http://www.w3.org/1999/xlink" clip-rule="evenodd" stroke-miterlimit="10" viewBox="0 0 167 76"><desc>SVG generated by Keynote</desc><defs></defs><g transform="matrix(1.00, 0.00, -0.00, -1.00, 0.0, 76.0)"><g><clipPath id="clip0x7fb6c7154e80"><path d="M 1.0 74.0 L 165.0 74.0 L 165.0 2.0 L 1.0 2.0 Z M 1.1 74.2 "></path></clipPath><g clip-path="url(#clip0x7fb6c7154e80)"><g><clipPath id="clip0x7fb6c7140060"><path d="M 5.4 7.0 L 160.8 7.0 L 160.8 70.4 L 5.4 70.4 Z M 5.4 7.0 "></path></clipPath><g clip-path="url(#clip0x7fb6c7140060)"><g><clipPath id="clip0x7fb6c713b240"><path d="M 5.4 7.0 L 160.8 7.0 L 160.8 70.4 L 5.4 70.4 Z M 5.4 7.0 "></path></clipPath><g clip-path="url(#clip0x7fb6c713b240)"><path d="M 26.2 35.9 C 26.3 36.1 26.4 36.3 26.4 36.4 C 26.4 36.4 26.4 36.7 26.0 36.7 C 25.7 36.7 25.7 36.5 25.6 36.3 C 23.6 31.8 22.5 29.7 17.2 29.7 L 12.7 29.7 C 12.3 29.7 12.2 29.7 12.0 29.7 C 11.7 29.8 11.6 29.8 11.6 30.0 C 11.6 30.1 11.6 30.2 11.8 30.7 L 13.9 39.2 L 16.9 39.2 C 19.5 39.2 19.5 38.5 19.5 37.8 C 19.5 37.5 19.5 37.2 19.3 36.2 C 19.3 36.1 19.2 36.0 19.2 35.9 C 19.2 35.7 19.4 35.6 19.6 35.6 C 19.9 35.6 20.0 35.7 20.1 36.2 L 21.9 43.4 C 21.9 43.6 21.7 43.7 21.5 43.7 C 21.2 43.7 21.1 43.5 21.1 43.2 C 20.4 40.8 19.8 40.1 17.0 40.1 L 14.1 40.1 L 16.0 47.5 C 16.2 48.6 16.3 48.7 17.6 48.7 L 22.0 48.7 C 25.7 48.7 26.7 47.8 26.7 45.3 C 26.7 44.6 26.7 44.5 26.5 43.7 C 26.5 43.5 26.5 43.3 26.5 43.1 C 26.5 43.0 26.6 42.8 26.9 42.8 C 27.2 42.8 27.2 43.0 27.3 43.5 L 27.9 48.8 C 28.0 49.7 27.9 49.7 27.1 49.7 L 11.5 49.7 C 10.9 49.7 10.6 49.7 10.6 49.1 C 10.6 48.7 10.9 48.7 11.5 48.7 C 12.6 48.7 13.5 48.7 13.5 48.2 C 13.5 48.0 13.5 48.0 13.3 47.4 L 9.2 31.2 C 8.9 29.9 8.9 29.7 6.4 29.7 C 5.9 29.7 5.6 29.7 5.6 29.1 C 5.6 28.8 5.8 28.8 6.4 28.8 L 22.4 28.8 C 23.2 28.8 23.2 28.8 23.4 29.3 L 26.2 35.9 " fill="#000000"></path><path d="M 33.9 38.4 C 33.9 38.4 34.0 38.7 34.0 38.7 C 34.0 38.9 33.9 39.0 33.6 39.0 C 33.2 39.0 31.4 38.9 30.9 38.8 C 30.7 38.8 30.4 38.8 30.4 38.3 C 30.4 38.0 30.7 38.0 31.0 38.0 C 32.0 38.0 32.0 37.9 32.0 37.7 C 32.0 37.5 32.0 37.4 31.9 37.2 L 28.9 25.1 C 28.8 24.7 28.8 24.6 28.8 24.6 C 28.8 24.3 29.0 23.9 29.5 23.9 C 30.1 23.9 30.4 24.3 30.5 24.8 C 30.5 24.9 31.5 28.7 31.5 29.0 C 33.1 28.8 34.3 28.3 34.3 27.2 C 34.3 27.1 34.3 27.0 34.3 26.8 C 34.2 26.5 34.2 26.4 34.2 26.1 C 34.2 24.6 35.4 23.9 36.5 23.9 C 38.5 23.9 39.2 27.2 39.2 27.2 C 39.2 27.5 38.9 27.5 38.8 27.5 C 38.5 27.5 38.5 27.4 38.4 27.0 C 38.2 26.0 37.6 24.5 36.5 24.5 C 35.9 24.5 35.8 25.0 35.8 25.6 C 35.8 26.0 35.8 26.0 35.9 26.6 C 35.9 26.7 36.0 27.0 36.0 27.3 C 36.0 29.2 33.4 29.5 32.5 29.5 C 33.1 29.9 33.9 30.6 34.3 31.0 C 35.4 32.0 36.5 33.0 37.7 33.0 C 37.9 33.0 38.2 32.9 38.4 32.7 C 37.5 32.6 37.3 31.8 37.3 31.5 C 37.3 31.0 37.6 30.7 38.1 30.7 C 38.7 30.7 39.4 31.2 39.4 32.1 C 39.4 32.8 38.8 33.6 37.7 33.6 C 36.5 33.6 35.3 32.7 34.3 31.7 C 33.4 30.8 32.6 30.2 31.8 29.8 L 33.9 38.4 " fill="#000000"></path><path d="M 72.0 38.8 C 72.5 38.8 73.1 38.8 73.1 39.4 C 73.1 40.1 72.5 40.1 72.1 40.1 L 53.6 40.1 C 53.2 40.1 52.6 40.1 52.6 39.4 C 52.6 38.8 53.2 38.8 53.6 38.8 L 72.0 38.8 Z M 72.1 32.8 C 72.5 32.8 73.1 32.8 73.1 33.5 C 73.1 34.1 72.5 34.1 72.0 34.1 L 53.6 34.1 C 53.2 34.1 52.6 34.1 52.6 33.5 C 52.6 32.8 53.2 32.8 53.6 32.8 L 72.1 32.8 " fill="#000000"></path><path d="M 96.2 69.3 C 96.2 70.0 96.2 70.1 95.4 70.1 C 93.5 68.1 90.8 68.1 89.8 68.1 L 89.8 67.2 C 90.4 67.2 92.3 67.2 93.9 68.0 L 93.9 52.0 C 93.9 50.9 93.8 50.5 91.0 50.5 L 90.0 50.5 L 90.0 49.6 C 91.1 49.7 93.8 49.7 95.0 49.7 C 96.2 49.7 98.9 49.7 100.0 49.6 L 100.0 50.5 L 99.0 50.5 C 96.2 50.5 96.2 50.9 96.2 52.0 L 96.2 69.3 " fill="#000000"></path><path d="M 14.7 5.8 L 17.3 5.8 " fill="none" stroke="#000000" stroke-width="0.21" transform="matrix(5.85, 0.00, 0.00, 5.84, 1.1, 2.7)"></path><path d="M 91.0 10.0 L 94.3 13.2 C 99.1 17.5 100.9 19.1 100.9 22.2 C 100.9 25.7 98.2 28.2 94.4 28.2 C 90.9 28.2 88.6 25.3 88.6 22.6 C 88.6 20.9 90.2 20.9 90.3 20.9 C 90.8 20.9 91.9 21.3 91.9 22.5 C 91.9 23.3 91.3 24.1 90.2 24.1 C 90.0 24.1 89.9 24.1 89.8 24.1 C 90.5 26.1 92.2 27.2 94.0 27.2 C 96.8 27.2 98.1 24.7 98.1 22.2 C 98.1 19.7 96.6 17.3 94.9 15.4 L 89.0 8.8 C 88.6 8.5 88.6 8.4 88.6 7.7 L 100.1 7.7 L 100.9 13.0 L 100.2 13.0 C 100.0 12.1 99.8 10.8 99.5 10.3 C 99.3 10.0 97.2 10.0 96.5 10.0 L 91.0 10.0 " fill="#000000"></path><path d="M 108.9 30.6 C 108.8 30.1 108.6 29.4 108.6 29.2 C 108.6 28.7 109.0 28.4 109.5 28.4 C 109.9 28.4 110.4 28.7 110.6 29.3 C 110.7 29.3 111.0 30.8 111.2 31.5 L 111.9 34.3 C 112.1 35.0 112.3 35.7 112.4 36.4 C 112.5 36.9 112.8 37.8 112.8 37.9 C 113.3 38.9 114.9 41.7 117.8 41.7 C 119.2 41.7 119.5 40.5 119.5 39.5 C 119.5 38.8 119.3 37.9 119.0 37.0 L 118.2 33.4 L 117.6 31.1 C 117.4 30.5 117.2 29.4 117.2 29.2 C 117.2 28.7 117.6 28.4 118.1 28.4 C 119.0 28.4 119.2 29.2 119.4 30.2 C 119.9 31.9 121.0 36.4 121.3 37.6 C 121.4 38.0 123.0 41.7 126.4 41.7 C 127.7 41.7 128.1 40.6 128.1 39.5 C 128.1 37.8 126.7 34.3 126.1 32.6 C 125.9 31.9 125.7 31.5 125.7 30.9 C 125.7 29.5 126.8 28.4 128.3 28.4 C 131.2 28.4 132.3 32.9 132.3 33.2 C 132.3 33.5 132.0 33.5 131.9 33.5 C 131.6 33.5 131.6 33.4 131.5 32.9 C 131.0 31.3 130.0 29.1 128.3 29.1 C 127.8 29.1 127.6 29.4 127.6 30.1 C 127.6 30.9 127.9 31.6 128.1 32.3 C 128.7 33.9 130.0 37.3 130.0 39.1 C 130.0 41.1 128.8 42.4 126.5 42.4 C 124.2 42.4 122.6 41.0 121.4 39.4 C 121.4 39.8 121.3 40.8 120.5 41.6 C 119.7 42.2 118.7 42.4 117.9 42.4 C 115.2 42.4 113.6 40.4 113.1 39.7 C 113.0 41.4 111.7 42.4 110.3 42.4 C 108.9 42.4 108.3 41.2 108.0 40.6 C 107.5 39.5 107.0 37.7 107.0 37.6 C 107.0 37.3 107.4 37.3 107.4 37.3 C 107.7 37.3 107.7 37.3 107.9 38.0 C 108.5 40.2 109.1 41.7 110.2 41.7 C 110.7 41.7 111.2 41.4 111.2 40.3 C 111.2 39.6 111.1 39.3 110.7 37.7 L 108.9 30.6 " fill="#000000"></path><path d="M 147.6 40.2 C 147.6 41.9 146.8 42.4 146.3 42.4 C 145.5 42.4 144.8 41.6 144.8 40.9 C 144.8 40.5 144.9 40.3 145.2 40.0 C 145.9 39.4 146.3 38.6 146.3 37.4 C 146.3 36.1 144.4 29.1 140.8 29.1 C 139.2 29.1 138.5 30.2 138.5 31.8 C 138.5 33.5 139.4 35.7 140.3 38.3 C 140.5 38.8 140.7 39.3 140.7 39.8 C 140.7 41.2 139.7 42.4 138.2 42.4 C 135.3 42.4 134.1 37.9 134.1 37.6 C 134.1 37.3 134.4 37.3 134.5 37.3 C 134.8 37.3 134.8 37.4 135.0 37.9 C 135.8 41.0 137.2 41.7 138.1 41.7 C 138.3 41.7 138.8 41.7 138.8 40.7 C 138.8 39.9 138.5 39.1 138.3 38.6 C 137.0 35.0 136.6 33.6 136.6 32.2 C 136.6 28.9 139.3 28.4 140.7 28.4 C 145.9 28.4 147.6 38.6 147.6 40.2 " fill="#000000"></path><path d="M 160.1 45.4 L 159.4 45.4 C 159.3 44.9 159.1 43.6 158.8 43.4 C 158.7 43.3 157.0 43.3 156.7 43.3 L 152.7 43.3 C 155.0 45.3 155.8 45.9 157.0 46.9 C 158.6 48.1 160.1 49.5 160.1 51.5 C 160.1 54.1 157.8 55.7 155.1 55.7 C 152.4 55.7 150.6 53.8 150.6 51.9 C 150.6 50.8 151.5 50.6 151.7 50.6 C 152.3 50.6 152.9 51.0 152.9 51.8 C 152.9 52.2 152.7 52.9 151.6 52.9 C 152.3 54.5 153.8 54.9 154.8 54.9 C 156.9 54.9 158.0 53.3 158.0 51.5 C 158.0 49.6 156.7 48.2 156.0 47.4 L 150.8 42.3 C 150.6 42.1 150.6 42.0 150.6 41.4 L 159.5 41.4 L 160.1 45.4 " fill="#000000"></path></g></g></g></g></g></g></g></svg>