<?xml version="1.0" encoding="UTF-8" standalone="no"?><svg xmlns="http://www.w3.org/2000/svg" xmlns:xlink="http://www.w3.org/1999/xlink" clip-rule="evenodd" stroke-miterlimit="10" viewBox="0 0 409 35"><desc>SVG generated by Keynote</desc><defs></defs><g transform="matrix(1.00, 0.00, -0.00, -1.00, 0.0, 35.0)"><text xml:space="preserve" font-family="Georgia,Georgia" font-size="32.0" fill="#000000" transform="matrix(1.00, 0.00, -0.00, -1.00, -0.1, 9.4)">=</text><text xml:space="preserve" font-family="Georgia,Georgia" font-size="32.0" fill="#000000" transform="matrix(1.00, 0.00, -0.00, -1.00, 20.4, 9.4)"> </text><text xml:space="preserve" font-family="Georgia,Georgia" font-size="32.0" fill="#000000" transform="matrix(1.00, 0.00, -0.00, -1.00, 28.2, 9.4)">0</text><text xml:space="preserve" font-family="Georgia,Georgia" font-size="32.0" fill="#000000" transform="matrix(1.00, 0.00, -0.00, -1.00, 47.8, 9.4)">,</text><text xml:space="preserve" font-family="Georgia,Georgia" font-size="32.0" fill="#000000" transform="matrix(1.00, 0.00, -0.00, -1.00, 56.4, 9.4)">5</text><text xml:space="preserve" font-family="Georgia,Georgia" font-size="32.0" fill="#000000" transform="matrix(1.00, 0.00, -0.00, -1.00, 73.3, 9.4)"> </text><text xml:space="preserve" font-family="EuphemiaUCAS,Euphemia UCAS" font-size="32.0" fill="#000000" transform="matrix(1.00, 0.00, -0.00, -1.00, 81.1, 9.4)">ᐧ</text><text xml:space="preserve" font-family="Georgia,Georgia" font-size="32.0" fill="#000000" transform="matrix(1.00, 0.00, -0.00, -1.00, 87.7, 9.4)"> </text><text xml:space="preserve" font-family="Georgia,Georgia" font-size="32.0" fill="#000000" transform="matrix(1.00, 0.00, -0.00, -1.00, 95.4, 9.4)">1</text><text xml:space="preserve" font-family="Georgia,Georgia" font-size="32.0" fill="#000000" transform="matrix(1.00, 0.00, -0.00, -1.00, 109.2, 9.4)">2</text><text xml:space="preserve" font-family="Georgia,Georgia" font-size="32.0" fill="#000000" transform="matrix(1.00, 0.00, -0.00, -1.00, 127.0, 9.4)">5</text><text xml:space="preserve" font-family="Georgia,Georgia" font-size="32.0" fill="#000000" transform="matrix(1.00, 0.00, -0.00, -1.00, 143.9, 9.4)"> </text><text xml:space="preserve" font-family="Georgia,Georgia" font-size="32.0" fill="#000000" transform="matrix(1.00, 0.00, -0.00, -1.00, 151.6, 9.4)">k</text><text xml:space="preserve" font-family="Georgia,Georgia" font-size="32.0" fill="#000000" transform="matrix(1.00, 0.00, -0.00, -1.00, 168.8, 9.4)">g</text><text xml:space="preserve" font-family="Georgia,Georgia" font-size="32.0" fill="#000000" transform="matrix(1.00, 0.00, -0.00, -1.00, 185.1, 9.4)"> </text><text xml:space="preserve" font-family="EuphemiaUCAS,Euphemia UCAS" font-size="32.0" fill="#000000" transform="matrix(1.00, 0.00, -0.00, -1.00, 192.8, 9.4)">ᐧ</text><text xml:space="preserve" font-family="Georgia,Georgia" font-size="32.0" fill="#000000" transform="matrix(1.00, 0.00, -0.00, -1.00, 199.5, 9.4)"> </text><text xml:space="preserve" font-family="Georgia,Georgia" font-size="32.0" fill="#000000" transform="matrix(1.00, 0.00, -0.00, -1.00, 207.2, 9.4)">(</text><text xml:space="preserve" font-family="Georgia,Georgia" font-size="32.0" fill="#000000" transform="matrix(1.00, 0.00, -0.00, -1.00, 219.2, 9.4)">0</text><text xml:space="preserve" font-family="Georgia,Georgia" font-size="32.0" fill="#000000" transform="matrix(1.00, 0.00, -0.00, -1.00, 238.8, 9.4)"> </text><text xml:space="preserve" font-family="Georgia,Georgia" font-size="32.0" fill="#000000" transform="matrix(1.00, 0.00, -0.00, -1.00, 246.6, 9.4)">m</text><text xml:space="preserve" font-family="Georgia,Georgia" font-size="32.0" fill="#000000" transform="matrix(1.00, 0.00, -0.00, -1.00, 274.8, 9.4)">/</text><text xml:space="preserve" font-family="Georgia,Georgia" font-size="32.0" fill="#000000" transform="matrix(1.00, 0.00, -0.00, -1.00, 289.7, 9.4)">s</text><text xml:space="preserve" font-family="Georgia,Georgia" font-size="32.0" fill="#000000" transform="matrix(1.00, 0.00, -0.00, -1.00, 303.6, 9.4)">)</text><text xml:space="preserve" font-family="Georgia,Georgia" font-size="21.3" fill="#000000" transform="matrix(1.00, 0.00, -0.00, -1.00, 315.6, 19.2)">2</text><text xml:space="preserve" font-family="Georgia,Georgia" font-size="32.0" fill="#000000" transform="matrix(1.00, 0.00, -0.00, -1.00, 327.5, 9.4)"> </text><text xml:space="preserve" font-family="Georgia,Georgia" font-size="32.0" fill="#000000" transform="matrix(1.00, 0.00, -0.00, -1.00, 335.2, 9.4)">=</text><text xml:space="preserve" font-family="Georgia,Georgia" font-size="32.0" fill="#000000" transform="matrix(1.00, 0.00, -0.00, -1.00, 355.8, 9.4)"> </text><text xml:space="preserve" font-family="Georgia,Georgia" font-size="32.0" fill="#000000" transform="matrix(1.00, 0.00, -0.00, -1.00, 363.5, 9.4)">0</text><text xml:space="preserve" font-family="Georgia,Georgia" font-size="32.0" fill="#000000" transform="matrix(1.00, 0.00, -0.00, -1.00, 383.2, 9.4)"> </text><text xml:space="preserve" font-family="Georgia,Georgia" font-size="32.0" fill="#000000" transform="matrix(1.00, 0.00, -0.00, -1.00, 390.9, 9.4)">J</text></g></svg>