<?xml version="1.0" encoding="UTF-8" standalone="no"?><svg xmlns="http://www.w3.org/2000/svg" xmlns:xlink="http://www.w3.org/1999/xlink" clip-rule="evenodd" stroke-miterlimit="10" viewBox="0 0 167 75"><desc>SVG generated by Keynote</desc><defs></defs><g transform="matrix(1.00, 0.00, -0.00, -1.00, 0.0, 75.0)"><g><clipPath id="clip0x7fb6c7603f00"><path d="M 1.0 74.0 L 165.0 74.0 L 165.0 1.0 L 1.0 1.0 Z M 1.1 73.7 "></path></clipPath><g clip-path="url(#clip0x7fb6c7603f00)"><g><clipPath id="clip0x7fb6c7604620"><path d="M 5.4 6.1 L 160.8 6.1 L 160.8 70.4 L 5.4 70.4 Z M 5.4 6.1 "></path></clipPath><g clip-path="url(#clip0x7fb6c7604620)"><g><clipPath id="clip0x7fb6c76175e0"><path d="M 5.4 6.1 L 160.8 6.1 L 160.8 70.4 L 5.4 70.4 Z M 5.4 6.1 "></path></clipPath><g clip-path="url(#clip0x7fb6c76175e0)"><path d="M 26.2 35.4 C 26.3 35.6 26.4 35.8 26.4 35.8 C 26.4 35.9 26.4 36.2 26.0 36.2 C 25.7 36.2 25.7 36.0 25.6 35.8 C 23.6 31.2 22.5 29.1 17.2 29.1 L 12.7 29.1 C 12.3 29.1 12.2 29.1 12.0 29.1 C 11.7 29.2 11.6 29.2 11.6 29.4 C 11.6 29.5 11.6 29.6 11.8 30.1 L 13.9 38.7 L 16.9 38.7 C 19.5 38.7 19.5 38.0 19.5 37.3 C 19.5 37.0 19.5 36.6 19.3 35.7 C 19.3 35.6 19.2 35.5 19.2 35.4 C 19.2 35.2 19.4 35.0 19.6 35.0 C 19.9 35.0 20.0 35.2 20.1 35.7 L 21.9 42.9 C 21.9 43.2 21.7 43.3 21.5 43.3 C 21.2 43.3 21.1 43.1 21.1 42.7 C 20.4 40.4 19.8 39.6 17.0 39.6 L 14.1 39.6 L 16.0 47.2 C 16.2 48.3 16.3 48.4 17.6 48.4 L 22.0 48.4 C 25.7 48.4 26.7 47.5 26.7 44.9 C 26.7 44.2 26.7 44.1 26.5 43.3 C 26.5 43.1 26.5 42.9 26.5 42.7 C 26.5 42.6 26.6 42.3 26.9 42.3 C 27.2 42.3 27.2 42.5 27.3 43.1 L 27.9 48.5 C 28.0 49.4 27.9 49.4 27.1 49.4 L 11.5 49.4 C 10.9 49.4 10.6 49.4 10.6 48.7 C 10.6 48.4 10.9 48.4 11.5 48.4 C 12.6 48.4 13.5 48.4 13.5 47.8 C 13.5 47.7 13.5 47.6 13.3 47.1 L 9.2 30.6 C 8.9 29.3 8.9 29.1 6.4 29.1 C 5.9 29.1 5.6 29.1 5.6 28.5 C 5.6 28.1 5.8 28.1 6.4 28.1 L 22.4 28.1 C 23.2 28.1 23.2 28.2 23.4 28.7 L 26.2 35.4 " fill="#000000"></path><path d="M 33.9 37.9 C 33.9 37.9 34.0 38.2 34.0 38.2 C 34.0 38.4 33.9 38.5 33.6 38.5 C 33.2 38.5 31.4 38.4 30.9 38.3 C 30.7 38.3 30.4 38.3 30.4 37.8 C 30.4 37.5 30.7 37.5 31.0 37.5 C 32.0 37.5 32.0 37.4 32.0 37.2 C 32.0 37.0 32.0 36.9 31.9 36.7 L 28.9 24.4 C 28.8 24.0 28.8 23.9 28.8 23.9 C 28.8 23.6 29.0 23.2 29.5 23.2 C 30.1 23.2 30.4 23.6 30.5 24.1 C 30.5 24.2 31.5 28.0 31.5 28.4 C 33.1 28.2 34.3 27.7 34.3 26.6 C 34.3 26.5 34.3 26.4 34.3 26.1 C 34.2 25.8 34.2 25.7 34.2 25.4 C 34.2 23.9 35.4 23.2 36.5 23.2 C 38.5 23.2 39.2 26.5 39.2 26.5 C 39.2 26.8 38.9 26.8 38.8 26.8 C 38.5 26.8 38.5 26.7 38.4 26.3 C 38.2 25.4 37.6 23.8 36.5 23.8 C 35.9 23.8 35.8 24.4 35.8 25.0 C 35.8 25.3 35.8 25.4 35.9 25.9 C 35.9 26.0 36.0 26.4 36.0 26.6 C 36.0 28.6 33.4 28.9 32.5 28.9 C 33.1 29.3 33.9 30.0 34.3 30.4 C 35.4 31.4 36.5 32.4 37.7 32.4 C 37.9 32.4 38.2 32.4 38.4 32.1 C 37.5 32.0 37.3 31.3 37.3 30.9 C 37.3 30.4 37.6 30.1 38.1 30.1 C 38.7 30.1 39.4 30.6 39.4 31.5 C 39.4 32.2 38.8 33.0 37.7 33.0 C 36.5 33.0 35.3 32.1 34.3 31.1 C 33.4 30.2 32.6 29.6 31.8 29.2 L 33.9 37.9 " fill="#000000"></path><path d="M 72.0 38.3 C 72.5 38.3 73.1 38.3 73.1 39.0 C 73.1 39.6 72.5 39.6 72.1 39.6 L 53.6 39.6 C 53.2 39.6 52.6 39.6 52.6 39.0 C 52.6 38.3 53.2 38.3 53.6 38.3 L 72.0 38.3 Z M 72.1 32.3 C 72.5 32.3 73.1 32.3 73.1 32.9 C 73.1 33.5 72.5 33.5 72.0 33.5 L 53.6 33.5 C 53.2 33.5 52.6 33.5 52.6 32.9 C 52.6 32.3 53.2 32.3 53.6 32.3 L 72.1 32.3 " fill="#000000"></path><path d="M 96.2 69.2 C 96.2 70.0 96.2 70.0 95.4 70.0 C 93.5 68.0 90.8 68.0 89.8 68.0 L 89.8 67.1 C 90.4 67.1 92.3 67.1 93.9 67.9 L 93.9 51.7 C 93.9 50.6 93.8 50.2 91.0 50.2 L 90.0 50.2 L 90.0 49.2 C 91.1 49.3 93.8 49.3 95.0 49.3 C 96.2 49.3 98.9 49.3 100.0 49.2 L 100.0 50.2 L 99.0 50.2 C 96.2 50.2 96.2 50.6 96.2 51.7 L 96.2 69.2 " fill="#000000"></path><path d="M 14.7 5.8 L 17.3 5.8 " fill="none" stroke="#000000" stroke-width="0.21" transform="matrix(5.85, 0.00, 0.00, 5.92, 1.1, 1.7)"></path><path d="M 91.0 9.2 L 94.3 12.4 C 99.1 16.7 100.9 18.4 100.9 21.5 C 100.9 25.0 98.2 27.5 94.4 27.5 C 90.9 27.5 88.6 24.7 88.6 21.9 C 88.6 20.1 90.2 20.1 90.3 20.1 C 90.8 20.1 91.9 20.5 91.9 21.8 C 91.9 22.6 91.3 23.4 90.2 23.4 C 90.0 23.4 89.9 23.4 89.8 23.4 C 90.5 25.4 92.2 26.6 94.0 26.6 C 96.8 26.6 98.1 24.0 98.1 21.5 C 98.1 19.0 96.6 16.5 94.9 14.6 L 89.0 7.9 C 88.6 7.6 88.6 7.5 88.6 6.8 L 100.1 6.8 L 100.9 12.2 L 100.2 12.2 C 100.0 11.2 99.8 9.9 99.5 9.4 C 99.3 9.2 97.2 9.2 96.5 9.2 L 91.0 9.2 " fill="#000000"></path><path d="M 108.9 30.0 C 108.8 29.5 108.6 28.8 108.6 28.6 C 108.6 28.1 109.0 27.8 109.5 27.8 C 109.9 27.8 110.4 28.0 110.6 28.7 C 110.7 28.7 111.0 30.2 111.2 31.0 L 111.9 33.8 C 112.1 34.5 112.3 35.1 112.4 35.9 C 112.5 36.4 112.8 37.3 112.8 37.4 C 113.3 38.4 114.9 41.2 117.8 41.2 C 119.2 41.2 119.5 40.1 119.5 39.1 C 119.5 38.3 119.3 37.4 119.0 36.5 L 118.2 32.8 L 117.6 30.5 C 117.4 29.8 117.2 28.8 117.2 28.6 C 117.2 28.1 117.6 27.8 118.1 27.8 C 119.0 27.8 119.2 28.6 119.4 29.6 C 119.9 31.3 121.0 35.9 121.3 37.1 C 121.4 37.5 123.0 41.2 126.4 41.2 C 127.7 41.2 128.1 40.2 128.1 39.1 C 128.1 37.3 126.7 33.7 126.1 32.1 C 125.9 31.3 125.7 31.0 125.7 30.3 C 125.7 28.9 126.8 27.8 128.3 27.8 C 131.2 27.8 132.3 32.3 132.3 32.6 C 132.3 32.9 132.0 32.9 131.9 32.9 C 131.6 32.9 131.6 32.8 131.5 32.3 C 131.0 30.7 130.0 28.5 128.3 28.5 C 127.8 28.5 127.6 28.8 127.6 29.5 C 127.6 30.3 127.9 31.0 128.1 31.7 C 128.7 33.3 130.0 36.8 130.0 38.6 C 130.0 40.6 128.8 41.9 126.5 41.9 C 124.2 41.9 122.6 40.5 121.4 38.9 C 121.4 39.3 121.3 40.4 120.5 41.1 C 119.7 41.8 118.7 41.9 117.9 41.9 C 115.2 41.9 113.6 39.9 113.1 39.2 C 113.0 41.0 111.7 41.9 110.3 41.9 C 108.9 41.9 108.3 40.7 108.0 40.1 C 107.5 39.1 107.0 37.2 107.0 37.1 C 107.0 36.8 107.4 36.8 107.4 36.8 C 107.7 36.8 107.7 36.8 107.9 37.5 C 108.5 39.7 109.1 41.2 110.2 41.2 C 110.7 41.2 111.2 41.0 111.2 39.8 C 111.2 39.1 111.1 38.8 110.7 37.2 L 108.9 30.0 " fill="#000000"></path><path d="M 147.6 39.7 C 147.6 41.4 146.8 41.9 146.3 41.9 C 145.5 41.9 144.8 41.1 144.8 40.4 C 144.8 40.0 144.9 39.8 145.2 39.5 C 145.9 38.9 146.3 38.1 146.3 36.9 C 146.3 35.6 144.4 28.5 140.8 28.5 C 139.2 28.5 138.5 29.6 138.5 31.2 C 138.5 32.9 139.4 35.2 140.3 37.8 C 140.5 38.3 140.7 38.8 140.7 39.4 C 140.7 40.8 139.7 41.9 138.2 41.9 C 135.3 41.9 134.1 37.4 134.1 37.1 C 134.1 36.8 134.4 36.8 134.5 36.8 C 134.8 36.8 134.8 36.9 135.0 37.4 C 135.8 40.5 137.2 41.2 138.1 41.2 C 138.3 41.2 138.8 41.2 138.8 40.2 C 138.8 39.4 138.5 38.6 138.3 38.1 C 137.0 34.4 136.6 33.0 136.6 31.7 C 136.6 28.3 139.3 27.8 140.7 27.8 C 145.9 27.8 147.6 38.1 147.6 39.7 " fill="#000000"></path><path d="M 160.1 45.0 L 159.4 45.0 C 159.3 44.5 159.1 43.2 158.8 43.0 C 158.7 42.8 157.0 42.8 156.7 42.8 L 152.7 42.8 C 155.0 44.9 155.8 45.5 157.0 46.5 C 158.6 47.8 160.1 49.1 160.1 51.2 C 160.1 53.8 157.8 55.4 155.1 55.4 C 152.4 55.4 150.6 53.6 150.6 51.6 C 150.6 50.4 151.5 50.3 151.7 50.3 C 152.3 50.3 152.9 50.7 152.9 51.5 C 152.9 51.9 152.7 52.6 151.6 52.6 C 152.3 54.2 153.8 54.7 154.8 54.7 C 156.9 54.7 158.0 53.0 158.0 51.2 C 158.0 49.3 156.7 47.8 156.0 47.0 L 150.8 41.8 C 150.6 41.6 150.6 41.6 150.6 41.0 L 159.5 41.0 L 160.1 45.0 " fill="#000000"></path></g></g></g></g></g></g></g></svg>