<?xml version="1.0" encoding="UTF-8" standalone="no"?><svg xmlns="http://www.w3.org/2000/svg" xmlns:xlink="http://www.w3.org/1999/xlink" clip-rule="evenodd" stroke-miterlimit="10" viewBox="0 0 135 128"><desc>SVG generated by Keynote</desc><defs></defs><g transform="matrix(1.00, 0.00, -0.00, -1.00, 0.0, 128.0)"><g><clipPath id="clip0x7ff041065700"><path d="M 22.6 70.7 L 0.1 90.6 L 32.7 127.3 L 55.2 107.3 Z M 22.6 70.7 "></path></clipPath><g clip-path="url(#clip0x7ff041065700)"><image xlink:href="../../0A5867B1-2BB7-426E-AAB2-3ADD7F2697C3/assets/E32DB32B07B8572EDF3FD8FB4F31090D.png" width="28.00" height="47.00" transform="matrix(-0.75, 0.67, 0.66, 0.75, 22.5, 72.1)" opacity="0.50"></image><path d="M 13.2 95.4 C 15.3 103.6 23.5 112.9 31.5 116.0 C 39.5 119.1 44.3 114.9 42.1 106.6 C 40.0 98.3 31.8 89.0 23.8 85.9 C 15.8 82.8 11.1 87.1 13.2 95.4 Z M 13.2 95.4 " fill="#A6AAA8"></path><path d="M 17.1 5.7 C 21.0 13.3 21.0 25.7 17.1 33.3 C 13.2 40.9 6.8 40.9 2.9 33.3 C -1.0 25.7 -1.0 13.3 2.9 5.7 C 6.8 -1.9 13.2 -1.9 17.1 5.7 Z M 17.1 5.7 " fill="none" stroke="#000000" stroke-width="2.00" transform="matrix(-0.75, 0.66, 0.66, 0.75, 22.2, 79.7)"></path></g></g><g><clipPath id="clip0x7ff03e7c49f0"><path d="M 102.8 31.5 L 24.9 100.7 L 27.6 103.7 L 105.5 34.4 Z M 102.8 31.5 "></path></clipPath><g clip-path="url(#clip0x7ff03e7c49f0)"><path d="M 0.0 0.0 L 102.3 0.0 " fill="none" stroke="#000000" stroke-width="2.00" transform="matrix(-0.75, 0.66, 0.66, 0.75, 103.4, 33.6)"></path></g></g><g><clipPath id="clip0x7ff03fc42d80"><path d="M 101.8 0.2 L 79.4 20.2 L 111.9 56.8 L 134.4 36.9 Z M 101.8 0.2 "></path></clipPath><g clip-path="url(#clip0x7ff03fc42d80)"><image xlink:href="../../0A5867B1-2BB7-426E-AAB2-3ADD7F2697C3/assets/E32DB32B07B8572EDF3FD8FB4F31090D.png" width="28.00" height="47.00" transform="matrix(-0.75, 0.67, 0.66, 0.75, 101.7, 1.6)" opacity="0.50"></image><path d="M 92.4 24.9 C 94.5 33.2 102.8 42.4 110.7 45.5 C 118.7 48.6 123.5 44.4 121.3 36.1 C 119.2 27.8 111.0 18.6 103.0 15.5 C 95.0 12.4 90.3 16.6 92.4 24.9 Z M 92.4 24.9 " fill="#A6AAA8"></path><path d="M 17.1 5.7 C 21.0 13.3 21.0 25.7 17.1 33.3 C 13.2 40.9 6.8 40.9 2.9 33.3 C -1.0 25.7 -1.0 13.3 2.9 5.7 C 6.8 -1.9 13.2 -1.9 17.1 5.7 Z M 17.1 5.7 " fill="none" stroke="#000000" stroke-width="2.00" transform="matrix(-0.75, 0.66, 0.66, 0.75, 101.4, 9.3)"></path></g></g></g></svg>