<?xml version="1.0" encoding="UTF-8" standalone="no"?><svg xmlns="http://www.w3.org/2000/svg" xmlns:xlink="http://www.w3.org/1999/xlink" clip-rule="evenodd" stroke-miterlimit="10" viewBox="0 0 518 330"><desc>SVG generated by Keynote</desc><defs></defs><g transform="matrix(1.00, 0.00, -0.00, -1.00, 0.0, 330.0)"><g><clipPath id="clip0x7fda2dd0dbf0"><path d="M 1.0 97.3 L 517.0 97.3 L 517.0 129.3 L 1.0 129.3 Z M 1.0 97.3 "></path></clipPath><g clip-path="url(#clip0x7fda2dd0dbf0)"><image xlink:href="FD876BC758D2AD287E17BF184C8416EA.png" width="514.00" height="30.00" transform="matrix(1.00, 0.00, -0.00, -1.00, 2.0, 128.3)" opacity="0.50"></image><path d="M 5.0 127.0 L 513.0 127.0 L 513.0 103.0 L 5.0 103.0 Z M 5.0 127.3 " fill="#52575F"></path></g></g><g><clipPath id="clip0x7fda2de11da0"><path d="M 266.0 121.0 L 414.9 121.0 L 414.9 329.0 L 266.0 329.0 Z M 266.0 121.0 "></path></clipPath><g clip-path="url(#clip0x7fda2de11da0)"><image xlink:href="7EBB2DE135A488DA217A80607B0E9D2B.png" width="147.00" height="206.00" transform="matrix(1.00, 0.00, -0.00, -1.00, 267.0, 328.0)" opacity="0.50"></image></g></g><g><clipPath id="clip0x7fda2dd0ef90"><path d="M 270.0 327.0 L 411.0 327.0 L 411.0 127.0 L 270.0 127.0 Z M 270.0 327.0 "></path></clipPath><g clip-path="url(#clip0x7fda2dd0ef90)"><g><clipPath id="clip0x7fda2dd0f6e0"><path d="M 266.0 121.0 L 414.9 121.0 L 414.9 329.0 L 266.0 329.0 Z M 266.0 121.0 "></path></clipPath><g clip-path="url(#clip0x7fda2dd0f6e0)"><image xlink:href="C3C0FC898C94653CAF8AD846D6CCD108.png" width="600.00" height="600.00" transform="matrix(0.50, 0.00, -0.00, -0.50, 270.0, 327.0)"></image></g></g></g></g><g><clipPath id="clip0x7fda2dd10bc0"><path d="M 269.0 124.1 L 411.4 124.1 L 411.4 130.1 L 269.0 130.1 Z M 269.0 124.1 "></path></clipPath><g clip-path="url(#clip0x7fda2dd10bc0)"><path d="M 0.0 0.1 L 140.0 0.1 " fill="none" stroke="#EB5C56" stroke-width="4.00" transform="matrix(1.00, 0.00, 0.00, -1.00, 270.0, 127.1)"></path></g></g><g><clipPath id="clip0x7fda2dd12510"><path d="M 326.3 206.9 L 358.3 206.9 L 358.3 238.9 L 326.3 238.9 Z M 326.3 206.9 "></path></clipPath><g clip-path="url(#clip0x7fda2dd12510)"><image xlink:href="../../8B522FAD-DD10-4053-B1D9-3FA46E910020/assets/92242BE40EA4AF7E8EDF21150630AB19.png" width="30.00" height="30.00" transform="matrix(1.00, 0.00, -0.00, -1.00, 327.3, 237.9)" opacity="0.50"></image><path d="M 350.8 233.3 C 355.5 228.7 355.5 221.1 350.8 216.4 C 346.1 211.7 338.5 211.7 333.9 216.4 C 329.2 221.1 329.2 228.7 333.9 233.3 C 338.5 238.0 346.1 238.0 350.8 233.3 Z M 350.8 233.3 " fill="#0B5C18"></path></g></g><g><clipPath id="clip0x7fda2dd14050"><path d="M 355.3 226.0 L 355.3 138.3 L 329.3 138.3 L 329.3 226.0 Z M 355.3 226.0 "></path></clipPath><g clip-path="url(#clip0x7fda2dd14050)"><path d="M 0.0 0.3 L 61.8 0.3 L 65.0 0.3 " fill="none" stroke="#851001" stroke-width="6.00" transform="matrix(0.00, -1.00, -1.00, 0.00, 342.3, 225.0)"></path><path d="M 330.0 163.0 L 342.0 139.0 L 354.0 163.0 Z M 330.0 163.0 " fill="#851001"></path></g></g><g><clipPath id="clip0x7fda2dd15bc0"><path d="M 344.8 323.0 L 344.8 0.8 L 339.9 0.8 L 339.9 323.0 Z M 344.8 323.0 "></path></clipPath><g clip-path="url(#clip0x7fda2dd15bc0)"><path d="M -0.4 0.3 L 317.6 0.3 " fill="none" stroke="#000000" stroke-width="2.00" stroke-dasharray="2.0, 4.0" transform="matrix(0.00, -1.00, -1.00, 0.00, 342.3, 320.6)"></path></g></g></g></svg>