<?xml version="1.0" encoding="UTF-8" standalone="no"?><svg xmlns="http://www.w3.org/2000/svg" xmlns:xlink="http://www.w3.org/1999/xlink" clip-rule="evenodd" stroke-miterlimit="10" viewBox="0 0 1024 768"><desc>SVG generated by Keynote</desc><defs></defs><g transform="matrix(1.00, 0.00, -0.00, -1.00, 0.0, 768.0)"><path d="M 0.0 768.0 L 1024.0 768.0 L 1024.0 0.0 L 0.0 0.0 Z M 0.0 768.0 " fill="#FEFFFF"></path><text xml:space="preserve" font-family="Georgia,Georgia" font-size="65.0" fill="#000000" transform="matrix(1.00, 0.00, -0.00, -1.00, 245.2, 692.9)">H</text><text xml:space="preserve" font-family="Georgia,Georgia" font-size="65.0" fill="#000000" transform="matrix(1.00, 0.00, -0.00, -1.00, 298.2, 692.9)">a</text><text xml:space="preserve" font-family="Georgia,Georgia" font-size="65.0" fill="#000000" transform="matrix(1.00, 0.00, -0.00, -1.00, 331.0, 692.9)">r</text><text xml:space="preserve" font-family="Georgia,Georgia" font-size="65.0" fill="#000000" transform="matrix(1.00, 0.00, -0.00, -1.00, 357.6, 692.9)">j</text><text xml:space="preserve" font-family="Georgia,Georgia" font-size="65.0" fill="#000000" transform="matrix(1.00, 0.00, -0.00, -1.00, 376.5, 692.9)">o</text><text xml:space="preserve" font-family="Georgia,Georgia" font-size="65.0" fill="#000000" transform="matrix(1.00, 0.00, -0.00, -1.00, 411.6, 692.9)">i</text><text xml:space="preserve" font-family="Georgia,Georgia" font-size="65.0" fill="#000000" transform="matrix(1.00, 0.00, -0.00, -1.00, 430.6, 692.9)">t</text><text xml:space="preserve" font-family="Georgia,Georgia" font-size="65.0" fill="#000000" transform="matrix(1.00, 0.00, -0.00, -1.00, 453.1, 692.9)">u</text><text xml:space="preserve" font-family="Georgia,Georgia" font-size="65.0" fill="#000000" transform="matrix(1.00, 0.00, -0.00, -1.00, 490.5, 692.9)">s</text><text xml:space="preserve" font-family="Georgia,Georgia" font-size="65.0" fill="#000000" transform="matrix(1.00, 0.00, -0.00, -1.00, 518.6, 692.9)">t</text><text xml:space="preserve" font-family="Georgia,Georgia" font-size="65.0" fill="#000000" transform="matrix(1.00, 0.00, -0.00, -1.00, 541.0, 692.9)">e</text><text xml:space="preserve" font-family="Georgia,Georgia" font-size="65.0" fill="#000000" transform="matrix(1.00, 0.00, -0.00, -1.00, 572.5, 692.9)">h</text><text xml:space="preserve" font-family="Georgia,Georgia" font-size="65.0" fill="#000000" transform="matrix(1.00, 0.00, -0.00, -1.00, 610.3, 692.9)">t</text><text xml:space="preserve" font-family="Georgia,Georgia" font-size="65.0" fill="#000000" transform="matrix(1.00, 0.00, -0.00, -1.00, 632.8, 692.9)">ä</text><text xml:space="preserve" font-family="Georgia,Georgia" font-size="65.0" fill="#000000" transform="matrix(1.00, 0.00, -0.00, -1.00, 665.5, 692.9)">v</text><text xml:space="preserve" font-family="Georgia,Georgia" font-size="65.0" fill="#000000" transform="matrix(1.00, 0.00, -0.00, -1.00, 697.8, 692.9)">ä</text></g></svg>