<?xml version="1.0" encoding="UTF-8" standalone="no"?><svg xmlns="http://www.w3.org/2000/svg" xmlns:xlink="http://www.w3.org/1999/xlink" clip-rule="evenodd" stroke-miterlimit="10" viewBox="0 0 1024 768"><desc>SVG generated by Keynote</desc><defs></defs><g transform="matrix(1.00, 0.00, -0.00, -1.00, 0.0, 768.0)"><path d="M 0.0 768.0 L 1024.0 768.0 L 1024.0 0.0 L 0.0 0.0 Z M 0.0 768.0 " fill="#FEFFFF"></path><text xml:space="preserve" font-family="Georgia,Georgia" font-size="65.0" fill="#000000" transform="matrix(1.00, 0.00, -0.00, -1.00, 212.2, 662.3)">H</text><text xml:space="preserve" font-family="Georgia,Georgia" font-size="65.0" fill="#000000" transform="matrix(1.00, 0.00, -0.00, -1.00, 265.2, 662.3)">a</text><text xml:space="preserve" font-family="Georgia,Georgia" font-size="65.0" fill="#000000" transform="matrix(1.00, 0.00, -0.00, -1.00, 297.9, 662.3)">r</text><text xml:space="preserve" font-family="Georgia,Georgia" font-size="65.0" fill="#000000" transform="matrix(1.00, 0.00, -0.00, -1.00, 324.5, 662.3)">j</text><text xml:space="preserve" font-family="Georgia,Georgia" font-size="65.0" fill="#000000" transform="matrix(1.00, 0.00, -0.00, -1.00, 343.5, 662.3)">o</text><text xml:space="preserve" font-family="Georgia,Georgia" font-size="65.0" fill="#000000" transform="matrix(1.00, 0.00, -0.00, -1.00, 378.5, 662.3)">i</text><text xml:space="preserve" font-family="Georgia,Georgia" font-size="65.0" fill="#000000" transform="matrix(1.00, 0.00, -0.00, -1.00, 397.6, 662.3)">s</text><text xml:space="preserve" font-family="Georgia,Georgia" font-size="65.0" fill="#000000" transform="matrix(1.00, 0.00, -0.00, -1.00, 425.7, 662.3)">t</text><text xml:space="preserve" font-family="Georgia,Georgia" font-size="65.0" fill="#000000" transform="matrix(1.00, 0.00, -0.00, -1.00, 448.1, 662.3)">u</text><text xml:space="preserve" font-family="Georgia,Georgia" font-size="65.0" fill="#000000" transform="matrix(1.00, 0.00, -0.00, -1.00, 485.5, 662.3)">s</text><text xml:space="preserve" font-family="Georgia,Georgia" font-size="65.0" fill="#000000" transform="matrix(1.00, 0.00, -0.00, -1.00, 513.6, 662.3)">t</text><text xml:space="preserve" font-family="Georgia,Georgia" font-size="65.0" fill="#000000" transform="matrix(1.00, 0.00, -0.00, -1.00, 536.1, 662.3)">e</text><text xml:space="preserve" font-family="Georgia,Georgia" font-size="65.0" fill="#000000" transform="matrix(1.00, 0.00, -0.00, -1.00, 567.5, 662.3)">h</text><text xml:space="preserve" font-family="Georgia,Georgia" font-size="65.0" fill="#000000" transform="matrix(1.00, 0.00, -0.00, -1.00, 605.4, 662.3)">t</text><text xml:space="preserve" font-family="Georgia,Georgia" font-size="65.0" fill="#000000" transform="matrix(1.00, 0.00, -0.00, -1.00, 627.8, 662.3)">ä</text><text xml:space="preserve" font-family="Georgia,Georgia" font-size="65.0" fill="#000000" transform="matrix(1.00, 0.00, -0.00, -1.00, 660.6, 662.3)">v</text><text xml:space="preserve" font-family="Georgia,Georgia" font-size="65.0" fill="#000000" transform="matrix(1.00, 0.00, -0.00, -1.00, 692.8, 662.3)">ä</text><text xml:space="preserve" font-family="Georgia,Georgia" font-size="32.0" fill="#000000" transform="matrix(1.00, 0.00, -0.00, -1.00, 53.9, 572.8)">H</text><text xml:space="preserve" font-family="Georgia,Georgia" font-size="32.0" fill="#000000" transform="matrix(1.00, 0.00, -0.00, -1.00, 79.9, 572.8)">e</text><text xml:space="preserve" font-family="Georgia,Georgia" font-size="32.0" fill="#000000" transform="matrix(1.00, 0.00, -0.00, -1.00, 95.4, 572.8)">n</text><text xml:space="preserve" font-family="Georgia,Georgia" font-size="32.0" fill="#000000" transform="matrix(1.00, 0.00, -0.00, -1.00, 114.3, 572.8)">k</text><text xml:space="preserve" font-family="Georgia,Georgia" font-size="32.0" fill="#000000" transform="matrix(1.00, 0.00, -0.00, -1.00, 131.5, 572.8)">i</text><text xml:space="preserve" font-family="Georgia,Georgia" font-size="32.0" fill="#000000" transform="matrix(1.00, 0.00, -0.00, -1.00, 140.8, 572.8)">l</text><text xml:space="preserve" font-family="Georgia,Georgia" font-size="32.0" fill="#000000" transform="matrix(1.00, 0.00, -0.00, -1.00, 150.0, 572.8)">ö</text><text xml:space="preserve" font-family="Georgia,Georgia" font-size="32.0" fill="#000000" transform="matrix(1.00, 0.00, -0.00, -1.00, 167.2, 572.8)"> </text><text xml:space="preserve" font-family="Georgia,Georgia" font-size="32.0" fill="#000000" transform="matrix(1.00, 0.00, -0.00, -1.00, 175.0, 572.8)">t</text><text xml:space="preserve" font-family="Georgia,Georgia" font-size="32.0" fill="#000000" transform="matrix(1.00, 0.00, -0.00, -1.00, 186.0, 572.8)">y</text><text xml:space="preserve" font-family="Georgia,Georgia" font-size="32.0" fill="#000000" transform="matrix(1.00, 0.00, -0.00, -1.00, 201.8, 572.8)">ö</text><text xml:space="preserve" font-family="Georgia,Georgia" font-size="32.0" fill="#000000" transform="matrix(1.00, 0.00, -0.00, -1.00, 219.0, 572.8)">n</text><text xml:space="preserve" font-family="Georgia,Georgia" font-size="32.0" fill="#000000" transform="matrix(1.00, 0.00, -0.00, -1.00, 237.9, 572.8)">t</text><text xml:space="preserve" font-family="Georgia,Georgia" font-size="32.0" fill="#000000" transform="matrix(1.00, 0.00, -0.00, -1.00, 249.0, 572.8)">ä</text><text xml:space="preserve" font-family="Georgia,Georgia" font-size="32.0" fill="#000000" transform="matrix(1.00, 0.00, -0.00, -1.00, 265.1, 572.8)">ä</text><text xml:space="preserve" font-family="Georgia,Georgia" font-size="32.0" fill="#000000" transform="matrix(1.00, 0.00, -0.00, -1.00, 281.2, 572.8)"> </text><text xml:space="preserve" font-family="Georgia,Georgia" font-size="32.0" fill="#000000" transform="matrix(1.00, 0.00, -0.00, -1.00, 289.0, 572.8)">h</text><text xml:space="preserve" font-family="Georgia,Georgia" font-size="32.0" fill="#000000" transform="matrix(1.00, 0.00, -0.00, -1.00, 307.6, 572.8)">a</text><text xml:space="preserve" font-family="Georgia,Georgia" font-size="32.0" fill="#000000" transform="matrix(1.00, 0.00, -0.00, -1.00, 323.7, 572.8)">j</text><text xml:space="preserve" font-family="Georgia,Georgia" font-size="32.0" fill="#000000" transform="matrix(1.00, 0.00, -0.00, -1.00, 333.0, 572.8)">o</text><text xml:space="preserve" font-family="Georgia,Georgia" font-size="32.0" fill="#000000" transform="matrix(1.00, 0.00, -0.00, -1.00, 350.3, 572.8)">n</text><text xml:space="preserve" font-family="Georgia,Georgia" font-size="32.0" fill="#000000" transform="matrix(1.00, 0.00, -0.00, -1.00, 369.2, 572.8)">n</text><text xml:space="preserve" font-family="Georgia,Georgia" font-size="32.0" fill="#000000" transform="matrix(1.00, 0.00, -0.00, -1.00, 388.1, 572.8)">u</text><text xml:space="preserve" font-family="Georgia,Georgia" font-size="32.0" fill="#000000" transform="matrix(1.00, 0.00, -0.00, -1.00, 406.5, 572.8)">t</text><text xml:space="preserve" font-family="Georgia,Georgia" font-size="32.0" fill="#000000" transform="matrix(1.00, 0.00, -0.00, -1.00, 417.6, 572.8)">t</text><text xml:space="preserve" font-family="Georgia,Georgia" font-size="32.0" fill="#000000" transform="matrix(1.00, 0.00, -0.00, -1.00, 428.6, 572.8)">a</text><text xml:space="preserve" font-family="Georgia,Georgia" font-size="32.0" fill="#000000" transform="matrix(1.00, 0.00, -0.00, -1.00, 444.7, 572.8)"> </text><text xml:space="preserve" font-family="Georgia,Georgia" font-size="32.0" fill="#000000" transform="matrix(1.00, 0.00, -0.00, -1.00, 452.5, 572.8)">m</text><text xml:space="preserve" font-family="Georgia,Georgia" font-size="32.0" fill="#000000" transform="matrix(1.00, 0.00, -0.00, -1.00, 480.6, 572.8)">o</text><text xml:space="preserve" font-family="Georgia,Georgia" font-size="32.0" fill="#000000" transform="matrix(1.00, 0.00, -0.00, -1.00, 497.9, 572.8)">p</text><text xml:space="preserve" font-family="Georgia,Georgia" font-size="32.0" fill="#000000" transform="matrix(1.00, 0.00, -0.00, -1.00, 516.2, 572.8)">o</text><text xml:space="preserve" font-family="Georgia,Georgia" font-size="32.0" fill="#000000" transform="matrix(1.00, 0.00, -0.00, -1.00, 533.4, 572.8)">a</text><text xml:space="preserve" font-family="Georgia,Georgia" font-size="32.0" fill="#000000" transform="matrix(1.00, 0.00, -0.00, -1.00, 549.6, 572.8)"> </text><text xml:space="preserve" font-family="Georgia,Georgia" font-size="32.0" fill="#000000" transform="matrix(1.00, 0.00, -0.00, -1.00, 557.3, 572.8)">2</text><text xml:space="preserve" font-family="Georgia,Georgia" font-size="32.0" fill="#000000" transform="matrix(1.00, 0.00, -0.00, -1.00, 575.2, 572.8)"> </text><text xml:space="preserve" font-family="Georgia,Georgia" font-size="32.0" fill="#000000" transform="matrix(1.00, 0.00, -0.00, -1.00, 582.9, 572.8)">k</text><text xml:space="preserve" font-family="Georgia,Georgia" font-size="32.0" fill="#000000" transform="matrix(1.00, 0.00, -0.00, -1.00, 600.0, 572.8)">m</text><text xml:space="preserve" font-family="Georgia,Georgia" font-size="32.0" fill="#000000" transform="matrix(1.00, 0.00, -0.00, -1.00, 628.2, 572.8)"> </text><text xml:space="preserve" font-family="Georgia,Georgia" font-size="32.0" fill="#000000" transform="matrix(1.00, 0.00, -0.00, -1.00, 635.9, 572.8)">m</text><text xml:space="preserve" font-family="Georgia,Georgia" font-size="32.0" fill="#000000" transform="matrix(1.00, 0.00, -0.00, -1.00, 664.1, 572.8)">a</text><text xml:space="preserve" font-family="Georgia,Georgia" font-size="32.0" fill="#000000" transform="matrix(1.00, 0.00, -0.00, -1.00, 680.2, 572.8)">t</text><text xml:space="preserve" font-family="Georgia,Georgia" font-size="32.0" fill="#000000" transform="matrix(1.00, 0.00, -0.00, -1.00, 691.3, 572.8)">k</text><text xml:space="preserve" font-family="Georgia,Georgia" font-size="32.0" fill="#000000" transform="matrix(1.00, 0.00, -0.00, -1.00, 708.4, 572.8)">a</text><text xml:space="preserve" font-family="Georgia,Georgia" font-size="32.0" fill="#000000" transform="matrix(1.00, 0.00, -0.00, -1.00, 724.5, 572.8)">n</text><text xml:space="preserve" font-family="Georgia,Georgia" font-size="32.0" fill="#000000" transform="matrix(1.00, 0.00, -0.00, -1.00, 743.4, 572.8)">.</text><text xml:space="preserve" font-family="Georgia,Georgia" font-size="32.0" fill="#000000" transform="matrix(1.00, 0.00, -0.00, -1.00, 752.0, 572.8)"> </text><text xml:space="preserve" font-family="Georgia,Georgia" font-size="32.0" fill="#000000" transform="matrix(1.00, 0.00, -0.00, -1.00, 759.8, 572.8)">M</text><text xml:space="preserve" font-family="Georgia,Georgia" font-size="32.0" fill="#000000" transform="matrix(1.00, 0.00, -0.00, -1.00, 789.4, 572.8)">o</text><text xml:space="preserve" font-family="Georgia,Georgia" font-size="32.0" fill="#000000" transform="matrix(1.00, 0.00, -0.00, -1.00, 806.7, 572.8)">p</text><text xml:space="preserve" font-family="Georgia,Georgia" font-size="32.0" fill="#000000" transform="matrix(1.00, 0.00, -0.00, -1.00, 825.0, 572.8)">o</text><text xml:space="preserve" font-family="Georgia,Georgia" font-size="32.0" fill="#000000" transform="matrix(1.00, 0.00, -0.00, -1.00, 842.2, 572.8)">n</text><text xml:space="preserve" font-family="Georgia,Georgia" font-size="32.0" fill="#000000" transform="matrix(1.00, 0.00, -0.00, -1.00, 861.1, 572.8)"> </text><text xml:space="preserve" font-family="Georgia,Georgia" font-size="32.0" fill="#000000" transform="matrix(1.00, 0.00, -0.00, -1.00, 53.9, 536.8)">t</text><text xml:space="preserve" font-family="Georgia,Georgia" font-size="32.0" fill="#000000" transform="matrix(1.00, 0.00, -0.00, -1.00, 64.9, 536.8)">y</text><text xml:space="preserve" font-family="Georgia,Georgia" font-size="32.0" fill="#000000" transform="matrix(1.00, 0.00, -0.00, -1.00, 80.7, 536.8)">ö</text><text xml:space="preserve" font-family="Georgia,Georgia" font-size="32.0" fill="#000000" transform="matrix(1.00, 0.00, -0.00, -1.00, 97.9, 536.8)">n</text><text xml:space="preserve" font-family="Georgia,Georgia" font-size="32.0" fill="#000000" transform="matrix(1.00, 0.00, -0.00, -1.00, 116.8, 536.8)">t</text><text xml:space="preserve" font-family="Georgia,Georgia" font-size="32.0" fill="#000000" transform="matrix(1.00, 0.00, -0.00, -1.00, 127.9, 536.8)">ä</text><text xml:space="preserve" font-family="Georgia,Georgia" font-size="32.0" fill="#000000" transform="matrix(1.00, 0.00, -0.00, -1.00, 144.0, 536.8)">m</text><text xml:space="preserve" font-family="Georgia,Georgia" font-size="32.0" fill="#000000" transform="matrix(1.00, 0.00, -0.00, -1.00, 172.2, 536.8)">i</text><text xml:space="preserve" font-family="Georgia,Georgia" font-size="32.0" fill="#000000" transform="matrix(1.00, 0.00, -0.00, -1.00, 181.6, 536.8)">s</text><text xml:space="preserve" font-family="Georgia,Georgia" font-size="32.0" fill="#000000" transform="matrix(1.00, 0.00, -0.00, -1.00, 195.4, 536.8)">e</text><text xml:space="preserve" font-family="Georgia,Georgia" font-size="32.0" fill="#000000" transform="matrix(1.00, 0.00, -0.00, -1.00, 210.9, 536.8)">e</text><text xml:space="preserve" font-family="Georgia,Georgia" font-size="32.0" fill="#000000" transform="matrix(1.00, 0.00, -0.00, -1.00, 226.4, 536.8)">n</text><text xml:space="preserve" font-family="Georgia,Georgia" font-size="32.0" fill="#000000" transform="matrix(1.00, 0.00, -0.00, -1.00, 245.3, 536.8)"> </text><text xml:space="preserve" font-family="Georgia,Georgia" font-size="32.0" fill="#000000" transform="matrix(1.00, 0.00, -0.00, -1.00, 253.0, 536.8)">t</text><text xml:space="preserve" font-family="Georgia,Georgia" font-size="32.0" fill="#000000" transform="matrix(1.00, 0.00, -0.00, -1.00, 264.0, 536.8)">a</text><text xml:space="preserve" font-family="Georgia,Georgia" font-size="32.0" fill="#000000" transform="matrix(1.00, 0.00, -0.00, -1.00, 280.2, 536.8)">r</text><text xml:space="preserve" font-family="Georgia,Georgia" font-size="32.0" fill="#000000" transform="matrix(1.00, 0.00, -0.00, -1.00, 293.3, 536.8)">v</text><text xml:space="preserve" font-family="Georgia,Georgia" font-size="32.0" fill="#000000" transform="matrix(1.00, 0.00, -0.00, -1.00, 309.1, 536.8)">i</text><text xml:space="preserve" font-family="Georgia,Georgia" font-size="32.0" fill="#000000" transform="matrix(1.00, 0.00, -0.00, -1.00, 318.5, 536.8)">t</text><text xml:space="preserve" font-family="Georgia,Georgia" font-size="32.0" fill="#000000" transform="matrix(1.00, 0.00, -0.00, -1.00, 329.6, 536.8)">a</text><text xml:space="preserve" font-family="Georgia,Georgia" font-size="32.0" fill="#000000" transform="matrix(1.00, 0.00, -0.00, -1.00, 345.7, 536.8)">a</text><text xml:space="preserve" font-family="Georgia,Georgia" font-size="32.0" fill="#000000" transform="matrix(1.00, 0.00, -0.00, -1.00, 361.8, 536.8)">n</text><text xml:space="preserve" font-family="Georgia,Georgia" font-size="32.0" fill="#000000" transform="matrix(1.00, 0.00, -0.00, -1.00, 380.7, 536.8)"> </text><text xml:space="preserve" font-family="Georgia,Georgia" font-size="32.0" fill="#000000" transform="matrix(1.00, 0.00, -0.00, -1.00, 388.4, 536.8)">2</text><text xml:space="preserve" font-family="Georgia,Georgia" font-size="32.0" fill="#000000" transform="matrix(1.00, 0.00, -0.00, -1.00, 406.3, 536.8)">0</text><text xml:space="preserve" font-family="Georgia,Georgia" font-size="32.0" fill="#000000" transform="matrix(1.00, 0.00, -0.00, -1.00, 425.9, 536.8)">0</text><text xml:space="preserve" font-family="Georgia,Georgia" font-size="32.0" fill="#000000" transform="matrix(1.00, 0.00, -0.00, -1.00, 445.6, 536.8)"> </text><text xml:space="preserve" font-family="Georgia,Georgia" font-size="32.0" fill="#000000" transform="matrix(1.00, 0.00, -0.00, -1.00, 453.3, 536.8)">N</text><text xml:space="preserve" font-family="Georgia,Georgia" font-size="32.0" fill="#000000" transform="matrix(1.00, 0.00, -0.00, -1.00, 477.8, 536.8)"> </text><text xml:space="preserve" font-family="Georgia,Georgia" font-size="32.0" fill="#000000" transform="matrix(1.00, 0.00, -0.00, -1.00, 485.6, 536.8)">v</text><text xml:space="preserve" font-family="Georgia,Georgia" font-size="32.0" fill="#000000" transform="matrix(1.00, 0.00, -0.00, -1.00, 501.4, 536.8)">o</text><text xml:space="preserve" font-family="Georgia,Georgia" font-size="32.0" fill="#000000" transform="matrix(1.00, 0.00, -0.00, -1.00, 518.7, 536.8)">i</text><text xml:space="preserve" font-family="Georgia,Georgia" font-size="32.0" fill="#000000" transform="matrix(1.00, 0.00, -0.00, -1.00, 528.1, 536.8)">m</text><text xml:space="preserve" font-family="Georgia,Georgia" font-size="32.0" fill="#000000" transform="matrix(1.00, 0.00, -0.00, -1.00, 556.3, 536.8)">a</text><text xml:space="preserve" font-family="Georgia,Georgia" font-size="32.0" fill="#000000" transform="matrix(1.00, 0.00, -0.00, -1.00, 572.4, 536.8)">.</text><text xml:space="preserve" font-family="Georgia,Georgia" font-size="32.0" fill="#000000" transform="matrix(1.00, 0.00, -0.00, -1.00, 581.0, 536.8)"> </text><text xml:space="preserve" font-family="Georgia,Georgia" font-size="32.0" fill="#000000" transform="matrix(1.00, 0.00, -0.00, -1.00, 588.7, 536.8)">K</text><text xml:space="preserve" font-family="Georgia,Georgia" font-size="32.0" fill="#000000" transform="matrix(1.00, 0.00, -0.00, -1.00, 610.9, 536.8)">u</text><text xml:space="preserve" font-family="Georgia,Georgia" font-size="32.0" fill="#000000" transform="matrix(1.00, 0.00, -0.00, -1.00, 629.4, 536.8)">i</text><text xml:space="preserve" font-family="Georgia,Georgia" font-size="32.0" fill="#000000" transform="matrix(1.00, 0.00, -0.00, -1.00, 638.7, 536.8)">n</text><text xml:space="preserve" font-family="Georgia,Georgia" font-size="32.0" fill="#000000" transform="matrix(1.00, 0.00, -0.00, -1.00, 657.6, 536.8)">k</text><text xml:space="preserve" font-family="Georgia,Georgia" font-size="32.0" fill="#000000" transform="matrix(1.00, 0.00, -0.00, -1.00, 674.8, 536.8)">a</text><text xml:space="preserve" font-family="Georgia,Georgia" font-size="32.0" fill="#000000" transform="matrix(1.00, 0.00, -0.00, -1.00, 690.9, 536.8)"> </text><text xml:space="preserve" font-family="Georgia,Georgia" font-size="32.0" fill="#000000" transform="matrix(1.00, 0.00, -0.00, -1.00, 698.6, 536.8)">s</text><text xml:space="preserve" font-family="Georgia,Georgia" font-size="32.0" fill="#000000" transform="matrix(1.00, 0.00, -0.00, -1.00, 712.4, 536.8)">u</text><text xml:space="preserve" font-family="Georgia,Georgia" font-size="32.0" fill="#000000" transform="matrix(1.00, 0.00, -0.00, -1.00, 730.9, 536.8)">u</text><text xml:space="preserve" font-family="Georgia,Georgia" font-size="32.0" fill="#000000" transform="matrix(1.00, 0.00, -0.00, -1.00, 749.3, 536.8)">r</text><text xml:space="preserve" font-family="Georgia,Georgia" font-size="32.0" fill="#000000" transform="matrix(1.00, 0.00, -0.00, -1.00, 762.4, 536.8)">e</text><text xml:space="preserve" font-family="Georgia,Georgia" font-size="32.0" fill="#000000" transform="matrix(1.00, 0.00, -0.00, -1.00, 777.8, 536.8)">n</text><text xml:space="preserve" font-family="Georgia,Georgia" font-size="32.0" fill="#000000" transform="matrix(1.00, 0.00, -0.00, -1.00, 796.7, 536.8)"> </text><text xml:space="preserve" font-family="Georgia,Georgia" font-size="32.0" fill="#000000" transform="matrix(1.00, 0.00, -0.00, -1.00, 804.5, 536.8)">t</text><text xml:space="preserve" font-family="Georgia,Georgia" font-size="32.0" fill="#000000" transform="matrix(1.00, 0.00, -0.00, -1.00, 815.5, 536.8)">y</text><text xml:space="preserve" font-family="Georgia,Georgia" font-size="32.0" fill="#000000" transform="matrix(1.00, 0.00, -0.00, -1.00, 831.3, 536.8)">ö</text><text xml:space="preserve" font-family="Georgia,Georgia" font-size="32.0" fill="#000000" transform="matrix(1.00, 0.00, -0.00, -1.00, 848.5, 536.8)">n</text><text xml:space="preserve" font-family="Georgia,Georgia" font-size="32.0" fill="#000000" transform="matrix(1.00, 0.00, -0.00, -1.00, 867.4, 536.8)"> </text><text xml:space="preserve" font-family="Georgia,Georgia" font-size="32.0" fill="#000000" transform="matrix(1.00, 0.00, -0.00, -1.00, 875.2, 536.8)">h</text><text xml:space="preserve" font-family="Georgia,Georgia" font-size="32.0" fill="#000000" transform="matrix(1.00, 0.00, -0.00, -1.00, 893.8, 536.8)">e</text><text xml:space="preserve" font-family="Georgia,Georgia" font-size="32.0" fill="#000000" transform="matrix(1.00, 0.00, -0.00, -1.00, 909.3, 536.8)">n</text><text xml:space="preserve" font-family="Georgia,Georgia" font-size="32.0" fill="#000000" transform="matrix(1.00, 0.00, -0.00, -1.00, 928.2, 536.8)">k</text><text xml:space="preserve" font-family="Georgia,Georgia" font-size="32.0" fill="#000000" transform="matrix(1.00, 0.00, -0.00, -1.00, 945.3, 536.8)">i</text><text xml:space="preserve" font-family="Georgia,Georgia" font-size="32.0" fill="#000000" transform="matrix(1.00, 0.00, -0.00, -1.00, 954.7, 536.8)">l</text><text xml:space="preserve" font-family="Georgia,Georgia" font-size="32.0" fill="#000000" transform="matrix(1.00, 0.00, -0.00, -1.00, 963.8, 536.8)">ö</text><text xml:space="preserve" font-family="Georgia,Georgia" font-size="32.0" fill="#000000" transform="matrix(1.00, 0.00, -0.00, -1.00, 981.1, 536.8)"> </text><text xml:space="preserve" font-family="Georgia,Georgia" font-size="32.0" fill="#000000" transform="matrix(1.00, 0.00, -0.00, -1.00, 53.9, 500.8)">t</text><text xml:space="preserve" font-family="Georgia,Georgia" font-size="32.0" fill="#000000" transform="matrix(1.00, 0.00, -0.00, -1.00, 64.9, 500.8)">e</text><text xml:space="preserve" font-family="Georgia,Georgia" font-size="32.0" fill="#000000" transform="matrix(1.00, 0.00, -0.00, -1.00, 80.4, 500.8)">k</text><text xml:space="preserve" font-family="Georgia,Georgia" font-size="32.0" fill="#000000" transform="matrix(1.00, 0.00, -0.00, -1.00, 97.5, 500.8)">e</text><text xml:space="preserve" font-family="Georgia,Georgia" font-size="32.0" fill="#000000" transform="matrix(1.00, 0.00, -0.00, -1.00, 113.0, 500.8)">e</text><text xml:space="preserve" font-family="Georgia,Georgia" font-size="32.0" fill="#000000" transform="matrix(1.00, 0.00, -0.00, -1.00, 128.5, 500.8)">?</text><text xml:space="preserve" font-family="Georgia,Georgia" font-size="32.0" fill="#000000" transform="matrix(1.00, 0.00, -0.00, -1.00, 58.8, 408.0)">A</text><text xml:space="preserve" font-family="Georgia,Georgia" font-size="32.0" fill="#000000" transform="matrix(1.00, 0.00, -0.00, -1.00, 80.2, 408.0)">l</text><text xml:space="preserve" font-family="Georgia,Georgia" font-size="32.0" fill="#000000" transform="matrix(1.00, 0.00, -0.00, -1.00, 89.4, 408.0)">k</text><text xml:space="preserve" font-family="Georgia,Georgia" font-size="32.0" fill="#000000" transform="matrix(1.00, 0.00, -0.00, -1.00, 106.5, 408.0)">u</text><text xml:space="preserve" font-family="Georgia,Georgia" font-size="32.0" fill="#000000" transform="matrix(1.00, 0.00, -0.00, -1.00, 124.9, 408.0)">a</text><text xml:space="preserve" font-family="Georgia,Georgia" font-size="32.0" fill="#000000" transform="matrix(1.00, 0.00, -0.00, -1.00, 141.0, 408.0)">r</text><text xml:space="preserve" font-family="Georgia,Georgia" font-size="32.0" fill="#000000" transform="matrix(1.00, 0.00, -0.00, -1.00, 154.1, 408.0)">v</text><text xml:space="preserve" font-family="Georgia,Georgia" font-size="32.0" fill="#000000" transform="matrix(1.00, 0.00, -0.00, -1.00, 170.0, 408.0)">o</text><text xml:space="preserve" font-family="Georgia,Georgia" font-size="32.0" fill="#000000" transform="matrix(1.00, 0.00, -0.00, -1.00, 187.3, 408.0)">t</text><text xml:space="preserve" font-family="Georgia,Georgia" font-size="32.0" fill="#000000" transform="matrix(1.00, 0.00, -0.00, -1.00, 198.3, 408.0)">:</text><text xml:space="preserve" font-family="Georgia,Georgia" font-size="32.0" fill="#000000" transform="matrix(1.00, 0.00, -0.00, -1.00, 58.8, 338.0)">K</text><text xml:space="preserve" font-family="Georgia,Georgia" font-size="32.0" fill="#000000" transform="matrix(1.00, 0.00, -0.00, -1.00, 81.0, 338.0)">a</text><text xml:space="preserve" font-family="Georgia,Georgia" font-size="32.0" fill="#000000" transform="matrix(1.00, 0.00, -0.00, -1.00, 97.1, 338.0)">a</text><text xml:space="preserve" font-family="Georgia,Georgia" font-size="32.0" fill="#000000" transform="matrix(1.00, 0.00, -0.00, -1.00, 113.3, 338.0)">v</text><text xml:space="preserve" font-family="Georgia,Georgia" font-size="32.0" fill="#000000" transform="matrix(1.00, 0.00, -0.00, -1.00, 129.1, 338.0)">a</text><text xml:space="preserve" font-family="Georgia,Georgia" font-size="32.0" fill="#000000" transform="matrix(1.00, 0.00, -0.00, -1.00, 145.3, 338.0)">:</text><text xml:space="preserve" font-family="Georgia,Georgia" font-size="32.0" fill="#000000" transform="matrix(1.00, 0.00, -0.00, -1.00, 58.8, 250.0)">L</text><text xml:space="preserve" font-family="Georgia,Georgia" font-size="32.0" fill="#000000" transform="matrix(1.00, 0.00, -0.00, -1.00, 78.1, 250.0)">a</text><text xml:space="preserve" font-family="Georgia,Georgia" font-size="32.0" fill="#000000" transform="matrix(1.00, 0.00, -0.00, -1.00, 94.2, 250.0)">s</text><text xml:space="preserve" font-family="Georgia,Georgia" font-size="32.0" fill="#000000" transform="matrix(1.00, 0.00, -0.00, -1.00, 108.0, 250.0)">k</text><text xml:space="preserve" font-family="Georgia,Georgia" font-size="32.0" fill="#000000" transform="matrix(1.00, 0.00, -0.00, -1.00, 125.1, 250.0)">u</text><text xml:space="preserve" font-family="Georgia,Georgia" font-size="32.0" fill="#000000" transform="matrix(1.00, 0.00, -0.00, -1.00, 143.6, 250.0)">:</text><text xml:space="preserve" font-family="Georgia,Georgia" font-size="32.0" fill="#000000" transform="matrix(1.00, 0.00, -0.00, -1.00, 153.5, 250.0)"> </text><text xml:space="preserve" font-family="Georgia,Georgia" font-size="32.0" fill="#000000" transform="matrix(1.00, 0.00, -0.00, -1.00, 252.9, 404.4)">F</text><text xml:space="preserve" font-family="Georgia,Georgia" font-size="32.0" fill="#000000" transform="matrix(1.00, 0.00, -0.00, -1.00, 272.0, 404.4)"> </text><text xml:space="preserve" font-family="Georgia,Georgia" font-size="32.0" fill="#000000" transform="matrix(1.00, 0.00, -0.00, -1.00, 279.8, 404.4)">=</text><text xml:space="preserve" font-family="Georgia,Georgia" font-size="32.0" fill="#000000" transform="matrix(1.00, 0.00, -0.00, -1.00, 300.3, 404.4)"> </text><text xml:space="preserve" font-family="Georgia,Georgia" font-size="32.0" fill="#000000" transform="matrix(1.00, 0.00, -0.00, -1.00, 308.1, 404.4)">2</text><text xml:space="preserve" font-family="Georgia,Georgia" font-size="32.0" fill="#000000" transform="matrix(1.00, 0.00, -0.00, -1.00, 325.9, 404.4)">0</text><text xml:space="preserve" font-family="Georgia,Georgia" font-size="32.0" fill="#000000" transform="matrix(1.00, 0.00, -0.00, -1.00, 345.6, 404.4)">0</text><text xml:space="preserve" font-family="Georgia,Georgia" font-size="32.0" fill="#000000" transform="matrix(1.00, 0.00, -0.00, -1.00, 365.2, 404.4)">N</text><text xml:space="preserve" font-family="Georgia,Georgia" font-size="32.0" fill="#000000" transform="matrix(1.00, 0.00, -0.00, -1.00, 475.6, 404.4)">s</text><text xml:space="preserve" font-family="Georgia,Georgia" font-size="32.0" fill="#000000" transform="matrix(1.00, 0.00, -0.00, -1.00, 489.4, 404.4)"> </text><text xml:space="preserve" font-family="Georgia,Georgia" font-size="32.0" fill="#000000" transform="matrix(1.00, 0.00, -0.00, -1.00, 497.2, 404.4)">=</text><text xml:space="preserve" font-family="Georgia,Georgia" font-size="32.0" fill="#000000" transform="matrix(1.00, 0.00, -0.00, -1.00, 517.7, 404.4)"> </text><text xml:space="preserve" font-family="Georgia,Georgia" font-size="32.0" fill="#000000" transform="matrix(1.00, 0.00, -0.00, -1.00, 525.5, 404.4)">2</text><text xml:space="preserve" font-family="Georgia,Georgia" font-size="32.0" fill="#000000" transform="matrix(1.00, 0.00, -0.00, -1.00, 543.3, 404.4)"> </text><text xml:space="preserve" font-family="Georgia,Georgia" font-size="32.0" fill="#000000" transform="matrix(1.00, 0.00, -0.00, -1.00, 551.0, 404.4)">k</text><text xml:space="preserve" font-family="Georgia,Georgia" font-size="32.0" fill="#000000" transform="matrix(1.00, 0.00, -0.00, -1.00, 568.1, 404.4)">m</text><text xml:space="preserve" font-family="Georgia,Georgia" font-size="32.0" fill="#000000" transform="matrix(1.00, 0.00, -0.00, -1.00, 621.6, 404.4)">=</text><text xml:space="preserve" font-family="Georgia,Georgia" font-size="32.0" fill="#000000" transform="matrix(1.00, 0.00, -0.00, -1.00, 642.2, 404.4)"> </text><text xml:space="preserve" font-family="Georgia,Georgia" font-size="32.0" fill="#000000" transform="matrix(1.00, 0.00, -0.00, -1.00, 649.9, 404.4)">2</text><text xml:space="preserve" font-family="Georgia,Georgia" font-size="32.0" fill="#000000" transform="matrix(1.00, 0.00, -0.00, -1.00, 667.8, 404.4)">0</text><text xml:space="preserve" font-family="Georgia,Georgia" font-size="32.0" fill="#000000" transform="matrix(1.00, 0.00, -0.00, -1.00, 687.4, 404.4)">0</text><text xml:space="preserve" font-family="Georgia,Georgia" font-size="32.0" fill="#000000" transform="matrix(1.00, 0.00, -0.00, -1.00, 707.0, 404.4)">0</text><text xml:space="preserve" font-family="Georgia,Georgia" font-size="32.0" fill="#000000" transform="matrix(1.00, 0.00, -0.00, -1.00, 726.7, 404.4)"> </text><text xml:space="preserve" font-family="Georgia,Georgia" font-size="32.0" fill="#000000" transform="matrix(1.00, 0.00, -0.00, -1.00, 734.4, 404.4)">m</text><text xml:space="preserve" font-family="Georgia,Georgia" font-size="32.0" fill="#000000" transform="matrix(1.00, 0.00, -0.00, -1.00, 248.9, 333.4)">W</text><text xml:space="preserve" font-family="Georgia,Georgia" font-size="32.0" fill="#000000" transform="matrix(1.00, 0.00, -0.00, -1.00, 280.1, 333.4)"> </text><text xml:space="preserve" font-family="Georgia,Georgia" font-size="32.0" fill="#000000" transform="matrix(1.00, 0.00, -0.00, -1.00, 287.8, 333.4)">=</text><text xml:space="preserve" font-family="Georgia,Georgia" font-size="32.0" fill="#000000" transform="matrix(1.00, 0.00, -0.00, -1.00, 308.4, 333.4)"> </text><text xml:space="preserve" font-family="Georgia,Georgia" font-size="32.0" fill="#000000" transform="matrix(1.00, 0.00, -0.00, -1.00, 316.1, 333.4)">F</text><text xml:space="preserve" font-family="Georgia,Georgia" font-size="32.0" fill="#000000" transform="matrix(1.00, 0.00, -0.00, -1.00, 335.3, 333.4)">s</text><text xml:space="preserve" font-family="Georgia,Georgia" font-size="32.0" fill="#000000" transform="matrix(1.00, 0.00, -0.00, -1.00, 247.9, 243.4)">W</text><text xml:space="preserve" font-family="Georgia,Georgia" font-size="32.0" fill="#000000" transform="matrix(1.00, 0.00, -0.00, -1.00, 279.1, 243.4)"> </text><text xml:space="preserve" font-family="Georgia,Georgia" font-size="32.0" fill="#000000" transform="matrix(1.00, 0.00, -0.00, -1.00, 286.8, 243.4)">=</text><text xml:space="preserve" font-family="Georgia,Georgia" font-size="32.0" fill="#000000" transform="matrix(1.00, 0.00, -0.00, -1.00, 307.4, 243.4)"> </text><text xml:space="preserve" font-family="Georgia,Georgia" font-size="32.0" fill="#000000" transform="matrix(1.00, 0.00, -0.00, -1.00, 315.1, 243.4)">F</text><text xml:space="preserve" font-family="Georgia,Georgia" font-size="32.0" fill="#000000" transform="matrix(1.00, 0.00, -0.00, -1.00, 334.3, 243.4)">s</text><text xml:space="preserve" font-family="Georgia,Georgia" font-size="32.0" fill="#000000" transform="matrix(1.00, 0.00, -0.00, -1.00, 348.2, 243.4)"> </text><text xml:space="preserve" font-family="Georgia,Georgia" font-size="32.0" fill="#000000" transform="matrix(1.00, 0.00, -0.00, -1.00, 355.9, 243.4)">=</text><text xml:space="preserve" font-family="Georgia,Georgia" font-size="32.0" fill="#000000" transform="matrix(1.00, 0.00, -0.00, -1.00, 376.5, 243.4)"> </text><text xml:space="preserve" font-family="Georgia,Georgia" font-size="32.0" fill="#000000" transform="matrix(1.00, 0.00, -0.00, -1.00, 384.3, 243.4)">2</text><text xml:space="preserve" font-family="Georgia,Georgia" font-size="32.0" fill="#000000" transform="matrix(1.00, 0.00, -0.00, -1.00, 402.1, 243.4)">0</text><text xml:space="preserve" font-family="Georgia,Georgia" font-size="32.0" fill="#000000" transform="matrix(1.00, 0.00, -0.00, -1.00, 421.7, 243.4)">0</text><text xml:space="preserve" font-family="Georgia,Georgia" font-size="32.0" fill="#000000" transform="matrix(1.00, 0.00, -0.00, -1.00, 441.4, 243.4)">N</text><text xml:space="preserve" font-family="Georgia,Georgia" font-size="32.0" fill="#000000" transform="matrix(1.00, 0.00, -0.00, -1.00, 465.9, 243.4)"> </text><text xml:space="preserve" font-family="EuphemiaUCAS,Euphemia UCAS" font-size="32.0" fill="#000000" transform="matrix(1.00, 0.00, -0.00, -1.00, 473.5, 243.4)">ᐧ</text><text xml:space="preserve" font-family="Georgia,Georgia" font-size="32.0" fill="#000000" transform="matrix(1.00, 0.00, -0.00, -1.00, 480.2, 243.4)"> </text><text xml:space="preserve" font-family="Georgia,Georgia" font-size="32.0" fill="#000000" transform="matrix(1.00, 0.00, -0.00, -1.00, 487.9, 243.4)">2</text><text xml:space="preserve" font-family="Georgia,Georgia" font-size="32.0" fill="#000000" transform="matrix(1.00, 0.00, -0.00, -1.00, 505.8, 243.4)">0</text><text xml:space="preserve" font-family="Georgia,Georgia" font-size="32.0" fill="#000000" transform="matrix(1.00, 0.00, -0.00, -1.00, 525.4, 243.4)">0</text><text xml:space="preserve" font-family="Georgia,Georgia" font-size="32.0" fill="#000000" transform="matrix(1.00, 0.00, -0.00, -1.00, 545.1, 243.4)">0</text><text xml:space="preserve" font-family="Georgia,Georgia" font-size="32.0" fill="#000000" transform="matrix(1.00, 0.00, -0.00, -1.00, 564.7, 243.4)">m</text><text xml:space="preserve" font-family="Georgia,Georgia" font-size="32.0" fill="#000000" transform="matrix(1.00, 0.00, -0.00, -1.00, 608.9, 246.0)">=</text><text xml:space="preserve" font-family="Georgia,Georgia" font-size="32.0" fill="#000000" transform="matrix(1.00, 0.00, -0.00, -1.00, 629.4, 246.0)"> </text><text xml:space="preserve" font-family="Georgia,Georgia" font-size="32.0" fill="#000000" transform="matrix(1.00, 0.00, -0.00, -1.00, 637.2, 246.0)">4</text><text xml:space="preserve" font-family="Georgia,Georgia" font-size="32.0" fill="#000000" transform="matrix(1.00, 0.00, -0.00, -1.00, 655.2, 246.0)">0</text><text xml:space="preserve" font-family="Georgia,Georgia" font-size="32.0" fill="#000000" transform="matrix(1.00, 0.00, -0.00, -1.00, 674.9, 246.0)">0</text><text xml:space="preserve" font-family="Georgia,Georgia" font-size="32.0" fill="#000000" transform="matrix(1.00, 0.00, -0.00, -1.00, 694.5, 246.0)"> </text><text xml:space="preserve" font-family="Georgia,Georgia" font-size="32.0" fill="#000000" transform="matrix(1.00, 0.00, -0.00, -1.00, 702.3, 246.0)">0</text><text xml:space="preserve" font-family="Georgia,Georgia" font-size="32.0" fill="#000000" transform="matrix(1.00, 0.00, -0.00, -1.00, 721.9, 246.0)">0</text><text xml:space="preserve" font-family="Georgia,Georgia" font-size="32.0" fill="#000000" transform="matrix(1.00, 0.00, -0.00, -1.00, 741.5, 246.0)">0</text><text xml:space="preserve" font-family="Georgia,Georgia" font-size="32.0" fill="#000000" transform="matrix(1.00, 0.00, -0.00, -1.00, 761.2, 246.0)"> </text><text xml:space="preserve" font-family="Georgia,Georgia" font-size="32.0" fill="#000000" transform="matrix(1.00, 0.00, -0.00, -1.00, 768.9, 246.0)">N</text><text xml:space="preserve" font-family="Georgia,Georgia" font-size="32.0" fill="#000000" transform="matrix(1.00, 0.00, -0.00, -1.00, 793.5, 246.0)">m</text><text xml:space="preserve" font-family="Georgia,Georgia" font-size="32.0" fill="#000000" transform="matrix(1.00, 0.00, -0.00, -1.00, 826.6, 246.0)">=</text><text xml:space="preserve" font-family="Georgia,Georgia" font-size="32.0" fill="#000000" transform="matrix(1.00, 0.00, -0.00, -1.00, 847.2, 246.0)"> </text><text xml:space="preserve" font-family="Georgia,Georgia" font-size="32.0" fill="#000000" transform="matrix(1.00, 0.00, -0.00, -1.00, 854.9, 246.0)">4</text><text xml:space="preserve" font-family="Georgia,Georgia" font-size="32.0" fill="#000000" transform="matrix(1.00, 0.00, -0.00, -1.00, 873.0, 246.0)">0</text><text xml:space="preserve" font-family="Georgia,Georgia" font-size="32.0" fill="#000000" transform="matrix(1.00, 0.00, -0.00, -1.00, 892.6, 246.0)">0</text><text xml:space="preserve" font-family="Georgia,Georgia" font-size="32.0" fill="#000000" transform="matrix(1.00, 0.00, -0.00, -1.00, 912.3, 246.0)"> </text><text xml:space="preserve" font-family="Georgia,Georgia" font-size="32.0" fill="#000000" transform="matrix(1.00, 0.00, -0.00, -1.00, 920.0, 246.0)">0</text><text xml:space="preserve" font-family="Georgia,Georgia" font-size="32.0" fill="#000000" transform="matrix(1.00, 0.00, -0.00, -1.00, 939.6, 246.0)">0</text><text xml:space="preserve" font-family="Georgia,Georgia" font-size="32.0" fill="#000000" transform="matrix(1.00, 0.00, -0.00, -1.00, 959.3, 246.0)">0</text><text xml:space="preserve" font-family="Georgia,Georgia" font-size="32.0" fill="#000000" transform="matrix(1.00, 0.00, -0.00, -1.00, 978.9, 246.0)"> </text><text xml:space="preserve" font-family="Georgia,Georgia" font-size="32.0" fill="#000000" transform="matrix(1.00, 0.00, -0.00, -1.00, 986.6, 246.0)">J</text><text xml:space="preserve" font-family="Georgia,Georgia" font-size="32.0" fill="#000000" transform="matrix(1.00, 0.00, -0.00, -1.00, 291.9, 189.0)">=</text><text xml:space="preserve" font-family="Georgia,Georgia" font-size="32.0" fill="#000000" transform="matrix(1.00, 0.00, -0.00, -1.00, 312.4, 189.0)"> </text><text xml:space="preserve" font-family="Georgia,Georgia" font-size="32.0" fill="#000000" transform="matrix(1.00, 0.00, -0.00, -1.00, 320.2, 189.0)">4</text><text xml:space="preserve" font-family="Georgia,Georgia" font-size="32.0" fill="#000000" transform="matrix(1.00, 0.00, -0.00, -1.00, 338.2, 189.0)">0</text><text xml:space="preserve" font-family="Georgia,Georgia" font-size="32.0" fill="#000000" transform="matrix(1.00, 0.00, -0.00, -1.00, 357.9, 189.0)">0</text><text xml:space="preserve" font-family="Georgia,Georgia" font-size="32.0" fill="#000000" transform="matrix(1.00, 0.00, -0.00, -1.00, 377.5, 189.0)"> </text><text xml:space="preserve" font-family="Georgia,Georgia" font-size="32.0" fill="#000000" transform="matrix(1.00, 0.00, -0.00, -1.00, 385.3, 189.0)">k</text><text xml:space="preserve" font-family="Georgia,Georgia" font-size="32.0" fill="#000000" transform="matrix(1.00, 0.00, -0.00, -1.00, 402.4, 189.0)">J</text></g></svg>