<?xml version="1.0" encoding="UTF-8" standalone="no"?><svg xmlns="http://www.w3.org/2000/svg" xmlns:xlink="http://www.w3.org/1999/xlink" clip-rule="evenodd" stroke-miterlimit="10" viewBox="0 0 566 434"><desc>SVG generated by Keynote</desc><defs></defs><g transform="matrix(1.00, 0.00, -0.00, -1.00, 0.0, 434.0)"><g><clipPath id="clip0x7fda2de2bd80"><path d="M 87.1 29.1 L 551.7 253.6 L 565.6 224.8 L 101.0 0.3 Z M 87.1 29.1 "></path></clipPath><g clip-path="url(#clip0x7fda2de2bd80)"><image xlink:href="9AA79EF64C0122817C43CCD3723D93D3.png" width="514.00" height="30.00" transform="matrix(0.90, 0.44, 0.44, -0.90, 88.4, 28.6)" opacity="0.50"></image><path d="M 92.4 29.2 L 549.8 250.3 L 560.3 228.6 L 102.9 7.6 Z M 92.4 29.2 " fill="#52575F"></path></g></g><g><clipPath id="clip0x7fda2dd19ec0"><path d="M 238.8 324.2 L 372.9 389.0 L 463.4 201.7 L 329.3 136.9 Z M 238.8 324.2 "></path></clipPath><g clip-path="url(#clip0x7fda2dd19ec0)"><image xlink:href="3D7CEC3BB85D6E50EA2876F19B7AC62B.png" width="147.00" height="206.00" transform="matrix(0.90, 0.43, 0.44, -0.90, 240.1, 323.7)" opacity="0.50"></image></g></g><g><clipPath id="clip0x7fda2de2cf90"><path d="M 238.8 324.2 L 372.9 389.0 L 463.4 201.7 L 329.3 136.9 Z M 238.8 324.2 "></path></clipPath><g clip-path="url(#clip0x7fda2de2cf90)"><g><clipPath id="clip0x7fda2de2d6c0"><path d="M 244.1 324.3 L 371.0 385.6 L 458.0 205.5 L 331.1 144.2 Z M 244.1 324.3 "></path></clipPath><g clip-path="url(#clip0x7fda2de2d6c0)"><image xlink:href="../../C69A18FE-1B47-4EC7-AD9F-07D47233B8A0/assets/C3C0FC898C94653CAF8AD846D6CCD108.png" width="600.00" height="600.00" transform="matrix(0.45, 0.22, 0.22, -0.45, 244.1, 324.3)"></image></g></g></g></g><g><clipPath id="clip0x7fda2dd1f1f0"><path d="M 328.9 146.5 L 457.2 208.5 L 459.8 203.1 L 331.5 141.1 Z M 328.9 146.5 "></path></clipPath><g clip-path="url(#clip0x7fda2dd1f1f0)"><path d="M 0.0 0.0 L 140.5 0.0 " fill="none" stroke="#EB5C56" stroke-width="4.00" transform="matrix(0.90, 0.44, 0.44, -0.90, 331.1, 144.3)"></path></g></g><g><clipPath id="clip0x7fda2dd1f7d0"><path d="M 341.4 244.1 L 373.4 244.1 L 373.4 276.1 L 341.4 276.1 Z M 341.4 244.1 "></path></clipPath><g clip-path="url(#clip0x7fda2dd1f7d0)"><image xlink:href="../../8B522FAD-DD10-4053-B1D9-3FA46E910020/assets/92242BE40EA4AF7E8EDF21150630AB19.png" width="30.00" height="30.00" transform="matrix(1.00, 0.00, -0.00, -1.00, 342.4, 275.1)" opacity="0.50"></image><path d="M 365.9 270.6 C 370.6 265.9 370.6 258.3 365.9 253.7 C 361.2 249.0 353.6 249.0 349.0 253.7 C 344.3 258.3 344.3 265.9 349.0 270.6 C 353.6 275.3 361.2 275.3 365.9 270.6 Z M 365.9 270.6 " fill="#0B5C18"></path></g></g><g><clipPath id="clip0x7fda2dd21310"><path d="M 370.4 263.3 L 370.4 175.5 L 344.4 175.5 L 344.4 263.3 Z M 370.4 263.3 "></path></clipPath><g clip-path="url(#clip0x7fda2dd21310)"><path d="M 0.3 0.4 L 61.8 0.4 L 64.3 0.4 " fill="none" stroke="#851001" stroke-width="6.00" transform="matrix(0.00, -1.00, -1.00, 0.00, 357.4, 262.3)"></path><path d="M 345.0 201.0 L 357.0 177.0 L 369.0 201.0 Z M 345.0 201.0 " fill="#851001"></path></g></g><g><clipPath id="clip0x7fda2dd22e80"><path d="M 359.9 360.3 L 359.9 38.1 L 355.0 38.1 L 355.0 360.3 Z M 359.9 360.3 "></path></clipPath><g clip-path="url(#clip0x7fda2dd22e80)"><path d="M -0.1 0.4 L 317.9 0.4 " fill="none" stroke="#000000" stroke-width="2.00" stroke-dasharray="2.0, 4.0" transform="matrix(0.00, -1.00, -1.00, 0.00, 357.4, 357.9)"></path></g></g></g></svg>