<?xml version="1.0" encoding="UTF-8" standalone="no"?><svg xmlns="http://www.w3.org/2000/svg" xmlns:xlink="http://www.w3.org/1999/xlink" clip-rule="evenodd" stroke-miterlimit="10" viewBox="0 0 538 521"><desc>SVG generated by Keynote</desc><defs></defs><g transform="matrix(1.00, 0.00, -0.00, -1.00, 0.0, 521.0)"><g><clipPath id="clip0x7fda2dd2e470"><path d="M 135.8 23.8 L 515.7 373.0 L 537.3 349.5 L 157.4 0.2 Z M 135.8 23.8 "></path></clipPath><g clip-path="url(#clip0x7fda2dd2e470)"><image xlink:href="../../C69A18FE-1B47-4EC7-AD9F-07D47233B8A0/assets/9AA79EF64C0122817C43CCD3723D93D3.png" width="514.00" height="30.00" transform="matrix(0.74, 0.68, 0.68, -0.74, 137.2, 23.7)" opacity="0.50"></image><path d="M 141.4 25.5 L 515.4 369.4 L 531.7 351.7 L 157.7 7.9 Z M 141.4 25.5 " fill="#52575F"></path></g></g><g><clipPath id="clip0x7fda2de30220"><path d="M 195.7 350.1 L 305.3 450.9 L 446.1 297.8 L 336.5 197.0 Z M 195.7 350.1 "></path></clipPath><g clip-path="url(#clip0x7fda2de30220)"><image xlink:href="../../C69A18FE-1B47-4EC7-AD9F-07D47233B8A0/assets/3D7CEC3BB85D6E50EA2876F19B7AC62B.png" width="147.00" height="206.00" transform="matrix(0.74, 0.68, 0.68, -0.74, 197.1, 350.1)" opacity="0.50"></image></g></g><g><clipPath id="clip0x7fda2de27b10"><path d="M 195.7 350.1 L 305.3 450.9 L 446.1 297.8 L 336.5 197.0 Z M 195.7 350.1 "></path></clipPath><g clip-path="url(#clip0x7fda2de27b10)"><g><clipPath id="clip0x7fda2de33450"><path d="M 201.3 351.9 L 305.1 447.3 L 440.5 300.0 L 336.7 204.6 Z M 201.3 351.9 "></path></clipPath><g clip-path="url(#clip0x7fda2de33450)"><image xlink:href="../../C69A18FE-1B47-4EC7-AD9F-07D47233B8A0/assets/C3C0FC898C94653CAF8AD846D6CCD108.png" width="600.00" height="600.00" transform="matrix(0.37, 0.34, 0.34, -0.37, 201.3, 351.9)"></image></g></g></g></g><g><clipPath id="clip0x7fda2de34950"><path d="M 333.9 206.2 L 438.8 302.6 L 442.8 298.2 L 337.9 201.8 Z M 333.9 206.2 "></path></clipPath><g clip-path="url(#clip0x7fda2de34950)"><path d="M 0.0 0.0 L 140.5 0.0 " fill="none" stroke="#EB5C56" stroke-width="4.00" transform="matrix(0.74, 0.68, 0.68, -0.74, 336.7, 204.7)"></path></g></g><g><clipPath id="clip0x7fda2de35990"><path d="M 310.1 303.7 L 342.1 303.7 L 342.1 335.7 L 310.1 335.7 Z M 310.1 303.7 "></path></clipPath><g clip-path="url(#clip0x7fda2de35990)"><image xlink:href="../../8B522FAD-DD10-4053-B1D9-3FA46E910020/assets/92242BE40EA4AF7E8EDF21150630AB19.png" width="30.00" height="30.00" transform="matrix(1.00, 0.00, -0.00, -1.00, 311.1, 334.7)" opacity="0.50"></image><path d="M 334.6 330.2 C 339.3 325.5 339.3 317.9 334.6 313.2 C 329.9 308.5 322.3 308.5 317.7 313.2 C 313.0 317.9 313.0 325.5 317.7 330.2 C 322.3 334.9 329.9 334.9 334.6 330.2 Z M 334.6 330.2 " fill="#0B5C18"></path></g></g><g><clipPath id="clip0x7fda2de374d0"><path d="M 339.1 322.9 L 339.1 235.1 L 313.1 235.1 L 313.1 322.9 Z M 339.1 322.9 "></path></clipPath><g clip-path="url(#clip0x7fda2de374d0)"><path d="M -0.1 0.1 L 61.8 0.1 L 64.9 0.1 " fill="none" stroke="#851001" stroke-width="6.00" transform="matrix(0.00, -1.00, -1.00, 0.00, 326.1, 321.9)"></path><path d="M 314.0 260.0 L 326.0 236.0 L 338.0 260.0 Z M 314.0 260.0 " fill="#851001"></path></g></g><g><clipPath id="clip0x7fda2de39040"><path d="M 328.6 419.8 L 328.6 97.7 L 323.7 97.7 L 323.7 419.8 Z M 328.6 419.8 "></path></clipPath><g clip-path="url(#clip0x7fda2de39040)"><path d="M 0.4 0.1 L 317.4 0.1 " fill="none" stroke="#000000" stroke-width="2.00" stroke-dasharray="2.0, 4.0" transform="matrix(0.00, -1.00, -1.00, 0.00, 326.1, 417.4)"></path></g></g></g></svg>