<?xml version="1.0" encoding="UTF-8" standalone="no"?><svg xmlns="http://www.w3.org/2000/svg" xmlns:xlink="http://www.w3.org/1999/xlink" clip-rule="evenodd" stroke-miterlimit="10" viewBox="0 0 151 29"><desc>SVG generated by Keynote</desc><defs></defs><g transform="matrix(1.00, 0.00, -0.00, -1.00, 0.0, 29.0)"><text xml:space="preserve" font-family="Georgia,Georgia" font-size="32.0" fill="#000000" transform="matrix(1.00, 0.00, -0.00, -1.00, 2.8, 3.0)">A</text><text xml:space="preserve" font-family="Georgia,Georgia" font-size="32.0" fill="#000000" transform="matrix(1.00, 0.00, -0.00, -1.00, 24.2, 3.0)">l</text><text xml:space="preserve" font-family="Georgia,Georgia" font-size="32.0" fill="#000000" transform="matrix(1.00, 0.00, -0.00, -1.00, 33.4, 3.0)">k</text><text xml:space="preserve" font-family="Georgia,Georgia" font-size="32.0" fill="#000000" transform="matrix(1.00, 0.00, -0.00, -1.00, 50.5, 3.0)">u</text><text xml:space="preserve" font-family="Georgia,Georgia" font-size="32.0" fill="#000000" transform="matrix(1.00, 0.00, -0.00, -1.00, 68.9, 3.0)">a</text><text xml:space="preserve" font-family="Georgia,Georgia" font-size="32.0" fill="#000000" transform="matrix(1.00, 0.00, -0.00, -1.00, 85.0, 3.0)">r</text><text xml:space="preserve" font-family="Georgia,Georgia" font-size="32.0" fill="#000000" transform="matrix(1.00, 0.00, -0.00, -1.00, 98.1, 3.0)">v</text><text xml:space="preserve" font-family="Georgia,Georgia" font-size="32.0" fill="#000000" transform="matrix(1.00, 0.00, -0.00, -1.00, 114.0, 3.0)">o</text><text xml:space="preserve" font-family="Georgia,Georgia" font-size="32.0" fill="#000000" transform="matrix(1.00, 0.00, -0.00, -1.00, 131.3, 3.0)">t</text><text xml:space="preserve" font-family="Georgia,Georgia" font-size="32.0" fill="#000000" transform="matrix(1.00, 0.00, -0.00, -1.00, 142.3, 3.0)">:</text></g></svg>