<?xml version="1.0" encoding="UTF-8" standalone="no"?><svg xmlns="http://www.w3.org/2000/svg" xmlns:xlink="http://www.w3.org/1999/xlink" clip-rule="evenodd" stroke-miterlimit="10" viewBox="0 0 207 32"><desc>SVG generated by Keynote</desc><defs></defs><g transform="matrix(1.00, 0.00, -0.00, -1.00, 0.0, 32.0)"><text xml:space="preserve" font-family="Georgia,Georgia" font-size="32.0" fill="#000000" transform="matrix(1.00, 0.00, -0.00, -1.00, -0.1, 7.4)">=</text><text xml:space="preserve" font-family="Georgia,Georgia" font-size="32.0" fill="#000000" transform="matrix(1.00, 0.00, -0.00, -1.00, 20.4, 7.4)"> </text><text xml:space="preserve" font-family="Georgia,Georgia" font-size="32.0" fill="#000000" transform="matrix(1.00, 0.00, -0.00, -1.00, 28.2, 7.4)">1</text><text xml:space="preserve" font-family="Georgia,Georgia" font-size="32.0" fill="#000000" transform="matrix(1.00, 0.00, -0.00, -1.00, 41.9, 7.4)">5</text><text xml:space="preserve" font-family="Georgia,Georgia" font-size="32.0" fill="#000000" transform="matrix(1.00, 0.00, -0.00, -1.00, 58.8, 7.4)">0</text><text xml:space="preserve" font-family="Georgia,Georgia" font-size="32.0" fill="#000000" transform="matrix(1.00, 0.00, -0.00, -1.00, 78.5, 7.4)"> </text><text xml:space="preserve" font-family="Georgia,Georgia" font-size="32.0" fill="#000000" transform="matrix(1.00, 0.00, -0.00, -1.00, 86.2, 7.4)">0</text><text xml:space="preserve" font-family="Georgia,Georgia" font-size="32.0" fill="#000000" transform="matrix(1.00, 0.00, -0.00, -1.00, 105.8, 7.4)">0</text><text xml:space="preserve" font-family="Georgia,Georgia" font-size="32.0" fill="#000000" transform="matrix(1.00, 0.00, -0.00, -1.00, 125.5, 7.4)">0</text><text xml:space="preserve" font-family="Georgia,Georgia" font-size="32.0" fill="#000000" transform="matrix(1.00, 0.00, -0.00, -1.00, 145.1, 7.4)"> </text><text xml:space="preserve" font-family="Georgia,Georgia" font-size="32.0" fill="#000000" transform="matrix(1.00, 0.00, -0.00, -1.00, 152.8, 7.4)">N</text><text xml:space="preserve" font-family="Georgia,Georgia" font-size="32.0" fill="#000000" transform="matrix(1.00, 0.00, -0.00, -1.00, 177.4, 7.4)">m</text></g></svg>