<?xml version="1.0" encoding="UTF-8" standalone="no"?><svg xmlns="http://www.w3.org/2000/svg" xmlns:xlink="http://www.w3.org/1999/xlink" clip-rule="evenodd" stroke-miterlimit="10" viewBox="0 0 1024 768"><desc>SVG generated by Keynote</desc><defs></defs><g transform="matrix(1.00, 0.00, -0.00, -1.00, 0.0, 768.0)"><path d="M 0.0 768.0 L 1024.0 768.0 L 1024.0 0.0 L 0.0 0.0 Z M 0.0 768.0 " fill="#FEFFFF"></path><text xml:space="preserve" font-family="Georgia,Georgia" font-size="65.0" fill="#000000" transform="matrix(1.00, 0.00, -0.00, -1.00, 286.4, 666.3)">M</text><text xml:space="preserve" font-family="Georgia,Georgia" font-size="65.0" fill="#000000" transform="matrix(1.00, 0.00, -0.00, -1.00, 346.7, 666.3)">i</text><text xml:space="preserve" font-family="Georgia,Georgia" font-size="65.0" fill="#000000" transform="matrix(1.00, 0.00, -0.00, -1.00, 365.7, 666.3)">t</text><text xml:space="preserve" font-family="Georgia,Georgia" font-size="65.0" fill="#000000" transform="matrix(1.00, 0.00, -0.00, -1.00, 388.2, 666.3)">ä</text><text xml:space="preserve" font-family="Georgia,Georgia" font-size="65.0" fill="#000000" transform="matrix(1.00, 0.00, -0.00, -1.00, 420.9, 666.3)"> </text><text xml:space="preserve" font-family="Georgia,Georgia" font-size="65.0" fill="#000000" transform="matrix(1.00, 0.00, -0.00, -1.00, 436.6, 666.3)">l</text><text xml:space="preserve" font-family="Georgia,Georgia" font-size="65.0" fill="#000000" transform="matrix(1.00, 0.00, -0.00, -1.00, 455.2, 666.3)">ä</text><text xml:space="preserve" font-family="Georgia,Georgia" font-size="65.0" fill="#000000" transform="matrix(1.00, 0.00, -0.00, -1.00, 488.0, 666.3)">m</text><text xml:space="preserve" font-family="Georgia,Georgia" font-size="65.0" fill="#000000" transform="matrix(1.00, 0.00, -0.00, -1.00, 545.2, 666.3)">p</text><text xml:space="preserve" font-family="Georgia,Georgia" font-size="65.0" fill="#000000" transform="matrix(1.00, 0.00, -0.00, -1.00, 582.4, 666.3)">ö</text><text xml:space="preserve" font-family="Georgia,Georgia" font-size="65.0" fill="#000000" transform="matrix(1.00, 0.00, -0.00, -1.00, 617.4, 666.3)"> </text><text xml:space="preserve" font-family="Georgia,Georgia" font-size="65.0" fill="#000000" transform="matrix(1.00, 0.00, -0.00, -1.00, 633.1, 666.3)">o</text><text xml:space="preserve" font-family="Georgia,Georgia" font-size="65.0" fill="#000000" transform="matrix(1.00, 0.00, -0.00, -1.00, 668.2, 666.3)">n</text><text xml:space="preserve" font-family="Georgia,Georgia" font-size="65.0" fill="#000000" transform="matrix(1.00, 0.00, -0.00, -1.00, 706.6, 666.3)">?</text><text xml:space="preserve" font-family="Georgia,Georgia" font-size="36.0" fill="#000000" transform="matrix(1.00, 0.00, -0.00, -1.00, 69.7, 603.1)">M</text><text xml:space="preserve" font-family="Georgia,Georgia" font-size="36.0" fill="#000000" transform="matrix(1.00, 0.00, -0.00, -1.00, 103.1, 603.1)">i</text><text xml:space="preserve" font-family="Georgia,Georgia" font-size="36.0" fill="#000000" transform="matrix(1.00, 0.00, -0.00, -1.00, 113.6, 603.1)">k</text><text xml:space="preserve" font-family="Georgia,Georgia" font-size="36.0" fill="#000000" transform="matrix(1.00, 0.00, -0.00, -1.00, 132.9, 603.1)">ä</text><text xml:space="preserve" font-family="Georgia,Georgia" font-size="36.0" fill="#000000" transform="matrix(1.00, 0.00, -0.00, -1.00, 151.0, 603.1)"> </text><text xml:space="preserve" font-family="Georgia,Georgia" font-size="36.0" fill="#000000" transform="matrix(1.00, 0.00, -0.00, -1.00, 159.7, 603.1)">o</text><text xml:space="preserve" font-family="Georgia,Georgia" font-size="36.0" fill="#000000" transform="matrix(1.00, 0.00, -0.00, -1.00, 179.1, 603.1)">n</text><text xml:space="preserve" font-family="Georgia,Georgia" font-size="36.0" fill="#000000" transform="matrix(1.00, 0.00, -0.00, -1.00, 200.4, 603.1)"> </text><text xml:space="preserve" font-family="Georgia,Georgia" font-size="36.0" fill="#0264C0" transform="matrix(1.00, 0.00, -0.00, -1.00, 209.1, 603.1)">k</text><text xml:space="preserve" font-family="Georgia,Georgia" font-size="36.0" fill="#0264C0" transform="matrix(1.00, 0.00, -0.00, -1.00, 228.4, 603.1)">y</text><text xml:space="preserve" font-family="Georgia,Georgia" font-size="36.0" fill="#0264C0" transform="matrix(1.00, 0.00, -0.00, -1.00, 246.1, 603.1)">l</text><text xml:space="preserve" font-family="Georgia,Georgia" font-size="36.0" fill="#0264C0" transform="matrix(1.00, 0.00, -0.00, -1.00, 256.4, 603.1)">m</text><text xml:space="preserve" font-family="Georgia,Georgia" font-size="36.0" fill="#0264C0" transform="matrix(1.00, 0.00, -0.00, -1.00, 288.1, 603.1)">i</text><text xml:space="preserve" font-family="Georgia,Georgia" font-size="36.0" fill="#0264C0" transform="matrix(1.00, 0.00, -0.00, -1.00, 298.7, 603.1)">n</text><text xml:space="preserve" font-family="Georgia,Georgia" font-size="36.0" fill="#000000" transform="matrix(1.00, 0.00, -0.00, -1.00, 319.9, 603.1)"> </text><text xml:space="preserve" font-family="Georgia,Georgia" font-size="36.0" fill="#000000" transform="matrix(1.00, 0.00, -0.00, -1.00, 328.6, 603.1)">m</text><text xml:space="preserve" font-family="Georgia,Georgia" font-size="36.0" fill="#000000" transform="matrix(1.00, 0.00, -0.00, -1.00, 360.3, 603.1)">a</text><text xml:space="preserve" font-family="Georgia,Georgia" font-size="36.0" fill="#000000" transform="matrix(1.00, 0.00, -0.00, -1.00, 378.5, 603.1)">h</text><text xml:space="preserve" font-family="Georgia,Georgia" font-size="36.0" fill="#000000" transform="matrix(1.00, 0.00, -0.00, -1.00, 399.4, 603.1)">d</text><text xml:space="preserve" font-family="Georgia,Georgia" font-size="36.0" fill="#000000" transform="matrix(1.00, 0.00, -0.00, -1.00, 420.1, 603.1)">o</text><text xml:space="preserve" font-family="Georgia,Georgia" font-size="36.0" fill="#000000" transform="matrix(1.00, 0.00, -0.00, -1.00, 439.5, 603.1)">l</text><text xml:space="preserve" font-family="Georgia,Georgia" font-size="36.0" fill="#000000" transform="matrix(1.00, 0.00, -0.00, -1.00, 449.8, 603.1)">l</text><text xml:space="preserve" font-family="Georgia,Georgia" font-size="36.0" fill="#000000" transform="matrix(1.00, 0.00, -0.00, -1.00, 460.1, 603.1)">i</text><text xml:space="preserve" font-family="Georgia,Georgia" font-size="36.0" fill="#000000" transform="matrix(1.00, 0.00, -0.00, -1.00, 470.7, 603.1)">n</text><text xml:space="preserve" font-family="Georgia,Georgia" font-size="36.0" fill="#000000" transform="matrix(1.00, 0.00, -0.00, -1.00, 491.9, 603.1)">e</text><text xml:space="preserve" font-family="Georgia,Georgia" font-size="36.0" fill="#000000" transform="matrix(1.00, 0.00, -0.00, -1.00, 509.3, 603.1)">n</text><text xml:space="preserve" font-family="Georgia,Georgia" font-size="36.0" fill="#000000" transform="matrix(1.00, 0.00, -0.00, -1.00, 530.6, 603.1)"> </text><text xml:space="preserve" font-family="Georgia,Georgia" font-size="36.0" fill="#000000" transform="matrix(1.00, 0.00, -0.00, -1.00, 539.3, 603.1)">l</text><text xml:space="preserve" font-family="Georgia,Georgia" font-size="36.0" fill="#000000" transform="matrix(1.00, 0.00, -0.00, -1.00, 549.6, 603.1)">ä</text><text xml:space="preserve" font-family="Georgia,Georgia" font-size="36.0" fill="#000000" transform="matrix(1.00, 0.00, -0.00, -1.00, 567.7, 603.1)">m</text><text xml:space="preserve" font-family="Georgia,Georgia" font-size="36.0" fill="#000000" transform="matrix(1.00, 0.00, -0.00, -1.00, 599.4, 603.1)">p</text><text xml:space="preserve" font-family="Georgia,Georgia" font-size="36.0" fill="#000000" transform="matrix(1.00, 0.00, -0.00, -1.00, 620.0, 603.1)">ö</text><text xml:space="preserve" font-family="Georgia,Georgia" font-size="36.0" fill="#000000" transform="matrix(1.00, 0.00, -0.00, -1.00, 639.4, 603.1)">t</text><text xml:space="preserve" font-family="Georgia,Georgia" font-size="36.0" fill="#000000" transform="matrix(1.00, 0.00, -0.00, -1.00, 651.9, 603.1)">i</text><text xml:space="preserve" font-family="Georgia,Georgia" font-size="36.0" fill="#000000" transform="matrix(1.00, 0.00, -0.00, -1.00, 662.4, 603.1)">l</text><text xml:space="preserve" font-family="Georgia,Georgia" font-size="36.0" fill="#000000" transform="matrix(1.00, 0.00, -0.00, -1.00, 672.7, 603.1)">a</text><text xml:space="preserve" font-family="Georgia,Georgia" font-size="36.0" fill="#000000" transform="matrix(1.00, 0.00, -0.00, -1.00, 690.9, 603.1)">?</text><g><clipPath id="clip0x608000ea6300"><path d="M 741.0 366.5 L 931.0 366.5 L 931.0 548.0 L 741.0 548.0 Z M 741.0 366.5 "></path></clipPath><g clip-path="url(#clip0x608000ea6300)"><path d="M 0.0 0.0 L 186.0 0.0 L 186.0 177.0 L 0.0 177.0 Z M 0.0 0.0 " fill="none" stroke="#000000" stroke-width="2.00" transform="matrix(1.00, 0.00, 0.00, -1.00, 743.0, 546.0)"></path></g></g><g><clipPath id="clip0x6080006a4e60"><path d="M 879.0 423.0 L 900.2 423.0 L 900.2 444.2 L 879.0 444.2 Z M 879.0 423.0 "></path></clipPath><g clip-path="url(#clip0x6080006a4e60)"><path d="M 896.4 440.4 C 900.1 436.7 900.1 430.6 896.4 426.8 C 892.6 423.1 886.5 423.1 882.8 426.8 C 879.0 430.6 879.0 436.7 882.8 440.4 C 886.5 444.2 892.6 444.2 896.4 440.4 Z M 896.4 440.4 " fill="#C82505"></path></g></g><g><clipPath id="clip0x608000cb4220"><path d="M 825.4 457.7 L 846.6 457.7 L 846.6 478.9 L 825.4 478.9 Z M 825.4 457.7 "></path></clipPath><g clip-path="url(#clip0x608000cb4220)"><path d="M 842.8 475.1 C 846.5 471.3 846.5 465.2 842.8 461.5 C 839.0 457.7 833.0 457.7 829.2 461.5 C 825.5 465.2 825.5 471.3 829.2 475.1 C 833.0 478.8 839.0 478.8 842.8 475.1 Z M 842.8 475.1 " fill="#C82505"></path></g></g><g><clipPath id="clip0x608000cab460"><path d="M 888.0 489.7 L 909.2 489.7 L 909.2 510.9 L 888.0 510.9 Z M 888.0 489.7 "></path></clipPath><g clip-path="url(#clip0x608000cab460)"><path d="M 905.4 507.1 C 909.1 503.3 909.1 497.2 905.4 493.5 C 901.6 489.7 895.5 489.7 891.8 493.5 C 888.0 497.2 888.0 503.3 891.8 507.1 C 895.5 510.8 901.6 510.8 905.4 507.1 Z M 905.4 507.1 " fill="#C82505"></path></g></g><g><clipPath id="clip0x608000cba700"><path d="M 825.4 386.7 L 846.6 386.7 L 846.6 407.9 L 825.4 407.9 Z M 825.4 386.7 "></path></clipPath><g clip-path="url(#clip0x608000cba700)"><path d="M 842.8 404.1 C 846.5 400.3 846.5 394.2 842.8 390.5 C 839.0 386.7 833.0 386.7 829.2 390.5 C 825.5 394.2 825.5 400.3 829.2 404.1 C 833.0 407.8 839.0 407.8 842.8 404.1 Z M 842.8 404.1 " fill="#C82505"></path></g></g><g><clipPath id="clip0x608000ca17a0"><path d="M 777.0 504.7 L 798.2 504.7 L 798.2 525.9 L 777.0 525.9 Z M 777.0 504.7 "></path></clipPath><g clip-path="url(#clip0x608000ca17a0)"><path d="M 794.4 522.1 C 798.1 518.3 798.1 512.2 794.4 508.5 C 790.6 504.7 784.5 504.7 780.8 508.5 C 777.0 512.2 777.0 518.3 780.8 522.1 C 784.5 525.8 790.6 525.8 794.4 522.1 Z M 794.4 522.1 " fill="#C82505"></path></g></g><g><clipPath id="clip0x608000ea5b20"><path d="M 777.0 423.0 L 798.2 423.0 L 798.2 444.2 L 777.0 444.2 Z M 777.0 423.0 "></path></clipPath><g clip-path="url(#clip0x608000ea5b20)"><path d="M 794.4 440.4 C 798.1 436.7 798.1 430.6 794.4 426.8 C 790.6 423.1 784.5 423.1 780.8 426.8 C 777.0 430.6 777.0 436.7 780.8 440.4 C 784.5 444.2 790.6 444.2 794.4 440.4 Z M 794.4 440.4 " fill="#C82505"></path></g></g><g><clipPath id="clip0x608000eaa1a0"><path d="M 897.2 509.3 L 941.0 580.5 L 950.9 574.4 L 907.1 503.3 Z M 897.2 509.3 "></path></clipPath><g clip-path="url(#clip0x608000eaa1a0)"><path d="M 0.0 0.0 L 72.0 0.0 L 73.0 0.0 " fill="none" stroke="#000000" stroke-width="2.00" transform="matrix(0.52, 0.85, 0.85, -0.52, 902.7, 507.2)"></path><path d="M 944.5 565.9 L 945.4 576.6 L 936.3 571.0 Z M 944.5 565.9 " fill="#000000"></path></g></g><g><clipPath id="clip0x608000cbcbc0"><path d="M 796.2 520.0 L 866.0 514.0 L 865.0 502.4 L 795.2 508.5 Z M 796.2 520.0 "></path></clipPath><g clip-path="url(#clip0x608000cbcbc0)"><path d="M 0.0 0.0 L 58.5 0.0 L 59.5 0.0 " fill="none" stroke="#000000" stroke-width="2.00" transform="matrix(1.00, -0.09, -0.09, -1.00, 796.7, 514.2)"></path><path d="M 854.5 504.3 L 864.5 508.3 L 855.4 513.9 Z M 854.5 504.3 " fill="#000000"></path></g></g><g><clipPath id="clip0x608000aab6a0"><path d="M 845.0 461.6 L 863.6 393.4 L 852.4 390.4 L 833.8 458.6 Z M 845.0 461.6 "></path></clipPath><g clip-path="url(#clip0x608000aab6a0)"><path d="M 0.0 0.0 L 59.1 0.0 L 60.1 0.0 " fill="none" stroke="#000000" stroke-width="2.00" transform="matrix(0.26, -0.96, -0.96, -0.26, 839.7, 459.2)"></path><path d="M 850.6 400.9 L 857.7 392.9 L 859.8 403.4 Z M 850.6 400.9 " fill="#000000"></path></g></g><g><clipPath id="clip0x608000abe4e0"><path d="M 792.5 424.6 L 787.8 377.7 L 776.2 378.9 L 781.0 425.7 Z M 792.5 424.6 "></path></clipPath><g clip-path="url(#clip0x608000abe4e0)"><path d="M 0.0 0.0 L 35.5 0.0 L 36.5 0.0 " fill="none" stroke="#000000" stroke-width="2.00" transform="matrix(-0.10, -0.99, -0.99, 0.10, 786.7, 424.2)"></path><path d="M 778.3 389.3 L 782.1 379.3 L 787.8 388.3 Z M 778.3 389.3 " fill="#000000"></path></g></g><g><clipPath id="clip0x608000ea16e0"><path d="M 827.7 400.8 L 769.7 474.3 L 778.8 481.5 L 836.8 408.0 Z M 827.7 400.8 "></path></clipPath><g clip-path="url(#clip0x608000ea16e0)"><path d="M 0.0 0.0 L 82.0 0.0 L 83.0 0.0 " fill="none" stroke="#000000" stroke-width="2.00" transform="matrix(-0.62, 0.79, 0.79, 0.62, 831.7, 405.2)"></path><path d="M 784.6 472.5 L 774.9 477.1 L 777.1 466.6 Z M 784.6 472.5 " fill="#000000"></path></g></g><g><clipPath id="clip0x608000ea1b00"><path d="M 892.5 426.9 L 874.4 342.4 L 863.1 344.9 L 881.2 429.3 Z M 892.5 426.9 "></path></clipPath><g clip-path="url(#clip0x608000ea1b00)"><path d="M 0.0 0.0 L 74.8 0.0 L 75.8 0.0 " fill="none" stroke="#000000" stroke-width="2.00" transform="matrix(-0.21, -0.98, -0.98, 0.21, 886.7, 427.2)"></path><path d="M 866.3 355.0 L 869.0 344.6 L 875.7 353.0 Z M 866.3 355.0 " fill="#000000"></path></g></g><g><clipPath id="clip0x608000cb16a0"><path d="M 525.0 366.5 L 715.0 366.5 L 715.0 548.0 L 525.0 548.0 Z M 525.0 366.5 "></path></clipPath><g clip-path="url(#clip0x608000cb16a0)"><path d="M 0.0 0.0 L 186.0 0.0 L 186.0 177.0 L 0.0 177.0 Z M 0.0 0.0 " fill="none" stroke="#000000" stroke-width="2.00" transform="matrix(1.00, 0.00, 0.00, -1.00, 527.0, 546.0)"></path></g></g><g><clipPath id="clip0x608000cb7d00"><path d="M 663.0 423.0 L 684.2 423.0 L 684.2 444.2 L 663.0 444.2 Z M 663.0 423.0 "></path></clipPath><g clip-path="url(#clip0x608000cb7d00)"><path d="M 680.4 440.4 C 684.1 436.7 684.1 430.6 680.4 426.8 C 676.6 423.1 670.5 423.1 666.8 426.8 C 663.0 430.6 663.0 436.7 666.8 440.4 C 670.5 444.2 676.6 444.2 680.4 440.4 Z M 680.4 440.4 " fill="#C7786D"></path></g></g><g><clipPath id="clip0x608000cb0aa0"><path d="M 609.4 457.7 L 630.6 457.7 L 630.6 478.9 L 609.4 478.9 Z M 609.4 457.7 "></path></clipPath><g clip-path="url(#clip0x608000cb0aa0)"><path d="M 626.8 475.1 C 630.5 471.3 630.5 465.2 626.8 461.5 C 623.0 457.7 617.0 457.7 613.2 461.5 C 609.5 465.2 609.5 471.3 613.2 475.1 C 617.0 478.8 623.0 478.8 626.8 475.1 Z M 626.8 475.1 " fill="#C7786D"></path></g></g><g><clipPath id="clip0x608000caaaa0"><path d="M 672.0 489.7 L 693.2 489.7 L 693.2 510.9 L 672.0 510.9 Z M 672.0 489.7 "></path></clipPath><g clip-path="url(#clip0x608000caaaa0)"><path d="M 689.4 507.1 C 693.1 503.3 693.1 497.2 689.4 493.5 C 685.6 489.7 679.5 489.7 675.8 493.5 C 672.0 497.2 672.0 503.3 675.8 507.1 C 679.5 510.8 685.6 510.8 689.4 507.1 Z M 689.4 507.1 " fill="#C7786D"></path></g></g><g><clipPath id="clip0x608000ca6cc0"><path d="M 609.4 386.7 L 630.6 386.7 L 630.6 407.9 L 609.4 407.9 Z M 609.4 386.7 "></path></clipPath><g clip-path="url(#clip0x608000ca6cc0)"><path d="M 626.8 404.1 C 630.5 400.3 630.5 394.2 626.8 390.5 C 623.0 386.7 617.0 386.7 613.2 390.5 C 609.5 394.2 609.5 400.3 613.2 404.1 C 617.0 407.8 623.0 407.8 626.8 404.1 Z M 626.8 404.1 " fill="#C7786D"></path></g></g><g><clipPath id="clip0x608000cbdd60"><path d="M 561.0 504.7 L 582.2 504.7 L 582.2 525.9 L 561.0 525.9 Z M 561.0 504.7 "></path></clipPath><g clip-path="url(#clip0x608000cbdd60)"><path d="M 578.4 522.1 C 582.1 518.3 582.1 512.2 578.4 508.5 C 574.6 504.7 568.5 504.7 564.8 508.5 C 561.0 512.2 561.0 518.3 564.8 522.1 C 568.5 525.8 574.6 525.8 578.4 522.1 Z M 578.4 522.1 " fill="#C7786D"></path></g></g><g><clipPath id="clip0x608000cb6080"><path d="M 561.0 423.0 L 582.2 423.0 L 582.2 444.2 L 561.0 444.2 Z M 561.0 423.0 "></path></clipPath><g clip-path="url(#clip0x608000cb6080)"><path d="M 578.4 440.4 C 582.1 436.7 582.1 430.6 578.4 426.8 C 574.6 423.1 568.5 423.1 564.8 426.8 C 561.0 430.6 561.0 436.7 564.8 440.4 C 568.5 444.2 574.6 444.2 578.4 440.4 Z M 578.4 440.4 " fill="#C7786D"></path></g></g><g><clipPath id="clip0x608000cb32c0"><path d="M 681.2 510.4 L 705.0 548.1 L 714.8 541.9 L 691.0 504.2 Z M 681.2 510.4 "></path></clipPath><g clip-path="url(#clip0x608000cb32c0)"><path d="M 0.0 0.0 L 33.0 0.0 L 34.0 0.0 " fill="none" stroke="#000000" stroke-width="2.00" transform="matrix(0.53, 0.85, 0.85, -0.53, 686.7, 508.2)"></path><path d="M 708.3 533.5 L 709.4 544.2 L 700.2 538.6 Z M 708.3 533.5 " fill="#000000"></path></g></g><g><clipPath id="clip0x608000ab9500"><path d="M 580.1 521.0 L 628.9 517.0 L 627.9 505.4 L 579.2 509.5 Z M 580.1 521.0 "></path></clipPath><g clip-path="url(#clip0x608000ab9500)"><path d="M 0.0 0.0 L 37.3 0.0 L 38.3 0.0 " fill="none" stroke="#000000" stroke-width="2.00" transform="matrix(1.00, -0.08, -0.08, -1.00, 580.7, 515.2)"></path><path d="M 617.4 507.3 L 627.4 511.3 L 618.2 516.9 Z M 617.4 507.3 " fill="#000000"></path></g></g><g><clipPath id="clip0x608000ea6960"><path d="M 628.9 462.9 L 643.3 418.3 L 632.3 414.7 L 617.8 459.3 Z M 628.9 462.9 "></path></clipPath><g clip-path="url(#clip0x608000ea6960)"><path d="M 0.0 0.0 L 35.3 0.0 L 36.3 0.0 " fill="none" stroke="#000000" stroke-width="2.00" transform="matrix(0.31, -0.95, -0.95, -0.31, 623.7, 460.2)"></path><path d="M 630.0 425.1 L 637.5 417.5 L 639.1 428.1 Z M 630.0 425.1 " fill="#000000"></path></g></g><g><clipPath id="clip0x608000cadbc0"><path d="M 576.5 425.5 L 573.8 400.8 L 562.3 402.1 L 565.0 426.8 Z M 576.5 425.5 "></path></clipPath><g clip-path="url(#clip0x608000cadbc0)"><path d="M 0.0 0.0 L 13.3 0.0 L 14.3 0.0 " fill="none" stroke="#000000" stroke-width="2.00" transform="matrix(-0.11, -0.99, -0.99, 0.11, 570.7, 425.2)"></path><path d="M 564.4 412.5 L 568.1 402.4 L 574.0 411.4 Z M 564.4 412.5 " fill="#000000"></path></g></g><g><clipPath id="clip0x608000ea4e60"><path d="M 611.6 401.9 L 586.1 436.3 L 595.5 443.2 L 620.9 408.8 Z M 611.6 401.9 "></path></clipPath><g clip-path="url(#clip0x608000ea4e60)"><path d="M 0.0 0.0 L 31.2 0.0 L 32.2 0.0 " fill="none" stroke="#000000" stroke-width="2.00" transform="matrix(-0.59, 0.80, 0.80, 0.59, 615.7, 406.2)"></path><path d="M 601.0 434.1 L 591.4 439.0 L 593.2 428.4 Z M 601.0 434.1 " fill="#000000"></path></g></g><g><clipPath id="clip0x608000eaa2c0"><path d="M 676.5 427.7 L 664.6 380.3 L 653.3 383.1 L 665.3 430.5 Z M 676.5 427.7 "></path></clipPath><g clip-path="url(#clip0x608000eaa2c0)"><path d="M 0.0 0.0 L 37.3 0.0 L 38.3 0.0 " fill="none" stroke="#000000" stroke-width="2.00" transform="matrix(-0.24, -0.97, -0.97, 0.24, 670.7, 428.2)"></path><path d="M 656.9 393.1 L 659.2 382.7 L 666.2 390.8 Z M 656.9 393.1 " fill="#000000"></path></g></g><g><clipPath id="clip0x608000eaaf80"><path d="M 309.0 366.5 L 499.0 366.5 L 499.0 548.0 L 309.0 548.0 Z M 309.0 366.5 "></path></clipPath><g clip-path="url(#clip0x608000eaaf80)"><path d="M 0.0 0.0 L 186.0 0.0 L 186.0 177.0 L 0.0 177.0 Z M 0.0 0.0 " fill="none" stroke="#000000" stroke-width="2.00" transform="matrix(1.00, 0.00, 0.00, -1.00, 311.0, 546.0)"></path></g></g><g><clipPath id="clip0x608000ca0720"><path d="M 447.0 423.0 L 468.2 423.0 L 468.2 444.2 L 447.0 444.2 Z M 447.0 423.0 "></path></clipPath><g clip-path="url(#clip0x608000ca0720)"><path d="M 464.4 440.4 C 468.1 436.7 468.1 430.6 464.4 426.8 C 460.6 423.1 454.5 423.1 450.8 426.8 C 447.0 430.6 447.0 436.7 450.8 440.4 C 454.5 444.2 460.6 444.2 464.4 440.4 Z M 464.4 440.4 " fill="#9398C6"></path></g></g><g><clipPath id="clip0x608000ca44a0"><path d="M 393.4 457.7 L 414.6 457.7 L 414.6 478.9 L 393.4 478.9 Z M 393.4 457.7 "></path></clipPath><g clip-path="url(#clip0x608000ca44a0)"><path d="M 410.8 475.1 C 414.5 471.3 414.5 465.2 410.8 461.5 C 407.0 457.7 401.0 457.7 397.2 461.5 C 393.5 465.2 393.5 471.3 397.2 475.1 C 401.0 478.8 407.0 478.8 410.8 475.1 Z M 410.8 475.1 " fill="#9398C6"></path></g></g><g><clipPath id="clip0x608000cad380"><path d="M 456.0 489.7 L 477.2 489.7 L 477.2 510.9 L 456.0 510.9 Z M 456.0 489.7 "></path></clipPath><g clip-path="url(#clip0x608000cad380)"><path d="M 473.4 507.1 C 477.1 503.3 477.1 497.2 473.4 493.5 C 469.6 489.7 463.5 489.7 459.8 493.5 C 456.0 497.2 456.0 503.3 459.8 507.1 C 463.5 510.8 469.6 510.8 473.4 507.1 Z M 473.4 507.1 " fill="#9398C6"></path></g></g><g><clipPath id="clip0x608000cb5ae0"><path d="M 393.4 386.7 L 414.6 386.7 L 414.6 407.9 L 393.4 407.9 Z M 393.4 386.7 "></path></clipPath><g clip-path="url(#clip0x608000cb5ae0)"><path d="M 410.8 404.1 C 414.5 400.3 414.5 394.2 410.8 390.5 C 407.0 386.7 401.0 386.7 397.2 390.5 C 393.5 394.2 393.5 400.3 397.2 404.1 C 401.0 407.8 407.0 407.8 410.8 404.1 Z M 410.8 404.1 " fill="#9398C6"></path></g></g><g><clipPath id="clip0x608000cadf80"><path d="M 345.0 504.7 L 366.2 504.7 L 366.2 525.9 L 345.0 525.9 Z M 345.0 504.7 "></path></clipPath><g clip-path="url(#clip0x608000cadf80)"><path d="M 362.4 522.1 C 366.1 518.3 366.1 512.2 362.4 508.5 C 358.6 504.7 352.5 504.7 348.8 508.5 C 345.0 512.2 345.0 518.3 348.8 522.1 C 352.5 525.8 358.6 525.8 362.4 522.1 Z M 362.4 522.1 " fill="#9398C6"></path></g></g><g><clipPath id="clip0x608000ea10e0"><path d="M 345.0 423.0 L 366.2 423.0 L 366.2 444.2 L 345.0 444.2 Z M 345.0 423.0 "></path></clipPath><g clip-path="url(#clip0x608000ea10e0)"><path d="M 362.4 440.4 C 366.1 436.7 366.1 430.6 362.4 426.8 C 358.6 423.1 352.5 423.1 348.8 426.8 C 345.0 430.6 345.0 436.7 348.8 440.4 C 352.5 444.2 358.6 444.2 362.4 440.4 Z M 362.4 440.4 " fill="#9398C6"></path></g></g><g><clipPath id="clip0x608000cb8600"><path d="M 465.2 509.4 L 477.3 528.3 L 487.1 522.0 L 475.0 503.2 Z M 465.2 509.4 "></path></clipPath><g clip-path="url(#clip0x608000cb8600)"><path d="M 0.0 0.0 L 10.8 0.0 L 11.8 0.0 " fill="none" stroke="#000000" stroke-width="2.00" transform="matrix(0.54, 0.84, 0.84, -0.54, 470.7, 507.2)"></path><path d="M 480.5 513.6 L 481.7 524.3 L 472.4 518.8 Z M 480.5 513.6 " fill="#000000"></path></g></g><g><clipPath id="clip0x608000ab8360"><path d="M 364.4 520.0 L 385.1 517.4 L 383.6 505.9 L 362.9 508.5 Z M 364.4 520.0 "></path></clipPath><g clip-path="url(#clip0x608000ab8360)"><path d="M 0.0 0.0 L 9.3 0.0 L 10.3 0.0 " fill="none" stroke="#000000" stroke-width="2.00" transform="matrix(0.99, -0.13, -0.13, -0.99, 364.7, 514.2)"></path><path d="M 373.2 508.2 L 383.4 511.7 L 374.5 517.7 Z M 373.2 508.2 " fill="#000000"></path></g></g><g><clipPath id="clip0x608000cba160"><path d="M 412.5 462.5 L 420.6 444.6 L 410.1 439.8 L 402.0 457.7 Z M 412.5 462.5 "></path></clipPath><g clip-path="url(#clip0x608000cba160)"><path d="M 0.0 0.0 L 8.0 0.0 L 9.0 0.0 " fill="none" stroke="#000000" stroke-width="2.00" transform="matrix(0.41, -0.91, -0.91, -0.41, 407.7, 459.2)"></path><path d="M 406.6 449.9 L 414.9 443.1 L 415.3 453.8 Z M 406.6 449.9 " fill="#000000"></path></g></g><g><clipPath id="clip0x608000cbb000"><path d="M 360.5 424.5 L 358.4 405.9 L 346.9 407.2 L 349.0 425.8 Z M 360.5 424.5 "></path></clipPath><g clip-path="url(#clip0x608000cbb000)"><path d="M 0.0 0.0 L 7.1 0.0 L 8.1 0.0 " fill="none" stroke="#000000" stroke-width="2.00" transform="matrix(-0.11, -0.99, -0.99, 0.11, 354.7, 424.2)"></path><path d="M 349.1 417.7 L 352.8 407.6 L 358.6 416.6 Z M 349.1 417.7 " fill="#000000"></path></g></g><g><clipPath id="clip0x608000ea2340"><path d="M 395.4 401.0 L 384.9 416.3 L 394.5 422.9 L 405.0 407.6 Z M 395.4 401.0 "></path></clipPath><g clip-path="url(#clip0x608000ea2340)"><path d="M 0.0 0.0 L 7.0 0.0 L 8.0 0.0 " fill="none" stroke="#000000" stroke-width="2.00" transform="matrix(-0.57, 0.82, 0.82, 0.57, 399.7, 405.2)"></path><path d="M 399.6 413.6 L 390.2 418.8 L 391.7 408.2 Z M 399.6 413.6 " fill="#000000"></path></g></g><g><clipPath id="clip0x608000ab3860"><path d="M 460.5 426.2 L 453.5 406.1 L 442.5 409.9 L 449.5 430.0 Z M 460.5 426.2 "></path></clipPath><g clip-path="url(#clip0x608000ab3860)"><path d="M 0.0 0.0 L 9.6 0.0 L 10.6 0.0 " fill="none" stroke="#000000" stroke-width="2.00" transform="matrix(-0.33, -0.94, -0.94, 0.33, 454.7, 427.2)"></path><path d="M 447.0 419.6 L 448.4 409.0 L 456.0 416.5 Z M 447.0 419.6 " fill="#000000"></path></g></g><g><clipPath id="clip0x608000ea4740"><path d="M 93.0 366.5 L 283.0 366.5 L 283.0 548.0 L 93.0 548.0 Z M 93.0 366.5 "></path></clipPath><g clip-path="url(#clip0x608000ea4740)"><path d="M 0.0 0.0 L 186.0 0.0 L 186.0 177.0 L 0.0 177.0 Z M 0.0 0.0 " fill="none" stroke="#000000" stroke-width="2.00" transform="matrix(1.00, 0.00, 0.00, -1.00, 95.0, 546.0)"></path></g></g><g><clipPath id="clip0x608000ea1f80"><path d="M 231.0 423.0 L 252.2 423.0 L 252.2 444.2 L 231.0 444.2 Z M 231.0 423.0 "></path></clipPath><g clip-path="url(#clip0x608000ea1f80)"><path d="M 248.4 440.4 C 252.1 436.7 252.1 430.6 248.4 426.8 C 244.6 423.1 238.5 423.1 234.8 426.8 C 231.0 430.6 231.0 436.7 234.8 440.4 C 238.5 444.2 244.6 444.2 248.4 440.4 Z M 248.4 440.4 " fill="#0B4DC6"></path></g></g><g><clipPath id="clip0x608000ea7b00"><path d="M 177.4 457.7 L 198.6 457.7 L 198.6 478.9 L 177.4 478.9 Z M 177.4 457.7 "></path></clipPath><g clip-path="url(#clip0x608000ea7b00)"><path d="M 194.8 475.1 C 198.5 471.3 198.5 465.2 194.8 461.5 C 191.0 457.7 185.0 457.7 181.2 461.5 C 177.5 465.2 177.5 471.3 181.2 475.1 C 185.0 478.8 191.0 478.8 194.8 475.1 Z M 194.8 475.1 " fill="#0B4DC6"></path></g></g><g><clipPath id="clip0x608000cb6fe0"><path d="M 240.0 489.7 L 261.2 489.7 L 261.2 510.9 L 240.0 510.9 Z M 240.0 489.7 "></path></clipPath><g clip-path="url(#clip0x608000cb6fe0)"><path d="M 257.4 507.1 C 261.1 503.3 261.1 497.2 257.4 493.5 C 253.6 489.7 247.5 489.7 243.8 493.5 C 240.0 497.2 240.0 503.3 243.8 507.1 C 247.5 510.8 253.6 510.8 257.4 507.1 Z M 257.4 507.1 " fill="#0B4DC6"></path></g></g><g><clipPath id="clip0x608000eaa860"><path d="M 177.4 386.7 L 198.6 386.7 L 198.6 407.9 L 177.4 407.9 Z M 177.4 386.7 "></path></clipPath><g clip-path="url(#clip0x608000eaa860)"><path d="M 194.8 404.1 C 198.5 400.3 198.5 394.2 194.8 390.5 C 191.0 386.7 185.0 386.7 181.2 390.5 C 177.5 394.2 177.5 400.3 181.2 404.1 C 185.0 407.8 191.0 407.8 194.8 404.1 Z M 194.8 404.1 " fill="#0B4DC6"></path></g></g><g><clipPath id="clip0x608000cbc200"><path d="M 129.0 504.7 L 150.2 504.7 L 150.2 525.9 L 129.0 525.9 Z M 129.0 504.7 "></path></clipPath><g clip-path="url(#clip0x608000cbc200)"><path d="M 146.4 522.1 C 150.1 518.3 150.1 512.2 146.4 508.5 C 142.6 504.7 136.5 504.7 132.8 508.5 C 129.0 512.2 129.0 518.3 132.8 522.1 C 136.5 525.8 142.6 525.8 146.4 522.1 Z M 146.4 522.1 " fill="#0B4DC6"></path></g></g><g><clipPath id="clip0x608000ea4a40"><path d="M 129.0 423.0 L 150.2 423.0 L 150.2 444.2 L 129.0 444.2 Z M 129.0 423.0 "></path></clipPath><g clip-path="url(#clip0x608000ea4a40)"><path d="M 146.4 440.4 C 150.1 436.7 150.1 430.6 146.4 426.8 C 142.6 423.1 136.5 423.1 132.8 426.8 C 129.0 430.6 129.0 436.7 132.8 440.4 C 136.5 444.2 142.6 444.2 146.4 440.4 Z M 146.4 440.4 " fill="#0B4DC6"></path></g></g><g><clipPath id="clip0x608000eabca0"><path d="M 246.9 508.9 L 255.4 516.8 L 263.3 508.3 L 254.8 500.4 Z M 246.9 508.9 "></path></clipPath><g clip-path="url(#clip0x608000eabca0)"><path d="M 0.0 0.0 L 5.4 0.0 L -3.2 0.0 " fill="none" stroke="#000000" stroke-width="2.00" transform="matrix(0.73, 0.68, 0.68, -0.73, 254.7, 508.2)"></path><path d="M 254.9 501.8 L 258.6 511.9 L 248.3 508.8 Z M 254.9 501.8 " fill="#000000"></path></g></g><g><clipPath id="clip0x608000eac060"><path d="M 143.7 519.5 L 154.6 523.6 L 158.7 512.8 L 147.8 508.6 Z M 143.7 519.5 "></path></clipPath><g clip-path="url(#clip0x608000eac060)"><path d="M 0.0 0.0 L 7.5 0.0 L -1.1 0.0 " fill="none" stroke="#000000" stroke-width="2.00" transform="matrix(0.93, 0.35, 0.35, -0.93, 148.7, 515.2)"></path><path d="M 148.4 509.9 L 155.7 517.8 L 145.0 518.9 Z M 148.4 509.9 " fill="#000000"></path></g></g><g><clipPath id="clip0x608000eac300"><path d="M 196.5 464.8 L 199.2 453.6 L 188.0 450.8 L 185.2 462.1 Z M 196.5 464.8 "></path></clipPath><g clip-path="url(#clip0x608000eac300)"><path d="M 0.0 0.0 L 7.2 0.0 L -1.4 0.0 " fill="none" stroke="#000000" stroke-width="2.00" transform="matrix(0.24, -0.97, -0.97, -0.24, 191.7, 460.2)"></path><path d="M 186.4 461.4 L 193.4 453.2 L 195.7 463.6 Z M 186.4 461.4 " fill="#000000"></path></g></g><g><clipPath id="clip0x608000eac600"><path d="M 143.5 429.9 L 146.2 418.7 L 134.9 415.9 L 132.2 427.2 Z M 143.5 429.9 "></path></clipPath><g clip-path="url(#clip0x608000eac600)"><path d="M 0.0 0.0 L 7.1 0.0 L -1.5 0.0 " fill="none" stroke="#000000" stroke-width="2.00" transform="matrix(0.23, -0.97, -0.97, -0.23, 138.7, 425.2)"></path><path d="M 133.4 426.5 L 140.3 418.3 L 142.7 428.7 Z M 133.4 426.5 " fill="#000000"></path></g></g><g><clipPath id="clip0x608000eac900"><path d="M 180.7 399.5 L 175.0 409.6 L 185.1 415.3 L 190.8 405.2 Z M 180.7 399.5 "></path></clipPath><g clip-path="url(#clip0x608000eac900)"><path d="M 0.0 0.0 L 6.3 0.0 L -2.3 0.0 " fill="none" stroke="#000000" stroke-width="2.00" transform="matrix(-0.49, 0.87, 0.87, 0.49, 183.7, 406.2)"></path><path d="M 189.5 405.6 L 180.6 411.6 L 181.1 400.9 Z M 189.5 405.6 " fill="#000000"></path></g></g><g><clipPath id="clip0x608000eacc00"><path d="M 244.3 426.7 L 239.0 414.8 L 228.4 419.7 L 233.8 431.5 Z M 244.3 426.7 "></path></clipPath><g clip-path="url(#clip0x608000eacc00)"><path d="M 0.0 0.0 L 1.4 0.0 L 2.4 0.0 " fill="none" stroke="#000000" stroke-width="2.00" transform="matrix(-0.42, -0.91, -0.91, 0.42, 238.7, 428.2)"></path><path d="M 233.7 428.9 L 234.1 418.2 L 242.4 424.9 Z M 233.7 428.9 " fill="#000000"></path></g></g><text xml:space="preserve" font-family="Georgia,Georgia" font-size="36.0" fill="#000000" transform="matrix(1.00, 0.00, -0.00, -1.00, 46.2, 222.9)">A</text><text xml:space="preserve" font-family="Georgia,Georgia" font-size="36.0" fill="#000000" transform="matrix(1.00, 0.00, -0.00, -1.00, 70.3, 222.9)">b</text><text xml:space="preserve" font-family="Georgia,Georgia" font-size="36.0" fill="#000000" transform="matrix(1.00, 0.00, -0.00, -1.00, 90.5, 222.9)">s</text><text xml:space="preserve" font-family="Georgia,Georgia" font-size="36.0" fill="#000000" transform="matrix(1.00, 0.00, -0.00, -1.00, 106.1, 222.9)">o</text><text xml:space="preserve" font-family="Georgia,Georgia" font-size="36.0" fill="#000000" transform="matrix(1.00, 0.00, -0.00, -1.00, 125.5, 222.9)">l</text><text xml:space="preserve" font-family="Georgia,Georgia" font-size="36.0" fill="#000000" transform="matrix(1.00, 0.00, -0.00, -1.00, 135.8, 222.9)">u</text><text xml:space="preserve" font-family="Georgia,Georgia" font-size="36.0" fill="#000000" transform="matrix(1.00, 0.00, -0.00, -1.00, 156.5, 222.9)">u</text><text xml:space="preserve" font-family="Georgia,Georgia" font-size="36.0" fill="#000000" transform="matrix(1.00, 0.00, -0.00, -1.00, 177.2, 222.9)">t</text><text xml:space="preserve" font-family="Georgia,Georgia" font-size="36.0" fill="#000000" transform="matrix(1.00, 0.00, -0.00, -1.00, 189.6, 222.9)">t</text><text xml:space="preserve" font-family="Georgia,Georgia" font-size="36.0" fill="#000000" transform="matrix(1.00, 0.00, -0.00, -1.00, 202.1, 222.9)">i</text><text xml:space="preserve" font-family="Georgia,Georgia" font-size="36.0" fill="#000000" transform="matrix(1.00, 0.00, -0.00, -1.00, 212.6, 222.9)">s</text><text xml:space="preserve" font-family="Georgia,Georgia" font-size="36.0" fill="#000000" transform="matrix(1.00, 0.00, -0.00, -1.00, 228.2, 222.9)">e</text><text xml:space="preserve" font-family="Georgia,Georgia" font-size="36.0" fill="#000000" transform="matrix(1.00, 0.00, -0.00, -1.00, 245.6, 222.9)">s</text><text xml:space="preserve" font-family="Georgia,Georgia" font-size="36.0" fill="#000000" transform="matrix(1.00, 0.00, -0.00, -1.00, 261.2, 222.9)">s</text><text xml:space="preserve" font-family="Georgia,Georgia" font-size="36.0" fill="#000000" transform="matrix(1.00, 0.00, -0.00, -1.00, 276.7, 222.9)">a</text><text xml:space="preserve" font-family="Georgia,Georgia" font-size="36.0" fill="#000000" transform="matrix(1.00, 0.00, -0.00, -1.00, 294.9, 222.9)"> </text><text xml:space="preserve" font-family="Georgia,Georgia" font-size="36.0" fill="#000000" transform="matrix(1.00, 0.00, -0.00, -1.00, 303.5, 222.9)">n</text><text xml:space="preserve" font-family="Georgia,Georgia" font-size="36.0" fill="#000000" transform="matrix(1.00, 0.00, -0.00, -1.00, 324.8, 222.9)">o</text><text xml:space="preserve" font-family="Georgia,Georgia" font-size="36.0" fill="#000000" transform="matrix(1.00, 0.00, -0.00, -1.00, 344.2, 222.9)">l</text><text xml:space="preserve" font-family="Georgia,Georgia" font-size="36.0" fill="#000000" transform="matrix(1.00, 0.00, -0.00, -1.00, 354.5, 222.9)">l</text><text xml:space="preserve" font-family="Georgia,Georgia" font-size="36.0" fill="#000000" transform="matrix(1.00, 0.00, -0.00, -1.00, 364.8, 222.9)">a</text><text xml:space="preserve" font-family="Georgia,Georgia" font-size="36.0" fill="#000000" transform="matrix(1.00, 0.00, -0.00, -1.00, 383.0, 222.9)">p</text><text xml:space="preserve" font-family="Georgia,Georgia" font-size="36.0" fill="#000000" transform="matrix(1.00, 0.00, -0.00, -1.00, 403.5, 222.9)">i</text><text xml:space="preserve" font-family="Georgia,Georgia" font-size="36.0" fill="#000000" transform="matrix(1.00, 0.00, -0.00, -1.00, 414.1, 222.9)">s</text><text xml:space="preserve" font-family="Georgia,Georgia" font-size="36.0" fill="#000000" transform="matrix(1.00, 0.00, -0.00, -1.00, 429.6, 222.9)">t</text><text xml:space="preserve" font-family="Georgia,Georgia" font-size="36.0" fill="#000000" transform="matrix(1.00, 0.00, -0.00, -1.00, 442.1, 222.9)">e</text><text xml:space="preserve" font-family="Georgia,Georgia" font-size="36.0" fill="#000000" transform="matrix(1.00, 0.00, -0.00, -1.00, 459.5, 222.9)">e</text><text xml:space="preserve" font-family="Georgia,Georgia" font-size="36.0" fill="#000000" transform="matrix(1.00, 0.00, -0.00, -1.00, 476.9, 222.9)">s</text><text xml:space="preserve" font-family="Georgia,Georgia" font-size="36.0" fill="#000000" transform="matrix(1.00, 0.00, -0.00, -1.00, 492.5, 222.9)">s</text><text xml:space="preserve" font-family="Georgia,Georgia" font-size="36.0" fill="#000000" transform="matrix(1.00, 0.00, -0.00, -1.00, 508.0, 222.9)">ä</text><text xml:space="preserve" font-family="Georgia,Georgia" font-size="36.0" fill="#000000" transform="matrix(1.00, 0.00, -0.00, -1.00, 526.2, 222.9)"> </text><text xml:space="preserve" font-family="Georgia,Georgia" font-size="36.0" fill="#000000" transform="matrix(1.00, 0.00, -0.00, -1.00, 534.9, 222.9)">l</text><text xml:space="preserve" font-family="Georgia,Georgia" font-size="36.0" fill="#000000" transform="matrix(1.00, 0.00, -0.00, -1.00, 545.2, 222.9)">ä</text><text xml:space="preserve" font-family="Georgia,Georgia" font-size="36.0" fill="#000000" transform="matrix(1.00, 0.00, -0.00, -1.00, 563.3, 222.9)">m</text><text xml:space="preserve" font-family="Georgia,Georgia" font-size="36.0" fill="#000000" transform="matrix(1.00, 0.00, -0.00, -1.00, 595.0, 222.9)">p</text><text xml:space="preserve" font-family="Georgia,Georgia" font-size="36.0" fill="#000000" transform="matrix(1.00, 0.00, -0.00, -1.00, 615.6, 222.9)">ö</text><text xml:space="preserve" font-family="Georgia,Georgia" font-size="36.0" fill="#000000" transform="matrix(1.00, 0.00, -0.00, -1.00, 635.0, 222.9)">l</text><text xml:space="preserve" font-family="Georgia,Georgia" font-size="36.0" fill="#000000" transform="matrix(1.00, 0.00, -0.00, -1.00, 645.3, 222.9)">i</text><text xml:space="preserve" font-family="Georgia,Georgia" font-size="36.0" fill="#000000" transform="matrix(1.00, 0.00, -0.00, -1.00, 655.9, 222.9)">i</text><text xml:space="preserve" font-family="Georgia,Georgia" font-size="36.0" fill="#000000" transform="matrix(1.00, 0.00, -0.00, -1.00, 666.4, 222.9)">k</text><text xml:space="preserve" font-family="Georgia,Georgia" font-size="36.0" fill="#000000" transform="matrix(1.00, 0.00, -0.00, -1.00, 685.7, 222.9)">e</text><text xml:space="preserve" font-family="Georgia,Georgia" font-size="36.0" fill="#000000" transform="matrix(1.00, 0.00, -0.00, -1.00, 703.1, 222.9)"> </text><text xml:space="preserve" font-family="Georgia,Georgia" font-size="36.0" fill="#000000" transform="matrix(1.00, 0.00, -0.00, -1.00, 711.8, 222.9)">o</text><text xml:space="preserve" font-family="Georgia,Georgia" font-size="36.0" fill="#000000" transform="matrix(1.00, 0.00, -0.00, -1.00, 731.2, 222.9)">l</text><text xml:space="preserve" font-family="Georgia,Georgia" font-size="36.0" fill="#000000" transform="matrix(1.00, 0.00, -0.00, -1.00, 741.5, 222.9)">i</text><text xml:space="preserve" font-family="Georgia,Georgia" font-size="36.0" fill="#000000" transform="matrix(1.00, 0.00, -0.00, -1.00, 752.0, 222.9)">s</text><text xml:space="preserve" font-family="Georgia,Georgia" font-size="36.0" fill="#000000" transform="matrix(1.00, 0.00, -0.00, -1.00, 767.6, 222.9)">i</text><text xml:space="preserve" font-family="Georgia,Georgia" font-size="36.0" fill="#000000" transform="matrix(1.00, 0.00, -0.00, -1.00, 778.1, 222.9)"> </text><text xml:space="preserve" font-family="Georgia,Georgia" font-size="36.0" fill="#000000" transform="matrix(1.00, 0.00, -0.00, -1.00, 786.8, 222.9)">t</text><text xml:space="preserve" font-family="Georgia,Georgia" font-size="36.0" fill="#000000" transform="matrix(1.00, 0.00, -0.00, -1.00, 799.3, 222.9)">ä</text><text xml:space="preserve" font-family="Georgia,Georgia" font-size="36.0" fill="#000000" transform="matrix(1.00, 0.00, -0.00, -1.00, 817.4, 222.9)">y</text><text xml:space="preserve" font-family="Georgia,Georgia" font-size="36.0" fill="#000000" transform="matrix(1.00, 0.00, -0.00, -1.00, 835.1, 222.9)">s</text><text xml:space="preserve" font-family="Georgia,Georgia" font-size="36.0" fill="#000000" transform="matrix(1.00, 0.00, -0.00, -1.00, 850.7, 222.9)">i</text><text xml:space="preserve" font-family="Georgia,Georgia" font-size="36.0" fill="#000000" transform="matrix(1.00, 0.00, -0.00, -1.00, 861.2, 222.9)">n</text><text xml:space="preserve" font-family="Georgia,Georgia" font-size="36.0" fill="#000000" transform="matrix(1.00, 0.00, -0.00, -1.00, 882.5, 222.9)"> </text><text xml:space="preserve" font-family="Georgia,Georgia" font-size="36.0" fill="#000000" transform="matrix(1.00, 0.00, -0.00, -1.00, 46.2, 181.9)">p</text><text xml:space="preserve" font-family="Georgia,Georgia" font-size="36.0" fill="#000000" transform="matrix(1.00, 0.00, -0.00, -1.00, 66.8, 181.9)">y</text><text xml:space="preserve" font-family="Georgia,Georgia" font-size="36.0" fill="#000000" transform="matrix(1.00, 0.00, -0.00, -1.00, 84.5, 181.9)">s</text><text xml:space="preserve" font-family="Georgia,Georgia" font-size="36.0" fill="#000000" transform="matrix(1.00, 0.00, -0.00, -1.00, 100.0, 181.9)">ä</text><text xml:space="preserve" font-family="Georgia,Georgia" font-size="36.0" fill="#000000" transform="matrix(1.00, 0.00, -0.00, -1.00, 118.2, 181.9)">h</text><text xml:space="preserve" font-family="Georgia,Georgia" font-size="36.0" fill="#000000" transform="matrix(1.00, 0.00, -0.00, -1.00, 139.1, 181.9)">t</text><text xml:space="preserve" font-family="Georgia,Georgia" font-size="36.0" fill="#000000" transform="matrix(1.00, 0.00, -0.00, -1.00, 151.6, 181.9)">y</text><text xml:space="preserve" font-family="Georgia,Georgia" font-size="36.0" fill="#000000" transform="matrix(1.00, 0.00, -0.00, -1.00, 169.3, 181.9)">n</text><text xml:space="preserve" font-family="Georgia,Georgia" font-size="36.0" fill="#000000" transform="matrix(1.00, 0.00, -0.00, -1.00, 190.6, 181.9)">y</text><text xml:space="preserve" font-family="Georgia,Georgia" font-size="36.0" fill="#000000" transform="matrix(1.00, 0.00, -0.00, -1.00, 208.3, 181.9)">t</text><text xml:space="preserve" font-family="Georgia,Georgia" font-size="36.0" fill="#000000" transform="matrix(1.00, 0.00, -0.00, -1.00, 220.7, 181.9)">,</text><text xml:space="preserve" font-family="Georgia,Georgia" font-size="36.0" fill="#000000" transform="matrix(1.00, 0.00, -0.00, -1.00, 230.4, 181.9)"> </text><text xml:space="preserve" font-family="Georgia,Georgia" font-size="36.0" fill="#000000" transform="matrix(1.00, 0.00, -0.00, -1.00, 239.1, 181.9)">j</text><text xml:space="preserve" font-family="Georgia,Georgia" font-size="36.0" fill="#000000" transform="matrix(1.00, 0.00, -0.00, -1.00, 249.6, 181.9)">o</text><text xml:space="preserve" font-family="Georgia,Georgia" font-size="36.0" fill="#000000" transform="matrix(1.00, 0.00, -0.00, -1.00, 269.0, 181.9)">t</text><text xml:space="preserve" font-family="Georgia,Georgia" font-size="36.0" fill="#000000" transform="matrix(1.00, 0.00, -0.00, -1.00, 281.5, 181.9)">e</text><text xml:space="preserve" font-family="Georgia,Georgia" font-size="36.0" fill="#000000" transform="matrix(1.00, 0.00, -0.00, -1.00, 298.9, 181.9)">n</text><text xml:space="preserve" font-family="Georgia,Georgia" font-size="36.0" fill="#000000" transform="matrix(1.00, 0.00, -0.00, -1.00, 320.1, 181.9)"> </text><text xml:space="preserve" font-family="Georgia,Georgia" font-size="36.0" fill="#000000" transform="matrix(1.00, 0.00, -0.00, -1.00, 328.8, 181.9)">s</text><text xml:space="preserve" font-family="Georgia,Georgia" font-size="36.0" fill="#000000" transform="matrix(1.00, 0.00, -0.00, -1.00, 344.4, 181.9)">e</text><text xml:space="preserve" font-family="Georgia,Georgia" font-size="36.0" fill="#000000" transform="matrix(1.00, 0.00, -0.00, -1.00, 361.8, 181.9)">n</text><text xml:space="preserve" font-family="Georgia,Georgia" font-size="36.0" fill="#000000" transform="matrix(1.00, 0.00, -0.00, -1.00, 383.1, 181.9)"> </text><text xml:space="preserve" font-family="Georgia,Georgia" font-size="36.0" fill="#000000" transform="matrix(1.00, 0.00, -0.00, -1.00, 391.8, 181.9)">p</text><text xml:space="preserve" font-family="Georgia,Georgia" font-size="36.0" fill="#000000" transform="matrix(1.00, 0.00, -0.00, -1.00, 412.3, 181.9)">i</text><text xml:space="preserve" font-family="Georgia,Georgia" font-size="36.0" fill="#000000" transform="matrix(1.00, 0.00, -0.00, -1.00, 422.9, 181.9)">e</text><text xml:space="preserve" font-family="Georgia,Georgia" font-size="36.0" fill="#000000" transform="matrix(1.00, 0.00, -0.00, -1.00, 440.3, 181.9)">n</text><text xml:space="preserve" font-family="Georgia,Georgia" font-size="36.0" fill="#000000" transform="matrix(1.00, 0.00, -0.00, -1.00, 461.6, 181.9)">e</text><text xml:space="preserve" font-family="Georgia,Georgia" font-size="36.0" fill="#000000" transform="matrix(1.00, 0.00, -0.00, -1.00, 479.0, 181.9)">m</text><text xml:space="preserve" font-family="Georgia,Georgia" font-size="36.0" fill="#000000" transform="matrix(1.00, 0.00, -0.00, -1.00, 510.7, 181.9)">p</text><text xml:space="preserve" font-family="Georgia,Georgia" font-size="36.0" fill="#000000" transform="matrix(1.00, 0.00, -0.00, -1.00, 531.3, 181.9)">ä</text><text xml:space="preserve" font-family="Georgia,Georgia" font-size="36.0" fill="#000000" transform="matrix(1.00, 0.00, -0.00, -1.00, 549.4, 181.9)">ä</text><text xml:space="preserve" font-family="Georgia,Georgia" font-size="36.0" fill="#000000" transform="matrix(1.00, 0.00, -0.00, -1.00, 567.5, 181.9)"> </text><text xml:space="preserve" font-family="Georgia,Georgia" font-size="36.0" fill="#000000" transform="matrix(1.00, 0.00, -0.00, -1.00, 576.2, 181.9)">l</text><text xml:space="preserve" font-family="Georgia,Georgia" font-size="36.0" fill="#000000" transform="matrix(1.00, 0.00, -0.00, -1.00, 586.5, 181.9)">ä</text><text xml:space="preserve" font-family="Georgia,Georgia" font-size="36.0" fill="#000000" transform="matrix(1.00, 0.00, -0.00, -1.00, 604.7, 181.9)">m</text><text xml:space="preserve" font-family="Georgia,Georgia" font-size="36.0" fill="#000000" transform="matrix(1.00, 0.00, -0.00, -1.00, 636.4, 181.9)">p</text><text xml:space="preserve" font-family="Georgia,Georgia" font-size="36.0" fill="#000000" transform="matrix(1.00, 0.00, -0.00, -1.00, 657.0, 181.9)">ö</text><text xml:space="preserve" font-family="Georgia,Georgia" font-size="36.0" fill="#000000" transform="matrix(1.00, 0.00, -0.00, -1.00, 676.4, 181.9)">t</text><text xml:space="preserve" font-family="Georgia,Georgia" font-size="36.0" fill="#000000" transform="matrix(1.00, 0.00, -0.00, -1.00, 688.8, 181.9)">i</text><text xml:space="preserve" font-family="Georgia,Georgia" font-size="36.0" fill="#000000" transform="matrix(1.00, 0.00, -0.00, -1.00, 699.3, 181.9)">l</text><text xml:space="preserve" font-family="Georgia,Georgia" font-size="36.0" fill="#000000" transform="matrix(1.00, 0.00, -0.00, -1.00, 709.6, 181.9)">a</text><text xml:space="preserve" font-family="Georgia,Georgia" font-size="36.0" fill="#000000" transform="matrix(1.00, 0.00, -0.00, -1.00, 727.8, 181.9)">a</text><text xml:space="preserve" font-family="Georgia,Georgia" font-size="36.0" fill="#000000" transform="matrix(1.00, 0.00, -0.00, -1.00, 745.9, 181.9)"> </text><text xml:space="preserve" font-family="Georgia,Georgia" font-size="36.0" fill="#000000" transform="matrix(1.00, 0.00, -0.00, -1.00, 754.6, 181.9)">e</text><text xml:space="preserve" font-family="Georgia,Georgia" font-size="36.0" fill="#000000" transform="matrix(1.00, 0.00, -0.00, -1.00, 772.0, 181.9)">i</text><text xml:space="preserve" font-family="Georgia,Georgia" font-size="36.0" fill="#000000" transform="matrix(1.00, 0.00, -0.00, -1.00, 782.6, 181.9)"> </text><text xml:space="preserve" font-family="Georgia,Georgia" font-size="36.0" fill="#000000" transform="matrix(1.00, 0.00, -0.00, -1.00, 791.3, 181.9)">v</text><text xml:space="preserve" font-family="Georgia,Georgia" font-size="36.0" fill="#000000" transform="matrix(1.00, 0.00, -0.00, -1.00, 809.1, 181.9)">o</text><text xml:space="preserve" font-family="Georgia,Georgia" font-size="36.0" fill="#000000" transform="matrix(1.00, 0.00, -0.00, -1.00, 828.5, 181.9)">i</text><text xml:space="preserve" font-family="Georgia,Georgia" font-size="36.0" fill="#000000" transform="matrix(1.00, 0.00, -0.00, -1.00, 839.1, 181.9)"> </text><text xml:space="preserve" font-family="Georgia,Georgia" font-size="36.0" fill="#000000" transform="matrix(1.00, 0.00, -0.00, -1.00, 847.8, 181.9)">s</text><text xml:space="preserve" font-family="Georgia,Georgia" font-size="36.0" fill="#000000" transform="matrix(1.00, 0.00, -0.00, -1.00, 863.3, 181.9)">a</text><text xml:space="preserve" font-family="Georgia,Georgia" font-size="36.0" fill="#000000" transform="matrix(1.00, 0.00, -0.00, -1.00, 881.5, 181.9)">a</text><text xml:space="preserve" font-family="Georgia,Georgia" font-size="36.0" fill="#000000" transform="matrix(1.00, 0.00, -0.00, -1.00, 899.6, 181.9)">v</text><text xml:space="preserve" font-family="Georgia,Georgia" font-size="36.0" fill="#000000" transform="matrix(1.00, 0.00, -0.00, -1.00, 917.5, 181.9)">u</text><text xml:space="preserve" font-family="Georgia,Georgia" font-size="36.0" fill="#000000" transform="matrix(1.00, 0.00, -0.00, -1.00, 938.2, 181.9)">t</text><text xml:space="preserve" font-family="Georgia,Georgia" font-size="36.0" fill="#000000" transform="matrix(1.00, 0.00, -0.00, -1.00, 950.6, 181.9)">t</text><text xml:space="preserve" font-family="Georgia,Georgia" font-size="36.0" fill="#000000" transform="matrix(1.00, 0.00, -0.00, -1.00, 963.1, 181.9)">a</text><text xml:space="preserve" font-family="Georgia,Georgia" font-size="36.0" fill="#000000" transform="matrix(1.00, 0.00, -0.00, -1.00, 981.2, 181.9)">a</text><text xml:space="preserve" font-family="Georgia,Georgia" font-size="36.0" fill="#000000" transform="matrix(1.00, 0.00, -0.00, -1.00, 999.3, 181.9)">.</text></g></svg>