<?xml version="1.0" encoding="UTF-8" standalone="no"?><svg xmlns="http://www.w3.org/2000/svg" xmlns:xlink="http://www.w3.org/1999/xlink" clip-rule="evenodd" stroke-miterlimit="10" viewBox="0 0 1058 438"><desc>SVG generated by Keynote</desc><defs><pattern id="776A1A85-E775-4E8A-B488-C57060493469" patternUnits="userSpaceOnUse" width="600" height="600" viewBox="0 0 600 600"><image xlink:href="../../EEC9EF7D-8F97-471C-8063-A25CA4F5BF84/assets/15C55D9F48ABB2997E46C76C56D934C7.png" width="600.00" height="600.00"></image></pattern></defs><g transform="matrix(1.00, 0.00, -0.00, -1.00, 0.0, 438.0)"><g><clipPath id="clip0x7ff025cb8e50"><path d="M 0.5 0.1 L 1057.5 0.1 L 1057.5 333.3 L 0.5 333.3 Z M 0.5 0.1 "></path></clipPath><g clip-path="url(#clip0x7ff025cb8e50)"><image xlink:href="../../EEC9EF7D-8F97-471C-8063-A25CA4F5BF84/assets/80FC2C4960890CD843ADD2E1E5E1713F.png" width="1055.00" height="331.00" transform="matrix(1.00, 0.00, -0.00, -1.00, 1.5, 332.3)" opacity="0.50"></image></g></g><g><clipPath id="clip0x7ff0239b5830"><path d="M 5.0 331.0 L 1054.0 331.0 L 1054.0 6.0 L 5.0 6.0 Z M 4.5 331.3 "></path></clipPath><g clip-path="url(#clip0x7ff0239b5830)"><g><clipPath id="clip0x7ff0239af830"><path d="M 0.5 0.1 L 1057.5 0.1 L 1057.5 333.3 L 0.5 333.3 Z M 0.5 0.1 "></path></clipPath><g clip-path="url(#clip0x7ff0239af830)"><path d="M 5.0 6.0 L 1054.0 6.0 L 1054.0 331.0 L 5.0 331.0 Z M 5.0 6.0 " fill="url(#776A1A85-E775-4E8A-B488-C57060493469)"></path></g></g></g></g><g><clipPath id="clip0x7ff023983450"><path d="M 19.0 335.5 L 167.6 335.5 L 167.6 436.0 L 19.0 436.0 Z M 19.0 335.5 "></path></clipPath><g clip-path="url(#clip0x7ff023983450)"><text xml:space="preserve" font-family="Georgia,Georgia" font-size="36.0" fill="#DCDDE0" transform="matrix(1.00, 0.00, -0.00, -1.00, 29.2, 372.9)">A</text><text xml:space="preserve" font-family="Georgia,Georgia" font-size="36.0" fill="#DCDDE0" transform="matrix(1.00, 0.00, -0.00, -1.00, 53.3, 372.9)">s</text><text xml:space="preserve" font-family="Georgia,Georgia" font-size="36.0" fill="#DCDDE0" transform="matrix(1.00, 0.00, -0.00, -1.00, 68.9, 372.9)">f</text><text xml:space="preserve" font-family="Georgia,Georgia" font-size="36.0" fill="#DCDDE0" transform="matrix(1.00, 0.00, -0.00, -1.00, 80.6, 372.9)">a</text><text xml:space="preserve" font-family="Georgia,Georgia" font-size="36.0" fill="#DCDDE0" transform="matrix(1.00, 0.00, -0.00, -1.00, 98.7, 372.9)">l</text><text xml:space="preserve" font-family="Georgia,Georgia" font-size="36.0" fill="#DCDDE0" transform="matrix(1.00, 0.00, -0.00, -1.00, 109.0, 372.9)">t</text><text xml:space="preserve" font-family="Georgia,Georgia" font-size="36.0" fill="#DCDDE0" transform="matrix(1.00, 0.00, -0.00, -1.00, 121.4, 372.9)">t</text><text xml:space="preserve" font-family="Georgia,Georgia" font-size="36.0" fill="#DCDDE0" transform="matrix(1.00, 0.00, -0.00, -1.00, 133.9, 372.9)">i</text></g></g><g><clipPath id="clip0x7ff0239879f0"><path d="M 24.3 230.5 L 162.3 230.5 L 162.3 331.0 L 24.3 331.0 Z M 24.3 230.5 "></path></clipPath><g clip-path="url(#clip0x7ff0239879f0)"><text xml:space="preserve" font-family="Georgia,Georgia" font-size="36.0" fill="#000000" transform="matrix(1.00, 0.00, -0.00, -1.00, 34.5, 267.9)">H</text><text xml:space="preserve" font-family="Georgia,Georgia" font-size="36.0" fill="#000000" transform="matrix(1.00, 0.00, -0.00, -1.00, 63.9, 267.9)">i</text><text xml:space="preserve" font-family="Georgia,Georgia" font-size="36.0" fill="#000000" transform="matrix(1.00, 0.00, -0.00, -1.00, 74.4, 267.9)">e</text><text xml:space="preserve" font-family="Georgia,Georgia" font-size="36.0" fill="#000000" transform="matrix(1.00, 0.00, -0.00, -1.00, 91.8, 267.9)">k</text><text xml:space="preserve" font-family="Georgia,Georgia" font-size="36.0" fill="#000000" transform="matrix(1.00, 0.00, -0.00, -1.00, 111.1, 267.9)">k</text><text xml:space="preserve" font-family="Georgia,Georgia" font-size="36.0" fill="#000000" transform="matrix(1.00, 0.00, -0.00, -1.00, 130.4, 267.9)">a</text></g></g></g></svg>