<?xml version="1.0" encoding="UTF-8" standalone="no"?><svg xmlns="http://www.w3.org/2000/svg" xmlns:xlink="http://www.w3.org/1999/xlink" clip-rule="evenodd" stroke-miterlimit="10" viewBox="0 0 135 128"><desc>SVG generated by Keynote</desc><defs></defs><g transform="matrix(1.00, 0.00, -0.00, -1.00, 0.0, 128.0)"><g><clipPath id="clip0x7ff040f83b40"><path d="M 79.2 107.7 L 101.6 127.8 L 134.3 91.3 L 112.0 71.2 Z M 79.2 107.7 "></path></clipPath><g clip-path="url(#clip0x7ff040f83b40)"><image xlink:href="E32DB32B07B8572EDF3FD8FB4F31090D.png" width="28.00" height="47.00" transform="matrix(0.74, 0.67, 0.67, -0.74, 80.6, 107.6)" opacity="0.50"></image><path d="M 102.8 116.5 C 110.8 113.4 119.1 104.3 121.3 96.0 C 123.4 87.7 118.7 83.5 110.7 86.5 C 102.7 89.6 94.5 98.7 92.3 107.0 C 90.1 115.3 94.8 119.6 102.8 116.5 Z M 102.8 116.5 " fill="#A6AAA8"></path><path d="M 17.1 5.7 C 21.0 13.3 21.0 25.7 17.1 33.3 C 13.2 40.9 6.8 40.9 2.9 33.3 C -1.0 25.7 -1.0 13.3 2.9 5.7 C 6.8 -1.9 13.2 -1.9 17.1 5.7 Z M 17.1 5.7 " fill="none" stroke="#000000" stroke-width="2.00" transform="matrix(0.74, 0.67, 0.67, -0.74, 86.3, 109.3)"></path></g></g><g><clipPath id="clip0x7ff025cbc810"><path d="M 29.3 34.6 L 106.9 104.3 L 109.5 101.3 L 32.0 31.6 Z M 29.3 34.6 "></path></clipPath><g clip-path="url(#clip0x7ff025cbc810)"><path d="M 0.0 0.0 L 102.3 0.0 " fill="none" stroke="#000000" stroke-width="2.00" transform="matrix(0.74, 0.67, 0.67, -0.74, 31.4, 33.8)"></path></g></g><g><clipPath id="clip0x7ff04153ec60"><path d="M 0.4 36.8 L 22.7 56.9 L 55.5 20.5 L 33.2 0.4 Z M 0.4 36.8 "></path></clipPath><g clip-path="url(#clip0x7ff04153ec60)"><image xlink:href="../../0A5867B1-2BB7-426E-AAB2-3ADD7F2697C3/assets/E32DB32B07B8572EDF3FD8FB4F31090D.png" width="28.00" height="47.00" transform="matrix(0.74, 0.67, 0.67, -0.74, 1.8, 36.8)" opacity="0.50"></image><path d="M 24.0 45.6 C 32.0 42.6 40.2 33.4 42.4 25.1 C 44.6 16.8 39.9 12.6 31.9 15.6 C 23.9 18.7 15.6 27.9 13.4 36.2 C 11.3 44.5 16.0 48.7 24.0 45.6 Z M 24.0 45.6 " fill="#A6AAA8"></path><path d="M 17.1 5.7 C 21.0 13.3 21.0 25.7 17.1 33.3 C 13.2 40.9 6.8 40.9 2.9 33.3 C -1.0 25.7 -1.0 13.3 2.9 5.7 C 6.8 -1.9 13.2 -1.9 17.1 5.7 Z M 17.1 5.7 " fill="none" stroke="#000000" stroke-width="2.00" transform="matrix(0.74, 0.67, 0.67, -0.74, 7.4, 38.5)"></path></g></g></g></svg>