<?xml version="1.0" encoding="UTF-8" standalone="no"?><svg xmlns="http://www.w3.org/2000/svg" xmlns:xlink="http://www.w3.org/1999/xlink" clip-rule="evenodd" stroke-miterlimit="10" viewBox="0 0 252 178"><desc>SVG generated by Keynote</desc><defs></defs><g transform="matrix(1.00, 0.00, -0.00, -1.00, 0.0, 178.0)"><path d="M 185.0 51.0 L 185.0 4.6 L 248.9 88.8 L 185.0 173.1 L 185.0 127.0 L 3.0 127.0 L 3.0 51.0 Z M 185.0 51.1 " fill="#DCDDE0"></path><path d="M 182.1 122.1 L 182.1 168.5 L 246.0 84.3 L 182.1 0.0 L 182.1 46.1 L 0.1 46.1 L 0.1 122.1 Z M 182.1 122.0 " fill="none" stroke="#85878C" stroke-width="2.00" transform="matrix(1.00, 0.00, 0.00, -1.00, 2.9, 173.1)"></path><g><clipPath id="clip0x7fda2f7488f0"><path d="M 0.2 4.6 L 248.9 4.6 L 248.9 173.1 L 0.2 173.1 Z M 0.2 4.6 "></path></clipPath><g clip-path="url(#clip0x7fda2f7488f0)"><text xml:space="preserve" font-family="Georgia,Georgia" font-size="27.0" fill="#000000" transform="matrix(1.00, 0.00, -0.00, -1.00, 30.1, 79.2)">S</text><text xml:space="preserve" font-family="Georgia,Georgia" font-size="27.0" fill="#000000" transform="matrix(1.00, 0.00, -0.00, -1.00, 45.2, 79.2)">ä</text><text xml:space="preserve" font-family="Georgia,Georgia" font-size="27.0" fill="#000000" transform="matrix(1.00, 0.00, -0.00, -1.00, 58.8, 79.2)">h</text><text xml:space="preserve" font-family="Georgia,Georgia" font-size="27.0" fill="#000000" transform="matrix(1.00, 0.00, -0.00, -1.00, 74.6, 79.2)">k</text><text xml:space="preserve" font-family="Georgia,Georgia" font-size="27.0" fill="#000000" transform="matrix(1.00, 0.00, -0.00, -1.00, 89.0, 79.2)">ö</text><text xml:space="preserve" font-family="Georgia,Georgia" font-size="27.0" fill="#000000" transform="matrix(1.00, 0.00, -0.00, -1.00, 103.6, 79.2)">m</text><text xml:space="preserve" font-family="Georgia,Georgia" font-size="27.0" fill="#000000" transform="matrix(1.00, 0.00, -0.00, -1.00, 127.3, 79.2)">o</text><text xml:space="preserve" font-family="Georgia,Georgia" font-size="27.0" fill="#000000" transform="matrix(1.00, 0.00, -0.00, -1.00, 141.9, 79.2)">o</text><text xml:space="preserve" font-family="Georgia,Georgia" font-size="27.0" fill="#000000" transform="matrix(1.00, 0.00, -0.00, -1.00, 156.5, 79.2)">t</text><text xml:space="preserve" font-family="Georgia,Georgia" font-size="27.0" fill="#000000" transform="matrix(1.00, 0.00, -0.00, -1.00, 165.8, 79.2)">t</text><text xml:space="preserve" font-family="Georgia,Georgia" font-size="27.0" fill="#000000" transform="matrix(1.00, 0.00, -0.00, -1.00, 175.1, 79.2)">o</text><text xml:space="preserve" font-family="Georgia,Georgia" font-size="27.0" fill="#000000" transform="matrix(1.00, 0.00, -0.00, -1.00, 189.7, 79.2)">r</text><text xml:space="preserve" font-family="Georgia,Georgia" font-size="27.0" fill="#000000" transform="matrix(1.00, 0.00, -0.00, -1.00, 200.7, 79.2)">i</text></g></g></g></svg>