<?xml version="1.0" encoding="UTF-8" standalone="no"?><svg xmlns="http://www.w3.org/2000/svg" xmlns:xlink="http://www.w3.org/1999/xlink" clip-rule="evenodd" stroke-miterlimit="10" viewBox="0 0 1024 768"><desc>SVG generated by Keynote</desc><defs></defs><g transform="matrix(1.00, 0.00, -0.00, -1.00, 0.0, 768.0)"><path d="M 0.0 768.0 L 1024.0 768.0 L 1024.0 0.0 L 0.0 0.0 Z M 0.0 768.0 " fill="#FEFFFF"></path><image xlink:href="5E2C789F5ABA89317A52BAD6BBF1D4E7.png" width="600.00" height="298.00" transform="matrix(1.51, 0.00, -0.00, -1.51, 58.0, 633.0)"></image><text xml:space="preserve" font-family="LMRoman10-Regular,Latin Modern Roman" font-size="50.0" fill="#000000" transform="matrix(1.00, 0.00, -0.00, -1.00, 74.1, 660.0)">E</text><text xml:space="preserve" font-family="LMRoman10-Regular,Latin Modern Roman" font-size="50.0" fill="#000000" transform="matrix(1.00, 0.00, -0.00, -1.00, 108.2, 660.0)">n</text><text xml:space="preserve" font-family="LMRoman10-Regular,Latin Modern Roman" font-size="50.0" fill="#000000" transform="matrix(1.00, 0.00, -0.00, -1.00, 136.0, 660.0)">e</text><text xml:space="preserve" font-family="LMRoman10-Regular,Latin Modern Roman" font-size="50.0" fill="#000000" transform="matrix(1.00, 0.00, -0.00, -1.00, 158.2, 660.0)">r</text><text xml:space="preserve" font-family="LMRoman10-Regular,Latin Modern Roman" font-size="50.0" fill="#000000" transform="matrix(1.00, 0.00, -0.00, -1.00, 177.8, 660.0)">g</text><text xml:space="preserve" font-family="LMRoman10-Regular,Latin Modern Roman" font-size="50.0" fill="#000000" transform="matrix(1.00, 0.00, -0.00, -1.00, 202.8, 660.0)">i</text><text xml:space="preserve" font-family="LMRoman10-Regular,Latin Modern Roman" font-size="50.0" fill="#000000" transform="matrix(1.00, 0.00, -0.00, -1.00, 216.7, 660.0)">a</text><text xml:space="preserve" font-family="LMRoman10-Regular,Latin Modern Roman" font-size="50.0" fill="#000000" transform="matrix(1.00, 0.00, -0.00, -1.00, 241.7, 660.0)">n</text><text xml:space="preserve" font-family="LMRoman10-Regular,Latin Modern Roman" font-size="50.0" fill="#000000" transform="matrix(1.00, 0.00, -0.00, -1.00, 269.5, 660.0)">l</text><text xml:space="preserve" font-family="LMRoman10-Regular,Latin Modern Roman" font-size="50.0" fill="#000000" transform="matrix(1.00, 0.00, -0.00, -1.00, 283.4, 660.0)">ä</text><text xml:space="preserve" font-family="LMRoman10-Regular,Latin Modern Roman" font-size="50.0" fill="#000000" transform="matrix(1.00, 0.00, -0.00, -1.00, 308.4, 660.0)">h</text><text xml:space="preserve" font-family="LMRoman10-Regular,Latin Modern Roman" font-size="50.0" fill="#000000" transform="matrix(1.00, 0.00, -0.00, -1.00, 334.8, 660.0)">t</text><text xml:space="preserve" font-family="LMRoman10-Regular,Latin Modern Roman" font-size="50.0" fill="#000000" transform="matrix(1.00, 0.00, -0.00, -1.00, 354.2, 660.0)">e</text><text xml:space="preserve" font-family="LMRoman10-Regular,Latin Modern Roman" font-size="50.0" fill="#000000" transform="matrix(1.00, 0.00, -0.00, -1.00, 376.4, 660.0)">e</text><text xml:space="preserve" font-family="LMRoman10-Regular,Latin Modern Roman" font-size="50.0" fill="#000000" transform="matrix(1.00, 0.00, -0.00, -1.00, 398.6, 660.0)">t</text><text xml:space="preserve" font-family="LMRoman10-Regular,Latin Modern Roman" font-size="50.0" fill="#000000" transform="matrix(1.00, 0.00, -0.00, -1.00, 418.1, 660.0)"> </text><text xml:space="preserve" font-family="LMRoman10-Regular,Latin Modern Roman" font-size="50.0" fill="#000000" transform="matrix(1.00, 0.00, -0.00, -1.00, 434.7, 660.0)">m</text><text xml:space="preserve" font-family="LMRoman10-Regular,Latin Modern Roman" font-size="50.0" fill="#000000" transform="matrix(1.00, 0.00, -0.00, -1.00, 476.4, 660.0)">a</text><text xml:space="preserve" font-family="LMRoman10-Regular,Latin Modern Roman" font-size="50.0" fill="#000000" transform="matrix(1.00, 0.00, -0.00, -1.00, 501.4, 660.0)">a</text><text xml:space="preserve" font-family="LMRoman10-Regular,Latin Modern Roman" font-size="50.0" fill="#000000" transform="matrix(1.00, 0.00, -0.00, -1.00, 526.4, 660.0)">i</text><text xml:space="preserve" font-family="LMRoman10-Regular,Latin Modern Roman" font-size="50.0" fill="#000000" transform="matrix(1.00, 0.00, -0.00, -1.00, 540.3, 660.0)">l</text><text xml:space="preserve" font-family="LMRoman10-Regular,Latin Modern Roman" font-size="50.0" fill="#000000" transform="matrix(1.00, 0.00, -0.00, -1.00, 554.2, 660.0)">m</text><text xml:space="preserve" font-family="LMRoman10-Regular,Latin Modern Roman" font-size="50.0" fill="#000000" transform="matrix(1.00, 0.00, -0.00, -1.00, 595.8, 660.0)">a</text><text xml:space="preserve" font-family="LMRoman10-Regular,Latin Modern Roman" font-size="50.0" fill="#000000" transform="matrix(1.00, 0.00, -0.00, -1.00, 620.8, 660.0)">s</text><text xml:space="preserve" font-family="LMRoman10-Regular,Latin Modern Roman" font-size="50.0" fill="#000000" transform="matrix(1.00, 0.00, -0.00, -1.00, 640.5, 660.0)">s</text><text xml:space="preserve" font-family="LMRoman10-Regular,Latin Modern Roman" font-size="50.0" fill="#000000" transform="matrix(1.00, 0.00, -0.00, -1.00, 660.2, 660.0)">a</text><text xml:space="preserve" font-family="LMRoman10-Regular,Latin Modern Roman" font-size="50.0" fill="#000000" transform="matrix(1.00, 0.00, -0.00, -1.00, 685.2, 660.0)"> </text><text xml:space="preserve" font-family="LMRoman10-Regular,Latin Modern Roman" font-size="50.0" fill="#000000" transform="matrix(1.00, 0.00, -0.00, -1.00, 701.9, 660.0)">2</text><text xml:space="preserve" font-family="LMRoman10-Regular,Latin Modern Roman" font-size="50.0" fill="#000000" transform="matrix(1.00, 0.00, -0.00, -1.00, 726.9, 660.0)">0</text><text xml:space="preserve" font-family="LMRoman10-Regular,Latin Modern Roman" font-size="50.0" fill="#000000" transform="matrix(1.00, 0.00, -0.00, -1.00, 751.9, 660.0)">1</text><text xml:space="preserve" font-family="LMRoman10-Regular,Latin Modern Roman" font-size="50.0" fill="#000000" transform="matrix(1.00, 0.00, -0.00, -1.00, 776.9, 660.0)">3</text><text xml:space="preserve" font-family="Georgia,Georgia" font-size="36.0" fill="#000000" transform="matrix(1.00, 0.00, -0.00, -1.00, 50.0, 99.8)">S</text><text xml:space="preserve" font-family="Georgia,Georgia" font-size="36.0" fill="#000000" transform="matrix(1.00, 0.00, -0.00, -1.00, 70.2, 99.8)">u</text><text xml:space="preserve" font-family="Georgia,Georgia" font-size="36.0" fill="#000000" transform="matrix(1.00, 0.00, -0.00, -1.00, 90.9, 99.8)">u</text><text xml:space="preserve" font-family="Georgia,Georgia" font-size="36.0" fill="#000000" transform="matrix(1.00, 0.00, -0.00, -1.00, 111.6, 99.8)">r</text><text xml:space="preserve" font-family="Georgia,Georgia" font-size="36.0" fill="#000000" transform="matrix(1.00, 0.00, -0.00, -1.00, 126.4, 99.8)">i</text><text xml:space="preserve" font-family="Georgia,Georgia" font-size="36.0" fill="#000000" transform="matrix(1.00, 0.00, -0.00, -1.00, 136.9, 99.8)">n</text><text xml:space="preserve" font-family="Georgia,Georgia" font-size="36.0" fill="#000000" transform="matrix(1.00, 0.00, -0.00, -1.00, 158.2, 99.8)"> </text><text xml:space="preserve" font-family="Georgia,Georgia" font-size="36.0" fill="#000000" transform="matrix(1.00, 0.00, -0.00, -1.00, 166.9, 99.8)">o</text><text xml:space="preserve" font-family="Georgia,Georgia" font-size="36.0" fill="#000000" transform="matrix(1.00, 0.00, -0.00, -1.00, 186.3, 99.8)">s</text><text xml:space="preserve" font-family="Georgia,Georgia" font-size="36.0" fill="#000000" transform="matrix(1.00, 0.00, -0.00, -1.00, 201.8, 99.8)">a</text><text xml:space="preserve" font-family="Georgia,Georgia" font-size="36.0" fill="#000000" transform="matrix(1.00, 0.00, -0.00, -1.00, 220.0, 99.8)"> </text><text xml:space="preserve" font-family="Georgia,Georgia" font-size="36.0" fill="#000000" transform="matrix(1.00, 0.00, -0.00, -1.00, 228.7, 99.8)">e</text><text xml:space="preserve" font-family="Georgia,Georgia" font-size="36.0" fill="#000000" transform="matrix(1.00, 0.00, -0.00, -1.00, 246.1, 99.8)">n</text><text xml:space="preserve" font-family="Georgia,Georgia" font-size="36.0" fill="#000000" transform="matrix(1.00, 0.00, -0.00, -1.00, 267.3, 99.8)">e</text><text xml:space="preserve" font-family="Georgia,Georgia" font-size="36.0" fill="#000000" transform="matrix(1.00, 0.00, -0.00, -1.00, 284.8, 99.8)">g</text><text xml:space="preserve" font-family="Georgia,Georgia" font-size="36.0" fill="#000000" transform="matrix(1.00, 0.00, -0.00, -1.00, 303.1, 99.8)">i</text><text xml:space="preserve" font-family="Georgia,Georgia" font-size="36.0" fill="#000000" transform="matrix(1.00, 0.00, -0.00, -1.00, 313.6, 99.8)">a</text><text xml:space="preserve" font-family="Georgia,Georgia" font-size="36.0" fill="#000000" transform="matrix(1.00, 0.00, -0.00, -1.00, 331.8, 99.8)">s</text><text xml:space="preserve" font-family="Georgia,Georgia" font-size="36.0" fill="#000000" transform="matrix(1.00, 0.00, -0.00, -1.00, 347.3, 99.8)">t</text><text xml:space="preserve" font-family="Georgia,Georgia" font-size="36.0" fill="#000000" transform="matrix(1.00, 0.00, -0.00, -1.00, 359.8, 99.8)">a</text><text xml:space="preserve" font-family="Georgia,Georgia" font-size="36.0" fill="#000000" transform="matrix(1.00, 0.00, -0.00, -1.00, 377.9, 99.8)"> </text><text xml:space="preserve" font-family="Georgia,Georgia" font-size="36.0" fill="#000000" transform="matrix(1.00, 0.00, -0.00, -1.00, 386.6, 99.8)">s</text><text xml:space="preserve" font-family="Georgia,Georgia" font-size="36.0" fill="#000000" transform="matrix(1.00, 0.00, -0.00, -1.00, 402.2, 99.8)">a</text><text xml:space="preserve" font-family="Georgia,Georgia" font-size="36.0" fill="#000000" transform="matrix(1.00, 0.00, -0.00, -1.00, 420.3, 99.8)">a</text><text xml:space="preserve" font-family="Georgia,Georgia" font-size="36.0" fill="#000000" transform="matrix(1.00, 0.00, -0.00, -1.00, 438.4, 99.8)">d</text><text xml:space="preserve" font-family="Georgia,Georgia" font-size="36.0" fill="#000000" transform="matrix(1.00, 0.00, -0.00, -1.00, 459.1, 99.8)">a</text><text xml:space="preserve" font-family="Georgia,Georgia" font-size="36.0" fill="#000000" transform="matrix(1.00, 0.00, -0.00, -1.00, 477.3, 99.8)">a</text><text xml:space="preserve" font-family="Georgia,Georgia" font-size="36.0" fill="#000000" transform="matrix(1.00, 0.00, -0.00, -1.00, 495.4, 99.8)">n</text><text xml:space="preserve" font-family="Georgia,Georgia" font-size="36.0" fill="#000000" transform="matrix(1.00, 0.00, -0.00, -1.00, 516.7, 99.8)"> </text><text xml:space="preserve" font-family="Georgia,Georgia" font-size="36.0" fill="#000000" transform="matrix(1.00, 0.00, -0.00, -1.00, 50.0, 58.8)">f</text><text xml:space="preserve" font-family="Georgia,Georgia" font-size="36.0" fill="#000000" transform="matrix(1.00, 0.00, -0.00, -1.00, 61.7, 58.8)">o</text><text xml:space="preserve" font-family="Georgia,Georgia" font-size="36.0" fill="#000000" transform="matrix(1.00, 0.00, -0.00, -1.00, 81.1, 58.8)">s</text><text xml:space="preserve" font-family="Georgia,Georgia" font-size="36.0" fill="#000000" transform="matrix(1.00, 0.00, -0.00, -1.00, 96.7, 58.8)">s</text><text xml:space="preserve" font-family="Georgia,Georgia" font-size="36.0" fill="#000000" transform="matrix(1.00, 0.00, -0.00, -1.00, 112.2, 58.8)">i</text><text xml:space="preserve" font-family="Georgia,Georgia" font-size="36.0" fill="#000000" transform="matrix(1.00, 0.00, -0.00, -1.00, 122.8, 58.8)">i</text><text xml:space="preserve" font-family="Georgia,Georgia" font-size="36.0" fill="#000000" transform="matrix(1.00, 0.00, -0.00, -1.00, 133.3, 58.8)">l</text><text xml:space="preserve" font-family="Georgia,Georgia" font-size="36.0" fill="#000000" transform="matrix(1.00, 0.00, -0.00, -1.00, 143.6, 58.8)">i</text><text xml:space="preserve" font-family="Georgia,Georgia" font-size="36.0" fill="#000000" transform="matrix(1.00, 0.00, -0.00, -1.00, 154.2, 58.8)">s</text><text xml:space="preserve" font-family="Georgia,Georgia" font-size="36.0" fill="#000000" transform="matrix(1.00, 0.00, -0.00, -1.00, 169.7, 58.8)">i</text><text xml:space="preserve" font-family="Georgia,Georgia" font-size="36.0" fill="#000000" transform="matrix(1.00, 0.00, -0.00, -1.00, 180.3, 58.8)">s</text><text xml:space="preserve" font-family="Georgia,Georgia" font-size="36.0" fill="#000000" transform="matrix(1.00, 0.00, -0.00, -1.00, 195.9, 58.8)">t</text><text xml:space="preserve" font-family="Georgia,Georgia" font-size="36.0" fill="#000000" transform="matrix(1.00, 0.00, -0.00, -1.00, 208.3, 58.8)">a</text><text xml:space="preserve" font-family="Georgia,Georgia" font-size="36.0" fill="#000000" transform="matrix(1.00, 0.00, -0.00, -1.00, 226.4, 58.8)"> </text><text xml:space="preserve" font-family="Georgia,Georgia" font-size="36.0" fill="#000000" transform="matrix(1.00, 0.00, -0.00, -1.00, 235.1, 58.8)">p</text><text xml:space="preserve" font-family="Georgia,Georgia" font-size="36.0" fill="#000000" transform="matrix(1.00, 0.00, -0.00, -1.00, 255.7, 58.8)">o</text><text xml:space="preserve" font-family="Georgia,Georgia" font-size="36.0" fill="#000000" transform="matrix(1.00, 0.00, -0.00, -1.00, 275.1, 58.8)">l</text><text xml:space="preserve" font-family="Georgia,Georgia" font-size="36.0" fill="#000000" transform="matrix(1.00, 0.00, -0.00, -1.00, 285.4, 58.8)">t</text><text xml:space="preserve" font-family="Georgia,Georgia" font-size="36.0" fill="#000000" transform="matrix(1.00, 0.00, -0.00, -1.00, 297.8, 58.8)">t</text><text xml:space="preserve" font-family="Georgia,Georgia" font-size="36.0" fill="#000000" transform="matrix(1.00, 0.00, -0.00, -1.00, 310.3, 58.8)">o</text><text xml:space="preserve" font-family="Georgia,Georgia" font-size="36.0" fill="#000000" transform="matrix(1.00, 0.00, -0.00, -1.00, 329.7, 58.8)">a</text><text xml:space="preserve" font-family="Georgia,Georgia" font-size="36.0" fill="#000000" transform="matrix(1.00, 0.00, -0.00, -1.00, 347.8, 58.8)">i</text><text xml:space="preserve" font-family="Georgia,Georgia" font-size="36.0" fill="#000000" transform="matrix(1.00, 0.00, -0.00, -1.00, 358.4, 58.8)">n</text><text xml:space="preserve" font-family="Georgia,Georgia" font-size="36.0" fill="#000000" transform="matrix(1.00, 0.00, -0.00, -1.00, 379.6, 58.8)">e</text><text xml:space="preserve" font-family="Georgia,Georgia" font-size="36.0" fill="#000000" transform="matrix(1.00, 0.00, -0.00, -1.00, 397.1, 58.8)">i</text><text xml:space="preserve" font-family="Georgia,Georgia" font-size="36.0" fill="#000000" transform="matrix(1.00, 0.00, -0.00, -1.00, 407.6, 58.8)">s</text><text xml:space="preserve" font-family="Georgia,Georgia" font-size="36.0" fill="#000000" transform="matrix(1.00, 0.00, -0.00, -1.00, 423.2, 58.8)">t</text><text xml:space="preserve" font-family="Georgia,Georgia" font-size="36.0" fill="#000000" transform="matrix(1.00, 0.00, -0.00, -1.00, 435.6, 58.8)">a</text><path d="M 0.0 0.0 L 41.9 0.0 L 44.4 0.0 " fill="none" stroke="#000000" stroke-width="5.00" transform="matrix(0.36, 0.93, 0.93, -0.36, 115.0, 140.0)"></path><path d="M 139.4 175.5 L 137.1 198.2 L 120.3 182.8 Z M 139.4 175.5 " fill="#000000"></path></g></svg>