<?xml version="1.0" encoding="UTF-8" standalone="no"?><svg xmlns="http://www.w3.org/2000/svg" xmlns:xlink="http://www.w3.org/1999/xlink" clip-rule="evenodd" stroke-miterlimit="10" viewBox="0 0 159 159"><desc>SVG generated by Keynote</desc><defs></defs><g transform="matrix(1.00, 0.00, -0.00, -1.00, 0.0, 159.0)"><g><clipPath id="clip0x7fda2cd0f910"><path d="M 0.9 0.3 L 158.7 0.3 L 158.7 158.1 L 0.9 158.1 Z M 0.9 0.3 "></path></clipPath><g clip-path="url(#clip0x7fda2cd0f910)"><path d="M 0.1 0.1 L 154.1 0.1 L 154.1 154.1 L 0.1 154.1 Z M 0.0 0.0 " fill="none" stroke="#85878C" stroke-width="2.00" transform="matrix(1.00, 0.00, 0.00, -1.00, 2.9, 156.1)"></path></g></g><g><clipPath id="clip0x7fda2cd10b80"><path d="M 0.9 114.1 L 158.7 114.1 L 158.7 158.1 L 0.9 158.1 Z M 0.9 114.1 "></path></clipPath><g clip-path="url(#clip0x7fda2cd10b80)"><path d="M 3.0 156.0 L 157.0 156.0 L 157.0 116.0 L 3.0 116.0 Z M 2.9 156.1 " fill="#EAD4D0"></path><path d="M 0.1 0.1 L 154.1 0.1 L 154.1 40.1 L 0.1 40.1 Z M 0.0 0.0 " fill="none" stroke="#85878C" stroke-width="2.00" transform="matrix(1.00, 0.00, 0.00, -1.00, 2.9, 156.1)"></path></g></g><g><clipPath id="clip0x7fda2cd121f0"><path d="M 0.9 0.3 L 158.7 0.3 L 158.7 119.7 L 0.9 119.7 Z M 0.9 0.3 "></path></clipPath><g clip-path="url(#clip0x7fda2cd121f0)"><path d="M 3.0 118.0 L 157.0 118.0 L 157.0 2.0 L 3.0 2.0 Z M 2.9 117.7 " fill="#C1E7A5"></path><path d="M 0.1 -0.3 L 154.1 -0.3 L 154.1 115.7 L 0.1 115.7 Z M 0.0 0.0 " fill="none" stroke="#85878C" stroke-width="2.00" transform="matrix(1.00, 0.00, 0.00, -1.00, 2.9, 117.7)"></path></g></g><g><clipPath id="clip0x7fda2cd137c0"><path d="M 1.4 3.3 L 158.2 3.3 L 158.2 116.7 L 1.4 116.7 Z M 1.4 3.3 "></path></clipPath><g clip-path="url(#clip0x7fda2cd137c0)"><text xml:space="preserve" font-family="Georgia,Georgia" font-size="23.0" fill="#000000" transform="matrix(1.00, 0.00, -0.00, -1.00, 31.8, 78.8)">H</text><text xml:space="preserve" font-family="Georgia,Georgia" font-size="23.0" fill="#000000" transform="matrix(1.00, 0.00, -0.00, -1.00, 50.5, 78.8)">y</text><text xml:space="preserve" font-family="Georgia,Georgia" font-size="23.0" fill="#000000" transform="matrix(1.00, 0.00, -0.00, -1.00, 61.9, 78.8)">รถ</text><text xml:space="preserve" font-family="Georgia,Georgia" font-size="23.0" fill="#000000" transform="matrix(1.00, 0.00, -0.00, -1.00, 74.3, 78.8)">d</text><text xml:space="preserve" font-family="Georgia,Georgia" font-size="23.0" fill="#000000" transform="matrix(1.00, 0.00, -0.00, -1.00, 87.5, 78.8)">y</text><text xml:space="preserve" font-family="Georgia,Georgia" font-size="23.0" fill="#000000" transform="matrix(1.00, 0.00, -0.00, -1.00, 98.8, 78.8)">k</text><text xml:space="preserve" font-family="Georgia,Georgia" font-size="23.0" fill="#000000" transform="matrix(1.00, 0.00, -0.00, -1.00, 111.1, 78.8)">s</text><text xml:space="preserve" font-family="Georgia,Georgia" font-size="23.0" fill="#000000" transform="matrix(1.00, 0.00, -0.00, -1.00, 121.1, 78.8)">i</text><text xml:space="preserve" font-family="Georgia,Georgia" font-size="23.0" fill="#000000" transform="matrix(1.00, 0.00, -0.00, -1.00, 127.8, 78.8)"> </text><text xml:space="preserve" font-family="Georgia,Georgia" font-size="23.0" fill="#000000" transform="matrix(1.00, 0.00, -0.00, -1.00, 12.2, 52.8)">s</text><text xml:space="preserve" font-family="Georgia,Georgia" font-size="23.0" fill="#000000" transform="matrix(1.00, 0.00, -0.00, -1.00, 22.2, 52.8)">a</text><text xml:space="preserve" font-family="Georgia,Georgia" font-size="23.0" fill="#000000" transform="matrix(1.00, 0.00, -0.00, -1.00, 33.8, 52.8)">a</text><text xml:space="preserve" font-family="Georgia,Georgia" font-size="23.0" fill="#000000" transform="matrix(1.00, 0.00, -0.00, -1.00, 45.3, 52.8)">t</text><text xml:space="preserve" font-family="Georgia,Georgia" font-size="23.0" fill="#000000" transform="matrix(1.00, 0.00, -0.00, -1.00, 53.3, 52.8)">u</text><text xml:space="preserve" font-family="Georgia,Georgia" font-size="23.0" fill="#000000" transform="matrix(1.00, 0.00, -0.00, -1.00, 66.5, 52.8)"> </text><text xml:space="preserve" font-family="Georgia,Georgia" font-size="23.0" fill="#000000" transform="matrix(1.00, 0.00, -0.00, -1.00, 72.1, 52.8)">e</text><text xml:space="preserve" font-family="Georgia,Georgia" font-size="23.0" fill="#000000" transform="matrix(1.00, 0.00, -0.00, -1.00, 83.2, 52.8)">n</text><text xml:space="preserve" font-family="Georgia,Georgia" font-size="23.0" fill="#000000" transform="matrix(1.00, 0.00, -0.00, -1.00, 96.8, 52.8)">e</text><text xml:space="preserve" font-family="Georgia,Georgia" font-size="23.0" fill="#000000" transform="matrix(1.00, 0.00, -0.00, -1.00, 107.9, 52.8)">r</text><text xml:space="preserve" font-family="Georgia,Georgia" font-size="23.0" fill="#000000" transform="matrix(1.00, 0.00, -0.00, -1.00, 117.3, 52.8)">g</text><text xml:space="preserve" font-family="Georgia,Georgia" font-size="23.0" fill="#000000" transform="matrix(1.00, 0.00, -0.00, -1.00, 129.1, 52.8)">i</text><text xml:space="preserve" font-family="Georgia,Georgia" font-size="23.0" fill="#000000" transform="matrix(1.00, 0.00, -0.00, -1.00, 135.8, 52.8)">a</text><text xml:space="preserve" font-family="Georgia,Georgia" font-size="23.0" fill="#000000" transform="matrix(1.00, 0.00, -0.00, -1.00, 147.4, 52.8)"> </text><text xml:space="preserve" font-family="Georgia,Georgia" font-size="23.0" fill="#000000" transform="matrix(1.00, 0.00, -0.00, -1.00, 67.8, 26.8)">E</text><text xml:space="preserve" font-family="Georgia,Georgia" font-size="15.3" fill="#000000" transform="matrix(1.00, 0.00, -0.00, -1.00, 82.8, 25.1)">h</text></g></g></g></svg>