<?xml version="1.0" encoding="UTF-8" standalone="no"?><svg xmlns="http://www.w3.org/2000/svg" xmlns:xlink="http://www.w3.org/1999/xlink" clip-rule="evenodd" stroke-miterlimit="10" viewBox="0 0 1024 768"><desc>SVG generated by Keynote</desc><defs></defs><g transform="matrix(1.00, 0.00, -0.00, -1.00, 0.0, 768.0)"><path d="M 0.0 768.0 L 1024.0 768.0 L 1024.0 0.0 L 0.0 0.0 Z M 0.0 768.0 " fill="#FEFFFF"></path><text xml:space="preserve" font-family="Georgia,Georgia" font-size="52.0" fill="#000000" transform="matrix(1.00, 0.00, -0.00, -1.00, 79.0, 660.4)">P</text><text xml:space="preserve" font-family="Georgia,Georgia" font-size="52.0" fill="#000000" transform="matrix(1.00, 0.00, -0.00, -1.00, 110.7, 660.4)">a</text><text xml:space="preserve" font-family="Georgia,Georgia" font-size="52.0" fill="#000000" transform="matrix(1.00, 0.00, -0.00, -1.00, 136.9, 660.4)">l</text><text xml:space="preserve" font-family="Georgia,Georgia" font-size="52.0" fill="#000000" transform="matrix(1.00, 0.00, -0.00, -1.00, 151.8, 660.4)">l</text><text xml:space="preserve" font-family="Georgia,Georgia" font-size="52.0" fill="#000000" transform="matrix(1.00, 0.00, -0.00, -1.00, 166.7, 660.4)">o</text><text xml:space="preserve" font-family="Georgia,Georgia" font-size="52.0" fill="#000000" transform="matrix(1.00, 0.00, -0.00, -1.00, 194.7, 660.4)"> </text><text xml:space="preserve" font-family="Georgia,Georgia" font-size="52.0" fill="#000000" transform="matrix(1.00, 0.00, -0.00, -1.00, 207.3, 660.4)">p</text><text xml:space="preserve" font-family="Georgia,Georgia" font-size="52.0" fill="#000000" transform="matrix(1.00, 0.00, -0.00, -1.00, 237.0, 660.4)">ä</text><text xml:space="preserve" font-family="Georgia,Georgia" font-size="52.0" fill="#000000" transform="matrix(1.00, 0.00, -0.00, -1.00, 263.2, 660.4)">ä</text><text xml:space="preserve" font-family="Georgia,Georgia" font-size="52.0" fill="#000000" transform="matrix(1.00, 0.00, -0.00, -1.00, 289.4, 660.4)">s</text><text xml:space="preserve" font-family="Georgia,Georgia" font-size="52.0" fill="#000000" transform="matrix(1.00, 0.00, -0.00, -1.00, 311.9, 660.4)">t</text><text xml:space="preserve" font-family="Georgia,Georgia" font-size="52.0" fill="#000000" transform="matrix(1.00, 0.00, -0.00, -1.00, 329.8, 660.4)">e</text><text xml:space="preserve" font-family="Georgia,Georgia" font-size="52.0" fill="#000000" transform="matrix(1.00, 0.00, -0.00, -1.00, 355.0, 660.4)">t</text><text xml:space="preserve" font-family="Georgia,Georgia" font-size="52.0" fill="#000000" transform="matrix(1.00, 0.00, -0.00, -1.00, 372.9, 660.4)">ä</text><text xml:space="preserve" font-family="Georgia,Georgia" font-size="52.0" fill="#000000" transform="matrix(1.00, 0.00, -0.00, -1.00, 399.1, 660.4)">ä</text><text xml:space="preserve" font-family="Georgia,Georgia" font-size="52.0" fill="#000000" transform="matrix(1.00, 0.00, -0.00, -1.00, 425.3, 660.4)">n</text><text xml:space="preserve" font-family="Georgia,Georgia" font-size="52.0" fill="#000000" transform="matrix(1.00, 0.00, -0.00, -1.00, 456.0, 660.4)"> </text><text xml:space="preserve" font-family="Georgia,Georgia" font-size="52.0" fill="#000000" transform="matrix(1.00, 0.00, -0.00, -1.00, 468.6, 660.4)">v</text><text xml:space="preserve" font-family="Georgia,Georgia" font-size="52.0" fill="#000000" transform="matrix(1.00, 0.00, -0.00, -1.00, 494.4, 660.4)">i</text><text xml:space="preserve" font-family="Georgia,Georgia" font-size="52.0" fill="#000000" transform="matrix(1.00, 0.00, -0.00, -1.00, 509.6, 660.4)">e</text><text xml:space="preserve" font-family="Georgia,Georgia" font-size="52.0" fill="#000000" transform="matrix(1.00, 0.00, -0.00, -1.00, 534.8, 660.4)">r</text><text xml:space="preserve" font-family="Georgia,Georgia" font-size="52.0" fill="#000000" transform="matrix(1.00, 0.00, -0.00, -1.00, 556.1, 660.4)">i</text><text xml:space="preserve" font-family="Georgia,Georgia" font-size="52.0" fill="#000000" transform="matrix(1.00, 0.00, -0.00, -1.00, 571.3, 660.4)">m</text><text xml:space="preserve" font-family="Georgia,Georgia" font-size="52.0" fill="#000000" transform="matrix(1.00, 0.00, -0.00, -1.00, 617.1, 660.4)">ä</text><text xml:space="preserve" font-family="Georgia,Georgia" font-size="52.0" fill="#000000" transform="matrix(1.00, 0.00, -0.00, -1.00, 643.3, 660.4)">ä</text><text xml:space="preserve" font-family="Georgia,Georgia" font-size="52.0" fill="#000000" transform="matrix(1.00, 0.00, -0.00, -1.00, 669.5, 660.4)">n</text><text xml:space="preserve" font-family="Georgia,Georgia" font-size="52.0" fill="#000000" transform="matrix(1.00, 0.00, -0.00, -1.00, 700.2, 660.4)"> </text><text xml:space="preserve" font-family="Georgia,Georgia" font-size="52.0" fill="#000000" transform="matrix(1.00, 0.00, -0.00, -1.00, 712.8, 660.4)">t</text><text xml:space="preserve" font-family="Georgia,Georgia" font-size="52.0" fill="#000000" transform="matrix(1.00, 0.00, -0.00, -1.00, 730.7, 660.4)">a</text><text xml:space="preserve" font-family="Georgia,Georgia" font-size="52.0" fill="#000000" transform="matrix(1.00, 0.00, -0.00, -1.00, 756.9, 660.4)">s</text><text xml:space="preserve" font-family="Georgia,Georgia" font-size="52.0" fill="#000000" transform="matrix(1.00, 0.00, -0.00, -1.00, 779.4, 660.4)">o</text><text xml:space="preserve" font-family="Georgia,Georgia" font-size="52.0" fill="#000000" transform="matrix(1.00, 0.00, -0.00, -1.00, 807.4, 660.4)">a</text><text xml:space="preserve" font-family="Georgia,Georgia" font-size="52.0" fill="#000000" transform="matrix(1.00, 0.00, -0.00, -1.00, 833.6, 660.4)"> </text><text xml:space="preserve" font-family="Georgia,Georgia" font-size="52.0" fill="#000000" transform="matrix(1.00, 0.00, -0.00, -1.00, 79.0, 601.4)">p</text><text xml:space="preserve" font-family="Georgia,Georgia" font-size="52.0" fill="#000000" transform="matrix(1.00, 0.00, -0.00, -1.00, 108.7, 601.4)">i</text><text xml:space="preserve" font-family="Georgia,Georgia" font-size="52.0" fill="#000000" transform="matrix(1.00, 0.00, -0.00, -1.00, 124.0, 601.4)">t</text><text xml:space="preserve" font-family="Georgia,Georgia" font-size="52.0" fill="#000000" transform="matrix(1.00, 0.00, -0.00, -1.00, 141.9, 601.4)">k</text><text xml:space="preserve" font-family="Georgia,Georgia" font-size="52.0" fill="#000000" transform="matrix(1.00, 0.00, -0.00, -1.00, 169.8, 601.4)">i</text><text xml:space="preserve" font-family="Georgia,Georgia" font-size="52.0" fill="#000000" transform="matrix(1.00, 0.00, -0.00, -1.00, 185.0, 601.4)">n</text><text xml:space="preserve" font-family="Georgia,Georgia" font-size="52.0" fill="#000000" transform="matrix(1.00, 0.00, -0.00, -1.00, 215.7, 601.4)">.</text><text xml:space="preserve" font-family="Georgia,Georgia" font-size="52.0" fill="#000000" transform="matrix(1.00, 0.00, -0.00, -1.00, 229.7, 601.4)"> </text><text xml:space="preserve" font-family="Georgia,Georgia" font-size="52.0" fill="#000000" transform="matrix(1.00, 0.00, -0.00, -1.00, 242.2, 601.4)">M</text><text xml:space="preserve" font-family="Georgia,Georgia" font-size="52.0" fill="#000000" transform="matrix(1.00, 0.00, -0.00, -1.00, 290.5, 601.4)">i</text><text xml:space="preserve" font-family="Georgia,Georgia" font-size="52.0" fill="#000000" transform="matrix(1.00, 0.00, -0.00, -1.00, 305.7, 601.4)">n</text><text xml:space="preserve" font-family="Georgia,Georgia" font-size="52.0" fill="#000000" transform="matrix(1.00, 0.00, -0.00, -1.00, 336.4, 601.4)">k</text><text xml:space="preserve" font-family="Georgia,Georgia" font-size="52.0" fill="#000000" transform="matrix(1.00, 0.00, -0.00, -1.00, 364.2, 601.4)">ä</text><text xml:space="preserve" font-family="Georgia,Georgia" font-size="52.0" fill="#000000" transform="matrix(1.00, 0.00, -0.00, -1.00, 390.4, 601.4)"> </text><text xml:space="preserve" font-family="Georgia,Georgia" font-size="52.0" fill="#000000" transform="matrix(1.00, 0.00, -0.00, -1.00, 403.0, 601.4)">p</text><text xml:space="preserve" font-family="Georgia,Georgia" font-size="52.0" fill="#000000" transform="matrix(1.00, 0.00, -0.00, -1.00, 432.7, 601.4)">a</text><text xml:space="preserve" font-family="Georgia,Georgia" font-size="52.0" fill="#000000" transform="matrix(1.00, 0.00, -0.00, -1.00, 458.9, 601.4)">l</text><text xml:space="preserve" font-family="Georgia,Georgia" font-size="52.0" fill="#000000" transform="matrix(1.00, 0.00, -0.00, -1.00, 473.8, 601.4)">l</text><text xml:space="preserve" font-family="Georgia,Georgia" font-size="52.0" fill="#000000" transform="matrix(1.00, 0.00, -0.00, -1.00, 488.7, 601.4)">o</text><text xml:space="preserve" font-family="Georgia,Georgia" font-size="52.0" fill="#000000" transform="matrix(1.00, 0.00, -0.00, -1.00, 516.7, 601.4)">n</text><text xml:space="preserve" font-family="Georgia,Georgia" font-size="52.0" fill="#000000" transform="matrix(1.00, 0.00, -0.00, -1.00, 547.4, 601.4)"> </text><text xml:space="preserve" font-family="Georgia,Georgia" font-size="52.0" fill="#000000" transform="matrix(1.00, 0.00, -0.00, -1.00, 560.0, 601.4)">n</text><text xml:space="preserve" font-family="Georgia,Georgia" font-size="52.0" fill="#000000" transform="matrix(1.00, 0.00, -0.00, -1.00, 590.7, 601.4)">o</text><text xml:space="preserve" font-family="Georgia,Georgia" font-size="52.0" fill="#000000" transform="matrix(1.00, 0.00, -0.00, -1.00, 618.7, 601.4)">p</text><text xml:space="preserve" font-family="Georgia,Georgia" font-size="52.0" fill="#000000" transform="matrix(1.00, 0.00, -0.00, -1.00, 648.5, 601.4)">e</text><text xml:space="preserve" font-family="Georgia,Georgia" font-size="52.0" fill="#000000" transform="matrix(1.00, 0.00, -0.00, -1.00, 673.6, 601.4)">u</text><text xml:space="preserve" font-family="Georgia,Georgia" font-size="52.0" fill="#000000" transform="matrix(1.00, 0.00, -0.00, -1.00, 703.5, 601.4)">s</text><text xml:space="preserve" font-family="Georgia,Georgia" font-size="52.0" fill="#000000" transform="matrix(1.00, 0.00, -0.00, -1.00, 726.0, 601.4)"> </text><text xml:space="preserve" font-family="Georgia,Georgia" font-size="52.0" fill="#000000" transform="matrix(1.00, 0.00, -0.00, -1.00, 738.6, 601.4)">o</text><text xml:space="preserve" font-family="Georgia,Georgia" font-size="52.0" fill="#000000" transform="matrix(1.00, 0.00, -0.00, -1.00, 766.6, 601.4)">n</text><text xml:space="preserve" font-family="Georgia,Georgia" font-size="52.0" fill="#000000" transform="matrix(1.00, 0.00, -0.00, -1.00, 797.3, 601.4)"> </text><text xml:space="preserve" font-family="Georgia,Georgia" font-size="52.0" fill="#000000" transform="matrix(1.00, 0.00, -0.00, -1.00, 79.0, 542.4)">s</text><text xml:space="preserve" font-family="Georgia,Georgia" font-size="52.0" fill="#000000" transform="matrix(1.00, 0.00, -0.00, -1.00, 101.5, 542.4)">u</text><text xml:space="preserve" font-family="Georgia,Georgia" font-size="52.0" fill="#000000" transform="matrix(1.00, 0.00, -0.00, -1.00, 131.4, 542.4)">u</text><text xml:space="preserve" font-family="Georgia,Georgia" font-size="52.0" fill="#000000" transform="matrix(1.00, 0.00, -0.00, -1.00, 161.3, 542.4)">r</text><text xml:space="preserve" font-family="Georgia,Georgia" font-size="52.0" fill="#000000" transform="matrix(1.00, 0.00, -0.00, -1.00, 182.6, 542.4)">i</text><text xml:space="preserve" font-family="Georgia,Georgia" font-size="52.0" fill="#000000" transform="matrix(1.00, 0.00, -0.00, -1.00, 197.8, 542.4)">n</text><text xml:space="preserve" font-family="Georgia,Georgia" font-size="52.0" fill="#000000" transform="matrix(1.00, 0.00, -0.00, -1.00, 228.6, 542.4)"> </text><text xml:space="preserve" font-family="Georgia,Georgia" font-size="52.0" fill="#000000" transform="matrix(1.00, 0.00, -0.00, -1.00, 241.1, 542.4)">l</text><text xml:space="preserve" font-family="Georgia,Georgia" font-size="52.0" fill="#000000" transform="matrix(1.00, 0.00, -0.00, -1.00, 256.0, 542.4)">o</text><text xml:space="preserve" font-family="Georgia,Georgia" font-size="52.0" fill="#000000" transform="matrix(1.00, 0.00, -0.00, -1.00, 284.0, 542.4)">p</text><text xml:space="preserve" font-family="Georgia,Georgia" font-size="52.0" fill="#000000" transform="matrix(1.00, 0.00, -0.00, -1.00, 313.7, 542.4)">p</text><text xml:space="preserve" font-family="Georgia,Georgia" font-size="52.0" fill="#000000" transform="matrix(1.00, 0.00, -0.00, -1.00, 343.5, 542.4)">u</text><text xml:space="preserve" font-family="Georgia,Georgia" font-size="52.0" fill="#000000" transform="matrix(1.00, 0.00, -0.00, -1.00, 373.4, 542.4)">t</text><text xml:space="preserve" font-family="Georgia,Georgia" font-size="52.0" fill="#000000" transform="matrix(1.00, 0.00, -0.00, -1.00, 391.4, 542.4)">i</text><text xml:space="preserve" font-family="Georgia,Georgia" font-size="52.0" fill="#000000" transform="matrix(1.00, 0.00, -0.00, -1.00, 406.6, 542.4)">l</text><text xml:space="preserve" font-family="Georgia,Georgia" font-size="52.0" fill="#000000" transform="matrix(1.00, 0.00, -0.00, -1.00, 421.5, 542.4)">a</text><text xml:space="preserve" font-family="Georgia,Georgia" font-size="52.0" fill="#000000" transform="matrix(1.00, 0.00, -0.00, -1.00, 447.7, 542.4)">n</text><text xml:space="preserve" font-family="Georgia,Georgia" font-size="52.0" fill="#000000" transform="matrix(1.00, 0.00, -0.00, -1.00, 478.4, 542.4)">t</text><text xml:space="preserve" font-family="Georgia,Georgia" font-size="52.0" fill="#000000" transform="matrix(1.00, 0.00, -0.00, -1.00, 496.3, 542.4)">e</text><text xml:space="preserve" font-family="Georgia,Georgia" font-size="52.0" fill="#000000" transform="matrix(1.00, 0.00, -0.00, -1.00, 521.5, 542.4)">i</text><text xml:space="preserve" font-family="Georgia,Georgia" font-size="52.0" fill="#000000" transform="matrix(1.00, 0.00, -0.00, -1.00, 536.7, 542.4)">s</text><text xml:space="preserve" font-family="Georgia,Georgia" font-size="52.0" fill="#000000" transform="matrix(1.00, 0.00, -0.00, -1.00, 559.2, 542.4)">s</text><text xml:space="preserve" font-family="Georgia,Georgia" font-size="52.0" fill="#000000" transform="matrix(1.00, 0.00, -0.00, -1.00, 581.7, 542.4)">a</text><text xml:space="preserve" font-family="Georgia,Georgia" font-size="52.0" fill="#000000" transform="matrix(1.00, 0.00, -0.00, -1.00, 607.9, 542.4)">?</text><g><clipPath id="clip0x6000010af540"><path d="M 481.3 95.4 L 563.3 95.4 L 563.3 177.5 L 481.3 177.5 Z M 481.3 95.4 "></path></clipPath><g clip-path="url(#clip0x6000010af540)"><image xlink:href="../../CFC43A5F-C3C2-4640-95E1-E2FA6708DD55/assets/D036DD584701D6D3C78097235DF49C63.png" width="80.00" height="80.00" transform="matrix(1.00, 0.00, -0.00, -1.00, 482.3, 176.5)" opacity="0.50"></image><path d="M 548.5 164.6 C 562.9 150.2 562.9 126.7 548.5 112.3 C 534.0 97.8 510.6 97.8 496.1 112.3 C 481.7 126.7 481.7 150.2 496.1 164.6 C 510.6 179.1 534.0 179.1 548.5 164.6 Z M 548.5 164.6 " fill="#C82505"></path></g></g><g><clipPath id="clip0x6000010af840"><path d="M 486.3 92.0 L 583.5 92.0 L 583.5 194.9 L 486.3 194.9 Z M 486.3 92.0 "></path></clipPath><g clip-path="url(#clip0x6000010af840)"><text xml:space="preserve" font-family="Georgia,Georgia" font-size="52.0" fill="#000000" transform="matrix(1.00, 0.00, -0.00, -1.00, 501.1, 125.3)">B</text><text xml:space="preserve" font-family="Georgia,Georgia" font-size="52.0" fill="#000000" transform="matrix(1.00, 0.00, -0.00, -1.00, 535.0, 125.3)">.</text></g></g><g><clipPath id="clip0x6000010afae0"><path d="M 127.1 96.5 L 209.1 96.5 L 209.1 178.5 L 127.1 178.5 Z M 127.1 96.5 "></path></clipPath><g clip-path="url(#clip0x6000010afae0)"><image xlink:href="../../CFC43A5F-C3C2-4640-95E1-E2FA6708DD55/assets/D036DD584701D6D3C78097235DF49C63.png" width="80.00" height="80.00" transform="matrix(1.00, 0.00, -0.00, -1.00, 128.1, 177.5)" opacity="0.50"></image><path d="M 194.2 165.6 C 208.7 151.2 208.7 127.7 194.2 113.3 C 179.8 98.8 156.3 98.8 141.9 113.3 C 127.4 127.7 127.4 151.2 141.9 165.6 C 156.3 180.1 179.8 180.1 194.2 165.6 Z M 194.2 165.6 " fill="#00872A"></path></g></g><g><clipPath id="clip0x6000010afde0"><path d="M 129.1 99.2 L 208.5 99.2 L 208.5 187.7 L 129.1 187.7 Z M 129.1 99.2 "></path></clipPath><g clip-path="url(#clip0x6000010afde0)"><text xml:space="preserve" font-family="Georgia,Georgia" font-size="52.0" fill="#000000" transform="matrix(1.00, 0.00, -0.00, -1.00, 143.8, 125.4)">A</text><text xml:space="preserve" font-family="Georgia,Georgia" font-size="52.0" fill="#000000" transform="matrix(1.00, 0.00, -0.00, -1.00, 178.7, 125.4)">.</text></g></g><g><clipPath id="clip0x6000010b0080"><path d="M 827.1 96.4 L 909.1 96.4 L 909.1 178.5 L 827.1 178.5 Z M 827.1 96.4 "></path></clipPath><g clip-path="url(#clip0x6000010b0080)"><image xlink:href="../../CFC43A5F-C3C2-4640-95E1-E2FA6708DD55/assets/D036DD584701D6D3C78097235DF49C63.png" width="80.00" height="80.00" transform="matrix(1.00, 0.00, -0.00, -1.00, 828.1, 177.5)" opacity="0.50"></image><path d="M 894.3 165.6 C 908.7 151.2 908.7 127.7 894.3 113.3 C 879.8 98.8 856.4 98.8 841.9 113.3 C 827.5 127.7 827.5 151.2 841.9 165.6 C 856.4 180.1 879.8 180.1 894.3 165.6 Z M 894.3 165.6 " fill="#0264C0"></path></g></g><g><clipPath id="clip0x6080012a4260"><path d="M 828.4 92.0 L 925.6 92.0 L 925.6 194.9 L 828.4 194.9 Z M 828.4 92.0 "></path></clipPath><g clip-path="url(#clip0x6080012a4260)"><text xml:space="preserve" font-family="Georgia,Georgia" font-size="52.0" fill="#000000" transform="matrix(1.00, 0.00, -0.00, -1.00, 843.2, 125.3)">C</text><text xml:space="preserve" font-family="Georgia,Georgia" font-size="52.0" fill="#000000" transform="matrix(1.00, 0.00, -0.00, -1.00, 876.6, 125.3)">.</text></g></g><image xlink:href="65D9EDF35106B679A88ED5F27ECDC77D.png" width="1710.00" height="505.00" transform="matrix(0.60, 0.00, -0.00, -0.60, 0.0, 502.0)"></image><path d="M 15.1 2.6 C 18.5 6.0 18.5 11.6 15.1 15.1 C 11.6 18.5 6.0 18.5 2.6 15.1 C -0.9 11.6 -0.9 6.0 2.6 2.6 C 6.0 -0.9 11.6 -0.9 15.1 2.6 Z M 15.1 2.6 " fill="none" stroke="#000000" stroke-width="2.00" stroke-dasharray="2.0, 2.0" transform="matrix(1.00, 0.00, 0.00, -1.00, 584.0, 256.0)"></path><path d="M 15.1 2.6 C 18.5 6.0 18.5 11.6 15.1 15.1 C 11.6 18.5 6.0 18.5 2.6 15.1 C -0.9 11.6 -0.9 6.0 2.6 2.6 C 6.0 -0.9 11.6 -0.9 15.1 2.6 Z M 15.1 2.6 " fill="none" stroke="#000000" stroke-width="2.00" stroke-dasharray="2.0, 2.0" transform="matrix(1.00, 0.00, 0.00, -1.00, 337.0, 256.0)"></path><path d="M 15.1 2.6 C 18.5 6.0 18.5 11.6 15.1 15.1 C 11.6 18.5 6.0 18.5 2.6 15.1 C -0.9 11.6 -0.9 6.0 2.6 2.6 C 6.0 -0.9 11.6 -0.9 15.1 2.6 Z M 15.1 2.6 " fill="none" stroke="#000000" stroke-width="2.00" stroke-dasharray="2.0, 2.0" transform="matrix(1.00, 0.00, 0.00, -1.00, 984.0, 256.0)"></path></g></svg>