<?xml version="1.0" encoding="UTF-8" standalone="no"?><svg xmlns="http://www.w3.org/2000/svg" xmlns:xlink="http://www.w3.org/1999/xlink" clip-rule="evenodd" stroke-miterlimit="10" viewBox="0 0 1024 768"><desc>SVG generated by Keynote</desc><defs></defs><g transform="matrix(1.00, 0.00, -0.00, -1.00, 0.0, 768.0)"><path d="M 0.0 768.0 L 1024.0 768.0 L 1024.0 0.0 L 0.0 0.0 Z M 0.0 768.0 " fill="#FEFFFF"></path><text xml:space="preserve" font-family="Georgia,Georgia" font-size="65.0" fill="#000000" transform="matrix(1.00, 0.00, -0.00, -1.00, 321.7, 648.3)">L</text><text xml:space="preserve" font-family="Georgia,Georgia" font-size="65.0" fill="#000000" transform="matrix(1.00, 0.00, -0.00, -1.00, 360.9, 648.3)">i</text><text xml:space="preserve" font-family="Georgia,Georgia" font-size="65.0" fill="#000000" transform="matrix(1.00, 0.00, -0.00, -1.00, 379.9, 648.3)">i</text><text xml:space="preserve" font-family="Georgia,Georgia" font-size="65.0" fill="#000000" transform="matrix(1.00, 0.00, -0.00, -1.00, 399.0, 648.3)">k</text><text xml:space="preserve" font-family="Georgia,Georgia" font-size="65.0" fill="#000000" transform="matrix(1.00, 0.00, -0.00, -1.00, 433.8, 648.3)">e</text><text xml:space="preserve" font-family="Georgia,Georgia" font-size="65.0" fill="#000000" transform="matrix(1.00, 0.00, -0.00, -1.00, 465.2, 648.3)">-</text><text xml:space="preserve" font-family="Georgia,Georgia" font-size="65.0" fill="#000000" transform="matrix(1.00, 0.00, -0.00, -1.00, 489.5, 648.3)">e</text><text xml:space="preserve" font-family="Georgia,Georgia" font-size="65.0" fill="#000000" transform="matrix(1.00, 0.00, -0.00, -1.00, 521.0, 648.3)">n</text><text xml:space="preserve" font-family="Georgia,Georgia" font-size="65.0" fill="#000000" transform="matrix(1.00, 0.00, -0.00, -1.00, 559.3, 648.3)">e</text><text xml:space="preserve" font-family="Georgia,Georgia" font-size="65.0" fill="#000000" transform="matrix(1.00, 0.00, -0.00, -1.00, 590.8, 648.3)">r</text><text xml:space="preserve" font-family="Georgia,Georgia" font-size="65.0" fill="#000000" transform="matrix(1.00, 0.00, -0.00, -1.00, 617.4, 648.3)">g</text><text xml:space="preserve" font-family="Georgia,Georgia" font-size="65.0" fill="#000000" transform="matrix(1.00, 0.00, -0.00, -1.00, 650.5, 648.3)">i</text><text xml:space="preserve" font-family="Georgia,Georgia" font-size="65.0" fill="#000000" transform="matrix(1.00, 0.00, -0.00, -1.00, 669.6, 648.3)">a</text><text xml:space="preserve" font-family="Georgia,Georgia" font-size="27.0" fill="#000000" transform="matrix(1.00, 0.00, -0.00, -1.00, 79.0, 551.9)">•</text><text xml:space="preserve" font-family="Georgia,Georgia" font-size="36.0" fill="#000000" transform="matrix(1.00, 0.00, -0.00, -1.00, 114.0, 548.9)">K</text><text xml:space="preserve" font-family="Georgia,Georgia" font-size="36.0" fill="#000000" transform="matrix(1.00, 0.00, -0.00, -1.00, 139.0, 548.9)">a</text><text xml:space="preserve" font-family="Georgia,Georgia" font-size="36.0" fill="#000000" transform="matrix(1.00, 0.00, -0.00, -1.00, 157.1, 548.9)">i</text><text xml:space="preserve" font-family="Georgia,Georgia" font-size="36.0" fill="#000000" transform="matrix(1.00, 0.00, -0.00, -1.00, 167.7, 548.9)">k</text><text xml:space="preserve" font-family="Georgia,Georgia" font-size="36.0" fill="#000000" transform="matrix(1.00, 0.00, -0.00, -1.00, 187.0, 548.9)">i</text><text xml:space="preserve" font-family="Georgia,Georgia" font-size="36.0" fill="#000000" transform="matrix(1.00, 0.00, -0.00, -1.00, 197.5, 548.9)">l</text><text xml:space="preserve" font-family="Georgia,Georgia" font-size="36.0" fill="#000000" transform="matrix(1.00, 0.00, -0.00, -1.00, 207.8, 548.9)">l</text><text xml:space="preserve" font-family="Georgia,Georgia" font-size="36.0" fill="#000000" transform="matrix(1.00, 0.00, -0.00, -1.00, 218.1, 548.9)">a</text><text xml:space="preserve" font-family="Georgia,Georgia" font-size="36.0" fill="#000000" transform="matrix(1.00, 0.00, -0.00, -1.00, 236.3, 548.9)"> </text><text xml:space="preserve" font-family="Georgia,Georgia" font-size="36.0" fill="#000000" transform="matrix(1.00, 0.00, -0.00, -1.00, 244.9, 548.9)">l</text><text xml:space="preserve" font-family="Georgia,Georgia" font-size="36.0" fill="#000000" transform="matrix(1.00, 0.00, -0.00, -1.00, 255.2, 548.9)">i</text><text xml:space="preserve" font-family="Georgia,Georgia" font-size="36.0" fill="#000000" transform="matrix(1.00, 0.00, -0.00, -1.00, 265.8, 548.9)">i</text><text xml:space="preserve" font-family="Georgia,Georgia" font-size="36.0" fill="#000000" transform="matrix(1.00, 0.00, -0.00, -1.00, 276.3, 548.9)">k</text><text xml:space="preserve" font-family="Georgia,Georgia" font-size="36.0" fill="#000000" transform="matrix(1.00, 0.00, -0.00, -1.00, 295.6, 548.9)">k</text><text xml:space="preserve" font-family="Georgia,Georgia" font-size="36.0" fill="#000000" transform="matrix(1.00, 0.00, -0.00, -1.00, 314.9, 548.9)">u</text><text xml:space="preserve" font-family="Georgia,Georgia" font-size="36.0" fill="#000000" transform="matrix(1.00, 0.00, -0.00, -1.00, 335.6, 548.9)">v</text><text xml:space="preserve" font-family="Georgia,Georgia" font-size="36.0" fill="#000000" transform="matrix(1.00, 0.00, -0.00, -1.00, 353.5, 548.9)">i</text><text xml:space="preserve" font-family="Georgia,Georgia" font-size="36.0" fill="#000000" transform="matrix(1.00, 0.00, -0.00, -1.00, 364.0, 548.9)">l</text><text xml:space="preserve" font-family="Georgia,Georgia" font-size="36.0" fill="#000000" transform="matrix(1.00, 0.00, -0.00, -1.00, 374.3, 548.9)">l</text><text xml:space="preserve" font-family="Georgia,Georgia" font-size="36.0" fill="#000000" transform="matrix(1.00, 0.00, -0.00, -1.00, 384.6, 548.9)">a</text><text xml:space="preserve" font-family="Georgia,Georgia" font-size="36.0" fill="#000000" transform="matrix(1.00, 0.00, -0.00, -1.00, 402.7, 548.9)"> </text><text xml:space="preserve" font-family="Georgia,Georgia" font-size="36.0" fill="#000000" transform="matrix(1.00, 0.00, -0.00, -1.00, 411.4, 548.9)">k</text><text xml:space="preserve" font-family="Georgia,Georgia" font-size="36.0" fill="#000000" transform="matrix(1.00, 0.00, -0.00, -1.00, 430.7, 548.9)">a</text><text xml:space="preserve" font-family="Georgia,Georgia" font-size="36.0" fill="#000000" transform="matrix(1.00, 0.00, -0.00, -1.00, 448.8, 548.9)">p</text><text xml:space="preserve" font-family="Georgia,Georgia" font-size="36.0" fill="#000000" transform="matrix(1.00, 0.00, -0.00, -1.00, 469.4, 548.9)">p</text><text xml:space="preserve" font-family="Georgia,Georgia" font-size="36.0" fill="#000000" transform="matrix(1.00, 0.00, -0.00, -1.00, 490.0, 548.9)">a</text><text xml:space="preserve" font-family="Georgia,Georgia" font-size="36.0" fill="#000000" transform="matrix(1.00, 0.00, -0.00, -1.00, 508.1, 548.9)">l</text><text xml:space="preserve" font-family="Georgia,Georgia" font-size="36.0" fill="#000000" transform="matrix(1.00, 0.00, -0.00, -1.00, 518.4, 548.9)">e</text><text xml:space="preserve" font-family="Georgia,Georgia" font-size="36.0" fill="#000000" transform="matrix(1.00, 0.00, -0.00, -1.00, 535.9, 548.9)">i</text><text xml:space="preserve" font-family="Georgia,Georgia" font-size="36.0" fill="#000000" transform="matrix(1.00, 0.00, -0.00, -1.00, 546.4, 548.9)">l</text><text xml:space="preserve" font-family="Georgia,Georgia" font-size="36.0" fill="#000000" transform="matrix(1.00, 0.00, -0.00, -1.00, 556.7, 548.9)">l</text><text xml:space="preserve" font-family="Georgia,Georgia" font-size="36.0" fill="#000000" transform="matrix(1.00, 0.00, -0.00, -1.00, 567.0, 548.9)">a</text><text xml:space="preserve" font-family="Georgia,Georgia" font-size="36.0" fill="#000000" transform="matrix(1.00, 0.00, -0.00, -1.00, 585.2, 548.9)"> </text><text xml:space="preserve" font-family="Georgia,Georgia" font-size="36.0" fill="#000000" transform="matrix(1.00, 0.00, -0.00, -1.00, 593.8, 548.9)">o</text><text xml:space="preserve" font-family="Georgia,Georgia" font-size="36.0" fill="#000000" transform="matrix(1.00, 0.00, -0.00, -1.00, 613.3, 548.9)">n</text><text xml:space="preserve" font-family="Georgia,Georgia" font-size="36.0" fill="#000000" transform="matrix(1.00, 0.00, -0.00, -1.00, 634.5, 548.9)"> </text><text xml:space="preserve" font-family="Georgia,Georgia" font-size="36.0" fill="#000000" transform="matrix(1.00, 0.00, -0.00, -1.00, 643.2, 548.9)">l</text><text xml:space="preserve" font-family="Georgia,Georgia" font-size="36.0" fill="#000000" transform="matrix(1.00, 0.00, -0.00, -1.00, 653.5, 548.9)">i</text><text xml:space="preserve" font-family="Georgia,Georgia" font-size="36.0" fill="#000000" transform="matrix(1.00, 0.00, -0.00, -1.00, 664.1, 548.9)">i</text><text xml:space="preserve" font-family="Georgia,Georgia" font-size="36.0" fill="#000000" transform="matrix(1.00, 0.00, -0.00, -1.00, 674.6, 548.9)">k</text><text xml:space="preserve" font-family="Georgia,Georgia" font-size="36.0" fill="#000000" transform="matrix(1.00, 0.00, -0.00, -1.00, 693.9, 548.9)">e</text><text xml:space="preserve" font-family="Georgia,Georgia" font-size="36.0" fill="#000000" transform="matrix(1.00, 0.00, -0.00, -1.00, 711.3, 548.9)">-</text><text xml:space="preserve" font-family="Georgia,Georgia" font-size="36.0" fill="#000000" transform="matrix(1.00, 0.00, -0.00, -1.00, 724.8, 548.9)">e</text><text xml:space="preserve" font-family="Georgia,Georgia" font-size="36.0" fill="#000000" transform="matrix(1.00, 0.00, -0.00, -1.00, 742.2, 548.9)">n</text><text xml:space="preserve" font-family="Georgia,Georgia" font-size="36.0" fill="#000000" transform="matrix(1.00, 0.00, -0.00, -1.00, 763.4, 548.9)">e</text><text xml:space="preserve" font-family="Georgia,Georgia" font-size="36.0" fill="#000000" transform="matrix(1.00, 0.00, -0.00, -1.00, 780.8, 548.9)">r</text><text xml:space="preserve" font-family="Georgia,Georgia" font-size="36.0" fill="#000000" transform="matrix(1.00, 0.00, -0.00, -1.00, 795.6, 548.9)">g</text><text xml:space="preserve" font-family="Georgia,Georgia" font-size="36.0" fill="#000000" transform="matrix(1.00, 0.00, -0.00, -1.00, 813.9, 548.9)">i</text><text xml:space="preserve" font-family="Georgia,Georgia" font-size="36.0" fill="#000000" transform="matrix(1.00, 0.00, -0.00, -1.00, 824.5, 548.9)">a</text><text xml:space="preserve" font-family="Georgia,Georgia" font-size="36.0" fill="#000000" transform="matrix(1.00, 0.00, -0.00, -1.00, 842.6, 548.9)">a</text><text xml:space="preserve" font-family="Georgia,Georgia" font-size="36.0" fill="#000000" transform="matrix(1.00, 0.00, -0.00, -1.00, 860.8, 548.9)"> </text><text xml:space="preserve" font-family="Georgia,Georgia" font-size="27.0" fill="#000000" transform="matrix(1.00, 0.00, -0.00, -1.00, 79.0, 496.9)">•</text><text xml:space="preserve" font-family="Georgia,Georgia" font-size="36.0" fill="#000000" transform="matrix(1.00, 0.00, -0.00, -1.00, 114.0, 493.9)">L</text><text xml:space="preserve" font-family="Georgia,Georgia" font-size="36.0" fill="#000000" transform="matrix(1.00, 0.00, -0.00, -1.00, 135.7, 493.9)">i</text><text xml:space="preserve" font-family="Georgia,Georgia" font-size="36.0" fill="#000000" transform="matrix(1.00, 0.00, -0.00, -1.00, 146.3, 493.9)">i</text><text xml:space="preserve" font-family="Georgia,Georgia" font-size="36.0" fill="#000000" transform="matrix(1.00, 0.00, -0.00, -1.00, 156.8, 493.9)">k</text><text xml:space="preserve" font-family="Georgia,Georgia" font-size="36.0" fill="#000000" transform="matrix(1.00, 0.00, -0.00, -1.00, 176.1, 493.9)">e</text><text xml:space="preserve" font-family="Georgia,Georgia" font-size="36.0" fill="#000000" transform="matrix(1.00, 0.00, -0.00, -1.00, 193.5, 493.9)">-</text><text xml:space="preserve" font-family="Georgia,Georgia" font-size="36.0" fill="#000000" transform="matrix(1.00, 0.00, -0.00, -1.00, 207.0, 493.9)">e</text><text xml:space="preserve" font-family="Georgia,Georgia" font-size="36.0" fill="#000000" transform="matrix(1.00, 0.00, -0.00, -1.00, 224.4, 493.9)">n</text><text xml:space="preserve" font-family="Georgia,Georgia" font-size="36.0" fill="#000000" transform="matrix(1.00, 0.00, -0.00, -1.00, 245.6, 493.9)">e</text><text xml:space="preserve" font-family="Georgia,Georgia" font-size="36.0" fill="#000000" transform="matrix(1.00, 0.00, -0.00, -1.00, 263.0, 493.9)">r</text><text xml:space="preserve" font-family="Georgia,Georgia" font-size="36.0" fill="#000000" transform="matrix(1.00, 0.00, -0.00, -1.00, 277.8, 493.9)">g</text><text xml:space="preserve" font-family="Georgia,Georgia" font-size="36.0" fill="#000000" transform="matrix(1.00, 0.00, -0.00, -1.00, 296.1, 493.9)">i</text><text xml:space="preserve" font-family="Georgia,Georgia" font-size="36.0" fill="#000000" transform="matrix(1.00, 0.00, -0.00, -1.00, 306.7, 493.9)">a</text><text xml:space="preserve" font-family="Georgia,Georgia" font-size="36.0" fill="#000000" transform="matrix(1.00, 0.00, -0.00, -1.00, 324.8, 493.9)">n</text><text xml:space="preserve" font-family="Georgia,Georgia" font-size="36.0" fill="#000000" transform="matrix(1.00, 0.00, -0.00, -1.00, 346.1, 493.9)"> </text><text xml:space="preserve" font-family="Georgia,Georgia" font-size="36.0" fill="#000000" transform="matrix(1.00, 0.00, -0.00, -1.00, 354.8, 493.9)">s</text><text xml:space="preserve" font-family="Georgia,Georgia" font-size="36.0" fill="#000000" transform="matrix(1.00, 0.00, -0.00, -1.00, 370.3, 493.9)">u</text><text xml:space="preserve" font-family="Georgia,Georgia" font-size="36.0" fill="#000000" transform="matrix(1.00, 0.00, -0.00, -1.00, 391.0, 493.9)">u</text><text xml:space="preserve" font-family="Georgia,Georgia" font-size="36.0" fill="#000000" transform="matrix(1.00, 0.00, -0.00, -1.00, 411.8, 493.9)">r</text><text xml:space="preserve" font-family="Georgia,Georgia" font-size="36.0" fill="#000000" transform="matrix(1.00, 0.00, -0.00, -1.00, 426.5, 493.9)">u</text><text xml:space="preserve" font-family="Georgia,Georgia" font-size="36.0" fill="#000000" transform="matrix(1.00, 0.00, -0.00, -1.00, 447.2, 493.9)">u</text><text xml:space="preserve" font-family="Georgia,Georgia" font-size="36.0" fill="#000000" transform="matrix(1.00, 0.00, -0.00, -1.00, 467.9, 493.9)">t</text><text xml:space="preserve" font-family="Georgia,Georgia" font-size="36.0" fill="#000000" transform="matrix(1.00, 0.00, -0.00, -1.00, 480.4, 493.9)">e</text><text xml:space="preserve" font-family="Georgia,Georgia" font-size="36.0" fill="#000000" transform="matrix(1.00, 0.00, -0.00, -1.00, 497.8, 493.9)">e</text><text xml:space="preserve" font-family="Georgia,Georgia" font-size="36.0" fill="#000000" transform="matrix(1.00, 0.00, -0.00, -1.00, 515.2, 493.9)">n</text><text xml:space="preserve" font-family="Georgia,Georgia" font-size="36.0" fill="#000000" transform="matrix(1.00, 0.00, -0.00, -1.00, 536.5, 493.9)"> </text><text xml:space="preserve" font-family="Georgia,Georgia" font-size="36.0" fill="#000000" transform="matrix(1.00, 0.00, -0.00, -1.00, 545.1, 493.9)">v</text><text xml:space="preserve" font-family="Georgia,Georgia" font-size="36.0" fill="#000000" transform="matrix(1.00, 0.00, -0.00, -1.00, 563.0, 493.9)">a</text><text xml:space="preserve" font-family="Georgia,Georgia" font-size="36.0" fill="#000000" transform="matrix(1.00, 0.00, -0.00, -1.00, 581.1, 493.9)">i</text><text xml:space="preserve" font-family="Georgia,Georgia" font-size="36.0" fill="#000000" transform="matrix(1.00, 0.00, -0.00, -1.00, 591.7, 493.9)">k</text><text xml:space="preserve" font-family="Georgia,Georgia" font-size="36.0" fill="#000000" transform="matrix(1.00, 0.00, -0.00, -1.00, 611.0, 493.9)">u</text><text xml:space="preserve" font-family="Georgia,Georgia" font-size="36.0" fill="#000000" transform="matrix(1.00, 0.00, -0.00, -1.00, 631.7, 493.9)">t</text><text xml:space="preserve" font-family="Georgia,Georgia" font-size="36.0" fill="#000000" transform="matrix(1.00, 0.00, -0.00, -1.00, 644.1, 493.9)">t</text><text xml:space="preserve" font-family="Georgia,Georgia" font-size="36.0" fill="#000000" transform="matrix(1.00, 0.00, -0.00, -1.00, 656.5, 493.9)">a</text><text xml:space="preserve" font-family="Georgia,Georgia" font-size="36.0" fill="#000000" transform="matrix(1.00, 0.00, -0.00, -1.00, 674.7, 493.9)">v</text><text xml:space="preserve" font-family="Georgia,Georgia" font-size="36.0" fill="#000000" transform="matrix(1.00, 0.00, -0.00, -1.00, 692.5, 493.9)">a</text><text xml:space="preserve" font-family="Georgia,Georgia" font-size="36.0" fill="#000000" transform="matrix(1.00, 0.00, -0.00, -1.00, 710.7, 493.9)">t</text><text xml:space="preserve" font-family="Georgia,Georgia" font-size="36.0" fill="#000000" transform="matrix(1.00, 0.00, -0.00, -1.00, 723.1, 493.9)">:</text><text xml:space="preserve" font-family="Georgia,Georgia" font-size="36.0" fill="#000000" transform="matrix(1.00, 0.00, -0.00, -1.00, 734.3, 493.9)"> </text><text xml:space="preserve" font-family="Georgia,Georgia" font-size="27.0" fill="#000000" transform="matrix(1.00, 0.00, -0.00, -1.00, 114.0, 441.9)">•</text><text xml:space="preserve" font-family="Georgia,Georgia" font-size="36.0" fill="#000000" transform="matrix(1.00, 0.00, -0.00, -1.00, 149.0, 438.9)">K</text><text xml:space="preserve" font-family="Georgia,Georgia" font-size="36.0" fill="#000000" transform="matrix(1.00, 0.00, -0.00, -1.00, 174.0, 438.9)">a</text><text xml:space="preserve" font-family="Georgia,Georgia" font-size="36.0" fill="#000000" transform="matrix(1.00, 0.00, -0.00, -1.00, 192.2, 438.9)">p</text><text xml:space="preserve" font-family="Georgia,Georgia" font-size="36.0" fill="#000000" transform="matrix(1.00, 0.00, -0.00, -1.00, 212.7, 438.9)">p</text><text xml:space="preserve" font-family="Georgia,Georgia" font-size="36.0" fill="#000000" transform="matrix(1.00, 0.00, -0.00, -1.00, 233.3, 438.9)">a</text><text xml:space="preserve" font-family="Georgia,Georgia" font-size="36.0" fill="#000000" transform="matrix(1.00, 0.00, -0.00, -1.00, 251.5, 438.9)">l</text><text xml:space="preserve" font-family="Georgia,Georgia" font-size="36.0" fill="#000000" transform="matrix(1.00, 0.00, -0.00, -1.00, 261.8, 438.9)">e</text><text xml:space="preserve" font-family="Georgia,Georgia" font-size="36.0" fill="#000000" transform="matrix(1.00, 0.00, -0.00, -1.00, 279.2, 438.9)">e</text><text xml:space="preserve" font-family="Georgia,Georgia" font-size="36.0" fill="#000000" transform="matrix(1.00, 0.00, -0.00, -1.00, 296.6, 438.9)">n</text><text xml:space="preserve" font-family="Georgia,Georgia" font-size="36.0" fill="#000000" transform="matrix(1.00, 0.00, -0.00, -1.00, 317.8, 438.9)"> </text><text xml:space="preserve" font-family="Georgia-Bold,Georgia" font-weight="bold" font-size="36.0" fill="#000000" transform="matrix(1.00, 0.00, -0.00, -1.00, 326.5, 438.9)">m</text><text xml:space="preserve" font-family="Georgia-Bold,Georgia" font-weight="bold" font-size="36.0" fill="#000000" transform="matrix(1.00, 0.00, -0.00, -1.00, 363.0, 438.9)">a</text><text xml:space="preserve" font-family="Georgia-Bold,Georgia" font-weight="bold" font-size="36.0" fill="#000000" transform="matrix(1.00, 0.00, -0.00, -1.00, 384.4, 438.9)">s</text><text xml:space="preserve" font-family="Georgia-Bold,Georgia" font-weight="bold" font-size="36.0" fill="#000000" transform="matrix(1.00, 0.00, -0.00, -1.00, 402.9, 438.9)">s</text><text xml:space="preserve" font-family="Georgia-Bold,Georgia" font-weight="bold" font-size="36.0" fill="#000000" transform="matrix(1.00, 0.00, -0.00, -1.00, 421.3, 438.9)">a</text><text xml:space="preserve" font-family="Georgia,Georgia" font-size="36.0" fill="#000000" transform="matrix(1.00, 0.00, -0.00, -1.00, 442.8, 438.9)"> </text><text xml:space="preserve" font-family="Georgia,Georgia" font-size="27.0" fill="#000000" transform="matrix(1.00, 0.00, -0.00, -1.00, 114.0, 386.9)">•</text><text xml:space="preserve" font-family="Georgia,Georgia" font-size="36.0" fill="#000000" transform="matrix(1.00, 0.00, -0.00, -1.00, 149.0, 383.9)">K</text><text xml:space="preserve" font-family="Georgia,Georgia" font-size="36.0" fill="#000000" transform="matrix(1.00, 0.00, -0.00, -1.00, 174.0, 383.9)">a</text><text xml:space="preserve" font-family="Georgia,Georgia" font-size="36.0" fill="#000000" transform="matrix(1.00, 0.00, -0.00, -1.00, 192.2, 383.9)">p</text><text xml:space="preserve" font-family="Georgia,Georgia" font-size="36.0" fill="#000000" transform="matrix(1.00, 0.00, -0.00, -1.00, 212.7, 383.9)">p</text><text xml:space="preserve" font-family="Georgia,Georgia" font-size="36.0" fill="#000000" transform="matrix(1.00, 0.00, -0.00, -1.00, 233.3, 383.9)">a</text><text xml:space="preserve" font-family="Georgia,Georgia" font-size="36.0" fill="#000000" transform="matrix(1.00, 0.00, -0.00, -1.00, 251.5, 383.9)">l</text><text xml:space="preserve" font-family="Georgia,Georgia" font-size="36.0" fill="#000000" transform="matrix(1.00, 0.00, -0.00, -1.00, 261.8, 383.9)">e</text><text xml:space="preserve" font-family="Georgia,Georgia" font-size="36.0" fill="#000000" transform="matrix(1.00, 0.00, -0.00, -1.00, 279.2, 383.9)">e</text><text xml:space="preserve" font-family="Georgia,Georgia" font-size="36.0" fill="#000000" transform="matrix(1.00, 0.00, -0.00, -1.00, 296.6, 383.9)">n</text><text xml:space="preserve" font-family="Georgia,Georgia" font-size="36.0" fill="#000000" transform="matrix(1.00, 0.00, -0.00, -1.00, 317.8, 383.9)"> </text><text xml:space="preserve" font-family="Georgia-Bold,Georgia" font-weight="bold" font-size="36.0" fill="#000000" transform="matrix(1.00, 0.00, -0.00, -1.00, 326.5, 383.9)">n</text><text xml:space="preserve" font-family="Georgia-Bold,Georgia" font-weight="bold" font-size="36.0" fill="#000000" transform="matrix(1.00, 0.00, -0.00, -1.00, 351.3, 383.9)">o</text><text xml:space="preserve" font-family="Georgia-Bold,Georgia" font-weight="bold" font-size="36.0" fill="#000000" transform="matrix(1.00, 0.00, -0.00, -1.00, 374.2, 383.9)">p</text><text xml:space="preserve" font-family="Georgia-Bold,Georgia" font-weight="bold" font-size="36.0" fill="#000000" transform="matrix(1.00, 0.00, -0.00, -1.00, 397.9, 383.9)">e</text><text xml:space="preserve" font-family="Georgia-Bold,Georgia" font-weight="bold" font-size="36.0" fill="#000000" transform="matrix(1.00, 0.00, -0.00, -1.00, 418.4, 383.9)">u</text><text xml:space="preserve" font-family="Georgia-Bold,Georgia" font-weight="bold" font-size="36.0" fill="#000000" transform="matrix(1.00, 0.00, -0.00, -1.00, 442.8, 383.9)">s</text><text xml:space="preserve" font-family="Georgia-Bold,Georgia" font-weight="bold" font-size="36.0" fill="#000000" transform="matrix(1.00, 0.00, -0.00, -1.00, 461.3, 383.9)"> </text><text xml:space="preserve" font-family="Georgia,Georgia" font-size="27.0" fill="#000000" transform="matrix(1.00, 0.00, -0.00, -1.00, 79.0, 331.9)">•</text><text xml:space="preserve" font-family="Georgia,Georgia" font-size="36.0" fill="#000000" transform="matrix(1.00, 0.00, -0.00, -1.00, 114.0, 328.9)">K</text><text xml:space="preserve" font-family="Georgia,Georgia" font-size="36.0" fill="#000000" transform="matrix(1.00, 0.00, -0.00, -1.00, 139.0, 328.9)">i</text><text xml:space="preserve" font-family="Georgia,Georgia" font-size="36.0" fill="#000000" transform="matrix(1.00, 0.00, -0.00, -1.00, 149.6, 328.9)">n</text><text xml:space="preserve" font-family="Georgia,Georgia" font-size="36.0" fill="#000000" transform="matrix(1.00, 0.00, -0.00, -1.00, 170.8, 328.9)">e</text><text xml:space="preserve" font-family="Georgia,Georgia" font-size="36.0" fill="#000000" transform="matrix(1.00, 0.00, -0.00, -1.00, 188.2, 328.9)">e</text><text xml:space="preserve" font-family="Georgia,Georgia" font-size="36.0" fill="#000000" transform="matrix(1.00, 0.00, -0.00, -1.00, 205.6, 328.9)">t</text><text xml:space="preserve" font-family="Georgia,Georgia" font-size="36.0" fill="#000000" transform="matrix(1.00, 0.00, -0.00, -1.00, 218.1, 328.9)">t</text><text xml:space="preserve" font-family="Georgia,Georgia" font-size="36.0" fill="#000000" transform="matrix(1.00, 0.00, -0.00, -1.00, 230.5, 328.9)">i</text><text xml:space="preserve" font-family="Georgia,Georgia" font-size="36.0" fill="#000000" transform="matrix(1.00, 0.00, -0.00, -1.00, 241.1, 328.9)">n</text><text xml:space="preserve" font-family="Georgia,Georgia" font-size="36.0" fill="#000000" transform="matrix(1.00, 0.00, -0.00, -1.00, 262.3, 328.9)">e</text><text xml:space="preserve" font-family="Georgia,Georgia" font-size="36.0" fill="#000000" transform="matrix(1.00, 0.00, -0.00, -1.00, 279.7, 328.9)">n</text><text xml:space="preserve" font-family="Georgia,Georgia" font-size="36.0" fill="#000000" transform="matrix(1.00, 0.00, -0.00, -1.00, 301.0, 328.9)"> </text><text xml:space="preserve" font-family="Georgia,Georgia" font-size="36.0" fill="#000000" transform="matrix(1.00, 0.00, -0.00, -1.00, 309.7, 328.9)">e</text><text xml:space="preserve" font-family="Georgia,Georgia" font-size="36.0" fill="#000000" transform="matrix(1.00, 0.00, -0.00, -1.00, 327.1, 328.9)">n</text><text xml:space="preserve" font-family="Georgia,Georgia" font-size="36.0" fill="#000000" transform="matrix(1.00, 0.00, -0.00, -1.00, 348.4, 328.9)">e</text><text xml:space="preserve" font-family="Georgia,Georgia" font-size="36.0" fill="#000000" transform="matrix(1.00, 0.00, -0.00, -1.00, 365.8, 328.9)">r</text><text xml:space="preserve" font-family="Georgia,Georgia" font-size="36.0" fill="#000000" transform="matrix(1.00, 0.00, -0.00, -1.00, 380.5, 328.9)">g</text><text xml:space="preserve" font-family="Georgia,Georgia" font-size="36.0" fill="#000000" transform="matrix(1.00, 0.00, -0.00, -1.00, 398.9, 328.9)">i</text><text xml:space="preserve" font-family="Georgia,Georgia" font-size="36.0" fill="#000000" transform="matrix(1.00, 0.00, -0.00, -1.00, 409.4, 328.9)">a</text><text xml:space="preserve" font-family="Georgia,Georgia" font-size="36.0" fill="#000000" transform="matrix(1.00, 0.00, -0.00, -1.00, 427.6, 328.9)"> </text><text xml:space="preserve" font-family="Georgia,Georgia" font-size="36.0" fill="#000000" transform="matrix(1.00, 0.00, -0.00, -1.00, 436.3, 328.9)">E</text><text xml:space="preserve" font-family="Georgia,Georgia" font-size="24.0" fill="#000000" transform="matrix(1.00, 0.00, -0.00, -1.00, 459.7, 326.3)">k</text><text xml:space="preserve" font-family="Georgia,Georgia" font-size="36.0" fill="#000000" transform="matrix(1.00, 0.00, -0.00, -1.00, 472.5, 328.9)"> </text><text xml:space="preserve" font-family="Georgia,Georgia" font-size="36.0" fill="#000000" transform="matrix(1.00, 0.00, -0.00, -1.00, 481.2, 328.9)">l</text><text xml:space="preserve" font-family="Georgia,Georgia" font-size="36.0" fill="#000000" transform="matrix(1.00, 0.00, -0.00, -1.00, 491.5, 328.9)">a</text><text xml:space="preserve" font-family="Georgia,Georgia" font-size="36.0" fill="#000000" transform="matrix(1.00, 0.00, -0.00, -1.00, 509.7, 328.9)">s</text><text xml:space="preserve" font-family="Georgia,Georgia" font-size="36.0" fill="#000000" transform="matrix(1.00, 0.00, -0.00, -1.00, 525.2, 328.9)">k</text><text xml:space="preserve" font-family="Georgia,Georgia" font-size="36.0" fill="#000000" transform="matrix(1.00, 0.00, -0.00, -1.00, 544.5, 328.9)">e</text><text xml:space="preserve" font-family="Georgia,Georgia" font-size="36.0" fill="#000000" transform="matrix(1.00, 0.00, -0.00, -1.00, 561.9, 328.9)">t</text><text xml:space="preserve" font-family="Georgia,Georgia" font-size="36.0" fill="#000000" transform="matrix(1.00, 0.00, -0.00, -1.00, 574.4, 328.9)">a</text><text xml:space="preserve" font-family="Georgia,Georgia" font-size="36.0" fill="#000000" transform="matrix(1.00, 0.00, -0.00, -1.00, 592.5, 328.9)">a</text><text xml:space="preserve" font-family="Georgia,Georgia" font-size="36.0" fill="#000000" transform="matrix(1.00, 0.00, -0.00, -1.00, 610.6, 328.9)">n</text><text xml:space="preserve" font-family="Georgia,Georgia" font-size="36.0" fill="#000000" transform="matrix(1.00, 0.00, -0.00, -1.00, 631.9, 328.9)"> </text><text xml:space="preserve" font-family="Georgia,Georgia" font-size="36.0" fill="#000000" transform="matrix(1.00, 0.00, -0.00, -1.00, 640.6, 328.9)">y</text><text xml:space="preserve" font-family="Georgia,Georgia" font-size="36.0" fill="#000000" transform="matrix(1.00, 0.00, -0.00, -1.00, 658.3, 328.9)">h</text><text xml:space="preserve" font-family="Georgia,Georgia" font-size="36.0" fill="#000000" transform="matrix(1.00, 0.00, -0.00, -1.00, 679.3, 328.9)">t</text><text xml:space="preserve" font-family="Georgia,Georgia" font-size="36.0" fill="#000000" transform="matrix(1.00, 0.00, -0.00, -1.00, 691.7, 328.9)">ä</text><text xml:space="preserve" font-family="Georgia,Georgia" font-size="36.0" fill="#000000" transform="matrix(1.00, 0.00, -0.00, -1.00, 709.8, 328.9)">l</text><text xml:space="preserve" font-family="Georgia,Georgia" font-size="36.0" fill="#000000" transform="matrix(1.00, 0.00, -0.00, -1.00, 720.1, 328.9)">ö</text><text xml:space="preserve" font-family="Georgia,Georgia" font-size="36.0" fill="#000000" transform="matrix(1.00, 0.00, -0.00, -1.00, 739.6, 328.9)">l</text><text xml:space="preserve" font-family="Georgia,Georgia" font-size="36.0" fill="#000000" transform="matrix(1.00, 0.00, -0.00, -1.00, 749.9, 328.9)">l</text><text xml:space="preserve" font-family="Georgia,Georgia" font-size="36.0" fill="#000000" transform="matrix(1.00, 0.00, -0.00, -1.00, 760.2, 328.9)">ä</text><g><clipPath id="clip0x6080014ab0a0"><path d="M 354.0 244.0 L 596.0 244.0 L 596.0 138.0 L 354.0 138.0 Z M 354.5 244.2 "></path></clipPath><g clip-path="url(#clip0x6080014ab0a0)"><g><clipPath id="clip0x6080012ba3a0"><path d="M 360.5 145.3 L 589.9 145.3 L 589.9 238.7 L 360.5 238.7 Z M 360.5 145.3 "></path></clipPath><g clip-path="url(#clip0x6080012ba3a0)"><g><clipPath id="clip0x6080012ac0c0"><path d="M 360.5 145.3 L 589.9 145.3 L 589.9 238.7 L 360.5 238.7 Z M 360.5 145.3 "></path></clipPath><g clip-path="url(#clip0x6080012ac0c0)"><path d="M 391.2 188.0 C 391.3 188.2 391.4 188.5 391.4 188.6 C 391.4 188.6 391.4 189.1 390.9 189.1 C 390.5 189.1 390.4 188.8 390.3 188.5 C 387.4 181.8 385.7 178.8 377.9 178.8 L 371.3 178.8 C 370.6 178.8 370.5 178.8 370.3 178.8 C 369.8 178.9 369.7 178.9 369.7 179.3 C 369.7 179.4 369.7 179.5 369.9 180.3 L 373.0 192.7 L 377.5 192.7 C 381.4 192.7 381.4 191.7 381.4 190.6 C 381.4 190.3 381.4 189.8 381.0 188.4 C 381.0 188.2 380.9 188.1 380.9 187.9 C 380.9 187.7 381.1 187.4 381.5 187.4 C 381.9 187.4 382.0 187.6 382.2 188.3 L 384.8 198.9 C 384.8 199.2 384.5 199.4 384.2 199.4 C 383.8 199.4 383.7 199.1 383.6 198.6 C 382.6 195.1 381.8 194.1 377.6 194.1 L 373.3 194.1 L 376.1 205.0 C 376.5 206.6 376.5 206.8 378.5 206.8 L 384.9 206.8 C 390.5 206.8 391.9 205.5 391.9 201.8 C 391.9 200.7 391.9 200.6 391.7 199.4 C 391.7 199.1 391.7 198.8 391.7 198.6 C 391.7 198.3 391.8 198.0 392.2 198.0 C 392.7 198.0 392.7 198.3 392.8 199.1 L 393.7 207.0 C 393.9 208.2 393.6 208.2 392.5 208.2 L 369.5 208.2 C 368.6 208.2 368.2 208.2 368.2 207.3 C 368.2 206.8 368.6 206.8 369.5 206.8 C 371.1 206.8 372.4 206.8 372.4 206.0 C 372.4 205.8 372.4 205.7 372.2 204.9 L 366.1 180.9 C 365.7 179.1 365.6 178.8 362.0 178.8 C 361.3 178.8 360.7 178.8 360.7 177.9 C 360.7 177.4 361.2 177.4 362.0 177.4 L 385.6 177.4 C 386.7 177.4 386.7 177.4 387.0 178.2 L 391.2 188.0 " fill="#000000"></path><path d="M 402.5 191.6 C 402.5 191.6 402.6 192.1 402.6 192.1 C 402.6 192.3 402.5 192.5 402.1 192.5 C 401.5 192.5 398.9 192.3 398.1 192.2 C 397.8 192.2 397.4 192.2 397.4 191.5 C 397.4 191.0 397.8 191.0 398.2 191.0 C 399.7 191.0 399.7 190.8 399.7 190.6 C 399.7 190.3 399.7 190.1 399.6 189.9 L 395.1 172.0 C 395.0 171.4 395.0 171.3 395.0 171.3 C 395.0 170.8 395.4 170.2 396.0 170.2 C 396.9 170.2 397.3 170.9 397.5 171.6 C 397.6 171.7 398.9 177.3 399.1 177.7 C 401.3 177.5 403.1 176.8 403.1 175.1 C 403.1 175.0 403.1 174.8 403.1 174.5 C 403.0 174.0 403.0 173.9 403.0 173.5 C 403.0 171.3 404.8 170.2 406.3 170.2 C 409.4 170.2 410.3 175.0 410.3 175.1 C 410.3 175.5 409.9 175.5 409.8 175.5 C 409.4 175.5 409.4 175.4 409.2 174.7 C 408.8 173.4 407.9 171.2 406.4 171.2 C 405.6 171.2 405.3 171.9 405.3 172.8 C 405.3 173.3 405.3 173.4 405.5 174.2 C 405.5 174.3 405.7 174.8 405.7 175.2 C 405.7 178.0 401.8 178.4 400.5 178.5 C 401.4 179.1 402.6 180.2 403.1 180.6 C 404.7 182.1 406.4 183.6 408.1 183.6 C 408.5 183.6 408.9 183.5 409.2 183.2 C 407.8 183.0 407.5 181.9 407.5 181.5 C 407.5 180.8 408.0 180.3 408.8 180.3 C 409.6 180.3 410.6 181.0 410.6 182.3 C 410.6 183.3 409.8 184.5 408.1 184.5 C 406.4 184.5 404.7 183.2 403.1 181.7 C 401.7 180.5 400.7 179.5 399.4 178.9 L 402.5 191.6 " fill="#000000"></path><path d="M 458.8 192.2 C 459.5 192.2 460.4 192.2 460.4 193.1 C 460.4 194.0 459.5 194.0 458.9 194.0 L 431.6 194.0 C 431.0 194.0 430.1 194.0 430.1 193.1 C 430.1 192.2 431.0 192.2 431.7 192.2 L 458.8 192.2 Z M 458.9 183.4 C 459.5 183.4 460.4 183.4 460.4 184.3 C 460.4 185.2 459.5 185.2 458.8 185.2 L 431.7 185.2 C 431.0 185.2 430.1 185.2 430.1 184.3 C 430.1 183.4 431.0 183.4 431.6 183.4 L 458.9 183.4 " fill="#000000"></path><path d="M 494.4 237.0 C 494.4 238.2 494.4 238.3 493.4 238.3 C 490.5 235.3 486.5 235.3 485.1 235.3 L 485.1 233.9 C 486.0 233.9 488.7 233.9 491.0 235.1 L 491.0 211.6 C 491.0 210.0 490.9 209.5 486.8 209.5 L 485.3 209.5 L 485.3 208.0 C 487.0 208.2 490.9 208.2 492.7 208.2 C 494.6 208.2 498.5 208.2 500.1 208.0 L 500.1 209.5 L 498.6 209.5 C 494.6 209.5 494.4 210.0 494.4 211.6 L 494.4 237.0 " fill="#000000"></path><path d="M 14.7 5.8 L 17.3 5.8 " fill="none" stroke="#000000" stroke-width="0.21" transform="matrix(8.64, 0.00, 0.00, 8.60, 354.2, 139.0)"></path><path d="M 486.8 149.8 L 491.6 154.5 C 498.7 160.8 501.5 163.2 501.5 167.7 C 501.5 172.9 497.4 176.5 491.8 176.5 C 486.7 176.5 483.3 172.4 483.3 168.3 C 483.3 165.8 485.6 165.8 485.7 165.8 C 486.5 165.8 488.1 166.3 488.1 168.2 C 488.1 169.4 487.3 170.5 485.7 170.5 C 485.3 170.5 485.2 170.5 485.1 170.5 C 486.1 173.4 488.6 175.1 491.2 175.1 C 495.4 175.1 497.3 171.5 497.3 167.7 C 497.3 164.1 495.1 160.5 492.5 157.7 L 483.8 148.0 C 483.3 147.5 483.3 147.4 483.3 146.4 L 500.2 146.4 L 501.5 154.2 L 500.3 154.2 C 500.1 152.9 499.8 150.9 499.3 150.2 C 499.0 149.8 496.0 149.8 495.0 149.8 L 486.8 149.8 " fill="#000000"></path><path d="M 513.2 180.1 C 513.0 179.4 512.8 178.3 512.8 178.1 C 512.8 177.3 513.4 176.9 514.1 176.9 C 514.6 176.9 515.4 177.3 515.8 178.2 C 515.8 178.2 516.3 180.4 516.6 181.5 L 517.6 185.6 C 517.9 186.6 518.2 187.6 518.4 188.6 C 518.6 189.4 518.9 190.7 519.0 190.9 C 519.7 192.3 522.1 196.4 526.4 196.4 C 528.5 196.4 528.9 194.7 528.9 193.3 C 528.9 192.1 528.6 190.8 528.2 189.5 L 526.9 184.2 L 526.0 180.8 C 525.8 179.9 525.4 178.3 525.4 178.1 C 525.4 177.3 526.0 176.9 526.7 176.9 C 528.2 176.9 528.4 178.0 528.8 179.5 C 529.4 182.0 531.1 188.6 531.5 190.4 C 531.6 191.0 534.1 196.4 539.0 196.4 C 541.0 196.4 541.5 194.9 541.5 193.3 C 541.5 190.7 539.6 185.5 538.6 183.1 C 538.2 182.0 538.1 181.5 538.1 180.6 C 538.1 178.5 539.7 176.9 541.8 176.9 C 546.1 176.9 547.8 183.5 547.8 183.9 C 547.8 184.3 547.3 184.3 547.2 184.3 C 546.7 184.3 546.7 184.2 546.5 183.5 C 545.8 181.1 544.4 177.9 541.9 177.9 C 541.1 177.9 540.8 178.3 540.8 179.4 C 540.8 180.5 541.2 181.6 541.6 182.6 C 542.5 185.0 544.4 190.0 544.4 192.6 C 544.4 195.5 542.6 197.4 539.2 197.4 C 535.7 197.4 533.4 195.4 531.7 193.0 C 531.7 193.6 531.6 195.1 530.3 196.3 C 529.1 197.2 527.7 197.4 526.5 197.4 C 522.5 197.4 520.2 194.5 519.4 193.5 C 519.2 196.0 517.3 197.4 515.3 197.4 C 513.2 197.4 512.3 195.6 511.9 194.8 C 511.1 193.3 510.5 190.6 510.5 190.4 C 510.5 190.0 510.9 190.0 511.0 190.0 C 511.5 190.0 511.5 190.0 511.8 191.0 C 512.6 194.2 513.5 196.4 515.1 196.4 C 515.8 196.4 516.5 196.0 516.5 194.3 C 516.5 193.4 516.4 192.9 515.8 190.5 L 513.2 180.1 " fill="#000000"></path><path d="M 570.4 194.2 C 570.4 196.7 569.2 197.4 568.4 197.4 C 567.2 197.4 566.1 196.3 566.1 195.2 C 566.1 194.7 566.4 194.4 566.8 193.9 C 567.8 193.0 568.4 191.8 568.4 190.2 C 568.4 188.3 565.6 177.9 560.3 177.9 C 558.0 177.9 556.9 179.5 556.9 181.8 C 556.9 184.4 558.2 187.7 559.6 191.4 C 559.9 192.2 560.1 192.9 560.1 193.7 C 560.1 195.7 558.7 197.4 556.4 197.4 C 552.1 197.4 550.4 190.8 550.4 190.4 C 550.4 190.0 550.9 190.0 550.9 190.0 C 551.4 190.0 551.4 190.1 551.7 190.8 C 553.0 195.4 554.9 196.4 556.3 196.4 C 556.6 196.4 557.4 196.4 557.4 195.0 C 557.4 193.8 556.9 192.6 556.6 191.8 C 554.6 186.5 554.0 184.5 554.0 182.5 C 554.0 177.6 558.0 176.9 560.1 176.9 C 567.8 176.9 570.4 191.9 570.4 194.2 " fill="#000000"></path><path d="M 588.8 201.8 L 587.7 201.8 C 587.6 201.1 587.3 199.3 586.9 198.9 C 586.7 198.7 584.2 198.7 583.8 198.7 L 577.9 198.7 C 581.3 201.7 582.4 202.6 584.3 204.1 C 586.6 205.9 588.8 207.9 588.8 210.9 C 588.8 214.7 585.4 217.0 581.4 217.0 C 577.4 217.0 574.8 214.3 574.8 211.4 C 574.8 209.8 576.1 209.6 576.4 209.6 C 577.2 209.6 578.1 210.2 578.1 211.3 C 578.1 211.9 577.9 213.0 576.3 213.0 C 577.2 215.2 579.4 215.9 580.9 215.9 C 584.1 215.9 585.7 213.5 585.7 210.9 C 585.7 208.1 583.8 206.0 582.7 204.8 L 575.1 197.3 C 574.8 197.0 574.8 197.0 574.8 196.0 L 587.8 196.0 L 588.8 201.8 " fill="#000000"></path></g></g></g></g></g></g></g></svg>