<?xml version="1.0" encoding="UTF-8" standalone="no"?><svg xmlns="http://www.w3.org/2000/svg" xmlns:xlink="http://www.w3.org/1999/xlink" clip-rule="evenodd" stroke-miterlimit="10" viewBox="0 0 1024 768"><desc>SVG generated by Keynote</desc><defs></defs><g transform="matrix(1.00, 0.00, -0.00, -1.00, 0.0, 768.0)"><path d="M 0.0 768.0 L 1024.0 768.0 L 1024.0 0.0 L 0.0 0.0 Z M 0.0 768.0 " fill="#FEFFFF"></path><path d="M 673.3 127.5 L 792.2 176.3 L 875.7 139.4 L 673.3 127.5 Z M 673.3 127.5 " fill="#6FBF40"></path><path d="M 0.0 48.8 L 118.9 0.0 L 202.4 36.9 L 0.0 48.8 Z M 0.0 48.8 " fill="none" stroke="#000000" stroke-width="2.00" transform="matrix(1.00, 0.00, 0.00, -1.00, 673.3, 176.3)"></path><path d="M 106.5 80.0 L 241.0 164.8 L 386.3 135.3 L 317.0 58.3 L 106.5 80.0 Z M 106.5 80.0 " fill="#6FBF40"></path><path d="M 0.0 84.8 L 134.6 0.0 L 279.8 29.6 L 210.5 106.6 L 0.0 84.8 Z M 0.0 84.8 " fill="none" stroke="#000000" stroke-width="2.00" transform="matrix(1.00, 0.00, 0.00, -1.00, 106.5, 164.8)"></path><text xml:space="preserve" font-family="Georgia,Georgia" font-size="65.0" fill="#000000" transform="matrix(1.00, 0.00, -0.00, -1.00, 371.4, 648.3)">T</text><text xml:space="preserve" font-family="Georgia,Georgia" font-size="65.0" fill="#000000" transform="matrix(1.00, 0.00, -0.00, -1.00, 411.6, 648.3)">u</text><text xml:space="preserve" font-family="Georgia,Georgia" font-size="65.0" fill="#000000" transform="matrix(1.00, 0.00, -0.00, -1.00, 449.0, 648.3)">k</text><text xml:space="preserve" font-family="Georgia,Georgia" font-size="65.0" fill="#000000" transform="matrix(1.00, 0.00, -0.00, -1.00, 483.8, 648.3)">i</text><text xml:space="preserve" font-family="Georgia,Georgia" font-size="65.0" fill="#000000" transform="matrix(1.00, 0.00, -0.00, -1.00, 502.8, 648.3)">p</text><text xml:space="preserve" font-family="Georgia,Georgia" font-size="65.0" fill="#000000" transform="matrix(1.00, 0.00, -0.00, -1.00, 540.0, 648.3)">i</text><text xml:space="preserve" font-family="Georgia,Georgia" font-size="65.0" fill="#000000" transform="matrix(1.00, 0.00, -0.00, -1.00, 559.0, 648.3)">n</text><text xml:space="preserve" font-family="Georgia,Georgia" font-size="65.0" fill="#000000" transform="matrix(1.00, 0.00, -0.00, -1.00, 597.4, 648.3)">t</text><text xml:space="preserve" font-family="Georgia,Georgia" font-size="65.0" fill="#000000" transform="matrix(1.00, 0.00, -0.00, -1.00, 619.8, 648.3)">a</text><text xml:space="preserve" font-family="Georgia,Georgia" font-size="27.0" fill="#000000" transform="matrix(1.00, 0.00, -0.00, -1.00, 79.0, 566.9)">•</text><text xml:space="preserve" font-family="Georgia,Georgia" font-size="36.0" fill="#000000" transform="matrix(1.00, 0.00, -0.00, -1.00, 114.0, 563.9)">T</text><text xml:space="preserve" font-family="Georgia,Georgia" font-size="36.0" fill="#000000" transform="matrix(1.00, 0.00, -0.00, -1.00, 136.3, 563.9)">u</text><text xml:space="preserve" font-family="Georgia,Georgia" font-size="36.0" fill="#000000" transform="matrix(1.00, 0.00, -0.00, -1.00, 157.0, 563.9)">k</text><text xml:space="preserve" font-family="Georgia,Georgia" font-size="36.0" fill="#000000" transform="matrix(1.00, 0.00, -0.00, -1.00, 176.2, 563.9)">i</text><text xml:space="preserve" font-family="Georgia,Georgia" font-size="36.0" fill="#000000" transform="matrix(1.00, 0.00, -0.00, -1.00, 186.8, 563.9)">p</text><text xml:space="preserve" font-family="Georgia,Georgia" font-size="36.0" fill="#000000" transform="matrix(1.00, 0.00, -0.00, -1.00, 207.4, 563.9)">i</text><text xml:space="preserve" font-family="Georgia,Georgia" font-size="36.0" fill="#000000" transform="matrix(1.00, 0.00, -0.00, -1.00, 217.9, 563.9)">n</text><text xml:space="preserve" font-family="Georgia,Georgia" font-size="36.0" fill="#000000" transform="matrix(1.00, 0.00, -0.00, -1.00, 239.2, 563.9)">t</text><text xml:space="preserve" font-family="Georgia,Georgia" font-size="36.0" fill="#000000" transform="matrix(1.00, 0.00, -0.00, -1.00, 251.6, 563.9)">a</text><text xml:space="preserve" font-family="Georgia,Georgia" font-size="36.0" fill="#000000" transform="matrix(1.00, 0.00, -0.00, -1.00, 269.7, 563.9)"> </text><text xml:space="preserve" font-family="Georgia,Georgia" font-size="36.0" fill="#000000" transform="matrix(1.00, 0.00, -0.00, -1.00, 278.4, 563.9)">o</text><text xml:space="preserve" font-family="Georgia,Georgia" font-size="36.0" fill="#000000" transform="matrix(1.00, 0.00, -0.00, -1.00, 297.8, 563.9)">n</text><text xml:space="preserve" font-family="Georgia,Georgia" font-size="36.0" fill="#000000" transform="matrix(1.00, 0.00, -0.00, -1.00, 319.1, 563.9)"> </text><text xml:space="preserve" font-family="Georgia,Georgia" font-size="36.0" fill="#000000" transform="matrix(1.00, 0.00, -0.00, -1.00, 327.8, 563.9)">k</text><text xml:space="preserve" font-family="Georgia,Georgia" font-size="36.0" fill="#000000" transform="matrix(1.00, 0.00, -0.00, -1.00, 347.1, 563.9)">a</text><text xml:space="preserve" font-family="Georgia,Georgia" font-size="36.0" fill="#000000" transform="matrix(1.00, 0.00, -0.00, -1.00, 365.2, 563.9)">p</text><text xml:space="preserve" font-family="Georgia,Georgia" font-size="36.0" fill="#000000" transform="matrix(1.00, 0.00, -0.00, -1.00, 385.8, 563.9)">p</text><text xml:space="preserve" font-family="Georgia,Georgia" font-size="36.0" fill="#000000" transform="matrix(1.00, 0.00, -0.00, -1.00, 406.4, 563.9)">a</text><text xml:space="preserve" font-family="Georgia,Georgia" font-size="36.0" fill="#000000" transform="matrix(1.00, 0.00, -0.00, -1.00, 424.5, 563.9)">l</text><text xml:space="preserve" font-family="Georgia,Georgia" font-size="36.0" fill="#000000" transform="matrix(1.00, 0.00, -0.00, -1.00, 434.8, 563.9)">e</text><text xml:space="preserve" font-family="Georgia,Georgia" font-size="36.0" fill="#000000" transform="matrix(1.00, 0.00, -0.00, -1.00, 452.2, 563.9)">e</text><text xml:space="preserve" font-family="Georgia,Georgia" font-size="36.0" fill="#000000" transform="matrix(1.00, 0.00, -0.00, -1.00, 469.6, 563.9)">n</text><text xml:space="preserve" font-family="Georgia,Georgia" font-size="36.0" fill="#000000" transform="matrix(1.00, 0.00, -0.00, -1.00, 490.9, 563.9)"> </text><text xml:space="preserve" font-family="Georgia,Georgia" font-size="36.0" fill="#000000" transform="matrix(1.00, 0.00, -0.00, -1.00, 499.6, 563.9)">u</text><text xml:space="preserve" font-family="Georgia,Georgia" font-size="36.0" fill="#000000" transform="matrix(1.00, 0.00, -0.00, -1.00, 520.3, 563.9)">l</text><text xml:space="preserve" font-family="Georgia,Georgia" font-size="36.0" fill="#000000" transform="matrix(1.00, 0.00, -0.00, -1.00, 530.6, 563.9)">o</text><text xml:space="preserve" font-family="Georgia,Georgia" font-size="36.0" fill="#000000" transform="matrix(1.00, 0.00, -0.00, -1.00, 550.0, 563.9)">i</text><text xml:space="preserve" font-family="Georgia,Georgia" font-size="36.0" fill="#000000" transform="matrix(1.00, 0.00, -0.00, -1.00, 560.6, 563.9)">m</text><text xml:space="preserve" font-family="Georgia,Georgia" font-size="36.0" fill="#000000" transform="matrix(1.00, 0.00, -0.00, -1.00, 592.3, 563.9)">p</text><text xml:space="preserve" font-family="Georgia,Georgia" font-size="36.0" fill="#000000" transform="matrix(1.00, 0.00, -0.00, -1.00, 612.9, 563.9)">i</text><text xml:space="preserve" font-family="Georgia,Georgia" font-size="36.0" fill="#000000" transform="matrix(1.00, 0.00, -0.00, -1.00, 623.4, 563.9)">e</text><text xml:space="preserve" font-family="Georgia,Georgia" font-size="36.0" fill="#000000" transform="matrix(1.00, 0.00, -0.00, -1.00, 640.8, 563.9)">n</text><text xml:space="preserve" font-family="Georgia,Georgia" font-size="36.0" fill="#000000" transform="matrix(1.00, 0.00, -0.00, -1.00, 662.1, 563.9)"> </text><text xml:space="preserve" font-family="Georgia,Georgia" font-size="36.0" fill="#000000" transform="matrix(1.00, 0.00, -0.00, -1.00, 670.8, 563.9)">t</text><text xml:space="preserve" font-family="Georgia,Georgia" font-size="36.0" fill="#000000" transform="matrix(1.00, 0.00, -0.00, -1.00, 683.2, 563.9)">u</text><text xml:space="preserve" font-family="Georgia,Georgia" font-size="36.0" fill="#000000" transform="matrix(1.00, 0.00, -0.00, -1.00, 703.9, 563.9)">k</text><text xml:space="preserve" font-family="Georgia,Georgia" font-size="36.0" fill="#000000" transform="matrix(1.00, 0.00, -0.00, -1.00, 723.2, 563.9)">i</text><text xml:space="preserve" font-family="Georgia,Georgia" font-size="36.0" fill="#000000" transform="matrix(1.00, 0.00, -0.00, -1.00, 733.7, 563.9)">p</text><text xml:space="preserve" font-family="Georgia,Georgia" font-size="36.0" fill="#000000" transform="matrix(1.00, 0.00, -0.00, -1.00, 754.3, 563.9)">i</text><text xml:space="preserve" font-family="Georgia,Georgia" font-size="36.0" fill="#000000" transform="matrix(1.00, 0.00, -0.00, -1.00, 764.9, 563.9)">s</text><text xml:space="preserve" font-family="Georgia,Georgia" font-size="36.0" fill="#000000" transform="matrix(1.00, 0.00, -0.00, -1.00, 780.4, 563.9)">t</text><text xml:space="preserve" font-family="Georgia,Georgia" font-size="36.0" fill="#000000" transform="matrix(1.00, 0.00, -0.00, -1.00, 792.9, 563.9)">e</text><text xml:space="preserve" font-family="Georgia,Georgia" font-size="36.0" fill="#000000" transform="matrix(1.00, 0.00, -0.00, -1.00, 810.3, 563.9)">i</text><text xml:space="preserve" font-family="Georgia,Georgia" font-size="36.0" fill="#000000" transform="matrix(1.00, 0.00, -0.00, -1.00, 820.8, 563.9)">d</text><text xml:space="preserve" font-family="Georgia,Georgia" font-size="36.0" fill="#000000" transform="matrix(1.00, 0.00, -0.00, -1.00, 841.5, 563.9)">e</text><text xml:space="preserve" font-family="Georgia,Georgia" font-size="36.0" fill="#000000" transform="matrix(1.00, 0.00, -0.00, -1.00, 858.9, 563.9)">n</text><text xml:space="preserve" font-family="Georgia,Georgia" font-size="36.0" fill="#000000" transform="matrix(1.00, 0.00, -0.00, -1.00, 880.2, 563.9)"> </text><text xml:space="preserve" font-family="Georgia,Georgia" font-size="36.0" fill="#000000" transform="matrix(1.00, 0.00, -0.00, -1.00, 114.0, 522.9)">s</text><text xml:space="preserve" font-family="Georgia,Georgia" font-size="36.0" fill="#000000" transform="matrix(1.00, 0.00, -0.00, -1.00, 129.6, 522.9)">i</text><text xml:space="preserve" font-family="Georgia,Georgia" font-size="36.0" fill="#000000" transform="matrix(1.00, 0.00, -0.00, -1.00, 140.1, 522.9)">s</text><text xml:space="preserve" font-family="Georgia,Georgia" font-size="36.0" fill="#000000" transform="matrix(1.00, 0.00, -0.00, -1.00, 155.7, 522.9)">ä</text><text xml:space="preserve" font-family="Georgia,Georgia" font-size="36.0" fill="#000000" transform="matrix(1.00, 0.00, -0.00, -1.00, 173.8, 522.9)">ä</text><text xml:space="preserve" font-family="Georgia,Georgia" font-size="36.0" fill="#000000" transform="matrix(1.00, 0.00, -0.00, -1.00, 191.9, 522.9)">n</text><text xml:space="preserve" font-family="Georgia,Georgia" font-size="36.0" fill="#000000" transform="matrix(1.00, 0.00, -0.00, -1.00, 213.2, 522.9)"> </text><text xml:space="preserve" font-family="Georgia,Georgia" font-size="36.0" fill="#000000" transform="matrix(1.00, 0.00, -0.00, -1.00, 221.9, 522.9)">j</text><text xml:space="preserve" font-family="Georgia,Georgia" font-size="36.0" fill="#000000" transform="matrix(1.00, 0.00, -0.00, -1.00, 232.4, 522.9)">ä</text><text xml:space="preserve" font-family="Georgia,Georgia" font-size="36.0" fill="#000000" transform="matrix(1.00, 0.00, -0.00, -1.00, 250.5, 522.9)">ä</text><text xml:space="preserve" font-family="Georgia,Georgia" font-size="36.0" fill="#000000" transform="matrix(1.00, 0.00, -0.00, -1.00, 268.7, 522.9)">v</text><text xml:space="preserve" font-family="Georgia,Georgia" font-size="36.0" fill="#000000" transform="matrix(1.00, 0.00, -0.00, -1.00, 286.5, 522.9)">ä</text><text xml:space="preserve" font-family="Georgia,Georgia" font-size="36.0" fill="#000000" transform="matrix(1.00, 0.00, -0.00, -1.00, 304.7, 522.9)"> </text><text xml:space="preserve" font-family="Georgia,Georgia" font-size="36.0" fill="#000000" transform="matrix(1.00, 0.00, -0.00, -1.00, 313.4, 522.9)">a</text><text xml:space="preserve" font-family="Georgia,Georgia" font-size="36.0" fill="#000000" transform="matrix(1.00, 0.00, -0.00, -1.00, 331.5, 522.9)">l</text><text xml:space="preserve" font-family="Georgia,Georgia" font-size="36.0" fill="#000000" transform="matrix(1.00, 0.00, -0.00, -1.00, 341.8, 522.9)">u</text><text xml:space="preserve" font-family="Georgia,Georgia" font-size="36.0" fill="#000000" transform="matrix(1.00, 0.00, -0.00, -1.00, 362.5, 522.9)">e</text><text xml:space="preserve" font-family="Georgia,Georgia" font-size="36.0" fill="#000000" transform="matrix(1.00, 0.00, -0.00, -1.00, 379.9, 522.9)">.</text><image xlink:href="../../A06AD735-583D-4FCC-9B39-9CBC8599EAFC/assets/8AC0314580A489D3E222B1AE8CD83C00.png" width="461.00" height="640.00" transform="matrix(0.64, 0.00, -0.00, -0.64, 96.0, 469.0)"></image><text xml:space="preserve" font-family="Georgia,Georgia" font-size="36.0" fill="#000000" transform="matrix(1.00, 0.00, -0.00, -1.00, 452.0, 57.9)">T</text><text xml:space="preserve" font-family="Georgia,Georgia" font-size="36.0" fill="#000000" transform="matrix(1.00, 0.00, -0.00, -1.00, 474.3, 57.9)">u</text><text xml:space="preserve" font-family="Georgia,Georgia" font-size="36.0" fill="#000000" transform="matrix(1.00, 0.00, -0.00, -1.00, 495.0, 57.9)">k</text><text xml:space="preserve" font-family="Georgia,Georgia" font-size="36.0" fill="#000000" transform="matrix(1.00, 0.00, -0.00, -1.00, 514.2, 57.9)">i</text><text xml:space="preserve" font-family="Georgia,Georgia" font-size="36.0" fill="#000000" transform="matrix(1.00, 0.00, -0.00, -1.00, 524.8, 57.9)">p</text><text xml:space="preserve" font-family="Georgia,Georgia" font-size="36.0" fill="#000000" transform="matrix(1.00, 0.00, -0.00, -1.00, 545.4, 57.9)">i</text><text xml:space="preserve" font-family="Georgia,Georgia" font-size="36.0" fill="#000000" transform="matrix(1.00, 0.00, -0.00, -1.00, 555.9, 57.9)">n</text><text xml:space="preserve" font-family="Georgia,Georgia" font-size="36.0" fill="#000000" transform="matrix(1.00, 0.00, -0.00, -1.00, 577.2, 57.9)">t</text><text xml:space="preserve" font-family="Georgia,Georgia" font-size="36.0" fill="#000000" transform="matrix(1.00, 0.00, -0.00, -1.00, 589.6, 57.9)">a</text><path d="M 0.0 0.0 L 90.2 0.0 L 92.2 0.0 " fill="none" stroke="#000000" stroke-width="4.00" transform="matrix(-0.93, 0.37, 0.37, 0.93, 436.0, 70.8)"></path><path d="M 355.3 111.8 L 336.5 110.2 L 349.1 96.2 Z M 355.3 111.8 " fill="#000000"></path><g><clipPath id="clip0x7fda2d943830"><path d="M 563.0 450.0 L 938.0 450.0 L 938.0 125.0 L 563.0 125.0 Z M 563.2 450.2 "></path></clipPath><g clip-path="url(#clip0x7fda2d943830)"><g><clipPath id="clip0x7fda2d943e10"><path d="M 648.7 125.4 C 632.5 127.6 619.4 132.8 607.1 141.9 C 600.7 146.5 583.3 162.8 583.2 164.1 C 583.2 164.5 582.4 165.5 581.3 166.3 C 580.2 167.1 579.7 167.7 580.2 167.7 C 580.7 167.7 580.3 168.5 579.5 169.5 C 577.1 172.1 571.2 185.4 568.9 193.2 C 565.2 205.8 563.8 214.0 563.4 226.6 C 563.0 238.2 563.2 240.1 566.2 252.2 C 568.7 262.0 570.9 268.0 575.3 276.6 C 585.4 296.6 591.6 304.8 604.4 315.4 C 615.8 325.0 628.7 331.8 641.4 335.2 C 650.1 337.5 653.2 337.8 668.7 337.8 C 678.5 337.9 688.1 337.4 690.5 336.8 C 694.6 335.7 694.9 335.8 695.9 338.0 C 696.5 339.2 698.1 340.9 699.5 341.6 C 701.7 342.8 705.3 349.1 706.1 353.4 C 706.3 354.2 706.9 356.1 707.5 357.5 C 709.7 362.7 714.6 379.8 714.1 380.7 C 713.8 381.2 712.9 381.3 712.1 381.0 C 710.6 380.4 709.2 384.5 710.1 387.0 C 710.6 388.1 711.5 388.4 714.0 387.9 C 716.8 387.4 717.9 387.8 720.5 390.2 C 722.3 391.9 723.7 394.2 723.7 395.4 C 723.7 399.2 720.8 403.3 717.0 404.9 C 713.8 406.3 713.2 406.3 711.7 404.9 C 710.8 404.1 709.8 403.7 709.4 404.0 C 709.1 404.4 708.5 404.0 708.2 403.1 C 707.1 400.4 703.7 403.3 703.7 406.9 C 703.7 409.2 702.6 410.8 699.2 413.7 C 696.8 415.7 693.3 418.1 691.5 418.9 C 689.7 419.7 688.7 420.3 689.2 420.3 C 689.7 420.4 688.5 422.1 686.6 424.1 C 681.6 429.5 679.7 432.8 679.7 436.6 C 679.7 441.5 682.8 443.8 694.2 447.3 C 702.9 450.0 705.4 450.4 713.7 450.1 C 723.1 449.8 723.2 449.8 724.2 447.1 C 725.3 443.8 723.4 441.3 719.6 440.8 C 718.3 440.6 714.5 439.8 711.2 438.8 C 707.9 437.9 702.2 437.1 698.5 436.9 C 689.3 436.6 688.4 435.5 693.3 430.4 C 698.0 425.6 702.5 423.2 705.5 424.0 C 707.0 424.4 708.8 423.8 711.1 422.1 C 714.4 419.5 714.4 419.5 717.5 421.4 C 719.1 422.4 720.8 423.7 721.2 424.3 C 722.6 426.6 728.4 428.6 737.1 429.9 C 742.1 430.6 749.8 431.9 754.2 432.8 C 759.7 433.9 765.9 434.3 774.1 434.0 C 786.5 433.6 787.7 433.1 787.7 428.9 C 787.7 425.3 786.0 423.9 781.5 423.8 C 779.2 423.7 775.2 423.1 772.7 422.4 C 769.7 421.6 764.9 421.4 758.2 421.9 C 738.0 423.3 730.4 422.1 723.7 416.3 L 720.2 413.4 L 723.1 411.2 C 727.8 407.7 730.5 402.3 730.8 396.1 C 731.0 393.0 730.8 390.2 730.5 389.8 C 730.1 389.5 730.1 387.4 730.4 385.3 C 730.7 382.7 730.1 379.0 728.3 373.5 C 724.9 363.0 725.2 361.7 731.3 359.5 C 736.3 357.7 757.8 350.3 763.2 348.5 C 765.7 347.6 766.5 347.8 767.5 349.1 C 768.5 350.6 768.4 351.2 766.6 353.1 C 765.4 354.4 764.0 355.1 763.4 354.8 C 762.9 354.4 762.7 354.7 763.1 355.3 C 764.5 357.6 754.2 362.6 745.4 364.0 C 738.6 365.0 739.6 370.5 747.3 374.3 C 750.9 376.0 753.6 376.4 761.0 376.5 C 768.9 376.5 771.3 376.9 777.7 379.6 C 790.3 384.7 803.4 384.5 813.1 379.2 C 814.3 378.5 815.7 378.1 816.2 378.3 C 816.8 378.5 816.9 378.3 816.5 377.9 C 816.1 377.5 816.9 375.1 818.3 372.6 C 821.1 367.3 821.4 362.9 819.2 362.1 C 818.0 361.6 817.9 361.1 818.9 359.6 C 819.9 358.0 819.8 357.3 818.7 355.9 C 817.9 354.9 817.4 353.4 817.5 352.4 C 817.7 351.4 816.9 350.1 815.8 349.5 C 814.8 349.0 813.6 347.6 813.2 346.5 C 812.4 344.0 809.1 343.9 805.9 346.1 C 803.9 347.4 802.1 347.6 795.4 347.0 C 790.9 346.6 784.1 346.2 780.2 346.1 C 771.6 345.9 771.4 345.1 778.0 337.5 C 780.6 334.4 785.9 327.0 789.8 321.0 C 796.1 311.2 797.1 310.1 800.0 309.8 C 813.6 308.4 829.5 299.4 838.8 287.7 C 841.1 284.9 843.4 282.7 844.0 282.8 C 844.7 283.0 845.1 282.3 844.9 281.3 C 844.6 279.3 847.5 274.6 849.0 274.6 C 849.6 274.6 850.8 275.2 851.6 275.9 C 854.5 278.4 866.4 282.5 874.1 283.7 C 883.5 285.1 894.2 283.7 903.1 279.9 C 906.5 278.5 910.0 277.3 910.9 277.2 C 911.8 277.2 912.4 276.8 912.2 276.5 C 911.6 275.5 914.2 273.5 916.4 273.1 C 917.4 273.0 918.2 272.4 918.2 271.8 C 918.2 271.3 920.8 268.1 923.9 264.7 C 927.0 261.3 929.4 258.6 929.2 258.6 C 929.0 258.6 930.3 255.3 932.1 251.4 C 936.8 241.1 938.2 232.2 937.4 218.0 C 936.8 208.7 936.1 204.4 933.6 197.3 C 930.5 188.1 926.5 179.7 922.9 174.3 C 921.8 172.7 921.1 170.8 921.4 170.0 C 921.7 169.3 921.5 168.8 921.0 168.9 C 920.5 169.1 916.8 165.8 912.9 161.6 C 900.2 148.0 887.1 141.0 871.2 139.2 C 867.4 138.7 863.8 138.5 863.2 138.7 C 862.7 138.9 860.0 139.4 857.2 139.9 C 854.5 140.5 849.9 141.7 847.0 142.8 C 844.1 143.8 841.0 144.4 840.1 144.1 C 839.0 143.6 838.6 143.8 839.1 144.5 C 839.5 145.2 838.0 146.9 835.5 148.6 C 833.1 150.2 830.4 152.4 829.4 153.6 C 828.3 154.8 826.9 155.3 826.0 155.0 C 824.8 154.5 824.5 154.8 825.0 156.0 C 825.4 157.1 824.6 158.5 822.7 160.1 C 821.1 161.4 820.1 162.7 820.4 163.1 C 820.7 163.4 820.0 164.9 818.8 166.5 C 817.7 168.2 815.9 171.6 814.8 174.1 C 813.7 176.6 812.6 178.7 812.3 178.7 C 812.1 178.7 809.8 177.8 807.3 176.7 C 798.7 173.1 778.5 172.4 770.6 175.5 C 769.2 176.1 764.7 178.6 760.7 181.1 C 756.7 183.6 753.0 185.4 752.6 185.1 C 751.0 184.1 748.6 178.6 749.3 177.5 C 749.7 176.9 749.6 176.7 749.0 177.1 C 748.4 177.4 746.5 175.7 744.8 173.1 C 734.5 158.0 713.9 140.6 697.3 133.3 C 686.0 128.4 659.3 124.0 648.7 125.4 "></path></clipPath><g clip-path="url(#clip0x7fda2d943e10)"><image xlink:href="../../A06AD735-583D-4FCC-9B39-9CBC8599EAFC/assets/9AA21DD42F9F77EDFF9DC04C0B22E76E.jpeg" width="640.00" height="583.00" transform="matrix(0.60, 0.00, -0.00, -0.60, 557.0, 465.0)"></image></g></g></g></g><path d="M 0.0 0.0 L 149.2 0.0 L 151.2 0.0 " fill="none" stroke="#000000" stroke-width="4.00" transform="matrix(0.87, 0.49, 0.49, -0.87, 622.9, 65.0)"></path><path d="M 757.2 130.5 L 767.7 146.1 L 748.9 145.2 Z M 757.2 130.5 " fill="#000000"></path></g></svg>