<?xml version="1.0" encoding="UTF-8" standalone="no"?><svg xmlns="http://www.w3.org/2000/svg" xmlns:xlink="http://www.w3.org/1999/xlink" clip-rule="evenodd" stroke-miterlimit="10" viewBox="0 0 445 75"><desc>SVG generated by Keynote</desc><defs></defs><g transform="matrix(1.00, 0.00, -0.00, -1.00, 0.0, 75.0)"><text xml:space="preserve" font-family="LMRoman10-Regular,Latin Modern Roman" font-size="21.0" fill="#000000" transform="matrix(1.00, 0.00, -0.00, -1.00, 0.4, 50.6)">•</text><text xml:space="preserve" font-family="LMRoman10-Regular,Latin Modern Roman" font-size="28.0" fill="#000000" transform="matrix(1.00, 0.00, -0.00, -1.00, 27.6, 47.6)">P</text><text xml:space="preserve" font-family="LMRoman10-Regular,Latin Modern Roman" font-size="28.0" fill="#000000" transform="matrix(1.00, 0.00, -0.00, -1.00, 46.7, 47.6)">i</text><text xml:space="preserve" font-family="LMRoman10-Regular,Latin Modern Roman" font-size="28.0" fill="#000000" transform="matrix(1.00, 0.00, -0.00, -1.00, 54.5, 47.6)">e</text><text xml:space="preserve" font-family="LMRoman10-Regular,Latin Modern Roman" font-size="28.0" fill="#000000" transform="matrix(1.00, 0.00, -0.00, -1.00, 66.9, 47.6)">n</text><text xml:space="preserve" font-family="LMRoman10-Regular,Latin Modern Roman" font-size="28.0" fill="#000000" transform="matrix(1.00, 0.00, -0.00, -1.00, 82.5, 47.6)">i</text><text xml:space="preserve" font-family="LMRoman10-Regular,Latin Modern Roman" font-size="28.0" fill="#000000" transform="matrix(1.00, 0.00, -0.00, -1.00, 90.2, 47.6)"> </text><text xml:space="preserve" font-family="LMRoman10-Regular,Latin Modern Roman" font-size="28.0" fill="#000000" transform="matrix(1.00, 0.00, -0.00, -1.00, 99.6, 47.6)">n</text><text xml:space="preserve" font-family="LMRoman10-Regular,Latin Modern Roman" font-size="28.0" fill="#000000" transform="matrix(1.00, 0.00, -0.00, -1.00, 115.1, 47.6)">o</text><text xml:space="preserve" font-family="LMRoman10-Regular,Latin Modern Roman" font-size="28.0" fill="#000000" transform="matrix(1.00, 0.00, -0.00, -1.00, 129.1, 47.6)">p</text><text xml:space="preserve" font-family="LMRoman10-Regular,Latin Modern Roman" font-size="28.0" fill="#000000" transform="matrix(1.00, 0.00, -0.00, -1.00, 145.5, 47.6)">e</text><text xml:space="preserve" font-family="LMRoman10-Regular,Latin Modern Roman" font-size="28.0" fill="#000000" transform="matrix(1.00, 0.00, -0.00, -1.00, 157.9, 47.6)">u</text><text xml:space="preserve" font-family="LMRoman10-Regular,Latin Modern Roman" font-size="28.0" fill="#000000" transform="matrix(1.00, 0.00, -0.00, -1.00, 173.5, 47.6)">s</text><text xml:space="preserve" font-family="LMRoman10-Regular,Latin Modern Roman" font-size="28.0" fill="#000000" transform="matrix(1.00, 0.00, -0.00, -1.00, 184.5, 47.6)"> </text><text xml:space="preserve" font-family="LMRoman10-Regular,Latin Modern Roman" font-size="28.0" fill="#000000" transform="matrix(1.00, 0.00, -0.00, -1.00, 193.8, 47.6)">=</text><text xml:space="preserve" font-family="LMRoman10-Regular,Latin Modern Roman" font-size="28.0" fill="#000000" transform="matrix(1.00, 0.00, -0.00, -1.00, 215.6, 47.6)"> </text><text xml:space="preserve" font-family="LMRoman10-Regular,Latin Modern Roman" font-size="28.0" fill="#000000" transform="matrix(1.00, 0.00, -0.00, -1.00, 224.9, 47.6)">8</text><text xml:space="preserve" font-family="LMRoman10-Regular,Latin Modern Roman" font-size="28.0" fill="#000000" transform="matrix(1.00, 0.00, -0.00, -1.00, 238.9, 47.6)">c</text><text xml:space="preserve" font-family="LMRoman10-Regular,Latin Modern Roman" font-size="28.0" fill="#000000" transform="matrix(1.00, 0.00, -0.00, -1.00, 251.4, 47.6)">m</text><text xml:space="preserve" font-family="LMRoman10-Regular,Latin Modern Roman" font-size="28.0" fill="#000000" transform="matrix(1.00, 0.00, -0.00, -1.00, 274.7, 47.6)"> </text><text xml:space="preserve" font-family="LMRoman10-Regular,Latin Modern Roman" font-size="28.0" fill="#000000" transform="matrix(1.00, 0.00, -0.00, -1.00, 284.0, 47.6)">k</text><text xml:space="preserve" font-family="LMRoman10-Regular,Latin Modern Roman" font-size="28.0" fill="#000000" transform="matrix(1.00, 0.00, -0.00, -1.00, 298.0, 47.6)">o</text><text xml:space="preserve" font-family="LMRoman10-Regular,Latin Modern Roman" font-size="28.0" fill="#000000" transform="matrix(1.00, 0.00, -0.00, -1.00, 312.0, 47.6)">r</text><text xml:space="preserve" font-family="LMRoman10-Regular,Latin Modern Roman" font-size="28.0" fill="#000000" transform="matrix(1.00, 0.00, -0.00, -1.00, 323.0, 47.6)">k</text><text xml:space="preserve" font-family="LMRoman10-Regular,Latin Modern Roman" font-size="28.0" fill="#000000" transform="matrix(1.00, 0.00, -0.00, -1.00, 337.0, 47.6)">e</text><text xml:space="preserve" font-family="LMRoman10-Regular,Latin Modern Roman" font-size="28.0" fill="#000000" transform="matrix(1.00, 0.00, -0.00, -1.00, 349.4, 47.6)">u</text><text xml:space="preserve" font-family="LMRoman10-Regular,Latin Modern Roman" font-size="28.0" fill="#000000" transform="matrix(1.00, 0.00, -0.00, -1.00, 365.0, 47.6)">d</text><text xml:space="preserve" font-family="LMRoman10-Regular,Latin Modern Roman" font-size="28.0" fill="#000000" transform="matrix(1.00, 0.00, -0.00, -1.00, 380.6, 47.6)">e</text><text xml:space="preserve" font-family="LMRoman10-Regular,Latin Modern Roman" font-size="28.0" fill="#000000" transform="matrix(1.00, 0.00, -0.00, -1.00, 393.0, 47.6)">l</text><text xml:space="preserve" font-family="LMRoman10-Regular,Latin Modern Roman" font-size="28.0" fill="#000000" transform="matrix(1.00, 0.00, -0.00, -1.00, 400.8, 47.6)">t</text><text xml:space="preserve" font-family="LMRoman10-Regular,Latin Modern Roman" font-size="28.0" fill="#000000" transform="matrix(1.00, 0.00, -0.00, -1.00, 411.7, 47.6)">a</text><text xml:space="preserve" font-family="LMRoman10-Regular,Latin Modern Roman" font-size="28.0" fill="#000000" transform="matrix(1.00, 0.00, -0.00, -1.00, 425.7, 47.6)">,</text><text xml:space="preserve" font-family="LMRoman10-Regular,Latin Modern Roman" font-size="28.0" fill="#000000" transform="matrix(1.00, 0.00, -0.00, -1.00, 433.5, 47.6)"> </text><text xml:space="preserve" font-family="LucidaGrande,Lucida Grande" font-size="28.0" fill="#000000" transform="matrix(1.00, 0.00, -0.00, -1.00, 442.8, 47.6)"> </text><text xml:space="preserve" font-family="LMRoman10-Regular,Latin Modern Roman" font-size="28.0" fill="#000000" transform="matrix(1.00, 0.00, -0.00, -1.00, 27.6, 7.6)">s</text><text xml:space="preserve" font-family="LMRoman10-Regular,Latin Modern Roman" font-size="28.0" fill="#000000" transform="matrix(1.00, 0.00, -0.00, -1.00, 38.6, 7.6)">u</text><text xml:space="preserve" font-family="LMRoman10-Regular,Latin Modern Roman" font-size="28.0" fill="#000000" transform="matrix(1.00, 0.00, -0.00, -1.00, 54.2, 7.6)">u</text><text xml:space="preserve" font-family="LMRoman10-Regular,Latin Modern Roman" font-size="28.0" fill="#000000" transform="matrix(1.00, 0.00, -0.00, -1.00, 69.8, 7.6)">r</text><text xml:space="preserve" font-family="LMRoman10-Regular,Latin Modern Roman" font-size="28.0" fill="#000000" transform="matrix(1.00, 0.00, -0.00, -1.00, 80.7, 7.6)">i</text><text xml:space="preserve" font-family="LMRoman10-Regular,Latin Modern Roman" font-size="28.0" fill="#000000" transform="matrix(1.00, 0.00, -0.00, -1.00, 88.5, 7.6)"> </text><text xml:space="preserve" font-family="LMRoman10-Regular,Latin Modern Roman" font-size="28.0" fill="#000000" transform="matrix(1.00, 0.00, -0.00, -1.00, 97.9, 7.6)">n</text><text xml:space="preserve" font-family="LMRoman10-Regular,Latin Modern Roman" font-size="28.0" fill="#000000" transform="matrix(1.00, 0.00, -0.00, -1.00, 113.4, 7.6)">o</text><text xml:space="preserve" font-family="LMRoman10-Regular,Latin Modern Roman" font-size="28.0" fill="#000000" transform="matrix(1.00, 0.00, -0.00, -1.00, 127.4, 7.6)">p</text><text xml:space="preserve" font-family="LMRoman10-Regular,Latin Modern Roman" font-size="28.0" fill="#000000" transform="matrix(1.00, 0.00, -0.00, -1.00, 143.8, 7.6)">e</text><text xml:space="preserve" font-family="LMRoman10-Regular,Latin Modern Roman" font-size="28.0" fill="#000000" transform="matrix(1.00, 0.00, -0.00, -1.00, 156.2, 7.6)">u</text><text xml:space="preserve" font-family="LMRoman10-Regular,Latin Modern Roman" font-size="28.0" fill="#000000" transform="matrix(1.00, 0.00, -0.00, -1.00, 171.8, 7.6)">s</text><text xml:space="preserve" font-family="LMRoman10-Regular,Latin Modern Roman" font-size="28.0" fill="#000000" transform="matrix(1.00, 0.00, -0.00, -1.00, 182.8, 7.6)"> </text><text xml:space="preserve" font-family="LMRoman10-Regular,Latin Modern Roman" font-size="28.0" fill="#000000" transform="matrix(1.00, 0.00, -0.00, -1.00, 192.1, 7.6)">=</text><text xml:space="preserve" font-family="LMRoman10-Regular,Latin Modern Roman" font-size="28.0" fill="#000000" transform="matrix(1.00, 0.00, -0.00, -1.00, 213.9, 7.6)"> </text><text xml:space="preserve" font-family="LMRoman10-Regular,Latin Modern Roman" font-size="28.0" fill="#000000" transform="matrix(1.00, 0.00, -0.00, -1.00, 223.2, 7.6)">1</text><text xml:space="preserve" font-family="LMRoman10-Regular,Latin Modern Roman" font-size="28.0" fill="#000000" transform="matrix(1.00, 0.00, -0.00, -1.00, 237.2, 7.6)">8</text><text xml:space="preserve" font-family="LMRoman10-Regular,Latin Modern Roman" font-size="28.0" fill="#000000" transform="matrix(1.00, 0.00, -0.00, -1.00, 251.2, 7.6)">c</text><text xml:space="preserve" font-family="LMRoman10-Regular,Latin Modern Roman" font-size="28.0" fill="#000000" transform="matrix(1.00, 0.00, -0.00, -1.00, 263.7, 7.6)">m</text><text xml:space="preserve" font-family="LMRoman10-Regular,Latin Modern Roman" font-size="28.0" fill="#000000" transform="matrix(1.00, 0.00, -0.00, -1.00, 287.0, 7.6)"> </text><text xml:space="preserve" font-family="LMRoman10-Regular,Latin Modern Roman" font-size="28.0" fill="#000000" transform="matrix(1.00, 0.00, -0.00, -1.00, 296.3, 7.6)">k</text><text xml:space="preserve" font-family="LMRoman10-Regular,Latin Modern Roman" font-size="28.0" fill="#000000" transform="matrix(1.00, 0.00, -0.00, -1.00, 310.3, 7.6)">o</text><text xml:space="preserve" font-family="LMRoman10-Regular,Latin Modern Roman" font-size="28.0" fill="#000000" transform="matrix(1.00, 0.00, -0.00, -1.00, 324.3, 7.6)">r</text><text xml:space="preserve" font-family="LMRoman10-Regular,Latin Modern Roman" font-size="28.0" fill="#000000" transform="matrix(1.00, 0.00, -0.00, -1.00, 335.3, 7.6)">k</text><text xml:space="preserve" font-family="LMRoman10-Regular,Latin Modern Roman" font-size="28.0" fill="#000000" transform="matrix(1.00, 0.00, -0.00, -1.00, 349.3, 7.6)">e</text><text xml:space="preserve" font-family="LMRoman10-Regular,Latin Modern Roman" font-size="28.0" fill="#000000" transform="matrix(1.00, 0.00, -0.00, -1.00, 361.7, 7.6)">u</text><text xml:space="preserve" font-family="LMRoman10-Regular,Latin Modern Roman" font-size="28.0" fill="#000000" transform="matrix(1.00, 0.00, -0.00, -1.00, 377.3, 7.6)">d</text><text xml:space="preserve" font-family="LMRoman10-Regular,Latin Modern Roman" font-size="28.0" fill="#000000" transform="matrix(1.00, 0.00, -0.00, -1.00, 392.9, 7.6)">e</text><text xml:space="preserve" font-family="LMRoman10-Regular,Latin Modern Roman" font-size="28.0" fill="#000000" transform="matrix(1.00, 0.00, -0.00, -1.00, 405.3, 7.6)">l</text><text xml:space="preserve" font-family="LMRoman10-Regular,Latin Modern Roman" font-size="28.0" fill="#000000" transform="matrix(1.00, 0.00, -0.00, -1.00, 413.1, 7.6)">t</text><text xml:space="preserve" font-family="LMRoman10-Regular,Latin Modern Roman" font-size="28.0" fill="#000000" transform="matrix(1.00, 0.00, -0.00, -1.00, 424.0, 7.6)">a</text></g></svg>