<?xml version="1.0" encoding="UTF-8" standalone="no"?><svg xmlns="http://www.w3.org/2000/svg" xmlns:xlink="http://www.w3.org/1999/xlink" clip-rule="evenodd" stroke-miterlimit="10" viewBox="0 0 1024 768"><desc>SVG generated by Keynote</desc><defs></defs><g transform="matrix(1.00, 0.00, -0.00, -1.00, 0.0, 768.0)"><path d="M 0.0 768.0 L 1024.0 768.0 L 1024.0 0.0 L 0.0 0.0 Z M 0.0 768.0 " fill="#FEFFFF"></path><text xml:space="preserve" font-family="Georgia,Georgia" font-size="65.0" fill="#000000" transform="matrix(1.00, 0.00, -0.00, -1.00, 431.4, 648.3)">P</text><text xml:space="preserve" font-family="Georgia,Georgia" font-size="65.0" fill="#000000" transform="matrix(1.00, 0.00, -0.00, -1.00, 471.0, 648.3)">a</text><text xml:space="preserve" font-family="Georgia,Georgia" font-size="65.0" fill="#000000" transform="matrix(1.00, 0.00, -0.00, -1.00, 503.8, 648.3)">i</text><text xml:space="preserve" font-family="Georgia,Georgia" font-size="65.0" fill="#000000" transform="matrix(1.00, 0.00, -0.00, -1.00, 522.8, 648.3)">n</text><text xml:space="preserve" font-family="Georgia,Georgia" font-size="65.0" fill="#000000" transform="matrix(1.00, 0.00, -0.00, -1.00, 561.2, 648.3)">e</text><text xml:space="preserve" font-family="Georgia,Georgia" font-size="27.0" fill="#000000" transform="matrix(1.00, 0.00, -0.00, -1.00, 79.0, 500.2)">•</text><text xml:space="preserve" font-family="Georgia,Georgia" font-size="36.0" fill="#000000" transform="matrix(1.00, 0.00, -0.00, -1.00, 114.0, 497.2)">P</text><text xml:space="preserve" font-family="Georgia,Georgia" font-size="36.0" fill="#000000" transform="matrix(1.00, 0.00, -0.00, -1.00, 136.0, 497.2)">a</text><text xml:space="preserve" font-family="Georgia,Georgia" font-size="36.0" fill="#000000" transform="matrix(1.00, 0.00, -0.00, -1.00, 154.1, 497.2)">i</text><text xml:space="preserve" font-family="Georgia,Georgia" font-size="36.0" fill="#000000" transform="matrix(1.00, 0.00, -0.00, -1.00, 164.6, 497.2)">n</text><text xml:space="preserve" font-family="Georgia,Georgia" font-size="36.0" fill="#000000" transform="matrix(1.00, 0.00, -0.00, -1.00, 185.9, 497.2)">e</text><text xml:space="preserve" font-family="Georgia,Georgia" font-size="36.0" fill="#000000" transform="matrix(1.00, 0.00, -0.00, -1.00, 203.3, 497.2)"> </text><text xml:space="preserve" font-family="Georgia,Georgia" font-size="36.0" fill="#000000" transform="matrix(1.00, 0.00, -0.00, -1.00, 212.0, 497.2)">k</text><text xml:space="preserve" font-family="Georgia,Georgia" font-size="36.0" fill="#000000" transform="matrix(1.00, 0.00, -0.00, -1.00, 231.3, 497.2)">u</text><text xml:space="preserve" font-family="Georgia,Georgia" font-size="36.0" fill="#000000" transform="matrix(1.00, 0.00, -0.00, -1.00, 252.0, 497.2)">v</text><text xml:space="preserve" font-family="Georgia,Georgia" font-size="36.0" fill="#000000" transform="matrix(1.00, 0.00, -0.00, -1.00, 269.9, 497.2)">a</text><text xml:space="preserve" font-family="Georgia,Georgia" font-size="36.0" fill="#000000" transform="matrix(1.00, 0.00, -0.00, -1.00, 288.0, 497.2)">a</text><text xml:space="preserve" font-family="Georgia,Georgia" font-size="36.0" fill="#000000" transform="matrix(1.00, 0.00, -0.00, -1.00, 306.1, 497.2)"> </text><text xml:space="preserve" font-family="Georgia,Georgia" font-size="36.0" fill="#000000" transform="matrix(1.00, 0.00, -0.00, -1.00, 314.8, 497.2)">t</text><text xml:space="preserve" font-family="Georgia,Georgia" font-size="36.0" fill="#000000" transform="matrix(1.00, 0.00, -0.00, -1.00, 327.3, 497.2)">i</text><text xml:space="preserve" font-family="Georgia,Georgia" font-size="36.0" fill="#000000" transform="matrix(1.00, 0.00, -0.00, -1.00, 337.8, 497.2)">e</text><text xml:space="preserve" font-family="Georgia,Georgia" font-size="36.0" fill="#000000" transform="matrix(1.00, 0.00, -0.00, -1.00, 355.2, 497.2)">t</text><text xml:space="preserve" font-family="Georgia,Georgia" font-size="36.0" fill="#000000" transform="matrix(1.00, 0.00, -0.00, -1.00, 367.6, 497.2)">y</text><text xml:space="preserve" font-family="Georgia,Georgia" font-size="36.0" fill="#000000" transform="matrix(1.00, 0.00, -0.00, -1.00, 385.4, 497.2)">l</text><text xml:space="preserve" font-family="Georgia,Georgia" font-size="36.0" fill="#000000" transform="matrix(1.00, 0.00, -0.00, -1.00, 395.7, 497.2)">l</text><text xml:space="preserve" font-family="Georgia,Georgia" font-size="36.0" fill="#000000" transform="matrix(1.00, 0.00, -0.00, -1.00, 406.0, 497.2)">e</text><text xml:space="preserve" font-family="Georgia,Georgia" font-size="36.0" fill="#000000" transform="matrix(1.00, 0.00, -0.00, -1.00, 423.4, 497.2)"> </text><text xml:space="preserve" font-family="Georgia,Georgia" font-size="36.0" fill="#000000" transform="matrix(1.00, 0.00, -0.00, -1.00, 432.1, 497.2)">p</text><text xml:space="preserve" font-family="Georgia,Georgia" font-size="36.0" fill="#000000" transform="matrix(1.00, 0.00, -0.00, -1.00, 452.7, 497.2)">i</text><text xml:space="preserve" font-family="Georgia,Georgia" font-size="36.0" fill="#000000" transform="matrix(1.00, 0.00, -0.00, -1.00, 463.2, 497.2)">n</text><text xml:space="preserve" font-family="Georgia,Georgia" font-size="36.0" fill="#000000" transform="matrix(1.00, 0.00, -0.00, -1.00, 484.5, 497.2)">t</text><text xml:space="preserve" font-family="Georgia,Georgia" font-size="36.0" fill="#000000" transform="matrix(1.00, 0.00, -0.00, -1.00, 496.9, 497.2)">a</text><text xml:space="preserve" font-family="Georgia,Georgia" font-size="36.0" fill="#000000" transform="matrix(1.00, 0.00, -0.00, -1.00, 515.0, 497.2)">-</text><text xml:space="preserve" font-family="Georgia,Georgia" font-size="36.0" fill="#000000" transform="matrix(1.00, 0.00, -0.00, -1.00, 528.5, 497.2)">a</text><text xml:space="preserve" font-family="Georgia,Georgia" font-size="36.0" fill="#000000" transform="matrix(1.00, 0.00, -0.00, -1.00, 546.7, 497.2)">l</text><text xml:space="preserve" font-family="Georgia,Georgia" font-size="36.0" fill="#000000" transform="matrix(1.00, 0.00, -0.00, -1.00, 557.0, 497.2)">a</text><text xml:space="preserve" font-family="Georgia,Georgia" font-size="36.0" fill="#000000" transform="matrix(1.00, 0.00, -0.00, -1.00, 575.1, 497.2)">l</text><text xml:space="preserve" font-family="Georgia,Georgia" font-size="36.0" fill="#000000" transform="matrix(1.00, 0.00, -0.00, -1.00, 585.4, 497.2)">l</text><text xml:space="preserve" font-family="Georgia,Georgia" font-size="36.0" fill="#000000" transform="matrix(1.00, 0.00, -0.00, -1.00, 595.7, 497.2)">e</text><text xml:space="preserve" font-family="Georgia,Georgia" font-size="36.0" fill="#000000" transform="matrix(1.00, 0.00, -0.00, -1.00, 613.1, 497.2)"> </text><text xml:space="preserve" font-family="Georgia,Georgia" font-size="36.0" fill="#000000" transform="matrix(1.00, 0.00, -0.00, -1.00, 621.8, 497.2)">k</text><text xml:space="preserve" font-family="Georgia,Georgia" font-size="36.0" fill="#000000" transform="matrix(1.00, 0.00, -0.00, -1.00, 641.1, 497.2)">o</text><text xml:space="preserve" font-family="Georgia,Georgia" font-size="36.0" fill="#000000" transform="matrix(1.00, 0.00, -0.00, -1.00, 660.5, 497.2)">h</text><text xml:space="preserve" font-family="Georgia,Georgia" font-size="36.0" fill="#000000" transform="matrix(1.00, 0.00, -0.00, -1.00, 681.4, 497.2)">d</text><text xml:space="preserve" font-family="Georgia,Georgia" font-size="36.0" fill="#000000" transform="matrix(1.00, 0.00, -0.00, -1.00, 702.1, 497.2)">i</text><text xml:space="preserve" font-family="Georgia,Georgia" font-size="36.0" fill="#000000" transform="matrix(1.00, 0.00, -0.00, -1.00, 712.7, 497.2)">s</text><text xml:space="preserve" font-family="Georgia,Georgia" font-size="36.0" fill="#000000" transform="matrix(1.00, 0.00, -0.00, -1.00, 728.2, 497.2)">t</text><text xml:space="preserve" font-family="Georgia,Georgia" font-size="36.0" fill="#000000" transform="matrix(1.00, 0.00, -0.00, -1.00, 740.7, 497.2)">u</text><text xml:space="preserve" font-family="Georgia,Georgia" font-size="36.0" fill="#000000" transform="matrix(1.00, 0.00, -0.00, -1.00, 761.4, 497.2)">v</text><text xml:space="preserve" font-family="Georgia,Georgia" font-size="36.0" fill="#000000" transform="matrix(1.00, 0.00, -0.00, -1.00, 779.2, 497.2)">a</text><text xml:space="preserve" font-family="Georgia,Georgia" font-size="36.0" fill="#000000" transform="matrix(1.00, 0.00, -0.00, -1.00, 797.4, 497.2)">a</text><text xml:space="preserve" font-family="Georgia,Georgia" font-size="36.0" fill="#000000" transform="matrix(1.00, 0.00, -0.00, -1.00, 815.5, 497.2)"> </text><text xml:space="preserve" font-family="Georgia,Georgia" font-size="36.0" fill="#000000" transform="matrix(1.00, 0.00, -0.00, -1.00, 824.2, 497.2)">v</text><text xml:space="preserve" font-family="Georgia,Georgia" font-size="36.0" fill="#000000" transform="matrix(1.00, 0.00, -0.00, -1.00, 842.1, 497.2)">o</text><text xml:space="preserve" font-family="Georgia,Georgia" font-size="36.0" fill="#000000" transform="matrix(1.00, 0.00, -0.00, -1.00, 861.5, 497.2)">i</text><text xml:space="preserve" font-family="Georgia,Georgia" font-size="36.0" fill="#000000" transform="matrix(1.00, 0.00, -0.00, -1.00, 872.0, 497.2)">m</text><text xml:space="preserve" font-family="Georgia,Georgia" font-size="36.0" fill="#000000" transform="matrix(1.00, 0.00, -0.00, -1.00, 903.7, 497.2)">a</text><text xml:space="preserve" font-family="Georgia,Georgia" font-size="36.0" fill="#000000" transform="matrix(1.00, 0.00, -0.00, -1.00, 921.9, 497.2)">a</text><g><clipPath id="clip0x7fc923075ce0"><path d="M 96.0 392.0 L 499.0 392.0 L 499.0 283.0 L 96.0 283.0 Z M 95.5 391.5 "></path></clipPath><g clip-path="url(#clip0x7fc923075ce0)"><g><clipPath id="clip0x7fc923076430"><path d="M 102.8 289.0 L 644.9 289.0 L 644.9 385.2 L 102.8 385.2 Z M 102.8 289.0 "></path></clipPath><g clip-path="url(#clip0x7fc923076430)"><g><clipPath id="clip0x7fc923076bb0"><path d="M 102.8 289.0 L 644.9 289.0 L 644.9 385.2 L 102.8 385.2 Z M 102.8 289.0 "></path></clipPath><g clip-path="url(#clip0x7fc923076bb0)"><path d="M 107.0 321.3 C 106.6 319.9 106.5 319.6 104.7 319.6 C 104.2 319.6 103.7 319.6 103.7 318.8 C 103.7 318.4 103.9 318.3 104.2 318.3 C 105.4 318.3 106.6 318.4 107.8 318.4 C 109.2 318.4 110.7 318.3 112.0 318.3 C 112.2 318.3 112.8 318.3 112.8 319.1 C 112.8 319.6 112.4 319.6 111.8 319.6 C 109.7 319.6 109.7 319.9 109.7 320.2 C 109.7 320.8 111.4 327.7 111.7 328.8 C 112.3 327.5 113.5 326.1 115.7 326.1 C 120.6 326.1 125.9 332.3 125.9 338.5 C 125.9 342.6 123.5 345.4 120.3 345.4 C 118.1 345.4 116.1 343.8 114.7 342.2 C 114.2 344.5 112.4 345.4 110.8 345.4 C 108.9 345.4 108.1 343.7 107.7 342.9 C 106.9 341.5 106.4 338.9 106.4 338.8 C 106.4 338.4 106.8 338.4 106.9 338.4 C 107.3 338.4 107.4 338.4 107.6 339.4 C 108.3 342.4 109.2 344.4 110.7 344.4 C 111.4 344.4 112.0 344.1 112.0 342.5 C 112.0 341.5 111.9 341.0 111.7 340.3 L 107.0 321.3 Z M 114.5 339.8 C 114.8 341.0 115.9 342.2 116.7 342.8 C 118.2 344.1 119.4 344.4 120.1 344.4 C 121.9 344.4 122.9 342.9 122.9 340.4 C 122.9 337.9 121.4 333.0 120.7 331.4 C 119.2 328.4 117.2 327.0 115.6 327.0 C 112.8 327.0 112.2 330.5 112.2 330.8 C 112.2 330.9 112.2 331.0 112.4 331.5 L 114.5 339.8 " fill="#000000"></path><path d="M 142.3 342.6 C 141.5 344.2 140.3 345.4 138.4 345.4 C 133.4 345.4 128.1 339.1 128.1 332.9 C 128.1 328.9 130.4 326.1 133.8 326.1 C 134.6 326.1 136.8 326.2 139.3 329.3 C 139.7 327.5 141.2 326.1 143.2 326.1 C 144.7 326.1 145.7 327.0 146.3 328.4 C 147.1 329.9 147.6 332.5 147.6 332.6 C 147.6 333.0 147.2 333.0 147.1 333.0 C 146.7 333.0 146.6 332.9 146.5 332.3 C 145.8 329.5 145.0 327.0 143.3 327.0 C 142.1 327.0 142.0 328.1 142.0 328.9 C 142.0 329.9 142.1 330.2 142.5 332.1 C 143.0 333.9 143.1 334.3 143.5 336.0 L 145.0 341.9 C 145.3 343.1 145.3 343.2 145.3 343.3 C 145.3 344.1 144.8 344.5 144.1 344.5 C 143.1 344.5 142.4 343.6 142.3 342.6 Z M 139.5 331.6 C 139.3 330.8 139.3 330.7 138.7 330.0 C 136.8 327.7 135.1 327.0 133.9 327.0 C 131.7 327.0 131.1 329.3 131.1 331.0 C 131.1 333.1 132.5 338.4 133.5 340.3 C 134.8 342.8 136.7 344.4 138.4 344.4 C 141.2 344.4 141.8 340.9 141.8 340.7 C 141.8 340.4 141.7 340.2 141.7 339.9 L 139.5 331.6 " fill="#000000"></path><path d="M 161.1 353.2 C 161.1 354.0 160.5 354.7 159.5 354.7 C 158.3 354.7 157.2 353.6 157.2 352.5 C 157.2 351.6 157.8 350.9 158.8 350.9 C 159.8 350.9 161.1 351.9 161.1 353.2 Z M 157.8 337.1 C 158.3 338.4 158.3 338.5 158.7 339.6 C 159.1 340.5 159.3 341.0 159.3 341.9 C 159.3 343.8 157.9 345.4 155.8 345.4 C 151.8 345.4 150.2 339.2 150.2 338.8 C 150.2 338.4 150.6 338.4 150.7 338.4 C 151.1 338.4 151.2 338.5 151.4 339.1 C 152.5 343.2 154.2 344.4 155.7 344.4 C 156.0 344.4 156.7 344.4 156.7 343.1 C 156.7 342.2 156.4 341.3 156.3 340.9 C 155.9 339.7 154.0 334.8 153.3 333.0 C 152.9 331.8 152.4 330.5 152.4 329.5 C 152.4 327.5 153.8 326.1 155.8 326.1 C 159.9 326.1 161.4 332.2 161.4 332.6 C 161.4 333.0 161.1 333.0 160.9 333.0 C 160.5 333.0 160.5 332.9 160.3 332.3 C 159.5 329.6 158.1 327.0 155.9 327.0 C 155.2 327.0 154.9 327.4 154.9 328.4 C 154.9 329.5 155.2 330.1 156.2 332.7 L 157.8 337.1 " fill="#000000"></path><path d="M 167.3 329.0 C 167.1 328.4 166.9 327.4 166.9 327.2 C 166.9 326.4 167.5 326.1 168.1 326.1 C 168.6 326.1 169.4 326.4 169.7 327.2 C 169.8 327.3 170.3 329.3 170.5 330.4 L 171.5 334.2 C 171.7 335.2 172.0 336.1 172.2 337.1 C 172.4 337.8 172.7 339.1 172.7 339.2 C 173.4 340.5 175.6 344.4 179.7 344.4 C 181.6 344.4 182.0 342.8 182.0 341.5 C 182.0 338.8 179.9 333.3 179.2 331.5 C 178.8 330.5 178.8 330.0 178.8 329.5 C 178.8 327.5 180.3 326.1 182.3 326.1 C 186.3 326.1 187.9 332.3 187.9 332.6 C 187.9 333.0 187.5 333.0 187.4 333.0 C 186.9 333.0 186.9 332.9 186.7 332.3 C 185.8 329.4 184.5 327.0 182.4 327.0 C 181.6 327.0 181.3 327.4 181.3 328.4 C 181.3 329.5 181.7 330.5 182.1 331.4 C 182.9 333.7 184.7 338.4 184.7 340.8 C 184.7 343.7 182.9 345.4 179.8 345.4 C 176.0 345.4 173.9 342.6 173.2 341.6 C 173.0 344.0 171.2 345.4 169.2 345.4 C 167.3 345.4 166.5 343.7 166.0 342.9 C 165.4 341.5 164.8 339.0 164.8 338.8 C 164.8 338.4 165.2 338.4 165.3 338.4 C 165.7 338.4 165.8 338.4 166.0 339.3 C 166.7 342.4 167.6 344.4 169.1 344.4 C 170.0 344.4 170.4 343.9 170.4 342.5 C 170.4 341.6 170.3 341.1 169.8 338.9 L 167.3 329.0 " fill="#000000"></path><path d="M 197.1 336.4 C 198.4 336.4 201.5 336.5 203.6 337.3 C 206.6 338.6 206.9 341.1 206.9 341.7 C 206.9 343.6 205.2 345.4 202.3 345.4 C 197.5 345.4 191.1 341.2 191.1 333.8 C 191.1 329.4 193.6 326.1 197.8 326.1 C 203.9 326.1 207.5 330.6 207.5 331.1 C 207.5 331.3 207.2 331.6 207.0 331.6 C 206.8 331.6 206.7 331.6 206.4 331.2 C 203.1 327.0 198.4 327.0 197.9 327.0 C 194.6 327.0 194.2 330.6 194.2 331.9 C 194.2 332.4 194.2 333.8 194.9 336.4 L 197.1 336.4 Z M 195.1 337.3 C 196.8 343.8 201.2 344.4 202.3 344.4 C 204.3 344.4 205.4 343.2 205.4 341.7 C 205.4 337.3 198.6 337.3 196.9 337.3 L 195.1 337.3 " fill="#000000"></path><path d="M 250.0 340.5 C 250.6 340.5 251.4 340.5 251.4 341.3 C 251.4 342.2 250.6 342.2 250.0 342.2 L 224.5 342.2 C 223.9 342.2 223.1 342.2 223.1 341.3 C 223.1 340.5 223.9 340.5 224.5 340.5 L 250.0 340.5 Z M 250.0 332.2 C 250.6 332.2 251.4 332.2 251.4 333.0 C 251.4 333.9 250.6 333.9 250.0 333.9 L 224.5 333.9 C 223.9 333.9 223.1 333.9 223.1 333.0 C 223.1 332.2 223.9 332.2 224.5 332.2 L 250.0 332.2 " fill="#000000"></path><path d="M 337.1 371.2 C 337.1 373.5 336.0 374.2 335.2 374.2 C 334.2 374.2 333.1 373.1 333.1 372.2 C 333.1 371.6 333.4 371.3 333.8 370.9 C 334.7 370.0 335.3 368.9 335.3 367.4 C 335.3 365.6 332.7 355.8 327.7 355.8 C 325.5 355.8 324.5 357.3 324.5 359.5 C 324.5 361.9 325.7 365.0 327.0 368.6 C 327.3 369.3 327.5 369.9 327.5 370.7 C 327.5 372.6 326.2 374.2 324.0 374.2 C 320.0 374.2 318.4 368.0 318.4 367.7 C 318.4 367.2 318.8 367.2 318.9 367.2 C 319.3 367.2 319.4 367.3 319.6 368.0 C 320.8 372.3 322.7 373.3 323.9 373.3 C 324.2 373.3 325.0 373.3 325.0 371.9 C 325.0 370.8 324.5 369.7 324.2 368.9 C 322.4 364.0 321.8 362.0 321.8 360.2 C 321.8 355.6 325.6 354.9 327.5 354.9 C 334.7 354.9 337.1 369.0 337.1 371.2 " fill="#000000"></path><path d="M 359.2 367.0 C 359.2 371.4 356.2 374.2 352.4 374.2 C 346.7 374.2 341.0 368.2 341.0 362.1 C 341.0 357.9 343.8 354.9 347.8 354.9 C 353.5 354.9 359.2 360.8 359.2 367.0 Z M 347.8 355.8 C 346.0 355.8 344.1 357.2 344.1 360.5 C 344.1 362.6 345.2 367.2 346.6 369.3 C 348.7 372.6 351.1 373.3 352.3 373.3 C 354.8 373.3 356.1 371.2 356.1 368.7 C 356.1 367.0 355.3 362.5 353.6 359.8 C 352.1 357.3 349.8 355.8 347.8 355.8 " fill="#000000"></path><path d="M 372.0 382.0 C 372.0 382.9 371.4 383.5 370.4 383.5 C 369.2 383.5 368.1 382.4 368.1 381.3 C 368.1 380.5 368.7 379.8 369.7 379.8 C 370.7 379.8 372.0 380.7 372.0 382.0 Z M 368.7 366.0 C 369.2 367.2 369.2 367.3 369.7 368.4 C 370.0 369.3 370.2 369.9 370.2 370.7 C 370.2 372.6 368.9 374.2 366.7 374.2 C 362.7 374.2 361.1 368.0 361.1 367.7 C 361.1 367.2 361.5 367.2 361.6 367.2 C 362.0 367.2 362.1 367.3 362.3 368.0 C 363.4 372.0 365.1 373.3 366.6 373.3 C 366.9 373.3 367.7 373.3 367.7 371.9 C 367.7 371.0 367.4 370.1 367.2 369.7 C 366.8 368.6 364.9 363.6 364.3 361.8 C 363.8 360.7 363.3 359.3 363.3 358.4 C 363.3 356.4 364.7 354.9 366.8 354.9 C 370.8 354.9 372.3 361.1 372.3 361.5 C 372.3 361.9 372.0 361.9 371.8 361.9 C 371.4 361.9 371.4 361.7 371.2 361.1 C 370.4 358.4 369.0 355.8 366.8 355.8 C 366.1 355.8 365.8 356.2 365.8 357.2 C 365.8 358.3 366.1 358.9 367.1 361.5 L 368.7 366.0 " fill="#000000"></path><path d="M 378.3 357.9 C 378.2 357.2 377.9 356.2 377.9 356.1 C 377.9 355.3 378.5 354.9 379.2 354.9 C 379.7 354.9 380.5 355.2 380.7 356.1 C 380.8 356.2 381.3 358.2 381.6 359.2 L 382.5 363.1 C 382.8 364.0 383.0 365.0 383.2 365.9 C 383.4 366.7 383.7 367.9 383.8 368.1 C 384.4 369.4 386.7 373.3 390.7 373.3 C 392.7 373.3 393.0 371.7 393.0 370.3 C 393.0 369.2 392.7 368.0 392.4 366.7 L 391.2 361.8 L 390.3 358.5 C 390.2 357.7 389.8 356.2 389.8 356.1 C 389.8 355.3 390.4 354.9 391.0 354.9 C 392.3 354.9 392.6 356.0 392.9 357.3 C 393.5 359.7 395.1 365.9 395.5 367.6 C 395.6 368.2 397.9 373.3 402.5 373.3 C 404.4 373.3 404.8 371.8 404.8 370.3 C 404.8 367.8 403.0 363.0 402.2 360.7 C 401.8 359.7 401.6 359.2 401.6 358.4 C 401.6 356.4 403.1 354.9 405.1 354.9 C 409.1 354.9 410.7 361.1 410.7 361.5 C 410.7 361.9 410.3 361.9 410.2 361.9 C 409.8 361.9 409.8 361.7 409.6 361.1 C 408.9 358.9 407.6 355.8 405.2 355.8 C 404.5 355.8 404.2 356.2 404.2 357.2 C 404.2 358.3 404.6 359.3 404.9 360.3 C 405.8 362.5 407.6 367.2 407.6 369.6 C 407.6 372.4 405.9 374.2 402.7 374.2 C 399.4 374.2 397.3 372.3 395.7 370.1 C 395.7 370.6 395.5 372.1 394.4 373.1 C 393.3 374.0 391.9 374.2 390.9 374.2 C 387.0 374.2 384.9 371.5 384.2 370.5 C 384.0 372.9 382.2 374.2 380.3 374.2 C 378.3 374.2 377.5 372.5 377.1 371.8 C 376.4 370.3 375.8 367.8 375.8 367.7 C 375.8 367.2 376.2 367.2 376.3 367.2 C 376.7 367.2 376.8 367.2 377.1 368.2 C 377.8 371.2 378.6 373.3 380.1 373.3 C 380.8 373.3 381.5 372.9 381.5 371.3 C 381.5 370.4 381.3 369.9 380.8 367.7 L 378.3 357.9 " fill="#000000"></path><path d="M 427.8 371.5 C 427.1 373.1 425.8 374.2 423.9 374.2 C 418.9 374.2 413.7 367.9 413.7 361.7 C 413.7 357.7 416.0 354.9 419.3 354.9 C 420.2 354.9 422.3 355.1 424.8 358.1 C 425.2 356.3 426.7 354.9 428.7 354.9 C 430.2 354.9 431.2 355.9 431.9 357.2 C 432.6 358.8 433.2 361.4 433.2 361.5 C 433.2 361.9 432.8 361.9 432.6 361.9 C 432.2 361.9 432.2 361.7 432.0 361.1 C 431.3 358.3 430.6 355.8 428.8 355.8 C 427.7 355.8 427.5 356.9 427.5 357.8 C 427.5 358.7 427.6 359.1 428.1 361.0 C 428.6 362.7 428.6 363.2 429.0 364.8 L 430.6 370.7 C 430.9 371.9 430.9 372.0 430.9 372.2 C 430.9 372.9 430.3 373.3 429.6 373.3 C 428.6 373.3 428.0 372.4 427.8 371.5 Z M 425.1 360.4 C 424.8 359.7 424.8 359.6 424.2 358.9 C 422.3 356.5 420.6 355.8 419.4 355.8 C 417.3 355.8 416.7 358.2 416.7 359.8 C 416.7 362.0 418.1 367.2 419.0 369.2 C 420.3 371.7 422.3 373.3 424.0 373.3 C 426.7 373.3 427.3 369.8 427.3 369.5 C 427.3 369.3 427.2 369.0 427.2 368.8 L 425.1 360.4 " fill="#000000"></path><path d="M 21.5 6.7 L 47.5 6.7 " fill="none" stroke="#000000" stroke-width="0.21" transform="matrix(8.09, 0.00, 0.00, 8.09, 96.9, 283.1)"></path><path d="M 272.7 292.1 C 272.4 290.7 272.3 290.4 270.4 290.4 C 269.9 290.4 269.4 290.4 269.4 289.6 C 269.4 289.2 269.6 289.1 270.0 289.1 C 271.1 289.1 272.3 289.2 273.5 289.2 C 275.0 289.2 276.4 289.1 277.8 289.1 C 278.0 289.1 278.5 289.1 278.5 289.9 C 278.5 290.4 278.1 290.4 277.5 290.4 C 275.4 290.4 275.4 290.7 275.4 291.0 C 275.4 291.6 277.2 298.5 277.5 299.6 C 278.0 298.3 279.2 296.9 281.4 296.9 C 286.3 296.9 291.6 303.1 291.6 309.3 C 291.6 313.4 289.2 316.2 286.0 316.2 C 283.9 316.2 281.8 314.6 280.4 313.0 C 280.0 315.3 278.1 316.2 276.6 316.2 C 274.6 316.2 273.8 314.5 273.4 313.7 C 272.7 312.3 272.1 309.7 272.1 309.6 C 272.1 309.2 272.5 309.2 272.6 309.2 C 273.0 309.2 273.1 309.2 273.3 310.2 C 274.0 313.2 274.9 315.2 276.4 315.2 C 277.2 315.2 277.8 314.9 277.8 313.3 C 277.8 312.3 277.6 311.8 277.5 311.1 L 272.7 292.1 Z M 280.2 310.6 C 280.5 311.8 281.7 313.0 282.4 313.6 C 283.9 314.9 285.1 315.2 285.9 315.2 C 287.6 315.2 288.6 313.7 288.6 311.2 C 288.6 308.7 287.2 303.8 286.4 302.2 C 285.0 299.2 282.9 297.8 281.3 297.8 C 278.5 297.8 278.0 301.3 278.0 301.6 C 278.0 301.7 278.0 301.8 278.1 302.3 L 280.2 310.6 " fill="#000000"></path><path d="M 304.2 324.0 C 304.2 324.8 303.6 325.5 302.7 325.5 C 301.5 325.5 300.4 324.4 300.4 323.3 C 300.4 322.4 301.0 321.7 302.0 321.7 C 302.9 321.7 304.2 322.7 304.2 324.0 Z M 301.0 307.9 C 301.5 309.2 301.5 309.3 301.9 310.4 C 302.3 311.3 302.5 311.9 302.5 312.7 C 302.5 314.6 301.1 316.2 299.0 316.2 C 295.0 316.2 293.4 310.0 293.4 309.6 C 293.4 309.2 293.8 309.2 293.9 309.2 C 294.3 309.2 294.4 309.3 294.5 309.9 C 295.7 314.0 297.4 315.2 298.9 315.2 C 299.2 315.2 299.9 315.2 299.9 313.9 C 299.9 313.0 299.6 312.1 299.5 311.7 C 299.1 310.5 297.2 305.6 296.5 303.8 C 296.1 302.6 295.6 301.3 295.6 300.3 C 295.6 298.3 297.0 296.9 299.0 296.9 C 303.0 296.9 304.6 303.0 304.6 303.4 C 304.6 303.8 304.2 303.8 304.1 303.8 C 303.7 303.8 303.7 303.7 303.5 303.1 C 302.7 300.4 301.3 297.8 299.1 297.8 C 298.4 297.8 298.1 298.2 298.1 299.2 C 298.1 300.3 298.4 300.9 299.3 303.5 L 301.0 307.9 " fill="#000000"></path><path d="M 310.6 299.8 C 310.5 299.2 310.2 298.2 310.2 298.0 C 310.2 297.2 310.8 296.9 311.4 296.9 C 311.9 296.9 312.7 297.2 313.0 298.1 C 313.1 298.1 313.6 300.1 313.8 301.2 L 314.8 305.0 C 315.0 306.0 315.3 306.9 315.5 307.9 C 315.7 308.6 316.0 309.9 316.1 310.0 C 316.7 311.3 318.9 315.2 323.0 315.2 C 324.9 315.2 325.3 313.6 325.3 312.3 C 325.3 309.6 323.2 304.1 322.5 302.3 C 322.2 301.3 322.1 300.8 322.1 300.3 C 322.1 298.3 323.6 296.9 325.6 296.9 C 329.6 296.9 331.2 303.1 331.2 303.4 C 331.2 303.8 330.8 303.8 330.6 303.8 C 330.2 303.8 330.2 303.7 330.0 303.1 C 329.2 300.2 327.8 297.8 325.7 297.8 C 325.0 297.8 324.6 298.2 324.6 299.2 C 324.6 300.3 325.0 301.3 325.4 302.2 C 326.2 304.5 328.0 309.2 328.0 311.6 C 328.0 314.5 326.2 316.2 323.1 316.2 C 319.3 316.2 317.2 313.4 316.5 312.4 C 316.2 314.8 314.5 316.2 312.5 316.2 C 310.6 316.2 309.8 314.5 309.4 313.7 C 308.7 312.3 308.1 309.8 308.1 309.6 C 308.1 309.2 308.5 309.2 308.6 309.2 C 309.0 309.2 309.0 309.2 309.3 310.2 C 310.0 313.2 310.9 315.2 312.4 315.2 C 313.3 315.2 313.7 314.7 313.7 313.3 C 313.7 312.4 313.6 311.9 313.1 309.7 L 310.6 299.8 " fill="#000000"></path><path d="M 341.1 314.4 L 345.1 314.4 C 346.0 314.4 346.4 314.4 346.4 315.2 C 346.4 315.7 346.0 315.7 345.2 315.7 L 341.5 315.7 C 343.0 321.7 343.2 322.6 343.2 322.9 C 343.2 323.6 342.7 324.0 342.0 324.0 C 341.9 324.0 340.7 324.0 340.3 322.5 L 338.6 315.7 L 334.6 315.7 C 333.7 315.7 333.3 315.7 333.3 314.9 C 333.3 314.4 333.7 314.4 334.5 314.4 L 338.3 314.4 C 335.2 302.3 335.0 301.5 335.0 300.8 C 335.0 298.5 336.6 296.9 339.0 296.9 C 343.3 296.9 345.7 303.1 345.7 303.4 C 345.7 303.8 345.4 303.8 345.2 303.8 C 344.8 303.8 344.8 303.7 344.6 303.2 C 342.7 298.8 340.5 297.8 339.1 297.8 C 338.1 297.8 337.7 298.3 337.7 299.8 C 337.7 300.8 337.8 301.1 338.0 301.8 L 341.1 314.4 " fill="#000000"></path><path d="M 363.7 313.4 C 362.9 315.0 361.7 316.2 359.7 316.2 C 354.7 316.2 349.5 309.9 349.5 303.7 C 349.5 299.7 351.8 296.9 355.1 296.9 C 356.0 296.9 358.1 297.0 360.7 300.1 C 361.0 298.3 362.5 296.9 364.5 296.9 C 366.1 296.9 367.0 297.8 367.7 299.2 C 368.4 300.7 369.0 303.3 369.0 303.4 C 369.0 303.8 368.6 303.8 368.5 303.8 C 368.0 303.8 368.0 303.7 367.9 303.1 C 367.2 300.3 366.4 297.8 364.6 297.8 C 363.5 297.8 363.4 298.9 363.4 299.8 C 363.4 300.7 363.4 301.0 363.9 302.9 C 364.4 304.7 364.5 305.1 364.9 306.8 L 366.4 312.7 C 366.7 313.9 366.7 314.0 366.7 314.1 C 366.7 314.9 366.2 315.3 365.5 315.3 C 364.4 315.3 363.8 314.4 363.7 313.4 Z M 360.9 302.4 C 360.7 301.6 360.7 301.5 360.0 300.8 C 358.2 298.5 356.4 297.8 355.2 297.8 C 353.1 297.8 352.5 300.1 352.5 301.8 C 352.5 303.9 353.9 309.2 354.8 311.1 C 356.2 313.6 358.1 315.2 359.8 315.2 C 362.6 315.2 363.2 311.7 363.2 311.5 C 363.2 311.2 363.1 311.0 363.0 310.7 L 360.9 302.4 " fill="#000000"></path><path d="M 407.8 307.1 C 408.5 307.1 409.2 307.1 409.2 308.0 C 409.2 308.8 408.5 308.8 407.8 308.8 L 384.7 308.8 C 384.0 308.8 383.2 308.8 383.2 308.0 C 383.2 307.1 384.0 307.1 384.7 307.1 L 407.8 307.1 " fill="#000000"></path><path d="M 438.1 313.4 C 437.4 315.0 436.2 316.2 434.2 316.2 C 429.3 316.2 424.0 309.9 424.0 303.7 C 424.0 299.7 426.3 296.9 429.6 296.9 C 430.5 296.9 432.6 297.0 435.2 300.1 C 435.5 298.3 437.0 296.9 439.1 296.9 C 440.5 296.9 441.5 297.8 442.2 299.2 C 442.9 300.7 443.5 303.3 443.5 303.4 C 443.5 303.8 443.1 303.8 443.0 303.8 C 442.5 303.8 442.5 303.7 442.4 303.1 C 441.6 300.3 440.9 297.8 439.2 297.8 C 438.0 297.8 437.9 298.9 437.9 299.8 C 437.9 300.7 438.0 301.0 438.4 302.9 C 438.9 304.7 439.0 305.1 439.3 306.8 L 440.9 312.7 C 441.2 313.9 441.2 314.0 441.2 314.1 C 441.2 314.9 440.7 315.3 439.9 315.3 C 438.9 315.3 438.3 314.4 438.2 313.4 Z M 435.4 302.4 C 435.2 301.6 435.2 301.5 434.5 300.8 C 432.6 298.5 430.9 297.8 429.7 297.8 C 427.6 297.8 427.0 300.1 427.0 301.8 C 427.0 303.9 428.3 309.2 429.3 311.1 C 430.7 313.6 432.6 315.2 434.3 315.2 C 437.0 315.2 437.6 311.7 437.6 311.5 C 437.6 311.2 437.6 311.0 437.5 310.7 L 435.4 302.4 " fill="#000000"></path><path d="M 455.7 326.4 C 455.7 326.5 455.7 326.9 455.1 326.9 C 454.2 326.9 451.0 326.6 449.9 326.5 C 449.6 326.4 449.1 326.4 449.1 325.6 C 449.1 325.1 449.5 325.1 450.2 325.1 C 452.2 325.1 452.3 324.7 452.3 324.4 L 452.1 323.5 L 446.8 302.2 C 446.6 301.8 446.5 301.5 446.5 300.8 C 446.5 298.3 448.4 296.9 450.4 296.9 C 451.9 296.9 452.9 297.7 453.6 299.2 C 454.4 300.9 454.9 303.3 454.9 303.4 C 454.9 303.8 454.5 303.8 454.4 303.8 C 454.0 303.8 453.9 303.7 453.8 303.1 C 453.1 300.3 452.3 297.8 450.6 297.8 C 449.3 297.8 449.3 299.2 449.3 299.8 C 449.3 300.8 449.3 301.0 449.5 301.8 L 455.7 326.4 " fill="#000000"></path><path d="M 474.1 313.4 C 473.3 315.0 472.1 316.2 470.2 316.2 C 465.2 316.2 459.9 309.9 459.9 303.7 C 459.9 299.7 462.2 296.9 465.6 296.9 C 466.4 296.9 468.6 297.0 471.1 300.1 C 471.5 298.3 473.0 296.9 475.0 296.9 C 476.5 296.9 477.5 297.8 478.2 299.2 C 478.9 300.7 479.4 303.3 479.4 303.4 C 479.4 303.8 479.0 303.8 478.9 303.8 C 478.5 303.8 478.4 303.7 478.3 303.1 C 477.6 300.3 476.8 297.8 475.1 297.8 C 473.9 297.8 473.8 298.9 473.8 299.8 C 473.8 300.7 473.9 301.0 474.4 302.9 C 474.8 304.7 474.9 305.1 475.3 306.8 L 476.8 312.7 C 477.1 313.9 477.1 314.0 477.1 314.1 C 477.1 314.9 476.6 315.3 475.9 315.3 C 474.9 315.3 474.2 314.4 474.1 313.4 Z M 471.3 302.4 C 471.1 301.6 471.1 301.5 470.5 300.8 C 468.6 298.5 466.9 297.8 465.7 297.8 C 463.5 297.8 462.9 300.1 462.9 301.8 C 462.9 303.9 464.3 309.2 465.3 311.1 C 466.6 313.6 468.5 315.2 470.2 315.2 C 473.0 315.2 473.6 311.7 473.6 311.5 C 473.6 311.2 473.5 311.0 473.5 310.7 L 471.3 302.4 " fill="#000000"></path><path d="M 530.3 321.3 C 530.0 319.9 529.9 319.6 528.0 319.6 C 527.5 319.6 527.1 319.6 527.1 318.8 C 527.1 318.4 527.3 318.3 527.6 318.3 C 528.8 318.3 530.0 318.4 531.2 318.4 C 532.6 318.4 534.1 318.3 535.4 318.3 C 535.6 318.3 536.2 318.3 536.2 319.1 C 536.2 319.6 535.8 319.6 535.2 319.6 C 533.0 319.6 533.0 319.9 533.0 320.2 C 533.0 320.8 534.8 327.7 535.1 328.8 C 535.7 327.5 536.9 326.1 539.0 326.1 C 544.0 326.1 549.3 332.3 549.3 338.5 C 549.3 342.6 546.9 345.4 543.6 345.4 C 541.5 345.4 539.5 343.8 538.1 342.2 C 537.6 344.5 535.8 345.4 534.2 345.4 C 532.3 345.4 531.5 343.7 531.1 342.9 C 530.3 341.5 529.7 338.9 529.7 338.8 C 529.7 338.4 530.2 338.4 530.3 338.4 C 530.7 338.4 530.7 338.4 531.0 339.4 C 531.7 342.4 532.6 344.4 534.1 344.4 C 534.8 344.4 535.4 344.1 535.4 342.5 C 535.4 341.5 535.3 341.0 535.1 340.3 L 530.3 321.3 Z M 537.9 339.8 C 538.1 341.0 539.3 342.2 540.1 342.8 C 541.6 344.1 542.8 344.4 543.5 344.4 C 545.2 344.4 546.2 342.9 546.2 340.4 C 546.2 337.9 544.8 333.0 544.1 331.4 C 542.6 328.4 540.6 327.0 539.0 327.0 C 536.2 327.0 535.7 330.5 535.7 330.8 C 535.7 330.9 535.7 331.0 535.8 331.5 L 537.9 339.8 " fill="#000000"></path><path d="M 590.9 340.5 C 591.6 340.5 592.4 340.5 592.4 341.3 C 592.4 342.2 591.6 342.2 591.0 342.2 L 565.4 342.2 C 564.8 342.2 564.1 342.2 564.1 341.3 C 564.1 340.5 564.8 340.5 565.5 340.5 L 590.9 340.5 Z M 591.0 332.2 C 591.6 332.2 592.4 332.2 592.4 333.0 C 592.4 333.9 591.6 333.9 590.9 333.9 L 565.5 333.9 C 564.8 333.9 564.1 333.9 564.1 333.0 C 564.1 332.2 564.8 332.2 565.4 332.2 L 591.0 332.2 " fill="#000000"></path><path d="M 624.5 369.2 L 628.6 369.2 C 631.8 369.2 632.2 368.5 632.2 367.3 C 632.2 367.0 632.2 366.5 631.9 365.2 C 631.8 365.0 631.7 364.8 631.7 364.7 C 631.7 364.4 632.0 364.2 632.3 364.2 C 632.7 364.2 632.7 364.4 632.9 365.1 L 635.3 374.4 C 635.4 374.9 635.4 374.9 635.4 375.0 C 635.4 375.1 635.3 375.5 634.9 375.5 C 634.4 375.5 634.4 375.3 634.2 374.6 C 633.3 371.3 632.3 370.5 628.7 370.5 L 624.9 370.5 L 627.6 381.4 C 628.0 382.9 628.0 383.0 629.9 383.0 L 635.5 383.0 C 640.7 383.0 641.7 381.6 641.7 378.3 C 641.7 377.4 641.7 377.2 641.6 376.0 C 641.5 375.5 641.5 375.4 641.5 375.3 C 641.5 375.0 641.6 374.8 642.0 374.8 C 642.5 374.8 642.5 375.0 642.6 375.8 L 643.5 383.2 C 643.6 384.3 643.4 384.3 642.3 384.3 L 621.4 384.3 C 620.6 384.3 620.2 384.3 620.2 383.5 C 620.2 383.0 620.5 383.0 621.4 383.0 C 622.9 383.0 624.1 383.0 624.1 382.3 C 624.1 382.1 624.1 382.0 623.9 381.2 L 618.3 358.7 C 617.8 357.0 617.8 356.7 614.4 356.7 C 613.7 356.7 613.2 356.7 613.2 355.9 C 613.2 355.4 613.7 355.4 613.9 355.4 C 615.1 355.4 618.3 355.5 619.5 355.5 C 620.9 355.5 624.4 355.4 625.8 355.4 C 626.2 355.4 626.7 355.4 626.7 356.2 C 626.7 356.5 626.5 356.6 626.5 356.7 C 626.3 356.7 626.2 356.7 625.3 356.7 C 624.3 356.7 624.1 356.7 623.1 356.8 C 621.8 356.9 621.7 357.1 621.7 357.6 C 621.7 357.7 621.7 357.9 621.9 358.6 L 624.5 369.2 " fill="#000000"></path><path d="M 63.7 6.7 L 67.8 6.7 " fill="none" stroke="#000000" stroke-width="0.21" transform="matrix(8.09, 0.00, 0.00, 8.09, 96.9, 283.1)"></path><path d="M 619.9 302.2 C 618.2 299.4 616.6 298.8 614.7 298.6 C 614.2 298.6 613.8 298.6 613.8 297.8 C 613.8 297.5 614.0 297.3 614.3 297.3 C 615.5 297.3 616.8 297.5 618.0 297.5 C 619.4 297.5 620.9 297.3 622.3 297.3 C 622.5 297.3 623.1 297.3 623.1 298.1 C 623.1 298.6 622.7 298.6 622.4 298.6 C 621.4 298.7 620.4 299.1 620.4 300.1 C 620.4 300.7 620.7 301.1 621.0 301.7 L 624.2 307.2 L 634.9 307.2 C 635.0 306.3 635.6 300.5 635.6 300.1 C 635.6 298.8 633.4 298.6 632.5 298.6 C 631.9 298.6 631.5 298.6 631.5 297.8 C 631.5 297.3 632.0 297.3 632.1 297.3 C 633.9 297.3 635.7 297.5 637.4 297.5 C 638.5 297.5 641.2 297.3 642.3 297.3 C 642.5 297.3 643.0 297.3 643.0 298.2 C 643.0 298.6 642.6 298.6 642.0 298.6 C 639.4 298.6 639.4 298.9 639.3 300.2 L 636.7 326.8 C 636.6 327.7 636.6 327.8 635.9 327.8 C 635.2 327.8 635.0 327.5 634.8 327.1 L 619.9 302.2 Z M 625.0 308.5 L 633.5 322.6 L 634.8 308.5 L 625.0 308.5 " fill="#000000"></path></g></g></g></g></g></g><g><clipPath id="clip0x7fc904c97da0"><path d="M 703.0 392.0 L 874.0 392.0 L 874.0 283.0 L 703.0 283.0 Z M 703.2 391.5 "></path></clipPath><g clip-path="url(#clip0x7fc904c97da0)"><g><clipPath id="clip0x7fc904b2a8a0"><path d="M 303.8 289.0 L 846.9 289.0 L 846.9 385.2 L 303.8 385.2 Z M 303.8 289.0 "></path></clipPath><g clip-path="url(#clip0x7fc904b2a8a0)"><g><clipPath id="clip0x7fc904c76a80"><path d="M 303.8 289.0 L 846.9 289.0 L 846.9 385.2 L 303.8 385.2 Z M 303.8 289.0 "></path></clipPath><g clip-path="url(#clip0x7fc904c76a80)"><path d="M 308.0 321.3 C 307.6 319.9 307.5 319.6 305.7 319.6 C 305.2 319.6 304.7 319.6 304.7 318.8 C 304.7 318.4 304.9 318.3 305.2 318.3 C 306.4 318.3 307.6 318.4 308.8 318.4 C 310.2 318.4 311.7 318.3 313.1 318.3 C 313.3 318.3 313.8 318.3 313.8 319.1 C 313.8 319.6 313.4 319.6 312.8 319.6 C 310.7 319.6 310.7 319.9 310.7 320.2 C 310.7 320.8 312.5 327.7 312.8 328.8 C 313.3 327.5 314.5 326.1 316.7 326.1 C 321.6 326.1 327.0 332.3 327.0 338.5 C 327.0 342.6 324.5 345.4 321.3 345.4 C 319.2 345.4 317.1 343.8 315.7 342.2 C 315.3 344.5 313.4 345.4 311.9 345.4 C 309.9 345.4 309.1 343.7 308.7 342.9 C 307.9 341.5 307.4 338.9 307.4 338.8 C 307.4 338.4 307.8 338.4 307.9 338.4 C 308.3 338.4 308.4 338.4 308.6 339.4 C 309.4 342.4 310.2 344.4 311.7 344.4 C 312.5 344.4 313.1 344.1 313.1 342.5 C 313.1 341.5 312.9 341.0 312.8 340.3 L 308.0 321.3 Z M 315.5 339.8 C 315.8 341.0 316.9 342.2 317.7 342.8 C 319.2 344.1 320.5 344.4 321.2 344.4 C 322.9 344.4 323.9 342.9 323.9 340.4 C 323.9 337.9 322.5 333.0 321.7 331.4 C 320.3 328.4 318.2 327.0 316.7 327.0 C 313.8 327.0 313.3 330.5 313.3 330.8 C 313.3 330.9 313.3 331.0 313.4 331.5 L 315.5 339.8 " fill="#000000"></path><path d="M 343.4 342.6 C 342.6 344.2 341.4 345.4 339.4 345.4 C 334.4 345.4 329.2 339.1 329.2 332.9 C 329.2 328.9 331.5 326.1 334.8 326.1 C 335.7 326.1 337.8 326.2 340.4 329.3 C 340.7 327.5 342.2 326.1 344.3 326.1 C 345.8 326.1 346.8 327.0 347.4 328.4 C 348.2 329.9 348.7 332.5 348.7 332.6 C 348.7 333.0 348.3 333.0 348.2 333.0 C 347.8 333.0 347.7 332.9 347.6 332.3 C 346.9 329.5 346.1 327.0 344.4 327.0 C 343.2 327.0 343.1 328.1 343.1 328.9 C 343.1 329.9 343.2 330.2 343.6 332.1 C 344.1 333.9 344.2 334.3 344.6 336.0 L 346.1 341.9 C 346.4 343.1 346.4 343.2 346.4 343.3 C 346.4 344.1 345.9 344.5 345.2 344.5 C 344.2 344.5 343.5 343.6 343.4 342.6 Z M 340.6 331.6 C 340.4 330.8 340.4 330.7 339.8 330.0 C 337.9 327.7 336.1 327.0 334.9 327.0 C 332.8 327.0 332.2 329.3 332.2 331.0 C 332.2 333.1 333.6 338.4 334.5 340.3 C 335.9 342.8 337.8 344.4 339.5 344.4 C 342.3 344.4 342.9 340.9 342.9 340.7 C 342.9 340.4 342.8 340.2 342.7 339.9 L 340.6 331.6 " fill="#000000"></path><path d="M 362.2 353.2 C 362.2 354.0 361.6 354.7 360.6 354.7 C 359.4 354.7 358.3 353.6 358.3 352.5 C 358.3 351.6 358.9 350.9 359.9 350.9 C 360.9 350.9 362.2 351.9 362.2 353.2 Z M 358.9 337.1 C 359.4 338.4 359.4 338.5 359.9 339.6 C 360.2 340.5 360.4 341.0 360.4 341.9 C 360.4 343.8 359.0 345.4 356.9 345.4 C 352.9 345.4 351.3 339.2 351.3 338.8 C 351.3 338.4 351.7 338.4 351.8 338.4 C 352.2 338.4 352.3 338.5 352.5 339.1 C 353.6 343.2 355.3 344.4 356.8 344.4 C 357.1 344.4 357.8 344.4 357.8 343.1 C 357.8 342.2 357.5 341.3 357.4 340.9 C 357.0 339.7 355.1 334.8 354.4 333.0 C 354.0 331.8 353.5 330.5 353.5 329.5 C 353.5 327.5 354.9 326.1 356.9 326.1 C 361.0 326.1 362.5 332.2 362.5 332.6 C 362.5 333.0 362.2 333.0 362.0 333.0 C 361.6 333.0 361.6 332.9 361.4 332.3 C 360.6 329.6 359.2 327.0 357.0 327.0 C 356.3 327.0 356.0 327.4 356.0 328.4 C 356.0 329.5 356.3 330.1 357.3 332.7 L 358.9 337.1 " fill="#000000"></path><path d="M 368.4 329.0 C 368.3 328.4 368.0 327.4 368.0 327.2 C 368.0 326.4 368.6 326.1 369.3 326.1 C 369.8 326.1 370.6 326.4 370.8 327.2 C 370.9 327.3 371.4 329.3 371.7 330.4 L 372.6 334.2 C 372.9 335.2 373.1 336.1 373.3 337.1 C 373.5 337.8 373.8 339.1 373.9 339.2 C 374.5 340.5 376.8 344.4 380.8 344.4 C 382.8 344.4 383.1 342.8 383.1 341.5 C 383.1 338.8 381.1 333.3 380.4 331.5 C 380.0 330.5 380.0 330.0 380.0 329.5 C 380.0 327.5 381.4 326.1 383.4 326.1 C 387.5 326.1 389.0 332.3 389.0 332.6 C 389.0 333.0 388.7 333.0 388.5 333.0 C 388.1 333.0 388.1 332.9 387.9 332.3 C 387.0 329.4 385.6 327.0 383.5 327.0 C 382.8 327.0 382.5 327.4 382.5 328.4 C 382.5 329.5 382.9 330.5 383.3 331.4 C 384.1 333.7 385.9 338.4 385.9 340.8 C 385.9 343.7 384.0 345.4 381.0 345.4 C 377.1 345.4 375.0 342.6 374.3 341.6 C 374.1 344.0 372.3 345.4 370.4 345.4 C 368.4 345.4 367.6 343.7 367.2 342.9 C 366.5 341.5 365.9 339.0 365.9 338.8 C 365.9 338.4 366.3 338.4 366.4 338.4 C 366.8 338.4 366.9 338.4 367.1 339.3 C 367.9 342.4 368.7 344.4 370.2 344.4 C 371.1 344.4 371.6 343.9 371.6 342.5 C 371.6 341.6 371.4 341.1 370.9 338.9 L 368.4 329.0 " fill="#000000"></path><path d="M 398.3 336.4 C 399.5 336.4 402.7 336.5 404.8 337.3 C 407.8 338.6 408.1 341.1 408.1 341.7 C 408.1 343.6 406.4 345.4 403.5 345.4 C 398.7 345.4 392.3 341.2 392.3 333.8 C 392.3 329.4 394.8 326.1 399.0 326.1 C 405.1 326.1 408.7 330.6 408.7 331.1 C 408.7 331.3 408.4 331.6 408.2 331.6 C 408.0 331.6 407.9 331.6 407.6 331.2 C 404.3 327.0 399.6 327.0 399.1 327.0 C 395.7 327.0 395.4 330.6 395.4 331.9 C 395.4 332.4 395.4 333.8 396.1 336.4 L 398.3 336.4 Z M 396.3 337.3 C 398.0 343.8 402.4 344.4 403.5 344.4 C 405.5 344.4 406.6 343.2 406.6 341.7 C 406.6 337.3 399.8 337.3 398.1 337.3 L 396.3 337.3 " fill="#000000"></path><path d="M 451.3 340.5 C 451.9 340.5 452.7 340.5 452.7 341.3 C 452.7 342.2 451.9 342.2 451.3 342.2 L 425.7 342.2 C 425.1 342.2 424.3 342.2 424.3 341.3 C 424.3 340.5 425.1 340.5 425.8 340.5 L 451.3 340.5 Z M 451.3 332.2 C 451.9 332.2 452.7 332.2 452.7 333.0 C 452.7 333.9 451.9 333.9 451.3 333.9 L 425.8 333.9 C 425.1 333.9 424.3 333.9 424.3 333.0 C 424.3 332.2 425.1 332.2 425.7 332.2 L 451.3 332.2 " fill="#000000"></path><path d="M 538.5 371.2 C 538.5 373.5 537.4 374.2 536.7 374.2 C 535.6 374.2 534.6 373.1 534.6 372.2 C 534.6 371.6 534.8 371.3 535.2 370.9 C 536.2 370.0 536.7 368.9 536.7 367.4 C 536.7 365.6 534.1 355.8 529.1 355.8 C 526.9 355.8 525.9 357.3 525.9 359.5 C 525.9 361.9 527.1 365.0 528.4 368.6 C 528.7 369.3 528.9 369.9 528.9 370.7 C 528.9 372.6 527.6 374.2 525.4 374.2 C 521.4 374.2 519.8 368.0 519.8 367.7 C 519.8 367.2 520.2 367.2 520.3 367.2 C 520.7 367.2 520.8 367.3 521.0 368.0 C 522.2 372.3 524.1 373.3 525.3 373.3 C 525.6 373.3 526.4 373.3 526.4 371.9 C 526.4 370.8 525.9 369.7 525.6 368.9 C 523.8 364.0 523.2 362.0 523.2 360.2 C 523.2 355.6 527.0 354.9 528.9 354.9 C 536.1 354.9 538.5 369.0 538.5 371.2 " fill="#000000"></path><path d="M 560.7 367.0 C 560.7 371.4 557.7 374.2 553.8 374.2 C 548.1 374.2 542.4 368.2 542.4 362.1 C 542.4 357.9 545.3 354.9 549.3 354.9 C 554.9 354.9 560.7 360.8 560.7 367.0 Z M 549.3 355.8 C 547.5 355.8 545.6 357.2 545.6 360.5 C 545.6 362.6 546.7 367.2 548.1 369.3 C 550.2 372.6 552.6 373.3 553.8 373.3 C 556.3 373.3 557.6 371.2 557.6 368.7 C 557.6 367.0 556.7 362.5 555.1 359.8 C 553.6 357.3 551.2 355.8 549.3 355.8 " fill="#000000"></path><path d="M 573.5 382.0 C 573.5 382.9 572.9 383.5 571.9 383.5 C 570.7 383.5 569.6 382.4 569.6 381.3 C 569.6 380.5 570.2 379.8 571.2 379.8 C 572.2 379.8 573.5 380.7 573.5 382.0 Z M 570.2 366.0 C 570.7 367.2 570.7 367.3 571.2 368.4 C 571.5 369.3 571.7 369.9 571.7 370.7 C 571.7 372.6 570.4 374.2 568.2 374.2 C 564.2 374.2 562.6 368.0 562.6 367.7 C 562.6 367.2 563.0 367.2 563.1 367.2 C 563.5 367.2 563.6 367.3 563.8 368.0 C 564.9 372.0 566.6 373.3 568.1 373.3 C 568.4 373.3 569.2 373.3 569.2 371.9 C 569.2 371.0 568.8 370.1 568.7 369.7 C 568.3 368.6 566.4 363.6 565.7 361.8 C 565.3 360.7 564.8 359.3 564.8 358.4 C 564.8 356.4 566.2 354.9 568.3 354.9 C 572.3 354.9 573.8 361.1 573.8 361.5 C 573.8 361.9 573.5 361.9 573.3 361.9 C 572.9 361.9 572.9 361.7 572.7 361.1 C 571.9 358.4 570.5 355.8 568.3 355.8 C 567.6 355.8 567.3 356.2 567.3 357.2 C 567.3 358.3 567.6 358.9 568.6 361.5 L 570.2 366.0 " fill="#000000"></path><path d="M 579.8 357.9 C 579.7 357.2 579.4 356.2 579.4 356.1 C 579.4 355.3 580.0 354.9 580.7 354.9 C 581.2 354.9 582.0 355.2 582.3 356.1 C 582.3 356.2 582.8 358.2 583.1 359.2 L 584.0 363.1 C 584.3 364.0 584.5 365.0 584.8 365.9 C 584.9 366.7 585.3 367.9 585.3 368.1 C 585.9 369.4 588.2 373.3 592.3 373.3 C 594.2 373.3 594.6 371.7 594.6 370.3 C 594.6 369.2 594.3 368.0 593.9 366.7 L 592.7 361.8 L 591.9 358.5 C 591.7 357.7 591.3 356.2 591.3 356.1 C 591.3 355.3 591.9 354.9 592.5 354.9 C 593.9 354.9 594.1 356.0 594.5 357.3 C 595.1 359.7 596.7 365.9 597.0 367.6 C 597.2 368.2 599.4 373.3 604.1 373.3 C 605.9 373.3 606.4 371.8 606.4 370.3 C 606.4 367.8 604.6 363.0 603.7 360.7 C 603.4 359.7 603.2 359.2 603.2 358.4 C 603.2 356.4 604.7 354.9 606.7 354.9 C 610.7 354.9 612.3 361.1 612.3 361.5 C 612.3 361.9 611.9 361.9 611.8 361.9 C 611.3 361.9 611.3 361.7 611.1 361.1 C 610.5 358.9 609.1 355.8 606.8 355.8 C 606.1 355.8 605.7 356.2 605.7 357.2 C 605.7 358.3 606.1 359.3 606.5 360.3 C 607.3 362.5 609.1 367.2 609.1 369.6 C 609.1 372.4 607.4 374.2 604.2 374.2 C 601.0 374.2 598.8 372.3 597.3 370.1 C 597.2 370.6 597.1 372.1 595.9 373.1 C 594.8 374.0 593.5 374.2 592.4 374.2 C 588.6 374.2 586.4 371.5 585.7 370.5 C 585.5 372.9 583.7 374.2 581.8 374.2 C 579.8 374.2 579.0 372.5 578.7 371.8 C 577.9 370.3 577.3 367.8 577.3 367.7 C 577.3 367.2 577.7 367.2 577.8 367.2 C 578.2 367.2 578.3 367.2 578.6 368.2 C 579.3 371.2 580.1 373.3 581.7 373.3 C 582.4 373.3 583.0 372.9 583.0 371.3 C 583.0 370.4 582.9 369.9 582.3 367.7 L 579.8 357.9 " fill="#000000"></path><path d="M 629.4 371.5 C 628.7 373.1 627.4 374.2 625.5 374.2 C 620.5 374.2 615.2 367.9 615.2 361.7 C 615.2 357.7 617.6 354.9 620.9 354.9 C 621.8 354.9 623.9 355.1 626.4 358.1 C 626.8 356.3 628.3 354.9 630.3 354.9 C 631.8 354.9 632.8 355.9 633.5 357.2 C 634.2 358.8 634.8 361.4 634.8 361.5 C 634.8 361.9 634.4 361.9 634.3 361.9 C 633.8 361.9 633.8 361.7 633.7 361.1 C 632.9 358.3 632.2 355.8 630.4 355.8 C 629.3 355.8 629.1 356.9 629.1 357.8 C 629.1 358.7 629.2 359.1 629.7 361.0 C 630.2 362.7 630.2 363.2 630.6 364.8 L 632.2 370.7 C 632.5 371.9 632.5 372.0 632.5 372.2 C 632.5 372.9 631.9 373.3 631.2 373.3 C 630.2 373.3 629.6 372.4 629.4 371.5 Z M 626.7 360.4 C 626.4 359.7 626.4 359.6 625.8 358.9 C 623.9 356.5 622.2 355.8 621.0 355.8 C 618.8 355.8 618.2 358.2 618.2 359.8 C 618.2 362.0 619.6 367.2 620.6 369.2 C 621.9 371.7 623.8 373.3 625.6 373.3 C 628.3 373.3 628.9 369.8 628.9 369.5 C 628.9 369.3 628.8 369.0 628.8 368.8 L 626.7 360.4 " fill="#000000"></path><path d="M 21.5 6.7 L 47.5 6.7 " fill="none" stroke="#000000" stroke-width="0.21" transform="matrix(8.10, 0.00, 0.00, 8.09, 297.9, 283.1)"></path><path d="M 474.0 292.1 C 473.7 290.7 473.6 290.4 471.7 290.4 C 471.2 290.4 470.7 290.4 470.7 289.6 C 470.7 289.2 470.9 289.1 471.3 289.1 C 472.4 289.1 473.7 289.2 474.9 289.2 C 476.3 289.2 477.7 289.1 479.1 289.1 C 479.3 289.1 479.9 289.1 479.9 289.9 C 479.9 290.4 479.4 290.4 478.8 290.4 C 476.7 290.4 476.7 290.7 476.7 291.0 C 476.7 291.6 478.5 298.5 478.8 299.6 C 479.4 298.3 480.6 296.9 482.7 296.9 C 487.7 296.9 493.0 303.1 493.0 309.3 C 493.0 313.4 490.6 316.2 487.3 316.2 C 485.2 316.2 483.1 314.6 481.7 313.0 C 481.3 315.3 479.5 316.2 477.9 316.2 C 475.9 316.2 475.1 314.5 474.7 313.7 C 474.0 312.3 473.4 309.7 473.4 309.6 C 473.4 309.2 473.8 309.2 473.9 309.2 C 474.4 309.2 474.4 309.2 474.6 310.2 C 475.4 313.2 476.2 315.2 477.8 315.2 C 478.5 315.2 479.1 314.9 479.1 313.3 C 479.1 312.3 479.0 311.8 478.8 311.1 L 474.0 292.1 Z M 481.5 310.6 C 481.8 311.8 483.0 313.0 483.7 313.6 C 485.2 314.9 486.5 315.2 487.2 315.2 C 488.9 315.2 489.9 313.7 489.9 311.2 C 489.9 308.7 488.5 303.8 487.8 302.2 C 486.3 299.2 484.3 297.8 482.7 297.8 C 479.9 297.8 479.3 301.3 479.3 301.6 C 479.3 301.7 479.3 301.8 479.4 302.3 L 481.5 310.6 " fill="#000000"></path><path d="M 505.6 324.0 C 505.6 324.8 505.0 325.5 504.0 325.5 C 502.9 325.5 501.7 324.4 501.7 323.3 C 501.7 322.4 502.3 321.7 503.3 321.7 C 504.3 321.7 505.6 322.7 505.6 324.0 Z M 502.4 307.9 C 502.9 309.2 502.9 309.3 503.3 310.4 C 503.7 311.3 503.8 311.9 503.8 312.7 C 503.8 314.6 502.5 316.2 500.4 316.2 C 496.3 316.2 494.7 310.0 494.7 309.6 C 494.7 309.2 495.1 309.2 495.2 309.2 C 495.6 309.2 495.7 309.3 495.9 309.9 C 497.1 314.0 498.8 315.2 500.2 315.2 C 500.6 315.2 501.3 315.2 501.3 313.9 C 501.3 313.0 501.0 312.1 500.8 311.7 C 500.5 310.5 498.6 305.6 497.9 303.8 C 497.5 302.6 496.9 301.3 496.9 300.3 C 496.9 298.3 498.3 296.9 500.4 296.9 C 504.4 296.9 506.0 303.0 506.0 303.4 C 506.0 303.8 505.6 303.8 505.5 303.8 C 505.0 303.8 505.0 303.7 504.8 303.1 C 504.1 300.4 502.7 297.8 500.5 297.8 C 499.8 297.8 499.4 298.2 499.4 299.2 C 499.4 300.3 499.7 300.9 500.7 303.5 L 502.4 307.9 " fill="#000000"></path><path d="M 512.0 299.8 C 511.9 299.2 511.6 298.2 511.6 298.0 C 511.6 297.2 512.2 296.9 512.8 296.9 C 513.3 296.9 514.1 297.2 514.4 298.1 C 514.4 298.1 515.0 300.1 515.2 301.2 L 516.2 305.0 C 516.4 306.0 516.7 306.9 516.9 307.9 C 517.1 308.6 517.4 309.9 517.5 310.0 C 518.1 311.3 520.3 315.2 524.4 315.2 C 526.3 315.2 526.7 313.6 526.7 312.3 C 526.7 309.6 524.6 304.1 523.9 302.3 C 523.6 301.3 523.5 300.8 523.5 300.3 C 523.5 298.3 525.0 296.9 527.0 296.9 C 531.0 296.9 532.6 303.1 532.6 303.4 C 532.6 303.8 532.2 303.8 532.1 303.8 C 531.7 303.8 531.7 303.7 531.4 303.1 C 530.6 300.2 529.2 297.8 527.1 297.8 C 526.4 297.8 526.1 298.2 526.1 299.2 C 526.1 300.3 526.4 301.3 526.8 302.2 C 527.6 304.5 529.4 309.2 529.4 311.6 C 529.4 314.5 527.6 316.2 524.5 316.2 C 520.7 316.2 518.6 313.4 517.9 312.4 C 517.6 314.8 515.9 316.2 513.9 316.2 C 512.0 316.2 511.2 314.5 510.7 313.7 C 510.0 312.3 509.4 309.8 509.4 309.6 C 509.4 309.2 509.9 309.2 510.0 309.2 C 510.4 309.2 510.4 309.2 510.7 310.2 C 511.4 313.2 512.3 315.2 513.8 315.2 C 514.7 315.2 515.1 314.7 515.1 313.3 C 515.1 312.4 515.0 311.9 514.4 309.7 L 512.0 299.8 " fill="#000000"></path><path d="M 542.6 314.4 L 546.6 314.4 C 547.4 314.4 547.9 314.4 547.9 315.2 C 547.9 315.7 547.4 315.7 546.7 315.7 L 542.9 315.7 C 544.4 321.7 544.7 322.6 544.7 322.9 C 544.7 323.6 544.1 324.0 543.4 324.0 C 543.3 324.0 542.1 324.0 541.7 322.5 L 540.0 315.7 L 536.0 315.7 C 535.2 315.7 534.8 315.7 534.8 314.9 C 534.8 314.4 535.1 314.4 536.0 314.4 L 539.7 314.4 C 536.6 302.3 536.5 301.5 536.5 300.8 C 536.5 298.5 538.1 296.9 540.4 296.9 C 544.7 296.9 547.2 303.1 547.2 303.4 C 547.2 303.8 546.8 303.8 546.7 303.8 C 546.3 303.8 546.2 303.7 546.0 303.2 C 544.2 298.8 541.9 297.8 540.5 297.8 C 539.6 297.8 539.2 298.3 539.2 299.8 C 539.2 300.8 539.2 301.1 539.4 301.8 L 542.6 314.4 " fill="#000000"></path><path d="M 565.1 313.4 C 564.4 315.0 563.1 316.2 561.2 316.2 C 556.2 316.2 550.9 309.9 550.9 303.7 C 550.9 299.7 553.3 296.9 556.6 296.9 C 557.5 296.9 559.6 297.0 562.2 300.1 C 562.5 298.3 564.0 296.9 566.0 296.9 C 567.5 296.9 568.5 297.8 569.2 299.2 C 569.9 300.7 570.5 303.3 570.5 303.4 C 570.5 303.8 570.1 303.8 570.0 303.8 C 569.5 303.8 569.5 303.7 569.4 303.1 C 568.7 300.3 567.9 297.8 566.1 297.8 C 565.0 297.8 564.9 298.9 564.9 299.8 C 564.9 300.7 564.9 301.0 565.4 302.9 C 565.9 304.7 566.0 305.1 566.3 306.8 L 567.9 312.7 C 568.2 313.9 568.2 314.0 568.2 314.1 C 568.2 314.9 567.7 315.3 566.9 315.3 C 565.9 315.3 565.3 314.4 565.1 313.4 Z M 562.4 302.4 C 562.2 301.6 562.2 301.5 561.5 300.8 C 559.6 298.5 557.9 297.8 556.7 297.8 C 554.6 297.8 554.0 300.1 554.0 301.8 C 554.0 303.9 555.3 309.2 556.3 311.1 C 557.6 313.6 559.5 315.2 561.2 315.2 C 564.0 315.2 564.6 311.7 564.6 311.5 C 564.6 311.2 564.5 311.0 564.5 310.7 L 562.4 302.4 " fill="#000000"></path><path d="M 609.3 307.1 C 610.0 307.1 610.8 307.1 610.8 308.0 C 610.8 308.8 610.0 308.8 609.3 308.8 L 586.2 308.8 C 585.5 308.8 584.7 308.8 584.7 308.0 C 584.7 307.1 585.5 307.1 586.2 307.1 L 609.3 307.1 " fill="#000000"></path><path d="M 639.8 313.4 C 639.0 315.0 637.8 316.2 635.8 316.2 C 630.9 316.2 625.6 309.9 625.6 303.7 C 625.6 299.7 627.9 296.9 631.2 296.9 C 632.1 296.9 634.2 297.0 636.8 300.1 C 637.1 298.3 638.6 296.9 640.7 296.9 C 642.2 296.9 643.1 297.8 643.8 299.2 C 644.6 300.7 645.1 303.3 645.1 303.4 C 645.1 303.8 644.7 303.8 644.6 303.8 C 644.2 303.8 644.1 303.7 644.0 303.1 C 643.3 300.3 642.5 297.8 640.8 297.8 C 639.6 297.8 639.5 298.9 639.5 299.8 C 639.5 300.7 639.6 301.0 640.0 302.9 C 640.5 304.7 640.6 305.1 641.0 306.8 L 642.5 312.7 C 642.8 313.9 642.8 314.0 642.8 314.1 C 642.8 314.9 642.3 315.3 641.6 315.3 C 640.6 315.3 639.9 314.4 639.8 313.4 Z M 637.0 302.4 C 636.8 301.6 636.8 301.5 636.2 300.8 C 634.3 298.5 632.5 297.8 631.3 297.8 C 629.2 297.8 628.6 300.1 628.6 301.8 C 628.6 303.9 629.9 309.2 630.9 311.1 C 632.3 313.6 634.2 315.2 635.9 315.2 C 638.7 315.2 639.3 311.7 639.3 311.5 C 639.3 311.2 639.2 311.0 639.1 310.7 L 637.0 302.4 " fill="#000000"></path><path d="M 657.3 326.4 C 657.3 326.5 657.3 326.9 656.8 326.9 C 655.8 326.9 652.7 326.6 651.6 326.5 C 651.2 326.4 650.7 326.4 650.7 325.6 C 650.7 325.1 651.2 325.1 651.8 325.1 C 653.9 325.1 653.9 324.7 653.9 324.4 L 653.8 323.5 L 648.4 302.2 C 648.3 301.8 648.2 301.5 648.2 300.8 C 648.2 298.3 650.1 296.9 652.1 296.9 C 653.5 296.9 654.5 297.7 655.3 299.2 C 656.1 300.9 656.6 303.3 656.6 303.4 C 656.6 303.8 656.2 303.8 656.1 303.8 C 655.6 303.8 655.6 303.7 655.5 303.1 C 654.7 300.3 653.9 297.8 652.2 297.8 C 650.9 297.8 650.9 299.2 650.9 299.8 C 650.9 300.8 651.0 301.0 651.2 301.8 L 657.3 326.4 " fill="#000000"></path><path d="M 675.8 313.4 C 675.0 315.0 673.8 316.2 671.8 316.2 C 666.9 316.2 661.6 309.9 661.6 303.7 C 661.6 299.7 663.9 296.9 667.3 296.9 C 668.1 296.9 670.2 297.0 672.8 300.1 C 673.1 298.3 674.6 296.9 676.7 296.9 C 678.2 296.9 679.2 297.8 679.9 299.2 C 680.6 300.7 681.1 303.3 681.1 303.4 C 681.1 303.8 680.7 303.8 680.6 303.8 C 680.2 303.8 680.1 303.7 680.0 303.1 C 679.3 300.3 678.5 297.8 676.8 297.8 C 675.6 297.8 675.5 298.9 675.5 299.8 C 675.5 300.7 675.6 301.0 676.1 302.9 C 676.5 304.7 676.6 305.1 677.0 306.8 L 678.5 312.7 C 678.8 313.9 678.8 314.0 678.8 314.1 C 678.8 314.9 678.3 315.3 677.6 315.3 C 676.6 315.3 675.9 314.4 675.8 313.4 Z M 673.0 302.4 C 672.8 301.6 672.8 301.5 672.2 300.8 C 670.3 298.5 668.5 297.8 667.3 297.8 C 665.2 297.8 664.6 300.1 664.6 301.8 C 664.6 303.9 666.0 309.2 666.9 311.1 C 668.3 313.6 670.2 315.2 671.9 315.2 C 674.7 315.2 675.3 311.7 675.3 311.5 C 675.3 311.2 675.2 311.0 675.1 310.7 L 673.0 302.4 " fill="#000000"></path><path d="M 732.1 321.3 C 731.8 319.9 731.7 319.6 729.8 319.6 C 729.3 319.6 728.8 319.6 728.8 318.8 C 728.8 318.4 729.1 318.3 729.4 318.3 C 730.5 318.3 731.8 318.4 733.0 318.4 C 734.4 318.4 735.9 318.3 737.2 318.3 C 737.4 318.3 738.0 318.3 738.0 319.1 C 738.0 319.6 737.6 319.6 737.0 319.6 C 734.8 319.6 734.8 319.9 734.8 320.2 C 734.8 320.8 736.6 327.7 736.9 328.8 C 737.5 327.5 738.7 326.1 740.8 326.1 C 745.8 326.1 751.1 332.3 751.1 338.5 C 751.1 342.6 748.7 345.4 745.5 345.4 C 743.3 345.4 741.3 343.8 739.9 342.2 C 739.4 344.5 737.6 345.4 736.0 345.4 C 734.1 345.4 733.2 343.7 732.9 342.9 C 732.1 341.5 731.5 338.9 731.5 338.8 C 731.5 338.4 732.0 338.4 732.0 338.4 C 732.5 338.4 732.5 338.4 732.8 339.4 C 733.5 342.4 734.3 344.4 735.9 344.4 C 736.6 344.4 737.2 344.1 737.2 342.5 C 737.2 341.5 737.1 341.0 736.9 340.3 L 732.1 321.3 Z M 739.7 339.8 C 739.9 341.0 741.1 342.2 741.9 342.8 C 743.4 344.1 744.6 344.4 745.3 344.4 C 747.0 344.4 748.0 342.9 748.0 340.4 C 748.0 337.9 746.7 333.0 745.9 331.4 C 744.4 328.4 742.4 327.0 740.8 327.0 C 738.0 327.0 737.4 330.5 737.4 330.8 C 737.4 330.9 737.4 331.0 737.6 331.5 L 739.7 339.8 " fill="#000000"></path><path d="M 792.8 340.5 C 793.5 340.5 794.3 340.5 794.3 341.3 C 794.3 342.2 793.5 342.2 792.9 342.2 L 767.3 342.2 C 766.7 342.2 765.9 342.2 765.9 341.3 C 765.9 340.5 766.7 340.5 767.4 340.5 L 792.8 340.5 Z M 792.9 332.2 C 793.5 332.2 794.3 332.2 794.3 333.0 C 794.3 333.9 793.5 333.9 792.8 333.9 L 767.4 333.9 C 766.7 333.9 765.9 333.9 765.9 333.0 C 765.9 332.2 766.7 332.2 767.3 332.2 L 792.9 332.2 " fill="#000000"></path><path d="M 826.5 369.2 L 830.6 369.2 C 833.8 369.2 834.2 368.5 834.2 367.3 C 834.2 367.0 834.2 366.5 833.8 365.2 C 833.7 365.0 833.7 364.8 833.7 364.7 C 833.7 364.4 834.0 364.2 834.2 364.2 C 834.7 364.2 834.7 364.4 834.9 365.1 L 837.2 374.4 C 837.4 374.9 837.4 374.9 837.4 375.0 C 837.4 375.1 837.3 375.5 836.8 375.5 C 836.4 375.5 836.4 375.3 836.2 374.6 C 835.3 371.3 834.3 370.5 830.7 370.5 L 826.8 370.5 L 829.5 381.4 C 829.9 382.9 829.9 383.0 831.8 383.0 L 837.5 383.0 C 842.7 383.0 843.7 381.6 843.7 378.3 C 843.7 377.4 843.7 377.2 843.6 376.0 C 843.5 375.5 843.5 375.4 843.5 375.3 C 843.5 375.0 843.6 374.8 844.0 374.8 C 844.5 374.8 844.5 375.0 844.6 375.8 L 845.5 383.2 C 845.6 384.3 845.4 384.3 844.3 384.3 L 823.4 384.3 C 822.5 384.3 822.1 384.3 822.1 383.5 C 822.1 383.0 822.5 383.0 823.3 383.0 C 824.9 383.0 826.1 383.0 826.1 382.3 C 826.1 382.1 826.1 382.0 825.9 381.2 L 820.2 358.7 C 819.8 357.0 819.7 356.7 816.3 356.7 C 815.6 356.7 815.1 356.7 815.1 355.9 C 815.1 355.4 815.7 355.4 815.8 355.4 C 817.0 355.4 820.2 355.5 821.4 355.5 C 822.8 355.5 826.4 355.4 827.8 355.4 C 828.2 355.4 828.7 355.4 828.7 356.2 C 828.7 356.5 828.4 356.6 828.4 356.7 C 828.3 356.7 828.2 356.7 827.2 356.7 C 826.3 356.7 826.1 356.7 825.0 356.8 C 823.8 356.9 823.6 357.1 823.6 357.6 C 823.6 357.7 823.6 357.9 823.8 358.6 L 826.5 369.2 " fill="#000000"></path><path d="M 63.7 6.7 L 67.8 6.7 " fill="none" stroke="#000000" stroke-width="0.21" transform="matrix(8.10, 0.00, 0.00, 8.09, 297.9, 283.1)"></path><path d="M 821.9 302.2 C 820.2 299.4 818.5 298.8 816.6 298.6 C 816.1 298.6 815.7 298.6 815.7 297.8 C 815.7 297.5 816.0 297.3 816.3 297.3 C 817.4 297.3 818.8 297.5 819.9 297.5 C 821.4 297.5 822.9 297.3 824.2 297.3 C 824.5 297.3 825.0 297.3 825.0 298.1 C 825.0 298.6 824.7 298.6 824.3 298.6 C 823.4 298.7 822.4 299.1 822.4 300.1 C 822.4 300.7 822.6 301.1 823.0 301.7 L 826.2 307.2 L 836.9 307.2 C 837.0 306.3 837.6 300.5 837.6 300.1 C 837.6 298.8 835.4 298.6 834.5 298.6 C 833.9 298.6 833.5 298.6 833.5 297.8 C 833.5 297.3 834.0 297.3 834.1 297.3 C 835.8 297.3 837.7 297.5 839.4 297.5 C 840.5 297.5 843.2 297.3 844.2 297.3 C 844.5 297.3 845.0 297.3 845.0 298.2 C 845.0 298.6 844.6 298.6 844.0 298.6 C 841.4 298.6 841.4 298.9 841.3 300.2 L 838.6 326.8 C 838.6 327.7 838.6 327.8 837.9 327.8 C 837.2 327.8 837.0 327.5 836.7 327.1 L 821.9 302.2 Z M 827.0 308.5 L 835.4 322.6 L 836.8 308.5 L 827.0 308.5 " fill="#000000"></path></g></g></g></g></g></g><text xml:space="preserve" font-family="Georgia,Georgia" font-size="46.0" fill="#000000" transform="matrix(1.00, 0.00, -0.00, -1.00, 566.0, 330.1)">e</text><text xml:space="preserve" font-family="Georgia,Georgia" font-size="46.0" fill="#000000" transform="matrix(1.00, 0.00, -0.00, -1.00, 588.3, 330.1)">l</text><text xml:space="preserve" font-family="Georgia,Georgia" font-size="46.0" fill="#000000" transform="matrix(1.00, 0.00, -0.00, -1.00, 601.5, 330.1)">i</text><text xml:space="preserve" font-family="Georgia,Georgia" font-size="27.0" fill="#000000" transform="matrix(1.00, 0.00, -0.00, -1.00, 60.0, 180.2)">•</text><text xml:space="preserve" font-family="Georgia,Georgia" font-size="36.0" fill="#000000" transform="matrix(1.00, 0.00, -0.00, -1.00, 95.0, 177.2)">P</text><text xml:space="preserve" font-family="Georgia,Georgia" font-size="36.0" fill="#000000" transform="matrix(1.00, 0.00, -0.00, -1.00, 117.0, 177.2)">a</text><text xml:space="preserve" font-family="Georgia,Georgia" font-size="36.0" fill="#000000" transform="matrix(1.00, 0.00, -0.00, -1.00, 135.1, 177.2)">i</text><text xml:space="preserve" font-family="Georgia,Georgia" font-size="36.0" fill="#000000" transform="matrix(1.00, 0.00, -0.00, -1.00, 145.6, 177.2)">n</text><text xml:space="preserve" font-family="Georgia,Georgia" font-size="36.0" fill="#000000" transform="matrix(1.00, 0.00, -0.00, -1.00, 166.9, 177.2)">e</text><text xml:space="preserve" font-family="Georgia,Georgia" font-size="36.0" fill="#000000" transform="matrix(1.00, 0.00, -0.00, -1.00, 184.3, 177.2)">e</text><text xml:space="preserve" font-family="Georgia,Georgia" font-size="36.0" fill="#000000" transform="matrix(1.00, 0.00, -0.00, -1.00, 201.7, 177.2)">n</text><text xml:space="preserve" font-family="Georgia,Georgia" font-size="36.0" fill="#000000" transform="matrix(1.00, 0.00, -0.00, -1.00, 223.0, 177.2)"> </text><text xml:space="preserve" font-family="Georgia,Georgia" font-size="36.0" fill="#000000" transform="matrix(1.00, 0.00, -0.00, -1.00, 231.7, 177.2)">p</text><text xml:space="preserve" font-family="Georgia,Georgia" font-size="36.0" fill="#000000" transform="matrix(1.00, 0.00, -0.00, -1.00, 252.3, 177.2)">e</text><text xml:space="preserve" font-family="Georgia,Georgia" font-size="36.0" fill="#000000" transform="matrix(1.00, 0.00, -0.00, -1.00, 269.7, 177.2)">r</text><text xml:space="preserve" font-family="Georgia,Georgia" font-size="36.0" fill="#000000" transform="matrix(1.00, 0.00, -0.00, -1.00, 284.4, 177.2)">u</text><text xml:space="preserve" font-family="Georgia,Georgia" font-size="36.0" fill="#000000" transform="matrix(1.00, 0.00, -0.00, -1.00, 305.1, 177.2)">s</text><text xml:space="preserve" font-family="Georgia,Georgia" font-size="36.0" fill="#000000" transform="matrix(1.00, 0.00, -0.00, -1.00, 320.7, 177.2)">y</text><text xml:space="preserve" font-family="Georgia,Georgia" font-size="36.0" fill="#000000" transform="matrix(1.00, 0.00, -0.00, -1.00, 338.4, 177.2)">k</text><text xml:space="preserve" font-family="Georgia,Georgia" font-size="36.0" fill="#000000" transform="matrix(1.00, 0.00, -0.00, -1.00, 357.7, 177.2)">s</text><text xml:space="preserve" font-family="Georgia,Georgia" font-size="36.0" fill="#000000" transform="matrix(1.00, 0.00, -0.00, -1.00, 373.2, 177.2)">i</text><text xml:space="preserve" font-family="Georgia,Georgia" font-size="36.0" fill="#000000" transform="matrix(1.00, 0.00, -0.00, -1.00, 383.8, 177.2)">k</text><text xml:space="preserve" font-family="Georgia,Georgia" font-size="36.0" fill="#000000" transform="matrix(1.00, 0.00, -0.00, -1.00, 403.1, 177.2)">k</text><text xml:space="preserve" font-family="Georgia,Georgia" font-size="36.0" fill="#000000" transform="matrix(1.00, 0.00, -0.00, -1.00, 422.3, 177.2)">ö</text><text xml:space="preserve" font-family="Georgia,Georgia" font-size="36.0" fill="#000000" transform="matrix(1.00, 0.00, -0.00, -1.00, 441.7, 177.2)"> </text><text xml:space="preserve" font-family="Georgia,Georgia" font-size="36.0" fill="#000000" transform="matrix(1.00, 0.00, -0.00, -1.00, 450.4, 177.2)">o</text><text xml:space="preserve" font-family="Georgia,Georgia" font-size="36.0" fill="#000000" transform="matrix(1.00, 0.00, -0.00, -1.00, 469.8, 177.2)">n</text><text xml:space="preserve" font-family="Georgia,Georgia" font-size="36.0" fill="#000000" transform="matrix(1.00, 0.00, -0.00, -1.00, 491.1, 177.2)"> </text><text xml:space="preserve" font-family="Georgia,Georgia" font-size="36.0" fill="#000000" transform="matrix(1.00, 0.00, -0.00, -1.00, 499.8, 177.2)"> </text><text xml:space="preserve" font-family="Georgia,Georgia" font-size="36.0" fill="#000000" transform="matrix(1.00, 0.00, -0.00, -1.00, 508.5, 177.2)"> </text><text xml:space="preserve" font-family="Georgia,Georgia" font-size="36.0" fill="#000000" transform="matrix(1.00, 0.00, -0.00, -1.00, 517.2, 177.2)"> </text><text xml:space="preserve" font-family="Georgia,Georgia" font-size="36.0" fill="#000000" transform="matrix(1.00, 0.00, -0.00, -1.00, 525.9, 177.2)"> </text><text xml:space="preserve" font-family="Georgia,Georgia" font-size="36.0" fill="#000000" transform="matrix(1.00, 0.00, -0.00, -1.00, 534.6, 177.2)"> </text><text xml:space="preserve" font-family="Georgia,Georgia" font-size="36.0" fill="#000000" transform="matrix(1.00, 0.00, -0.00, -1.00, 543.2, 177.2)"> </text><text xml:space="preserve" font-family="Georgia,Georgia" font-size="36.0" fill="#000000" transform="matrix(1.00, 0.00, -0.00, -1.00, 551.9, 177.2)"> </text><text xml:space="preserve" font-family="Georgia,Georgia" font-size="36.0" fill="#000000" transform="matrix(1.00, 0.00, -0.00, -1.00, 560.6, 177.2)"> </text><text xml:space="preserve" font-family="Georgia,Georgia" font-size="36.0" fill="#000000" transform="matrix(1.00, 0.00, -0.00, -1.00, 569.3, 177.2)"> </text><text xml:space="preserve" font-family="Georgia,Georgia" font-size="36.0" fill="#000000" transform="matrix(1.00, 0.00, -0.00, -1.00, 578.0, 177.2)"> </text><text xml:space="preserve" font-family="Georgia,Georgia" font-size="36.0" fill="#000000" transform="matrix(1.00, 0.00, -0.00, -1.00, 586.7, 177.2)"> </text><text xml:space="preserve" font-family="Georgia,Georgia" font-size="27.0" fill="#000000" transform="matrix(1.00, 0.00, -0.00, -1.00, 60.0, 125.2)">•</text><text xml:space="preserve" font-family="Georgia,Georgia" font-size="36.0" fill="#000000" transform="matrix(1.00, 0.00, -0.00, -1.00, 95.0, 122.2)">Y</text><text xml:space="preserve" font-family="Georgia,Georgia" font-size="36.0" fill="#000000" transform="matrix(1.00, 0.00, -0.00, -1.00, 117.2, 122.2)">k</text><text xml:space="preserve" font-family="Georgia,Georgia" font-size="36.0" fill="#000000" transform="matrix(1.00, 0.00, -0.00, -1.00, 136.4, 122.2)">s</text><text xml:space="preserve" font-family="Georgia,Georgia" font-size="36.0" fill="#000000" transform="matrix(1.00, 0.00, -0.00, -1.00, 152.0, 122.2)">i</text><text xml:space="preserve" font-family="Georgia,Georgia" font-size="36.0" fill="#000000" transform="matrix(1.00, 0.00, -0.00, -1.00, 162.5, 122.2)">k</text><text xml:space="preserve" font-family="Georgia,Georgia" font-size="36.0" fill="#000000" transform="matrix(1.00, 0.00, -0.00, -1.00, 181.8, 122.2)">ö</text><text xml:space="preserve" font-family="Georgia,Georgia" font-size="36.0" fill="#000000" transform="matrix(1.00, 0.00, -0.00, -1.00, 201.2, 122.2)">l</text><text xml:space="preserve" font-family="Georgia,Georgia" font-size="36.0" fill="#000000" transform="matrix(1.00, 0.00, -0.00, -1.00, 211.5, 122.2)">l</text><text xml:space="preserve" font-family="Georgia,Georgia" font-size="36.0" fill="#000000" transform="matrix(1.00, 0.00, -0.00, -1.00, 221.8, 122.2)">e</text><text xml:space="preserve" font-family="Georgia,Georgia" font-size="36.0" fill="#000000" transform="matrix(1.00, 0.00, -0.00, -1.00, 239.2, 122.2)"> </text><text xml:space="preserve" font-family="Georgia,Georgia" font-size="36.0" fill="#000000" transform="matrix(1.00, 0.00, -0.00, -1.00, 247.9, 122.2)">o</text><text xml:space="preserve" font-family="Georgia,Georgia" font-size="36.0" fill="#000000" transform="matrix(1.00, 0.00, -0.00, -1.00, 267.3, 122.2)">n</text><text xml:space="preserve" font-family="Georgia,Georgia" font-size="36.0" fill="#000000" transform="matrix(1.00, 0.00, -0.00, -1.00, 288.6, 122.2)"> </text><text xml:space="preserve" font-family="Georgia,Georgia" font-size="36.0" fill="#000000" transform="matrix(1.00, 0.00, -0.00, -1.00, 297.3, 122.2)">a</text><text xml:space="preserve" font-family="Georgia,Georgia" font-size="36.0" fill="#000000" transform="matrix(1.00, 0.00, -0.00, -1.00, 315.4, 122.2)">n</text><text xml:space="preserve" font-family="Georgia,Georgia" font-size="36.0" fill="#000000" transform="matrix(1.00, 0.00, -0.00, -1.00, 336.7, 122.2)">n</text><text xml:space="preserve" font-family="Georgia,Georgia" font-size="36.0" fill="#000000" transform="matrix(1.00, 0.00, -0.00, -1.00, 358.0, 122.2)">e</text><text xml:space="preserve" font-family="Georgia,Georgia" font-size="36.0" fill="#000000" transform="matrix(1.00, 0.00, -0.00, -1.00, 375.4, 122.2)">t</text><text xml:space="preserve" font-family="Georgia,Georgia" font-size="36.0" fill="#000000" transform="matrix(1.00, 0.00, -0.00, -1.00, 387.8, 122.2)">t</text><text xml:space="preserve" font-family="Georgia,Georgia" font-size="36.0" fill="#000000" transform="matrix(1.00, 0.00, -0.00, -1.00, 400.2, 122.2)">u</text><text xml:space="preserve" font-family="Georgia,Georgia" font-size="36.0" fill="#000000" transform="matrix(1.00, 0.00, -0.00, -1.00, 421.0, 122.2)"> </text><text xml:space="preserve" font-family="Georgia,Georgia" font-size="36.0" fill="#000000" transform="matrix(1.00, 0.00, -0.00, -1.00, 429.6, 122.2)">n</text><text xml:space="preserve" font-family="Georgia,Georgia" font-size="36.0" fill="#000000" transform="matrix(1.00, 0.00, -0.00, -1.00, 450.9, 122.2)">i</text><text xml:space="preserve" font-family="Georgia,Georgia" font-size="36.0" fill="#000000" transform="matrix(1.00, 0.00, -0.00, -1.00, 461.5, 122.2)">m</text><text xml:space="preserve" font-family="Georgia,Georgia" font-size="36.0" fill="#000000" transform="matrix(1.00, 0.00, -0.00, -1.00, 493.2, 122.2)">i</text><text xml:space="preserve" font-family="Georgia,Georgia" font-size="36.0" fill="#000000" transform="matrix(1.00, 0.00, -0.00, -1.00, 503.7, 122.2)"> </text><text xml:space="preserve" font-family="Georgia,Georgia" font-size="36.0" fill="#000000" transform="matrix(1.00, 0.00, -0.00, -1.00, 512.4, 122.2)">P</text><text xml:space="preserve" font-family="Georgia,Georgia" font-size="36.0" fill="#000000" transform="matrix(1.00, 0.00, -0.00, -1.00, 534.3, 122.2)">a</text><text xml:space="preserve" font-family="Georgia,Georgia" font-size="36.0" fill="#000000" transform="matrix(1.00, 0.00, -0.00, -1.00, 552.5, 122.2)">s</text><text xml:space="preserve" font-family="Georgia,Georgia" font-size="36.0" fill="#000000" transform="matrix(1.00, 0.00, -0.00, -1.00, 568.0, 122.2)">c</text><text xml:space="preserve" font-family="Georgia,Georgia" font-size="36.0" fill="#000000" transform="matrix(1.00, 0.00, -0.00, -1.00, 584.4, 122.2)">a</text><text xml:space="preserve" font-family="Georgia,Georgia" font-size="36.0" fill="#000000" transform="matrix(1.00, 0.00, -0.00, -1.00, 602.5, 122.2)">l</text><text xml:space="preserve" font-family="LucidaGrande,Lucida Grande" font-size="36.0" fill="#000000" transform="matrix(1.00, 0.00, -0.00, -1.00, 612.8, 122.2)"> </text><text xml:space="preserve" font-family="Georgia,Georgia" font-size="26.0" fill="#000000" transform="matrix(1.00, 0.00, -0.00, -1.00, 95.0, 90.0)">(</text><text xml:space="preserve" font-family="Georgia,Georgia" font-size="26.0" fill="#000000" transform="matrix(1.00, 0.00, -0.00, -1.00, 104.8, 90.0)">B</text><text xml:space="preserve" font-family="Georgia,Georgia" font-size="26.0" fill="#000000" transform="matrix(1.00, 0.00, -0.00, -1.00, 121.7, 90.0)">l</text><text xml:space="preserve" font-family="Georgia,Georgia" font-size="26.0" fill="#000000" transform="matrix(1.00, 0.00, -0.00, -1.00, 129.2, 90.0)">a</text><text xml:space="preserve" font-family="Georgia,Georgia" font-size="26.0" fill="#000000" transform="matrix(1.00, 0.00, -0.00, -1.00, 142.3, 90.0)">i</text><text xml:space="preserve" font-family="Georgia,Georgia" font-size="26.0" fill="#000000" transform="matrix(1.00, 0.00, -0.00, -1.00, 149.9, 90.0)">s</text><text xml:space="preserve" font-family="Georgia,Georgia" font-size="26.0" fill="#000000" transform="matrix(1.00, 0.00, -0.00, -1.00, 161.1, 90.0)">e</text><text xml:space="preserve" font-family="Georgia,Georgia" font-size="26.0" fill="#000000" transform="matrix(1.00, 0.00, -0.00, -1.00, 173.7, 90.0)"> </text><text xml:space="preserve" font-family="Georgia,Georgia" font-size="26.0" fill="#000000" transform="matrix(1.00, 0.00, -0.00, -1.00, 180.0, 90.0)">P</text><text xml:space="preserve" font-family="Georgia,Georgia" font-size="26.0" fill="#000000" transform="matrix(1.00, 0.00, -0.00, -1.00, 195.8, 90.0)">a</text><text xml:space="preserve" font-family="Georgia,Georgia" font-size="26.0" fill="#000000" transform="matrix(1.00, 0.00, -0.00, -1.00, 208.9, 90.0)">s</text><text xml:space="preserve" font-family="Georgia,Georgia" font-size="26.0" fill="#000000" transform="matrix(1.00, 0.00, -0.00, -1.00, 220.2, 90.0)">c</text><text xml:space="preserve" font-family="Georgia,Georgia" font-size="26.0" fill="#000000" transform="matrix(1.00, 0.00, -0.00, -1.00, 232.0, 90.0)">a</text><text xml:space="preserve" font-family="Georgia,Georgia" font-size="26.0" fill="#000000" transform="matrix(1.00, 0.00, -0.00, -1.00, 245.1, 90.0)">l</text><text xml:space="preserve" font-family="Georgia,Georgia" font-size="26.0" fill="#000000" transform="matrix(1.00, 0.00, -0.00, -1.00, 252.5, 90.0)">,</text><text xml:space="preserve" font-family="Georgia,Georgia" font-size="26.0" fill="#000000" transform="matrix(1.00, 0.00, -0.00, -1.00, 259.5, 90.0)"> </text><text xml:space="preserve" font-family="Georgia,Georgia" font-size="26.0" fill="#000000" transform="matrix(1.00, 0.00, -0.00, -1.00, 265.8, 90.0)">1</text><text xml:space="preserve" font-family="Georgia,Georgia" font-size="26.0" fill="#000000" transform="matrix(1.00, 0.00, -0.00, -1.00, 277.0, 90.0)">6</text><text xml:space="preserve" font-family="Georgia,Georgia" font-size="26.0" fill="#000000" transform="matrix(1.00, 0.00, -0.00, -1.00, 291.7, 90.0)">2</text><text xml:space="preserve" font-family="Georgia,Georgia" font-size="26.0" fill="#000000" transform="matrix(1.00, 0.00, -0.00, -1.00, 306.2, 90.0)">3</text><text xml:space="preserve" font-family="Georgia,Georgia" font-size="26.0" fill="#000000" transform="matrix(1.00, 0.00, -0.00, -1.00, 320.5, 90.0)"> </text><text xml:space="preserve" font-family="Georgia,Georgia" font-size="26.0" fill="#000000" transform="matrix(1.00, 0.00, -0.00, -1.00, 326.8, 90.0)">-</text><text xml:space="preserve" font-family="Georgia,Georgia" font-size="26.0" fill="#000000" transform="matrix(1.00, 0.00, -0.00, -1.00, 336.5, 90.0)"> </text><text xml:space="preserve" font-family="Georgia,Georgia" font-size="26.0" fill="#000000" transform="matrix(1.00, 0.00, -0.00, -1.00, 342.8, 90.0)">1</text><text xml:space="preserve" font-family="Georgia,Georgia" font-size="26.0" fill="#000000" transform="matrix(1.00, 0.00, -0.00, -1.00, 354.0, 90.0)">6</text><text xml:space="preserve" font-family="Georgia,Georgia" font-size="26.0" fill="#000000" transform="matrix(1.00, 0.00, -0.00, -1.00, 368.7, 90.0)">6</text><text xml:space="preserve" font-family="Georgia,Georgia" font-size="26.0" fill="#000000" transform="matrix(1.00, 0.00, -0.00, -1.00, 383.4, 90.0)">2</text><text xml:space="preserve" font-family="Georgia,Georgia" font-size="26.0" fill="#000000" transform="matrix(1.00, 0.00, -0.00, -1.00, 397.9, 90.0)">)</text><g><clipPath id="clip0x7fc91c3b4e10"><path d="M 512.4 154.2 L 548.0 154.2 L 548.0 210.7 L 512.4 210.7 Z M 512.4 154.2 "></path></clipPath><g clip-path="url(#clip0x7fc91c3b4e10)"><g><clipPath id="clip0x7fc91c3b5570"><path d="M 511.7 154.2 L 548.0 154.2 L 548.0 210.7 L 511.7 210.7 Z M 511.7 154.2 "></path></clipPath><g clip-path="url(#clip0x7fc91c3b5570)"><path d="M 538.0 207.4 C 538.3 208.5 538.8 209.4 540.9 209.4 C 541.1 209.4 541.4 209.5 541.4 210.0 C 541.4 210.0 541.4 210.3 541.0 210.3 C 540.2 210.3 539.2 210.2 538.3 210.2 C 537.4 210.2 536.5 210.3 535.6 210.3 C 535.5 210.3 535.1 210.3 535.1 209.7 C 535.1 209.4 535.4 209.4 535.6 209.4 C 537.1 209.4 537.4 208.9 537.4 208.3 C 537.4 208.2 537.4 207.8 537.4 207.7 L 534.4 195.6 L 528.5 209.8 C 528.3 210.3 528.3 210.3 527.6 210.3 L 524.1 210.3 C 523.5 210.3 523.3 210.3 523.3 209.7 C 523.3 209.4 523.5 209.4 524.1 209.4 C 524.2 209.4 525.9 209.4 525.9 209.2 L 522.3 194.7 C 522.0 193.6 521.6 192.7 519.4 192.7 C 519.3 192.7 519.0 192.6 519.0 192.1 C 519.0 191.9 519.1 191.8 519.3 191.8 C 520.2 191.8 521.1 191.9 522.0 191.9 C 522.9 191.9 523.8 191.8 524.7 191.8 C 524.8 191.8 525.2 191.8 525.2 192.4 C 525.2 192.6 525.0 192.7 524.7 192.7 C 523.1 192.7 522.9 193.3 522.9 193.8 C 522.9 194.0 522.9 194.2 523.0 194.5 L 526.5 208.7 C 526.6 208.6 526.6 208.5 526.8 208.3 L 533.4 192.3 C 533.6 191.9 533.7 191.8 533.9 191.8 C 534.2 191.8 534.2 191.9 534.3 192.4 L 538.0 207.4 " fill="#000000"></path><path d="M 0.7 5.8 L 7.7 5.8 " fill="none" stroke="#000000" stroke-width="0.21" transform="matrix(5.05, 0.00, 0.00, 5.13, 508.7, 150.5)"></path><path d="M 514.8 156.6 C 514.7 156.2 514.5 155.6 514.5 155.4 C 514.5 154.9 514.9 154.7 515.3 154.7 C 515.6 154.7 516.1 154.9 516.3 155.5 C 516.3 155.5 516.6 156.8 516.8 157.5 L 517.4 159.9 C 517.6 160.5 517.7 161.1 517.9 161.7 C 518.0 162.2 518.2 162.9 518.2 163.0 C 518.6 163.9 520.0 166.4 522.5 166.4 C 523.7 166.4 524.0 165.4 524.0 164.5 C 524.0 163.8 523.8 163.0 523.6 162.2 L 522.8 159.1 L 522.3 157.0 C 522.2 156.5 521.9 155.6 521.9 155.4 C 521.9 154.9 522.3 154.7 522.7 154.7 C 523.5 154.7 523.7 155.4 523.9 156.2 C 524.3 157.8 525.3 161.7 525.5 162.7 C 525.6 163.1 527.0 166.4 529.9 166.4 C 531.1 166.4 531.3 165.4 531.3 164.5 C 531.3 162.9 530.2 159.8 529.7 158.4 C 529.5 157.8 529.3 157.5 529.3 156.9 C 529.3 155.7 530.3 154.7 531.5 154.7 C 534.0 154.7 535.0 158.6 535.0 158.9 C 535.0 159.1 534.8 159.1 534.7 159.1 C 534.4 159.1 534.4 159.1 534.3 158.6 C 533.9 157.2 533.1 155.3 531.6 155.3 C 531.1 155.3 530.9 155.6 530.9 156.2 C 530.9 156.9 531.2 157.5 531.4 158.1 C 531.9 159.5 533.1 162.5 533.1 164.1 C 533.1 165.8 532.0 166.9 530.0 166.9 C 528.0 166.9 526.6 165.8 525.6 164.3 C 525.6 164.7 525.5 165.6 524.8 166.2 C 524.1 166.8 523.3 166.9 522.6 166.9 C 520.2 166.9 518.9 165.2 518.5 164.6 C 518.3 166.1 517.2 166.9 516.0 166.9 C 514.8 166.9 514.3 165.9 514.0 165.4 C 513.5 164.5 513.2 162.9 513.2 162.8 C 513.2 162.5 513.5 162.5 513.5 162.5 C 513.8 162.5 513.8 162.5 514.0 163.1 C 514.4 165.1 515.0 166.4 515.9 166.4 C 516.4 166.4 516.7 166.1 516.7 165.1 C 516.7 164.5 516.7 164.3 516.3 162.8 L 514.8 156.6 " fill="#000000"></path><path d="M 545.2 166.3 L 544.5 166.3 C 544.5 165.9 544.3 164.7 544.1 164.6 C 543.9 164.4 542.5 164.4 542.2 164.4 L 538.8 164.4 C 540.8 166.2 541.4 166.7 542.5 167.6 C 543.9 168.7 545.2 169.9 545.2 171.7 C 545.2 174.0 543.2 175.4 540.8 175.4 C 538.5 175.4 537.0 173.7 537.0 172.0 C 537.0 171.0 537.8 170.9 537.9 170.9 C 538.4 170.9 538.9 171.2 538.9 171.9 C 538.9 172.3 538.8 172.9 537.8 172.9 C 538.4 174.3 539.7 174.7 540.6 174.7 C 542.4 174.7 543.4 173.2 543.4 171.7 C 543.4 170.0 542.2 168.7 541.6 168.1 L 537.1 163.6 C 537.0 163.4 537.0 163.3 537.0 162.8 L 544.6 162.8 L 545.2 166.3 " fill="#000000"></path></g></g></g></g><g><clipPath id="clip0x7fc9227a1510"><path d="M 686.3 82.2 L 870.1 82.2 L 870.1 151.0 L 686.3 151.0 Z M 686.3 82.2 "></path></clipPath><g clip-path="url(#clip0x7fc9227a1510)"><g><clipPath id="clip0x7fc9227a1c40"><path d="M 686.3 82.2 L 870.1 82.2 L 870.1 151.0 L 686.3 151.0 Z M 686.3 82.2 "></path></clipPath><g clip-path="url(#clip0x7fc9227a1c40)"><path d="M 693.7 126.7 C 693.7 127.6 693.7 127.6 693.0 127.6 C 690.9 125.5 688.1 125.5 687.0 125.5 L 687.0 124.5 C 687.7 124.5 689.6 124.5 691.3 125.3 L 691.3 108.3 C 691.3 107.1 691.2 106.7 688.3 106.7 L 687.2 106.7 L 687.2 105.7 C 688.4 105.8 691.2 105.8 692.5 105.8 C 693.8 105.8 696.7 105.8 697.9 105.7 L 697.9 106.7 L 696.8 106.7 C 693.8 106.7 693.7 107.1 693.7 108.3 L 693.7 126.7 " fill="#000000"></path><path d="M 719.6 116.1 L 725.1 116.1 C 729.8 116.1 734.4 119.5 734.4 123.2 C 734.4 125.7 732.2 128.2 727.9 128.2 L 717.3 128.2 C 716.6 128.2 716.3 128.2 716.3 127.6 C 716.3 127.2 716.6 127.2 717.2 127.2 C 717.7 127.2 718.2 127.1 718.6 127.1 C 719.2 127.0 719.4 126.9 719.4 126.6 C 719.4 126.4 719.3 126.3 719.2 125.9 L 714.8 108.2 C 714.5 107.0 714.4 106.7 711.8 106.7 C 711.3 106.7 710.9 106.7 710.9 106.0 C 710.9 105.7 711.3 105.7 711.4 105.7 C 712.3 105.7 714.7 105.8 715.6 105.8 C 716.3 105.8 717.0 105.7 717.7 105.7 C 718.4 105.7 719.2 105.7 719.8 105.7 C 720.1 105.7 720.5 105.7 720.5 106.3 C 720.5 106.7 720.2 106.7 719.6 106.7 C 718.3 106.7 717.4 106.7 717.4 107.3 C 717.4 107.5 717.5 107.6 717.5 107.8 L 719.6 116.1 Z M 721.9 125.9 C 722.2 127.1 722.3 127.2 723.7 127.2 L 726.9 127.2 C 729.6 127.2 731.3 126.3 731.3 124.0 C 731.3 122.7 730.7 119.9 729.4 118.7 C 727.7 117.2 725.8 116.9 724.3 116.9 L 719.7 116.9 L 721.9 125.9 " fill="#000000"></path><path d="M 747.5 118.1 C 746.9 119.3 745.9 120.2 744.5 120.2 C 740.6 120.2 736.5 115.4 736.5 110.6 C 736.5 107.5 738.3 105.3 740.9 105.3 C 741.6 105.3 743.2 105.4 745.2 107.8 C 745.4 106.4 746.6 105.3 748.2 105.3 C 749.3 105.3 750.1 106.0 750.6 107.1 C 751.2 108.3 751.6 110.3 751.6 110.4 C 751.6 110.7 751.3 110.7 751.2 110.7 C 750.9 110.7 750.8 110.6 750.7 110.1 C 750.2 108.0 749.6 106.0 748.2 106.0 C 747.4 106.0 747.3 106.9 747.3 107.5 C 747.3 108.3 747.3 108.5 747.7 110.0 C 748.0 111.4 748.1 111.7 748.4 112.9 L 749.6 117.6 C 749.8 118.5 749.8 118.6 749.8 118.7 C 749.8 119.2 749.4 119.6 748.9 119.6 C 748.1 119.6 747.6 118.9 747.5 118.1 Z M 745.3 109.6 C 745.2 109.0 745.2 108.9 744.7 108.4 C 743.2 106.6 741.9 106.0 741.0 106.0 C 739.3 106.0 738.9 107.8 738.9 109.1 C 738.9 110.8 739.9 114.8 740.7 116.3 C 741.7 118.3 743.2 119.5 744.5 119.5 C 746.6 119.5 747.1 116.8 747.1 116.6 C 747.1 116.4 747.0 116.2 747.0 116.0 L 745.3 109.6 " fill="#000000"></path><path d="M 784.2 116.4 C 784.7 116.4 785.3 116.4 785.3 117.1 C 785.3 117.8 784.7 117.8 784.3 117.8 L 764.6 117.8 C 764.1 117.8 763.5 117.8 763.5 117.1 C 763.5 116.4 764.1 116.4 764.6 116.4 L 784.2 116.4 Z M 784.3 110.1 C 784.7 110.1 785.3 110.1 785.3 110.7 C 785.3 111.4 784.7 111.4 784.2 111.4 L 764.6 111.4 C 764.1 111.4 763.5 111.4 763.5 110.7 C 763.5 110.1 764.1 110.1 764.6 110.1 L 784.3 110.1 " fill="#000000"></path><path d="M 806.0 126.7 C 806.0 127.6 806.0 127.6 805.2 127.6 C 803.2 125.5 800.3 125.5 799.3 125.5 L 799.3 124.5 C 799.9 124.5 801.8 124.5 803.5 125.3 L 803.5 108.3 C 803.5 107.1 803.4 106.7 800.5 106.7 L 799.5 106.7 L 799.5 105.7 C 800.6 105.8 803.4 105.8 804.8 105.8 C 806.1 105.8 809.0 105.8 810.1 105.7 L 810.1 106.7 L 809.0 106.7 C 806.1 106.7 806.0 107.1 806.0 108.3 L 806.0 126.7 " fill="#000000"></path><path d="M 857.4 147.0 C 857.7 148.3 858.3 149.3 860.9 149.4 C 861.1 149.4 861.5 149.5 861.5 150.1 C 861.5 150.2 861.5 150.5 861.1 150.5 C 860.0 150.5 858.8 150.4 857.7 150.4 C 856.6 150.4 855.5 150.5 854.4 150.5 C 854.2 150.5 853.8 150.5 853.8 149.8 C 853.8 149.4 854.1 149.4 854.4 149.4 C 856.3 149.4 856.6 148.7 856.6 148.0 C 856.6 147.9 856.6 147.4 856.5 147.3 L 852.8 132.6 L 845.6 149.8 C 845.3 150.4 845.3 150.5 844.5 150.5 L 840.1 150.5 C 839.5 150.5 839.2 150.5 839.2 149.8 C 839.2 149.4 839.5 149.4 840.1 149.4 C 840.3 149.4 842.3 149.4 842.3 149.2 L 837.9 131.5 C 837.6 130.1 837.1 129.1 834.4 129.0 C 834.2 129.0 833.8 128.9 833.8 128.3 C 833.8 128.1 834.0 128.0 834.3 128.0 C 835.3 128.0 836.4 128.1 837.5 128.1 C 838.7 128.1 839.8 128.0 840.9 128.0 C 841.1 128.0 841.5 128.0 841.5 128.6 C 841.5 128.9 841.2 129.0 840.9 129.0 C 839.0 129.0 838.7 129.8 838.7 130.4 C 838.7 130.7 838.7 130.8 838.8 131.2 L 843.2 148.6 C 843.3 148.4 843.3 148.3 843.5 148.0 L 851.6 128.6 C 851.9 128.0 852.0 128.0 852.3 128.0 C 852.6 128.0 852.6 128.1 852.8 128.7 L 857.4 147.0 " fill="#000000"></path><path d="M 23.1 5.8 L 30.1 5.8 " fill="none" stroke="#000000" stroke-width="0.21" transform="matrix(6.24, 0.00, 0.00, 6.26, 681.7, 77.6)"></path><path d="M 828.7 85.0 C 828.6 84.5 828.4 83.8 828.4 83.6 C 828.4 83.0 828.8 82.7 829.3 82.7 C 829.7 82.7 830.3 83.0 830.6 83.6 C 830.6 83.7 831.0 85.3 831.2 86.1 L 831.9 89.0 C 832.1 89.8 832.3 90.5 832.5 91.3 C 832.6 91.8 832.8 92.8 832.9 92.9 C 833.4 93.9 835.1 96.9 838.2 96.9 C 839.7 96.9 840.0 95.7 840.0 94.6 C 840.0 93.8 839.8 92.9 839.5 91.9 L 838.6 88.1 L 837.9 85.5 C 837.8 84.9 837.5 83.8 837.5 83.6 C 837.5 83.0 838.0 82.7 838.5 82.7 C 839.5 82.7 839.7 83.5 839.9 84.6 C 840.4 86.5 841.6 91.3 841.9 92.5 C 842.0 93.0 843.8 96.9 847.3 96.9 C 848.7 96.9 849.1 95.8 849.1 94.6 C 849.1 92.8 847.7 89.0 847.1 87.2 C 846.8 86.5 846.6 86.1 846.6 85.4 C 846.6 83.9 847.8 82.7 849.3 82.7 C 852.4 82.7 853.6 87.5 853.6 87.8 C 853.6 88.1 853.4 88.1 853.3 88.1 C 852.9 88.1 852.9 88.0 852.7 87.5 C 852.3 85.8 851.2 83.4 849.4 83.4 C 848.8 83.4 848.6 83.8 848.6 84.5 C 848.6 85.4 848.9 86.2 849.2 86.9 C 849.8 88.6 851.2 92.2 851.2 94.1 C 851.2 96.3 849.9 97.6 847.4 97.6 C 845.0 97.6 843.3 96.2 842.1 94.5 C 842.0 94.9 842.0 96.0 841.0 96.8 C 840.2 97.5 839.2 97.6 838.3 97.6 C 835.4 97.6 833.8 95.5 833.2 94.8 C 833.0 96.7 831.7 97.6 830.2 97.6 C 828.7 97.6 828.0 96.4 827.8 95.8 C 827.2 94.6 826.7 92.7 826.7 92.6 C 826.7 92.2 827.1 92.2 827.1 92.2 C 827.5 92.2 827.5 92.3 827.7 93.0 C 828.2 95.3 828.9 96.9 830.1 96.9 C 830.6 96.9 831.1 96.7 831.1 95.4 C 831.1 94.7 831.0 94.4 830.6 92.6 L 828.7 85.0 " fill="#000000"></path><path d="M 866.2 96.8 L 865.4 96.8 C 865.3 96.3 865.1 95.0 864.8 94.7 C 864.6 94.6 862.9 94.6 862.5 94.6 L 858.3 94.6 C 860.7 96.7 861.5 97.4 862.9 98.5 C 864.6 99.8 866.2 101.2 866.2 103.4 C 866.2 106.2 863.7 107.9 860.8 107.9 C 858.0 107.9 856.0 105.9 856.0 103.8 C 856.0 102.6 857.0 102.5 857.2 102.5 C 857.8 102.5 858.5 102.9 858.5 103.7 C 858.5 104.1 858.3 104.9 857.1 104.9 C 857.8 106.6 859.4 107.1 860.5 107.1 C 862.8 107.1 863.9 105.3 863.9 103.4 C 863.9 101.4 862.5 99.8 861.8 99.0 L 856.3 93.5 C 856.0 93.3 856.0 93.3 856.0 92.6 L 865.5 92.6 L 866.2 96.8 " fill="#000000"></path></g></g></g></g></g></svg>