<?xml version="1.0" encoding="UTF-8" standalone="no"?><svg xmlns="http://www.w3.org/2000/svg" xmlns:xlink="http://www.w3.org/1999/xlink" clip-rule="evenodd" stroke-miterlimit="10" viewBox="0 0 1024 768"><desc>SVG generated by Keynote</desc><defs></defs><g transform="matrix(1.00, 0.00, -0.00, -1.00, 0.0, 768.0)"><path d="M 0.0 768.0 L 1024.0 768.0 L 1024.0 0.0 L 0.0 0.0 Z M 0.0 768.0 " fill="#FEFFFF"></path><text xml:space="preserve" font-family="Georgia,Georgia" font-size="80.0" fill="#000000" transform="matrix(1.00, 0.00, -0.00, -1.00, 335.6, 619.5)">L</text><text xml:space="preserve" font-family="Georgia,Georgia" font-size="80.0" fill="#000000" transform="matrix(1.00, 0.00, -0.00, -1.00, 383.8, 619.5)">e</text><text xml:space="preserve" font-family="Georgia,Georgia" font-size="80.0" fill="#000000" transform="matrix(1.00, 0.00, -0.00, -1.00, 422.5, 619.5)">p</text><text xml:space="preserve" font-family="Georgia,Georgia" font-size="80.0" fill="#000000" transform="matrix(1.00, 0.00, -0.00, -1.00, 468.2, 619.5)">o</text><text xml:space="preserve" font-family="Georgia,Georgia" font-size="80.0" fill="#000000" transform="matrix(1.00, 0.00, -0.00, -1.00, 511.4, 619.5)">k</text><text xml:space="preserve" font-family="Georgia,Georgia" font-size="80.0" fill="#000000" transform="matrix(1.00, 0.00, -0.00, -1.00, 554.2, 619.5)">i</text><text xml:space="preserve" font-family="Georgia,Georgia" font-size="80.0" fill="#000000" transform="matrix(1.00, 0.00, -0.00, -1.00, 577.6, 619.5)">t</text><text xml:space="preserve" font-family="Georgia,Georgia" font-size="80.0" fill="#000000" transform="matrix(1.00, 0.00, -0.00, -1.00, 605.3, 619.5)">k</text><text xml:space="preserve" font-family="Georgia,Georgia" font-size="80.0" fill="#000000" transform="matrix(1.00, 0.00, -0.00, -1.00, 648.1, 619.5)">a</text><text xml:space="preserve" font-family="Georgia,Georgia" font-size="24.8" fill="#000000" transform="matrix(1.00, 0.00, -0.00, -1.00, 79.0, 442.9)">•</text><text xml:space="preserve" font-family="Georgia,Georgia" font-size="33.0" fill="#000000" transform="matrix(1.00, 0.00, -0.00, -1.00, 111.1, 440.2)">K</text><text xml:space="preserve" font-family="Georgia,Georgia" font-size="33.0" fill="#000000" transform="matrix(1.00, 0.00, -0.00, -1.00, 134.0, 440.2)">i</text><text xml:space="preserve" font-family="Georgia,Georgia" font-size="33.0" fill="#000000" transform="matrix(1.00, 0.00, -0.00, -1.00, 143.7, 440.2)">t</text><text xml:space="preserve" font-family="Georgia,Georgia" font-size="33.0" fill="#000000" transform="matrix(1.00, 0.00, -0.00, -1.00, 155.1, 440.2)">k</text><text xml:space="preserve" font-family="Georgia,Georgia" font-size="33.0" fill="#000000" transform="matrix(1.00, 0.00, -0.00, -1.00, 172.7, 440.2)">a</text><text xml:space="preserve" font-family="Georgia,Georgia" font-size="33.0" fill="#000000" transform="matrix(1.00, 0.00, -0.00, -1.00, 189.4, 440.2)">a</text><text xml:space="preserve" font-family="Georgia,Georgia" font-size="33.0" fill="#000000" transform="matrix(1.00, 0.00, -0.00, -1.00, 206.0, 440.2)"> </text><text xml:space="preserve" font-family="Georgia,Georgia" font-size="33.0" fill="#000000" transform="matrix(1.00, 0.00, -0.00, -1.00, 214.0, 440.2)">k</text><text xml:space="preserve" font-family="Georgia,Georgia" font-size="33.0" fill="#000000" transform="matrix(1.00, 0.00, -0.00, -1.00, 231.6, 440.2)">u</text><text xml:space="preserve" font-family="Georgia,Georgia" font-size="33.0" fill="#000000" transform="matrix(1.00, 0.00, -0.00, -1.00, 250.6, 440.2)">t</text><text xml:space="preserve" font-family="Georgia,Georgia" font-size="33.0" fill="#000000" transform="matrix(1.00, 0.00, -0.00, -1.00, 262.0, 440.2)">s</text><text xml:space="preserve" font-family="Georgia,Georgia" font-size="33.0" fill="#000000" transform="matrix(1.00, 0.00, -0.00, -1.00, 276.3, 440.2)">u</text><text xml:space="preserve" font-family="Georgia,Georgia" font-size="33.0" fill="#000000" transform="matrix(1.00, 0.00, -0.00, -1.00, 295.3, 440.2)">t</text><text xml:space="preserve" font-family="Georgia,Georgia" font-size="33.0" fill="#000000" transform="matrix(1.00, 0.00, -0.00, -1.00, 306.7, 440.2)">a</text><text xml:space="preserve" font-family="Georgia,Georgia" font-size="33.0" fill="#000000" transform="matrix(1.00, 0.00, -0.00, -1.00, 323.3, 440.2)">a</text><text xml:space="preserve" font-family="Georgia,Georgia" font-size="33.0" fill="#000000" transform="matrix(1.00, 0.00, -0.00, -1.00, 339.9, 440.2)">n</text><text xml:space="preserve" font-family="Georgia,Georgia" font-size="33.0" fill="#000000" transform="matrix(1.00, 0.00, -0.00, -1.00, 359.4, 440.2)"> </text><text xml:space="preserve" font-family="Georgia,Georgia" font-size="33.0" fill="#000000" transform="matrix(1.00, 0.00, -0.00, -1.00, 367.4, 440.2)">l</text><text xml:space="preserve" font-family="Georgia,Georgia" font-size="33.0" fill="#000000" transform="matrix(1.00, 0.00, -0.00, -1.00, 376.8, 440.2)">e</text><text xml:space="preserve" font-family="Georgia,Georgia" font-size="33.0" fill="#000000" transform="matrix(1.00, 0.00, -0.00, -1.00, 392.8, 440.2)">p</text><text xml:space="preserve" font-family="Georgia,Georgia" font-size="33.0" fill="#000000" transform="matrix(1.00, 0.00, -0.00, -1.00, 411.6, 440.2)">o</text><text xml:space="preserve" font-family="Georgia,Georgia" font-size="33.0" fill="#000000" transform="matrix(1.00, 0.00, -0.00, -1.00, 429.4, 440.2)">k</text><text xml:space="preserve" font-family="Georgia,Georgia" font-size="33.0" fill="#000000" transform="matrix(1.00, 0.00, -0.00, -1.00, 447.1, 440.2)">i</text><text xml:space="preserve" font-family="Georgia,Georgia" font-size="33.0" fill="#000000" transform="matrix(1.00, 0.00, -0.00, -1.00, 456.8, 440.2)">t</text><text xml:space="preserve" font-family="Georgia,Georgia" font-size="33.0" fill="#000000" transform="matrix(1.00, 0.00, -0.00, -1.00, 468.2, 440.2)">k</text><text xml:space="preserve" font-family="Georgia,Georgia" font-size="33.0" fill="#000000" transform="matrix(1.00, 0.00, -0.00, -1.00, 485.8, 440.2)">a</text><text xml:space="preserve" font-family="Georgia,Georgia" font-size="33.0" fill="#000000" transform="matrix(1.00, 0.00, -0.00, -1.00, 502.4, 440.2)">k</text><text xml:space="preserve" font-family="Georgia,Georgia" font-size="33.0" fill="#000000" transform="matrix(1.00, 0.00, -0.00, -1.00, 520.1, 440.2)">s</text><text xml:space="preserve" font-family="Georgia,Georgia" font-size="33.0" fill="#000000" transform="matrix(1.00, 0.00, -0.00, -1.00, 534.4, 440.2)">i</text><text xml:space="preserve" font-family="Georgia,Georgia" font-size="33.0" fill="#000000" transform="matrix(1.00, 0.00, -0.00, -1.00, 544.0, 440.2)">,</text><text xml:space="preserve" font-family="Georgia,Georgia" font-size="33.0" fill="#000000" transform="matrix(1.00, 0.00, -0.00, -1.00, 552.9, 440.2)"> </text><text xml:space="preserve" font-family="Georgia,Georgia" font-size="33.0" fill="#000000" transform="matrix(1.00, 0.00, -0.00, -1.00, 560.9, 440.2)">k</text><text xml:space="preserve" font-family="Georgia,Georgia" font-size="33.0" fill="#000000" transform="matrix(1.00, 0.00, -0.00, -1.00, 578.5, 440.2)">u</text><text xml:space="preserve" font-family="Georgia,Georgia" font-size="33.0" fill="#000000" transform="matrix(1.00, 0.00, -0.00, -1.00, 597.5, 440.2)">n</text><text xml:space="preserve" font-family="Georgia,Georgia" font-size="33.0" fill="#000000" transform="matrix(1.00, 0.00, -0.00, -1.00, 617.0, 440.2)"> </text><text xml:space="preserve" font-family="Georgia,Georgia" font-size="33.0" fill="#000000" transform="matrix(1.00, 0.00, -0.00, -1.00, 625.0, 440.2)">p</text><text xml:space="preserve" font-family="Georgia,Georgia" font-size="33.0" fill="#000000" transform="matrix(1.00, 0.00, -0.00, -1.00, 643.9, 440.2)">i</text><text xml:space="preserve" font-family="Georgia,Georgia" font-size="33.0" fill="#000000" transform="matrix(1.00, 0.00, -0.00, -1.00, 653.5, 440.2)">n</text><text xml:space="preserve" font-family="Georgia,Georgia" font-size="33.0" fill="#000000" transform="matrix(1.00, 0.00, -0.00, -1.00, 673.0, 440.2)">n</text><text xml:space="preserve" font-family="Georgia,Georgia" font-size="33.0" fill="#000000" transform="matrix(1.00, 0.00, -0.00, -1.00, 692.5, 440.2)">a</text><text xml:space="preserve" font-family="Georgia,Georgia" font-size="33.0" fill="#000000" transform="matrix(1.00, 0.00, -0.00, -1.00, 709.1, 440.2)">t</text><text xml:space="preserve" font-family="Georgia,Georgia" font-size="33.0" fill="#000000" transform="matrix(1.00, 0.00, -0.00, -1.00, 720.5, 440.2)"> </text><text xml:space="preserve" font-family="Georgia,Georgia" font-size="33.0" fill="#000000" transform="matrix(1.00, 0.00, -0.00, -1.00, 728.5, 440.2)">e</text><text xml:space="preserve" font-family="Georgia,Georgia" font-size="33.0" fill="#000000" transform="matrix(1.00, 0.00, -0.00, -1.00, 744.5, 440.2)">i</text><text xml:space="preserve" font-family="Georgia,Georgia" font-size="33.0" fill="#000000" transform="matrix(1.00, 0.00, -0.00, -1.00, 754.1, 440.2)">v</text><text xml:space="preserve" font-family="Georgia,Georgia" font-size="33.0" fill="#000000" transform="matrix(1.00, 0.00, -0.00, -1.00, 770.5, 440.2)">ä</text><text xml:space="preserve" font-family="Georgia,Georgia" font-size="33.0" fill="#000000" transform="matrix(1.00, 0.00, -0.00, -1.00, 787.1, 440.2)">t</text><text xml:space="preserve" font-family="Georgia,Georgia" font-size="33.0" fill="#000000" transform="matrix(1.00, 0.00, -0.00, -1.00, 798.5, 440.2)"> </text><text xml:space="preserve" font-family="Georgia,Georgia" font-size="33.0" fill="#000000" transform="matrix(1.00, 0.00, -0.00, -1.00, 806.5, 440.2)">l</text><text xml:space="preserve" font-family="Georgia,Georgia" font-size="33.0" fill="#000000" transform="matrix(1.00, 0.00, -0.00, -1.00, 815.9, 440.2)">i</text><text xml:space="preserve" font-family="Georgia,Georgia" font-size="33.0" fill="#000000" transform="matrix(1.00, 0.00, -0.00, -1.00, 825.6, 440.2)">u</text><text xml:space="preserve" font-family="Georgia,Georgia" font-size="33.0" fill="#000000" transform="matrix(1.00, 0.00, -0.00, -1.00, 844.6, 440.2)">’</text><text xml:space="preserve" font-family="Georgia,Georgia" font-size="33.0" fill="#000000" transform="matrix(1.00, 0.00, -0.00, -1.00, 852.1, 440.2)">u</text><text xml:space="preserve" font-family="Georgia,Georgia" font-size="33.0" fill="#000000" transform="matrix(1.00, 0.00, -0.00, -1.00, 871.0, 440.2)"> </text><text xml:space="preserve" font-family="Georgia,Georgia" font-size="33.0" fill="#000000" transform="matrix(1.00, 0.00, -0.00, -1.00, 111.1, 403.2)">t</text><text xml:space="preserve" font-family="Georgia,Georgia" font-size="33.0" fill="#000000" transform="matrix(1.00, 0.00, -0.00, -1.00, 122.5, 403.2)">o</text><text xml:space="preserve" font-family="Georgia,Georgia" font-size="33.0" fill="#000000" transform="matrix(1.00, 0.00, -0.00, -1.00, 140.3, 403.2)">i</text><text xml:space="preserve" font-family="Georgia,Georgia" font-size="33.0" fill="#000000" transform="matrix(1.00, 0.00, -0.00, -1.00, 149.9, 403.2)">s</text><text xml:space="preserve" font-family="Georgia,Georgia" font-size="33.0" fill="#000000" transform="matrix(1.00, 0.00, -0.00, -1.00, 164.2, 403.2)">t</text><text xml:space="preserve" font-family="Georgia,Georgia" font-size="33.0" fill="#000000" transform="matrix(1.00, 0.00, -0.00, -1.00, 175.6, 403.2)">e</text><text xml:space="preserve" font-family="Georgia,Georgia" font-size="33.0" fill="#000000" transform="matrix(1.00, 0.00, -0.00, -1.00, 191.6, 403.2)">n</text><text xml:space="preserve" font-family="Georgia,Georgia" font-size="33.0" fill="#000000" transform="matrix(1.00, 0.00, -0.00, -1.00, 211.1, 403.2)">s</text><text xml:space="preserve" font-family="Georgia,Georgia" font-size="33.0" fill="#000000" transform="matrix(1.00, 0.00, -0.00, -1.00, 225.3, 403.2)">a</text><text xml:space="preserve" font-family="Georgia,Georgia" font-size="33.0" fill="#000000" transform="matrix(1.00, 0.00, -0.00, -1.00, 241.9, 403.2)"> </text><text xml:space="preserve" font-family="Georgia,Georgia" font-size="33.0" fill="#000000" transform="matrix(1.00, 0.00, -0.00, -1.00, 249.9, 403.2)">s</text><text xml:space="preserve" font-family="Georgia,Georgia" font-size="33.0" fill="#000000" transform="matrix(1.00, 0.00, -0.00, -1.00, 264.2, 403.2)">u</text><text xml:space="preserve" font-family="Georgia,Georgia" font-size="33.0" fill="#000000" transform="matrix(1.00, 0.00, -0.00, -1.00, 283.2, 403.2)">h</text><text xml:space="preserve" font-family="Georgia,Georgia" font-size="33.0" fill="#000000" transform="matrix(1.00, 0.00, -0.00, -1.00, 302.4, 403.2)">t</text><text xml:space="preserve" font-family="Georgia,Georgia" font-size="33.0" fill="#000000" transform="matrix(1.00, 0.00, -0.00, -1.00, 313.8, 403.2)">e</text><text xml:space="preserve" font-family="Georgia,Georgia" font-size="33.0" fill="#000000" transform="matrix(1.00, 0.00, -0.00, -1.00, 329.7, 403.2)">e</text><text xml:space="preserve" font-family="Georgia,Georgia" font-size="33.0" fill="#000000" transform="matrix(1.00, 0.00, -0.00, -1.00, 345.7, 403.2)">n</text><text xml:space="preserve" font-family="Georgia,Georgia" font-size="33.0" fill="#000000" transform="matrix(1.00, 0.00, -0.00, -1.00, 365.2, 403.2)"> </text><text xml:space="preserve" font-family="Georgia,Georgia" font-size="24.8" fill="#000000" transform="matrix(1.00, 0.00, -0.00, -1.00, 79.0, 362.9)">•</text><text xml:space="preserve" font-family="Georgia,Georgia" font-size="33.0" fill="#000000" transform="matrix(1.00, 0.00, -0.00, -1.00, 111.1, 360.2)">L</text><text xml:space="preserve" font-family="Georgia,Georgia" font-size="33.0" fill="#000000" transform="matrix(1.00, 0.00, -0.00, -1.00, 131.0, 360.2)">e</text><text xml:space="preserve" font-family="Georgia,Georgia" font-size="33.0" fill="#000000" transform="matrix(1.00, 0.00, -0.00, -1.00, 146.9, 360.2)">p</text><text xml:space="preserve" font-family="Georgia,Georgia" font-size="33.0" fill="#000000" transform="matrix(1.00, 0.00, -0.00, -1.00, 165.8, 360.2)">o</text><text xml:space="preserve" font-family="Georgia,Georgia" font-size="33.0" fill="#000000" transform="matrix(1.00, 0.00, -0.00, -1.00, 183.6, 360.2)">k</text><text xml:space="preserve" font-family="Georgia,Georgia" font-size="33.0" fill="#000000" transform="matrix(1.00, 0.00, -0.00, -1.00, 201.3, 360.2)">i</text><text xml:space="preserve" font-family="Georgia,Georgia" font-size="33.0" fill="#000000" transform="matrix(1.00, 0.00, -0.00, -1.00, 210.9, 360.2)">t</text><text xml:space="preserve" font-family="Georgia,Georgia" font-size="33.0" fill="#000000" transform="matrix(1.00, 0.00, -0.00, -1.00, 222.3, 360.2)">k</text><text xml:space="preserve" font-family="Georgia,Georgia" font-size="33.0" fill="#000000" transform="matrix(1.00, 0.00, -0.00, -1.00, 240.0, 360.2)">a</text><text xml:space="preserve" font-family="Georgia,Georgia" font-size="33.0" fill="#000000" transform="matrix(1.00, 0.00, -0.00, -1.00, 256.6, 360.2)"> </text><text xml:space="preserve" font-family="Georgia,Georgia" font-size="33.0" fill="#000000" transform="matrix(1.00, 0.00, -0.00, -1.00, 264.6, 360.2)">v</text><text xml:space="preserve" font-family="Georgia,Georgia" font-size="33.0" fill="#000000" transform="matrix(1.00, 0.00, -0.00, -1.00, 281.0, 360.2)">a</text><text xml:space="preserve" font-family="Georgia,Georgia" font-size="33.0" fill="#000000" transform="matrix(1.00, 0.00, -0.00, -1.00, 297.6, 360.2)">s</text><text xml:space="preserve" font-family="Georgia,Georgia" font-size="33.0" fill="#000000" transform="matrix(1.00, 0.00, -0.00, -1.00, 311.9, 360.2)">t</text><text xml:space="preserve" font-family="Georgia,Georgia" font-size="33.0" fill="#000000" transform="matrix(1.00, 0.00, -0.00, -1.00, 323.2, 360.2)">u</text><text xml:space="preserve" font-family="Georgia,Georgia" font-size="33.0" fill="#000000" transform="matrix(1.00, 0.00, -0.00, -1.00, 342.2, 360.2)">s</text><text xml:space="preserve" font-family="Georgia,Georgia" font-size="33.0" fill="#000000" transform="matrix(1.00, 0.00, -0.00, -1.00, 356.5, 360.2)">t</text><text xml:space="preserve" font-family="Georgia,Georgia" font-size="33.0" fill="#000000" transform="matrix(1.00, 0.00, -0.00, -1.00, 367.9, 360.2)">a</text><text xml:space="preserve" font-family="Georgia,Georgia" font-size="33.0" fill="#000000" transform="matrix(1.00, 0.00, -0.00, -1.00, 384.5, 360.2)">a</text><text xml:space="preserve" font-family="Georgia,Georgia" font-size="33.0" fill="#000000" transform="matrix(1.00, 0.00, -0.00, -1.00, 401.2, 360.2)"> </text><text xml:space="preserve" font-family="Georgia,Georgia" font-size="33.0" fill="#000000" transform="matrix(1.00, 0.00, -0.00, -1.00, 409.1, 360.2)">k</text><text xml:space="preserve" font-family="Georgia,Georgia" font-size="33.0" fill="#000000" transform="matrix(1.00, 0.00, -0.00, -1.00, 426.8, 360.2)">a</text><text xml:space="preserve" font-family="Georgia,Georgia" font-size="33.0" fill="#000000" transform="matrix(1.00, 0.00, -0.00, -1.00, 443.4, 360.2)">p</text><text xml:space="preserve" font-family="Georgia,Georgia" font-size="33.0" fill="#000000" transform="matrix(1.00, 0.00, -0.00, -1.00, 462.3, 360.2)">p</text><text xml:space="preserve" font-family="Georgia,Georgia" font-size="33.0" fill="#000000" transform="matrix(1.00, 0.00, -0.00, -1.00, 481.1, 360.2)">a</text><text xml:space="preserve" font-family="Georgia,Georgia" font-size="33.0" fill="#000000" transform="matrix(1.00, 0.00, -0.00, -1.00, 497.8, 360.2)">l</text><text xml:space="preserve" font-family="Georgia,Georgia" font-size="33.0" fill="#000000" transform="matrix(1.00, 0.00, -0.00, -1.00, 507.2, 360.2)">e</text><text xml:space="preserve" font-family="Georgia,Georgia" font-size="33.0" fill="#000000" transform="matrix(1.00, 0.00, -0.00, -1.00, 523.2, 360.2)">e</text><text xml:space="preserve" font-family="Georgia,Georgia" font-size="33.0" fill="#000000" transform="matrix(1.00, 0.00, -0.00, -1.00, 539.1, 360.2)">n</text><text xml:space="preserve" font-family="Georgia,Georgia" font-size="33.0" fill="#000000" transform="matrix(1.00, 0.00, -0.00, -1.00, 558.6, 360.2)"> </text><text xml:space="preserve" font-family="Georgia,Georgia" font-size="33.0" fill="#000000" transform="matrix(1.00, 0.00, -0.00, -1.00, 566.6, 360.2)">l</text><text xml:space="preserve" font-family="Georgia,Georgia" font-size="33.0" fill="#000000" transform="matrix(1.00, 0.00, -0.00, -1.00, 576.0, 360.2)">i</text><text xml:space="preserve" font-family="Georgia,Georgia" font-size="33.0" fill="#000000" transform="matrix(1.00, 0.00, -0.00, -1.00, 585.7, 360.2)">i</text><text xml:space="preserve" font-family="Georgia,Georgia" font-size="33.0" fill="#000000" transform="matrix(1.00, 0.00, -0.00, -1.00, 595.4, 360.2)">k</text><text xml:space="preserve" font-family="Georgia,Georgia" font-size="33.0" fill="#000000" transform="matrix(1.00, 0.00, -0.00, -1.00, 613.0, 360.2)">k</text><text xml:space="preserve" font-family="Georgia,Georgia" font-size="33.0" fill="#000000" transform="matrix(1.00, 0.00, -0.00, -1.00, 630.7, 360.2)">e</text><text xml:space="preserve" font-family="Georgia,Georgia" font-size="33.0" fill="#000000" transform="matrix(1.00, 0.00, -0.00, -1.00, 646.7, 360.2)">e</text><text xml:space="preserve" font-family="Georgia,Georgia" font-size="33.0" fill="#000000" transform="matrix(1.00, 0.00, -0.00, -1.00, 662.6, 360.2)">l</text><text xml:space="preserve" font-family="Georgia,Georgia" font-size="33.0" fill="#000000" transform="matrix(1.00, 0.00, -0.00, -1.00, 672.1, 360.2)">l</text><text xml:space="preserve" font-family="Georgia,Georgia" font-size="33.0" fill="#000000" transform="matrix(1.00, 0.00, -0.00, -1.00, 681.5, 360.2)">e</text><text xml:space="preserve" font-family="Georgia,Georgia" font-size="33.0" fill="#000000" transform="matrix(1.00, 0.00, -0.00, -1.00, 697.5, 360.2)"> </text><text xml:space="preserve" font-family="Georgia,Georgia" font-size="33.0" fill="#000000" transform="matrix(1.00, 0.00, -0.00, -1.00, 705.5, 360.2)">l</text><text xml:space="preserve" font-family="Georgia,Georgia" font-size="33.0" fill="#000000" transform="matrix(1.00, 0.00, -0.00, -1.00, 714.9, 360.2)">ä</text><text xml:space="preserve" font-family="Georgia,Georgia" font-size="33.0" fill="#000000" transform="matrix(1.00, 0.00, -0.00, -1.00, 731.5, 360.2)">h</text><text xml:space="preserve" font-family="Georgia,Georgia" font-size="33.0" fill="#000000" transform="matrix(1.00, 0.00, -0.00, -1.00, 750.7, 360.2)">t</text><text xml:space="preserve" font-family="Georgia,Georgia" font-size="33.0" fill="#000000" transform="matrix(1.00, 0.00, -0.00, -1.00, 762.1, 360.2)">ö</text><text xml:space="preserve" font-family="Georgia,Georgia" font-size="33.0" fill="#000000" transform="matrix(1.00, 0.00, -0.00, -1.00, 779.9, 360.2)">ä</text><text xml:space="preserve" font-family="Georgia,Georgia" font-size="33.0" fill="#000000" transform="matrix(1.00, 0.00, -0.00, -1.00, 796.5, 360.2)"> </text><text xml:space="preserve" font-family="Georgia,Georgia" font-size="24.8" fill="#000000" transform="matrix(1.00, 0.00, -0.00, -1.00, 79.0, 319.9)">•</text><text xml:space="preserve" font-family="Georgia,Georgia" font-size="33.0" fill="#000000" transform="matrix(1.00, 0.00, -0.00, -1.00, 111.1, 317.2)">L</text><text xml:space="preserve" font-family="Georgia,Georgia" font-size="33.0" fill="#000000" transform="matrix(1.00, 0.00, -0.00, -1.00, 131.0, 317.2)">e</text><text xml:space="preserve" font-family="Georgia,Georgia" font-size="33.0" fill="#000000" transform="matrix(1.00, 0.00, -0.00, -1.00, 146.9, 317.2)">p</text><text xml:space="preserve" font-family="Georgia,Georgia" font-size="33.0" fill="#000000" transform="matrix(1.00, 0.00, -0.00, -1.00, 165.8, 317.2)">o</text><text xml:space="preserve" font-family="Georgia,Georgia" font-size="33.0" fill="#000000" transform="matrix(1.00, 0.00, -0.00, -1.00, 183.6, 317.2)">k</text><text xml:space="preserve" font-family="Georgia,Georgia" font-size="33.0" fill="#000000" transform="matrix(1.00, 0.00, -0.00, -1.00, 201.3, 317.2)">i</text><text xml:space="preserve" font-family="Georgia,Georgia" font-size="33.0" fill="#000000" transform="matrix(1.00, 0.00, -0.00, -1.00, 210.9, 317.2)">t</text><text xml:space="preserve" font-family="Georgia,Georgia" font-size="33.0" fill="#000000" transform="matrix(1.00, 0.00, -0.00, -1.00, 222.3, 317.2)">k</text><text xml:space="preserve" font-family="Georgia,Georgia" font-size="33.0" fill="#000000" transform="matrix(1.00, 0.00, -0.00, -1.00, 240.0, 317.2)">a</text><text xml:space="preserve" font-family="Georgia,Georgia" font-size="33.0" fill="#000000" transform="matrix(1.00, 0.00, -0.00, -1.00, 256.6, 317.2)"> </text><text xml:space="preserve" font-family="Georgia,Georgia" font-size="33.0" fill="#000000" transform="matrix(1.00, 0.00, -0.00, -1.00, 264.6, 317.2)">o</text><text xml:space="preserve" font-family="Georgia,Georgia" font-size="33.0" fill="#000000" transform="matrix(1.00, 0.00, -0.00, -1.00, 282.4, 317.2)">n</text><text xml:space="preserve" font-family="Georgia,Georgia" font-size="33.0" fill="#000000" transform="matrix(1.00, 0.00, -0.00, -1.00, 301.9, 317.2)"> </text><text xml:space="preserve" font-family="Georgia,Georgia" font-size="33.0" fill="#000000" transform="matrix(1.00, 0.00, -0.00, -1.00, 309.8, 317.2)">y</text><text xml:space="preserve" font-family="Georgia,Georgia" font-size="33.0" fill="#000000" transform="matrix(1.00, 0.00, -0.00, -1.00, 326.1, 317.2)">h</text><text xml:space="preserve" font-family="Georgia,Georgia" font-size="33.0" fill="#000000" transform="matrix(1.00, 0.00, -0.00, -1.00, 345.3, 317.2)">t</text><text xml:space="preserve" font-family="Georgia,Georgia" font-size="33.0" fill="#000000" transform="matrix(1.00, 0.00, -0.00, -1.00, 356.7, 317.2)">ä</text><text xml:space="preserve" font-family="Georgia,Georgia" font-size="33.0" fill="#000000" transform="matrix(1.00, 0.00, -0.00, -1.00, 373.3, 317.2)"> </text><text xml:space="preserve" font-family="Georgia,Georgia" font-size="33.0" fill="#000000" transform="matrix(1.00, 0.00, -0.00, -1.00, 381.3, 317.2)">s</text><text xml:space="preserve" font-family="Georgia,Georgia" font-size="33.0" fill="#000000" transform="matrix(1.00, 0.00, -0.00, -1.00, 395.5, 317.2)">u</text><text xml:space="preserve" font-family="Georgia,Georgia" font-size="33.0" fill="#000000" transform="matrix(1.00, 0.00, -0.00, -1.00, 414.5, 317.2)">u</text><text xml:space="preserve" font-family="Georgia,Georgia" font-size="33.0" fill="#000000" transform="matrix(1.00, 0.00, -0.00, -1.00, 433.5, 317.2)">r</text><text xml:space="preserve" font-family="Georgia,Georgia" font-size="33.0" fill="#000000" transform="matrix(1.00, 0.00, -0.00, -1.00, 447.0, 317.2)">i</text><text xml:space="preserve" font-family="Georgia,Georgia" font-size="33.0" fill="#000000" transform="matrix(1.00, 0.00, -0.00, -1.00, 456.7, 317.2)">,</text><text xml:space="preserve" font-family="Georgia,Georgia" font-size="33.0" fill="#000000" transform="matrix(1.00, 0.00, -0.00, -1.00, 465.6, 317.2)"> </text><text xml:space="preserve" font-family="Georgia,Georgia" font-size="33.0" fill="#000000" transform="matrix(1.00, 0.00, -0.00, -1.00, 473.5, 317.2)">k</text><text xml:space="preserve" font-family="Georgia,Georgia" font-size="33.0" fill="#000000" transform="matrix(1.00, 0.00, -0.00, -1.00, 491.2, 317.2)">u</text><text xml:space="preserve" font-family="Georgia,Georgia" font-size="33.0" fill="#000000" transform="matrix(1.00, 0.00, -0.00, -1.00, 510.2, 317.2)">i</text><text xml:space="preserve" font-family="Georgia,Georgia" font-size="33.0" fill="#000000" transform="matrix(1.00, 0.00, -0.00, -1.00, 519.9, 317.2)">n</text><text xml:space="preserve" font-family="Georgia,Georgia" font-size="33.0" fill="#000000" transform="matrix(1.00, 0.00, -0.00, -1.00, 539.4, 317.2)"> </text><text xml:space="preserve" font-family="Georgia,Georgia" font-size="33.0" fill="#000000" transform="matrix(1.00, 0.00, -0.00, -1.00, 547.3, 317.2)">k</text><text xml:space="preserve" font-family="Georgia,Georgia" font-size="33.0" fill="#000000" transform="matrix(1.00, 0.00, -0.00, -1.00, 565.0, 317.2)">a</text><text xml:space="preserve" font-family="Georgia,Georgia" font-size="33.0" fill="#000000" transform="matrix(1.00, 0.00, -0.00, -1.00, 581.6, 317.2)">p</text><text xml:space="preserve" font-family="Georgia,Georgia" font-size="33.0" fill="#000000" transform="matrix(1.00, 0.00, -0.00, -1.00, 600.5, 317.2)">p</text><text xml:space="preserve" font-family="Georgia,Georgia" font-size="33.0" fill="#000000" transform="matrix(1.00, 0.00, -0.00, -1.00, 619.3, 317.2)">a</text><text xml:space="preserve" font-family="Georgia,Georgia" font-size="33.0" fill="#000000" transform="matrix(1.00, 0.00, -0.00, -1.00, 636.0, 317.2)">l</text><text xml:space="preserve" font-family="Georgia,Georgia" font-size="33.0" fill="#000000" transform="matrix(1.00, 0.00, -0.00, -1.00, 645.4, 317.2)">e</text><text xml:space="preserve" font-family="Georgia,Georgia" font-size="33.0" fill="#000000" transform="matrix(1.00, 0.00, -0.00, -1.00, 661.4, 317.2)">t</text><text xml:space="preserve" font-family="Georgia,Georgia" font-size="33.0" fill="#000000" transform="matrix(1.00, 0.00, -0.00, -1.00, 672.8, 317.2)">t</text><text xml:space="preserve" font-family="Georgia,Georgia" font-size="33.0" fill="#000000" transform="matrix(1.00, 0.00, -0.00, -1.00, 684.2, 317.2)">a</text><text xml:space="preserve" font-family="Georgia,Georgia" font-size="33.0" fill="#000000" transform="matrix(1.00, 0.00, -0.00, -1.00, 700.8, 317.2)"> </text><text xml:space="preserve" font-family="Georgia,Georgia" font-size="33.0" fill="#000000" transform="matrix(1.00, 0.00, -0.00, -1.00, 708.8, 317.2)">l</text><text xml:space="preserve" font-family="Georgia,Georgia" font-size="33.0" fill="#000000" transform="matrix(1.00, 0.00, -0.00, -1.00, 718.2, 317.2)">i</text><text xml:space="preserve" font-family="Georgia,Georgia" font-size="33.0" fill="#000000" transform="matrix(1.00, 0.00, -0.00, -1.00, 727.9, 317.2)">i</text><text xml:space="preserve" font-family="Georgia,Georgia" font-size="33.0" fill="#000000" transform="matrix(1.00, 0.00, -0.00, -1.00, 737.5, 317.2)">k</text><text xml:space="preserve" font-family="Georgia,Georgia" font-size="33.0" fill="#000000" transform="matrix(1.00, 0.00, -0.00, -1.00, 755.2, 317.2)">k</text><text xml:space="preserve" font-family="Georgia,Georgia" font-size="33.0" fill="#000000" transform="matrix(1.00, 0.00, -0.00, -1.00, 772.9, 317.2)">e</text><text xml:space="preserve" font-family="Georgia,Georgia" font-size="33.0" fill="#000000" transform="matrix(1.00, 0.00, -0.00, -1.00, 788.8, 317.2)">e</text><text xml:space="preserve" font-family="Georgia,Georgia" font-size="33.0" fill="#000000" transform="matrix(1.00, 0.00, -0.00, -1.00, 804.8, 317.2)">l</text><text xml:space="preserve" font-family="Georgia,Georgia" font-size="33.0" fill="#000000" transform="matrix(1.00, 0.00, -0.00, -1.00, 814.2, 317.2)">l</text><text xml:space="preserve" font-family="Georgia,Georgia" font-size="33.0" fill="#000000" transform="matrix(1.00, 0.00, -0.00, -1.00, 823.7, 317.2)">e</text><text xml:space="preserve" font-family="Georgia,Georgia" font-size="33.0" fill="#000000" transform="matrix(1.00, 0.00, -0.00, -1.00, 839.7, 317.2)"> </text><text xml:space="preserve" font-family="Georgia,Georgia" font-size="33.0" fill="#000000" transform="matrix(1.00, 0.00, -0.00, -1.00, 111.1, 280.2)">s</text><text xml:space="preserve" font-family="Georgia,Georgia" font-size="33.0" fill="#000000" transform="matrix(1.00, 0.00, -0.00, -1.00, 125.3, 280.2)">a</text><text xml:space="preserve" font-family="Georgia,Georgia" font-size="33.0" fill="#000000" transform="matrix(1.00, 0.00, -0.00, -1.00, 142.0, 280.2)">a</text><text xml:space="preserve" font-family="Georgia,Georgia" font-size="33.0" fill="#000000" transform="matrix(1.00, 0.00, -0.00, -1.00, 158.6, 280.2)">t</text><text xml:space="preserve" font-family="Georgia,Georgia" font-size="33.0" fill="#000000" transform="matrix(1.00, 0.00, -0.00, -1.00, 170.0, 280.2)">t</text><text xml:space="preserve" font-family="Georgia,Georgia" font-size="33.0" fill="#000000" transform="matrix(1.00, 0.00, -0.00, -1.00, 181.4, 280.2)">a</text><text xml:space="preserve" font-family="Georgia,Georgia" font-size="33.0" fill="#000000" transform="matrix(1.00, 0.00, -0.00, -1.00, 198.0, 280.2)">v</text><text xml:space="preserve" font-family="Georgia,Georgia" font-size="33.0" fill="#000000" transform="matrix(1.00, 0.00, -0.00, -1.00, 214.4, 280.2)">a</text><text xml:space="preserve" font-family="Georgia,Georgia" font-size="33.0" fill="#000000" transform="matrix(1.00, 0.00, -0.00, -1.00, 231.0, 280.2)"> </text><text xml:space="preserve" font-family="Georgia,Georgia" font-size="33.0" fill="#000000" transform="matrix(1.00, 0.00, -0.00, -1.00, 239.0, 280.2)">v</text><text xml:space="preserve" font-family="Georgia,Georgia" font-size="33.0" fill="#000000" transform="matrix(1.00, 0.00, -0.00, -1.00, 255.4, 280.2)">o</text><text xml:space="preserve" font-family="Georgia,Georgia" font-size="33.0" fill="#000000" transform="matrix(1.00, 0.00, -0.00, -1.00, 273.2, 280.2)">i</text><text xml:space="preserve" font-family="Georgia,Georgia" font-size="33.0" fill="#000000" transform="matrix(1.00, 0.00, -0.00, -1.00, 282.8, 280.2)">m</text><text xml:space="preserve" font-family="Georgia,Georgia" font-size="33.0" fill="#000000" transform="matrix(1.00, 0.00, -0.00, -1.00, 311.9, 280.2)">a</text><text xml:space="preserve" font-family="Georgia,Georgia" font-size="33.0" fill="#000000" transform="matrix(1.00, 0.00, -0.00, -1.00, 328.5, 280.2)">,</text><text xml:space="preserve" font-family="Georgia,Georgia" font-size="33.0" fill="#000000" transform="matrix(1.00, 0.00, -0.00, -1.00, 337.4, 280.2)"> </text><text xml:space="preserve" font-family="Georgia,Georgia" font-size="33.0" fill="#000000" transform="matrix(1.00, 0.00, -0.00, -1.00, 345.4, 280.2)">m</text><text xml:space="preserve" font-family="Georgia,Georgia" font-size="33.0" fill="#000000" transform="matrix(1.00, 0.00, -0.00, -1.00, 374.4, 280.2)">u</text><text xml:space="preserve" font-family="Georgia,Georgia" font-size="33.0" fill="#000000" transform="matrix(1.00, 0.00, -0.00, -1.00, 393.4, 280.2)">t</text><text xml:space="preserve" font-family="Georgia,Georgia" font-size="33.0" fill="#000000" transform="matrix(1.00, 0.00, -0.00, -1.00, 404.8, 280.2)">t</text><text xml:space="preserve" font-family="Georgia,Georgia" font-size="33.0" fill="#000000" transform="matrix(1.00, 0.00, -0.00, -1.00, 416.2, 280.2)">a</text><text xml:space="preserve" font-family="Georgia,Georgia" font-size="33.0" fill="#000000" transform="matrix(1.00, 0.00, -0.00, -1.00, 432.8, 280.2)"> </text><text xml:space="preserve" font-family="Georgia,Georgia" font-size="33.0" fill="#000000" transform="matrix(1.00, 0.00, -0.00, -1.00, 440.8, 280.2)">v</text><text xml:space="preserve" font-family="Georgia,Georgia" font-size="33.0" fill="#000000" transform="matrix(1.00, 0.00, -0.00, -1.00, 457.2, 280.2)">a</text><text xml:space="preserve" font-family="Georgia,Georgia" font-size="33.0" fill="#000000" transform="matrix(1.00, 0.00, -0.00, -1.00, 473.8, 280.2)">s</text><text xml:space="preserve" font-family="Georgia,Georgia" font-size="33.0" fill="#000000" transform="matrix(1.00, 0.00, -0.00, -1.00, 488.1, 280.2)">t</text><text xml:space="preserve" font-family="Georgia,Georgia" font-size="33.0" fill="#000000" transform="matrix(1.00, 0.00, -0.00, -1.00, 499.5, 280.2)">a</text><text xml:space="preserve" font-family="Georgia,Georgia" font-size="33.0" fill="#000000" transform="matrix(1.00, 0.00, -0.00, -1.00, 516.1, 280.2)">k</text><text xml:space="preserve" font-family="Georgia,Georgia" font-size="33.0" fill="#000000" transform="matrix(1.00, 0.00, -0.00, -1.00, 533.8, 280.2)">k</text><text xml:space="preserve" font-family="Georgia,Georgia" font-size="33.0" fill="#000000" transform="matrix(1.00, 0.00, -0.00, -1.00, 551.4, 280.2)">a</text><text xml:space="preserve" font-family="Georgia,Georgia" font-size="33.0" fill="#000000" transform="matrix(1.00, 0.00, -0.00, -1.00, 568.0, 280.2)">i</text><text xml:space="preserve" font-family="Georgia,Georgia" font-size="33.0" fill="#000000" transform="matrix(1.00, 0.00, -0.00, -1.00, 577.7, 280.2)">s</text><text xml:space="preserve" font-family="Georgia,Georgia" font-size="33.0" fill="#000000" transform="matrix(1.00, 0.00, -0.00, -1.00, 592.0, 280.2)">s</text><text xml:space="preserve" font-family="Georgia,Georgia" font-size="33.0" fill="#000000" transform="matrix(1.00, 0.00, -0.00, -1.00, 606.2, 280.2)">u</text><text xml:space="preserve" font-family="Georgia,Georgia" font-size="33.0" fill="#000000" transform="matrix(1.00, 0.00, -0.00, -1.00, 625.2, 280.2)">u</text><text xml:space="preserve" font-family="Georgia,Georgia" font-size="33.0" fill="#000000" transform="matrix(1.00, 0.00, -0.00, -1.00, 644.2, 280.2)">n</text><text xml:space="preserve" font-family="Georgia,Georgia" font-size="33.0" fill="#000000" transform="matrix(1.00, 0.00, -0.00, -1.00, 663.7, 280.2)">t</text><text xml:space="preserve" font-family="Georgia,Georgia" font-size="33.0" fill="#000000" transform="matrix(1.00, 0.00, -0.00, -1.00, 675.1, 280.2)">a</text><text xml:space="preserve" font-family="Georgia,Georgia" font-size="33.0" fill="#000000" transform="matrix(1.00, 0.00, -0.00, -1.00, 691.7, 280.2)">i</text><text xml:space="preserve" font-family="Georgia,Georgia" font-size="33.0" fill="#000000" transform="matrix(1.00, 0.00, -0.00, -1.00, 701.4, 280.2)">n</text><text xml:space="preserve" font-family="Georgia,Georgia" font-size="33.0" fill="#000000" transform="matrix(1.00, 0.00, -0.00, -1.00, 720.9, 280.2)">e</text><text xml:space="preserve" font-family="Georgia,Georgia" font-size="33.0" fill="#000000" transform="matrix(1.00, 0.00, -0.00, -1.00, 736.8, 280.2)">n</text><path d="M 0.4 0.1 L 115.4 0.1 L 115.4 73.1 L 0.4 73.1 Z M 0.0 0.0 " fill="none" stroke="#000000" stroke-width="2.00" transform="matrix(1.00, 0.00, 0.00, -1.00, 434.6, 144.1)"></path><g><clipPath id="clip0x608001ab2a80"><path d="M 562.7 120.9 L 601.0 112.3 L 597.0 94.6 L 558.7 103.1 Z M 562.7 120.9 "></path></clipPath><g clip-path="url(#clip0x608001ab2a80)"><path d="M 5.9 0.0 C 1.4 0.4 -1.3 5.5 0.6 9.9 C 3.2 15.9 11.1 15.6 13.3 9.5 C 15.1 7.3 17.2 5.5 19.5 4.0 C 24.5 1.0 30.4 -0.1 36.0 1.0 " fill="none" stroke="#000000" stroke-width="2.00" transform="matrix(0.98, -0.22, -0.22, -0.98, 564.2, 118.5)"></path></g></g><g><clipPath id="clip0x608001ab2cc0"><path d="M 597.5 122.1 L 702.7 123.6 L 703.0 100.2 L 597.9 98.7 Z M 597.5 122.1 "></path></clipPath><g clip-path="url(#clip0x608001ab2cc0)"><path d="M 0.0 0.0 L 101.1 0.0 L 101.1 19.4 L 0.0 19.4 Z M 0.0 0.0 " fill="none" stroke="#000000" stroke-width="2.00" transform="matrix(1.00, 0.01, 0.01, -1.00, 599.6, 120.2)"></path></g></g><path d="M -0.1 0.0 L 20.9 0.0 " fill="none" stroke="#000000" stroke-width="2.00" transform="matrix(1.00, 0.00, 0.00, -1.00, 548.1, 108.0)"></path><path d="M -0.2 -0.1 L 346.8 -0.1 " fill="none" stroke="#000000" stroke-width="2.00" transform="matrix(1.00, 0.00, 0.00, -1.00, 345.2, 71.9)"></path><path d="M 0.0 0.2 L 96.5 0.2 L 99.0 0.2 " fill="none" stroke="#C82505" stroke-width="5.00" transform="matrix(1.00, 0.00, 0.00, -1.00, 551.0, 105.7)"></path><path d="M 647.5 95.3 L 667.9 105.5 L 647.5 115.7 Z M 647.5 95.3 " fill="#C82505"></path><path d="M -0.2 -0.1 L 96.5 -0.1 L 98.8 -0.1 " fill="none" stroke="#C82505" stroke-width="5.00" transform="matrix(-1.00, 0.00, 0.00, 1.00, 435.8, 78.6)"></path><path d="M 339.5 88.7 L 319.1 78.5 L 339.5 68.3 Z M 339.5 88.7 " fill="#C82505"></path></g></svg>