<?xml version="1.0" encoding="UTF-8" standalone="no"?><svg xmlns="http://www.w3.org/2000/svg" xmlns:xlink="http://www.w3.org/1999/xlink" clip-rule="evenodd" stroke-miterlimit="10" viewBox="0 0 345 34"><desc>SVG generated by Keynote</desc><defs></defs><g transform="matrix(1.00, 0.00, -0.00, -1.00, 0.0, 34.0)"><text xml:space="preserve" font-family="Georgia,Georgia" font-size="32.0" fill="#000000" transform="matrix(1.00, 0.00, -0.00, -1.00, 2.9, 8.4)">W</text><text xml:space="preserve" font-family="Georgia,Georgia" font-size="32.0" fill="#000000" transform="matrix(1.00, 0.00, -0.00, -1.00, 34.1, 8.4)"> </text><text xml:space="preserve" font-family="Georgia,Georgia" font-size="32.0" fill="#000000" transform="matrix(1.00, 0.00, -0.00, -1.00, 41.8, 8.4)">=</text><text xml:space="preserve" font-family="Georgia,Georgia" font-size="32.0" fill="#000000" transform="matrix(1.00, 0.00, -0.00, -1.00, 62.4, 8.4)"> </text><text xml:space="preserve" font-family="Georgia,Georgia" font-size="32.0" fill="#000000" transform="matrix(1.00, 0.00, -0.00, -1.00, 70.1, 8.4)">G</text><text xml:space="preserve" font-family="Georgia,Georgia" font-size="32.0" fill="#000000" transform="matrix(1.00, 0.00, -0.00, -1.00, 93.3, 8.4)">h</text><text xml:space="preserve" font-family="Georgia,Georgia" font-size="32.0" fill="#000000" transform="matrix(1.00, 0.00, -0.00, -1.00, 111.9, 8.4)"> </text><text xml:space="preserve" font-family="Georgia,Georgia" font-size="32.0" fill="#000000" transform="matrix(1.00, 0.00, -0.00, -1.00, 119.7, 8.4)">=</text><text xml:space="preserve" font-family="Georgia,Georgia" font-size="32.0" fill="#000000" transform="matrix(1.00, 0.00, -0.00, -1.00, 140.2, 8.4)"> </text><text xml:space="preserve" font-family="Georgia,Georgia" font-size="32.0" fill="#000000" transform="matrix(1.00, 0.00, -0.00, -1.00, 148.0, 8.4)">5</text><text xml:space="preserve" font-family="Georgia,Georgia" font-size="32.0" fill="#000000" transform="matrix(1.00, 0.00, -0.00, -1.00, 164.9, 8.4)">0</text><text xml:space="preserve" font-family="Georgia,Georgia" font-size="32.0" fill="#000000" transform="matrix(1.00, 0.00, -0.00, -1.00, 184.5, 8.4)">0</text><text xml:space="preserve" font-family="Georgia,Georgia" font-size="32.0" fill="#000000" transform="matrix(1.00, 0.00, -0.00, -1.00, 204.1, 8.4)">0</text><text xml:space="preserve" font-family="Georgia,Georgia" font-size="32.0" fill="#000000" transform="matrix(1.00, 0.00, -0.00, -1.00, 223.8, 8.4)"> </text><text xml:space="preserve" font-family="Georgia,Georgia" font-size="32.0" fill="#000000" transform="matrix(1.00, 0.00, -0.00, -1.00, 231.5, 8.4)">N</text><text xml:space="preserve" font-family="Georgia,Georgia" font-size="32.0" fill="#000000" transform="matrix(1.00, 0.00, -0.00, -1.00, 256.1, 8.4)"> </text><text xml:space="preserve" font-family="EuphemiaUCAS,Euphemia UCAS" font-size="32.0" fill="#000000" transform="matrix(1.00, 0.00, -0.00, -1.00, 263.8, 8.4)">á§</text><text xml:space="preserve" font-family="Georgia,Georgia" font-size="32.0" fill="#000000" transform="matrix(1.00, 0.00, -0.00, -1.00, 270.4, 8.4)"> </text><text xml:space="preserve" font-family="Georgia,Georgia" font-size="32.0" fill="#000000" transform="matrix(1.00, 0.00, -0.00, -1.00, 278.1, 8.4)">3</text><text xml:space="preserve" font-family="Georgia,Georgia" font-size="32.0" fill="#000000" transform="matrix(1.00, 0.00, -0.00, -1.00, 295.8, 8.4)">0</text><text xml:space="preserve" font-family="Georgia,Georgia" font-size="32.0" fill="#000000" transform="matrix(1.00, 0.00, -0.00, -1.00, 315.4, 8.4)">m</text></g></svg>