<?xml version="1.0" encoding="UTF-8" standalone="no"?><svg xmlns="http://www.w3.org/2000/svg" xmlns:xlink="http://www.w3.org/1999/xlink" clip-rule="evenodd" stroke-miterlimit="10" viewBox="0 0 1024 768"><desc>SVG generated by Keynote</desc><defs></defs><g transform="matrix(1.00, 0.00, -0.00, -1.00, 0.0, 768.0)"><path d="M 0.0 768.0 L 1024.0 768.0 L 1024.0 0.0 L 0.0 0.0 Z M 0.0 768.0 " fill="#FEFFFF"></path><text xml:space="preserve" font-family="Georgia,Georgia" font-size="80.0" fill="#000000" transform="matrix(1.00, 0.00, -0.00, -1.00, 173.6, 664.9)">K</text><text xml:space="preserve" font-family="Georgia,Georgia" font-size="80.0" fill="#000000" transform="matrix(1.00, 0.00, -0.00, -1.00, 229.2, 664.9)">u</text><text xml:space="preserve" font-family="Georgia,Georgia" font-size="80.0" fill="#000000" transform="matrix(1.00, 0.00, -0.00, -1.00, 275.2, 664.9)">p</text><text xml:space="preserve" font-family="Georgia,Georgia" font-size="80.0" fill="#000000" transform="matrix(1.00, 0.00, -0.00, -1.00, 320.9, 664.9)">e</text><text xml:space="preserve" font-family="Georgia,Georgia" font-size="80.0" fill="#000000" transform="matrix(1.00, 0.00, -0.00, -1.00, 359.6, 664.9)">r</text><text xml:space="preserve" font-family="Georgia,Georgia" font-size="80.0" fill="#000000" transform="matrix(1.00, 0.00, -0.00, -1.00, 392.4, 664.9)">a</text><text xml:space="preserve" font-family="Georgia,Georgia" font-size="80.0" fill="#000000" transform="matrix(1.00, 0.00, -0.00, -1.00, 432.7, 664.9)"> </text><text xml:space="preserve" font-family="Georgia,Georgia" font-size="80.0" fill="#000000" transform="matrix(1.00, 0.00, -0.00, -1.00, 452.0, 664.9)">v</text><text xml:space="preserve" font-family="Georgia,Georgia" font-size="80.0" fill="#000000" transform="matrix(1.00, 0.00, -0.00, -1.00, 491.7, 664.9)">a</text><text xml:space="preserve" font-family="Georgia,Georgia" font-size="80.0" fill="#000000" transform="matrix(1.00, 0.00, -0.00, -1.00, 532.0, 664.9)">i</text><text xml:space="preserve" font-family="Georgia,Georgia" font-size="80.0" fill="#000000" transform="matrix(1.00, 0.00, -0.00, -1.00, 555.4, 664.9)"> </text><text xml:space="preserve" font-family="Georgia,Georgia" font-size="80.0" fill="#000000" transform="matrix(1.00, 0.00, -0.00, -1.00, 574.7, 664.9)">k</text><text xml:space="preserve" font-family="Georgia,Georgia" font-size="80.0" fill="#000000" transform="matrix(1.00, 0.00, -0.00, -1.00, 617.6, 664.9)">o</text><text xml:space="preserve" font-family="Georgia,Georgia" font-size="80.0" fill="#000000" transform="matrix(1.00, 0.00, -0.00, -1.00, 660.7, 664.9)">v</text><text xml:space="preserve" font-family="Georgia,Georgia" font-size="80.0" fill="#000000" transform="matrix(1.00, 0.00, -0.00, -1.00, 700.4, 664.9)">e</text><text xml:space="preserve" font-family="Georgia,Georgia" font-size="80.0" fill="#000000" transform="matrix(1.00, 0.00, -0.00, -1.00, 739.1, 664.9)">r</text><text xml:space="preserve" font-family="Georgia,Georgia" font-size="80.0" fill="#000000" transform="matrix(1.00, 0.00, -0.00, -1.00, 771.8, 664.9)">a</text><text xml:space="preserve" font-family="Georgia,Georgia" font-size="80.0" fill="#000000" transform="matrix(1.00, 0.00, -0.00, -1.00, 812.1, 664.9)">?</text><g><clipPath id="clip0x7ff041098b30"><path d="M 744.9 249.3 L 788.5 249.3 L 788.5 447.8 L 744.9 447.8 Z M 744.9 249.3 "></path></clipPath><g clip-path="url(#clip0x7ff041098b30)"><path d="M 745.9 447.0 C 752.8 415.7 758.4 380.6 758.2 344.5 C 757.9 311.2 752.9 278.9 746.7 250.0 L 784.8 251.0 C 776.0 281.8 771.7 313.3 771.8 345.4 C 771.9 379.8 777.2 414.2 787.5 447.0 L 745.9 447.0 Z M 745.9 446.8 " fill="#94DCFF"></path></g></g><g><clipPath id="clip0x7ff025cf4960"><path d="M 588.0 405.5 L 668.9 405.5 L 668.9 417.1 L 588.0 417.1 Z M 588.0 405.5 "></path></clipPath><g clip-path="url(#clip0x7ff025cf4960)"><path d="M 0.0 0.3 L 69.3 0.3 L 70.0 0.3 " fill="none" stroke="#DCBD22" stroke-width="2.00" transform="matrix(1.00, 0.00, 0.00, -1.00, 589.0, 411.3)"></path><path d="M 658.0 406.2 L 667.6 411.0 L 658.0 415.8 Z M 658.0 406.2 " fill="#DCBD22"></path></g></g><g><clipPath id="clip0x7ff025cf5f30"><path d="M 666.5 413.3 L 752.9 413.3 L 752.9 409.3 L 666.5 409.3 Z M 666.5 413.3 "></path></clipPath><g clip-path="url(#clip0x7ff025cf5f30)"><path d="M -0.5 0.3 L 84.5 0.3 " fill="none" stroke="#DCBD22" stroke-width="2.00" transform="matrix(1.00, 0.00, 0.00, -1.00, 667.5, 411.3)"></path></g></g><g><clipPath id="clip0x7ff025cf6f50"><path d="M 750.1 413.1 L 779.3 418.7 L 780.1 414.8 L 750.9 409.2 Z M 750.1 413.1 "></path></clipPath><g clip-path="url(#clip0x7ff025cf6f50)"><path d="M 0.0 0.0 L 27.7 0.0 " fill="none" stroke="#DCBD22" stroke-width="2.00" transform="matrix(0.98, 0.19, 0.19, -0.98, 751.5, 411.3)"></path></g></g><g><clipPath id="clip0x7ff025cf7f40"><path d="M 776.9 417.1 L 870.0 491.2 L 872.5 488.1 L 779.4 413.9 Z M 776.9 417.1 "></path></clipPath><g clip-path="url(#clip0x7ff025cf7f40)"><path d="M 0.0 0.0 L 117.0 0.0 " fill="none" stroke="#DCBD22" stroke-width="2.00" transform="matrix(0.78, 0.62, 0.62, -0.78, 779.0, 416.1)"></path></g></g><g><clipPath id="clip0x7ff025cf8f60"><path d="M 665.9 289.3 L 753.5 289.3 L 753.5 285.3 L 665.9 285.3 Z M 665.9 289.3 "></path></clipPath><g clip-path="url(#clip0x7ff025cf8f60)"><path d="M 0.1 0.3 L 86.1 0.3 " fill="none" stroke="#DCBD22" stroke-width="2.00" transform="matrix(1.00, 0.00, 0.00, -1.00, 666.9, 287.3)"></path></g></g><g><clipPath id="clip0x7ff025cf9f50"><path d="M 752.1 289.5 L 778.9 281.9 L 777.8 278.0 L 751.0 285.7 Z M 752.1 289.5 "></path></clipPath><g clip-path="url(#clip0x7ff025cf9f50)"><path d="M 0.0 0.0 L 26.0 0.0 " fill="none" stroke="#DCBD22" stroke-width="2.00" transform="matrix(0.96, -0.27, -0.27, -0.96, 752.5, 287.3)"></path></g></g><g><clipPath id="clip0x7ff03c3765d0"><path d="M 777.6 282.3 L 905.4 187.8 L 903.0 184.6 L 775.2 279.1 Z M 777.6 282.3 "></path></clipPath><g clip-path="url(#clip0x7ff03c3765d0)"><path d="M 0.0 0.0 L 156.9 0.0 " fill="none" stroke="#DCBD22" stroke-width="2.00" transform="matrix(0.80, -0.59, -0.59, -0.80, 777.2, 280.1)"></path></g></g><g><clipPath id="clip0x7ff03e775650"><path d="M 667.0 351.0 L 908.1 352.6 L 908.2 348.6 L 667.1 347.0 Z M 667.0 351.0 "></path></clipPath><g clip-path="url(#clip0x7ff03e775650)"><path d="M 0.0 0.0 L 239.1 0.0 " fill="none" stroke="#DCBD22" stroke-width="2.00" transform="matrix(1.00, 0.01, 0.01, -1.00, 668.1, 349.0)"></path></g></g><g><clipPath id="clip0x7ff03e78b180"><path d="M 587.4 281.5 L 668.3 281.5 L 668.3 293.1 L 587.4 293.1 Z M 587.4 281.5 "></path></clipPath><g clip-path="url(#clip0x7ff03e78b180)"><path d="M -0.4 0.3 L 69.3 0.3 L 70.6 0.3 " fill="none" stroke="#DCBD22" stroke-width="2.00" transform="matrix(1.00, 0.00, 0.00, -1.00, 588.4, 287.3)"></path><path d="M 658.0 282.2 L 667.6 287.0 L 658.0 291.8 Z M 658.0 282.2 " fill="#DCBD22"></path></g></g><g><clipPath id="clip0x7ff03c33bf10"><path d="M 588.6 343.2 L 669.4 343.2 L 669.4 354.8 L 588.6 354.8 Z M 588.6 343.2 "></path></clipPath><g clip-path="url(#clip0x7ff03c33bf10)"><path d="M 0.4 0.0 L 69.3 0.0 L 70.4 0.0 " fill="none" stroke="#DCBD22" stroke-width="2.00" transform="matrix(1.00, 0.00, 0.00, -1.00, 589.6, 349.0)"></path><path d="M 659.0 344.2 L 668.6 349.0 L 659.0 353.8 Z M 659.0 344.2 " fill="#DCBD22"></path></g></g><g><clipPath id="clip0x7ff040c8daa0"><path d="M 684.2 339.4 L 697.7 339.4 L 697.7 353.0 L 684.2 353.0 Z M 684.2 339.4 "></path></clipPath><g clip-path="url(#clip0x7ff040c8daa0)"><image xlink:href="15D38FC5277C43A2565FE98DF9A9EB80.png" width="12.00" height="12.00" transform="matrix(0.96, 0.00, -0.00, -0.96, 685.2, 352.0)" opacity="0.50"></image><path d="M 692.9 350.2 C 694.0 349.1 694.0 347.3 692.9 346.2 C 691.8 345.2 690.1 345.2 689.0 346.2 C 687.9 347.3 687.9 349.1 689.0 350.2 C 690.1 351.2 691.8 351.2 692.9 350.2 Z M 692.9 350.2 " fill="#000000"></path></g></g><g><clipPath id="clip0x7ff025c6b000"><path d="M 691.6 350.2 L 780.1 419.2 L 782.5 416.0 L 694.0 347.0 Z M 691.6 350.2 "></path></clipPath><g clip-path="url(#clip0x7ff025c6b000)"><path d="M 0.0 0.0 L 110.2 0.0 " fill="none" stroke="#DCBD22" stroke-width="2.00" stroke-dasharray="12.0, 12.0" transform="matrix(0.79, 0.61, 0.61, -0.79, 693.6, 349.2)"></path></g></g><g><clipPath id="clip0x7ff025c6c100"><path d="M 692.5 348.6 L 777.7 283.4 L 775.2 280.2 L 690.1 345.4 Z M 692.5 348.6 "></path></clipPath><g clip-path="url(#clip0x7ff025c6c100)"><path d="M 0.0 0.0 L 105.2 0.0 " fill="none" stroke="#DCBD22" stroke-width="2.00" stroke-dasharray="12.0, 12.0" transform="matrix(0.79, -0.61, -0.61, -0.79, 692.1, 346.4)"></path></g></g><g><clipPath id="clip0x7ff040c97680"><path d="M 306.4 239.1 L 353.0 239.1 L 353.0 457.6 L 306.4 457.6 Z M 306.4 239.1 "></path></clipPath><g clip-path="url(#clip0x7ff040c97680)"><path d="M 329.8 456.6 C 314.6 425.5 306.5 383.2 307.5 339.7 C 308.3 302.5 315.8 267.2 328.5 240.1 C 341.1 263.8 349.2 295.5 351.4 329.9 C 354.4 376.6 346.4 423.4 329.8 456.6 Z M 329.8 456.6 " fill="#94DCFF"></path></g></g><g><clipPath id="clip0x7ff025cb5f70"><path d="M 138.6 409.5 L 225.3 409.5 L 225.3 421.1 L 138.6 421.1 Z M 138.6 409.5 "></path></clipPath><g clip-path="url(#clip0x7ff025cb5f70)"><path d="M 0.4 0.3 L 75.1 0.3 L 76.4 0.3 " fill="none" stroke="#DCBD22" stroke-width="2.00" transform="matrix(1.00, 0.00, 0.00, -1.00, 139.6, 415.3)"></path><path d="M 215.0 410.2 L 224.6 415.0 L 215.0 419.8 Z M 215.0 410.2 " fill="#DCBD22"></path></g></g><g><clipPath id="clip0x7ff025cb7530"><path d="M 222.9 417.3 L 315.5 417.3 L 315.5 413.3 L 222.9 413.3 Z M 222.9 417.3 "></path></clipPath><g clip-path="url(#clip0x7ff025cb7530)"><path d="M 0.1 0.3 L 91.1 0.3 " fill="none" stroke="#DCBD22" stroke-width="2.00" transform="matrix(1.00, 0.00, 0.00, -1.00, 223.9, 415.3)"></path></g></g><g><clipPath id="clip0x7ff040cc4060"><path d="M 313.5 417.5 L 347.5 410.4 L 346.6 406.5 L 312.7 413.5 Z M 313.5 417.5 "></path></clipPath><g clip-path="url(#clip0x7ff040cc4060)"><path d="M 0.0 0.0 L 32.7 0.0 " fill="none" stroke="#DCBD22" stroke-width="2.00" transform="matrix(0.98, -0.20, -0.20, -0.98, 314.1, 415.3)"></path></g></g><g><clipPath id="clip0x7ff03e7845d0"><path d="M 346.6 410.4 L 489.2 267.8 L 486.4 265.0 L 343.7 407.6 Z M 346.6 410.4 "></path></clipPath><g clip-path="url(#clip0x7ff03e7845d0)"><path d="M 0.0 0.0 L 199.7 0.0 " fill="none" stroke="#DCBD22" stroke-width="2.00" transform="matrix(0.71, -0.71, -0.71, -0.71, 345.9, 408.3)"></path></g></g><g><clipPath id="clip0x7ff03e70b470"><path d="M 222.3 284.1 L 314.9 284.1 L 314.9 280.1 L 222.3 280.1 Z M 222.3 284.1 "></path></clipPath><g clip-path="url(#clip0x7ff03e70b470)"><path d="M -0.3 0.1 L 90.7 0.1 " fill="none" stroke="#DCBD22" stroke-width="2.00" transform="matrix(1.00, 0.00, 0.00, -1.00, 223.3, 282.1)"></path></g></g><g><clipPath id="clip0x7ff03e79b8a0"><path d="M 312.6 284.5 L 345.0 292.9 L 346.0 289.0 L 313.6 280.6 Z M 312.6 284.5 "></path></clipPath><g clip-path="url(#clip0x7ff03e79b8a0)"><path d="M 0.0 0.0 L 31.5 0.0 " fill="none" stroke="#DCBD22" stroke-width="2.00" transform="matrix(0.97, 0.25, 0.25, -0.97, 314.1, 282.8)"></path></g></g><g><clipPath id="clip0x7ff02612c0f0"><path d="M 343.6 291.7 L 472.5 411.7 L 475.2 408.8 L 346.3 288.8 Z M 343.6 291.7 "></path></clipPath><g clip-path="url(#clip0x7ff02612c0f0)"><path d="M 0.0 0.0 L 174.2 0.0 " fill="none" stroke="#DCBD22" stroke-width="2.00" transform="matrix(0.73, 0.68, 0.68, -0.73, 345.7, 290.9)"></path></g></g><g><clipPath id="clip0x7ff03c349940"><path d="M 223.5 350.4 L 482.2 352.1 L 482.2 348.1 L 223.5 346.4 Z M 223.5 350.4 "></path></clipPath><g clip-path="url(#clip0x7ff03c349940)"><path d="M 0.0 0.0 L 256.7 0.0 " fill="none" stroke="#DCBD22" stroke-width="2.00" transform="matrix(1.00, 0.01, 0.01, -1.00, 224.5, 348.4)"></path></g></g><g><clipPath id="clip0x7ff025c6e170"><path d="M 138.0 276.3 L 224.7 276.3 L 224.7 287.9 L 138.0 287.9 Z M 138.0 276.3 "></path></clipPath><g clip-path="url(#clip0x7ff025c6e170)"><path d="M -0.0 0.1 L 75.1 0.1 L 76.0 0.1 " fill="none" stroke="#DCBD22" stroke-width="2.00" transform="matrix(1.00, 0.00, 0.00, -1.00, 139.0, 282.1)"></path><path d="M 214.0 277.2 L 223.6 282.0 L 214.0 286.8 Z M 214.0 277.2 " fill="#DCBD22"></path></g></g><g><clipPath id="clip0x7ff025c6f800"><path d="M 139.2 342.6 L 225.9 342.6 L 225.9 354.2 L 139.2 354.2 Z M 139.2 342.6 "></path></clipPath><g clip-path="url(#clip0x7ff025c6f800)"><path d="M -0.2 0.4 L 75.1 0.4 L 75.8 0.4 " fill="none" stroke="#DCBD22" stroke-width="2.00" transform="matrix(1.00, 0.00, 0.00, -1.00, 140.2, 348.4)"></path><path d="M 215.0 343.2 L 224.6 348.0 L 215.0 352.8 Z M 215.0 343.2 " fill="#DCBD22"></path></g></g><g><clipPath id="clip0x7ff040c45320"><path d="M 400.6 339.4 L 414.6 339.4 L 414.6 353.3 L 400.6 353.3 Z M 400.6 339.4 "></path></clipPath><g clip-path="url(#clip0x7ff040c45320)"><image xlink:href="3D4A0E4F5B84768548957D433468121D.png" width="12.00" height="12.00" transform="matrix(1.00, 0.00, -0.00, -1.00, 401.6, 352.3)" opacity="0.50"></image><path d="M 409.7 350.4 C 410.9 349.3 410.9 347.4 409.7 346.2 C 408.5 345.1 406.7 345.1 405.5 346.2 C 404.3 347.4 404.3 349.3 405.5 350.4 C 406.7 351.6 408.5 351.6 409.7 350.4 Z M 409.7 350.4 " fill="#000000"></path></g></g><text xml:space="preserve" font-family="Georgia,Georgia" font-size="33.0" fill="#000000" transform="matrix(1.00, 0.00, -0.00, -1.00, 186.6, 523.3)">K</text><text xml:space="preserve" font-family="Georgia,Georgia" font-size="33.0" fill="#000000" transform="matrix(1.00, 0.00, -0.00, -1.00, 209.5, 523.3)">u</text><text xml:space="preserve" font-family="Georgia,Georgia" font-size="33.0" fill="#000000" transform="matrix(1.00, 0.00, -0.00, -1.00, 228.5, 523.3)">p</text><text xml:space="preserve" font-family="Georgia,Georgia" font-size="33.0" fill="#000000" transform="matrix(1.00, 0.00, -0.00, -1.00, 247.4, 523.3)">e</text><text xml:space="preserve" font-family="Georgia,Georgia" font-size="33.0" fill="#000000" transform="matrix(1.00, 0.00, -0.00, -1.00, 263.3, 523.3)">r</text><text xml:space="preserve" font-family="Georgia,Georgia" font-size="33.0" fill="#000000" transform="matrix(1.00, 0.00, -0.00, -1.00, 276.8, 523.3)">a</text><text xml:space="preserve" font-family="Georgia,Georgia" font-size="33.0" fill="#000000" transform="matrix(1.00, 0.00, -0.00, -1.00, 293.5, 523.3)"> </text><text xml:space="preserve" font-family="Georgia,Georgia" font-size="33.0" fill="#000000" transform="matrix(1.00, 0.00, -0.00, -1.00, 301.4, 523.3)">l</text><text xml:space="preserve" font-family="Georgia,Georgia" font-size="33.0" fill="#000000" transform="matrix(1.00, 0.00, -0.00, -1.00, 310.9, 523.3)">i</text><text xml:space="preserve" font-family="Georgia,Georgia" font-size="33.0" fill="#000000" transform="matrix(1.00, 0.00, -0.00, -1.00, 320.5, 523.3)">n</text><text xml:space="preserve" font-family="Georgia,Georgia" font-size="33.0" fill="#000000" transform="matrix(1.00, 0.00, -0.00, -1.00, 340.0, 523.3)">s</text><text xml:space="preserve" font-family="Georgia,Georgia" font-size="33.0" fill="#000000" transform="matrix(1.00, 0.00, -0.00, -1.00, 354.3, 523.3)">s</text><text xml:space="preserve" font-family="Georgia,Georgia" font-size="33.0" fill="#000000" transform="matrix(1.00, 0.00, -0.00, -1.00, 368.6, 523.3)">i</text><text xml:space="preserve" font-family="Georgia,Georgia" font-size="33.0" fill="#000000" transform="matrix(1.00, 0.00, -0.00, -1.00, 616.2, 523.3)">K</text><text xml:space="preserve" font-family="Georgia,Georgia" font-size="33.0" fill="#000000" transform="matrix(1.00, 0.00, -0.00, -1.00, 639.1, 523.3)">o</text><text xml:space="preserve" font-family="Georgia,Georgia" font-size="33.0" fill="#000000" transform="matrix(1.00, 0.00, -0.00, -1.00, 656.9, 523.3)">v</text><text xml:space="preserve" font-family="Georgia,Georgia" font-size="33.0" fill="#000000" transform="matrix(1.00, 0.00, -0.00, -1.00, 673.3, 523.3)">e</text><text xml:space="preserve" font-family="Georgia,Georgia" font-size="33.0" fill="#000000" transform="matrix(1.00, 0.00, -0.00, -1.00, 689.3, 523.3)">r</text><text xml:space="preserve" font-family="Georgia,Georgia" font-size="33.0" fill="#000000" transform="matrix(1.00, 0.00, -0.00, -1.00, 702.8, 523.3)">a</text><text xml:space="preserve" font-family="Georgia,Georgia" font-size="33.0" fill="#000000" transform="matrix(1.00, 0.00, -0.00, -1.00, 719.4, 523.3)"> </text><text xml:space="preserve" font-family="Georgia,Georgia" font-size="33.0" fill="#000000" transform="matrix(1.00, 0.00, -0.00, -1.00, 727.4, 523.3)">l</text><text xml:space="preserve" font-family="Georgia,Georgia" font-size="33.0" fill="#000000" transform="matrix(1.00, 0.00, -0.00, -1.00, 736.8, 523.3)">i</text><text xml:space="preserve" font-family="Georgia,Georgia" font-size="33.0" fill="#000000" transform="matrix(1.00, 0.00, -0.00, -1.00, 746.5, 523.3)">n</text><text xml:space="preserve" font-family="Georgia,Georgia" font-size="33.0" fill="#000000" transform="matrix(1.00, 0.00, -0.00, -1.00, 766.0, 523.3)">s</text><text xml:space="preserve" font-family="Georgia,Georgia" font-size="33.0" fill="#000000" transform="matrix(1.00, 0.00, -0.00, -1.00, 780.2, 523.3)">s</text><text xml:space="preserve" font-family="Georgia,Georgia" font-size="33.0" fill="#000000" transform="matrix(1.00, 0.00, -0.00, -1.00, 794.5, 523.3)">i</text><text xml:space="preserve" font-family="Georgia,Georgia" font-size="28.0" fill="#000000" transform="matrix(1.00, 0.00, -0.00, -1.00, 204.2, 134.9)">K</text><text xml:space="preserve" font-family="Georgia,Georgia" font-size="28.0" fill="#000000" transform="matrix(1.00, 0.00, -0.00, -1.00, 223.6, 134.9)">o</text><text xml:space="preserve" font-family="Georgia,Georgia" font-size="28.0" fill="#000000" transform="matrix(1.00, 0.00, -0.00, -1.00, 238.7, 134.9)">k</text><text xml:space="preserve" font-family="Georgia,Georgia" font-size="28.0" fill="#000000" transform="matrix(1.00, 0.00, -0.00, -1.00, 253.7, 134.9)">o</text><text xml:space="preserve" font-family="Georgia,Georgia" font-size="28.0" fill="#000000" transform="matrix(1.00, 0.00, -0.00, -1.00, 268.8, 134.9)">a</text><text xml:space="preserve" font-family="Georgia,Georgia" font-size="28.0" fill="#000000" transform="matrix(1.00, 0.00, -0.00, -1.00, 282.9, 134.9)">a</text><text xml:space="preserve" font-family="Georgia,Georgia" font-size="28.0" fill="#000000" transform="matrix(1.00, 0.00, -0.00, -1.00, 297.1, 134.9)"> </text><text xml:space="preserve" font-family="Georgia,Georgia" font-size="28.0" fill="#000000" transform="matrix(1.00, 0.00, -0.00, -1.00, 303.8, 134.9)">v</text><text xml:space="preserve" font-family="Georgia,Georgia" font-size="28.0" fill="#000000" transform="matrix(1.00, 0.00, -0.00, -1.00, 317.7, 134.9)">a</text><text xml:space="preserve" font-family="Georgia,Georgia" font-size="28.0" fill="#000000" transform="matrix(1.00, 0.00, -0.00, -1.00, 331.8, 134.9)">l</text><text xml:space="preserve" font-family="Georgia,Georgia" font-size="28.0" fill="#000000" transform="matrix(1.00, 0.00, -0.00, -1.00, 339.8, 134.9)">o</text><text xml:space="preserve" font-family="Georgia,Georgia" font-size="28.0" fill="#000000" transform="matrix(1.00, 0.00, -0.00, -1.00, 354.9, 134.9)">n</text><text xml:space="preserve" font-family="Georgia,Georgia" font-size="28.0" fill="#000000" transform="matrix(1.00, 0.00, -0.00, -1.00, 371.5, 134.9)">s</text><text xml:space="preserve" font-family="Georgia,Georgia" font-size="28.0" fill="#000000" transform="matrix(1.00, 0.00, -0.00, -1.00, 383.6, 134.9)">ä</text><text xml:space="preserve" font-family="Georgia,Georgia" font-size="28.0" fill="#000000" transform="matrix(1.00, 0.00, -0.00, -1.00, 397.7, 134.9)">t</text><text xml:space="preserve" font-family="Georgia,Georgia" font-size="28.0" fill="#000000" transform="matrix(1.00, 0.00, -0.00, -1.00, 407.4, 134.9)">e</text><text xml:space="preserve" font-family="Georgia,Georgia" font-size="28.0" fill="#000000" transform="matrix(1.00, 0.00, -0.00, -1.00, 420.9, 134.9)">e</text><text xml:space="preserve" font-family="Georgia,Georgia" font-size="28.0" fill="#000000" transform="matrix(1.00, 0.00, -0.00, -1.00, 434.5, 134.9)">t</text><text xml:space="preserve" font-family="Georgia,Georgia" font-size="28.0" fill="#000000" transform="matrix(1.00, 0.00, -0.00, -1.00, 631.4, 134.9)">H</text><text xml:space="preserve" font-family="Georgia,Georgia" font-size="28.0" fill="#000000" transform="matrix(1.00, 0.00, -0.00, -1.00, 654.2, 134.9)">a</text><text xml:space="preserve" font-family="Georgia,Georgia" font-size="28.0" fill="#000000" transform="matrix(1.00, 0.00, -0.00, -1.00, 668.3, 134.9)">j</text><text xml:space="preserve" font-family="Georgia,Georgia" font-size="28.0" fill="#000000" transform="matrix(1.00, 0.00, -0.00, -1.00, 676.5, 134.9)">o</text><text xml:space="preserve" font-family="Georgia,Georgia" font-size="28.0" fill="#000000" transform="matrix(1.00, 0.00, -0.00, -1.00, 691.6, 134.9)">i</text><text xml:space="preserve" font-family="Georgia,Georgia" font-size="28.0" fill="#000000" transform="matrix(1.00, 0.00, -0.00, -1.00, 699.8, 134.9)">t</text><text xml:space="preserve" font-family="Georgia,Georgia" font-size="28.0" fill="#000000" transform="matrix(1.00, 0.00, -0.00, -1.00, 709.5, 134.9)">t</text><text xml:space="preserve" font-family="Georgia,Georgia" font-size="28.0" fill="#000000" transform="matrix(1.00, 0.00, -0.00, -1.00, 719.1, 134.9)">a</text><text xml:space="preserve" font-family="Georgia,Georgia" font-size="28.0" fill="#000000" transform="matrix(1.00, 0.00, -0.00, -1.00, 733.2, 134.9)">a</text><text xml:space="preserve" font-family="Georgia,Georgia" font-size="28.0" fill="#000000" transform="matrix(1.00, 0.00, -0.00, -1.00, 747.3, 134.9)"> </text><text xml:space="preserve" font-family="Georgia,Georgia" font-size="28.0" fill="#000000" transform="matrix(1.00, 0.00, -0.00, -1.00, 754.1, 134.9)">v</text><text xml:space="preserve" font-family="Georgia,Georgia" font-size="28.0" fill="#000000" transform="matrix(1.00, 0.00, -0.00, -1.00, 768.0, 134.9)">a</text><text xml:space="preserve" font-family="Georgia,Georgia" font-size="28.0" fill="#000000" transform="matrix(1.00, 0.00, -0.00, -1.00, 782.1, 134.9)">l</text><text xml:space="preserve" font-family="Georgia,Georgia" font-size="28.0" fill="#000000" transform="matrix(1.00, 0.00, -0.00, -1.00, 790.1, 134.9)">o</text><text xml:space="preserve" font-family="Georgia,Georgia" font-size="28.0" fill="#000000" transform="matrix(1.00, 0.00, -0.00, -1.00, 805.2, 134.9)">n</text><text xml:space="preserve" font-family="Georgia,Georgia" font-size="28.0" fill="#000000" transform="matrix(1.00, 0.00, -0.00, -1.00, 821.8, 134.9)">s</text><text xml:space="preserve" font-family="Georgia,Georgia" font-size="28.0" fill="#000000" transform="matrix(1.00, 0.00, -0.00, -1.00, 833.9, 134.9)">ä</text><text xml:space="preserve" font-family="Georgia,Georgia" font-size="28.0" fill="#000000" transform="matrix(1.00, 0.00, -0.00, -1.00, 848.0, 134.9)">t</text><text xml:space="preserve" font-family="Georgia,Georgia" font-size="28.0" fill="#000000" transform="matrix(1.00, 0.00, -0.00, -1.00, 857.6, 134.9)">e</text><text xml:space="preserve" font-family="Georgia,Georgia" font-size="28.0" fill="#000000" transform="matrix(1.00, 0.00, -0.00, -1.00, 871.2, 134.9)">e</text><text xml:space="preserve" font-family="Georgia,Georgia" font-size="28.0" fill="#000000" transform="matrix(1.00, 0.00, -0.00, -1.00, 884.7, 134.9)">t</text></g></svg>