<?xml version="1.0" encoding="UTF-8" standalone="no"?><svg xmlns="http://www.w3.org/2000/svg" xmlns:xlink="http://www.w3.org/1999/xlink" clip-rule="evenodd" stroke-miterlimit="10" viewBox="0 0 1024 768"><desc>SVG generated by Keynote</desc><defs></defs><g transform="matrix(1.00, 0.00, -0.00, -1.00, 0.0, 768.0)"><path d="M 0.0 768.0 L 1024.0 768.0 L 1024.0 0.0 L 0.0 0.0 Z M 0.0 768.0 " fill="#FEFFFF"></path><text xml:space="preserve" font-family="Georgia,Georgia" font-size="80.0" fill="#000000" transform="matrix(1.00, 0.00, -0.00, -1.00, 145.8, 664.9)">V</text><text xml:space="preserve" font-family="Georgia,Georgia" font-size="80.0" fill="#000000" transform="matrix(1.00, 0.00, -0.00, -1.00, 199.0, 664.9)">a</text><text xml:space="preserve" font-family="Georgia,Georgia" font-size="80.0" fill="#000000" transform="matrix(1.00, 0.00, -0.00, -1.00, 239.3, 664.9)">l</text><text xml:space="preserve" font-family="Georgia,Georgia" font-size="80.0" fill="#000000" transform="matrix(1.00, 0.00, -0.00, -1.00, 262.2, 664.9)">o</text><text xml:space="preserve" font-family="Georgia,Georgia" font-size="80.0" fill="#000000" transform="matrix(1.00, 0.00, -0.00, -1.00, 305.4, 664.9)"> </text><text xml:space="preserve" font-family="Georgia,Georgia" font-size="80.0" fill="#000000" transform="matrix(1.00, 0.00, -0.00, -1.00, 324.7, 664.9)">t</text><text xml:space="preserve" font-family="Georgia,Georgia" font-size="80.0" fill="#000000" transform="matrix(1.00, 0.00, -0.00, -1.00, 352.3, 664.9)">a</text><text xml:space="preserve" font-family="Georgia,Georgia" font-size="80.0" fill="#000000" transform="matrix(1.00, 0.00, -0.00, -1.00, 392.6, 664.9)">i</text><text xml:space="preserve" font-family="Georgia,Georgia" font-size="80.0" fill="#000000" transform="matrix(1.00, 0.00, -0.00, -1.00, 416.1, 664.9)">t</text><text xml:space="preserve" font-family="Georgia,Georgia" font-size="80.0" fill="#000000" transform="matrix(1.00, 0.00, -0.00, -1.00, 443.7, 664.9)">t</text><text xml:space="preserve" font-family="Georgia,Georgia" font-size="80.0" fill="#000000" transform="matrix(1.00, 0.00, -0.00, -1.00, 471.3, 664.9)">u</text><text xml:space="preserve" font-family="Georgia,Georgia" font-size="80.0" fill="#000000" transform="matrix(1.00, 0.00, -0.00, -1.00, 517.4, 664.9)">u</text><text xml:space="preserve" font-family="Georgia,Georgia" font-size="80.0" fill="#000000" transform="matrix(1.00, 0.00, -0.00, -1.00, 563.4, 664.9)"> </text><text xml:space="preserve" font-family="Georgia,Georgia" font-size="80.0" fill="#000000" transform="matrix(1.00, 0.00, -0.00, -1.00, 582.7, 664.9)">l</text><text xml:space="preserve" font-family="Georgia,Georgia" font-size="80.0" fill="#000000" transform="matrix(1.00, 0.00, -0.00, -1.00, 605.6, 664.9)">i</text><text xml:space="preserve" font-family="Georgia,Georgia" font-size="80.0" fill="#000000" transform="matrix(1.00, 0.00, -0.00, -1.00, 629.0, 664.9)">n</text><text xml:space="preserve" font-family="Georgia,Georgia" font-size="80.0" fill="#000000" transform="matrix(1.00, 0.00, -0.00, -1.00, 676.3, 664.9)">s</text><text xml:space="preserve" font-family="Georgia,Georgia" font-size="80.0" fill="#000000" transform="matrix(1.00, 0.00, -0.00, -1.00, 710.9, 664.9)">s</text><text xml:space="preserve" font-family="Georgia,Georgia" font-size="80.0" fill="#000000" transform="matrix(1.00, 0.00, -0.00, -1.00, 745.4, 664.9)">i</text><text xml:space="preserve" font-family="Georgia,Georgia" font-size="80.0" fill="#000000" transform="matrix(1.00, 0.00, -0.00, -1.00, 768.9, 664.9)">s</text><text xml:space="preserve" font-family="Georgia,Georgia" font-size="80.0" fill="#000000" transform="matrix(1.00, 0.00, -0.00, -1.00, 803.5, 664.9)">s</text><text xml:space="preserve" font-family="Georgia,Georgia" font-size="80.0" fill="#000000" transform="matrix(1.00, 0.00, -0.00, -1.00, 838.0, 664.9)">ä</text><path d="M 427.0 518.0 C 438.9 463.7 448.8 402.8 448.3 340.3 C 447.9 282.6 439.2 227.0 428.4 177.0 L 494.5 177.0 C 479.3 230.5 471.7 286.2 471.9 341.8 C 472.1 401.4 481.3 461.1 499.1 518.0 L 427.0 518.0 Z M 427.0 517.7 " fill="#94DCFF"></path><path d="M 0.0 0.1 L 127.2 0.1 L 128.0 0.1 " fill="none" stroke="#DCBD22" stroke-width="2.00" transform="matrix(1.00, 0.00, 0.00, -1.00, 155.0, 456.1)"></path><path d="M 282.0 451.2 L 291.6 456.0 L 282.0 460.8 Z M 282.0 451.2 " fill="#DCBD22"></path><path d="M -0.1 0.1 L 146.9 0.1 " fill="none" stroke="#DCBD22" stroke-width="2.00" transform="matrix(1.00, 0.00, 0.00, -1.00, 291.1, 456.1)"></path><path d="M 0.0 0.0 L 48.1 0.0 " fill="none" stroke="#DCBD22" stroke-width="2.00" transform="matrix(0.98, 0.19, 0.19, -0.98, 436.8, 456.1)"></path><path d="M 0.0 0.0 L 202.8 0.0 " fill="none" stroke="#DCBD22" stroke-width="2.00" transform="matrix(0.78, 0.62, 0.62, -0.78, 484.3, 464.4)"></path><path d="M -0.1 0.1 L 148.9 0.1 " fill="none" stroke="#DCBD22" stroke-width="2.00" transform="matrix(1.00, 0.00, 0.00, -1.00, 290.1, 241.1)"></path><path d="M 0.0 0.0 L 45.0 0.0 " fill="none" stroke="#DCBD22" stroke-width="2.00" transform="matrix(0.96, -0.27, -0.27, -0.96, 438.4, 241.1)"></path><path d="M 0.0 0.0 L 272.1 0.0 " fill="none" stroke="#DCBD22" stroke-width="2.00" transform="matrix(0.80, -0.59, -0.59, -0.80, 481.3, 228.6)"></path><path d="M 0.0 0.0 L 414.5 0.0 " fill="none" stroke="#DCBD22" stroke-width="2.00" transform="matrix(1.00, 0.01, 0.01, -1.00, 292.1, 348.1)"></path><path d="M 0.0 0.1 L 127.2 0.1 L 128.0 0.1 " fill="none" stroke="#DCBD22" stroke-width="2.00" transform="matrix(1.00, 0.00, 0.00, -1.00, 154.0, 241.1)"></path><path d="M 281.0 236.2 L 290.6 241.0 L 281.0 245.8 Z M 281.0 236.2 " fill="#DCBD22"></path><path d="M 0.0 0.1 L 127.2 0.1 L 128.0 0.1 " fill="none" stroke="#DCBD22" stroke-width="2.00" transform="matrix(1.00, 0.00, 0.00, -1.00, 156.0, 348.1)"></path><path d="M 283.0 343.2 L 292.6 348.0 L 283.0 352.8 Z M 283.0 343.2 " fill="#DCBD22"></path><image xlink:href="../../01C4B9AA-ABCB-4E1D-AD72-BE76F27FD7C5/assets/88DBCE0FA269C7A2E842BEC045FB182F.png" width="16.00" height="16.00" transform="matrix(0.98, 0.00, -0.00, -0.98, 324.0, 352.5)" opacity="0.50"></image><path d="M 335.2 350.1 C 337.1 348.2 337.1 345.2 335.2 343.3 C 333.3 341.4 330.3 341.4 328.4 343.3 C 326.5 345.2 326.5 348.2 328.4 350.1 C 330.3 351.9 333.3 351.9 335.2 350.1 Z M 335.2 350.1 " fill="#000000"></path><text xml:space="preserve" font-family="Georgia,Georgia" font-size="28.0" fill="#000000" transform="matrix(1.00, 0.00, -0.00, -1.00, 219.7, 147.0)">V</text><text xml:space="preserve" font-family="Georgia,Georgia" font-size="28.0" fill="#000000" transform="matrix(1.00, 0.00, -0.00, -1.00, 238.3, 147.0)">a</text><text xml:space="preserve" font-family="Georgia,Georgia" font-size="28.0" fill="#000000" transform="matrix(1.00, 0.00, -0.00, -1.00, 252.4, 147.0)">l</text><text xml:space="preserve" font-family="Georgia,Georgia" font-size="28.0" fill="#000000" transform="matrix(1.00, 0.00, -0.00, -1.00, 260.4, 147.0)">e</text><text xml:space="preserve" font-family="Georgia,Georgia" font-size="28.0" fill="#000000" transform="matrix(1.00, 0.00, -0.00, -1.00, 274.0, 147.0)">p</text><text xml:space="preserve" font-family="Georgia,Georgia" font-size="28.0" fill="#000000" transform="matrix(1.00, 0.00, -0.00, -1.00, 290.0, 147.0)">o</text><text xml:space="preserve" font-family="Georgia,Georgia" font-size="28.0" fill="#000000" transform="matrix(1.00, 0.00, -0.00, -1.00, 305.1, 147.0)">l</text><text xml:space="preserve" font-family="Georgia,Georgia" font-size="28.0" fill="#000000" transform="matrix(1.00, 0.00, -0.00, -1.00, 313.1, 147.0)">t</text><text xml:space="preserve" font-family="Georgia,Georgia" font-size="28.0" fill="#000000" transform="matrix(1.00, 0.00, -0.00, -1.00, 322.8, 147.0)">t</text><text xml:space="preserve" font-family="Georgia,Georgia" font-size="28.0" fill="#000000" transform="matrix(1.00, 0.00, -0.00, -1.00, 332.4, 147.0)">o</text><text xml:space="preserve" font-family="Georgia,Georgia" font-size="28.0" fill="#000000" transform="matrix(1.00, 0.00, -0.00, -1.00, 347.5, 147.0)">p</text><text xml:space="preserve" font-family="Georgia,Georgia" font-size="28.0" fill="#000000" transform="matrix(1.00, 0.00, -0.00, -1.00, 363.5, 147.0)">i</text><text xml:space="preserve" font-family="Georgia,Georgia" font-size="28.0" fill="#000000" transform="matrix(1.00, 0.00, -0.00, -1.00, 371.8, 147.0)">s</text><text xml:space="preserve" font-family="Georgia,Georgia" font-size="28.0" fill="#000000" transform="matrix(1.00, 0.00, -0.00, -1.00, 383.9, 147.0)">t</text><text xml:space="preserve" font-family="Georgia,Georgia" font-size="28.0" fill="#000000" transform="matrix(1.00, 0.00, -0.00, -1.00, 393.5, 147.0)">e</text><path d="M 0.0 0.0 L 139.8 0.0 L 140.8 0.0 " fill="none" stroke="#000000" stroke-width="2.00" transform="matrix(0.26, 0.96, 0.96, -0.26, 291.6, 190.6)"></path><path d="M 332.8 324.2 L 330.7 334.7 L 323.6 326.7 Z M 332.8 324.2 " fill="#000000"></path><path d="M 0.0 0.0 L 191.1 0.0 " fill="none" stroke="#DCBD22" stroke-width="2.00" stroke-dasharray="12.0, 12.0" transform="matrix(0.79, 0.61, 0.61, -0.79, 336.3, 348.4)"></path><path d="M 0.0 0.0 L 182.4 0.0 " fill="none" stroke="#DCBD22" stroke-width="2.00" stroke-dasharray="12.0, 12.0" transform="matrix(0.79, -0.61, -0.61, -0.79, 333.8, 343.6)"></path></g></svg>