<?xml version="1.0" encoding="UTF-8" standalone="no"?><svg xmlns="http://www.w3.org/2000/svg" xmlns:xlink="http://www.w3.org/1999/xlink" clip-rule="evenodd" stroke-miterlimit="10" viewBox="0 0 1024 768"><desc>SVG generated by Keynote</desc><defs></defs><g transform="matrix(1.00, 0.00, -0.00, -1.00, 0.0, 768.0)"><path d="M 0.0 768.0 L 1024.0 768.0 L 1024.0 0.0 L 0.0 0.0 Z M 0.0 768.0 " fill="#FEFFFF"></path><text xml:space="preserve" font-family="Georgia,Georgia" font-size="65.0" fill="#000000" transform="matrix(1.00, 0.00, -0.00, -1.00, 376.0, 648.3)">N</text><text xml:space="preserve" font-family="Georgia,Georgia" font-size="65.0" fill="#000000" transform="matrix(1.00, 0.00, -0.00, -1.00, 425.9, 648.3)">o</text><text xml:space="preserve" font-family="Georgia,Georgia" font-size="65.0" fill="#000000" transform="matrix(1.00, 0.00, -0.00, -1.00, 460.9, 648.3)">r</text><text xml:space="preserve" font-family="Georgia,Georgia" font-size="65.0" fill="#000000" transform="matrix(1.00, 0.00, -0.00, -1.00, 487.6, 648.3)">m</text><text xml:space="preserve" font-family="Georgia,Georgia" font-size="65.0" fill="#000000" transform="matrix(1.00, 0.00, -0.00, -1.00, 544.8, 648.3)">a</text><text xml:space="preserve" font-family="Georgia,Georgia" font-size="65.0" fill="#000000" transform="matrix(1.00, 0.00, -0.00, -1.00, 577.6, 648.3)">a</text><text xml:space="preserve" font-family="Georgia,Georgia" font-size="65.0" fill="#000000" transform="matrix(1.00, 0.00, -0.00, -1.00, 610.4, 648.3)">l</text><text xml:space="preserve" font-family="Georgia,Georgia" font-size="65.0" fill="#000000" transform="matrix(1.00, 0.00, -0.00, -1.00, 629.0, 648.3)">i</text><text xml:space="preserve" font-family="Georgia,Georgia" font-size="27.0" fill="#000000" transform="matrix(1.00, 0.00, -0.00, -1.00, 79.0, 580.6)">•</text><text xml:space="preserve" font-family="Georgia,Georgia" font-size="36.0" fill="#000000" transform="matrix(1.00, 0.00, -0.00, -1.00, 114.0, 577.6)">P</text><text xml:space="preserve" font-family="Georgia,Georgia" font-size="36.0" fill="#000000" transform="matrix(1.00, 0.00, -0.00, -1.00, 136.0, 577.6)">i</text><text xml:space="preserve" font-family="Georgia,Georgia" font-size="36.0" fill="#000000" transform="matrix(1.00, 0.00, -0.00, -1.00, 146.5, 577.6)">n</text><text xml:space="preserve" font-family="Georgia,Georgia" font-size="36.0" fill="#000000" transform="matrix(1.00, 0.00, -0.00, -1.00, 167.8, 577.6)">n</text><text xml:space="preserve" font-family="Georgia,Georgia" font-size="36.0" fill="#000000" transform="matrix(1.00, 0.00, -0.00, -1.00, 189.0, 577.6)">a</text><text xml:space="preserve" font-family="Georgia,Georgia" font-size="36.0" fill="#000000" transform="matrix(1.00, 0.00, -0.00, -1.00, 207.2, 577.6)">n</text><text xml:space="preserve" font-family="Georgia,Georgia" font-size="36.0" fill="#000000" transform="matrix(1.00, 0.00, -0.00, -1.00, 228.4, 577.6)"> </text><text xml:space="preserve" font-family="Georgia,Georgia" font-size="36.0" fill="#000000" transform="matrix(1.00, 0.00, -0.00, -1.00, 237.1, 577.6)">k</text><text xml:space="preserve" font-family="Georgia,Georgia" font-size="36.0" fill="#000000" transform="matrix(1.00, 0.00, -0.00, -1.00, 256.4, 577.6)">o</text><text xml:space="preserve" font-family="Georgia,Georgia" font-size="36.0" fill="#000000" transform="matrix(1.00, 0.00, -0.00, -1.00, 275.8, 577.6)">h</text><text xml:space="preserve" font-family="Georgia,Georgia" font-size="36.0" fill="#000000" transform="matrix(1.00, 0.00, -0.00, -1.00, 296.7, 577.6)">t</text><text xml:space="preserve" font-family="Georgia,Georgia" font-size="36.0" fill="#000000" transform="matrix(1.00, 0.00, -0.00, -1.00, 309.2, 577.6)">i</text><text xml:space="preserve" font-family="Georgia,Georgia" font-size="36.0" fill="#000000" transform="matrix(1.00, 0.00, -0.00, -1.00, 319.7, 577.6)">s</text><text xml:space="preserve" font-family="Georgia,Georgia" font-size="36.0" fill="#000000" transform="matrix(1.00, 0.00, -0.00, -1.00, 335.3, 577.6)">u</text><text xml:space="preserve" font-family="Georgia,Georgia" font-size="36.0" fill="#000000" transform="matrix(1.00, 0.00, -0.00, -1.00, 356.0, 577.6)">o</text><text xml:space="preserve" font-family="Georgia,Georgia" font-size="36.0" fill="#000000" transform="matrix(1.00, 0.00, -0.00, -1.00, 375.4, 577.6)">r</text><text xml:space="preserve" font-family="Georgia,Georgia" font-size="36.0" fill="#000000" transform="matrix(1.00, 0.00, -0.00, -1.00, 390.1, 577.6)">a</text><text xml:space="preserve" font-family="Georgia,Georgia" font-size="36.0" fill="#000000" transform="matrix(1.00, 0.00, -0.00, -1.00, 408.3, 577.6)">a</text><text xml:space="preserve" font-family="Georgia,Georgia" font-size="36.0" fill="#000000" transform="matrix(1.00, 0.00, -0.00, -1.00, 426.4, 577.6)"> </text><text xml:space="preserve" font-family="Georgia,Georgia" font-size="36.0" fill="#000000" transform="matrix(1.00, 0.00, -0.00, -1.00, 435.1, 577.6)">k</text><text xml:space="preserve" font-family="Georgia,Georgia" font-size="36.0" fill="#000000" transform="matrix(1.00, 0.00, -0.00, -1.00, 454.4, 577.6)">u</text><text xml:space="preserve" font-family="Georgia,Georgia" font-size="36.0" fill="#000000" transform="matrix(1.00, 0.00, -0.00, -1.00, 475.1, 577.6)">t</text><text xml:space="preserve" font-family="Georgia,Georgia" font-size="36.0" fill="#000000" transform="matrix(1.00, 0.00, -0.00, -1.00, 487.5, 577.6)">s</text><text xml:space="preserve" font-family="Georgia,Georgia" font-size="36.0" fill="#000000" transform="matrix(1.00, 0.00, -0.00, -1.00, 503.1, 577.6)">u</text><text xml:space="preserve" font-family="Georgia,Georgia" font-size="36.0" fill="#000000" transform="matrix(1.00, 0.00, -0.00, -1.00, 523.8, 577.6)">t</text><text xml:space="preserve" font-family="Georgia,Georgia" font-size="36.0" fill="#000000" transform="matrix(1.00, 0.00, -0.00, -1.00, 536.2, 577.6)">a</text><text xml:space="preserve" font-family="Georgia,Georgia" font-size="36.0" fill="#000000" transform="matrix(1.00, 0.00, -0.00, -1.00, 554.4, 577.6)">a</text><text xml:space="preserve" font-family="Georgia,Georgia" font-size="36.0" fill="#000000" transform="matrix(1.00, 0.00, -0.00, -1.00, 572.5, 577.6)">n</text><text xml:space="preserve" font-family="Georgia,Georgia" font-size="36.0" fill="#000000" transform="matrix(1.00, 0.00, -0.00, -1.00, 593.8, 577.6)"> </text><text xml:space="preserve" font-family="Georgia,Georgia" font-size="36.0" fill="#000000" transform="matrix(1.00, 0.00, -0.00, -1.00, 602.5, 577.6)">n</text><text xml:space="preserve" font-family="Georgia,Georgia" font-size="36.0" fill="#000000" transform="matrix(1.00, 0.00, -0.00, -1.00, 623.7, 577.6)">o</text><text xml:space="preserve" font-family="Georgia,Georgia" font-size="36.0" fill="#000000" transform="matrix(1.00, 0.00, -0.00, -1.00, 643.1, 577.6)">r</text><text xml:space="preserve" font-family="Georgia,Georgia" font-size="36.0" fill="#000000" transform="matrix(1.00, 0.00, -0.00, -1.00, 657.9, 577.6)">m</text><text xml:space="preserve" font-family="Georgia,Georgia" font-size="36.0" fill="#000000" transform="matrix(1.00, 0.00, -0.00, -1.00, 689.6, 577.6)">a</text><text xml:space="preserve" font-family="Georgia,Georgia" font-size="36.0" fill="#000000" transform="matrix(1.00, 0.00, -0.00, -1.00, 707.7, 577.6)">a</text><text xml:space="preserve" font-family="Georgia,Georgia" font-size="36.0" fill="#000000" transform="matrix(1.00, 0.00, -0.00, -1.00, 725.9, 577.6)">l</text><text xml:space="preserve" font-family="Georgia,Georgia" font-size="36.0" fill="#000000" transform="matrix(1.00, 0.00, -0.00, -1.00, 736.2, 577.6)">i</text><text xml:space="preserve" font-family="Georgia,Georgia" font-size="36.0" fill="#000000" transform="matrix(1.00, 0.00, -0.00, -1.00, 746.7, 577.6)">k</text><text xml:space="preserve" font-family="Georgia,Georgia" font-size="36.0" fill="#000000" transform="matrix(1.00, 0.00, -0.00, -1.00, 766.0, 577.6)">s</text><text xml:space="preserve" font-family="Georgia,Georgia" font-size="36.0" fill="#000000" transform="matrix(1.00, 0.00, -0.00, -1.00, 781.5, 577.6)">i</text><path d="M -0.4 -0.4 L 432.6 -0.4 " fill="none" stroke="#000000" stroke-width="2.00" transform="matrix(1.00, 0.00, 0.00, -1.00, 328.4, 215.6)"></path><path d="M 0.0 0.0 L 383.8 0.0 " fill="none" stroke="#BD5A0C" stroke-width="3.00" stroke-dasharray="6.0, 6.0" transform="matrix(0.54, 0.84, 0.84, -0.54, 399.6, 42.8)"></path><text xml:space="preserve" font-family="Georgia,Georgia" font-size="36.0" fill="#000000" transform="matrix(1.00, 0.00, -0.00, -1.00, 74.2, 475.4)">M</text><text xml:space="preserve" font-family="Georgia,Georgia" font-size="36.0" fill="#000000" transform="matrix(1.00, 0.00, -0.00, -1.00, 107.6, 475.4)">i</text><text xml:space="preserve" font-family="Georgia,Georgia" font-size="36.0" fill="#000000" transform="matrix(1.00, 0.00, -0.00, -1.00, 118.1, 475.4)">k</text><text xml:space="preserve" font-family="Georgia,Georgia" font-size="36.0" fill="#000000" transform="matrix(1.00, 0.00, -0.00, -1.00, 137.4, 475.4)">ä</text><text xml:space="preserve" font-family="Georgia,Georgia" font-size="36.0" fill="#000000" transform="matrix(1.00, 0.00, -0.00, -1.00, 155.6, 475.4)"> </text><text xml:space="preserve" font-family="Georgia,Georgia" font-size="36.0" fill="#000000" transform="matrix(1.00, 0.00, -0.00, -1.00, 164.2, 475.4)">s</text><text xml:space="preserve" font-family="Georgia,Georgia" font-size="36.0" fill="#000000" transform="matrix(1.00, 0.00, -0.00, -1.00, 179.8, 475.4)">e</text><text xml:space="preserve" font-family="Georgia,Georgia" font-size="36.0" fill="#000000" transform="matrix(1.00, 0.00, -0.00, -1.00, 197.2, 475.4)">u</text><text xml:space="preserve" font-family="Georgia,Georgia" font-size="36.0" fill="#000000" transform="matrix(1.00, 0.00, -0.00, -1.00, 217.9, 475.4)">r</text><text xml:space="preserve" font-family="Georgia,Georgia" font-size="36.0" fill="#000000" transform="matrix(1.00, 0.00, -0.00, -1.00, 232.7, 475.4)">a</text><text xml:space="preserve" font-family="Georgia,Georgia" font-size="36.0" fill="#000000" transform="matrix(1.00, 0.00, -0.00, -1.00, 250.8, 475.4)">a</text><text xml:space="preserve" font-family="Georgia,Georgia" font-size="36.0" fill="#000000" transform="matrix(1.00, 0.00, -0.00, -1.00, 268.9, 475.4)">v</text><text xml:space="preserve" font-family="Georgia,Georgia" font-size="36.0" fill="#000000" transform="matrix(1.00, 0.00, -0.00, -1.00, 286.8, 475.4)">i</text><text xml:space="preserve" font-family="Georgia,Georgia" font-size="36.0" fill="#000000" transform="matrix(1.00, 0.00, -0.00, -1.00, 297.4, 475.4)">s</text><text xml:space="preserve" font-family="Georgia,Georgia" font-size="36.0" fill="#000000" transform="matrix(1.00, 0.00, -0.00, -1.00, 312.9, 475.4)">t</text><text xml:space="preserve" font-family="Georgia,Georgia" font-size="36.0" fill="#000000" transform="matrix(1.00, 0.00, -0.00, -1.00, 325.3, 475.4)">a</text><text xml:space="preserve" font-family="Georgia,Georgia" font-size="36.0" fill="#000000" transform="matrix(1.00, 0.00, -0.00, -1.00, 343.5, 475.4)"> </text><text xml:space="preserve" font-family="Georgia,Georgia" font-size="36.0" fill="#000000" transform="matrix(1.00, 0.00, -0.00, -1.00, 352.2, 475.4)">o</text><text xml:space="preserve" font-family="Georgia,Georgia" font-size="36.0" fill="#000000" transform="matrix(1.00, 0.00, -0.00, -1.00, 371.6, 475.4)">n</text><text xml:space="preserve" font-family="Georgia,Georgia" font-size="36.0" fill="#000000" transform="matrix(1.00, 0.00, -0.00, -1.00, 392.8, 475.4)"> </text><text xml:space="preserve" font-family="Georgia,Georgia" font-size="36.0" fill="#000000" transform="matrix(1.00, 0.00, -0.00, -1.00, 401.5, 475.4)">n</text><text xml:space="preserve" font-family="Georgia,Georgia" font-size="36.0" fill="#000000" transform="matrix(1.00, 0.00, -0.00, -1.00, 422.8, 475.4)">o</text><text xml:space="preserve" font-family="Georgia,Georgia" font-size="36.0" fill="#000000" transform="matrix(1.00, 0.00, -0.00, -1.00, 442.2, 475.4)">r</text><text xml:space="preserve" font-family="Georgia,Georgia" font-size="36.0" fill="#000000" transform="matrix(1.00, 0.00, -0.00, -1.00, 456.9, 475.4)">m</text><text xml:space="preserve" font-family="Georgia,Georgia" font-size="36.0" fill="#000000" transform="matrix(1.00, 0.00, -0.00, -1.00, 488.7, 475.4)">a</text><text xml:space="preserve" font-family="Georgia,Georgia" font-size="36.0" fill="#000000" transform="matrix(1.00, 0.00, -0.00, -1.00, 506.8, 475.4)">a</text><text xml:space="preserve" font-family="Georgia,Georgia" font-size="36.0" fill="#000000" transform="matrix(1.00, 0.00, -0.00, -1.00, 524.9, 475.4)">l</text><text xml:space="preserve" font-family="Georgia,Georgia" font-size="36.0" fill="#000000" transform="matrix(1.00, 0.00, -0.00, -1.00, 535.2, 475.4)">i</text><text xml:space="preserve" font-family="Georgia,Georgia" font-size="36.0" fill="#000000" transform="matrix(1.00, 0.00, -0.00, -1.00, 545.8, 475.4)">?</text><path d="M 0.0 0.0 L 346.9 0.0 " fill="none" stroke="#BD5A0C" stroke-width="3.00" stroke-dasharray="6.0, 6.0" transform="matrix(0.88, 0.47, 0.47, -0.88, 364.3, 136.2)"></path><path d="M -0.4 -0.2 L 358.6 -0.2 " fill="none" stroke="#BD5A0C" stroke-width="3.00" stroke-dasharray="6.0, 6.0" transform="matrix(0.00, 1.00, 1.00, 0.00, 514.7, 32.4)"></path><g><clipPath id="clip0x7f8e7e492a10"><path d="M 601.7 343.2 L 683.7 343.2 L 683.7 425.2 L 601.7 425.2 Z M 601.7 343.2 "></path></clipPath><g clip-path="url(#clip0x7f8e7e492a10)"><image xlink:href="../../F52AC24A-3983-4222-9BE7-A56F107F58E2/assets/D036DD584701D6D3C78097235DF49C63.png" width="80.00" height="80.00" transform="matrix(1.00, 0.00, -0.00, -1.00, 602.7, 424.2)" opacity="0.50"></image><path d="M 668.9 412.4 C 683.3 397.9 683.3 374.5 668.9 360.0 C 654.4 345.6 631.0 345.6 616.5 360.0 C 602.1 374.5 602.1 397.9 616.5 412.4 C 631.0 426.8 654.4 426.8 668.9 412.4 Z M 668.9 412.4 " fill="#C82505"></path></g></g><g><clipPath id="clip0x7f8e7b2f9dd0"><path d="M 603.0 335.2 L 707.5 335.2 L 707.5 446.1 L 603.0 446.1 Z M 603.0 335.2 "></path></clipPath><g clip-path="url(#clip0x7f8e7b2f9dd0)"><text xml:space="preserve" font-family="LMRoman10-Regular,Latin Modern Roman" font-size="52.0" fill="#000000" transform="matrix(1.00, 0.00, -0.00, -1.00, 621.4, 368.7)">B</text><text xml:space="preserve" font-family="LMRoman10-Regular,Latin Modern Roman" font-size="52.0" fill="#000000" transform="matrix(1.00, 0.00, -0.00, -1.00, 658.3, 368.7)">.</text></g></g><g><clipPath id="clip0x7f8e7b281860"><path d="M 426.8 333.7 L 508.9 333.7 L 508.9 415.7 L 426.8 415.7 Z M 426.8 333.7 "></path></clipPath><g clip-path="url(#clip0x7f8e7b281860)"><image xlink:href="../../F52AC24A-3983-4222-9BE7-A56F107F58E2/assets/D036DD584701D6D3C78097235DF49C63.png" width="80.00" height="80.00" transform="matrix(1.00, 0.00, -0.00, -1.00, 427.8, 414.7)" opacity="0.50"></image><path d="M 494.0 402.9 C 508.5 388.4 508.5 365.0 494.0 350.6 C 479.6 336.1 456.1 336.1 441.7 350.6 C 427.2 365.0 427.2 388.4 441.7 402.9 C 456.1 417.4 479.6 417.4 494.0 402.9 Z M 494.0 402.9 " fill="#00872A"></path></g></g><g><clipPath id="clip0x7f8e7b283b60"><path d="M 425.2 325.3 L 516.5 325.3 L 516.5 436.2 L 425.2 436.2 Z M 425.2 325.3 "></path></clipPath><g clip-path="url(#clip0x7f8e7b283b60)"><text xml:space="preserve" font-family="LMRoman10-Regular,Latin Modern Roman" font-size="52.0" fill="#000000" transform="matrix(1.00, 0.00, -0.00, -1.00, 443.6, 358.8)">A</text><text xml:space="preserve" font-family="LMRoman10-Regular,Latin Modern Roman" font-size="52.0" fill="#000000" transform="matrix(1.00, 0.00, -0.00, -1.00, 482.6, 358.8)">.</text></g></g><g><clipPath id="clip0x7f8e7b277fe0"><path d="M 675.2 275.8 L 757.2 275.8 L 757.2 357.8 L 675.2 357.8 Z M 675.2 275.8 "></path></clipPath><g clip-path="url(#clip0x7f8e7b277fe0)"><image xlink:href="../../F52AC24A-3983-4222-9BE7-A56F107F58E2/assets/D036DD584701D6D3C78097235DF49C63.png" width="80.00" height="80.00" transform="matrix(1.00, 0.00, -0.00, -1.00, 676.2, 356.8)" opacity="0.50"></image><path d="M 742.4 345.0 C 756.8 330.5 756.8 307.1 742.4 292.6 C 727.9 278.2 704.5 278.2 690.0 292.6 C 675.6 307.1 675.6 330.5 690.0 345.0 C 704.5 359.4 727.9 359.4 742.4 345.0 Z M 742.4 345.0 " fill="#0264C0"></path></g></g><g><clipPath id="clip0x7f8e7b26de60"><path d="M 672.9 266.9 L 777.4 266.9 L 777.4 377.7 L 672.9 377.7 Z M 672.9 266.9 "></path></clipPath><g clip-path="url(#clip0x7f8e7b26de60)"><text xml:space="preserve" font-family="LMRoman10-Regular,Latin Modern Roman" font-size="52.0" fill="#000000" transform="matrix(1.00, 0.00, -0.00, -1.00, 691.3, 300.4)">C</text><text xml:space="preserve" font-family="LMRoman10-Regular,Latin Modern Roman" font-size="52.0" fill="#000000" transform="matrix(1.00, 0.00, -0.00, -1.00, 728.8, 300.4)">.</text></g></g><g><clipPath id="clip0x7f8e7b355290"><path d="M 756.5 170.7 L 838.6 170.7 L 838.6 252.7 L 756.5 252.7 Z M 756.5 170.7 "></path></clipPath><g clip-path="url(#clip0x7f8e7b355290)"><image xlink:href="../../F52AC24A-3983-4222-9BE7-A56F107F58E2/assets/D036DD584701D6D3C78097235DF49C63.png" width="80.00" height="80.00" transform="matrix(1.00, 0.00, -0.00, -1.00, 757.5, 251.7)" opacity="0.50"></image><path d="M 823.7 239.8 C 838.2 225.4 838.2 202.0 823.7 187.5 C 809.3 173.0 785.8 173.0 771.4 187.5 C 756.9 202.0 756.9 225.4 771.4 239.8 C 785.8 254.3 809.3 254.3 823.7 239.8 Z M 823.7 239.8 " fill="#F5D327"></path></g></g><g><clipPath id="clip0x7f8e809b0ee0"><path d="M 755.7 161.7 L 860.2 161.7 L 860.2 272.6 L 755.7 272.6 Z M 755.7 161.7 "></path></clipPath><g clip-path="url(#clip0x7f8e809b0ee0)"><text xml:space="preserve" font-family="LMRoman10-Regular,Latin Modern Roman" font-size="52.0" fill="#000000" transform="matrix(1.00, 0.00, -0.00, -1.00, 774.2, 195.2)">D</text><text xml:space="preserve" font-family="LMRoman10-Regular,Latin Modern Roman" font-size="52.0" fill="#000000" transform="matrix(1.00, 0.00, -0.00, -1.00, 813.9, 195.2)">.</text></g></g><g><clipPath id="clip0x7f8e809b2910"><path d="M 708.0 17.3 L 790.1 17.3 L 790.1 99.3 L 708.0 99.3 Z M 708.0 17.3 "></path></clipPath><g clip-path="url(#clip0x7f8e809b2910)"><image xlink:href="../../F52AC24A-3983-4222-9BE7-A56F107F58E2/assets/D036DD584701D6D3C78097235DF49C63.png" width="80.00" height="80.00" transform="matrix(1.00, 0.00, -0.00, -1.00, 709.0, 98.3)" opacity="0.50"></image><path d="M 775.2 86.5 C 789.7 72.0 789.7 48.6 775.2 34.1 C 760.8 19.7 737.3 19.7 722.9 34.1 C 708.4 48.6 708.4 72.0 722.9 86.5 C 737.3 100.9 760.8 100.9 775.2 86.5 Z M 775.2 86.5 " fill="#000000"></path></g></g><g><clipPath id="clip0x7f8e809b4990"><path d="M 712.7 8.4 L 817.2 8.4 L 817.2 119.2 L 712.7 119.2 Z M 712.7 8.4 "></path></clipPath><g clip-path="url(#clip0x7f8e809b4990)"><text xml:space="preserve" font-family="LMRoman10-Regular,Latin Modern Roman" font-size="52.0" fill="#FEFFFE" transform="matrix(1.00, 0.00, -0.00, -1.00, 731.2, 41.9)">E</text><text xml:space="preserve" font-family="LMRoman10-Regular,Latin Modern Roman" font-size="52.0" fill="#FEFFFE" transform="matrix(1.00, 0.00, -0.00, -1.00, 766.6, 41.9)">.</text></g></g><text xml:space="preserve" font-family="LMRoman10-Regular,Latin Modern Roman" font-size="50.0" fill="#000000" transform="matrix(1.00, 0.00, -0.00, -1.00, 811.2, 43.3)">?</text><text xml:space="preserve" font-family="LMRoman10-Regular,Latin Modern Roman" font-size="50.0" fill="#000000" transform="matrix(1.00, 0.00, -0.00, -1.00, 834.8, 43.3)">?</text></g></svg>