<?xml version="1.0" encoding="UTF-8" standalone="no"?><svg xmlns="http://www.w3.org/2000/svg" xmlns:xlink="http://www.w3.org/1999/xlink" clip-rule="evenodd" stroke-miterlimit="10" viewBox="0 0 1024 768"><desc>SVG generated by Keynote</desc><defs></defs><g transform="matrix(1.00, 0.00, -0.00, -1.00, 0.0, 768.0)"><path d="M 0.0 768.0 L 1024.0 768.0 L 1024.0 0.0 L 0.0 0.0 Z M 0.0 768.0 " fill="#FEFFFF"></path><text xml:space="preserve" font-family="Georgia,Georgia" font-size="65.0" fill="#000000" transform="matrix(1.00, 0.00, -0.00, -1.00, 439.7, 625.3)">T</text><text xml:space="preserve" font-family="Georgia,Georgia" font-size="65.0" fill="#000000" transform="matrix(1.00, 0.00, -0.00, -1.00, 479.9, 625.3)">e</text><text xml:space="preserve" font-family="Georgia,Georgia" font-size="65.0" fill="#000000" transform="matrix(1.00, 0.00, -0.00, -1.00, 511.4, 625.3)">h</text><text xml:space="preserve" font-family="Georgia,Georgia" font-size="65.0" fill="#000000" transform="matrix(1.00, 0.00, -0.00, -1.00, 549.2, 625.3)">o</text><text xml:space="preserve" font-family="Georgia,Georgia" font-size="27.0" fill="#000000" transform="matrix(1.00, 0.00, -0.00, -1.00, 79.0, 513.6)">•</text><text xml:space="preserve" font-family="Georgia,Georgia" font-size="36.0" fill="#000000" transform="matrix(1.00, 0.00, -0.00, -1.00, 114.0, 510.6)">T</text><text xml:space="preserve" font-family="Georgia,Georgia" font-size="36.0" fill="#000000" transform="matrix(1.00, 0.00, -0.00, -1.00, 136.3, 510.6)">e</text><text xml:space="preserve" font-family="Georgia,Georgia" font-size="36.0" fill="#000000" transform="matrix(1.00, 0.00, -0.00, -1.00, 153.7, 510.6)">h</text><text xml:space="preserve" font-family="Georgia,Georgia" font-size="36.0" fill="#000000" transform="matrix(1.00, 0.00, -0.00, -1.00, 174.6, 510.6)">o</text><text xml:space="preserve" font-family="Georgia,Georgia" font-size="36.0" fill="#000000" transform="matrix(1.00, 0.00, -0.00, -1.00, 194.0, 510.6)"> </text><text xml:space="preserve" font-family="Georgia,Georgia" font-size="36.0" fill="#000000" transform="matrix(1.00, 0.00, -0.00, -1.00, 202.7, 510.6)">k</text><text xml:space="preserve" font-family="Georgia,Georgia" font-size="36.0" fill="#000000" transform="matrix(1.00, 0.00, -0.00, -1.00, 222.0, 510.6)">u</text><text xml:space="preserve" font-family="Georgia,Georgia" font-size="36.0" fill="#000000" transform="matrix(1.00, 0.00, -0.00, -1.00, 242.7, 510.6)">v</text><text xml:space="preserve" font-family="Georgia,Georgia" font-size="36.0" fill="#000000" transform="matrix(1.00, 0.00, -0.00, -1.00, 260.6, 510.6)">a</text><text xml:space="preserve" font-family="Georgia,Georgia" font-size="36.0" fill="#000000" transform="matrix(1.00, 0.00, -0.00, -1.00, 278.7, 510.6)">a</text><text xml:space="preserve" font-family="Georgia,Georgia" font-size="36.0" fill="#000000" transform="matrix(1.00, 0.00, -0.00, -1.00, 296.9, 510.6)"> </text><text xml:space="preserve" font-family="Georgia,Georgia" font-size="36.0" fill="#000000" transform="matrix(1.00, 0.00, -0.00, -1.00, 305.5, 510.6)">t</text><text xml:space="preserve" font-family="Georgia,Georgia" font-size="36.0" fill="#000000" transform="matrix(1.00, 0.00, -0.00, -1.00, 318.0, 510.6)">y</text><text xml:space="preserve" font-family="Georgia,Georgia" font-size="36.0" fill="#000000" transform="matrix(1.00, 0.00, -0.00, -1.00, 335.7, 510.6)">ö</text><text xml:space="preserve" font-family="Georgia,Georgia" font-size="36.0" fill="#000000" transform="matrix(1.00, 0.00, -0.00, -1.00, 355.1, 510.6)">n</text><text xml:space="preserve" font-family="Georgia,Georgia" font-size="36.0" fill="#000000" transform="matrix(1.00, 0.00, -0.00, -1.00, 376.4, 510.6)">t</text><text xml:space="preserve" font-family="Georgia,Georgia" font-size="36.0" fill="#000000" transform="matrix(1.00, 0.00, -0.00, -1.00, 388.8, 510.6)">e</text><text xml:space="preserve" font-family="Georgia,Georgia" font-size="36.0" fill="#000000" transform="matrix(1.00, 0.00, -0.00, -1.00, 406.2, 510.6)">k</text><text xml:space="preserve" font-family="Georgia,Georgia" font-size="36.0" fill="#000000" transform="matrix(1.00, 0.00, -0.00, -1.00, 425.5, 510.6)">o</text><text xml:space="preserve" font-family="Georgia,Georgia" font-size="36.0" fill="#000000" transform="matrix(1.00, 0.00, -0.00, -1.00, 444.9, 510.6)">n</text><text xml:space="preserve" font-family="Georgia,Georgia" font-size="36.0" fill="#000000" transform="matrix(1.00, 0.00, -0.00, -1.00, 466.2, 510.6)">o</text><text xml:space="preserve" font-family="Georgia,Georgia" font-size="36.0" fill="#000000" transform="matrix(1.00, 0.00, -0.00, -1.00, 485.6, 510.6)">p</text><text xml:space="preserve" font-family="Georgia,Georgia" font-size="36.0" fill="#000000" transform="matrix(1.00, 0.00, -0.00, -1.00, 506.2, 510.6)">e</text><text xml:space="preserve" font-family="Georgia,Georgia" font-size="36.0" fill="#000000" transform="matrix(1.00, 0.00, -0.00, -1.00, 523.6, 510.6)">u</text><text xml:space="preserve" font-family="Georgia,Georgia" font-size="36.0" fill="#000000" transform="matrix(1.00, 0.00, -0.00, -1.00, 544.3, 510.6)">t</text><text xml:space="preserve" font-family="Georgia,Georgia" font-size="36.0" fill="#000000" transform="matrix(1.00, 0.00, -0.00, -1.00, 556.7, 510.6)">t</text><text xml:space="preserve" font-family="Georgia,Georgia" font-size="36.0" fill="#000000" transform="matrix(1.00, 0.00, -0.00, -1.00, 569.2, 510.6)">a</text><text xml:space="preserve" font-family="Georgia,Georgia" font-size="50.0" fill="#000000" transform="matrix(1.00, 0.00, -0.00, -1.00, 134.3, 366.5)">T</text><text xml:space="preserve" font-family="Georgia,Georgia" font-size="50.0" fill="#000000" transform="matrix(1.00, 0.00, -0.00, -1.00, 165.2, 366.5)">e</text><text xml:space="preserve" font-family="Georgia,Georgia" font-size="50.0" fill="#000000" transform="matrix(1.00, 0.00, -0.00, -1.00, 189.4, 366.5)">h</text><text xml:space="preserve" font-family="Georgia,Georgia" font-size="50.0" fill="#000000" transform="matrix(1.00, 0.00, -0.00, -1.00, 218.5, 366.5)">o</text><text xml:space="preserve" font-family="Georgia,Georgia" font-size="50.0" fill="#000000" transform="matrix(1.00, 0.00, -0.00, -1.00, 245.5, 366.5)"> </text><text xml:space="preserve" font-family="Georgia,Georgia" font-size="50.0" fill="#000000" transform="matrix(1.00, 0.00, -0.00, -1.00, 257.6, 366.5)">=</text><g><clipPath id="clip0x6080008acae0"><path d="M 302.5 367.5 L 689.0 367.5 L 689.0 442.5 L 302.5 442.5 Z M 302.5 367.5 "></path></clipPath><g clip-path="url(#clip0x6080008acae0)"><text xml:space="preserve" font-family="Georgia,Georgia" font-size="44.0" fill="#000000" transform="matrix(1.00, 0.00, -0.00, -1.00, 315.0, 389.6)"> </text><text xml:space="preserve" font-family="Georgia,Georgia" font-size="44.0" fill="#000000" transform="matrix(1.00, 0.00, -0.00, -1.00, 325.6, 389.6)"> </text><text xml:space="preserve" font-family="Georgia,Georgia" font-size="44.0" fill="#000000" transform="matrix(1.00, 0.00, -0.00, -1.00, 336.2, 389.6)"> </text><text xml:space="preserve" font-family="Georgia,Georgia" font-size="44.0" fill="#000000" transform="matrix(1.00, 0.00, -0.00, -1.00, 346.9, 389.6)"> </text><text xml:space="preserve" font-family="Georgia,Georgia" font-size="44.0" fill="#000000" transform="matrix(1.00, 0.00, -0.00, -1.00, 357.5, 389.6)"> </text><text xml:space="preserve" font-family="Georgia,Georgia" font-size="44.0" fill="#000000" transform="matrix(1.00, 0.00, -0.00, -1.00, 368.1, 389.6)"> </text><text xml:space="preserve" font-family="Georgia,Georgia" font-size="44.0" fill="#000000" transform="matrix(1.00, 0.00, -0.00, -1.00, 378.7, 389.6)"> </text><text xml:space="preserve" font-family="Georgia,Georgia" font-size="44.0" fill="#000000" transform="matrix(1.00, 0.00, -0.00, -1.00, 389.4, 389.6)"> </text><text xml:space="preserve" font-family="Georgia,Georgia" font-size="44.0" fill="#000000" transform="matrix(1.00, 0.00, -0.00, -1.00, 400.0, 389.6)"> </text><text xml:space="preserve" font-family="Georgia,Georgia" font-size="44.0" fill="#000000" transform="matrix(1.00, 0.00, -0.00, -1.00, 410.6, 389.6)">t</text><text xml:space="preserve" font-family="Georgia,Georgia" font-size="44.0" fill="#000000" transform="matrix(1.00, 0.00, -0.00, -1.00, 425.8, 389.6)">e</text><text xml:space="preserve" font-family="Georgia,Georgia" font-size="44.0" fill="#000000" transform="matrix(1.00, 0.00, -0.00, -1.00, 447.1, 389.6)">h</text><text xml:space="preserve" font-family="Georgia,Georgia" font-size="44.0" fill="#000000" transform="matrix(1.00, 0.00, -0.00, -1.00, 472.7, 389.6)">t</text><text xml:space="preserve" font-family="Georgia,Georgia" font-size="44.0" fill="#000000" transform="matrix(1.00, 0.00, -0.00, -1.00, 487.9, 389.6)">y</text><text xml:space="preserve" font-family="Georgia,Georgia" font-size="44.0" fill="#000000" transform="matrix(1.00, 0.00, -0.00, -1.00, 509.6, 389.6)"> </text><text xml:space="preserve" font-family="Georgia,Georgia" font-size="44.0" fill="#000000" transform="matrix(1.00, 0.00, -0.00, -1.00, 520.2, 389.6)">t</text><text xml:space="preserve" font-family="Georgia,Georgia" font-size="44.0" fill="#000000" transform="matrix(1.00, 0.00, -0.00, -1.00, 535.4, 389.6)">y</text><text xml:space="preserve" font-family="Georgia,Georgia" font-size="44.0" fill="#000000" transform="matrix(1.00, 0.00, -0.00, -1.00, 557.0, 389.6)">ö</text><text xml:space="preserve" font-family="Georgia,Georgia" font-size="44.0" fill="#000000" transform="matrix(1.00, 0.00, -0.00, -1.00, 580.8, 389.6)"> </text><text xml:space="preserve" font-family="Georgia,Georgia" font-size="44.0" fill="#000000" transform="matrix(1.00, 0.00, -0.00, -1.00, 591.4, 389.6)"> </text><text xml:space="preserve" font-family="Georgia,Georgia" font-size="44.0" fill="#000000" transform="matrix(1.00, 0.00, -0.00, -1.00, 602.0, 389.6)"> </text><text xml:space="preserve" font-family="Georgia,Georgia" font-size="44.0" fill="#000000" transform="matrix(1.00, 0.00, -0.00, -1.00, 612.6, 389.6)"> </text><text xml:space="preserve" font-family="Georgia,Georgia" font-size="44.0" fill="#000000" transform="matrix(1.00, 0.00, -0.00, -1.00, 623.3, 389.6)"> </text><text xml:space="preserve" font-family="Georgia,Georgia" font-size="44.0" fill="#000000" transform="matrix(1.00, 0.00, -0.00, -1.00, 633.9, 389.6)"> </text><text xml:space="preserve" font-family="Georgia,Georgia" font-size="44.0" fill="#000000" transform="matrix(1.00, 0.00, -0.00, -1.00, 644.5, 389.6)"> </text><text xml:space="preserve" font-family="Georgia,Georgia" font-size="44.0" fill="#000000" transform="matrix(1.00, 0.00, -0.00, -1.00, 655.1, 389.6)"> </text><text xml:space="preserve" font-family="Georgia,Georgia" font-size="44.0" fill="#FEFFFE" transform="matrix(1.00, 0.00, -0.00, -1.00, 665.5, 389.6)">‘</text><path d="M 4.0 48.2 L 354.5 48.2 " fill="none" stroke="#000000" stroke-width="2.17" transform="matrix(1.00, 0.00, 0.00, -1.00, 311.0, 434.0)"></path><path d="M 354.5 48.2 L 364.5 48.2 " fill="none" stroke="#FEFFFE" stroke-width="2.17" transform="matrix(1.00, 0.00, 0.00, -1.00, 311.0, 434.0)"></path></g></g><g><clipPath id="clip0x6080008a9b40"><path d="M 335.4 316.5 L 752.6 316.5 L 752.6 391.5 L 335.4 391.5 Z M 335.4 316.5 "></path></clipPath><g clip-path="url(#clip0x6080008a9b40)"><text xml:space="preserve" font-family="Georgia,Georgia" font-size="44.0" fill="#000000" transform="matrix(1.00, 0.00, -0.00, -1.00, 347.9, 338.6)">t</text><text xml:space="preserve" font-family="Georgia,Georgia" font-size="44.0" fill="#000000" transform="matrix(1.00, 0.00, -0.00, -1.00, 363.1, 338.6)">y</text><text xml:space="preserve" font-family="Georgia,Georgia" font-size="44.0" fill="#000000" transform="matrix(1.00, 0.00, -0.00, -1.00, 384.8, 338.6)">ö</text><text xml:space="preserve" font-family="Georgia,Georgia" font-size="44.0" fill="#000000" transform="matrix(1.00, 0.00, -0.00, -1.00, 408.5, 338.6)">h</text><text xml:space="preserve" font-family="Georgia,Georgia" font-size="44.0" fill="#000000" transform="matrix(1.00, 0.00, -0.00, -1.00, 434.1, 338.6)">ö</text><text xml:space="preserve" font-family="Georgia,Georgia" font-size="44.0" fill="#000000" transform="matrix(1.00, 0.00, -0.00, -1.00, 457.9, 338.6)">n</text><text xml:space="preserve" font-family="Georgia,Georgia" font-size="44.0" fill="#000000" transform="matrix(1.00, 0.00, -0.00, -1.00, 483.8, 338.6)"> </text><text xml:space="preserve" font-family="Georgia,Georgia" font-size="44.0" fill="#000000" transform="matrix(1.00, 0.00, -0.00, -1.00, 494.5, 338.6)">k</text><text xml:space="preserve" font-family="Georgia,Georgia" font-size="44.0" fill="#000000" transform="matrix(1.00, 0.00, -0.00, -1.00, 518.0, 338.6)">u</text><text xml:space="preserve" font-family="Georgia,Georgia" font-size="44.0" fill="#000000" transform="matrix(1.00, 0.00, -0.00, -1.00, 543.3, 338.6)">l</text><text xml:space="preserve" font-family="Georgia,Georgia" font-size="44.0" fill="#000000" transform="matrix(1.00, 0.00, -0.00, -1.00, 555.9, 338.6)">u</text><text xml:space="preserve" font-family="Georgia,Georgia" font-size="44.0" fill="#000000" transform="matrix(1.00, 0.00, -0.00, -1.00, 581.2, 338.6)">n</text><text xml:space="preserve" font-family="Georgia,Georgia" font-size="44.0" fill="#000000" transform="matrix(1.00, 0.00, -0.00, -1.00, 607.2, 338.6)">u</text><text xml:space="preserve" font-family="Georgia,Georgia" font-size="44.0" fill="#000000" transform="matrix(1.00, 0.00, -0.00, -1.00, 632.5, 338.6)">t</text><text xml:space="preserve" font-family="Georgia,Georgia" font-size="44.0" fill="#000000" transform="matrix(1.00, 0.00, -0.00, -1.00, 647.7, 338.6)"> </text><text xml:space="preserve" font-family="Georgia,Georgia" font-size="44.0" fill="#000000" transform="matrix(1.00, 0.00, -0.00, -1.00, 658.4, 338.6)">a</text><text xml:space="preserve" font-family="Georgia,Georgia" font-size="44.0" fill="#000000" transform="matrix(1.00, 0.00, -0.00, -1.00, 680.5, 338.6)">i</text><text xml:space="preserve" font-family="Georgia,Georgia" font-size="44.0" fill="#000000" transform="matrix(1.00, 0.00, -0.00, -1.00, 693.4, 338.6)">k</text><text xml:space="preserve" font-family="Georgia,Georgia" font-size="44.0" fill="#000000" transform="matrix(1.00, 0.00, -0.00, -1.00, 717.0, 338.6)">a</text></g></g><text xml:space="preserve" font-family="Georgia,Georgia" font-size="50.0" fill="#000000" transform="matrix(1.00, 0.00, -0.00, -1.00, 314.6, 137.5)">P</text><text xml:space="preserve" font-family="Georgia,Georgia" font-size="50.0" fill="#000000" transform="matrix(1.00, 0.00, -0.00, -1.00, 345.1, 137.5)"> </text><text xml:space="preserve" font-family="Georgia,Georgia" font-size="50.0" fill="#000000" transform="matrix(1.00, 0.00, -0.00, -1.00, 357.2, 137.5)">=</text><text xml:space="preserve" font-family="Georgia,Georgia" font-size="50.0" fill="#000000" transform="matrix(1.00, 0.00, -0.00, -1.00, 389.3, 137.5)"> </text><g><clipPath id="clip0x608000aa8b20"><path d="M 408.2 136.4 L 533.8 136.4 L 533.8 221.8 L 408.2 221.8 Z M 408.2 136.4 "></path></clipPath><g clip-path="url(#clip0x608000aa8b20)"><text xml:space="preserve" font-family="Georgia,Georgia" font-size="50.0" fill="#000000" transform="matrix(1.00, 0.00, -0.00, -1.00, 422.9, 161.5)"> </text><text xml:space="preserve" font-family="Georgia,Georgia" font-size="50.0" fill="#000000" transform="matrix(1.00, 0.00, -0.00, -1.00, 434.9, 161.5)">W</text><text xml:space="preserve" font-family="Georgia,Georgia" font-size="50.0" fill="#000000" transform="matrix(1.00, 0.00, -0.00, -1.00, 483.7, 161.5)"> </text><text xml:space="preserve" font-family="Georgia,Georgia" font-size="50.0" fill="#000000" transform="matrix(1.00, 0.00, -0.00, -1.00, 495.7, 161.5)"> </text><text xml:space="preserve" font-family="Georgia,Georgia" font-size="50.0" fill="#FEFFFE" transform="matrix(1.00, 0.00, -0.00, -1.00, 507.8, 161.5)">‘</text><path d="M 4.5 54.5 L 89.5 54.5 " fill="none" stroke="#000000" stroke-width="2.47" transform="matrix(1.00, 0.00, 0.00, -1.00, 418.4, 211.6)"></path><path d="M 89.5 54.5 L 100.8 54.5 " fill="none" stroke="#FEFFFE" stroke-width="2.47" transform="matrix(1.00, 0.00, 0.00, -1.00, 418.4, 211.6)"></path></g></g><g><clipPath id="clip0x6080008b4040"><path d="M 432.7 81.3 L 479.3 81.3 L 479.3 166.7 L 432.7 166.7 Z M 432.7 81.3 "></path></clipPath><g clip-path="url(#clip0x6080008b4040)"><text xml:space="preserve" font-family="Georgia,Georgia" font-size="50.0" fill="#000000" transform="matrix(1.00, 0.00, -0.00, -1.00, 447.4, 106.5)">t</text></g></g><text xml:space="preserve" font-family="Georgia,Georgia" font-size="50.0" fill="#000000" transform="matrix(1.00, 0.00, -0.00, -1.00, 126.4, 137.5)">e</text><text xml:space="preserve" font-family="Georgia,Georgia" font-size="50.0" fill="#000000" transform="matrix(1.00, 0.00, -0.00, -1.00, 150.6, 137.5)">l</text><text xml:space="preserve" font-family="Georgia,Georgia" font-size="50.0" fill="#000000" transform="matrix(1.00, 0.00, -0.00, -1.00, 165.0, 137.5)">i</text></g></svg>