<?xml version="1.0" encoding="UTF-8" standalone="no"?><svg xmlns="http://www.w3.org/2000/svg" xmlns:xlink="http://www.w3.org/1999/xlink" clip-rule="evenodd" stroke-miterlimit="10" viewBox="0 0 1024 768"><desc>SVG generated by Keynote</desc><defs><linearGradient id="gradSh1.0" x1="0.0" y1="0.0" x2="100.0" y2="0.0" gradientUnits="userSpaceOnUse" gradientTransform="matrix(-1.29, 2.88, 1.89, 0.85, 393.9, 203.4)"><stop offset="0.00000" stop-color="#ACA1A8"></stop><stop offset="0.00220" stop-color="#ACA2A8"></stop><stop offset="1.00000" stop-color="#FEF1FF"></stop></linearGradient><linearGradient id="gradSh2.1" x1="0.0" y1="0.0" x2="100.0" y2="0.0" gradientUnits="userSpaceOnUse" gradientTransform="matrix(-1.72, 3.86, 4.08, 1.82, 806.7, 154.6)"><stop offset="0.00000" stop-color="#7982AC"></stop><stop offset="0.00660" stop-color="#7982AD"></stop><stop offset="0.22947" stop-color="#8093BF"></stop><stop offset="0.23240" stop-color="#8094BF"></stop><stop offset="1.00000" stop-color="#96CEFF"></stop></linearGradient></defs><g transform="matrix(1.00, 0.00, -0.00, -1.00, 0.0, 768.0)"><path d="M 0.0 768.0 L 1024.0 768.0 L 1024.0 0.0 L 0.0 0.0 Z M 0.0 768.0 " fill="#FEFFFF"></path><g><clipPath id="clip0x6000012b8720"><path d="M 285.0 499.0 L 374.0 499.0 L 374.0 196.0 L 285.0 196.0 Z M 284.6 498.6 "></path></clipPath><g clip-path="url(#clip0x6000012b8720)"><g><clipPath id="clip0x6000012bf3e0"><path d="M 282.6 193.7 L 375.7 193.7 L 375.7 500.6 L 282.6 500.6 Z M 282.6 193.7 "></path></clipPath><g clip-path="url(#clip0x6000012bf3e0)"><path d="M 282.6 193.7 L 375.7 193.7 L 375.7 500.6 L 282.6 500.6 Z M 282.6 193.7 " fill="url(#gradSh1.0)"></path></g></g></g></g><g><clipPath id="clip0x6000014bf740"><path d="M 282.6 193.7 L 375.7 193.7 L 375.7 500.6 L 282.6 500.6 Z M 282.6 193.7 "></path></clipPath><g clip-path="url(#clip0x6000014bf740)"><path d="M 0.4 -0.4 L 89.4 -0.4 L 89.4 302.6 L 0.4 302.6 Z M 0.0 0.0 " fill="none" stroke="#52575F" stroke-width="2.00" transform="matrix(1.00, 0.00, 0.00, -1.00, 284.6, 498.6)"></path></g></g><g><clipPath id="clip0x6000014bf980"><path d="M 283.2 449.0 L 373.7 449.0 L 373.7 496.9 L 283.2 496.9 Z M 283.2 449.0 "></path></clipPath><g clip-path="url(#clip0x6000014bf980)"><text xml:space="preserve" font-family="Georgia,Georgia" font-size="28.0" fill="#000000" transform="matrix(1.00, 0.00, -0.00, -1.00, 291.1, 463.1)">R</text><text xml:space="preserve" font-family="Georgia,Georgia" font-size="28.0" fill="#000000" transform="matrix(1.00, 0.00, -0.00, -1.00, 310.8, 463.1)">a</text><text xml:space="preserve" font-family="Georgia,Georgia" font-size="28.0" fill="#000000" transform="matrix(1.00, 0.00, -0.00, -1.00, 324.9, 463.1)">u</text><text xml:space="preserve" font-family="Georgia,Georgia" font-size="28.0" fill="#000000" transform="matrix(1.00, 0.00, -0.00, -1.00, 341.0, 463.1)">t</text><text xml:space="preserve" font-family="Georgia,Georgia" font-size="28.0" fill="#000000" transform="matrix(1.00, 0.00, -0.00, -1.00, 350.7, 463.1)">a</text></g></g><g><clipPath id="clip0x6000014bfd40"><path d="M 309.9 416.3 L 355.9 416.3 L 355.9 453.8 L 309.9 453.8 Z M 309.9 416.3 "></path></clipPath><g clip-path="url(#clip0x6000014bfd40)"><text xml:space="preserve" font-family="Georgia,Georgia" font-size="22.0" fill="#000000" transform="matrix(1.00, 0.00, -0.00, -1.00, 316.7, 427.4)">1</text><text xml:space="preserve" font-family="Georgia,Georgia" font-size="22.0" fill="#000000" transform="matrix(1.00, 0.00, -0.00, -1.00, 326.1, 427.4)">k</text><text xml:space="preserve" font-family="Georgia,Georgia" font-size="22.0" fill="#000000" transform="matrix(1.00, 0.00, -0.00, -1.00, 337.9, 427.4)">g</text></g></g><g><clipPath id="clip0x6000016a0060"><path d="M 545.0 499.0 L 896.0 499.0 L 896.0 196.0 L 545.0 196.0 Z M 545.3 498.6 "></path></clipPath><g clip-path="url(#clip0x6000016a0060)"><g><clipPath id="clip0x6000016a01e0"><path d="M 543.3 193.7 L 898.3 193.7 L 898.3 500.6 L 543.3 500.6 Z M 543.3 193.7 "></path></clipPath><g clip-path="url(#clip0x6000016a01e0)"><path d="M 543.3 193.7 L 898.3 193.7 L 898.3 500.6 L 543.3 500.6 Z M 543.3 193.7 " fill="url(#gradSh2.1)"></path></g></g></g></g><g><clipPath id="clip0x6000018a04e0"><path d="M 543.3 193.7 L 898.3 193.7 L 898.3 500.6 L 543.3 500.6 Z M 543.3 193.7 "></path></clipPath><g clip-path="url(#clip0x6000018a04e0)"><path d="M -0.3 -0.4 L 350.7 -0.4 L 350.7 302.6 L -0.3 302.6 Z M 0.0 0.0 " fill="none" stroke="#51A7F9" stroke-width="2.00" transform="matrix(1.00, 0.00, 0.00, -1.00, 545.3, 498.6)"></path></g></g><g><clipPath id="clip0x6000018a0720"><path d="M 678.0 442.7 L 766.9 442.7 L 766.9 504.2 L 678.0 504.2 Z M 678.0 442.7 "></path></clipPath><g clip-path="url(#clip0x6000018a0720)"><text xml:space="preserve" font-family="Georgia,Georgia" font-size="36.0" fill="#000000" transform="matrix(1.00, 0.00, -0.00, -1.00, 688.2, 460.8)">V</text><text xml:space="preserve" font-family="Georgia,Georgia" font-size="36.0" fill="#000000" transform="matrix(1.00, 0.00, -0.00, -1.00, 712.2, 460.8)">e</text><text xml:space="preserve" font-family="Georgia,Georgia" font-size="36.0" fill="#000000" transform="matrix(1.00, 0.00, -0.00, -1.00, 729.6, 460.8)">s</text><text xml:space="preserve" font-family="Georgia,Georgia" font-size="36.0" fill="#000000" transform="matrix(1.00, 0.00, -0.00, -1.00, 745.2, 460.8)">i</text></g></g><g><clipPath id="clip0x6000018a0a80"><path d="M 697.8 416.3 L 743.8 416.3 L 743.8 453.8 L 697.8 453.8 Z M 697.8 416.3 "></path></clipPath><g clip-path="url(#clip0x6000018a0a80)"><text xml:space="preserve" font-family="Georgia,Georgia" font-size="22.0" fill="#000000" transform="matrix(1.00, 0.00, -0.00, -1.00, 704.6, 427.4)">1</text><text xml:space="preserve" font-family="Georgia,Georgia" font-size="22.0" fill="#000000" transform="matrix(1.00, 0.00, -0.00, -1.00, 714.0, 427.4)">k</text><text xml:space="preserve" font-family="Georgia,Georgia" font-size="22.0" fill="#000000" transform="matrix(1.00, 0.00, -0.00, -1.00, 725.8, 427.4)">g</text></g></g><text xml:space="preserve" font-family="Georgia,Georgia" font-size="65.0" fill="#000000" transform="matrix(1.00, 0.00, -0.00, -1.00, 133.2, 682.6)">O</text><text xml:space="preserve" font-family="Georgia,Georgia" font-size="65.0" fill="#000000" transform="matrix(1.00, 0.00, -0.00, -1.00, 181.6, 682.6)">m</text><text xml:space="preserve" font-family="Georgia,Georgia" font-size="65.0" fill="#000000" transform="matrix(1.00, 0.00, -0.00, -1.00, 238.9, 682.6)">i</text><text xml:space="preserve" font-family="Georgia,Georgia" font-size="65.0" fill="#000000" transform="matrix(1.00, 0.00, -0.00, -1.00, 257.9, 682.6)">n</text><text xml:space="preserve" font-family="Georgia,Georgia" font-size="65.0" fill="#000000" transform="matrix(1.00, 0.00, -0.00, -1.00, 296.3, 682.6)">a</text><text xml:space="preserve" font-family="Georgia,Georgia" font-size="65.0" fill="#000000" transform="matrix(1.00, 0.00, -0.00, -1.00, 329.0, 682.6)">i</text><text xml:space="preserve" font-family="Georgia,Georgia" font-size="65.0" fill="#000000" transform="matrix(1.00, 0.00, -0.00, -1.00, 348.1, 682.6)">s</text><text xml:space="preserve" font-family="Georgia,Georgia" font-size="65.0" fill="#000000" transform="matrix(1.00, 0.00, -0.00, -1.00, 376.2, 682.6)">l</text><text xml:space="preserve" font-family="Georgia,Georgia" font-size="65.0" fill="#000000" transform="matrix(1.00, 0.00, -0.00, -1.00, 394.8, 682.6)">ä</text><text xml:space="preserve" font-family="Georgia,Georgia" font-size="65.0" fill="#000000" transform="matrix(1.00, 0.00, -0.00, -1.00, 427.5, 682.6)">m</text><text xml:space="preserve" font-family="Georgia,Georgia" font-size="65.0" fill="#000000" transform="matrix(1.00, 0.00, -0.00, -1.00, 484.8, 682.6)">p</text><text xml:space="preserve" font-family="Georgia,Georgia" font-size="65.0" fill="#000000" transform="matrix(1.00, 0.00, -0.00, -1.00, 521.9, 682.6)">ö</text><text xml:space="preserve" font-family="Georgia,Georgia" font-size="65.0" fill="#000000" transform="matrix(1.00, 0.00, -0.00, -1.00, 557.0, 682.6)">k</text><text xml:space="preserve" font-family="Georgia,Georgia" font-size="65.0" fill="#000000" transform="matrix(1.00, 0.00, -0.00, -1.00, 591.8, 682.6)">a</text><text xml:space="preserve" font-family="Georgia,Georgia" font-size="65.0" fill="#000000" transform="matrix(1.00, 0.00, -0.00, -1.00, 624.5, 682.6)">p</text><text xml:space="preserve" font-family="Georgia,Georgia" font-size="65.0" fill="#000000" transform="matrix(1.00, 0.00, -0.00, -1.00, 661.7, 682.6)">a</text><text xml:space="preserve" font-family="Georgia,Georgia" font-size="65.0" fill="#000000" transform="matrix(1.00, 0.00, -0.00, -1.00, 694.4, 682.6)">s</text><text xml:space="preserve" font-family="Georgia,Georgia" font-size="65.0" fill="#000000" transform="matrix(1.00, 0.00, -0.00, -1.00, 722.5, 682.6)">i</text><text xml:space="preserve" font-family="Georgia,Georgia" font-size="65.0" fill="#000000" transform="matrix(1.00, 0.00, -0.00, -1.00, 741.6, 682.6)">t</text><text xml:space="preserve" font-family="Georgia,Georgia" font-size="65.0" fill="#000000" transform="matrix(1.00, 0.00, -0.00, -1.00, 764.0, 682.6)">e</text><text xml:space="preserve" font-family="Georgia,Georgia" font-size="65.0" fill="#000000" transform="matrix(1.00, 0.00, -0.00, -1.00, 795.5, 682.6)">e</text><text xml:space="preserve" font-family="Georgia,Georgia" font-size="65.0" fill="#000000" transform="matrix(1.00, 0.00, -0.00, -1.00, 826.9, 682.6)">t</text><text xml:space="preserve" font-family="Georgia,Georgia" font-size="65.0" fill="#000000" transform="matrix(1.00, 0.00, -0.00, -1.00, 849.4, 682.6)">t</text><text xml:space="preserve" font-family="Georgia,Georgia" font-size="65.0" fill="#000000" transform="matrix(1.00, 0.00, -0.00, -1.00, 871.8, 682.6)">i</text></g></svg>