<?xml version="1.0" encoding="UTF-8" standalone="no"?><svg xmlns="http://www.w3.org/2000/svg" xmlns:xlink="http://www.w3.org/1999/xlink" clip-rule="evenodd" stroke-miterlimit="10" viewBox="0 0 222 222"><desc>SVG generated by Keynote</desc><defs></defs><g transform="matrix(1.00, 0.00, -0.00, -1.00, 0.0, 222.0)"><path d="M -0.4 -0.0 L 217.6 -0.0 L 217.6 217.0 L -0.4 217.0 Z M 0.0 0.0 " fill="none" stroke="#85878C" stroke-width="2.00" transform="matrix(1.00, 0.00, 0.00, -1.00, 2.4, 220.0)"></path><g><clipPath id="clip0x7fda2cf20970"><path d="M -0.2 3.8 L 222.3 3.8 L 222.3 219.0 L -0.2 219.0 Z M -0.2 3.8 "></path></clipPath><g clip-path="url(#clip0x7fda2cf20970)"><text xml:space="preserve" font-family="Georgia,Georgia" font-size="27.0" fill="#000000" transform="matrix(1.00, 0.00, -0.00, -1.00, 35.3, 132.9)">P</text><text xml:space="preserve" font-family="Georgia,Georgia" font-size="27.0" fill="#000000" transform="matrix(1.00, 0.00, -0.00, -1.00, 51.7, 132.9)">o</text><text xml:space="preserve" font-family="Georgia,Georgia" font-size="27.0" fill="#000000" transform="matrix(1.00, 0.00, -0.00, -1.00, 66.3, 132.9)">l</text><text xml:space="preserve" font-family="Georgia,Georgia" font-size="27.0" fill="#000000" transform="matrix(1.00, 0.00, -0.00, -1.00, 74.0, 132.9)">t</text><text xml:space="preserve" font-family="Georgia,Georgia" font-size="27.0" fill="#000000" transform="matrix(1.00, 0.00, -0.00, -1.00, 83.4, 132.9)">t</text><text xml:space="preserve" font-family="Georgia,Georgia" font-size="27.0" fill="#000000" transform="matrix(1.00, 0.00, -0.00, -1.00, 92.7, 132.9)">o</text><text xml:space="preserve" font-family="Georgia,Georgia" font-size="27.0" fill="#000000" transform="matrix(1.00, 0.00, -0.00, -1.00, 107.2, 132.9)">a</text><text xml:space="preserve" font-family="Georgia,Georgia" font-size="27.0" fill="#000000" transform="matrix(1.00, 0.00, -0.00, -1.00, 120.8, 132.9)">i</text><text xml:space="preserve" font-family="Georgia,Georgia" font-size="27.0" fill="#000000" transform="matrix(1.00, 0.00, -0.00, -1.00, 128.8, 132.9)">n</text><text xml:space="preserve" font-family="Georgia,Georgia" font-size="27.0" fill="#000000" transform="matrix(1.00, 0.00, -0.00, -1.00, 144.7, 132.9)">e</text><text xml:space="preserve" font-family="Georgia,Georgia" font-size="27.0" fill="#000000" transform="matrix(1.00, 0.00, -0.00, -1.00, 157.8, 132.9)">e</text><text xml:space="preserve" font-family="Georgia,Georgia" font-size="27.0" fill="#000000" transform="matrix(1.00, 0.00, -0.00, -1.00, 170.8, 132.9)">n</text><text xml:space="preserve" font-family="Georgia,Georgia" font-size="27.0" fill="#000000" transform="matrix(1.00, 0.00, -0.00, -1.00, 186.8, 132.9)"> </text><text xml:space="preserve" font-family="Georgia,Georgia" font-size="27.0" fill="#000000" transform="matrix(1.00, 0.00, -0.00, -1.00, 40.5, 101.9)">k</text><text xml:space="preserve" font-family="Georgia,Georgia" font-size="27.0" fill="#000000" transform="matrix(1.00, 0.00, -0.00, -1.00, 54.9, 101.9)">e</text><text xml:space="preserve" font-family="Georgia,Georgia" font-size="27.0" fill="#000000" transform="matrix(1.00, 0.00, -0.00, -1.00, 68.0, 101.9)">m</text><text xml:space="preserve" font-family="Georgia,Georgia" font-size="27.0" fill="#000000" transform="matrix(1.00, 0.00, -0.00, -1.00, 91.7, 101.9)">i</text><text xml:space="preserve" font-family="Georgia,Georgia" font-size="27.0" fill="#000000" transform="matrix(1.00, 0.00, -0.00, -1.00, 99.7, 101.9)">a</text><text xml:space="preserve" font-family="Georgia,Georgia" font-size="27.0" fill="#000000" transform="matrix(1.00, 0.00, -0.00, -1.00, 113.3, 101.9)">l</text><text xml:space="preserve" font-family="Georgia,Georgia" font-size="27.0" fill="#000000" transform="matrix(1.00, 0.00, -0.00, -1.00, 121.0, 101.9)">l</text><text xml:space="preserve" font-family="Georgia,Georgia" font-size="27.0" fill="#000000" transform="matrix(1.00, 0.00, -0.00, -1.00, 128.7, 101.9)">i</text><text xml:space="preserve" font-family="Georgia,Georgia" font-size="27.0" fill="#000000" transform="matrix(1.00, 0.00, -0.00, -1.00, 136.6, 101.9)">n</text><text xml:space="preserve" font-family="Georgia,Georgia" font-size="27.0" fill="#000000" transform="matrix(1.00, 0.00, -0.00, -1.00, 152.6, 101.9)">e</text><text xml:space="preserve" font-family="Georgia,Georgia" font-size="27.0" fill="#000000" transform="matrix(1.00, 0.00, -0.00, -1.00, 165.6, 101.9)">n</text><text xml:space="preserve" font-family="Georgia,Georgia" font-size="27.0" fill="#000000" transform="matrix(1.00, 0.00, -0.00, -1.00, 181.6, 101.9)"> </text><text xml:space="preserve" font-family="Georgia,Georgia" font-size="27.0" fill="#000000" transform="matrix(1.00, 0.00, -0.00, -1.00, 66.8, 70.9)">e</text><text xml:space="preserve" font-family="Georgia,Georgia" font-size="27.0" fill="#000000" transform="matrix(1.00, 0.00, -0.00, -1.00, 79.9, 70.9)">n</text><text xml:space="preserve" font-family="Georgia,Georgia" font-size="27.0" fill="#000000" transform="matrix(1.00, 0.00, -0.00, -1.00, 95.8, 70.9)">e</text><text xml:space="preserve" font-family="Georgia,Georgia" font-size="27.0" fill="#000000" transform="matrix(1.00, 0.00, -0.00, -1.00, 108.9, 70.9)">r</text><text xml:space="preserve" font-family="Georgia,Georgia" font-size="27.0" fill="#000000" transform="matrix(1.00, 0.00, -0.00, -1.00, 119.9, 70.9)">g</text><text xml:space="preserve" font-family="Georgia,Georgia" font-size="27.0" fill="#000000" transform="matrix(1.00, 0.00, -0.00, -1.00, 133.7, 70.9)">i</text><text xml:space="preserve" font-family="Georgia,Georgia" font-size="27.0" fill="#000000" transform="matrix(1.00, 0.00, -0.00, -1.00, 141.6, 70.9)">a</text></g></g></g></svg>