<?xml version="1.0" encoding="UTF-8" standalone="no"?><svg xmlns="http://www.w3.org/2000/svg" xmlns:xlink="http://www.w3.org/1999/xlink" clip-rule="evenodd" stroke-miterlimit="10" viewBox="0 0 446 39"><desc>SVG generated by Keynote</desc><defs></defs><g transform="matrix(1.00, 0.00, -0.00, -1.00, 0.0, 39.0)"><text xml:space="preserve" font-family="Georgia,Georgia" font-size="36.0" fill="#000000" transform="matrix(1.00, 0.00, -0.00, -1.00, 2.0, 9.4)">A</text><text xml:space="preserve" font-family="Georgia,Georgia" font-size="36.0" fill="#000000" transform="matrix(1.00, 0.00, -0.00, -1.00, 26.1, 9.4)">u</text><text xml:space="preserve" font-family="Georgia,Georgia" font-size="36.0" fill="#000000" transform="matrix(1.00, 0.00, -0.00, -1.00, 46.9, 9.4)">t</text><text xml:space="preserve" font-family="Georgia,Georgia" font-size="36.0" fill="#000000" transform="matrix(1.00, 0.00, -0.00, -1.00, 59.3, 9.4)">o</text><text xml:space="preserve" font-family="Georgia,Georgia" font-size="36.0" fill="#000000" transform="matrix(1.00, 0.00, -0.00, -1.00, 78.7, 9.4)">n</text><text xml:space="preserve" font-family="Georgia,Georgia" font-size="36.0" fill="#000000" transform="matrix(1.00, 0.00, -0.00, -1.00, 100.0, 9.4)"> </text><text xml:space="preserve" font-family="Georgia,Georgia" font-size="36.0" fill="#000000" transform="matrix(1.00, 0.00, -0.00, -1.00, 108.7, 9.4)">h</text><text xml:space="preserve" font-family="Georgia,Georgia" font-size="36.0" fill="#000000" transform="matrix(1.00, 0.00, -0.00, -1.00, 129.6, 9.4)">y</text><text xml:space="preserve" font-family="Georgia,Georgia" font-size="36.0" fill="#000000" transform="matrix(1.00, 0.00, -0.00, -1.00, 147.3, 9.4)">รถ</text><text xml:space="preserve" font-family="Georgia,Georgia" font-size="36.0" fill="#000000" transform="matrix(1.00, 0.00, -0.00, -1.00, 166.7, 9.4)">y</text><text xml:space="preserve" font-family="Georgia,Georgia" font-size="36.0" fill="#000000" transform="matrix(1.00, 0.00, -0.00, -1.00, 184.5, 9.4)">t</text><text xml:space="preserve" font-family="Georgia,Georgia" font-size="36.0" fill="#000000" transform="matrix(1.00, 0.00, -0.00, -1.00, 196.9, 9.4)">y</text><text xml:space="preserve" font-family="Georgia,Georgia" font-size="36.0" fill="#000000" transform="matrix(1.00, 0.00, -0.00, -1.00, 214.6, 9.4)">s</text><text xml:space="preserve" font-family="Georgia,Georgia" font-size="36.0" fill="#000000" transform="matrix(1.00, 0.00, -0.00, -1.00, 230.2, 9.4)">u</text><text xml:space="preserve" font-family="Georgia,Georgia" font-size="36.0" fill="#000000" transform="matrix(1.00, 0.00, -0.00, -1.00, 250.9, 9.4)">h</text><text xml:space="preserve" font-family="Georgia,Georgia" font-size="36.0" fill="#000000" transform="matrix(1.00, 0.00, -0.00, -1.00, 271.9, 9.4)">d</text><text xml:space="preserve" font-family="Georgia,Georgia" font-size="36.0" fill="#000000" transform="matrix(1.00, 0.00, -0.00, -1.00, 292.5, 9.4)">e</text><text xml:space="preserve" font-family="Georgia,Georgia" font-size="36.0" fill="#000000" transform="matrix(1.00, 0.00, -0.00, -1.00, 310.0, 9.4)"> </text><text xml:space="preserve" font-family="Georgia,Georgia" font-size="36.0" fill="#000000" transform="matrix(1.00, 0.00, -0.00, -1.00, 318.7, 9.4)">o</text><text xml:space="preserve" font-family="Georgia,Georgia" font-size="36.0" fill="#000000" transform="matrix(1.00, 0.00, -0.00, -1.00, 338.1, 9.4)">n</text><text xml:space="preserve" font-family="Georgia,Georgia" font-size="36.0" fill="#000000" transform="matrix(1.00, 0.00, -0.00, -1.00, 359.3, 9.4)"> </text><text xml:space="preserve" font-family="Georgia,Georgia" font-size="36.0" fill="#000000" transform="matrix(1.00, 0.00, -0.00, -1.00, 368.0, 9.4)">2</text><text xml:space="preserve" font-family="Georgia,Georgia" font-size="36.0" fill="#000000" transform="matrix(1.00, 0.00, -0.00, -1.00, 388.1, 9.4)">5</text><text xml:space="preserve" font-family="Georgia,Georgia" font-size="36.0" fill="#000000" transform="matrix(1.00, 0.00, -0.00, -1.00, 407.1, 9.4)"> </text><text xml:space="preserve" font-family="Georgia,Georgia" font-size="36.0" fill="#000000" transform="matrix(1.00, 0.00, -0.00, -1.00, 415.8, 9.4)">%</text></g></svg>