<?xml version="1.0" encoding="UTF-8" standalone="no"?><svg xmlns="http://www.w3.org/2000/svg" xmlns:xlink="http://www.w3.org/1999/xlink" clip-rule="evenodd" stroke-miterlimit="10" viewBox="0 0 1024 768"><desc>SVG generated by Keynote</desc><defs></defs><g transform="matrix(1.00, 0.00, -0.00, -1.00, 0.0, 768.0)"><path d="M 0.0 768.0 L 1024.0 768.0 L 1024.0 0.0 L 0.0 0.0 Z M 0.0 768.0 " fill="#FEFFFF"></path><text xml:space="preserve" font-family="Georgia,Georgia" font-size="65.0" fill="#000000" transform="matrix(1.00, 0.00, -0.00, -1.00, 363.9, 666.3)">T</text><text xml:space="preserve" font-family="Georgia,Georgia" font-size="65.0" fill="#000000" transform="matrix(1.00, 0.00, -0.00, -1.00, 404.1, 666.3)">a</text><text xml:space="preserve" font-family="Georgia,Georgia" font-size="65.0" fill="#000000" transform="matrix(1.00, 0.00, -0.00, -1.00, 436.8, 666.3)">s</text><text xml:space="preserve" font-family="Georgia,Georgia" font-size="65.0" fill="#000000" transform="matrix(1.00, 0.00, -0.00, -1.00, 464.9, 666.3)">a</text><text xml:space="preserve" font-family="Georgia,Georgia" font-size="65.0" fill="#000000" transform="matrix(1.00, 0.00, -0.00, -1.00, 497.7, 666.3)">p</text><text xml:space="preserve" font-family="Georgia,Georgia" font-size="65.0" fill="#000000" transform="matrix(1.00, 0.00, -0.00, -1.00, 534.8, 666.3)">a</text><text xml:space="preserve" font-family="Georgia,Georgia" font-size="65.0" fill="#000000" transform="matrix(1.00, 0.00, -0.00, -1.00, 567.6, 666.3)">i</text><text xml:space="preserve" font-family="Georgia,Georgia" font-size="65.0" fill="#000000" transform="matrix(1.00, 0.00, -0.00, -1.00, 586.6, 666.3)">n</text><text xml:space="preserve" font-family="Georgia,Georgia" font-size="65.0" fill="#000000" transform="matrix(1.00, 0.00, -0.00, -1.00, 625.0, 666.3)">o</text><text xml:space="preserve" font-family="Georgia,Georgia" font-size="27.0" fill="#000000" transform="matrix(1.00, 0.00, -0.00, -1.00, 79.0, 581.9)">•</text><text xml:space="preserve" font-family="Georgia,Georgia" font-size="36.0" fill="#000000" transform="matrix(1.00, 0.00, -0.00, -1.00, 114.0, 578.9)">K</text><text xml:space="preserve" font-family="Georgia,Georgia" font-size="36.0" fill="#000000" transform="matrix(1.00, 0.00, -0.00, -1.00, 139.0, 578.9)">a</text><text xml:space="preserve" font-family="Georgia,Georgia" font-size="36.0" fill="#000000" transform="matrix(1.00, 0.00, -0.00, -1.00, 157.1, 578.9)">p</text><text xml:space="preserve" font-family="Georgia,Georgia" font-size="36.0" fill="#000000" transform="matrix(1.00, 0.00, -0.00, -1.00, 177.7, 578.9)">p</text><text xml:space="preserve" font-family="Georgia,Georgia" font-size="36.0" fill="#000000" transform="matrix(1.00, 0.00, -0.00, -1.00, 198.3, 578.9)">a</text><text xml:space="preserve" font-family="Georgia,Georgia" font-size="36.0" fill="#000000" transform="matrix(1.00, 0.00, -0.00, -1.00, 216.4, 578.9)">l</text><text xml:space="preserve" font-family="Georgia,Georgia" font-size="36.0" fill="#000000" transform="matrix(1.00, 0.00, -0.00, -1.00, 226.7, 578.9)">e</text><text xml:space="preserve" font-family="Georgia,Georgia" font-size="36.0" fill="#000000" transform="matrix(1.00, 0.00, -0.00, -1.00, 244.2, 578.9)"> </text><text xml:space="preserve" font-family="Georgia,Georgia" font-size="36.0" fill="#000000" transform="matrix(1.00, 0.00, -0.00, -1.00, 252.8, 578.9)">k</text><text xml:space="preserve" font-family="Georgia,Georgia" font-size="36.0" fill="#000000" transform="matrix(1.00, 0.00, -0.00, -1.00, 272.1, 578.9)">a</text><text xml:space="preserve" font-family="Georgia,Georgia" font-size="36.0" fill="#000000" transform="matrix(1.00, 0.00, -0.00, -1.00, 290.3, 578.9)">a</text><text xml:space="preserve" font-family="Georgia,Georgia" font-size="36.0" fill="#000000" transform="matrix(1.00, 0.00, -0.00, -1.00, 308.4, 578.9)">t</text><text xml:space="preserve" font-family="Georgia,Georgia" font-size="36.0" fill="#000000" transform="matrix(1.00, 0.00, -0.00, -1.00, 320.8, 578.9)">u</text><text xml:space="preserve" font-family="Georgia,Georgia" font-size="36.0" fill="#000000" transform="matrix(1.00, 0.00, -0.00, -1.00, 341.5, 578.9)">u</text><text xml:space="preserve" font-family="Georgia,Georgia" font-size="36.0" fill="#000000" transform="matrix(1.00, 0.00, -0.00, -1.00, 362.3, 578.9)">,</text><text xml:space="preserve" font-family="Georgia,Georgia" font-size="36.0" fill="#000000" transform="matrix(1.00, 0.00, -0.00, -1.00, 371.9, 578.9)"> </text><text xml:space="preserve" font-family="Georgia,Georgia" font-size="36.0" fill="#000000" transform="matrix(1.00, 0.00, -0.00, -1.00, 380.6, 578.9)">j</text><text xml:space="preserve" font-family="Georgia,Georgia" font-size="36.0" fill="#000000" transform="matrix(1.00, 0.00, -0.00, -1.00, 391.1, 578.9)">o</text><text xml:space="preserve" font-family="Georgia,Georgia" font-size="36.0" fill="#000000" transform="matrix(1.00, 0.00, -0.00, -1.00, 410.6, 578.9)">s</text><text xml:space="preserve" font-family="Georgia,Georgia" font-size="36.0" fill="#000000" transform="matrix(1.00, 0.00, -0.00, -1.00, 426.1, 578.9)"> </text><text xml:space="preserve" font-family="Georgia,Georgia" font-size="36.0" fill="#000000" transform="matrix(1.00, 0.00, -0.00, -1.00, 434.8, 578.9)">p</text><text xml:space="preserve" font-family="Georgia,Georgia" font-size="36.0" fill="#000000" transform="matrix(1.00, 0.00, -0.00, -1.00, 455.4, 578.9)">a</text><text xml:space="preserve" font-family="Georgia,Georgia" font-size="36.0" fill="#000000" transform="matrix(1.00, 0.00, -0.00, -1.00, 473.5, 578.9)">i</text><text xml:space="preserve" font-family="Georgia,Georgia" font-size="36.0" fill="#000000" transform="matrix(1.00, 0.00, -0.00, -1.00, 484.1, 578.9)">n</text><text xml:space="preserve" font-family="Georgia,Georgia" font-size="36.0" fill="#000000" transform="matrix(1.00, 0.00, -0.00, -1.00, 505.3, 578.9)">o</text><text xml:space="preserve" font-family="Georgia,Georgia" font-size="36.0" fill="#000000" transform="matrix(1.00, 0.00, -0.00, -1.00, 524.7, 578.9)">v</text><text xml:space="preserve" font-family="Georgia,Georgia" font-size="36.0" fill="#000000" transform="matrix(1.00, 0.00, -0.00, -1.00, 542.6, 578.9)">o</text><text xml:space="preserve" font-family="Georgia,Georgia" font-size="36.0" fill="#000000" transform="matrix(1.00, 0.00, -0.00, -1.00, 562.0, 578.9)">i</text><text xml:space="preserve" font-family="Georgia,Georgia" font-size="36.0" fill="#000000" transform="matrix(1.00, 0.00, -0.00, -1.00, 572.6, 578.9)">m</text><text xml:space="preserve" font-family="Georgia,Georgia" font-size="36.0" fill="#000000" transform="matrix(1.00, 0.00, -0.00, -1.00, 604.3, 578.9)">a</text><text xml:space="preserve" font-family="Georgia,Georgia" font-size="36.0" fill="#000000" transform="matrix(1.00, 0.00, -0.00, -1.00, 622.4, 578.9)">n</text><text xml:space="preserve" font-family="Georgia,Georgia" font-size="36.0" fill="#000000" transform="matrix(1.00, 0.00, -0.00, -1.00, 643.7, 578.9)"> </text><text xml:space="preserve" font-family="Georgia,Georgia" font-size="36.0" fill="#000000" transform="matrix(1.00, 0.00, -0.00, -1.00, 652.4, 578.9)">v</text><text xml:space="preserve" font-family="Georgia,Georgia" font-size="36.0" fill="#000000" transform="matrix(1.00, 0.00, -0.00, -1.00, 670.2, 578.9)">a</text><text xml:space="preserve" font-family="Georgia,Georgia" font-size="36.0" fill="#000000" transform="matrix(1.00, 0.00, -0.00, -1.00, 688.4, 578.9)">i</text><text xml:space="preserve" font-family="Georgia,Georgia" font-size="36.0" fill="#000000" transform="matrix(1.00, 0.00, -0.00, -1.00, 698.9, 578.9)">k</text><text xml:space="preserve" font-family="Georgia,Georgia" font-size="36.0" fill="#000000" transform="matrix(1.00, 0.00, -0.00, -1.00, 718.2, 578.9)">u</text><text xml:space="preserve" font-family="Georgia,Georgia" font-size="36.0" fill="#000000" transform="matrix(1.00, 0.00, -0.00, -1.00, 738.9, 578.9)">t</text><text xml:space="preserve" font-family="Georgia,Georgia" font-size="36.0" fill="#000000" transform="matrix(1.00, 0.00, -0.00, -1.00, 751.3, 578.9)">u</text><text xml:space="preserve" font-family="Georgia,Georgia" font-size="36.0" fill="#000000" transform="matrix(1.00, 0.00, -0.00, -1.00, 772.0, 578.9)">s</text><text xml:space="preserve" font-family="Georgia,Georgia" font-size="36.0" fill="#000000" transform="matrix(1.00, 0.00, -0.00, -1.00, 787.6, 578.9)">s</text><text xml:space="preserve" font-family="Georgia,Georgia" font-size="36.0" fill="#000000" transform="matrix(1.00, 0.00, -0.00, -1.00, 803.2, 578.9)">u</text><text xml:space="preserve" font-family="Georgia,Georgia" font-size="36.0" fill="#000000" transform="matrix(1.00, 0.00, -0.00, -1.00, 823.9, 578.9)">o</text><text xml:space="preserve" font-family="Georgia,Georgia" font-size="36.0" fill="#000000" transform="matrix(1.00, 0.00, -0.00, -1.00, 843.3, 578.9)">r</text><text xml:space="preserve" font-family="Georgia,Georgia" font-size="36.0" fill="#000000" transform="matrix(1.00, 0.00, -0.00, -1.00, 858.0, 578.9)">a</text><text xml:space="preserve" font-family="Georgia,Georgia" font-size="36.0" fill="#000000" transform="matrix(1.00, 0.00, -0.00, -1.00, 876.1, 578.9)"> </text><text xml:space="preserve" font-family="Georgia,Georgia" font-size="36.0" fill="#000000" transform="matrix(1.00, 0.00, -0.00, -1.00, 884.8, 578.9)">e</text><text xml:space="preserve" font-family="Georgia,Georgia" font-size="36.0" fill="#000000" transform="matrix(1.00, 0.00, -0.00, -1.00, 902.3, 578.9)">i</text><text xml:space="preserve" font-family="Georgia,Georgia" font-size="36.0" fill="#000000" transform="matrix(1.00, 0.00, -0.00, -1.00, 912.8, 578.9)"> </text><text xml:space="preserve" font-family="Georgia,Georgia" font-size="36.0" fill="#000000" transform="matrix(1.00, 0.00, -0.00, -1.00, 114.0, 537.9)">o</text><text xml:space="preserve" font-family="Georgia,Georgia" font-size="36.0" fill="#000000" transform="matrix(1.00, 0.00, -0.00, -1.00, 133.4, 537.9)">l</text><text xml:space="preserve" font-family="Georgia,Georgia" font-size="36.0" fill="#000000" transform="matrix(1.00, 0.00, -0.00, -1.00, 143.7, 537.9)">e</text><text xml:space="preserve" font-family="Georgia,Georgia" font-size="36.0" fill="#000000" transform="matrix(1.00, 0.00, -0.00, -1.00, 161.1, 537.9)"> </text><text xml:space="preserve" font-family="Georgia,Georgia" font-size="36.0" fill="#000000" transform="matrix(1.00, 0.00, -0.00, -1.00, 169.8, 537.9)">t</text><text xml:space="preserve" font-family="Georgia,Georgia" font-size="36.0" fill="#000000" transform="matrix(1.00, 0.00, -0.00, -1.00, 182.3, 537.9)">u</text><text xml:space="preserve" font-family="Georgia,Georgia" font-size="36.0" fill="#000000" transform="matrix(1.00, 0.00, -0.00, -1.00, 203.0, 537.9)">k</text><text xml:space="preserve" font-family="Georgia,Georgia" font-size="36.0" fill="#000000" transform="matrix(1.00, 0.00, -0.00, -1.00, 222.2, 537.9)">i</text><text xml:space="preserve" font-family="Georgia,Georgia" font-size="36.0" fill="#000000" transform="matrix(1.00, 0.00, -0.00, -1.00, 232.8, 537.9)">p</text><text xml:space="preserve" font-family="Georgia,Georgia" font-size="36.0" fill="#000000" transform="matrix(1.00, 0.00, -0.00, -1.00, 253.4, 537.9)">i</text><text xml:space="preserve" font-family="Georgia,Georgia" font-size="36.0" fill="#000000" transform="matrix(1.00, 0.00, -0.00, -1.00, 263.9, 537.9)">n</text><text xml:space="preserve" font-family="Georgia,Georgia" font-size="36.0" fill="#000000" transform="matrix(1.00, 0.00, -0.00, -1.00, 285.2, 537.9)">n</text><text xml:space="preserve" font-family="Georgia,Georgia" font-size="36.0" fill="#000000" transform="matrix(1.00, 0.00, -0.00, -1.00, 306.4, 537.9)">a</text><text xml:space="preserve" font-family="Georgia,Georgia" font-size="36.0" fill="#000000" transform="matrix(1.00, 0.00, -0.00, -1.00, 324.6, 537.9)">n</text><text xml:space="preserve" font-family="Georgia,Georgia" font-size="36.0" fill="#000000" transform="matrix(1.00, 0.00, -0.00, -1.00, 345.8, 537.9)"> </text><text xml:space="preserve" font-family="Georgia,Georgia" font-size="36.0" fill="#000000" transform="matrix(1.00, 0.00, -0.00, -1.00, 354.5, 537.9)">s</text><text xml:space="preserve" font-family="Georgia,Georgia" font-size="36.0" fill="#000000" transform="matrix(1.00, 0.00, -0.00, -1.00, 370.1, 537.9)">i</text><text xml:space="preserve" font-family="Georgia,Georgia" font-size="36.0" fill="#000000" transform="matrix(1.00, 0.00, -0.00, -1.00, 380.6, 537.9)">s</text><text xml:space="preserve" font-family="Georgia,Georgia" font-size="36.0" fill="#000000" transform="matrix(1.00, 0.00, -0.00, -1.00, 396.2, 537.9)">ä</text><text xml:space="preserve" font-family="Georgia,Georgia" font-size="36.0" fill="#000000" transform="matrix(1.00, 0.00, -0.00, -1.00, 414.3, 537.9)">l</text><text xml:space="preserve" font-family="Georgia,Georgia" font-size="36.0" fill="#000000" transform="matrix(1.00, 0.00, -0.00, -1.00, 424.6, 537.9)">l</text><text xml:space="preserve" font-family="Georgia,Georgia" font-size="36.0" fill="#000000" transform="matrix(1.00, 0.00, -0.00, -1.00, 434.9, 537.9)">ä</text><g><clipPath id="clip0x6000016a9e40"><path d="M -199.0 179.3 L 317.0 179.3 L 317.0 211.3 L -199.0 211.3 Z M -199.0 179.3 "></path></clipPath><g clip-path="url(#clip0x6000016a9e40)"><image xlink:href="../../A882C428-A9F3-4542-97FC-F913D8A7EAB6/assets/FD876BC758D2AD287E17BF184C8416EA.png" width="514.00" height="30.00" transform="matrix(1.00, 0.00, -0.00, -1.00, -198.0, 210.3)" opacity="0.50"></image><path d="M -195.0 209.0 L 313.0 209.0 L 313.0 185.0 L -195.0 185.0 Z M -195.0 209.3 " fill="#52575F"></path></g></g><g><clipPath id="clip0x6000016b03e0"><path d="M 66.0 203.0 L 214.9 203.0 L 214.9 411.0 L 66.0 411.0 Z M 66.0 203.0 "></path></clipPath><g clip-path="url(#clip0x6000016b03e0)"><image xlink:href="../../A882C428-A9F3-4542-97FC-F913D8A7EAB6/assets/7EBB2DE135A488DA217A80607B0E9D2B.png" width="147.00" height="206.00" transform="matrix(1.00, 0.00, -0.00, -1.00, 67.0, 410.0)" opacity="0.50"></image></g></g><g><clipPath id="clip0x6080018a7560"><path d="M 70.0 409.0 L 211.0 409.0 L 211.0 209.0 L 70.0 209.0 Z M 70.0 409.0 "></path></clipPath><g clip-path="url(#clip0x6080018a7560)"><g><clipPath id="clip0x6080018a7740"><path d="M 66.0 203.0 L 214.9 203.0 L 214.9 411.0 L 66.0 411.0 Z M 66.0 203.0 "></path></clipPath><g clip-path="url(#clip0x6080018a7740)"><image xlink:href="../../A882C428-A9F3-4542-97FC-F913D8A7EAB6/assets/C3C0FC898C94653CAF8AD846D6CCD108.png" width="600.00" height="600.00" transform="matrix(0.50, 0.00, -0.00, -0.50, 70.0, 409.0)"></image></g></g></g></g><g><clipPath id="clip0x6000014acd80"><path d="M 69.0 206.1 L 211.4 206.1 L 211.4 212.1 L 69.0 212.1 Z M 69.0 206.1 "></path></clipPath><g clip-path="url(#clip0x6000014acd80)"><path d="M 0.0 0.1 L 140.0 0.1 " fill="none" stroke="#EB5C56" stroke-width="4.00" transform="matrix(1.00, 0.00, 0.00, -1.00, 70.0, 209.1)"></path></g></g><g><clipPath id="clip0x6000010bf7a0"><path d="M 126.3 288.9 L 158.3 288.9 L 158.3 320.9 L 126.3 320.9 Z M 126.3 288.9 "></path></clipPath><g clip-path="url(#clip0x6000010bf7a0)"><image xlink:href="../../55713DA0-CC24-4CA3-B5F6-EC0CB7B80E97/assets/92242BE40EA4AF7E8EDF21150630AB19.png" width="30.00" height="30.00" transform="matrix(1.00, 0.00, -0.00, -1.00, 127.3, 319.9)" opacity="0.50"></image><path d="M 150.8 315.3 C 155.5 310.7 155.5 303.1 150.8 298.4 C 146.1 293.7 138.5 293.7 133.9 298.4 C 129.2 303.1 129.2 310.7 133.9 315.3 C 138.5 320.0 146.1 320.0 150.8 315.3 Z M 150.8 315.3 " fill="#0B5C18"></path></g></g><g><clipPath id="clip0x6000014b29c0"><path d="M 155.3 308.0 L 155.3 220.3 L 129.3 220.3 L 129.3 308.0 Z M 155.3 308.0 "></path></clipPath><g clip-path="url(#clip0x6000014b29c0)"><path d="M 0.0 0.3 L 61.8 0.3 L 65.0 0.3 " fill="none" stroke="#851001" stroke-width="6.00" transform="matrix(0.00, -1.00, -1.00, 0.00, 142.3, 307.0)"></path><path d="M 130.0 245.0 L 142.0 221.0 L 154.0 245.0 Z M 130.0 245.0 " fill="#851001"></path></g></g><g><clipPath id="clip0x6000014a6fc0"><path d="M 144.8 405.0 L 144.8 82.8 L 139.9 82.8 L 139.9 405.0 Z M 144.8 405.0 "></path></clipPath><g clip-path="url(#clip0x6000014a6fc0)"><path d="M -0.4 0.3 L 317.6 0.3 " fill="none" stroke="#000000" stroke-width="2.00" stroke-dasharray="2.0, 4.0" transform="matrix(0.00, -1.00, -1.00, 0.00, 142.3, 402.6)"></path></g></g><g><clipPath id="clip0x6000010a91e0"><path d="M 209.1 68.1 L 673.7 292.6 L 687.6 263.8 L 223.0 39.3 Z M 209.1 68.1 "></path></clipPath><g clip-path="url(#clip0x6000010a91e0)"><image xlink:href="../../A882C428-A9F3-4542-97FC-F913D8A7EAB6/assets/9AA79EF64C0122817C43CCD3723D93D3.png" width="514.00" height="30.00" transform="matrix(0.90, 0.44, 0.44, -0.90, 210.4, 67.6)" opacity="0.50"></image><path d="M 214.4 68.2 L 671.8 289.3 L 682.3 267.6 L 224.9 46.6 Z M 214.4 68.2 " fill="#52575F"></path></g></g><g><clipPath id="clip0x6080018a7a40"><path d="M 360.8 363.2 L 494.9 428.0 L 585.4 240.7 L 451.3 175.9 Z M 360.8 363.2 "></path></clipPath><g clip-path="url(#clip0x6080018a7a40)"><image xlink:href="../../A882C428-A9F3-4542-97FC-F913D8A7EAB6/assets/3D7CEC3BB85D6E50EA2876F19B7AC62B.png" width="147.00" height="206.00" transform="matrix(0.90, 0.43, 0.44, -0.90, 362.1, 362.7)" opacity="0.50"></image></g></g><g><clipPath id="clip0x6080018a7aa0"><path d="M 360.8 363.2 L 494.9 428.0 L 585.4 240.7 L 451.3 175.9 Z M 360.8 363.2 "></path></clipPath><g clip-path="url(#clip0x6080018a7aa0)"><g><clipPath id="clip0x6080018a7e00"><path d="M 366.1 363.3 L 493.0 424.6 L 580.0 244.5 L 453.1 183.2 Z M 366.1 363.3 "></path></clipPath><g clip-path="url(#clip0x6080018a7e00)"><image xlink:href="../../A882C428-A9F3-4542-97FC-F913D8A7EAB6/assets/C3C0FC898C94653CAF8AD846D6CCD108.png" width="600.00" height="600.00" transform="matrix(0.45, 0.22, 0.22, -0.45, 366.1, 363.3)"></image></g></g></g></g><g><clipPath id="clip0x6080018a7e60"><path d="M 450.9 185.5 L 579.2 247.5 L 581.8 242.1 L 453.5 180.1 Z M 450.9 185.5 "></path></clipPath><g clip-path="url(#clip0x6080018a7e60)"><path d="M 0.0 0.0 L 140.5 0.0 " fill="none" stroke="#EB5C56" stroke-width="4.00" transform="matrix(0.90, 0.44, 0.44, -0.90, 453.1, 183.3)"></path></g></g><g><clipPath id="clip0x6080018a8280"><path d="M 463.4 283.1 L 495.4 283.1 L 495.4 315.1 L 463.4 315.1 Z M 463.4 283.1 "></path></clipPath><g clip-path="url(#clip0x6080018a8280)"><image xlink:href="../../55713DA0-CC24-4CA3-B5F6-EC0CB7B80E97/assets/92242BE40EA4AF7E8EDF21150630AB19.png" width="30.00" height="30.00" transform="matrix(1.00, 0.00, -0.00, -1.00, 464.4, 314.1)" opacity="0.50"></image><path d="M 487.9 309.6 C 492.6 304.9 492.6 297.3 487.9 292.7 C 483.2 288.0 475.6 288.0 471.0 292.7 C 466.3 297.3 466.3 304.9 471.0 309.6 C 475.6 314.3 483.2 314.3 487.9 309.6 Z M 487.9 309.6 " fill="#0B5C18"></path></g></g><g><clipPath id="clip0x6080018a8580"><path d="M 492.4 302.3 L 492.4 214.5 L 466.4 214.5 L 466.4 302.3 Z M 492.4 302.3 "></path></clipPath><g clip-path="url(#clip0x6080018a8580)"><path d="M 0.3 0.4 L 61.8 0.4 L 64.3 0.4 " fill="none" stroke="#851001" stroke-width="6.00" transform="matrix(0.00, -1.00, -1.00, 0.00, 479.4, 301.3)"></path><path d="M 467.0 240.0 L 479.0 216.0 L 491.0 240.0 Z M 467.0 240.0 " fill="#851001"></path></g></g><g><clipPath id="clip0x6080018a8880"><path d="M 481.9 399.3 L 481.9 77.1 L 477.0 77.1 L 477.0 399.3 Z M 481.9 399.3 "></path></clipPath><g clip-path="url(#clip0x6080018a8880)"><path d="M -0.1 0.4 L 317.9 0.4 " fill="none" stroke="#000000" stroke-width="2.00" stroke-dasharray="2.0, 4.0" transform="matrix(0.00, -1.00, -1.00, 0.00, 479.4, 396.9)"></path></g></g><g><clipPath id="clip0x6080018a8ac0"><path d="M 626.8 8.8 L 1006.7 358.0 L 1028.3 334.5 L 648.4 -14.8 Z M 626.8 8.8 "></path></clipPath><g clip-path="url(#clip0x6080018a8ac0)"><image xlink:href="../../A882C428-A9F3-4542-97FC-F913D8A7EAB6/assets/9AA79EF64C0122817C43CCD3723D93D3.png" width="514.00" height="30.00" transform="matrix(0.74, 0.68, 0.68, -0.74, 628.2, 8.7)" opacity="0.50"></image><path d="M 632.4 10.5 L 1006.4 354.4 L 1022.7 336.7 L 648.7 -7.1 Z M 632.4 10.5 " fill="#52575F"></path></g></g><g><clipPath id="clip0x6080018a8dc0"><path d="M 686.7 335.1 L 796.3 435.9 L 937.1 282.8 L 827.5 182.0 Z M 686.7 335.1 "></path></clipPath><g clip-path="url(#clip0x6080018a8dc0)"><image xlink:href="../../A882C428-A9F3-4542-97FC-F913D8A7EAB6/assets/3D7CEC3BB85D6E50EA2876F19B7AC62B.png" width="147.00" height="206.00" transform="matrix(0.74, 0.68, 0.68, -0.74, 688.1, 335.1)" opacity="0.50"></image></g></g><g><clipPath id="clip0x6080018a9000"><path d="M 686.7 335.1 L 796.3 435.9 L 937.1 282.8 L 827.5 182.0 Z M 686.7 335.1 "></path></clipPath><g clip-path="url(#clip0x6080018a9000)"><g><clipPath id="clip0x6080018a9180"><path d="M 692.3 336.9 L 796.1 432.3 L 931.5 285.0 L 827.7 189.6 Z M 692.3 336.9 "></path></clipPath><g clip-path="url(#clip0x6080018a9180)"><image xlink:href="../../A882C428-A9F3-4542-97FC-F913D8A7EAB6/assets/C3C0FC898C94653CAF8AD846D6CCD108.png" width="600.00" height="600.00" transform="matrix(0.37, 0.34, 0.34, -0.37, 692.3, 336.9)"></image></g></g></g></g><g><clipPath id="clip0x6000014b5fc0"><path d="M 824.9 191.2 L 929.8 287.6 L 933.8 283.2 L 828.9 186.8 Z M 824.9 191.2 "></path></clipPath><g clip-path="url(#clip0x6000014b5fc0)"><path d="M 0.0 0.0 L 140.5 0.0 " fill="none" stroke="#EB5C56" stroke-width="4.00" transform="matrix(0.74, 0.68, 0.68, -0.74, 827.7, 189.7)"></path></g></g><g><clipPath id="clip0x6000014a23a0"><path d="M 801.1 288.7 L 833.1 288.7 L 833.1 320.7 L 801.1 320.7 Z M 801.1 288.7 "></path></clipPath><g clip-path="url(#clip0x6000014a23a0)"><image xlink:href="../../55713DA0-CC24-4CA3-B5F6-EC0CB7B80E97/assets/92242BE40EA4AF7E8EDF21150630AB19.png" width="30.00" height="30.00" transform="matrix(1.00, 0.00, -0.00, -1.00, 802.1, 319.7)" opacity="0.50"></image><path d="M 825.6 315.2 C 830.3 310.5 830.3 302.9 825.6 298.2 C 820.9 293.5 813.3 293.5 808.7 298.2 C 804.0 302.9 804.0 310.5 808.7 315.2 C 813.3 319.9 820.9 319.9 825.6 315.2 Z M 825.6 315.2 " fill="#0B5C18"></path></g></g><g><clipPath id="clip0x6000014a5a00"><path d="M 830.1 307.9 L 830.1 220.1 L 804.1 220.1 L 804.1 307.9 Z M 830.1 307.9 "></path></clipPath><g clip-path="url(#clip0x6000014a5a00)"><path d="M -0.1 0.1 L 61.8 0.1 L 64.9 0.1 " fill="none" stroke="#851001" stroke-width="6.00" transform="matrix(0.00, -1.00, -1.00, 0.00, 817.1, 306.9)"></path><path d="M 805.0 245.0 L 817.0 221.0 L 829.0 245.0 Z M 805.0 245.0 " fill="#851001"></path></g></g><g><clipPath id="clip0x6000014be900"><path d="M 819.6 404.8 L 819.6 82.7 L 814.7 82.7 L 814.7 404.8 Z M 819.6 404.8 "></path></clipPath><g clip-path="url(#clip0x6000014be900)"><path d="M 0.4 0.1 L 317.4 0.1 " fill="none" stroke="#000000" stroke-width="2.00" stroke-dasharray="2.0, 4.0" transform="matrix(0.00, -1.00, -1.00, 0.00, 817.1, 402.4)"></path></g></g><text xml:space="preserve" font-family="Georgia,Georgia" font-size="36.0" fill="#000000" transform="matrix(1.00, 0.00, -0.00, -1.00, 492.1, 133.8)">e</text><text xml:space="preserve" font-family="Georgia,Georgia" font-size="36.0" fill="#000000" transform="matrix(1.00, 0.00, -0.00, -1.00, 509.5, 133.8)">i</text><text xml:space="preserve" font-family="Georgia,Georgia" font-size="36.0" fill="#000000" transform="matrix(1.00, 0.00, -0.00, -1.00, 520.1, 133.8)"> </text><text xml:space="preserve" font-family="Georgia,Georgia" font-size="36.0" fill="#000000" transform="matrix(1.00, 0.00, -0.00, -1.00, 528.8, 133.8)">k</text><text xml:space="preserve" font-family="Georgia,Georgia" font-size="36.0" fill="#000000" transform="matrix(1.00, 0.00, -0.00, -1.00, 548.1, 133.8)">a</text><text xml:space="preserve" font-family="Georgia,Georgia" font-size="36.0" fill="#000000" transform="matrix(1.00, 0.00, -0.00, -1.00, 566.2, 133.8)">a</text><text xml:space="preserve" font-family="Georgia,Georgia" font-size="36.0" fill="#000000" transform="matrix(1.00, 0.00, -0.00, -1.00, 584.3, 133.8)">d</text><text xml:space="preserve" font-family="Georgia,Georgia" font-size="36.0" fill="#000000" transform="matrix(1.00, 0.00, -0.00, -1.00, 605.0, 133.8)">u</text><text xml:space="preserve" font-family="Georgia,Georgia" font-size="36.0" fill="#000000" transform="matrix(1.00, 0.00, -0.00, -1.00, 878.6, 144.4)">k</text><text xml:space="preserve" font-family="Georgia,Georgia" font-size="36.0" fill="#000000" transform="matrix(1.00, 0.00, -0.00, -1.00, 897.9, 144.4)">a</text><text xml:space="preserve" font-family="Georgia,Georgia" font-size="36.0" fill="#000000" transform="matrix(1.00, 0.00, -0.00, -1.00, 916.0, 144.4)">a</text><text xml:space="preserve" font-family="Georgia,Georgia" font-size="36.0" fill="#000000" transform="matrix(1.00, 0.00, -0.00, -1.00, 934.2, 144.4)">t</text><text xml:space="preserve" font-family="Georgia,Georgia" font-size="36.0" fill="#000000" transform="matrix(1.00, 0.00, -0.00, -1.00, 946.6, 144.4)">u</text><text xml:space="preserve" font-family="Georgia,Georgia" font-size="36.0" fill="#000000" transform="matrix(1.00, 0.00, -0.00, -1.00, 967.3, 144.4)">u</text></g></svg>