<?xml version="1.0" encoding="UTF-8" standalone="no"?><svg xmlns="http://www.w3.org/2000/svg" xmlns:xlink="http://www.w3.org/1999/xlink" clip-rule="evenodd" stroke-miterlimit="10" viewBox="0 0 1024 768"><desc>SVG generated by Keynote</desc><defs></defs><g transform="matrix(1.00, 0.00, -0.00, -1.00, 0.0, 768.0)"><path d="M 0.0 768.0 L 1024.0 768.0 L 1024.0 0.0 L 0.0 0.0 Z M 0.0 768.0 " fill="#FEFFFF"></path><text xml:space="preserve" font-family="Georgia,Georgia" font-size="65.0" fill="#000000" transform="matrix(1.00, 0.00, -0.00, -1.00, 341.4, 679.3)">P</text><text xml:space="preserve" font-family="Georgia,Georgia" font-size="65.0" fill="#000000" transform="matrix(1.00, 0.00, -0.00, -1.00, 381.0, 679.3)">a</text><text xml:space="preserve" font-family="Georgia,Georgia" font-size="65.0" fill="#000000" transform="matrix(1.00, 0.00, -0.00, -1.00, 413.8, 679.3)">i</text><text xml:space="preserve" font-family="Georgia,Georgia" font-size="65.0" fill="#000000" transform="matrix(1.00, 0.00, -0.00, -1.00, 432.8, 679.3)">n</text><text xml:space="preserve" font-family="Georgia,Georgia" font-size="65.0" fill="#000000" transform="matrix(1.00, 0.00, -0.00, -1.00, 471.2, 679.3)">o</text><text xml:space="preserve" font-family="Georgia,Georgia" font-size="65.0" fill="#000000" transform="matrix(1.00, 0.00, -0.00, -1.00, 506.2, 679.3)">v</text><text xml:space="preserve" font-family="Georgia,Georgia" font-size="65.0" fill="#000000" transform="matrix(1.00, 0.00, -0.00, -1.00, 538.5, 679.3)">o</text><text xml:space="preserve" font-family="Georgia,Georgia" font-size="65.0" fill="#000000" transform="matrix(1.00, 0.00, -0.00, -1.00, 573.5, 679.3)">i</text><text xml:space="preserve" font-family="Georgia,Georgia" font-size="65.0" fill="#000000" transform="matrix(1.00, 0.00, -0.00, -1.00, 592.6, 679.3)">m</text><text xml:space="preserve" font-family="Georgia,Georgia" font-size="65.0" fill="#000000" transform="matrix(1.00, 0.00, -0.00, -1.00, 649.8, 679.3)">a</text><text xml:space="preserve" font-family="Georgia,Georgia" font-size="27.0" fill="#000000" transform="matrix(1.00, 0.00, -0.00, -1.00, 79.0, 582.9)">•</text><text xml:space="preserve" font-family="Georgia,Georgia" font-size="36.0" fill="#000000" transform="matrix(1.00, 0.00, -0.00, -1.00, 114.0, 579.9)">M</text><text xml:space="preserve" font-family="Georgia,Georgia" font-size="36.0" fill="#000000" transform="matrix(1.00, 0.00, -0.00, -1.00, 147.4, 579.9)">a</text><text xml:space="preserve" font-family="Georgia,Georgia" font-size="36.0" fill="#000000" transform="matrix(1.00, 0.00, -0.00, -1.00, 165.5, 579.9)">a</text><text xml:space="preserve" font-family="Georgia,Georgia" font-size="36.0" fill="#000000" transform="matrix(1.00, 0.00, -0.00, -1.00, 183.7, 579.9)">n</text><text xml:space="preserve" font-family="Georgia,Georgia" font-size="36.0" fill="#000000" transform="matrix(1.00, 0.00, -0.00, -1.00, 204.9, 579.9)"> </text><text xml:space="preserve" font-family="Georgia,Georgia" font-size="36.0" fill="#000000" transform="matrix(1.00, 0.00, -0.00, -1.00, 213.6, 579.9)">v</text><text xml:space="preserve" font-family="Georgia,Georgia" font-size="36.0" fill="#000000" transform="matrix(1.00, 0.00, -0.00, -1.00, 231.5, 579.9)">e</text><text xml:space="preserve" font-family="Georgia,Georgia" font-size="36.0" fill="#000000" transform="matrix(1.00, 0.00, -0.00, -1.00, 248.9, 579.9)">t</text><text xml:space="preserve" font-family="Georgia,Georgia" font-size="36.0" fill="#000000" transform="matrix(1.00, 0.00, -0.00, -1.00, 261.3, 579.9)">o</text><text xml:space="preserve" font-family="Georgia,Georgia" font-size="36.0" fill="#000000" transform="matrix(1.00, 0.00, -0.00, -1.00, 280.7, 579.9)">v</text><text xml:space="preserve" font-family="Georgia,Georgia" font-size="36.0" fill="#000000" transform="matrix(1.00, 0.00, -0.00, -1.00, 298.6, 579.9)">o</text><text xml:space="preserve" font-family="Georgia,Georgia" font-size="36.0" fill="#000000" transform="matrix(1.00, 0.00, -0.00, -1.00, 318.0, 579.9)">i</text><text xml:space="preserve" font-family="Georgia,Georgia" font-size="36.0" fill="#000000" transform="matrix(1.00, 0.00, -0.00, -1.00, 328.6, 579.9)">m</text><text xml:space="preserve" font-family="Georgia,Georgia" font-size="36.0" fill="#000000" transform="matrix(1.00, 0.00, -0.00, -1.00, 360.3, 579.9)">a</text><text xml:space="preserve" font-family="Georgia,Georgia" font-size="36.0" fill="#000000" transform="matrix(1.00, 0.00, -0.00, -1.00, 378.4, 579.9)"> </text><text xml:space="preserve" font-family="Georgia,Georgia" font-size="36.0" fill="#000000" transform="matrix(1.00, 0.00, -0.00, -1.00, 387.1, 579.9)">v</text><text xml:space="preserve" font-family="Georgia,Georgia" font-size="36.0" fill="#000000" transform="matrix(1.00, 0.00, -0.00, -1.00, 405.0, 579.9)">e</text><text xml:space="preserve" font-family="Georgia,Georgia" font-size="36.0" fill="#000000" transform="matrix(1.00, 0.00, -0.00, -1.00, 422.4, 579.9)">t</text><text xml:space="preserve" font-family="Georgia,Georgia" font-size="36.0" fill="#000000" transform="matrix(1.00, 0.00, -0.00, -1.00, 434.8, 579.9)">ä</text><text xml:space="preserve" font-family="Georgia,Georgia" font-size="36.0" fill="#000000" transform="matrix(1.00, 0.00, -0.00, -1.00, 452.9, 579.9)">ä</text><text xml:space="preserve" font-family="Georgia,Georgia" font-size="36.0" fill="#000000" transform="matrix(1.00, 0.00, -0.00, -1.00, 471.1, 579.9)"> </text><text xml:space="preserve" font-family="Georgia,Georgia" font-size="36.0" fill="#000000" transform="matrix(1.00, 0.00, -0.00, -1.00, 479.8, 579.9)">j</text><text xml:space="preserve" font-family="Georgia,Georgia" font-size="36.0" fill="#000000" transform="matrix(1.00, 0.00, -0.00, -1.00, 490.3, 579.9)">o</text><text xml:space="preserve" font-family="Georgia,Georgia" font-size="36.0" fill="#000000" transform="matrix(1.00, 0.00, -0.00, -1.00, 509.7, 579.9)">k</text><text xml:space="preserve" font-family="Georgia,Georgia" font-size="36.0" fill="#000000" transform="matrix(1.00, 0.00, -0.00, -1.00, 529.0, 579.9)">a</text><text xml:space="preserve" font-family="Georgia,Georgia" font-size="36.0" fill="#000000" transform="matrix(1.00, 0.00, -0.00, -1.00, 547.1, 579.9)">i</text><text xml:space="preserve" font-family="Georgia,Georgia" font-size="36.0" fill="#000000" transform="matrix(1.00, 0.00, -0.00, -1.00, 557.6, 579.9)">s</text><text xml:space="preserve" font-family="Georgia,Georgia" font-size="36.0" fill="#000000" transform="matrix(1.00, 0.00, -0.00, -1.00, 573.2, 579.9)">t</text><text xml:space="preserve" font-family="Georgia,Georgia" font-size="36.0" fill="#000000" transform="matrix(1.00, 0.00, -0.00, -1.00, 585.6, 579.9)">a</text><text xml:space="preserve" font-family="Georgia,Georgia" font-size="36.0" fill="#000000" transform="matrix(1.00, 0.00, -0.00, -1.00, 603.8, 579.9)"> </text><text xml:space="preserve" font-family="Georgia,Georgia" font-size="36.0" fill="#000000" transform="matrix(1.00, 0.00, -0.00, -1.00, 612.5, 579.9)">e</text><text xml:space="preserve" font-family="Georgia,Georgia" font-size="36.0" fill="#000000" transform="matrix(1.00, 0.00, -0.00, -1.00, 629.9, 579.9)">s</text><text xml:space="preserve" font-family="Georgia,Georgia" font-size="36.0" fill="#000000" transform="matrix(1.00, 0.00, -0.00, -1.00, 645.4, 579.9)">i</text><text xml:space="preserve" font-family="Georgia,Georgia" font-size="36.0" fill="#000000" transform="matrix(1.00, 0.00, -0.00, -1.00, 656.0, 579.9)">n</text><text xml:space="preserve" font-family="Georgia,Georgia" font-size="36.0" fill="#000000" transform="matrix(1.00, 0.00, -0.00, -1.00, 677.3, 579.9)">e</text><text xml:space="preserve" font-family="Georgia,Georgia" font-size="36.0" fill="#000000" transform="matrix(1.00, 0.00, -0.00, -1.00, 694.7, 579.9)">e</text><text xml:space="preserve" font-family="Georgia,Georgia" font-size="36.0" fill="#000000" transform="matrix(1.00, 0.00, -0.00, -1.00, 712.1, 579.9)">n</text><text xml:space="preserve" font-family="Georgia,Georgia" font-size="36.0" fill="#000000" transform="matrix(1.00, 0.00, -0.00, -1.00, 733.4, 579.9)"> </text><text xml:space="preserve" font-family="Georgia,Georgia" font-size="36.0" fill="#000000" transform="matrix(1.00, 0.00, -0.00, -1.00, 114.0, 538.9)">r</text><text xml:space="preserve" font-family="Georgia,Georgia" font-size="36.0" fill="#000000" transform="matrix(1.00, 0.00, -0.00, -1.00, 128.7, 538.9)">a</text><text xml:space="preserve" font-family="Georgia,Georgia" font-size="36.0" fill="#000000" transform="matrix(1.00, 0.00, -0.00, -1.00, 146.9, 538.9)">k</text><text xml:space="preserve" font-family="Georgia,Georgia" font-size="36.0" fill="#000000" transform="matrix(1.00, 0.00, -0.00, -1.00, 166.1, 538.9)">e</text><text xml:space="preserve" font-family="Georgia,Georgia" font-size="36.0" fill="#000000" transform="matrix(1.00, 0.00, -0.00, -1.00, 183.6, 538.9)">n</text><text xml:space="preserve" font-family="Georgia,Georgia" font-size="36.0" fill="#000000" transform="matrix(1.00, 0.00, -0.00, -1.00, 204.8, 538.9)">n</text><text xml:space="preserve" font-family="Georgia,Georgia" font-size="36.0" fill="#000000" transform="matrix(1.00, 0.00, -0.00, -1.00, 226.1, 538.9)">e</text><text xml:space="preserve" font-family="Georgia,Georgia" font-size="36.0" fill="#000000" transform="matrix(1.00, 0.00, -0.00, -1.00, 243.5, 538.9)">o</text><text xml:space="preserve" font-family="Georgia,Georgia" font-size="36.0" fill="#000000" transform="matrix(1.00, 0.00, -0.00, -1.00, 262.9, 538.9)">s</text><text xml:space="preserve" font-family="Georgia,Georgia" font-size="36.0" fill="#000000" transform="matrix(1.00, 0.00, -0.00, -1.00, 278.5, 538.9)">a</text><text xml:space="preserve" font-family="Georgia,Georgia" font-size="36.0" fill="#000000" transform="matrix(1.00, 0.00, -0.00, -1.00, 296.6, 538.9)">s</text><text xml:space="preserve" font-family="Georgia,Georgia" font-size="36.0" fill="#000000" transform="matrix(1.00, 0.00, -0.00, -1.00, 312.1, 538.9)">t</text><text xml:space="preserve" font-family="Georgia,Georgia" font-size="36.0" fill="#000000" transform="matrix(1.00, 0.00, -0.00, -1.00, 324.6, 538.9)">a</text><text xml:space="preserve" font-family="Georgia,Georgia" font-size="36.0" fill="#000000" transform="matrix(1.00, 0.00, -0.00, -1.00, 342.7, 538.9)"> </text><text xml:space="preserve" font-family="Georgia,Georgia" font-size="36.0" fill="#000000" transform="matrix(1.00, 0.00, -0.00, -1.00, 351.4, 538.9)">p</text><text xml:space="preserve" font-family="Georgia,Georgia" font-size="36.0" fill="#000000" transform="matrix(1.00, 0.00, -0.00, -1.00, 372.0, 538.9)">u</text><text xml:space="preserve" font-family="Georgia,Georgia" font-size="36.0" fill="#000000" transform="matrix(1.00, 0.00, -0.00, -1.00, 392.7, 538.9)">o</text><text xml:space="preserve" font-family="Georgia,Georgia" font-size="36.0" fill="#000000" transform="matrix(1.00, 0.00, -0.00, -1.00, 412.1, 538.9)">l</text><text xml:space="preserve" font-family="Georgia,Georgia" font-size="36.0" fill="#000000" transform="matrix(1.00, 0.00, -0.00, -1.00, 422.4, 538.9)">e</text><text xml:space="preserve" font-family="Georgia,Georgia" font-size="36.0" fill="#000000" transform="matrix(1.00, 0.00, -0.00, -1.00, 439.9, 538.9)">e</text><text xml:space="preserve" font-family="Georgia,Georgia" font-size="36.0" fill="#000000" transform="matrix(1.00, 0.00, -0.00, -1.00, 457.3, 538.9)">n</text><text xml:space="preserve" font-family="Georgia,Georgia" font-size="36.0" fill="#000000" transform="matrix(1.00, 0.00, -0.00, -1.00, 478.5, 538.9)">s</text><text xml:space="preserve" font-family="Georgia,Georgia" font-size="36.0" fill="#000000" transform="matrix(1.00, 0.00, -0.00, -1.00, 494.1, 538.9)">a</text><text xml:space="preserve" font-family="Georgia,Georgia" font-size="27.0" fill="#000000" transform="matrix(1.00, 0.00, -0.00, -1.00, 69.3, 155.8)">•</text><text xml:space="preserve" font-family="Georgia,Georgia" font-size="36.0" fill="#000000" transform="matrix(1.00, 0.00, -0.00, -1.00, 104.3, 152.8)">K</text><text xml:space="preserve" font-family="Georgia,Georgia" font-size="36.0" fill="#000000" transform="matrix(1.00, 0.00, -0.00, -1.00, 129.3, 152.8)">u</text><text xml:space="preserve" font-family="Georgia,Georgia" font-size="36.0" fill="#000000" transform="matrix(1.00, 0.00, -0.00, -1.00, 150.0, 152.8)">n</text><text xml:space="preserve" font-family="Georgia,Georgia" font-size="36.0" fill="#000000" transform="matrix(1.00, 0.00, -0.00, -1.00, 171.3, 152.8)"> </text><text xml:space="preserve" font-family="Georgia,Georgia" font-size="36.0" fill="#000000" transform="matrix(1.00, 0.00, -0.00, -1.00, 179.9, 152.8)">k</text><text xml:space="preserve" font-family="Georgia,Georgia" font-size="36.0" fill="#000000" transform="matrix(1.00, 0.00, -0.00, -1.00, 199.2, 152.8)">a</text><text xml:space="preserve" font-family="Georgia,Georgia" font-size="36.0" fill="#000000" transform="matrix(1.00, 0.00, -0.00, -1.00, 217.4, 152.8)">i</text><text xml:space="preserve" font-family="Georgia,Georgia" font-size="36.0" fill="#000000" transform="matrix(1.00, 0.00, -0.00, -1.00, 227.9, 152.8)">k</text><text xml:space="preserve" font-family="Georgia,Georgia" font-size="36.0" fill="#000000" transform="matrix(1.00, 0.00, -0.00, -1.00, 247.2, 152.8)">k</text><text xml:space="preserve" font-family="Georgia,Georgia" font-size="36.0" fill="#000000" transform="matrix(1.00, 0.00, -0.00, -1.00, 266.4, 152.8)">i</text><text xml:space="preserve" font-family="Georgia,Georgia" font-size="36.0" fill="#000000" transform="matrix(1.00, 0.00, -0.00, -1.00, 277.0, 152.8)"> </text><text xml:space="preserve" font-family="Georgia,Georgia" font-size="36.0" fill="#000000" transform="matrix(1.00, 0.00, -0.00, -1.00, 285.7, 152.8)">v</text><text xml:space="preserve" font-family="Georgia,Georgia" font-size="36.0" fill="#000000" transform="matrix(1.00, 0.00, -0.00, -1.00, 303.5, 152.8)">o</text><text xml:space="preserve" font-family="Georgia,Georgia" font-size="36.0" fill="#000000" transform="matrix(1.00, 0.00, -0.00, -1.00, 322.9, 152.8)">i</text><text xml:space="preserve" font-family="Georgia,Georgia" font-size="36.0" fill="#000000" transform="matrix(1.00, 0.00, -0.00, -1.00, 333.5, 152.8)">m</text><text xml:space="preserve" font-family="Georgia,Georgia" font-size="36.0" fill="#000000" transform="matrix(1.00, 0.00, -0.00, -1.00, 365.2, 152.8)">a</text><text xml:space="preserve" font-family="Georgia,Georgia" font-size="36.0" fill="#000000" transform="matrix(1.00, 0.00, -0.00, -1.00, 383.3, 152.8)">t</text><text xml:space="preserve" font-family="Georgia,Georgia" font-size="36.0" fill="#000000" transform="matrix(1.00, 0.00, -0.00, -1.00, 395.8, 152.8)"> </text><text xml:space="preserve" font-family="Georgia,Georgia" font-size="36.0" fill="#000000" transform="matrix(1.00, 0.00, -0.00, -1.00, 404.5, 152.8)">l</text><text xml:space="preserve" font-family="Georgia,Georgia" font-size="36.0" fill="#000000" transform="matrix(1.00, 0.00, -0.00, -1.00, 414.8, 152.8)">a</text><text xml:space="preserve" font-family="Georgia,Georgia" font-size="36.0" fill="#000000" transform="matrix(1.00, 0.00, -0.00, -1.00, 432.9, 152.8)">s</text><text xml:space="preserve" font-family="Georgia,Georgia" font-size="36.0" fill="#000000" transform="matrix(1.00, 0.00, -0.00, -1.00, 448.5, 152.8)">k</text><text xml:space="preserve" font-family="Georgia,Georgia" font-size="36.0" fill="#000000" transform="matrix(1.00, 0.00, -0.00, -1.00, 467.7, 152.8)">e</text><text xml:space="preserve" font-family="Georgia,Georgia" font-size="36.0" fill="#000000" transform="matrix(1.00, 0.00, -0.00, -1.00, 485.2, 152.8)">t</text><text xml:space="preserve" font-family="Georgia,Georgia" font-size="36.0" fill="#000000" transform="matrix(1.00, 0.00, -0.00, -1.00, 497.6, 152.8)">a</text><text xml:space="preserve" font-family="Georgia,Georgia" font-size="36.0" fill="#000000" transform="matrix(1.00, 0.00, -0.00, -1.00, 515.7, 152.8)">a</text><text xml:space="preserve" font-family="Georgia,Georgia" font-size="36.0" fill="#000000" transform="matrix(1.00, 0.00, -0.00, -1.00, 533.9, 152.8)">n</text><text xml:space="preserve" font-family="Georgia,Georgia" font-size="36.0" fill="#000000" transform="matrix(1.00, 0.00, -0.00, -1.00, 555.1, 152.8)"> </text><text xml:space="preserve" font-family="Georgia,Georgia" font-size="36.0" fill="#000000" transform="matrix(1.00, 0.00, -0.00, -1.00, 563.8, 152.8)">y</text><text xml:space="preserve" font-family="Georgia,Georgia" font-size="36.0" fill="#000000" transform="matrix(1.00, 0.00, -0.00, -1.00, 581.5, 152.8)">h</text><text xml:space="preserve" font-family="Georgia,Georgia" font-size="36.0" fill="#000000" transform="matrix(1.00, 0.00, -0.00, -1.00, 602.5, 152.8)">t</text><text xml:space="preserve" font-family="Georgia,Georgia" font-size="36.0" fill="#000000" transform="matrix(1.00, 0.00, -0.00, -1.00, 614.9, 152.8)">e</text><text xml:space="preserve" font-family="Georgia,Georgia" font-size="36.0" fill="#000000" transform="matrix(1.00, 0.00, -0.00, -1.00, 632.3, 152.8)">e</text><text xml:space="preserve" font-family="Georgia,Georgia" font-size="36.0" fill="#000000" transform="matrix(1.00, 0.00, -0.00, -1.00, 649.8, 152.8)">n</text><text xml:space="preserve" font-family="Georgia,Georgia" font-size="36.0" fill="#000000" transform="matrix(1.00, 0.00, -0.00, -1.00, 671.0, 152.8)">,</text><text xml:space="preserve" font-family="Georgia,Georgia" font-size="36.0" fill="#000000" transform="matrix(1.00, 0.00, -0.00, -1.00, 680.7, 152.8)"> </text><text xml:space="preserve" font-family="Georgia,Georgia" font-size="36.0" fill="#000000" transform="matrix(1.00, 0.00, -0.00, -1.00, 689.4, 152.8)">s</text><text xml:space="preserve" font-family="Georgia,Georgia" font-size="36.0" fill="#000000" transform="matrix(1.00, 0.00, -0.00, -1.00, 705.0, 152.8)">a</text><text xml:space="preserve" font-family="Georgia,Georgia" font-size="36.0" fill="#000000" transform="matrix(1.00, 0.00, -0.00, -1.00, 723.1, 152.8)">a</text><text xml:space="preserve" font-family="Georgia,Georgia" font-size="36.0" fill="#000000" transform="matrix(1.00, 0.00, -0.00, -1.00, 741.2, 152.8)">d</text><text xml:space="preserve" font-family="Georgia,Georgia" font-size="36.0" fill="#000000" transform="matrix(1.00, 0.00, -0.00, -1.00, 761.9, 152.8)">a</text><text xml:space="preserve" font-family="Georgia,Georgia" font-size="36.0" fill="#000000" transform="matrix(1.00, 0.00, -0.00, -1.00, 780.0, 152.8)">a</text><text xml:space="preserve" font-family="Georgia,Georgia" font-size="36.0" fill="#000000" transform="matrix(1.00, 0.00, -0.00, -1.00, 798.2, 152.8)">n</text><text xml:space="preserve" font-family="Georgia,Georgia" font-size="36.0" fill="#000000" transform="matrix(1.00, 0.00, -0.00, -1.00, 819.4, 152.8)"> </text><text xml:space="preserve" font-family="Georgia,Georgia" font-size="36.0" fill="#000000" transform="matrix(1.00, 0.00, -0.00, -1.00, 104.3, 111.8)">k</text><text xml:space="preserve" font-family="Georgia,Georgia" font-size="36.0" fill="#000000" transform="matrix(1.00, 0.00, -0.00, -1.00, 123.5, 111.8)">a</text><text xml:space="preserve" font-family="Georgia,Georgia" font-size="36.0" fill="#000000" transform="matrix(1.00, 0.00, -0.00, -1.00, 141.7, 111.8)">p</text><text xml:space="preserve" font-family="Georgia,Georgia" font-size="36.0" fill="#000000" transform="matrix(1.00, 0.00, -0.00, -1.00, 162.3, 111.8)">p</text><text xml:space="preserve" font-family="Georgia,Georgia" font-size="36.0" fill="#000000" transform="matrix(1.00, 0.00, -0.00, -1.00, 182.8, 111.8)">a</text><text xml:space="preserve" font-family="Georgia,Georgia" font-size="36.0" fill="#000000" transform="matrix(1.00, 0.00, -0.00, -1.00, 201.0, 111.8)">l</text><text xml:space="preserve" font-family="Georgia,Georgia" font-size="36.0" fill="#000000" transform="matrix(1.00, 0.00, -0.00, -1.00, 211.3, 111.8)">e</text><text xml:space="preserve" font-family="Georgia,Georgia" font-size="36.0" fill="#000000" transform="matrix(1.00, 0.00, -0.00, -1.00, 228.7, 111.8)">e</text><text xml:space="preserve" font-family="Georgia,Georgia" font-size="36.0" fill="#000000" transform="matrix(1.00, 0.00, -0.00, -1.00, 246.1, 111.8)">s</text><text xml:space="preserve" font-family="Georgia,Georgia" font-size="36.0" fill="#000000" transform="matrix(1.00, 0.00, -0.00, -1.00, 261.7, 111.8)">e</text><text xml:space="preserve" font-family="Georgia,Georgia" font-size="36.0" fill="#000000" transform="matrix(1.00, 0.00, -0.00, -1.00, 279.1, 111.8)">e</text><text xml:space="preserve" font-family="Georgia,Georgia" font-size="36.0" fill="#000000" transform="matrix(1.00, 0.00, -0.00, -1.00, 296.5, 111.8)">n</text><text xml:space="preserve" font-family="Georgia,Georgia" font-size="36.0" fill="#000000" transform="matrix(1.00, 0.00, -0.00, -1.00, 317.8, 111.8)"> </text><text xml:space="preserve" font-family="Georgia,Georgia" font-size="36.0" fill="#000000" transform="matrix(1.00, 0.00, -0.00, -1.00, 326.5, 111.8)">v</text><text xml:space="preserve" font-family="Georgia,Georgia" font-size="36.0" fill="#000000" transform="matrix(1.00, 0.00, -0.00, -1.00, 344.3, 111.8)">a</text><text xml:space="preserve" font-family="Georgia,Georgia" font-size="36.0" fill="#000000" transform="matrix(1.00, 0.00, -0.00, -1.00, 362.5, 111.8)">i</text><text xml:space="preserve" font-family="Georgia,Georgia" font-size="36.0" fill="#000000" transform="matrix(1.00, 0.00, -0.00, -1.00, 373.0, 111.8)">k</text><text xml:space="preserve" font-family="Georgia,Georgia" font-size="36.0" fill="#000000" transform="matrix(1.00, 0.00, -0.00, -1.00, 392.3, 111.8)">u</text><text xml:space="preserve" font-family="Georgia,Georgia" font-size="36.0" fill="#000000" transform="matrix(1.00, 0.00, -0.00, -1.00, 413.0, 111.8)">t</text><text xml:space="preserve" font-family="Georgia,Georgia" font-size="36.0" fill="#000000" transform="matrix(1.00, 0.00, -0.00, -1.00, 425.4, 111.8)">t</text><text xml:space="preserve" font-family="Georgia,Georgia" font-size="36.0" fill="#000000" transform="matrix(1.00, 0.00, -0.00, -1.00, 437.9, 111.8)">a</text><text xml:space="preserve" font-family="Georgia,Georgia" font-size="36.0" fill="#000000" transform="matrix(1.00, 0.00, -0.00, -1.00, 456.0, 111.8)">v</text><text xml:space="preserve" font-family="Georgia,Georgia" font-size="36.0" fill="#000000" transform="matrix(1.00, 0.00, -0.00, -1.00, 473.9, 111.8)">a</text><text xml:space="preserve" font-family="Georgia,Georgia" font-size="36.0" fill="#000000" transform="matrix(1.00, 0.00, -0.00, -1.00, 492.0, 111.8)"> </text><text xml:space="preserve" font-family="Georgia,Georgia" font-size="36.0" fill="#000000" transform="matrix(1.00, 0.00, -0.00, -1.00, 500.7, 111.8)">p</text><text xml:space="preserve" font-family="Georgia,Georgia" font-size="36.0" fill="#000000" transform="matrix(1.00, 0.00, -0.00, -1.00, 521.3, 111.8)">a</text><text xml:space="preserve" font-family="Georgia,Georgia" font-size="36.0" fill="#000000" transform="matrix(1.00, 0.00, -0.00, -1.00, 539.4, 111.8)">i</text><text xml:space="preserve" font-family="Georgia,Georgia" font-size="36.0" fill="#000000" transform="matrix(1.00, 0.00, -0.00, -1.00, 549.9, 111.8)">n</text><text xml:space="preserve" font-family="Georgia,Georgia" font-size="36.0" fill="#000000" transform="matrix(1.00, 0.00, -0.00, -1.00, 571.2, 111.8)">o</text><text xml:space="preserve" font-family="Georgia,Georgia" font-size="36.0" fill="#000000" transform="matrix(1.00, 0.00, -0.00, -1.00, 590.6, 111.8)">v</text><text xml:space="preserve" font-family="Georgia,Georgia" font-size="36.0" fill="#000000" transform="matrix(1.00, 0.00, -0.00, -1.00, 608.5, 111.8)">o</text><text xml:space="preserve" font-family="Georgia,Georgia" font-size="36.0" fill="#000000" transform="matrix(1.00, 0.00, -0.00, -1.00, 627.9, 111.8)">i</text><text xml:space="preserve" font-family="Georgia,Georgia" font-size="36.0" fill="#000000" transform="matrix(1.00, 0.00, -0.00, -1.00, 638.4, 111.8)">m</text><text xml:space="preserve" font-family="Georgia,Georgia" font-size="36.0" fill="#000000" transform="matrix(1.00, 0.00, -0.00, -1.00, 670.1, 111.8)">a</text><image xlink:href="../../0099E750-43F4-4A1E-80C1-2076B752852F/assets/1C69DA7A0957C8AE12006FB215ED8C32.jpeg" width="1024.00" height="375.00" transform="matrix(-0.39, 0.00, 0.00, -0.39, 685.0, 483.0)"></image><g><clipPath id="clip0x6000012adb60"><path d="M 305.8 353.0 L 305.8 319.2 L 294.2 319.2 L 294.2 353.0 Z M 305.8 353.0 "></path></clipPath><g clip-path="url(#clip0x6000012adb60)"><path d="M 0.0 0.0 L 22.2 0.0 L 23.0 0.0 " fill="none" stroke="#000000" stroke-width="2.00" transform="matrix(0.00, -1.00, -1.00, 0.00, 300.0, 352.0)"></path><path d="M 295.2 330.0 L 300.0 320.4 L 304.8 330.0 Z M 295.2 330.0 " fill="#000000"></path></g></g><g><clipPath id="clip0x6000014b8360"><path d="M 353.6 360.6 L 353.6 326.8 L 342.0 326.8 L 342.0 360.6 Z M 353.6 360.6 "></path></clipPath><g clip-path="url(#clip0x6000014b8360)"><path d="M -0.4 -0.2 L 22.2 -0.2 L 23.6 -0.2 " fill="none" stroke="#000000" stroke-width="2.00" transform="matrix(0.00, -1.00, -1.00, 0.00, 347.8, 359.6)"></path><path d="M 343.2 337.0 L 348.0 327.4 L 352.8 337.0 Z M 343.2 337.0 " fill="#000000"></path></g></g><g><clipPath id="clip0x6000016ab7c0"><path d="M 425.4 372.1 L 425.4 338.3 L 413.8 338.3 L 413.8 372.1 Z M 425.4 372.1 "></path></clipPath><g clip-path="url(#clip0x6000016ab7c0)"><path d="M 0.1 -0.4 L 22.2 -0.4 L 23.1 -0.4 " fill="none" stroke="#000000" stroke-width="2.00" transform="matrix(0.00, -1.00, -1.00, 0.00, 419.6, 371.1)"></path><path d="M 415.2 349.0 L 420.0 339.4 L 424.8 349.0 Z M 415.2 349.0 " fill="#000000"></path></g></g><g><clipPath id="clip0x6000016a2ca0"><path d="M 497.2 383.5 L 497.2 349.7 L 485.6 349.7 L 485.6 383.5 Z M 497.2 383.5 "></path></clipPath><g clip-path="url(#clip0x6000016a2ca0)"><path d="M -0.5 0.4 L 22.2 0.4 L 23.5 0.4 " fill="none" stroke="#000000" stroke-width="2.00" transform="matrix(0.00, -1.00, -1.00, 0.00, 491.4, 382.5)"></path><path d="M 486.2 360.0 L 491.0 350.4 L 495.8 360.0 Z M 486.2 360.0 " fill="#000000"></path></g></g><g><clipPath id="clip0x6000014b3020"><path d="M 329.7 356.8 L 329.7 323.0 L 318.1 323.0 L 318.1 356.8 Z M 329.7 356.8 "></path></clipPath><g clip-path="url(#clip0x6000014b3020)"><path d="M -0.2 -0.1 L 22.2 -0.1 L 22.8 -0.1 " fill="none" stroke="#000000" stroke-width="2.00" transform="matrix(0.00, -1.00, -1.00, 0.00, 323.9, 355.8)"></path><path d="M 319.2 334.0 L 324.0 324.4 L 328.8 334.0 Z M 319.2 334.0 " fill="#000000"></path></g></g><g><clipPath id="clip0x6000016a3720"><path d="M 377.6 364.4 L 377.6 330.7 L 366.0 330.7 L 366.0 364.4 Z M 377.6 364.4 "></path></clipPath><g clip-path="url(#clip0x6000016a3720)"><path d="M 0.4 -0.2 L 22.2 -0.2 L 23.4 -0.2 " fill="none" stroke="#000000" stroke-width="2.00" transform="matrix(0.00, -1.00, -1.00, 0.00, 371.8, 363.4)"></path><path d="M 367.2 341.0 L 372.0 331.4 L 376.8 341.0 Z M 367.2 341.0 " fill="#000000"></path></g></g><g><clipPath id="clip0x6000014ae340"><path d="M 401.5 368.3 L 401.5 334.5 L 389.9 334.5 L 389.9 368.3 Z M 401.5 368.3 "></path></clipPath><g clip-path="url(#clip0x6000014ae340)"><path d="M 0.3 -0.3 L 22.2 -0.3 L 23.3 -0.3 " fill="none" stroke="#000000" stroke-width="2.00" transform="matrix(0.00, -1.00, -1.00, 0.00, 395.7, 367.3)"></path><path d="M 391.2 345.0 L 396.0 335.4 L 400.8 345.0 Z M 391.2 345.0 " fill="#000000"></path></g></g><g><clipPath id="clip0x6000014bc020"><path d="M 449.3 375.9 L 449.3 342.1 L 437.7 342.1 L 437.7 375.9 Z M 449.3 375.9 "></path></clipPath><g clip-path="url(#clip0x6000014bc020)"><path d="M -0.1 -0.5 L 22.2 -0.5 L 22.9 -0.5 " fill="none" stroke="#000000" stroke-width="2.00" transform="matrix(0.00, -1.00, -1.00, 0.00, 443.5, 374.9)"></path><path d="M 439.2 353.0 L 444.0 343.4 L 448.8 353.0 Z M 439.2 353.0 " fill="#000000"></path></g></g><g><clipPath id="clip0x6000006b8d20"><path d="M 473.3 379.7 L 473.3 345.9 L 461.7 345.9 L 461.7 379.7 Z M 473.3 379.7 "></path></clipPath><g clip-path="url(#clip0x6000006b8d20)"><path d="M -0.3 0.5 L 22.2 0.5 L 22.7 0.5 " fill="none" stroke="#000000" stroke-width="2.00" transform="matrix(0.00, -1.00, -1.00, 0.00, 467.5, 378.7)"></path><path d="M 462.2 357.0 L 467.0 347.4 L 471.8 357.0 Z M 462.2 357.0 " fill="#000000"></path></g></g><g><clipPath id="clip0x6000014b77c0"><path d="M 521.1 387.3 L 521.1 353.5 L 509.5 353.5 L 509.5 387.3 Z M 521.1 387.3 "></path></clipPath><g clip-path="url(#clip0x6000014b77c0)"><path d="M 0.3 0.3 L 22.2 0.3 L 23.3 0.3 " fill="none" stroke="#000000" stroke-width="2.00" transform="matrix(0.00, -1.00, -1.00, 0.00, 515.3, 386.3)"></path><path d="M 510.2 364.0 L 515.0 354.4 L 519.8 364.0 Z M 510.2 364.0 " fill="#000000"></path></g></g><g><clipPath id="clip0x6000014b50c0"><path d="M 545.0 391.2 L 545.0 357.4 L 533.4 357.4 L 533.4 391.2 Z M 545.0 391.2 "></path></clipPath><g clip-path="url(#clip0x6000014b50c0)"><path d="M 0.2 0.2 L 22.2 0.2 L 23.2 0.2 " fill="none" stroke="#000000" stroke-width="2.00" transform="matrix(0.00, -1.00, -1.00, 0.00, 539.2, 390.2)"></path><path d="M 534.2 368.0 L 539.0 358.4 L 543.8 368.0 Z M 534.2 368.0 " fill="#000000"></path></g></g><g><clipPath id="clip0x6000014ac540"><path d="M 569.0 395.0 L 569.0 361.2 L 557.4 361.2 L 557.4 395.0 Z M 569.0 395.0 "></path></clipPath><g clip-path="url(#clip0x6000014ac540)"><path d="M -0.0 0.2 L 22.2 0.2 L 23.0 0.2 " fill="none" stroke="#000000" stroke-width="2.00" transform="matrix(0.00, -1.00, -1.00, 0.00, 563.2, 394.0)"></path><path d="M 558.2 372.0 L 563.0 362.4 L 567.8 372.0 Z M 558.2 372.0 " fill="#000000"></path></g></g><g><clipPath id="clip0x6000016baa60"><path d="M 592.9 398.8 L 592.9 365.0 L 581.3 365.0 L 581.3 398.8 Z M 592.9 398.8 "></path></clipPath><g clip-path="url(#clip0x6000016baa60)"><path d="M -0.2 0.1 L 22.2 0.1 L 22.8 0.1 " fill="none" stroke="#000000" stroke-width="2.00" transform="matrix(0.00, -1.00, -1.00, 0.00, 587.1, 397.8)"></path><path d="M 582.2 376.0 L 587.0 366.4 L 591.8 376.0 Z M 582.2 376.0 " fill="#000000"></path></g></g><g><clipPath id="clip0x6000014b1640"><path d="M 616.8 402.6 L 616.8 368.8 L 605.2 368.8 L 605.2 402.6 Z M 616.8 402.6 "></path></clipPath><g clip-path="url(#clip0x6000014b1640)"><path d="M -0.4 0.0 L 22.2 0.0 L 23.6 0.0 " fill="none" stroke="#000000" stroke-width="2.00" transform="matrix(0.00, -1.00, -1.00, 0.00, 611.0, 401.6)"></path><path d="M 606.2 379.0 L 611.0 369.4 L 615.8 379.0 Z M 606.2 379.0 " fill="#000000"></path></g></g><g><clipPath id="clip0x6000014b76a0"><path d="M 627.8 400.8 L 627.8 355.2 L 616.2 355.2 L 616.2 400.8 Z M 627.8 400.8 "></path></clipPath><g clip-path="url(#clip0x6000014b76a0)"><path d="M -0.2 0.0 L 34.0 0.0 L 34.8 0.0 " fill="none" stroke="#000000" stroke-width="2.00" transform="matrix(0.00, -1.00, -1.00, 0.00, 622.0, 399.8)"></path><path d="M 617.2 366.0 L 622.0 356.4 L 626.8 366.0 Z M 617.2 366.0 " fill="#000000"></path></g></g><g><clipPath id="clip0x6000014bd580"><path d="M 645.3 397.1 L 645.3 351.5 L 633.7 351.5 L 633.7 397.1 Z M 645.3 397.1 "></path></clipPath><g clip-path="url(#clip0x6000014bd580)"><path d="M 0.1 0.5 L 34.0 0.5 L 35.1 0.5 " fill="none" stroke="#000000" stroke-width="2.00" transform="matrix(0.00, -1.00, -1.00, 0.00, 639.5, 396.1)"></path><path d="M 634.2 362.0 L 639.0 352.4 L 643.8 362.0 Z M 634.2 362.0 " fill="#000000"></path></g></g><g><clipPath id="clip0x6000014b13a0"><path d="M 657.7 352.5 L 657.7 306.9 L 646.1 306.9 L 646.1 352.5 Z M 657.7 352.5 "></path></clipPath><g clip-path="url(#clip0x6000014b13a0)"><path d="M -0.5 -0.1 L 34.0 -0.1 L 34.5 -0.1 " fill="none" stroke="#000000" stroke-width="2.00" transform="matrix(0.00, -1.00, -1.00, 0.00, 651.9, 351.5)"></path><path d="M 647.2 318.0 L 652.0 308.4 L 656.8 318.0 Z M 647.2 318.0 " fill="#000000"></path></g></g><g><clipPath id="clip0x6000010be4e0"><path d="M 671.8 352.2 L 671.8 306.6 L 660.2 306.6 L 660.2 352.2 Z M 671.8 352.2 "></path></clipPath><g clip-path="url(#clip0x6000010be4e0)"><path d="M 0.2 0.0 L 34.0 0.0 L 35.2 0.0 " fill="none" stroke="#000000" stroke-width="2.00" transform="matrix(0.00, -1.00, -1.00, 0.00, 666.0, 351.2)"></path><path d="M 661.2 317.0 L 666.0 307.4 L 670.8 317.0 Z M 661.2 317.0 " fill="#000000"></path></g></g><g><clipPath id="clip0x6000008b21e0"><path d="M 685.6 354.2 L 685.6 308.6 L 674.0 308.6 L 674.0 354.2 Z M 685.6 354.2 "></path></clipPath><g clip-path="url(#clip0x6000008b21e0)"><path d="M 0.2 -0.2 L 34.0 -0.2 L 35.2 -0.2 " fill="none" stroke="#000000" stroke-width="2.00" transform="matrix(0.00, -1.00, -1.00, 0.00, 679.8, 353.2)"></path><path d="M 675.2 319.0 L 680.0 309.4 L 684.8 319.0 Z M 675.2 319.0 " fill="#000000"></path></g></g><g><clipPath id="clip0x6000010bd4c0"><path d="M 600.9 467.8 L 600.9 434.0 L 589.3 434.0 L 589.3 467.8 Z M 600.9 467.8 "></path></clipPath><g clip-path="url(#clip0x6000010bd4c0)"><path d="M -0.2 0.1 L 22.2 0.1 L 22.8 0.1 " fill="none" stroke="#000000" stroke-width="2.00" transform="matrix(0.00, -1.00, -1.00, 0.00, 595.1, 466.8)"></path><path d="M 590.2 445.0 L 595.0 435.4 L 599.8 445.0 Z M 590.2 445.0 " fill="#000000"></path></g></g><path d="M 0.2 -0.0 L 123.4 -0.0 L 126.2 -0.0 " fill="none" stroke="#851001" stroke-width="6.00" transform="matrix(0.00, -1.00, -1.00, 0.00, 581.0, 402.2)"></path><path d="M 569.0 279.0 L 581.0 255.0 L 593.0 279.0 Z M 569.0 279.0 " fill="#851001"></path></g></svg>