<?xml version="1.0" encoding="UTF-8" standalone="no"?><svg xmlns="http://www.w3.org/2000/svg" xmlns:xlink="http://www.w3.org/1999/xlink" clip-rule="evenodd" stroke-miterlimit="10" viewBox="0 0 392 162"><desc>SVG generated by Keynote</desc><defs></defs><g transform="matrix(1.00, 0.00, -0.00, -1.00, 0.0, 162.0)"><g><clipPath id="clip0x7fda2cbd3790"><path d="M 11.8 47.0 L 11.8 13.2 L 0.2 13.2 L 0.2 47.0 Z M 11.8 47.0 "></path></clipPath><g clip-path="url(#clip0x7fda2cbd3790)"><path d="M 0.0 0.0 L 22.2 0.0 L 23.0 0.0 " fill="none" stroke="#000000" stroke-width="2.00" transform="matrix(0.00, -1.00, -1.00, 0.00, 6.0, 46.0)"></path><path d="M 1.2 24.0 L 6.0 14.4 L 10.8 24.0 Z M 1.2 24.0 " fill="#000000"></path></g></g><g><clipPath id="clip0x7fda2cbd59a0"><path d="M 59.6 54.6 L 59.6 20.8 L 48.0 20.8 L 48.0 54.6 Z M 59.6 54.6 "></path></clipPath><g clip-path="url(#clip0x7fda2cbd59a0)"><path d="M -0.4 -0.2 L 22.2 -0.2 L 23.6 -0.2 " fill="none" stroke="#000000" stroke-width="2.00" transform="matrix(0.00, -1.00, -1.00, 0.00, 53.8, 53.6)"></path><path d="M 49.2 31.0 L 54.0 21.4 L 58.8 31.0 Z M 49.2 31.0 " fill="#000000"></path></g></g><g><clipPath id="clip0x7fda2cbd6fe0"><path d="M 131.4 66.1 L 131.4 32.3 L 119.8 32.3 L 119.8 66.1 Z M 131.4 66.1 "></path></clipPath><g clip-path="url(#clip0x7fda2cbd6fe0)"><path d="M 0.1 -0.4 L 22.2 -0.4 L 23.1 -0.4 " fill="none" stroke="#000000" stroke-width="2.00" transform="matrix(0.00, -1.00, -1.00, 0.00, 125.6, 65.1)"></path><path d="M 121.2 43.0 L 126.0 33.4 L 130.8 43.0 Z M 121.2 43.0 " fill="#000000"></path></g></g><g><clipPath id="clip0x7fda2c94a1a0"><path d="M 203.2 77.5 L 203.2 43.7 L 191.6 43.7 L 191.6 77.5 Z M 203.2 77.5 "></path></clipPath><g clip-path="url(#clip0x7fda2c94a1a0)"><path d="M -0.5 0.4 L 22.2 0.4 L 23.5 0.4 " fill="none" stroke="#000000" stroke-width="2.00" transform="matrix(0.00, -1.00, -1.00, 0.00, 197.4, 76.5)"></path><path d="M 192.2 54.0 L 197.0 44.4 L 201.8 54.0 Z M 192.2 54.0 " fill="#000000"></path></g></g><g><clipPath id="clip0x7fda2c94b3f0"><path d="M 35.7 50.8 L 35.7 17.0 L 24.1 17.0 L 24.1 50.8 Z M 35.7 50.8 "></path></clipPath><g clip-path="url(#clip0x7fda2c94b3f0)"><path d="M -0.2 -0.1 L 22.2 -0.1 L 22.8 -0.1 " fill="none" stroke="#000000" stroke-width="2.00" transform="matrix(0.00, -1.00, -1.00, 0.00, 29.9, 49.8)"></path><path d="M 25.2 28.0 L 30.0 18.4 L 34.8 28.0 Z M 25.2 28.0 " fill="#000000"></path></g></g><g><clipPath id="clip0x7fda2c948a00"><path d="M 83.6 58.4 L 83.6 24.7 L 72.0 24.7 L 72.0 58.4 Z M 83.6 58.4 "></path></clipPath><g clip-path="url(#clip0x7fda2c948a00)"><path d="M 0.4 -0.2 L 22.2 -0.2 L 23.4 -0.2 " fill="none" stroke="#000000" stroke-width="2.00" transform="matrix(0.00, -1.00, -1.00, 0.00, 77.8, 57.4)"></path><path d="M 73.2 35.0 L 78.0 25.4 L 82.8 35.0 Z M 73.2 35.0 " fill="#000000"></path></g></g><g><clipPath id="clip0x7fda2c9527e0"><path d="M 107.5 62.3 L 107.5 28.5 L 95.9 28.5 L 95.9 62.3 Z M 107.5 62.3 "></path></clipPath><g clip-path="url(#clip0x7fda2c9527e0)"><path d="M 0.3 -0.3 L 22.2 -0.3 L 23.3 -0.3 " fill="none" stroke="#000000" stroke-width="2.00" transform="matrix(0.00, -1.00, -1.00, 0.00, 101.7, 61.3)"></path><path d="M 97.2 39.0 L 102.0 29.4 L 106.8 39.0 Z M 97.2 39.0 " fill="#000000"></path></g></g><g><clipPath id="clip0x7fda2c953ed0"><path d="M 155.3 69.9 L 155.3 36.1 L 143.7 36.1 L 143.7 69.9 Z M 155.3 69.9 "></path></clipPath><g clip-path="url(#clip0x7fda2c953ed0)"><path d="M -0.1 -0.5 L 22.2 -0.5 L 22.9 -0.5 " fill="none" stroke="#000000" stroke-width="2.00" transform="matrix(0.00, -1.00, -1.00, 0.00, 149.5, 68.9)"></path><path d="M 145.2 47.0 L 150.0 37.4 L 154.8 47.0 Z M 145.2 47.0 " fill="#000000"></path></g></g><g><clipPath id="clip0x7fda2c955590"><path d="M 179.3 73.7 L 179.3 39.9 L 167.7 39.9 L 167.7 73.7 Z M 179.3 73.7 "></path></clipPath><g clip-path="url(#clip0x7fda2c955590)"><path d="M -0.3 0.5 L 22.2 0.5 L 22.7 0.5 " fill="none" stroke="#000000" stroke-width="2.00" transform="matrix(0.00, -1.00, -1.00, 0.00, 173.5, 72.7)"></path><path d="M 168.2 51.0 L 173.0 41.4 L 177.8 51.0 Z M 168.2 51.0 " fill="#000000"></path></g></g><g><clipPath id="clip0x7fda2c956be0"><path d="M 227.1 81.3 L 227.1 47.5 L 215.5 47.5 L 215.5 81.3 Z M 227.1 81.3 "></path></clipPath><g clip-path="url(#clip0x7fda2c956be0)"><path d="M 0.3 0.3 L 22.2 0.3 L 23.3 0.3 " fill="none" stroke="#000000" stroke-width="2.00" transform="matrix(0.00, -1.00, -1.00, 0.00, 221.3, 80.3)"></path><path d="M 216.2 58.0 L 221.0 48.4 L 225.8 58.0 Z M 216.2 58.0 " fill="#000000"></path></g></g><g><clipPath id="clip0x7fda2c958180"><path d="M 251.0 85.2 L 251.0 51.4 L 239.4 51.4 L 239.4 85.2 Z M 251.0 85.2 "></path></clipPath><g clip-path="url(#clip0x7fda2c958180)"><path d="M 0.2 0.2 L 22.2 0.2 L 23.2 0.2 " fill="none" stroke="#000000" stroke-width="2.00" transform="matrix(0.00, -1.00, -1.00, 0.00, 245.2, 84.2)"></path><path d="M 240.2 62.0 L 245.0 52.4 L 249.8 62.0 Z M 240.2 62.0 " fill="#000000"></path></g></g><g><clipPath id="clip0x7fda2c959770"><path d="M 275.0 89.0 L 275.0 55.2 L 263.4 55.2 L 263.4 89.0 Z M 275.0 89.0 "></path></clipPath><g clip-path="url(#clip0x7fda2c959770)"><path d="M -0.0 0.2 L 22.2 0.2 L 23.0 0.2 " fill="none" stroke="#000000" stroke-width="2.00" transform="matrix(0.00, -1.00, -1.00, 0.00, 269.2, 88.0)"></path><path d="M 264.2 66.0 L 269.0 56.4 L 273.8 66.0 Z M 264.2 66.0 " fill="#000000"></path></g></g><g><clipPath id="clip0x7fda2c95ad30"><path d="M 298.9 92.8 L 298.9 59.0 L 287.3 59.0 L 287.3 92.8 Z M 298.9 92.8 "></path></clipPath><g clip-path="url(#clip0x7fda2c95ad30)"><path d="M -0.2 0.1 L 22.2 0.1 L 22.8 0.1 " fill="none" stroke="#000000" stroke-width="2.00" transform="matrix(0.00, -1.00, -1.00, 0.00, 293.1, 91.8)"></path><path d="M 288.2 70.0 L 293.0 60.4 L 297.8 70.0 Z M 288.2 70.0 " fill="#000000"></path></g></g><g><clipPath id="clip0x7fda2c95c2f0"><path d="M 322.8 96.6 L 322.8 62.8 L 311.2 62.8 L 311.2 96.6 Z M 322.8 96.6 "></path></clipPath><g clip-path="url(#clip0x7fda2c95c2f0)"><path d="M -0.4 0.0 L 22.2 0.0 L 23.6 0.0 " fill="none" stroke="#000000" stroke-width="2.00" transform="matrix(0.00, -1.00, -1.00, 0.00, 317.0, 95.6)"></path><path d="M 312.2 73.0 L 317.0 63.4 L 321.8 73.0 Z M 312.2 73.0 " fill="#000000"></path></g></g><g><clipPath id="clip0x7fda2c95d8b0"><path d="M 333.8 94.8 L 333.8 49.2 L 322.2 49.2 L 322.2 94.8 Z M 333.8 94.8 "></path></clipPath><g clip-path="url(#clip0x7fda2c95d8b0)"><path d="M -0.2 0.0 L 34.0 0.0 L 34.8 0.0 " fill="none" stroke="#000000" stroke-width="2.00" transform="matrix(0.00, -1.00, -1.00, 0.00, 328.0, 93.8)"></path><path d="M 323.2 60.0 L 328.0 50.4 L 332.8 60.0 Z M 323.2 60.0 " fill="#000000"></path></g></g><g><clipPath id="clip0x7fda2c95efa0"><path d="M 351.3 91.1 L 351.3 45.5 L 339.7 45.5 L 339.7 91.1 Z M 351.3 91.1 "></path></clipPath><g clip-path="url(#clip0x7fda2c95efa0)"><path d="M 0.1 0.5 L 34.0 0.5 L 35.1 0.5 " fill="none" stroke="#000000" stroke-width="2.00" transform="matrix(0.00, -1.00, -1.00, 0.00, 345.5, 90.1)"></path><path d="M 340.2 56.0 L 345.0 46.4 L 349.8 56.0 Z M 340.2 56.0 " fill="#000000"></path></g></g><g><clipPath id="clip0x7fda2c960560"><path d="M 363.7 46.5 L 363.7 0.9 L 352.1 0.9 L 352.1 46.5 Z M 363.7 46.5 "></path></clipPath><g clip-path="url(#clip0x7fda2c960560)"><path d="M -0.5 -0.1 L 34.0 -0.1 L 34.5 -0.1 " fill="none" stroke="#000000" stroke-width="2.00" transform="matrix(0.00, -1.00, -1.00, 0.00, 357.9, 45.5)"></path><path d="M 353.2 12.0 L 358.0 2.4 L 362.8 12.0 Z M 353.2 12.0 " fill="#000000"></path></g></g><g><clipPath id="clip0x7fda2c961b70"><path d="M 377.8 46.2 L 377.8 0.6 L 366.2 0.6 L 366.2 46.2 Z M 377.8 46.2 "></path></clipPath><g clip-path="url(#clip0x7fda2c961b70)"><path d="M 0.2 0.0 L 34.0 0.0 L 35.2 0.0 " fill="none" stroke="#000000" stroke-width="2.00" transform="matrix(0.00, -1.00, -1.00, 0.00, 372.0, 45.2)"></path><path d="M 367.2 11.0 L 372.0 1.4 L 376.8 11.0 Z M 367.2 11.0 " fill="#000000"></path></g></g><g><clipPath id="clip0x7fda2c963130"><path d="M 391.6 48.2 L 391.6 2.6 L 380.0 2.6 L 380.0 48.2 Z M 391.6 48.2 "></path></clipPath><g clip-path="url(#clip0x7fda2c963130)"><path d="M 0.2 -0.2 L 34.0 -0.2 L 35.2 -0.2 " fill="none" stroke="#000000" stroke-width="2.00" transform="matrix(0.00, -1.00, -1.00, 0.00, 385.8, 47.2)"></path><path d="M 381.2 13.0 L 386.0 3.4 L 390.8 13.0 Z M 381.2 13.0 " fill="#000000"></path></g></g><g><clipPath id="clip0x7fda2c9646f0"><path d="M 306.9 161.8 L 306.9 128.0 L 295.3 128.0 L 295.3 161.8 Z M 306.9 161.8 "></path></clipPath><g clip-path="url(#clip0x7fda2c9646f0)"><path d="M -0.2 0.1 L 22.2 0.1 L 22.8 0.1 " fill="none" stroke="#000000" stroke-width="2.00" transform="matrix(0.00, -1.00, -1.00, 0.00, 301.1, 160.8)"></path><path d="M 296.2 139.0 L 301.0 129.4 L 305.8 139.0 Z M 296.2 139.0 " fill="#000000"></path></g></g></g></svg>