<?xml version="1.0" encoding="UTF-8" standalone="no"?><svg xmlns="http://www.w3.org/2000/svg" xmlns:xlink="http://www.w3.org/1999/xlink" clip-rule="evenodd" stroke-miterlimit="10" viewBox="0 0 1024 768"><desc>SVG generated by Keynote</desc><defs></defs><g transform="matrix(1.00, 0.00, -0.00, -1.00, 0.0, 768.0)"><path d="M 0.0 768.0 L 1024.0 768.0 L 1024.0 0.0 L 0.0 0.0 Z M 0.0 768.0 " fill="#FEFFFF"></path><text xml:space="preserve" font-family="Georgia,Georgia" font-size="65.0" fill="#000000" transform="matrix(1.00, 0.00, -0.00, -1.00, 80.2, 648.3)">S</text><text xml:space="preserve" font-family="Georgia,Georgia" font-size="65.0" fill="#000000" transform="matrix(1.00, 0.00, -0.00, -1.00, 116.6, 648.3)">ä</text><text xml:space="preserve" font-family="Georgia,Georgia" font-size="65.0" fill="#000000" transform="matrix(1.00, 0.00, -0.00, -1.00, 149.4, 648.3)">h</text><text xml:space="preserve" font-family="Georgia,Georgia" font-size="65.0" fill="#000000" transform="matrix(1.00, 0.00, -0.00, -1.00, 187.2, 648.3)">k</text><text xml:space="preserve" font-family="Georgia,Georgia" font-size="65.0" fill="#000000" transform="matrix(1.00, 0.00, -0.00, -1.00, 222.0, 648.3)">ö</text><text xml:space="preserve" font-family="Georgia,Georgia" font-size="65.0" fill="#000000" transform="matrix(1.00, 0.00, -0.00, -1.00, 257.0, 648.3)">v</text><text xml:space="preserve" font-family="Georgia,Georgia" font-size="65.0" fill="#000000" transform="matrix(1.00, 0.00, -0.00, -1.00, 289.3, 648.3)">i</text><text xml:space="preserve" font-family="Georgia,Georgia" font-size="65.0" fill="#000000" transform="matrix(1.00, 0.00, -0.00, -1.00, 308.3, 648.3)">r</text><text xml:space="preserve" font-family="Georgia,Georgia" font-size="65.0" fill="#000000" transform="matrix(1.00, 0.00, -0.00, -1.00, 334.9, 648.3)">t</text><text xml:space="preserve" font-family="Georgia,Georgia" font-size="65.0" fill="#000000" transform="matrix(1.00, 0.00, -0.00, -1.00, 357.4, 648.3)">a</text><text xml:space="preserve" font-family="Georgia,Georgia" font-size="65.0" fill="#000000" transform="matrix(1.00, 0.00, -0.00, -1.00, 390.1, 648.3)"> </text><text xml:space="preserve" font-family="Georgia,Georgia" font-size="65.0" fill="#000000" transform="matrix(1.00, 0.00, -0.00, -1.00, 405.8, 648.3)">j</text><text xml:space="preserve" font-family="Georgia,Georgia" font-size="65.0" fill="#000000" transform="matrix(1.00, 0.00, -0.00, -1.00, 424.8, 648.3)">a</text><text xml:space="preserve" font-family="Georgia,Georgia" font-size="65.0" fill="#000000" transform="matrix(1.00, 0.00, -0.00, -1.00, 457.6, 648.3)"> </text><text xml:space="preserve" font-family="Georgia,Georgia" font-size="65.0" fill="#000000" transform="matrix(1.00, 0.00, -0.00, -1.00, 473.2, 648.3)">m</text><text xml:space="preserve" font-family="Georgia,Georgia" font-size="65.0" fill="#000000" transform="matrix(1.00, 0.00, -0.00, -1.00, 530.5, 648.3)">a</text><text xml:space="preserve" font-family="Georgia,Georgia" font-size="65.0" fill="#000000" transform="matrix(1.00, 0.00, -0.00, -1.00, 563.2, 648.3)">g</text><text xml:space="preserve" font-family="Georgia,Georgia" font-size="65.0" fill="#000000" transform="matrix(1.00, 0.00, -0.00, -1.00, 596.4, 648.3)">n</text><text xml:space="preserve" font-family="Georgia,Georgia" font-size="65.0" fill="#000000" transform="matrix(1.00, 0.00, -0.00, -1.00, 634.8, 648.3)">e</text><text xml:space="preserve" font-family="Georgia,Georgia" font-size="65.0" fill="#000000" transform="matrix(1.00, 0.00, -0.00, -1.00, 666.2, 648.3)">e</text><text xml:space="preserve" font-family="Georgia,Georgia" font-size="65.0" fill="#000000" transform="matrix(1.00, 0.00, -0.00, -1.00, 697.7, 648.3)">t</text><text xml:space="preserve" font-family="Georgia,Georgia" font-size="65.0" fill="#000000" transform="matrix(1.00, 0.00, -0.00, -1.00, 720.1, 648.3)">t</text><text xml:space="preserve" font-family="Georgia,Georgia" font-size="65.0" fill="#000000" transform="matrix(1.00, 0.00, -0.00, -1.00, 742.6, 648.3)">i</text><text xml:space="preserve" font-family="Georgia,Georgia" font-size="65.0" fill="#000000" transform="matrix(1.00, 0.00, -0.00, -1.00, 761.6, 648.3)">k</text><text xml:space="preserve" font-family="Georgia,Georgia" font-size="65.0" fill="#000000" transform="matrix(1.00, 0.00, -0.00, -1.00, 796.4, 648.3)">e</text><text xml:space="preserve" font-family="Georgia,Georgia" font-size="65.0" fill="#000000" transform="matrix(1.00, 0.00, -0.00, -1.00, 827.8, 648.3)">n</text><text xml:space="preserve" font-family="Georgia,Georgia" font-size="65.0" fill="#000000" transform="matrix(1.00, 0.00, -0.00, -1.00, 866.2, 648.3)">t</text><text xml:space="preserve" font-family="Georgia,Georgia" font-size="65.0" fill="#000000" transform="matrix(1.00, 0.00, -0.00, -1.00, 888.7, 648.3)">t</text><text xml:space="preserve" font-family="Georgia,Georgia" font-size="65.0" fill="#000000" transform="matrix(1.00, 0.00, -0.00, -1.00, 911.1, 648.3)">ä</text><text xml:space="preserve" font-family="Georgia,Georgia" font-size="27.0" fill="#000000" transform="matrix(1.00, 0.00, -0.00, -1.00, 114.0, 528.9)">•</text><text xml:space="preserve" font-family="Georgia,Georgia" font-size="36.0" fill="#000000" transform="matrix(1.00, 0.00, -0.00, -1.00, 149.0, 525.9)">S</text><text xml:space="preserve" font-family="Georgia,Georgia" font-size="36.0" fill="#000000" transform="matrix(1.00, 0.00, -0.00, -1.00, 169.2, 525.9)">ä</text><text xml:space="preserve" font-family="Georgia,Georgia" font-size="36.0" fill="#000000" transform="matrix(1.00, 0.00, -0.00, -1.00, 187.3, 525.9)">h</text><text xml:space="preserve" font-family="Georgia,Georgia" font-size="36.0" fill="#000000" transform="matrix(1.00, 0.00, -0.00, -1.00, 208.3, 525.9)">k</text><text xml:space="preserve" font-family="Georgia,Georgia" font-size="36.0" fill="#000000" transform="matrix(1.00, 0.00, -0.00, -1.00, 227.6, 525.9)">ö</text><text xml:space="preserve" font-family="Georgia,Georgia" font-size="36.0" fill="#000000" transform="matrix(1.00, 0.00, -0.00, -1.00, 247.0, 525.9)">v</text><text xml:space="preserve" font-family="Georgia,Georgia" font-size="36.0" fill="#000000" transform="matrix(1.00, 0.00, -0.00, -1.00, 264.8, 525.9)">i</text><text xml:space="preserve" font-family="Georgia,Georgia" font-size="36.0" fill="#000000" transform="matrix(1.00, 0.00, -0.00, -1.00, 275.4, 525.9)">r</text><text xml:space="preserve" font-family="Georgia,Georgia" font-size="36.0" fill="#000000" transform="matrix(1.00, 0.00, -0.00, -1.00, 290.1, 525.9)">t</text><text xml:space="preserve" font-family="Georgia,Georgia" font-size="36.0" fill="#000000" transform="matrix(1.00, 0.00, -0.00, -1.00, 302.5, 525.9)">a</text><text xml:space="preserve" font-family="Georgia,Georgia" font-size="36.0" fill="#000000" transform="matrix(1.00, 0.00, -0.00, -1.00, 320.7, 525.9)"> </text><text xml:space="preserve" font-family="Georgia,Georgia" font-size="36.0" fill="#000000" transform="matrix(1.00, 0.00, -0.00, -1.00, 329.4, 525.9)">l</text><text xml:space="preserve" font-family="Georgia,Georgia" font-size="36.0" fill="#000000" transform="matrix(1.00, 0.00, -0.00, -1.00, 339.7, 525.9)">u</text><text xml:space="preserve" font-family="Georgia,Georgia" font-size="36.0" fill="#000000" transform="matrix(1.00, 0.00, -0.00, -1.00, 360.4, 525.9)">o</text><text xml:space="preserve" font-family="Georgia,Georgia" font-size="36.0" fill="#000000" transform="matrix(1.00, 0.00, -0.00, -1.00, 379.8, 525.9)"> </text><text xml:space="preserve" font-family="Georgia,Georgia" font-size="36.0" fill="#000000" transform="matrix(1.00, 0.00, -0.00, -1.00, 388.5, 525.9)">y</text><text xml:space="preserve" font-family="Georgia,Georgia" font-size="36.0" fill="#000000" transform="matrix(1.00, 0.00, -0.00, -1.00, 406.2, 525.9)">m</text><text xml:space="preserve" font-family="Georgia,Georgia" font-size="36.0" fill="#000000" transform="matrix(1.00, 0.00, -0.00, -1.00, 437.9, 525.9)">p</text><text xml:space="preserve" font-family="Georgia,Georgia" font-size="36.0" fill="#000000" transform="matrix(1.00, 0.00, -0.00, -1.00, 458.5, 525.9)">ä</text><text xml:space="preserve" font-family="Georgia,Georgia" font-size="36.0" fill="#000000" transform="matrix(1.00, 0.00, -0.00, -1.00, 476.6, 525.9)">r</text><text xml:space="preserve" font-family="Georgia,Georgia" font-size="36.0" fill="#000000" transform="matrix(1.00, 0.00, -0.00, -1.00, 491.4, 525.9)">i</text><text xml:space="preserve" font-family="Georgia,Georgia" font-size="36.0" fill="#000000" transform="matrix(1.00, 0.00, -0.00, -1.00, 501.9, 525.9)">l</text><text xml:space="preserve" font-family="Georgia,Georgia" font-size="36.0" fill="#000000" transform="matrix(1.00, 0.00, -0.00, -1.00, 512.2, 525.9)">l</text><text xml:space="preserve" font-family="Georgia,Georgia" font-size="36.0" fill="#000000" transform="matrix(1.00, 0.00, -0.00, -1.00, 522.5, 525.9)">e</text><text xml:space="preserve" font-family="Georgia,Georgia" font-size="36.0" fill="#000000" transform="matrix(1.00, 0.00, -0.00, -1.00, 540.0, 525.9)">e</text><text xml:space="preserve" font-family="Georgia,Georgia" font-size="36.0" fill="#000000" transform="matrix(1.00, 0.00, -0.00, -1.00, 557.4, 525.9)">n</text><text xml:space="preserve" font-family="Georgia,Georgia" font-size="36.0" fill="#000000" transform="matrix(1.00, 0.00, -0.00, -1.00, 578.6, 525.9)"> </text><text xml:space="preserve" font-family="Georgia,Georgia" font-size="36.0" fill="#000000" transform="matrix(1.00, 0.00, -0.00, -1.00, 587.3, 525.9)">m</text><text xml:space="preserve" font-family="Georgia,Georgia" font-size="36.0" fill="#000000" transform="matrix(1.00, 0.00, -0.00, -1.00, 619.0, 525.9)">a</text><text xml:space="preserve" font-family="Georgia,Georgia" font-size="36.0" fill="#000000" transform="matrix(1.00, 0.00, -0.00, -1.00, 637.2, 525.9)">g</text><text xml:space="preserve" font-family="Georgia,Georgia" font-size="36.0" fill="#000000" transform="matrix(1.00, 0.00, -0.00, -1.00, 655.5, 525.9)">n</text><text xml:space="preserve" font-family="Georgia,Georgia" font-size="36.0" fill="#000000" transform="matrix(1.00, 0.00, -0.00, -1.00, 676.8, 525.9)">e</text><text xml:space="preserve" font-family="Georgia,Georgia" font-size="36.0" fill="#000000" transform="matrix(1.00, 0.00, -0.00, -1.00, 694.2, 525.9)">e</text><text xml:space="preserve" font-family="Georgia,Georgia" font-size="36.0" fill="#000000" transform="matrix(1.00, 0.00, -0.00, -1.00, 711.6, 525.9)">t</text><text xml:space="preserve" font-family="Georgia,Georgia" font-size="36.0" fill="#000000" transform="matrix(1.00, 0.00, -0.00, -1.00, 724.0, 525.9)">t</text><text xml:space="preserve" font-family="Georgia,Georgia" font-size="36.0" fill="#000000" transform="matrix(1.00, 0.00, -0.00, -1.00, 736.5, 525.9)">i</text><text xml:space="preserve" font-family="Georgia,Georgia" font-size="36.0" fill="#000000" transform="matrix(1.00, 0.00, -0.00, -1.00, 747.0, 525.9)">k</text><text xml:space="preserve" font-family="Georgia,Georgia" font-size="36.0" fill="#000000" transform="matrix(1.00, 0.00, -0.00, -1.00, 766.3, 525.9)">e</text><text xml:space="preserve" font-family="Georgia,Georgia" font-size="36.0" fill="#000000" transform="matrix(1.00, 0.00, -0.00, -1.00, 783.7, 525.9)">n</text><text xml:space="preserve" font-family="Georgia,Georgia" font-size="36.0" fill="#000000" transform="matrix(1.00, 0.00, -0.00, -1.00, 805.0, 525.9)">t</text><text xml:space="preserve" font-family="Georgia,Georgia" font-size="36.0" fill="#000000" transform="matrix(1.00, 0.00, -0.00, -1.00, 817.4, 525.9)">ä</text><text xml:space="preserve" font-family="Georgia,Georgia" font-size="36.0" fill="#000000" transform="matrix(1.00, 0.00, -0.00, -1.00, 835.5, 525.9)">n</text><g><clipPath id="clip0x7fcaa1a9b0e0"><path d="M 294.0 237.2 L 399.0 237.2 L 399.0 263.0 L 294.0 263.0 Z M 294.0 237.2 "></path></clipPath><g clip-path="url(#clip0x7fcaa1a9b0e0)"><path d="M 85.4 3.1 C 104.9 7.1 104.9 13.7 85.4 17.8 C 65.8 21.9 34.2 21.9 14.6 17.8 C -4.9 13.7 -4.9 7.1 14.6 3.1 C 34.2 -1.0 65.8 -1.0 85.4 3.1 Z M 85.4 3.1 " fill="none" stroke="#851001" stroke-width="3.00" transform="matrix(1.00, 0.00, 0.00, -1.00, 296.5, 260.5)"></path></g></g><g><clipPath id="clip0x7fcaa1a8cfd0"><path d="M 259.0 229.9 L 434.0 229.9 L 434.0 270.3 L 259.0 270.3 Z M 259.0 229.9 "></path></clipPath><g clip-path="url(#clip0x7fcaa1a8cfd0)"><path d="M 145.0 5.2 C 178.2 12.1 178.2 23.3 145.0 30.2 C 111.9 37.1 58.1 37.1 24.9 30.2 C -8.3 23.3 -8.3 12.1 24.9 5.2 C 58.1 -1.7 111.9 -1.7 145.0 5.2 Z M 145.0 5.2 " fill="none" stroke="#851001" stroke-width="3.00" transform="matrix(1.00, 0.00, 0.00, -1.00, 261.5, 267.8)"></path></g></g><g><clipPath id="clip0x7fcaa1a8e1c0"><path d="M 220.2 221.8 L 472.8 221.8 L 472.8 278.4 L 220.2 278.4 Z M 220.2 221.8 "></path></clipPath><g clip-path="url(#clip0x7fcaa1a8e1c0)"><path d="M 211.4 7.6 C 259.7 17.6 259.7 34.0 211.4 44.1 C 163.0 54.1 84.6 54.1 36.3 44.1 C -12.1 34.0 -12.1 17.6 36.3 7.6 C 84.6 -2.5 163.0 -2.5 211.4 7.6 Z M 211.4 7.6 " fill="none" stroke="#851001" stroke-width="3.00" transform="matrix(1.00, 0.00, 0.00, -1.00, 222.7, 275.9)"></path></g></g><g><clipPath id="clip0x7fcaa1a86a80"><path d="M 187.1 214.9 L 505.9 214.9 L 505.9 285.3 L 187.1 285.3 Z M 187.1 214.9 "></path></clipPath><g clip-path="url(#clip0x7fcaa1a86a80)"><path d="M 267.9 9.6 C 329.1 22.3 329.1 43.1 267.9 55.8 C 206.6 68.6 107.2 68.6 46.0 55.8 C -15.3 43.1 -15.3 22.3 46.0 9.6 C 107.2 -3.2 206.6 -3.2 267.9 9.6 Z M 267.9 9.6 " fill="none" stroke="#851001" stroke-width="3.00" transform="matrix(1.00, 0.00, 0.00, -1.00, 189.6, 282.8)"></path></g></g><g><clipPath id="clip0x7fcaa1a7d4e0"><path d="M 407.0 246.6 L 414.6 254.5 L 431.0 238.9 L 423.4 231.0 Z M 407.0 246.6 "></path></clipPath><g clip-path="url(#clip0x7fcaa1a7d4e0)"><g><clipPath id="clip0x7fcaa1a7dba0"><path d="M 418.3 237.2 L 423.4 232.4 L 422.1 246.0 L 408.4 246.7 L 413.5 241.8 L 413.5 241.8 L 418.3 237.2 Z M 418.3 237.2 "></path></clipPath><g clip-path="url(#clip0x7fcaa1a7dba0)"><image xlink:href="ADFEDB07BA590A41659D8979D96483E7.png" width="600.00" height="600.00" transform="matrix(0.35, 0.36, 0.36, -0.35, 408.4, 246.7)"></image></g></g></g></g><g><clipPath id="clip0x7fcaa1a7f0c0"><path d="M 438.0 242.6 L 445.5 250.5 L 461.9 234.8 L 454.3 227.0 Z M 438.0 242.6 "></path></clipPath><g clip-path="url(#clip0x7fcaa1a7f0c0)"><g><clipPath id="clip0x7fcaa1a7f9c0"><path d="M 449.2 233.2 L 454.3 228.4 L 453.0 242.0 L 439.4 242.6 L 444.4 237.8 L 444.4 237.8 L 449.2 233.2 Z M 449.2 233.2 "></path></clipPath><g clip-path="url(#clip0x7fcaa1a7f9c0)"><image xlink:href="../../E269E65A-5E17-4848-9CF9-AE370553DA29/assets/ADFEDB07BA590A41659D8979D96483E7.png" width="600.00" height="600.00" transform="matrix(0.35, 0.36, 0.36, -0.35, 439.4, 242.6)"></image></g></g></g></g><g><clipPath id="clip0x7fcaa07adfd0"><path d="M 465.9 235.6 L 473.4 243.5 L 489.8 227.8 L 482.3 219.9 Z M 465.9 235.6 "></path></clipPath><g clip-path="url(#clip0x7fcaa07adfd0)"><g><clipPath id="clip0x7fcaa07cdda0"><path d="M 477.2 226.2 L 482.3 221.4 L 481.0 234.9 L 467.3 235.6 L 472.4 230.8 L 472.4 230.8 L 477.2 226.2 Z M 477.2 226.2 "></path></clipPath><g clip-path="url(#clip0x7fcaa07cdda0)"><image xlink:href="../../E269E65A-5E17-4848-9CF9-AE370553DA29/assets/ADFEDB07BA590A41659D8979D96483E7.png" width="600.00" height="600.00" transform="matrix(0.35, 0.36, 0.36, -0.35, 467.3, 235.6)"></image></g></g></g></g><g><clipPath id="clip0x7fcaa056ace0"><path d="M 377.1 250.6 L 384.7 258.5 L 401.1 242.8 L 393.5 234.9 Z M 377.1 250.6 "></path></clipPath><g clip-path="url(#clip0x7fcaa056ace0)"><g><clipPath id="clip0x7fcaa0727d30"><path d="M 388.4 241.2 L 393.5 236.3 L 392.2 249.9 L 378.5 250.6 L 383.6 245.8 L 383.6 245.8 L 388.4 241.2 Z M 388.4 241.2 "></path></clipPath><g clip-path="url(#clip0x7fcaa0727d30)"><image xlink:href="../../E269E65A-5E17-4848-9CF9-AE370553DA29/assets/ADFEDB07BA590A41659D8979D96483E7.png" width="600.00" height="600.00" transform="matrix(0.35, 0.36, 0.36, -0.35, 378.5, 250.6)"></image></g></g></g></g><g><clipPath id="clip0x7fcaa0728e40"><path d="M 283.9 254.5 L 277.2 245.8 L 259.3 259.7 L 266.0 268.4 Z M 283.9 254.5 "></path></clipPath><g clip-path="url(#clip0x7fcaa0728e40)"><g><clipPath id="clip0x7fcaa055f950"><path d="M 271.8 262.6 L 266.2 267.0 L 268.9 253.6 L 282.5 254.3 L 277.0 258.6 L 277.0 258.6 L 271.8 262.6 Z M 271.8 262.6 "></path></clipPath><g clip-path="url(#clip0x7fcaa055f950)"><image xlink:href="../../E269E65A-5E17-4848-9CF9-AE370553DA29/assets/ADFEDB07BA590A41659D8979D96483E7.png" width="600.00" height="600.00" transform="matrix(-0.31, -0.39, -0.39, 0.31, 282.5, 254.3)"></image></g></g></g></g><g><clipPath id="clip0x7fcaa180ac50"><path d="M 253.8 259.4 L 247.1 250.8 L 229.2 264.7 L 235.9 273.3 Z M 253.8 259.4 "></path></clipPath><g clip-path="url(#clip0x7fcaa180ac50)"><g><clipPath id="clip0x7fcaa180b310"><path d="M 241.6 267.6 L 236.1 271.9 L 238.8 258.5 L 252.4 259.2 L 246.8 263.5 L 246.8 263.5 L 241.6 267.6 Z M 241.6 267.6 "></path></clipPath><g clip-path="url(#clip0x7fcaa180b310)"><image xlink:href="../../E269E65A-5E17-4848-9CF9-AE370553DA29/assets/ADFEDB07BA590A41659D8979D96483E7.png" width="600.00" height="600.00" transform="matrix(-0.31, -0.39, -0.39, 0.31, 252.4, 259.2)"></image></g></g></g></g><g><clipPath id="clip0x7fcaa1a80ba0"><path d="M 220.7 263.4 L 214.0 254.8 L 196.1 268.7 L 202.8 277.3 Z M 220.7 263.4 "></path></clipPath><g clip-path="url(#clip0x7fcaa1a80ba0)"><g><clipPath id="clip0x7fcaa1a812f0"><path d="M 208.5 271.6 L 202.9 275.9 L 205.6 262.5 L 219.3 263.2 L 213.7 267.5 L 213.7 267.5 L 208.5 271.6 Z M 208.5 271.6 "></path></clipPath><g clip-path="url(#clip0x7fcaa1a812f0)"><image xlink:href="../../E269E65A-5E17-4848-9CF9-AE370553DA29/assets/ADFEDB07BA590A41659D8979D96483E7.png" width="600.00" height="600.00" transform="matrix(-0.31, -0.39, -0.39, 0.31, 219.3, 263.2)"></image></g></g></g></g><g><clipPath id="clip0x7fcaa1a82360"><path d="M 314.1 253.6 L 307.4 244.9 L 289.5 258.9 L 296.2 267.5 Z M 314.1 253.6 "></path></clipPath><g clip-path="url(#clip0x7fcaa1a82360)"><g><clipPath id="clip0x7fcaa1a82c70"><path d="M 301.9 261.8 L 296.3 266.1 L 299.0 252.7 L 312.7 253.4 L 307.1 257.7 L 307.1 257.7 L 301.9 261.8 Z M 301.9 261.8 "></path></clipPath><g clip-path="url(#clip0x7fcaa1a82c70)"><image xlink:href="../../E269E65A-5E17-4848-9CF9-AE370553DA29/assets/ADFEDB07BA590A41659D8979D96483E7.png" width="600.00" height="600.00" transform="matrix(-0.31, -0.39, -0.39, 0.31, 312.7, 253.4)"></image></g></g></g></g><path d="M -0.3 0.0 L 27.2 0.0 L 29.7 0.0 " fill="none" stroke="#000000" stroke-width="5.00" transform="matrix(0.00, 1.00, 1.00, 0.00, 304.5, 349.3)"></path><path d="M 314.7 376.5 L 304.5 396.9 L 294.3 376.5 Z M 314.7 376.5 " fill="#000000"></path><text xml:space="preserve" font-family="Georgia,Georgia" font-size="36.0" fill="#000000" transform="matrix(1.00, 0.00, -0.00, -1.00, 267.4, 375.4)">I</text><g><clipPath id="clip0x7fcaa1a858c0"><path d="M 329.0 81.5 L 364.0 81.5 L 364.0 89.5 L 329.0 89.5 Z M 329.0 81.5 "></path></clipPath><g clip-path="url(#clip0x7fcaa1a858c0)"><path d="M 26.4 0.6 C 32.5 1.4 32.5 2.7 26.4 3.4 C 20.4 4.2 10.6 4.2 4.5 3.4 C -1.5 2.7 -1.5 1.4 4.5 0.6 C 10.6 -0.2 20.4 -0.2 26.4 0.6 Z M 26.4 0.6 " fill="none" stroke="#85878C" stroke-width="2.00" transform="matrix(1.00, 0.00, 0.00, -1.00, 331.0, 87.5)"></path></g></g><g><clipPath id="clip0x7fcaa1a62ed0"><path d="M 311.5 85.0 L 381.6 85.0 L 381.6 110.8 L 311.5 110.8 Z M 311.5 85.0 "></path></clipPath><g clip-path="url(#clip0x7fcaa1a62ed0)"><path d="M 312.0 110.0 L 381.0 110.0 L 381.0 86.0 L 312.0 86.0 Z M 312.5 109.8 " fill="#FEFFFE"></path></g></g><g><clipPath id="clip0x7fcaa1a63c70"><path d="M 329.0 399.3 L 364.0 399.3 L 364.0 407.4 L 329.0 407.4 Z M 329.0 399.3 "></path></clipPath><g clip-path="url(#clip0x7fcaa1a63c70)"><path d="M 26.4 0.6 C 32.5 1.4 32.5 2.7 26.4 3.4 C 20.4 4.2 10.6 4.2 4.5 3.4 C -1.5 2.7 -1.5 1.4 4.5 0.6 C 10.6 -0.2 20.4 -0.2 26.4 0.6 Z M 26.4 0.6 " fill="none" stroke="#85878C" stroke-width="2.00" transform="matrix(1.00, 0.00, 0.00, -1.00, 331.0, 405.4)"></path></g></g><g><clipPath id="clip0x7fcaa1a64e30"><path d="M 329.0 245.8 L 364.1 245.8 L 364.1 313.2 L 329.0 313.2 Z M 329.0 245.8 "></path></clipPath><g clip-path="url(#clip0x7fcaa1a64e30)"><path d="M 330.0 312.0 L 363.0 312.0 L 363.0 247.0 L 330.0 247.0 Z M 330.0 312.2 " fill="#FEFFFE"></path></g></g><g><clipPath id="clip0x7fcaa1a65bd0"><path d="M 328.8 85.5 L 332.8 85.5 L 332.8 404.5 L 328.8 404.5 Z M 328.8 85.5 "></path></clipPath><g clip-path="url(#clip0x7fcaa1a65bd0)"><path d="M 0.2 0.5 L 0.2 317.5 " fill="none" stroke="#A6AAA8" stroke-width="2.00" transform="matrix(1.00, 0.00, 0.00, -1.00, 330.8, 403.5)"></path></g></g><g><clipPath id="clip0x7fcaa1a66bc0"><path d="M 359.7 84.5 L 363.7 84.5 L 363.7 403.5 L 359.7 403.5 Z M 359.7 84.5 "></path></clipPath><g clip-path="url(#clip0x7fcaa1a66bc0)"><path d="M 0.3 0.5 L 0.3 317.5 " fill="none" stroke="#A6AAA8" stroke-width="2.00" transform="matrix(1.00, 0.00, 0.00, -1.00, 361.7, 402.5)"></path></g></g></g></svg>