<?xml version="1.0" encoding="UTF-8" standalone="no"?><svg xmlns="http://www.w3.org/2000/svg" xmlns:xlink="http://www.w3.org/1999/xlink" clip-rule="evenodd" stroke-miterlimit="10" viewBox="0 0 1024 768"><desc>SVG generated by Keynote</desc><defs></defs><g transform="matrix(1.00, 0.00, -0.00, -1.00, 0.0, 768.0)"><path d="M 0.0 768.0 L 1024.0 768.0 L 1024.0 0.0 L 0.0 0.0 Z M 0.0 768.0 " fill="#FEFFFF"></path><text xml:space="preserve" font-family="Georgia,Georgia" font-size="65.0" fill="#000000" transform="matrix(1.00, 0.00, -0.00, -1.00, 339.3, 680.3)">H</text><text xml:space="preserve" font-family="Georgia,Georgia" font-size="65.0" fill="#000000" transform="matrix(1.00, 0.00, -0.00, -1.00, 392.3, 680.3)">y</text><text xml:space="preserve" font-family="Georgia,Georgia" font-size="65.0" fill="#000000" transform="matrix(1.00, 0.00, -0.00, -1.00, 424.3, 680.3)">ö</text><text xml:space="preserve" font-family="Georgia,Georgia" font-size="65.0" fill="#000000" transform="matrix(1.00, 0.00, -0.00, -1.00, 459.3, 680.3)">t</text><text xml:space="preserve" font-family="Georgia,Georgia" font-size="65.0" fill="#000000" transform="matrix(1.00, 0.00, -0.00, -1.00, 481.8, 680.3)">y</text><text xml:space="preserve" font-family="Georgia,Georgia" font-size="65.0" fill="#000000" transform="matrix(1.00, 0.00, -0.00, -1.00, 513.8, 680.3)">s</text><text xml:space="preserve" font-family="Georgia,Georgia" font-size="65.0" fill="#000000" transform="matrix(1.00, 0.00, -0.00, -1.00, 541.9, 680.3)">u</text><text xml:space="preserve" font-family="Georgia,Georgia" font-size="65.0" fill="#000000" transform="matrix(1.00, 0.00, -0.00, -1.00, 579.3, 680.3)">h</text><text xml:space="preserve" font-family="Georgia,Georgia" font-size="65.0" fill="#000000" transform="matrix(1.00, 0.00, -0.00, -1.00, 617.1, 680.3)">d</text><text xml:space="preserve" font-family="Georgia,Georgia" font-size="65.0" fill="#000000" transform="matrix(1.00, 0.00, -0.00, -1.00, 654.4, 680.3)">e</text><text xml:space="preserve" font-family="Georgia,Georgia" font-size="27.0" fill="#000000" transform="matrix(1.00, 0.00, -0.00, -1.00, 79.5, 598.4)">•</text><text xml:space="preserve" font-family="Georgia,Georgia" font-size="36.0" fill="#000000" transform="matrix(1.00, 0.00, -0.00, -1.00, 114.5, 595.4)">H</text><text xml:space="preserve" font-family="Georgia,Georgia" font-size="36.0" fill="#000000" transform="matrix(1.00, 0.00, -0.00, -1.00, 143.9, 595.4)">y</text><text xml:space="preserve" font-family="Georgia,Georgia" font-size="36.0" fill="#000000" transform="matrix(1.00, 0.00, -0.00, -1.00, 161.6, 595.4)">ö</text><text xml:space="preserve" font-family="Georgia,Georgia" font-size="36.0" fill="#000000" transform="matrix(1.00, 0.00, -0.00, -1.00, 181.0, 595.4)">t</text><text xml:space="preserve" font-family="Georgia,Georgia" font-size="36.0" fill="#000000" transform="matrix(1.00, 0.00, -0.00, -1.00, 193.4, 595.4)">y</text><text xml:space="preserve" font-family="Georgia,Georgia" font-size="36.0" fill="#000000" transform="matrix(1.00, 0.00, -0.00, -1.00, 211.2, 595.4)">s</text><text xml:space="preserve" font-family="Georgia,Georgia" font-size="36.0" fill="#000000" transform="matrix(1.00, 0.00, -0.00, -1.00, 226.7, 595.4)">u</text><text xml:space="preserve" font-family="Georgia,Georgia" font-size="36.0" fill="#000000" transform="matrix(1.00, 0.00, -0.00, -1.00, 247.4, 595.4)">h</text><text xml:space="preserve" font-family="Georgia,Georgia" font-size="36.0" fill="#000000" transform="matrix(1.00, 0.00, -0.00, -1.00, 268.4, 595.4)">d</text><text xml:space="preserve" font-family="Georgia,Georgia" font-size="36.0" fill="#000000" transform="matrix(1.00, 0.00, -0.00, -1.00, 289.1, 595.4)">e</text><text xml:space="preserve" font-family="Georgia,Georgia" font-size="36.0" fill="#000000" transform="matrix(1.00, 0.00, -0.00, -1.00, 306.5, 595.4)"> </text><text xml:space="preserve" font-family="Georgia,Georgia" font-size="36.0" fill="#000000" transform="matrix(1.00, 0.00, -0.00, -1.00, 315.2, 595.4)">v</text><text xml:space="preserve" font-family="Georgia,Georgia" font-size="36.0" fill="#000000" transform="matrix(1.00, 0.00, -0.00, -1.00, 333.0, 595.4)">o</text><text xml:space="preserve" font-family="Georgia,Georgia" font-size="36.0" fill="#000000" transform="matrix(1.00, 0.00, -0.00, -1.00, 352.5, 595.4)">i</text><text xml:space="preserve" font-family="Georgia,Georgia" font-size="36.0" fill="#000000" transform="matrix(1.00, 0.00, -0.00, -1.00, 363.0, 595.4)">d</text><text xml:space="preserve" font-family="Georgia,Georgia" font-size="36.0" fill="#000000" transform="matrix(1.00, 0.00, -0.00, -1.00, 383.7, 595.4)">a</text><text xml:space="preserve" font-family="Georgia,Georgia" font-size="36.0" fill="#000000" transform="matrix(1.00, 0.00, -0.00, -1.00, 401.8, 595.4)">a</text><text xml:space="preserve" font-family="Georgia,Georgia" font-size="36.0" fill="#000000" transform="matrix(1.00, 0.00, -0.00, -1.00, 420.0, 595.4)">n</text><text xml:space="preserve" font-family="Georgia,Georgia" font-size="36.0" fill="#000000" transform="matrix(1.00, 0.00, -0.00, -1.00, 441.2, 595.4)"> </text><text xml:space="preserve" font-family="Georgia,Georgia" font-size="36.0" fill="#000000" transform="matrix(1.00, 0.00, -0.00, -1.00, 449.9, 595.4)">l</text><text xml:space="preserve" font-family="Georgia,Georgia" font-size="36.0" fill="#000000" transform="matrix(1.00, 0.00, -0.00, -1.00, 460.2, 595.4)">a</text><text xml:space="preserve" font-family="Georgia,Georgia" font-size="36.0" fill="#000000" transform="matrix(1.00, 0.00, -0.00, -1.00, 478.3, 595.4)">s</text><text xml:space="preserve" font-family="Georgia,Georgia" font-size="36.0" fill="#000000" transform="matrix(1.00, 0.00, -0.00, -1.00, 493.9, 595.4)">k</text><text xml:space="preserve" font-family="Georgia,Georgia" font-size="36.0" fill="#000000" transform="matrix(1.00, 0.00, -0.00, -1.00, 513.2, 595.4)">e</text><text xml:space="preserve" font-family="Georgia,Georgia" font-size="36.0" fill="#000000" transform="matrix(1.00, 0.00, -0.00, -1.00, 530.6, 595.4)">a</text><text xml:space="preserve" font-family="Georgia,Georgia" font-size="36.0" fill="#000000" transform="matrix(1.00, 0.00, -0.00, -1.00, 548.7, 595.4)"> </text><text xml:space="preserve" font-family="Georgia,Georgia" font-size="36.0" fill="#000000" transform="matrix(1.00, 0.00, -0.00, -1.00, 557.4, 595.4)">k</text><text xml:space="preserve" font-family="Georgia,Georgia" font-size="36.0" fill="#000000" transform="matrix(1.00, 0.00, -0.00, -1.00, 576.7, 595.4)">u</text><text xml:space="preserve" font-family="Georgia,Georgia" font-size="36.0" fill="#000000" transform="matrix(1.00, 0.00, -0.00, -1.00, 597.4, 595.4)">n</text><text xml:space="preserve" font-family="Georgia,Georgia" font-size="36.0" fill="#000000" transform="matrix(1.00, 0.00, -0.00, -1.00, 618.7, 595.4)"> </text><text xml:space="preserve" font-family="Georgia,Georgia" font-size="36.0" fill="#000000" transform="matrix(1.00, 0.00, -0.00, -1.00, 627.4, 595.4)">t</text><text xml:space="preserve" font-family="Georgia,Georgia" font-size="36.0" fill="#000000" transform="matrix(1.00, 0.00, -0.00, -1.00, 639.8, 595.4)">u</text><text xml:space="preserve" font-family="Georgia,Georgia" font-size="36.0" fill="#000000" transform="matrix(1.00, 0.00, -0.00, -1.00, 660.5, 595.4)">n</text><text xml:space="preserve" font-family="Georgia,Georgia" font-size="36.0" fill="#000000" transform="matrix(1.00, 0.00, -0.00, -1.00, 681.8, 595.4)">n</text><text xml:space="preserve" font-family="Georgia,Georgia" font-size="36.0" fill="#000000" transform="matrix(1.00, 0.00, -0.00, -1.00, 703.0, 595.4)">e</text><text xml:space="preserve" font-family="Georgia,Georgia" font-size="36.0" fill="#000000" transform="matrix(1.00, 0.00, -0.00, -1.00, 720.4, 595.4)">t</text><text xml:space="preserve" font-family="Georgia,Georgia" font-size="36.0" fill="#000000" transform="matrix(1.00, 0.00, -0.00, -1.00, 732.9, 595.4)">a</text><text xml:space="preserve" font-family="Georgia,Georgia" font-size="36.0" fill="#000000" transform="matrix(1.00, 0.00, -0.00, -1.00, 751.0, 595.4)">a</text><text xml:space="preserve" font-family="Georgia,Georgia" font-size="36.0" fill="#000000" transform="matrix(1.00, 0.00, -0.00, -1.00, 769.2, 595.4)">n</text><text xml:space="preserve" font-family="Georgia,Georgia" font-size="36.0" fill="#000000" transform="matrix(1.00, 0.00, -0.00, -1.00, 790.4, 595.4)"> </text><text xml:space="preserve" font-family="Georgia,Georgia" font-size="36.0" fill="#000000" transform="matrix(1.00, 0.00, -0.00, -1.00, 799.1, 595.4)">l</text><text xml:space="preserve" font-family="Georgia,Georgia" font-size="36.0" fill="#000000" transform="matrix(1.00, 0.00, -0.00, -1.00, 809.4, 595.4)">a</text><text xml:space="preserve" font-family="Georgia,Georgia" font-size="36.0" fill="#000000" transform="matrix(1.00, 0.00, -0.00, -1.00, 827.6, 595.4)">i</text><text xml:space="preserve" font-family="Georgia,Georgia" font-size="36.0" fill="#000000" transform="matrix(1.00, 0.00, -0.00, -1.00, 838.1, 595.4)">t</text><text xml:space="preserve" font-family="Georgia,Georgia" font-size="36.0" fill="#000000" transform="matrix(1.00, 0.00, -0.00, -1.00, 850.5, 595.4)">t</text><text xml:space="preserve" font-family="Georgia,Georgia" font-size="36.0" fill="#000000" transform="matrix(1.00, 0.00, -0.00, -1.00, 863.0, 595.4)">e</text><text xml:space="preserve" font-family="Georgia,Georgia" font-size="36.0" fill="#000000" transform="matrix(1.00, 0.00, -0.00, -1.00, 880.4, 595.4)">e</text><text xml:space="preserve" font-family="Georgia,Georgia" font-size="36.0" fill="#000000" transform="matrix(1.00, 0.00, -0.00, -1.00, 897.8, 595.4)">n</text><text xml:space="preserve" font-family="Georgia,Georgia" font-size="36.0" fill="#000000" transform="matrix(1.00, 0.00, -0.00, -1.00, 919.1, 595.4)"> </text><text xml:space="preserve" font-family="Georgia,Georgia" font-size="36.0" fill="#000000" transform="matrix(1.00, 0.00, -0.00, -1.00, 114.5, 554.4)">k</text><text xml:space="preserve" font-family="Georgia,Georgia" font-size="36.0" fill="#000000" transform="matrix(1.00, 0.00, -0.00, -1.00, 133.8, 554.4)">ä</text><text xml:space="preserve" font-family="Georgia,Georgia" font-size="36.0" fill="#000000" transform="matrix(1.00, 0.00, -0.00, -1.00, 151.9, 554.4)">y</text><text xml:space="preserve" font-family="Georgia,Georgia" font-size="36.0" fill="#000000" transform="matrix(1.00, 0.00, -0.00, -1.00, 169.7, 554.4)">t</text><text xml:space="preserve" font-family="Georgia,Georgia" font-size="36.0" fill="#000000" transform="matrix(1.00, 0.00, -0.00, -1.00, 182.1, 554.4)">t</text><text xml:space="preserve" font-family="Georgia,Georgia" font-size="36.0" fill="#000000" transform="matrix(1.00, 0.00, -0.00, -1.00, 194.5, 554.4)">ä</text><text xml:space="preserve" font-family="Georgia,Georgia" font-size="36.0" fill="#000000" transform="matrix(1.00, 0.00, -0.00, -1.00, 212.7, 554.4)">m</text><text xml:space="preserve" font-family="Georgia,Georgia" font-size="36.0" fill="#000000" transform="matrix(1.00, 0.00, -0.00, -1.00, 244.4, 554.4)">ä</text><text xml:space="preserve" font-family="Georgia,Georgia" font-size="36.0" fill="#000000" transform="matrix(1.00, 0.00, -0.00, -1.00, 262.5, 554.4)"> </text><text xml:space="preserve" font-family="Georgia,Georgia" font-size="36.0" fill="#000000" transform="matrix(1.00, 0.00, -0.00, -1.00, 271.2, 554.4)">e</text><text xml:space="preserve" font-family="Georgia,Georgia" font-size="36.0" fill="#000000" transform="matrix(1.00, 0.00, -0.00, -1.00, 288.6, 554.4)">n</text><text xml:space="preserve" font-family="Georgia,Georgia" font-size="36.0" fill="#000000" transform="matrix(1.00, 0.00, -0.00, -1.00, 309.9, 554.4)">e</text><text xml:space="preserve" font-family="Georgia,Georgia" font-size="36.0" fill="#000000" transform="matrix(1.00, 0.00, -0.00, -1.00, 327.3, 554.4)">r</text><text xml:space="preserve" font-family="Georgia,Georgia" font-size="36.0" fill="#000000" transform="matrix(1.00, 0.00, -0.00, -1.00, 342.0, 554.4)">g</text><text xml:space="preserve" font-family="Georgia,Georgia" font-size="36.0" fill="#000000" transform="matrix(1.00, 0.00, -0.00, -1.00, 360.4, 554.4)">i</text><text xml:space="preserve" font-family="Georgia,Georgia" font-size="36.0" fill="#000000" transform="matrix(1.00, 0.00, -0.00, -1.00, 370.9, 554.4)">a</text><text xml:space="preserve" font-family="Georgia,Georgia" font-size="36.0" fill="#000000" transform="matrix(1.00, 0.00, -0.00, -1.00, 389.1, 554.4)"> </text><text xml:space="preserve" font-family="Georgia,Georgia" font-size="36.0" fill="#000000" transform="matrix(1.00, 0.00, -0.00, -1.00, 397.8, 554.4)">j</text><text xml:space="preserve" font-family="Georgia,Georgia" font-size="36.0" fill="#000000" transform="matrix(1.00, 0.00, -0.00, -1.00, 408.3, 554.4)">a</text><text xml:space="preserve" font-family="Georgia,Georgia" font-size="36.0" fill="#000000" transform="matrix(1.00, 0.00, -0.00, -1.00, 426.4, 554.4)"> </text><text xml:space="preserve" font-family="Georgia,Georgia" font-size="36.0" fill="#000000" transform="matrix(1.00, 0.00, -0.00, -1.00, 435.1, 554.4)">h</text><text xml:space="preserve" font-family="Georgia,Georgia" font-size="36.0" fill="#000000" transform="matrix(1.00, 0.00, -0.00, -1.00, 456.1, 554.4)">y</text><text xml:space="preserve" font-family="Georgia,Georgia" font-size="36.0" fill="#000000" transform="matrix(1.00, 0.00, -0.00, -1.00, 473.8, 554.4)">ö</text><text xml:space="preserve" font-family="Georgia,Georgia" font-size="36.0" fill="#000000" transform="matrix(1.00, 0.00, -0.00, -1.00, 493.2, 554.4)">d</text><text xml:space="preserve" font-family="Georgia,Georgia" font-size="36.0" fill="#000000" transform="matrix(1.00, 0.00, -0.00, -1.00, 513.9, 554.4)">y</text><text xml:space="preserve" font-family="Georgia,Georgia" font-size="36.0" fill="#000000" transform="matrix(1.00, 0.00, -0.00, -1.00, 531.6, 554.4)">k</text><text xml:space="preserve" font-family="Georgia,Georgia" font-size="36.0" fill="#000000" transform="matrix(1.00, 0.00, -0.00, -1.00, 550.9, 554.4)">s</text><text xml:space="preserve" font-family="Georgia,Georgia" font-size="36.0" fill="#000000" transform="matrix(1.00, 0.00, -0.00, -1.00, 566.4, 554.4)">i</text><text xml:space="preserve" font-family="Georgia,Georgia" font-size="36.0" fill="#000000" transform="matrix(1.00, 0.00, -0.00, -1.00, 577.0, 554.4)"> </text><text xml:space="preserve" font-family="Georgia,Georgia" font-size="36.0" fill="#000000" transform="matrix(1.00, 0.00, -0.00, -1.00, 585.7, 554.4)">s</text><text xml:space="preserve" font-family="Georgia,Georgia" font-size="36.0" fill="#000000" transform="matrix(1.00, 0.00, -0.00, -1.00, 601.2, 554.4)">a</text><text xml:space="preserve" font-family="Georgia,Georgia" font-size="36.0" fill="#000000" transform="matrix(1.00, 0.00, -0.00, -1.00, 619.4, 554.4)">a</text><text xml:space="preserve" font-family="Georgia,Georgia" font-size="36.0" fill="#000000" transform="matrix(1.00, 0.00, -0.00, -1.00, 637.5, 554.4)">t</text><text xml:space="preserve" font-family="Georgia,Georgia" font-size="36.0" fill="#000000" transform="matrix(1.00, 0.00, -0.00, -1.00, 649.9, 554.4)">u</text><text xml:space="preserve" font-family="Georgia,Georgia" font-size="36.0" fill="#000000" transform="matrix(1.00, 0.00, -0.00, -1.00, 670.6, 554.4)"> </text><text xml:space="preserve" font-family="Georgia,Georgia" font-size="36.0" fill="#000000" transform="matrix(1.00, 0.00, -0.00, -1.00, 679.3, 554.4)">e</text><text xml:space="preserve" font-family="Georgia,Georgia" font-size="36.0" fill="#000000" transform="matrix(1.00, 0.00, -0.00, -1.00, 696.8, 554.4)">n</text><text xml:space="preserve" font-family="Georgia,Georgia" font-size="36.0" fill="#000000" transform="matrix(1.00, 0.00, -0.00, -1.00, 718.0, 554.4)">e</text><text xml:space="preserve" font-family="Georgia,Georgia" font-size="36.0" fill="#000000" transform="matrix(1.00, 0.00, -0.00, -1.00, 735.4, 554.4)">r</text><text xml:space="preserve" font-family="Georgia,Georgia" font-size="36.0" fill="#000000" transform="matrix(1.00, 0.00, -0.00, -1.00, 750.2, 554.4)">g</text><text xml:space="preserve" font-family="Georgia,Georgia" font-size="36.0" fill="#000000" transform="matrix(1.00, 0.00, -0.00, -1.00, 768.5, 554.4)">i</text><text xml:space="preserve" font-family="Georgia,Georgia" font-size="36.0" fill="#000000" transform="matrix(1.00, 0.00, -0.00, -1.00, 779.1, 554.4)">a</text><path d="M 554.0 386.0 L 554.0 353.4 L 599.5 413.1 L 554.0 472.7 L 554.0 440.0 L 425.0 440.0 L 425.0 386.0 Z M 554.3 386.3 " fill="#DCDDE0"></path><path d="M 128.6 86.7 L 128.6 119.3 L 174.1 59.7 L 128.6 0.0 L 128.6 32.7 L -0.4 32.7 L -0.4 86.7 Z M 128.9 86.4 " fill="none" stroke="#85878C" stroke-width="2.00" transform="matrix(1.00, 0.00, 0.00, -1.00, 425.4, 472.7)"></path><g><clipPath id="clip0x7fda2fdcf3f0"><path d="M 422.7 353.4 L 599.5 353.4 L 599.5 472.7 L 422.7 472.7 Z M 422.7 353.4 "></path></clipPath><g clip-path="url(#clip0x7fda2fdcf3f0)"><text xml:space="preserve" font-family="Georgia,Georgia" font-size="27.0" fill="#000000" transform="matrix(1.00, 0.00, -0.00, -1.00, 475.8, 403.6)">L</text><text xml:space="preserve" font-family="Georgia,Georgia" font-size="27.0" fill="#000000" transform="matrix(1.00, 0.00, -0.00, -1.00, 492.1, 403.6)">a</text><text xml:space="preserve" font-family="Georgia,Georgia" font-size="27.0" fill="#000000" transform="matrix(1.00, 0.00, -0.00, -1.00, 505.7, 403.6)">i</text><text xml:space="preserve" font-family="Georgia,Georgia" font-size="27.0" fill="#000000" transform="matrix(1.00, 0.00, -0.00, -1.00, 513.6, 403.6)">t</text><text xml:space="preserve" font-family="Georgia,Georgia" font-size="27.0" fill="#000000" transform="matrix(1.00, 0.00, -0.00, -1.00, 522.9, 403.6)">e</text></g></g><path d="M -0.4 0.1 L 153.6 0.1 L 153.6 154.1 L -0.4 154.1 Z M 0.0 0.0 " fill="none" stroke="#85878C" stroke-width="2.00" transform="matrix(1.00, 0.00, 0.00, -1.00, 271.4, 486.1)"></path><g><clipPath id="clip0x7fda2fdd6450"><path d="M 268.7 333.3 L 427.8 333.3 L 427.8 485.1 L 268.7 485.1 Z M 268.7 333.3 "></path></clipPath><g clip-path="url(#clip0x7fda2fdd6450)"><text xml:space="preserve" font-family="Georgia,Georgia" font-size="27.0" fill="#000000" transform="matrix(1.00, 0.00, -0.00, -1.00, 298.3, 415.0)">K</text><text xml:space="preserve" font-family="Georgia,Georgia" font-size="27.0" fill="#000000" transform="matrix(1.00, 0.00, -0.00, -1.00, 317.1, 415.0)">ä</text><text xml:space="preserve" font-family="Georgia,Georgia" font-size="27.0" fill="#000000" transform="matrix(1.00, 0.00, -0.00, -1.00, 330.7, 415.0)">y</text><text xml:space="preserve" font-family="Georgia,Georgia" font-size="27.0" fill="#000000" transform="matrix(1.00, 0.00, -0.00, -1.00, 344.0, 415.0)">t</text><text xml:space="preserve" font-family="Georgia,Georgia" font-size="27.0" fill="#000000" transform="matrix(1.00, 0.00, -0.00, -1.00, 353.3, 415.0)">e</text><text xml:space="preserve" font-family="Georgia,Georgia" font-size="27.0" fill="#000000" transform="matrix(1.00, 0.00, -0.00, -1.00, 366.4, 415.0)">t</text><text xml:space="preserve" font-family="Georgia,Georgia" font-size="27.0" fill="#000000" transform="matrix(1.00, 0.00, -0.00, -1.00, 375.7, 415.0)">t</text><text xml:space="preserve" font-family="Georgia,Georgia" font-size="27.0" fill="#000000" transform="matrix(1.00, 0.00, -0.00, -1.00, 385.0, 415.0)">y</text><text xml:space="preserve" font-family="Georgia,Georgia" font-size="27.0" fill="#000000" transform="matrix(1.00, 0.00, -0.00, -1.00, 398.3, 415.0)"> </text><text xml:space="preserve" font-family="Georgia,Georgia" font-size="27.0" fill="#000000" transform="matrix(1.00, 0.00, -0.00, -1.00, 287.2, 384.0)">e</text><text xml:space="preserve" font-family="Georgia,Georgia" font-size="27.0" fill="#000000" transform="matrix(1.00, 0.00, -0.00, -1.00, 300.3, 384.0)">n</text><text xml:space="preserve" font-family="Georgia,Georgia" font-size="27.0" fill="#000000" transform="matrix(1.00, 0.00, -0.00, -1.00, 316.2, 384.0)">e</text><text xml:space="preserve" font-family="Georgia,Georgia" font-size="27.0" fill="#000000" transform="matrix(1.00, 0.00, -0.00, -1.00, 329.3, 384.0)">r</text><text xml:space="preserve" font-family="Georgia,Georgia" font-size="27.0" fill="#000000" transform="matrix(1.00, 0.00, -0.00, -1.00, 340.3, 384.0)">g</text><text xml:space="preserve" font-family="Georgia,Georgia" font-size="27.0" fill="#000000" transform="matrix(1.00, 0.00, -0.00, -1.00, 354.1, 384.0)">i</text><text xml:space="preserve" font-family="Georgia,Georgia" font-size="27.0" fill="#000000" transform="matrix(1.00, 0.00, -0.00, -1.00, 362.0, 384.0)">a</text><text xml:space="preserve" font-family="Georgia,Georgia" font-size="27.0" fill="#000000" transform="matrix(1.00, 0.00, -0.00, -1.00, 375.6, 384.0)"> </text><text xml:space="preserve" font-family="Georgia,Georgia" font-size="27.0" fill="#000000" transform="matrix(1.00, 0.00, -0.00, -1.00, 382.1, 384.0)">E</text><text xml:space="preserve" font-family="Georgia,Georgia" font-size="18.0" fill="#000000" transform="matrix(1.00, 0.00, -0.00, -1.00, 399.7, 382.0)">k</text></g></g><g><clipPath id="clip0x7fda2fddc460"><path d="M 597.9 330.3 L 755.7 330.3 L 755.7 488.1 L 597.9 488.1 Z M 597.9 330.3 "></path></clipPath><g clip-path="url(#clip0x7fda2fddc460)"><path d="M 0.1 0.1 L 154.1 0.1 L 154.1 154.1 L 0.1 154.1 Z M 0.0 0.0 " fill="none" stroke="#85878C" stroke-width="2.00" transform="matrix(1.00, 0.00, 0.00, -1.00, 599.9, 486.1)"></path></g></g><g><clipPath id="clip0x7fda2fdddb70"><path d="M 597.9 444.1 L 755.7 444.1 L 755.7 488.1 L 597.9 488.1 Z M 597.9 444.1 "></path></clipPath><g clip-path="url(#clip0x7fda2fdddb70)"><path d="M 600.0 486.0 L 754.0 486.0 L 754.0 446.0 L 600.0 446.0 Z M 599.9 486.1 " fill="#EAD4D0"></path><path d="M 0.1 0.1 L 154.1 0.1 L 154.1 40.1 L 0.1 40.1 Z M 0.0 0.0 " fill="none" stroke="#85878C" stroke-width="2.00" transform="matrix(1.00, 0.00, 0.00, -1.00, 599.9, 486.1)"></path></g></g><g><clipPath id="clip0x7fda2fddfde0"><path d="M 597.9 330.3 L 755.7 330.3 L 755.7 449.7 L 597.9 449.7 Z M 597.9 330.3 "></path></clipPath><g clip-path="url(#clip0x7fda2fddfde0)"><path d="M 600.0 448.0 L 754.0 448.0 L 754.0 332.0 L 600.0 332.0 Z M 599.9 447.7 " fill="#C1E7A5"></path><path d="M 0.1 -0.3 L 154.1 -0.3 L 154.1 115.7 L 0.1 115.7 Z M 0.0 0.0 " fill="none" stroke="#85878C" stroke-width="2.00" transform="matrix(1.00, 0.00, 0.00, -1.00, 599.9, 447.7)"></path></g></g><g><clipPath id="clip0x7fda2fde1d20"><path d="M 598.4 333.3 L 755.2 333.3 L 755.2 446.7 L 598.4 446.7 Z M 598.4 333.3 "></path></clipPath><g clip-path="url(#clip0x7fda2fde1d20)"><text xml:space="preserve" font-family="Georgia,Georgia" font-size="23.0" fill="#000000" transform="matrix(1.00, 0.00, -0.00, -1.00, 628.8, 408.8)">H</text><text xml:space="preserve" font-family="Georgia,Georgia" font-size="23.0" fill="#000000" transform="matrix(1.00, 0.00, -0.00, -1.00, 647.5, 408.8)">y</text><text xml:space="preserve" font-family="Georgia,Georgia" font-size="23.0" fill="#000000" transform="matrix(1.00, 0.00, -0.00, -1.00, 658.9, 408.8)">ö</text><text xml:space="preserve" font-family="Georgia,Georgia" font-size="23.0" fill="#000000" transform="matrix(1.00, 0.00, -0.00, -1.00, 671.3, 408.8)">d</text><text xml:space="preserve" font-family="Georgia,Georgia" font-size="23.0" fill="#000000" transform="matrix(1.00, 0.00, -0.00, -1.00, 684.5, 408.8)">y</text><text xml:space="preserve" font-family="Georgia,Georgia" font-size="23.0" fill="#000000" transform="matrix(1.00, 0.00, -0.00, -1.00, 695.8, 408.8)">k</text><text xml:space="preserve" font-family="Georgia,Georgia" font-size="23.0" fill="#000000" transform="matrix(1.00, 0.00, -0.00, -1.00, 708.1, 408.8)">s</text><text xml:space="preserve" font-family="Georgia,Georgia" font-size="23.0" fill="#000000" transform="matrix(1.00, 0.00, -0.00, -1.00, 718.1, 408.8)">i</text><text xml:space="preserve" font-family="Georgia,Georgia" font-size="23.0" fill="#000000" transform="matrix(1.00, 0.00, -0.00, -1.00, 724.8, 408.8)"> </text><text xml:space="preserve" font-family="Georgia,Georgia" font-size="23.0" fill="#000000" transform="matrix(1.00, 0.00, -0.00, -1.00, 609.2, 382.8)">s</text><text xml:space="preserve" font-family="Georgia,Georgia" font-size="23.0" fill="#000000" transform="matrix(1.00, 0.00, -0.00, -1.00, 619.2, 382.8)">a</text><text xml:space="preserve" font-family="Georgia,Georgia" font-size="23.0" fill="#000000" transform="matrix(1.00, 0.00, -0.00, -1.00, 630.8, 382.8)">a</text><text xml:space="preserve" font-family="Georgia,Georgia" font-size="23.0" fill="#000000" transform="matrix(1.00, 0.00, -0.00, -1.00, 642.3, 382.8)">t</text><text xml:space="preserve" font-family="Georgia,Georgia" font-size="23.0" fill="#000000" transform="matrix(1.00, 0.00, -0.00, -1.00, 650.3, 382.8)">u</text><text xml:space="preserve" font-family="Georgia,Georgia" font-size="23.0" fill="#000000" transform="matrix(1.00, 0.00, -0.00, -1.00, 663.5, 382.8)"> </text><text xml:space="preserve" font-family="Georgia,Georgia" font-size="23.0" fill="#000000" transform="matrix(1.00, 0.00, -0.00, -1.00, 669.1, 382.8)">e</text><text xml:space="preserve" font-family="Georgia,Georgia" font-size="23.0" fill="#000000" transform="matrix(1.00, 0.00, -0.00, -1.00, 680.2, 382.8)">n</text><text xml:space="preserve" font-family="Georgia,Georgia" font-size="23.0" fill="#000000" transform="matrix(1.00, 0.00, -0.00, -1.00, 693.8, 382.8)">e</text><text xml:space="preserve" font-family="Georgia,Georgia" font-size="23.0" fill="#000000" transform="matrix(1.00, 0.00, -0.00, -1.00, 704.9, 382.8)">r</text><text xml:space="preserve" font-family="Georgia,Georgia" font-size="23.0" fill="#000000" transform="matrix(1.00, 0.00, -0.00, -1.00, 714.3, 382.8)">g</text><text xml:space="preserve" font-family="Georgia,Georgia" font-size="23.0" fill="#000000" transform="matrix(1.00, 0.00, -0.00, -1.00, 726.1, 382.8)">i</text><text xml:space="preserve" font-family="Georgia,Georgia" font-size="23.0" fill="#000000" transform="matrix(1.00, 0.00, -0.00, -1.00, 732.8, 382.8)">a</text><text xml:space="preserve" font-family="Georgia,Georgia" font-size="23.0" fill="#000000" transform="matrix(1.00, 0.00, -0.00, -1.00, 744.4, 382.8)"> </text><text xml:space="preserve" font-family="Georgia,Georgia" font-size="23.0" fill="#000000" transform="matrix(1.00, 0.00, -0.00, -1.00, 664.8, 356.8)">E</text><text xml:space="preserve" font-family="Georgia,Georgia" font-size="15.3" fill="#000000" transform="matrix(1.00, 0.00, -0.00, -1.00, 679.8, 355.1)">h</text></g></g><text xml:space="preserve" font-family="LMRoman10-Regular,Latin Modern Roman" font-size="36.0" fill="#000000" transform="matrix(1.00, 0.00, -0.00, -1.00, 272.0, 99.8)"> </text><text xml:space="preserve" font-family="LMRoman10-Regular,Latin Modern Roman" font-size="36.0" fill="#000000" transform="matrix(1.00, 0.00, -0.00, -1.00, 284.0, 99.8)"> </text><text xml:space="preserve" font-family="Palatino-Roman,Palatino" font-size="36.0" fill="#000000" transform="matrix(1.00, 0.00, -0.00, -1.00, 296.0, 99.8)">η</text><text xml:space="preserve" font-family="LMRoman10-Regular,Latin Modern Roman" font-size="36.0" fill="#000000" transform="matrix(1.00, 0.00, -0.00, -1.00, 317.1, 99.8)"> </text><text xml:space="preserve" font-family="LMRoman10-Regular,Latin Modern Roman" font-size="36.0" fill="#000000" transform="matrix(1.00, 0.00, -0.00, -1.00, 329.1, 99.8)">=</text><text xml:space="preserve" font-family="Georgia,Georgia" font-size="36.0" fill="#000000" transform="matrix(1.00, 0.00, -0.00, -1.00, 122.0, 228.8)">H</text><text xml:space="preserve" font-family="Georgia,Georgia" font-size="36.0" fill="#000000" transform="matrix(1.00, 0.00, -0.00, -1.00, 151.3, 228.8)">y</text><text xml:space="preserve" font-family="Georgia,Georgia" font-size="36.0" fill="#000000" transform="matrix(1.00, 0.00, -0.00, -1.00, 169.1, 228.8)">ö</text><text xml:space="preserve" font-family="Georgia,Georgia" font-size="36.0" fill="#000000" transform="matrix(1.00, 0.00, -0.00, -1.00, 188.5, 228.8)">t</text><text xml:space="preserve" font-family="Georgia,Georgia" font-size="36.0" fill="#000000" transform="matrix(1.00, 0.00, -0.00, -1.00, 200.9, 228.8)">y</text><text xml:space="preserve" font-family="Georgia,Georgia" font-size="36.0" fill="#000000" transform="matrix(1.00, 0.00, -0.00, -1.00, 218.6, 228.8)">s</text><text xml:space="preserve" font-family="Georgia,Georgia" font-size="36.0" fill="#000000" transform="matrix(1.00, 0.00, -0.00, -1.00, 234.2, 228.8)">u</text><text xml:space="preserve" font-family="Georgia,Georgia" font-size="36.0" fill="#000000" transform="matrix(1.00, 0.00, -0.00, -1.00, 254.9, 228.8)">h</text><text xml:space="preserve" font-family="Georgia,Georgia" font-size="36.0" fill="#000000" transform="matrix(1.00, 0.00, -0.00, -1.00, 275.9, 228.8)">d</text><text xml:space="preserve" font-family="Georgia,Georgia" font-size="36.0" fill="#000000" transform="matrix(1.00, 0.00, -0.00, -1.00, 296.5, 228.8)">e</text><text xml:space="preserve" font-family="Georgia,Georgia" font-size="36.0" fill="#000000" transform="matrix(1.00, 0.00, -0.00, -1.00, 314.0, 228.8)"> </text><text xml:space="preserve" font-family="Georgia,Georgia" font-size="36.0" fill="#000000" transform="matrix(1.00, 0.00, -0.00, -1.00, 322.6, 228.8)">=</text><text xml:space="preserve" font-family="Georgia,Georgia" font-size="36.0" fill="#000000" transform="matrix(1.00, 0.00, -0.00, -1.00, 410.0, 205.8)">k</text><text xml:space="preserve" font-family="Georgia,Georgia" font-size="36.0" fill="#000000" transform="matrix(1.00, 0.00, -0.00, -1.00, 429.3, 205.8)">ä</text><text xml:space="preserve" font-family="Georgia,Georgia" font-size="36.0" fill="#000000" transform="matrix(1.00, 0.00, -0.00, -1.00, 447.4, 205.8)">y</text><text xml:space="preserve" font-family="Georgia,Georgia" font-size="36.0" fill="#000000" transform="matrix(1.00, 0.00, -0.00, -1.00, 465.1, 205.8)">t</text><text xml:space="preserve" font-family="Georgia,Georgia" font-size="36.0" fill="#000000" transform="matrix(1.00, 0.00, -0.00, -1.00, 477.6, 205.8)">e</text><text xml:space="preserve" font-family="Georgia,Georgia" font-size="36.0" fill="#000000" transform="matrix(1.00, 0.00, -0.00, -1.00, 495.0, 205.8)">t</text><text xml:space="preserve" font-family="Georgia,Georgia" font-size="36.0" fill="#000000" transform="matrix(1.00, 0.00, -0.00, -1.00, 507.4, 205.8)">t</text><text xml:space="preserve" font-family="Georgia,Georgia" font-size="36.0" fill="#000000" transform="matrix(1.00, 0.00, -0.00, -1.00, 519.9, 205.8)">y</text><text xml:space="preserve" font-family="Georgia,Georgia" font-size="36.0" fill="#000000" transform="matrix(1.00, 0.00, -0.00, -1.00, 537.6, 205.8)"> </text><text xml:space="preserve" font-family="Georgia,Georgia" font-size="36.0" fill="#000000" transform="matrix(1.00, 0.00, -0.00, -1.00, 546.3, 205.8)">e</text><text xml:space="preserve" font-family="Georgia,Georgia" font-size="36.0" fill="#000000" transform="matrix(1.00, 0.00, -0.00, -1.00, 563.7, 205.8)">n</text><text xml:space="preserve" font-family="Georgia,Georgia" font-size="36.0" fill="#000000" transform="matrix(1.00, 0.00, -0.00, -1.00, 584.9, 205.8)">e</text><text xml:space="preserve" font-family="Georgia,Georgia" font-size="36.0" fill="#000000" transform="matrix(1.00, 0.00, -0.00, -1.00, 602.4, 205.8)">r</text><text xml:space="preserve" font-family="Georgia,Georgia" font-size="36.0" fill="#000000" transform="matrix(1.00, 0.00, -0.00, -1.00, 617.1, 205.8)">g</text><text xml:space="preserve" font-family="Georgia,Georgia" font-size="36.0" fill="#000000" transform="matrix(1.00, 0.00, -0.00, -1.00, 635.4, 205.8)">i</text><text xml:space="preserve" font-family="Georgia,Georgia" font-size="36.0" fill="#000000" transform="matrix(1.00, 0.00, -0.00, -1.00, 646.0, 205.8)">a</text><text xml:space="preserve" font-family="Georgia,Georgia" font-size="36.0" fill="#000000" transform="matrix(1.00, 0.00, -0.00, -1.00, 357.0, 242.8)">h</text><text xml:space="preserve" font-family="Georgia,Georgia" font-size="36.0" fill="#000000" transform="matrix(1.00, 0.00, -0.00, -1.00, 378.0, 242.8)">y</text><text xml:space="preserve" font-family="Georgia,Georgia" font-size="36.0" fill="#000000" transform="matrix(1.00, 0.00, -0.00, -1.00, 395.7, 242.8)">ö</text><text xml:space="preserve" font-family="Georgia,Georgia" font-size="36.0" fill="#000000" transform="matrix(1.00, 0.00, -0.00, -1.00, 415.1, 242.8)">d</text><text xml:space="preserve" font-family="Georgia,Georgia" font-size="36.0" fill="#000000" transform="matrix(1.00, 0.00, -0.00, -1.00, 435.8, 242.8)">y</text><text xml:space="preserve" font-family="Georgia,Georgia" font-size="36.0" fill="#000000" transform="matrix(1.00, 0.00, -0.00, -1.00, 453.5, 242.8)">k</text><text xml:space="preserve" font-family="Georgia,Georgia" font-size="36.0" fill="#000000" transform="matrix(1.00, 0.00, -0.00, -1.00, 472.8, 242.8)">s</text><text xml:space="preserve" font-family="Georgia,Georgia" font-size="36.0" fill="#000000" transform="matrix(1.00, 0.00, -0.00, -1.00, 488.3, 242.8)">i</text><text xml:space="preserve" font-family="Georgia,Georgia" font-size="36.0" fill="#000000" transform="matrix(1.00, 0.00, -0.00, -1.00, 498.9, 242.8)"> </text><text xml:space="preserve" font-family="Georgia,Georgia" font-size="36.0" fill="#000000" transform="matrix(1.00, 0.00, -0.00, -1.00, 507.6, 242.8)">s</text><text xml:space="preserve" font-family="Georgia,Georgia" font-size="36.0" fill="#000000" transform="matrix(1.00, 0.00, -0.00, -1.00, 523.1, 242.8)">a</text><text xml:space="preserve" font-family="Georgia,Georgia" font-size="36.0" fill="#000000" transform="matrix(1.00, 0.00, -0.00, -1.00, 541.3, 242.8)">a</text><text xml:space="preserve" font-family="Georgia,Georgia" font-size="36.0" fill="#000000" transform="matrix(1.00, 0.00, -0.00, -1.00, 559.4, 242.8)">t</text><text xml:space="preserve" font-family="Georgia,Georgia" font-size="36.0" fill="#000000" transform="matrix(1.00, 0.00, -0.00, -1.00, 571.8, 242.8)">u</text><text xml:space="preserve" font-family="Georgia,Georgia" font-size="36.0" fill="#000000" transform="matrix(1.00, 0.00, -0.00, -1.00, 592.5, 242.8)"> </text><text xml:space="preserve" font-family="Georgia,Georgia" font-size="36.0" fill="#000000" transform="matrix(1.00, 0.00, -0.00, -1.00, 601.2, 242.8)">e</text><text xml:space="preserve" font-family="Georgia,Georgia" font-size="36.0" fill="#000000" transform="matrix(1.00, 0.00, -0.00, -1.00, 618.7, 242.8)">n</text><text xml:space="preserve" font-family="Georgia,Georgia" font-size="36.0" fill="#000000" transform="matrix(1.00, 0.00, -0.00, -1.00, 639.9, 242.8)">e</text><text xml:space="preserve" font-family="Georgia,Georgia" font-size="36.0" fill="#000000" transform="matrix(1.00, 0.00, -0.00, -1.00, 657.3, 242.8)">r</text><text xml:space="preserve" font-family="Georgia,Georgia" font-size="36.0" fill="#000000" transform="matrix(1.00, 0.00, -0.00, -1.00, 672.1, 242.8)">g</text><text xml:space="preserve" font-family="Georgia,Georgia" font-size="36.0" fill="#000000" transform="matrix(1.00, 0.00, -0.00, -1.00, 690.4, 242.8)">i</text><text xml:space="preserve" font-family="Georgia,Georgia" font-size="36.0" fill="#000000" transform="matrix(1.00, 0.00, -0.00, -1.00, 701.0, 242.8)">a</text><g><clipPath id="clip0x7fda3000eaa0"><path d="M 356.0 237.7 L 719.0 237.7 L 719.0 241.5 L 356.0 241.5 Z M 356.0 237.7 "></path></clipPath><g clip-path="url(#clip0x7fda3000eaa0)"><path d="M 4.0 40.3 L 366.0 40.3 " fill="none" stroke="#000000" stroke-width="1.78" transform="matrix(1.00, 0.00, 0.00, -1.00, 353.0, 279.9)"></path></g></g><text xml:space="preserve" font-family="Georgia,Georgia" font-size="36.0" fill="#000000" transform="matrix(1.00, 0.00, -0.00, -1.00, 371.0, 118.3)">E</text><text xml:space="preserve" font-family="Georgia,Georgia" font-size="24.0" fill="#000000" transform="matrix(1.00, 0.00, -0.00, -1.00, 394.5, 115.6)">h</text><g><clipPath id="clip0x7fda30019890"><path d="M 370.0 111.6 L 408.5 111.6 L 408.5 115.4 L 370.0 115.4 Z M 370.0 111.6 "></path></clipPath><g clip-path="url(#clip0x7fda30019890)"><path d="M 4.0 41.9 L 41.5 41.9 " fill="none" stroke="#000000" stroke-width="1.78" transform="matrix(1.00, 0.00, 0.00, -1.00, 367.0, 155.4)"></path></g></g><text xml:space="preserve" font-family="Georgia,Georgia" font-size="36.0" fill="#000000" transform="matrix(1.00, 0.00, -0.00, -1.00, 371.3, 73.3)">E</text><text xml:space="preserve" font-family="Georgia,Georgia" font-size="24.0" fill="#000000" transform="matrix(1.00, 0.00, -0.00, -1.00, 394.9, 70.6)">k</text><text xml:space="preserve" font-family="Georgia,Georgia" font-size="36.0" fill="#000000" transform="matrix(1.00, 0.00, -0.00, -1.00, 141.0, 102.8)">e</text><text xml:space="preserve" font-family="Georgia,Georgia" font-size="36.0" fill="#000000" transform="matrix(1.00, 0.00, -0.00, -1.00, 158.4, 102.8)">l</text><text xml:space="preserve" font-family="Georgia,Georgia" font-size="36.0" fill="#000000" transform="matrix(1.00, 0.00, -0.00, -1.00, 168.7, 102.8)">i</text><text xml:space="preserve" font-family="Georgia,Georgia" font-size="36.0" fill="#000000" transform="matrix(1.00, 0.00, -0.00, -1.00, 563.0, 123.9)">e</text><text xml:space="preserve" font-family="Georgia,Georgia" font-size="36.0" fill="#000000" transform="matrix(1.00, 0.00, -0.00, -1.00, 580.4, 123.9)">s</text><text xml:space="preserve" font-family="Georgia,Georgia" font-size="36.0" fill="#000000" transform="matrix(1.00, 0.00, -0.00, -1.00, 596.0, 123.9)">i</text><text xml:space="preserve" font-family="Georgia,Georgia" font-size="36.0" fill="#000000" transform="matrix(1.00, 0.00, -0.00, -1.00, 606.5, 123.9)">m</text><text xml:space="preserve" font-family="Georgia,Georgia" font-size="36.0" fill="#000000" transform="matrix(1.00, 0.00, -0.00, -1.00, 638.2, 123.9)">.</text><text xml:space="preserve" font-family="Georgia,Georgia" font-size="36.0" fill="#000000" transform="matrix(1.00, 0.00, -0.00, -1.00, 119.0, 400.5)">1</text><text xml:space="preserve" font-family="Georgia,Georgia" font-size="36.0" fill="#000000" transform="matrix(1.00, 0.00, -0.00, -1.00, 134.5, 400.5)">0</text><text xml:space="preserve" font-family="Georgia,Georgia" font-size="36.0" fill="#000000" transform="matrix(1.00, 0.00, -0.00, -1.00, 156.5, 400.5)">0</text><text xml:space="preserve" font-family="Georgia,Georgia" font-size="36.0" fill="#000000" transform="matrix(1.00, 0.00, -0.00, -1.00, 178.6, 400.5)">0</text><text xml:space="preserve" font-family="Georgia,Georgia" font-size="36.0" fill="#000000" transform="matrix(1.00, 0.00, -0.00, -1.00, 200.7, 400.5)"> </text><text xml:space="preserve" font-family="Georgia,Georgia" font-size="36.0" fill="#000000" transform="matrix(1.00, 0.00, -0.00, -1.00, 209.4, 400.5)">J</text><text xml:space="preserve" font-family="Georgia,Georgia" font-size="36.0" fill="#000000" transform="matrix(1.00, 0.00, -0.00, -1.00, 784.0, 371.0)">7</text><text xml:space="preserve" font-family="Georgia,Georgia" font-size="36.0" fill="#000000" transform="matrix(1.00, 0.00, -0.00, -1.00, 802.1, 371.0)">0</text><text xml:space="preserve" font-family="Georgia,Georgia" font-size="36.0" fill="#000000" transform="matrix(1.00, 0.00, -0.00, -1.00, 824.2, 371.0)">0</text><text xml:space="preserve" font-family="Georgia,Georgia" font-size="36.0" fill="#000000" transform="matrix(1.00, 0.00, -0.00, -1.00, 846.3, 371.0)"> </text><text xml:space="preserve" font-family="Georgia,Georgia" font-size="36.0" fill="#000000" transform="matrix(1.00, 0.00, -0.00, -1.00, 854.9, 371.0)">J</text><text xml:space="preserve" font-family="LMRoman10-Regular,Latin Modern Roman" font-size="36.0" fill="#000000" transform="matrix(1.00, 0.00, -0.00, -1.00, 665.0, 127.9)"> </text><text xml:space="preserve" font-family="LMRoman10-Regular,Latin Modern Roman" font-size="36.0" fill="#000000" transform="matrix(1.00, 0.00, -0.00, -1.00, 677.0, 127.9)"> </text><text xml:space="preserve" font-family="Palatino-Roman,Palatino" font-size="36.0" fill="#000000" transform="matrix(1.00, 0.00, -0.00, -1.00, 689.0, 127.9)">η</text><text xml:space="preserve" font-family="LMRoman10-Regular,Latin Modern Roman" font-size="36.0" fill="#000000" transform="matrix(1.00, 0.00, -0.00, -1.00, 710.1, 127.9)"> </text><text xml:space="preserve" font-family="LMRoman10-Regular,Latin Modern Roman" font-size="36.0" fill="#000000" transform="matrix(1.00, 0.00, -0.00, -1.00, 722.1, 127.9)">=</text><text xml:space="preserve" font-family="Georgia,Georgia" font-size="36.0" fill="#000000" transform="matrix(1.00, 0.00, -0.00, -1.00, 764.0, 146.4)"> </text><text xml:space="preserve" font-family="Georgia,Georgia" font-size="36.0" fill="#000000" transform="matrix(1.00, 0.00, -0.00, -1.00, 772.7, 146.4)">7</text><text xml:space="preserve" font-family="Georgia,Georgia" font-size="36.0" fill="#000000" transform="matrix(1.00, 0.00, -0.00, -1.00, 790.8, 146.4)">0</text><text xml:space="preserve" font-family="Georgia,Georgia" font-size="36.0" fill="#000000" transform="matrix(1.00, 0.00, -0.00, -1.00, 812.9, 146.4)">0</text><text xml:space="preserve" font-family="Georgia,Georgia" font-size="36.0" fill="#000000" transform="matrix(1.00, 0.00, -0.00, -1.00, 835.0, 146.4)"> </text><text xml:space="preserve" font-family="Georgia,Georgia" font-size="36.0" fill="#000000" transform="matrix(1.00, 0.00, -0.00, -1.00, 843.7, 146.4)">J</text><g><clipPath id="clip0x7fda30029710"><path d="M 763.0 141.3 L 862.3 141.3 L 862.3 145.1 L 763.0 145.1 Z M 763.0 141.3 "></path></clipPath><g clip-path="url(#clip0x7fda30029710)"><path d="M 4.0 40.3 L 102.3 40.3 " fill="none" stroke="#000000" stroke-width="1.78" transform="matrix(1.00, 0.00, 0.00, -1.00, 760.0, 183.5)"></path></g></g><text xml:space="preserve" font-family="Georgia,Georgia" font-size="36.0" fill="#000000" transform="matrix(1.00, 0.00, -0.00, -1.00, 764.3, 101.4)">1</text><text xml:space="preserve" font-family="Georgia,Georgia" font-size="36.0" fill="#000000" transform="matrix(1.00, 0.00, -0.00, -1.00, 779.8, 101.4)">0</text><text xml:space="preserve" font-family="Georgia,Georgia" font-size="36.0" fill="#000000" transform="matrix(1.00, 0.00, -0.00, -1.00, 801.9, 101.4)">0</text><text xml:space="preserve" font-family="Georgia,Georgia" font-size="36.0" fill="#000000" transform="matrix(1.00, 0.00, -0.00, -1.00, 824.0, 101.4)">0</text><text xml:space="preserve" font-family="Georgia,Georgia" font-size="36.0" fill="#000000" transform="matrix(1.00, 0.00, -0.00, -1.00, 846.0, 101.4)"> </text><text xml:space="preserve" font-family="Georgia,Georgia" font-size="36.0" fill="#000000" transform="matrix(1.00, 0.00, -0.00, -1.00, 854.8, 101.4)">J</text><text xml:space="preserve" font-family="Georgia,Georgia" font-size="36.0" fill="#000000" transform="matrix(1.00, 0.00, -0.00, -1.00, 881.0, 130.2)">=</text><text xml:space="preserve" font-family="Georgia,Georgia" font-size="36.0" fill="#000000" transform="matrix(1.00, 0.00, -0.00, -1.00, 904.2, 130.2)"> </text><text xml:space="preserve" font-family="Georgia,Georgia" font-size="36.0" fill="#000000" transform="matrix(1.00, 0.00, -0.00, -1.00, 912.9, 130.2)">0</text><text xml:space="preserve" font-family="Georgia,Georgia" font-size="36.0" fill="#000000" transform="matrix(1.00, 0.00, -0.00, -1.00, 935.0, 130.2)">,</text><text xml:space="preserve" font-family="Georgia,Georgia" font-size="36.0" fill="#000000" transform="matrix(1.00, 0.00, -0.00, -1.00, 944.6, 130.2)">7</text><text xml:space="preserve" font-family="Georgia,Georgia" font-size="36.0" fill="#000000" transform="matrix(1.00, 0.00, -0.00, -1.00, 725.0, 45.5)">=</text><text xml:space="preserve" font-family="Georgia,Georgia" font-size="36.0" fill="#000000" transform="matrix(1.00, 0.00, -0.00, -1.00, 748.2, 45.5)"> </text><text xml:space="preserve" font-family="Georgia,Georgia" font-size="36.0" fill="#000000" transform="matrix(1.00, 0.00, -0.00, -1.00, 756.9, 45.5)">7</text><text xml:space="preserve" font-family="Georgia,Georgia" font-size="36.0" fill="#000000" transform="matrix(1.00, 0.00, -0.00, -1.00, 775.0, 45.5)">0</text><text xml:space="preserve" font-family="Georgia,Georgia" font-size="36.0" fill="#000000" transform="matrix(1.00, 0.00, -0.00, -1.00, 797.1, 45.5)"> </text><text xml:space="preserve" font-family="Georgia,Georgia" font-size="36.0" fill="#000000" transform="matrix(1.00, 0.00, -0.00, -1.00, 805.7, 45.5)">%</text></g></svg>