<?xml version="1.0" encoding="UTF-8" standalone="no"?><svg xmlns="http://www.w3.org/2000/svg" xmlns:xlink="http://www.w3.org/1999/xlink" clip-rule="evenodd" stroke-miterlimit="10" viewBox="0 0 1024 768"><desc>SVG generated by Keynote</desc><defs><pattern id="285FE2E6-ECAA-4C58-80E7-4776E7B69954" patternUnits="userSpaceOnUse" width="600" height="600" viewBox="0 0 600 600"><image xlink:href="9FCE571DE120514E82622C251A6D1721.jpeg" width="600.00" height="600.00"></image></pattern><pattern id="5DC9515D-D08E-4719-8AC1-CD1CAFD54B87" patternUnits="userSpaceOnUse" width="600" height="600" viewBox="0 0 600 600"><image xlink:href="15C55D9F48ABB2997E46C76C56D934C7.png" width="600.00" height="600.00"></image></pattern></defs><g transform="matrix(1.00, 0.00, -0.00, -1.00, 0.0, 768.0)"><path d="M 0.0 768.0 L 1024.0 768.0 L 1024.0 0.0 L 0.0 0.0 Z M 0.0 768.0 " fill="#FEFFFF"></path><image xlink:href="4B15A88A22BF5535EFE77BBA54F6BD00.png" width="1055.00" height="331.00" transform="matrix(1.00, 0.00, -0.00, -1.00, -15.5, 636.7)" opacity="0.50"></image><g><clipPath id="clip0x7ff025c86430"><path d="M -12.0 636.0 L 1037.0 636.0 L 1037.0 310.0 L -12.0 310.0 Z M -12.5 635.7 "></path></clipPath><g clip-path="url(#clip0x7ff025c86430)"><path d="M 0.0 310.0 L 1024.0 310.0 L 1024.0 636.0 L 0.0 636.0 Z M 0.0 310.0 " fill="url(#285FE2E6-ECAA-4C58-80E7-4776E7B69954)"></path></g></g><g><clipPath id="clip0x7ff0239de060"><path d="M -16.5 -14.9 L 1040.5 -14.9 L 1040.5 318.3 L -16.5 318.3 Z M -16.5 -14.9 "></path></clipPath><g clip-path="url(#clip0x7ff0239de060)"><image xlink:href="80FC2C4960890CD843ADD2E1E5E1713F.png" width="1055.00" height="331.00" transform="matrix(1.00, 0.00, -0.00, -1.00, -15.5, 317.3)" opacity="0.50"></image></g></g><g><clipPath id="clip0x7ff041c7b580"><path d="M -12.0 316.0 L 1037.0 316.0 L 1037.0 -9.0 L -12.0 -9.0 Z M -12.5 316.3 "></path></clipPath><g clip-path="url(#clip0x7ff041c7b580)"><g><clipPath id="clip0x7ff041c7bcd0"><path d="M -16.5 -14.9 L 1040.5 -14.9 L 1040.5 318.3 L -16.5 318.3 Z M -16.5 -14.9 "></path></clipPath><g clip-path="url(#clip0x7ff041c7bcd0)"><path d="M 0.0 0.0 L 1024.0 0.0 L 1024.0 316.0 L 0.0 316.0 Z M 0.0 0.0 " fill="url(#5DC9515D-D08E-4719-8AC1-CD1CAFD54B87)"></path></g></g></g></g><g><clipPath id="clip0x7ff0239de460"><path d="M 2.0 320.5 L 150.6 320.5 L 150.6 421.0 L 2.0 421.0 Z M 2.0 320.5 "></path></clipPath><g clip-path="url(#clip0x7ff0239de460)"><text xml:space="preserve" font-family="Georgia,Georgia" font-size="36.0" fill="#DCDDE0" transform="matrix(1.00, 0.00, -0.00, -1.00, 12.2, 357.9)">A</text><text xml:space="preserve" font-family="Georgia,Georgia" font-size="36.0" fill="#DCDDE0" transform="matrix(1.00, 0.00, -0.00, -1.00, 36.3, 357.9)">s</text><text xml:space="preserve" font-family="Georgia,Georgia" font-size="36.0" fill="#DCDDE0" transform="matrix(1.00, 0.00, -0.00, -1.00, 51.9, 357.9)">f</text><text xml:space="preserve" font-family="Georgia,Georgia" font-size="36.0" fill="#DCDDE0" transform="matrix(1.00, 0.00, -0.00, -1.00, 63.6, 357.9)">a</text><text xml:space="preserve" font-family="Georgia,Georgia" font-size="36.0" fill="#DCDDE0" transform="matrix(1.00, 0.00, -0.00, -1.00, 81.7, 357.9)">l</text><text xml:space="preserve" font-family="Georgia,Georgia" font-size="36.0" fill="#DCDDE0" transform="matrix(1.00, 0.00, -0.00, -1.00, 92.0, 357.9)">t</text><text xml:space="preserve" font-family="Georgia,Georgia" font-size="36.0" fill="#DCDDE0" transform="matrix(1.00, 0.00, -0.00, -1.00, 104.4, 357.9)">t</text><text xml:space="preserve" font-family="Georgia,Georgia" font-size="36.0" fill="#DCDDE0" transform="matrix(1.00, 0.00, -0.00, -1.00, 116.9, 357.9)">i</text></g></g><g><clipPath id="clip0x7ff0239f88f0"><path d="M 7.3 215.5 L 145.3 215.5 L 145.3 316.0 L 7.3 316.0 Z M 7.3 215.5 "></path></clipPath><g clip-path="url(#clip0x7ff0239f88f0)"><text xml:space="preserve" font-family="Georgia,Georgia" font-size="36.0" fill="#000000" transform="matrix(1.00, 0.00, -0.00, -1.00, 17.5, 252.9)">H</text><text xml:space="preserve" font-family="Georgia,Georgia" font-size="36.0" fill="#000000" transform="matrix(1.00, 0.00, -0.00, -1.00, 46.9, 252.9)">i</text><text xml:space="preserve" font-family="Georgia,Georgia" font-size="36.0" fill="#000000" transform="matrix(1.00, 0.00, -0.00, -1.00, 57.4, 252.9)">e</text><text xml:space="preserve" font-family="Georgia,Georgia" font-size="36.0" fill="#000000" transform="matrix(1.00, 0.00, -0.00, -1.00, 74.8, 252.9)">k</text><text xml:space="preserve" font-family="Georgia,Georgia" font-size="36.0" fill="#000000" transform="matrix(1.00, 0.00, -0.00, -1.00, 94.1, 252.9)">k</text><text xml:space="preserve" font-family="Georgia,Georgia" font-size="36.0" fill="#000000" transform="matrix(1.00, 0.00, -0.00, -1.00, 113.4, 252.9)">a</text></g></g><text xml:space="preserve" font-family="Georgia,Georgia" font-size="65.0" fill="#000000" transform="matrix(1.00, 0.00, -0.00, -1.00, 266.5, 672.0)">H</text><text xml:space="preserve" font-family="Georgia,Georgia" font-size="65.0" fill="#000000" transform="matrix(1.00, 0.00, -0.00, -1.00, 319.5, 672.0)">a</text><text xml:space="preserve" font-family="Georgia,Georgia" font-size="65.0" fill="#000000" transform="matrix(1.00, 0.00, -0.00, -1.00, 352.2, 672.0)">r</text><text xml:space="preserve" font-family="Georgia,Georgia" font-size="65.0" fill="#000000" transform="matrix(1.00, 0.00, -0.00, -1.00, 378.8, 672.0)">v</text><text xml:space="preserve" font-family="Georgia,Georgia" font-size="65.0" fill="#000000" transform="matrix(1.00, 0.00, -0.00, -1.00, 411.1, 672.0)">a</text><text xml:space="preserve" font-family="Georgia,Georgia" font-size="65.0" fill="#000000" transform="matrix(1.00, 0.00, -0.00, -1.00, 443.8, 672.0)">s</text><text xml:space="preserve" font-family="Georgia,Georgia" font-size="65.0" fill="#000000" transform="matrix(1.00, 0.00, -0.00, -1.00, 471.9, 672.0)">t</text><text xml:space="preserve" font-family="Georgia,Georgia" font-size="65.0" fill="#000000" transform="matrix(1.00, 0.00, -0.00, -1.00, 494.4, 672.0)">a</text><text xml:space="preserve" font-family="Georgia,Georgia" font-size="65.0" fill="#000000" transform="matrix(1.00, 0.00, -0.00, -1.00, 527.1, 672.0)"> </text><text xml:space="preserve" font-family="Georgia,Georgia" font-size="65.0" fill="#000000" transform="matrix(1.00, 0.00, -0.00, -1.00, 542.8, 672.0)">t</text><text xml:space="preserve" font-family="Georgia,Georgia" font-size="65.0" fill="#000000" transform="matrix(1.00, 0.00, -0.00, -1.00, 565.3, 672.0)">i</text><text xml:space="preserve" font-family="Georgia,Georgia" font-size="65.0" fill="#000000" transform="matrix(1.00, 0.00, -0.00, -1.00, 584.3, 672.0)">h</text><text xml:space="preserve" font-family="Georgia,Georgia" font-size="65.0" fill="#000000" transform="matrix(1.00, 0.00, -0.00, -1.00, 622.1, 672.0)">e</text><text xml:space="preserve" font-family="Georgia,Georgia" font-size="65.0" fill="#000000" transform="matrix(1.00, 0.00, -0.00, -1.00, 653.6, 672.0)">ä</text><text xml:space="preserve" font-family="Georgia,Georgia" font-size="65.0" fill="#000000" transform="matrix(1.00, 0.00, -0.00, -1.00, 686.3, 672.0)">ä</text><text xml:space="preserve" font-family="Georgia,Georgia" font-size="65.0" fill="#000000" transform="matrix(1.00, 0.00, -0.00, -1.00, 719.1, 672.0)">n</text></g></svg>