<?xml version="1.0" encoding="UTF-8" standalone="no"?><svg xmlns="http://www.w3.org/2000/svg" xmlns:xlink="http://www.w3.org/1999/xlink" clip-rule="evenodd" stroke-miterlimit="10" viewBox="0 0 34 76"><desc>SVG generated by Keynote</desc><defs></defs><g transform="matrix(1.00, 0.00, -0.00, -1.00, 0.0, 76.0)"><g><clipPath id="clip0x6000018b9740"><path d="M 5.5 26.9 L 28.6 26.9 L 28.6 50.0 L 5.5 50.0 Z M 5.5 26.9 "></path></clipPath><g clip-path="url(#clip0x6000018b9740)"><path d="M 24.5 45.9 C 28.7 41.8 28.7 35.1 24.5 31.0 C 20.4 26.8 13.7 26.8 9.6 31.0 C 5.4 35.1 5.4 41.8 9.6 45.9 C 13.7 50.1 20.4 50.1 24.5 45.9 Z M 24.5 45.9 " fill="#C82505"></path></g></g><g><clipPath id="clip0x6000018b9920"><path d="M 0.4 54.4 L 33.7 54.4 L 33.7 65.9 L 0.4 65.9 Z M 0.4 54.4 "></path></clipPath><g clip-path="url(#clip0x6000018b9920)"><path d="M 0.0 8.8 C 8.8 -2.4 19.0 -2.9 30.6 7.2 " fill="none" stroke="#000000" stroke-width="1.00" transform="matrix(1.00, 0.00, 0.00, -1.00, 1.8, 64.4)"></path></g></g><g><clipPath id="clip0x6000018b9b60"><path d="M 0.4 64.4 L 33.7 64.4 L 33.7 75.9 L 0.4 75.9 Z M 0.4 64.4 "></path></clipPath><g clip-path="url(#clip0x6000018b9b60)"><path d="M 0.0 8.8 C 8.8 -2.4 19.0 -2.9 30.6 7.2 " fill="none" stroke="#000000" stroke-width="1.00" transform="matrix(1.00, 0.00, 0.00, -1.00, 1.8, 74.4)"></path></g></g><g><clipPath id="clip0x6000018b9da0"><path d="M 33.7 10.2 L 0.4 10.2 L 0.4 21.8 L 33.7 21.8 Z M 33.7 10.2 "></path></clipPath><g clip-path="url(#clip0x6000018b9da0)"><path d="M 0.0 8.8 C 8.8 -2.4 19.0 -2.9 30.6 7.2 " fill="none" stroke="#000000" stroke-width="1.00" transform="matrix(-1.00, 0.00, 0.00, 1.00, 32.3, 11.7)"></path></g></g><g><clipPath id="clip0x6000018b9fe0"><path d="M 33.7 0.2 L 0.4 0.2 L 0.4 11.8 L 33.7 11.8 Z M 33.7 0.2 "></path></clipPath><g clip-path="url(#clip0x6000018b9fe0)"><path d="M 0.0 8.8 C 8.8 -2.4 19.0 -2.9 30.6 7.2 " fill="none" stroke="#000000" stroke-width="1.00" transform="matrix(-1.00, 0.00, 0.00, 1.00, 32.3, 1.7)"></path></g></g></g></svg>