<?xml version="1.0" encoding="UTF-8" standalone="no"?><svg xmlns="http://www.w3.org/2000/svg" xmlns:xlink="http://www.w3.org/1999/xlink" clip-rule="evenodd" stroke-miterlimit="10" viewBox="0 0 200 97"><desc>SVG generated by Keynote</desc><defs></defs><g transform="matrix(1.00, 0.00, -0.00, -1.00, 0.0, 97.0)"><g><clipPath id="clip0x7fda2fc14cc0"><path d="M 42.8 40.0 L 204.7 40.0 L 204.7 101.5 L 42.8 101.5 Z M 42.8 40.0 "></path></clipPath><g clip-path="url(#clip0x7fda2fc14cc0)"><text xml:space="preserve" font-family="Georgia,Georgia" font-size="36.0" fill="#000000" transform="matrix(1.00, 0.00, -0.00, -1.00, 53.0, 58.1)">2</text><text xml:space="preserve" font-family="Georgia,Georgia" font-size="36.0" fill="#000000" transform="matrix(1.00, 0.00, -0.00, -1.00, 73.1, 58.1)">3</text><text xml:space="preserve" font-family="Georgia,Georgia" font-size="36.0" fill="#000000" transform="matrix(1.00, 0.00, -0.00, -1.00, 92.9, 58.1)"> </text><text xml:space="preserve" font-family="Georgia,Georgia" font-size="36.0" fill="#000000" transform="matrix(1.00, 0.00, -0.00, -1.00, 101.6, 58.1)">4</text><text xml:space="preserve" font-family="Georgia,Georgia" font-size="36.0" fill="#000000" transform="matrix(1.00, 0.00, -0.00, -1.00, 122.0, 58.1)">0</text><text xml:space="preserve" font-family="Georgia,Georgia" font-size="36.0" fill="#000000" transform="matrix(1.00, 0.00, -0.00, -1.00, 144.1, 58.1)">0</text><text xml:space="preserve" font-family="Georgia,Georgia" font-size="36.0" fill="#000000" transform="matrix(1.00, 0.00, -0.00, -1.00, 166.1, 58.1)"> </text><text xml:space="preserve" font-family="Georgia,Georgia" font-size="36.0" fill="#000000" transform="matrix(1.00, 0.00, -0.00, -1.00, 174.8, 58.1)">J</text><path d="M 4.0 40.3 L 144.5 40.3 " fill="none" stroke="#000000" stroke-width="1.78" transform="matrix(1.00, 0.00, 0.00, -1.00, 49.0, 95.2)"></path></g></g><g><clipPath id="clip0x7fda2fc19d00"><path d="M 43.1 -5.0 L 205.0 -5.0 L 205.0 56.5 L 43.1 56.5 Z M 43.1 -5.0 "></path></clipPath><g clip-path="url(#clip0x7fda2fc19d00)"><text xml:space="preserve" font-family="Georgia,Georgia" font-size="36.0" fill="#000000" transform="matrix(1.00, 0.00, -0.00, -1.00, 53.3, 13.1)">7</text><text xml:space="preserve" font-family="Georgia,Georgia" font-size="36.0" fill="#000000" transform="matrix(1.00, 0.00, -0.00, -1.00, 71.4, 13.1)">2</text><text xml:space="preserve" font-family="Georgia,Georgia" font-size="36.0" fill="#000000" transform="matrix(1.00, 0.00, -0.00, -1.00, 91.5, 13.1)"> </text><text xml:space="preserve" font-family="Georgia,Georgia" font-size="36.0" fill="#000000" transform="matrix(1.00, 0.00, -0.00, -1.00, 100.2, 13.1)">0</text><text xml:space="preserve" font-family="Georgia,Georgia" font-size="36.0" fill="#000000" transform="matrix(1.00, 0.00, -0.00, -1.00, 122.3, 13.1)">0</text><text xml:space="preserve" font-family="Georgia,Georgia" font-size="36.0" fill="#000000" transform="matrix(1.00, 0.00, -0.00, -1.00, 144.4, 13.1)">0</text><text xml:space="preserve" font-family="Georgia,Georgia" font-size="36.0" fill="#000000" transform="matrix(1.00, 0.00, -0.00, -1.00, 166.4, 13.1)"> </text><text xml:space="preserve" font-family="Georgia,Georgia" font-size="36.0" fill="#000000" transform="matrix(1.00, 0.00, -0.00, -1.00, 175.1, 13.1)">J</text></g></g><g><clipPath id="clip0x7fda300a13d0"><path d="M -7.7 18.2 L 46.9 18.2 L 46.9 94.7 L -7.7 94.7 Z M -7.7 18.2 "></path></clipPath><g clip-path="url(#clip0x7fda300a13d0)"><text xml:space="preserve" font-family="LMRoman10-Regular,Latin Modern Roman" font-size="36.0" fill="#000000" transform="matrix(1.00, 0.00, -0.00, -1.00, 5.1, 41.4)">=</text></g></g></g></svg>