<?xml version="1.0" encoding="UTF-8" standalone="no"?><svg xmlns="http://www.w3.org/2000/svg" xmlns:xlink="http://www.w3.org/1999/xlink" clip-rule="evenodd" stroke-miterlimit="10" viewBox="0 0 676 219"><desc>SVG generated by Keynote</desc><defs></defs><g transform="matrix(1.00, 0.00, -0.00, -1.00, 0.0, 219.0)"><g><clipPath id="clip0x7fda30083b10"><path d="M 214.8 28.0 L 461.2 28.0 L 461.2 201.9 L 214.8 201.9 Z M 214.8 28.0 "></path></clipPath><g clip-path="url(#clip0x7fda30083b10)"><path d="M 396.0 78.0 L 396.0 31.9 L 459.0 114.9 L 396.0 197.9 L 396.0 152.0 L 217.0 152.0 L 217.0 78.0 Z M 396.1 77.7 " fill="#DCDDE0"></path><path d="M 179.2 119.9 L 179.2 166.0 L 242.2 83.0 L 179.2 0.0 L 179.2 45.9 L 0.2 45.9 L 0.2 119.9 Z M 179.3 120.2 " fill="none" stroke="#85878C" stroke-width="2.00" transform="matrix(1.00, 0.00, 0.00, -1.00, 216.8, 197.9)"></path></g></g><g><clipPath id="clip0x7fda30085cb0"><path d="M 214.1 31.9 L 459.0 31.9 L 459.0 197.9 L 214.1 197.9 Z M 214.1 31.9 "></path></clipPath><g clip-path="url(#clip0x7fda30085cb0)"><text xml:space="preserve" font-family="Georgia,Georgia" font-size="27.0" fill="#000000" transform="matrix(1.00, 0.00, -0.00, -1.00, 281.3, 105.3)">L</text><text xml:space="preserve" font-family="Georgia,Georgia" font-size="27.0" fill="#000000" transform="matrix(1.00, 0.00, -0.00, -1.00, 297.6, 105.3)">a</text><text xml:space="preserve" font-family="Georgia,Georgia" font-size="27.0" fill="#000000" transform="matrix(1.00, 0.00, -0.00, -1.00, 311.2, 105.3)">m</text><text xml:space="preserve" font-family="Georgia,Georgia" font-size="27.0" fill="#000000" transform="matrix(1.00, 0.00, -0.00, -1.00, 335.0, 105.3)">p</text><text xml:space="preserve" font-family="Georgia,Georgia" font-size="27.0" fill="#000000" transform="matrix(1.00, 0.00, -0.00, -1.00, 350.4, 105.3)">p</text><text xml:space="preserve" font-family="Georgia,Georgia" font-size="27.0" fill="#000000" transform="matrix(1.00, 0.00, -0.00, -1.00, 365.8, 105.3)">u</text></g></g><g><clipPath id="clip0x7fda3008d0d0"><path d="M 0.6 0.6 L 218.5 0.6 L 218.5 218.5 L 0.6 218.5 Z M 0.6 0.6 "></path></clipPath><g clip-path="url(#clip0x7fda3008d0d0)"><path d="M 0.4 0.5 L 213.4 0.5 L 213.4 213.5 L 0.4 213.5 Z M 0.0 0.0 " fill="none" stroke="#85878C" stroke-width="2.00" transform="matrix(1.00, 0.00, 0.00, -1.00, 2.6, 216.5)"></path></g></g><g><clipPath id="clip0x7fda3008e130"><path d="M -0.1 3.6 L 227.5 3.6 L 227.5 215.5 L -0.1 215.5 Z M -0.1 3.6 "></path></clipPath><g clip-path="url(#clip0x7fda3008e130)"><text xml:space="preserve" font-family="Georgia,Georgia" font-size="27.0" fill="#000000" transform="matrix(1.00, 0.00, -0.00, -1.00, 12.1, 113.4)">K</text><text xml:space="preserve" font-family="Georgia,Georgia" font-size="27.0" fill="#000000" transform="matrix(1.00, 0.00, -0.00, -1.00, 30.9, 113.4)">ä</text><text xml:space="preserve" font-family="Georgia,Georgia" font-size="27.0" fill="#000000" transform="matrix(1.00, 0.00, -0.00, -1.00, 44.5, 113.4)">y</text><text xml:space="preserve" font-family="Georgia,Georgia" font-size="27.0" fill="#000000" transform="matrix(1.00, 0.00, -0.00, -1.00, 57.8, 113.4)">t</text><text xml:space="preserve" font-family="Georgia,Georgia" font-size="27.0" fill="#000000" transform="matrix(1.00, 0.00, -0.00, -1.00, 67.1, 113.4)">e</text><text xml:space="preserve" font-family="Georgia,Georgia" font-size="27.0" fill="#000000" transform="matrix(1.00, 0.00, -0.00, -1.00, 80.2, 113.4)">t</text><text xml:space="preserve" font-family="Georgia,Georgia" font-size="27.0" fill="#000000" transform="matrix(1.00, 0.00, -0.00, -1.00, 89.5, 113.4)">t</text><text xml:space="preserve" font-family="Georgia,Georgia" font-size="27.0" fill="#000000" transform="matrix(1.00, 0.00, -0.00, -1.00, 98.8, 113.4)">y</text><text xml:space="preserve" font-family="Georgia,Georgia" font-size="27.0" fill="#000000" transform="matrix(1.00, 0.00, -0.00, -1.00, 112.1, 113.4)"> </text><text xml:space="preserve" font-family="Georgia,Georgia" font-size="27.0" fill="#000000" transform="matrix(1.00, 0.00, -0.00, -1.00, 118.6, 113.4)">e</text><text xml:space="preserve" font-family="Georgia,Georgia" font-size="27.0" fill="#000000" transform="matrix(1.00, 0.00, -0.00, -1.00, 131.7, 113.4)">n</text><text xml:space="preserve" font-family="Georgia,Georgia" font-size="27.0" fill="#000000" transform="matrix(1.00, 0.00, -0.00, -1.00, 147.6, 113.4)">e</text><text xml:space="preserve" font-family="Georgia,Georgia" font-size="27.0" fill="#000000" transform="matrix(1.00, 0.00, -0.00, -1.00, 160.7, 113.4)">r</text><text xml:space="preserve" font-family="Georgia,Georgia" font-size="27.0" fill="#000000" transform="matrix(1.00, 0.00, -0.00, -1.00, 171.7, 113.4)">g</text><text xml:space="preserve" font-family="Georgia,Georgia" font-size="27.0" fill="#000000" transform="matrix(1.00, 0.00, -0.00, -1.00, 185.5, 113.4)">i</text><text xml:space="preserve" font-family="Georgia,Georgia" font-size="27.0" fill="#000000" transform="matrix(1.00, 0.00, -0.00, -1.00, 193.4, 113.4)">a</text><text xml:space="preserve" font-family="Georgia,Georgia" font-size="27.0" fill="#000000" transform="matrix(1.00, 0.00, -0.00, -1.00, 207.0, 113.4)"> </text><text xml:space="preserve" font-family="LucidaGrande,Lucida Grande" font-size="27.0" fill="#000000" transform="matrix(1.00, 0.00, -0.00, -1.00, 213.5, 113.4)"> </text><text xml:space="preserve" font-family="Georgia,Georgia" font-size="23.0" fill="#000000" transform="matrix(1.00, 0.00, -0.00, -1.00, 43.8, 86.5)">E</text><text xml:space="preserve" font-family="Georgia,Georgia" font-size="15.3" fill="#000000" transform="matrix(1.00, 0.00, -0.00, -1.00, 58.8, 84.8)">k</text><text xml:space="preserve" font-family="Georgia,Georgia" font-size="15.3" fill="#000000" transform="matrix(1.00, 0.00, -0.00, -1.00, 67.0, 84.8)"> </text><text xml:space="preserve" font-family="Georgia,Georgia" font-size="23.0" fill="#000000" transform="matrix(1.00, 0.00, -0.00, -1.00, 70.7, 86.5)">=</text><text xml:space="preserve" font-family="Georgia,Georgia" font-size="23.0" fill="#000000" transform="matrix(1.00, 0.00, -0.00, -1.00, 85.5, 86.5)">7</text><text xml:space="preserve" font-family="Georgia,Georgia" font-size="23.0" fill="#000000" transform="matrix(1.00, 0.00, -0.00, -1.00, 97.1, 86.5)">2</text><text xml:space="preserve" font-family="Georgia,Georgia" font-size="23.0" fill="#000000" transform="matrix(1.00, 0.00, -0.00, -1.00, 109.9, 86.5)"> </text><text xml:space="preserve" font-family="Georgia,Georgia" font-size="23.0" fill="#000000" transform="matrix(1.00, 0.00, -0.00, -1.00, 115.5, 86.5)">0</text><text xml:space="preserve" font-family="Georgia,Georgia" font-size="23.0" fill="#000000" transform="matrix(1.00, 0.00, -0.00, -1.00, 129.6, 86.5)">0</text><text xml:space="preserve" font-family="Georgia,Georgia" font-size="23.0" fill="#000000" transform="matrix(1.00, 0.00, -0.00, -1.00, 143.7, 86.5)">0</text><text xml:space="preserve" font-family="Georgia,Georgia" font-size="23.0" fill="#000000" transform="matrix(1.00, 0.00, -0.00, -1.00, 157.8, 86.5)"> </text><text xml:space="preserve" font-family="Georgia,Georgia" font-size="23.0" fill="#000000" transform="matrix(1.00, 0.00, -0.00, -1.00, 163.4, 86.5)">J</text></g></g><g><clipPath id="clip0x7fda301491f0"><path d="M 457.5 0.6 L 675.4 0.6 L 675.4 218.5 L 457.5 218.5 Z M 457.5 0.6 "></path></clipPath><g clip-path="url(#clip0x7fda301491f0)"><path d="M 0.5 0.5 L 213.5 0.5 L 213.5 213.5 L 0.5 213.5 Z M 0.0 0.0 " fill="none" stroke="#85878C" stroke-width="2.00" transform="matrix(1.00, 0.00, 0.00, -1.00, 459.5, 216.5)"></path></g></g><g><clipPath id="clip0x7fda30148290"><path d="M 457.5 105.8 L 675.4 105.8 L 675.4 218.5 L 457.5 218.5 Z M 457.5 105.8 "></path></clipPath><g clip-path="url(#clip0x7fda30148290)"><path d="M 460.0 216.0 L 673.0 216.0 L 673.0 108.0 L 460.0 108.0 Z M 459.5 216.5 " fill="#EAD4D0"></path><path d="M 0.5 0.5 L 213.5 0.5 L 213.5 108.5 L 0.5 108.5 Z M 0.0 0.0 " fill="none" stroke="#85878C" stroke-width="2.00" transform="matrix(1.00, 0.00, 0.00, -1.00, 459.5, 216.5)"></path></g></g><g><clipPath id="clip0x7fda30152b90"><path d="M 457.5 0.6 L 675.4 0.6 L 675.4 110.5 L 457.5 110.5 Z M 457.5 0.6 "></path></clipPath><g clip-path="url(#clip0x7fda30152b90)"><path d="M 460.0 108.0 L 673.0 108.0 L 673.0 3.0 L 460.0 3.0 Z M 459.5 108.5 " fill="#C1E7A5"></path><path d="M 0.5 0.5 L 213.5 0.5 L 213.5 105.5 L 0.5 105.5 Z M 0.0 0.0 " fill="none" stroke="#85878C" stroke-width="2.00" transform="matrix(1.00, 0.00, 0.00, -1.00, 459.5, 108.5)"></path></g></g><g><clipPath id="clip0x7fda301541d0"><path d="M 458.6 3.6 L 674.4 3.6 L 674.4 107.5 L 458.6 107.5 Z M 458.6 3.6 "></path></clipPath><g clip-path="url(#clip0x7fda301541d0)"><text xml:space="preserve" font-family="Georgia,Georgia" font-size="21.0" fill="#000000" transform="matrix(1.00, 0.00, -0.00, -1.00, 495.3, 60.1)">H</text><text xml:space="preserve" font-family="Georgia,Georgia" font-size="21.0" fill="#000000" transform="matrix(1.00, 0.00, -0.00, -1.00, 512.4, 60.1)">y</text><text xml:space="preserve" font-family="Georgia,Georgia" font-size="21.0" fill="#000000" transform="matrix(1.00, 0.00, -0.00, -1.00, 522.8, 60.1)">ö</text><text xml:space="preserve" font-family="Georgia,Georgia" font-size="21.0" fill="#000000" transform="matrix(1.00, 0.00, -0.00, -1.00, 534.1, 60.1)">d</text><text xml:space="preserve" font-family="Georgia,Georgia" font-size="21.0" fill="#000000" transform="matrix(1.00, 0.00, -0.00, -1.00, 546.2, 60.1)">y</text><text xml:space="preserve" font-family="Georgia,Georgia" font-size="21.0" fill="#000000" transform="matrix(1.00, 0.00, -0.00, -1.00, 556.5, 60.1)">k</text><text xml:space="preserve" font-family="Georgia,Georgia" font-size="21.0" fill="#000000" transform="matrix(1.00, 0.00, -0.00, -1.00, 567.7, 60.1)">s</text><text xml:space="preserve" font-family="Georgia,Georgia" font-size="21.0" fill="#000000" transform="matrix(1.00, 0.00, -0.00, -1.00, 576.8, 60.1)">i</text><text xml:space="preserve" font-family="Georgia,Georgia" font-size="21.0" fill="#000000" transform="matrix(1.00, 0.00, -0.00, -1.00, 583.0, 60.1)"> </text><text xml:space="preserve" font-family="Georgia,Georgia" font-size="21.0" fill="#000000" transform="matrix(1.00, 0.00, -0.00, -1.00, 588.0, 60.1)">s</text><text xml:space="preserve" font-family="Georgia,Georgia" font-size="21.0" fill="#000000" transform="matrix(1.00, 0.00, -0.00, -1.00, 597.1, 60.1)">a</text><text xml:space="preserve" font-family="Georgia,Georgia" font-size="21.0" fill="#000000" transform="matrix(1.00, 0.00, -0.00, -1.00, 607.7, 60.1)">a</text><text xml:space="preserve" font-family="Georgia,Georgia" font-size="21.0" fill="#000000" transform="matrix(1.00, 0.00, -0.00, -1.00, 618.3, 60.1)">t</text><text xml:space="preserve" font-family="Georgia,Georgia" font-size="21.0" fill="#000000" transform="matrix(1.00, 0.00, -0.00, -1.00, 625.5, 60.1)">u</text><text xml:space="preserve" font-family="Georgia,Georgia" font-size="21.0" fill="#000000" transform="matrix(1.00, 0.00, -0.00, -1.00, 637.6, 60.1)"> </text><text xml:space="preserve" font-family="Georgia,Georgia" font-size="21.0" fill="#000000" transform="matrix(1.00, 0.00, -0.00, -1.00, 466.7, 36.1)">e</text><text xml:space="preserve" font-family="Georgia,Georgia" font-size="21.0" fill="#000000" transform="matrix(1.00, 0.00, -0.00, -1.00, 476.8, 36.1)">n</text><text xml:space="preserve" font-family="Georgia,Georgia" font-size="21.0" fill="#000000" transform="matrix(1.00, 0.00, -0.00, -1.00, 489.2, 36.1)">e</text><text xml:space="preserve" font-family="Georgia,Georgia" font-size="21.0" fill="#000000" transform="matrix(1.00, 0.00, -0.00, -1.00, 499.4, 36.1)">r</text><text xml:space="preserve" font-family="Georgia,Georgia" font-size="21.0" fill="#000000" transform="matrix(1.00, 0.00, -0.00, -1.00, 508.0, 36.1)">g</text><text xml:space="preserve" font-family="Georgia,Georgia" font-size="21.0" fill="#000000" transform="matrix(1.00, 0.00, -0.00, -1.00, 518.7, 36.1)">i</text><text xml:space="preserve" font-family="Georgia,Georgia" font-size="21.0" fill="#000000" transform="matrix(1.00, 0.00, -0.00, -1.00, 524.8, 36.1)">a</text><text xml:space="preserve" font-family="Georgia,Georgia" font-size="21.0" fill="#000000" transform="matrix(1.00, 0.00, -0.00, -1.00, 535.4, 36.1)"> </text><text xml:space="preserve" font-family="Georgia,Georgia" font-size="21.0" fill="#000000" transform="matrix(1.00, 0.00, -0.00, -1.00, 540.5, 36.1)">E</text><text xml:space="preserve" font-family="Georgia,Georgia" font-size="14.0" fill="#000000" transform="matrix(1.00, 0.00, -0.00, -1.00, 554.2, 34.6)">h</text><text xml:space="preserve" font-family="Georgia,Georgia" font-size="14.0" fill="#000000" transform="matrix(1.00, 0.00, -0.00, -1.00, 562.4, 34.6)"> </text><text xml:space="preserve" font-family="Georgia,Georgia" font-size="21.0" fill="#000000" transform="matrix(1.00, 0.00, -0.00, -1.00, 565.7, 36.1)">=</text><text xml:space="preserve" font-family="Georgia,Georgia" font-size="21.0" fill="#000000" transform="matrix(1.00, 0.00, -0.00, -1.00, 579.2, 36.1)"> </text><text xml:space="preserve" font-family="Georgia,Georgia" font-size="21.0" fill="#000000" transform="matrix(1.00, 0.00, -0.00, -1.00, 584.3, 36.1)">2</text><text xml:space="preserve" font-family="Georgia,Georgia" font-size="21.0" fill="#000000" transform="matrix(1.00, 0.00, -0.00, -1.00, 596.0, 36.1)">3</text><text xml:space="preserve" font-family="Georgia,Georgia" font-size="21.0" fill="#000000" transform="matrix(1.00, 0.00, -0.00, -1.00, 607.6, 36.1)"> </text><text xml:space="preserve" font-family="Georgia,Georgia" font-size="21.0" fill="#000000" transform="matrix(1.00, 0.00, -0.00, -1.00, 612.7, 36.1)">4</text><text xml:space="preserve" font-family="Georgia,Georgia" font-size="21.0" fill="#000000" transform="matrix(1.00, 0.00, -0.00, -1.00, 624.5, 36.1)">0</text><text xml:space="preserve" font-family="Georgia,Georgia" font-size="21.0" fill="#000000" transform="matrix(1.00, 0.00, -0.00, -1.00, 637.4, 36.1)">0</text><text xml:space="preserve" font-family="Georgia,Georgia" font-size="21.0" fill="#000000" transform="matrix(1.00, 0.00, -0.00, -1.00, 650.3, 36.1)"> </text><text xml:space="preserve" font-family="Georgia,Georgia" font-size="21.0" fill="#000000" transform="matrix(1.00, 0.00, -0.00, -1.00, 655.4, 36.1)">J</text></g></g></g></svg>