<?xml version="1.0" encoding="UTF-8" standalone="no"?><svg xmlns="http://www.w3.org/2000/svg" xmlns:xlink="http://www.w3.org/1999/xlink" clip-rule="evenodd" stroke-miterlimit="10" viewBox="0 0 1024 768"><desc>SVG generated by Keynote</desc><defs></defs><g transform="matrix(1.00, 0.00, -0.00, -1.00, 0.0, 768.0)"><path d="M 0.0 768.0 L 1024.0 768.0 L 1024.0 0.0 L 0.0 0.0 Z M 0.0 768.0 " fill="#FEFFFF"></path><text xml:space="preserve" font-family="Georgia,Georgia" font-size="59.1" fill="#000000" transform="matrix(1.00, 0.00, -0.00, -1.00, 82.1, 651.0)">M</text><text xml:space="preserve" font-family="Georgia,Georgia" font-size="59.1" fill="#000000" transform="matrix(1.00, 0.00, -0.00, -1.00, 136.9, 651.0)">e</text><text xml:space="preserve" font-family="Georgia,Georgia" font-size="59.1" fill="#000000" transform="matrix(1.00, 0.00, -0.00, -1.00, 165.5, 651.0)">k</text><text xml:space="preserve" font-family="Georgia,Georgia" font-size="59.1" fill="#000000" transform="matrix(1.00, 0.00, -0.00, -1.00, 197.2, 651.0)">a</text><text xml:space="preserve" font-family="Georgia,Georgia" font-size="59.1" fill="#000000" transform="matrix(1.00, 0.00, -0.00, -1.00, 227.0, 651.0)">a</text><text xml:space="preserve" font-family="Georgia,Georgia" font-size="59.1" fill="#000000" transform="matrix(1.00, 0.00, -0.00, -1.00, 256.8, 651.0)">n</text><text xml:space="preserve" font-family="Georgia,Georgia" font-size="59.1" fill="#000000" transform="matrix(1.00, 0.00, -0.00, -1.00, 291.7, 651.0)">i</text><text xml:space="preserve" font-family="Georgia,Georgia" font-size="59.1" fill="#000000" transform="matrix(1.00, 0.00, -0.00, -1.00, 309.1, 651.0)">s</text><text xml:space="preserve" font-family="Georgia,Georgia" font-size="59.1" fill="#000000" transform="matrix(1.00, 0.00, -0.00, -1.00, 334.6, 651.0)">e</text><text xml:space="preserve" font-family="Georgia,Georgia" font-size="59.1" fill="#000000" transform="matrix(1.00, 0.00, -0.00, -1.00, 363.2, 651.0)">n</text><text xml:space="preserve" font-family="Georgia,Georgia" font-size="59.1" fill="#000000" transform="matrix(1.00, 0.00, -0.00, -1.00, 398.2, 651.0)"> </text><text xml:space="preserve" font-family="Georgia,Georgia" font-size="59.1" fill="#000000" transform="matrix(1.00, 0.00, -0.00, -1.00, 412.5, 651.0)">e</text><text xml:space="preserve" font-family="Georgia,Georgia" font-size="59.1" fill="#000000" transform="matrix(1.00, 0.00, -0.00, -1.00, 441.1, 651.0)">n</text><text xml:space="preserve" font-family="Georgia,Georgia" font-size="59.1" fill="#000000" transform="matrix(1.00, 0.00, -0.00, -1.00, 476.0, 651.0)">e</text><text xml:space="preserve" font-family="Georgia,Georgia" font-size="59.1" fill="#000000" transform="matrix(1.00, 0.00, -0.00, -1.00, 504.6, 651.0)">r</text><text xml:space="preserve" font-family="Georgia,Georgia" font-size="59.1" fill="#000000" transform="matrix(1.00, 0.00, -0.00, -1.00, 528.8, 651.0)">g</text><text xml:space="preserve" font-family="Georgia,Georgia" font-size="59.1" fill="#000000" transform="matrix(1.00, 0.00, -0.00, -1.00, 559.0, 651.0)">i</text><text xml:space="preserve" font-family="Georgia,Georgia" font-size="59.1" fill="#000000" transform="matrix(1.00, 0.00, -0.00, -1.00, 576.3, 651.0)">a</text><text xml:space="preserve" font-family="Georgia,Georgia" font-size="59.1" fill="#000000" transform="matrix(1.00, 0.00, -0.00, -1.00, 606.1, 651.0)">n</text><text xml:space="preserve" font-family="Georgia,Georgia" font-size="59.1" fill="#000000" transform="matrix(1.00, 0.00, -0.00, -1.00, 641.1, 651.0)"> </text><text xml:space="preserve" font-family="Georgia,Georgia" font-size="59.1" fill="#000000" transform="matrix(1.00, 0.00, -0.00, -1.00, 655.3, 651.0)">s</text><text xml:space="preserve" font-family="Georgia,Georgia" font-size="59.1" fill="#000000" transform="matrix(1.00, 0.00, -0.00, -1.00, 680.9, 651.0)">ä</text><text xml:space="preserve" font-family="Georgia,Georgia" font-size="59.1" fill="#000000" transform="matrix(1.00, 0.00, -0.00, -1.00, 710.7, 651.0)">i</text><text xml:space="preserve" font-family="Georgia,Georgia" font-size="59.1" fill="#000000" transform="matrix(1.00, 0.00, -0.00, -1.00, 728.0, 651.0)">l</text><text xml:space="preserve" font-family="Georgia,Georgia" font-size="59.1" fill="#000000" transform="matrix(1.00, 0.00, -0.00, -1.00, 745.0, 651.0)">y</text><text xml:space="preserve" font-family="Georgia,Georgia" font-size="59.1" fill="#000000" transform="matrix(1.00, 0.00, -0.00, -1.00, 774.1, 651.0)">m</text><text xml:space="preserve" font-family="Georgia,Georgia" font-size="59.1" fill="#000000" transform="matrix(1.00, 0.00, -0.00, -1.00, 826.2, 651.0)">i</text><text xml:space="preserve" font-family="Georgia,Georgia" font-size="59.1" fill="#000000" transform="matrix(1.00, 0.00, -0.00, -1.00, 843.5, 651.0)">n</text><text xml:space="preserve" font-family="Georgia,Georgia" font-size="59.1" fill="#000000" transform="matrix(1.00, 0.00, -0.00, -1.00, 878.4, 651.0)">e</text><text xml:space="preserve" font-family="Georgia,Georgia" font-size="59.1" fill="#000000" transform="matrix(1.00, 0.00, -0.00, -1.00, 907.1, 651.0)">n</text><text xml:space="preserve" font-family="Georgia,Georgia" font-size="27.0" fill="#000000" transform="matrix(1.00, 0.00, -0.00, -1.00, 79.0, 585.9)">•</text><text xml:space="preserve" font-family="Georgia,Georgia" font-size="36.0" fill="#000000" transform="matrix(1.00, 0.00, -0.00, -1.00, 114.0, 582.9)">K</text><text xml:space="preserve" font-family="Georgia,Georgia" font-size="36.0" fill="#000000" transform="matrix(1.00, 0.00, -0.00, -1.00, 139.0, 582.9)">u</text><text xml:space="preserve" font-family="Georgia,Georgia" font-size="36.0" fill="#000000" transform="matrix(1.00, 0.00, -0.00, -1.00, 159.7, 582.9)">i</text><text xml:space="preserve" font-family="Georgia,Georgia" font-size="36.0" fill="#000000" transform="matrix(1.00, 0.00, -0.00, -1.00, 170.3, 582.9)">n</text><text xml:space="preserve" font-family="Georgia,Georgia" font-size="36.0" fill="#000000" transform="matrix(1.00, 0.00, -0.00, -1.00, 191.5, 582.9)">k</text><text xml:space="preserve" font-family="Georgia,Georgia" font-size="36.0" fill="#000000" transform="matrix(1.00, 0.00, -0.00, -1.00, 210.8, 582.9)">a</text><text xml:space="preserve" font-family="Georgia,Georgia" font-size="36.0" fill="#000000" transform="matrix(1.00, 0.00, -0.00, -1.00, 228.9, 582.9)"> </text><text xml:space="preserve" font-family="Georgia,Georgia" font-size="36.0" fill="#000000" transform="matrix(1.00, 0.00, -0.00, -1.00, 237.6, 582.9)">k</text><text xml:space="preserve" font-family="Georgia,Georgia" font-size="36.0" fill="#000000" transform="matrix(1.00, 0.00, -0.00, -1.00, 256.9, 582.9)">o</text><text xml:space="preserve" font-family="Georgia,Georgia" font-size="36.0" fill="#000000" transform="matrix(1.00, 0.00, -0.00, -1.00, 276.3, 582.9)">r</text><text xml:space="preserve" font-family="Georgia,Georgia" font-size="36.0" fill="#000000" transform="matrix(1.00, 0.00, -0.00, -1.00, 291.0, 582.9)">k</text><text xml:space="preserve" font-family="Georgia,Georgia" font-size="36.0" fill="#000000" transform="matrix(1.00, 0.00, -0.00, -1.00, 310.3, 582.9)">e</text><text xml:space="preserve" font-family="Georgia,Georgia" font-size="36.0" fill="#000000" transform="matrix(1.00, 0.00, -0.00, -1.00, 327.7, 582.9)">a</text><text xml:space="preserve" font-family="Georgia,Georgia" font-size="36.0" fill="#000000" transform="matrix(1.00, 0.00, -0.00, -1.00, 345.9, 582.9)">l</text><text xml:space="preserve" font-family="Georgia,Georgia" font-size="36.0" fill="#000000" transform="matrix(1.00, 0.00, -0.00, -1.00, 356.2, 582.9)">t</text><text xml:space="preserve" font-family="Georgia,Georgia" font-size="36.0" fill="#000000" transform="matrix(1.00, 0.00, -0.00, -1.00, 368.6, 582.9)">a</text><text xml:space="preserve" font-family="Georgia,Georgia" font-size="36.0" fill="#000000" transform="matrix(1.00, 0.00, -0.00, -1.00, 386.7, 582.9)"> </text><text xml:space="preserve" font-family="Georgia,Georgia" font-size="36.0" fill="#000000" transform="matrix(1.00, 0.00, -0.00, -1.00, 395.4, 582.9)">p</text><text xml:space="preserve" font-family="Georgia,Georgia" font-size="36.0" fill="#000000" transform="matrix(1.00, 0.00, -0.00, -1.00, 416.0, 582.9)">i</text><text xml:space="preserve" font-family="Georgia,Georgia" font-size="36.0" fill="#000000" transform="matrix(1.00, 0.00, -0.00, -1.00, 426.6, 582.9)">t</text><text xml:space="preserve" font-family="Georgia,Georgia" font-size="36.0" fill="#000000" transform="matrix(1.00, 0.00, -0.00, -1.00, 439.0, 582.9)">ä</text><text xml:space="preserve" font-family="Georgia,Georgia" font-size="36.0" fill="#000000" transform="matrix(1.00, 0.00, -0.00, -1.00, 457.1, 582.9)">i</text><text xml:space="preserve" font-family="Georgia,Georgia" font-size="36.0" fill="#000000" transform="matrix(1.00, 0.00, -0.00, -1.00, 467.7, 582.9)">s</text><text xml:space="preserve" font-family="Georgia,Georgia" font-size="36.0" fill="#000000" transform="matrix(1.00, 0.00, -0.00, -1.00, 483.2, 582.9)">i</text><text xml:space="preserve" font-family="Georgia,Georgia" font-size="36.0" fill="#000000" transform="matrix(1.00, 0.00, -0.00, -1.00, 493.8, 582.9)"> </text><text xml:space="preserve" font-family="Georgia,Georgia" font-size="36.0" fill="#000000" transform="matrix(1.00, 0.00, -0.00, -1.00, 502.5, 582.9)">h</text><text xml:space="preserve" font-family="Georgia,Georgia" font-size="36.0" fill="#000000" transform="matrix(1.00, 0.00, -0.00, -1.00, 523.4, 582.9)">y</text><text xml:space="preserve" font-family="Georgia,Georgia" font-size="36.0" fill="#000000" transform="matrix(1.00, 0.00, -0.00, -1.00, 541.2, 582.9)">p</text><text xml:space="preserve" font-family="Georgia,Georgia" font-size="36.0" fill="#000000" transform="matrix(1.00, 0.00, -0.00, -1.00, 561.7, 582.9)">ä</text><text xml:space="preserve" font-family="Georgia,Georgia" font-size="36.0" fill="#000000" transform="matrix(1.00, 0.00, -0.00, -1.00, 579.9, 582.9)">t</text><text xml:space="preserve" font-family="Georgia,Georgia" font-size="36.0" fill="#000000" transform="matrix(1.00, 0.00, -0.00, -1.00, 592.3, 582.9)">ä</text><text xml:space="preserve" font-family="Georgia,Georgia" font-size="36.0" fill="#000000" transform="matrix(1.00, 0.00, -0.00, -1.00, 610.4, 582.9)">,</text><text xml:space="preserve" font-family="Georgia,Georgia" font-size="36.0" fill="#000000" transform="matrix(1.00, 0.00, -0.00, -1.00, 620.1, 582.9)"> </text><text xml:space="preserve" font-family="Georgia,Georgia" font-size="36.0" fill="#000000" transform="matrix(1.00, 0.00, -0.00, -1.00, 628.8, 582.9)">e</text><text xml:space="preserve" font-family="Georgia,Georgia" font-size="36.0" fill="#000000" transform="matrix(1.00, 0.00, -0.00, -1.00, 646.2, 582.9)">t</text><text xml:space="preserve" font-family="Georgia,Georgia" font-size="36.0" fill="#000000" transform="matrix(1.00, 0.00, -0.00, -1.00, 658.7, 582.9)">t</text><text xml:space="preserve" font-family="Georgia,Georgia" font-size="36.0" fill="#000000" transform="matrix(1.00, 0.00, -0.00, -1.00, 671.1, 582.9)">ä</text><text xml:space="preserve" font-family="Georgia,Georgia" font-size="36.0" fill="#000000" transform="matrix(1.00, 0.00, -0.00, -1.00, 689.2, 582.9)"> </text><text xml:space="preserve" font-family="Georgia,Georgia" font-size="36.0" fill="#000000" transform="matrix(1.00, 0.00, -0.00, -1.00, 697.9, 582.9)">p</text><text xml:space="preserve" font-family="Georgia,Georgia" font-size="36.0" fill="#000000" transform="matrix(1.00, 0.00, -0.00, -1.00, 718.5, 582.9)">u</text><text xml:space="preserve" font-family="Georgia,Georgia" font-size="36.0" fill="#000000" transform="matrix(1.00, 0.00, -0.00, -1.00, 739.2, 582.9)">t</text><text xml:space="preserve" font-family="Georgia,Georgia" font-size="36.0" fill="#000000" transform="matrix(1.00, 0.00, -0.00, -1.00, 751.7, 582.9)">o</text><text xml:space="preserve" font-family="Georgia,Georgia" font-size="36.0" fill="#000000" transform="matrix(1.00, 0.00, -0.00, -1.00, 771.1, 582.9)">a</text><text xml:space="preserve" font-family="Georgia,Georgia" font-size="36.0" fill="#000000" transform="matrix(1.00, 0.00, -0.00, -1.00, 789.2, 582.9)">a</text><text xml:space="preserve" font-family="Georgia,Georgia" font-size="36.0" fill="#000000" transform="matrix(1.00, 0.00, -0.00, -1.00, 807.3, 582.9)"> </text><text xml:space="preserve" font-family="Georgia,Georgia" font-size="36.0" fill="#000000" transform="matrix(1.00, 0.00, -0.00, -1.00, 816.0, 582.9)">m</text><text xml:space="preserve" font-family="Georgia,Georgia" font-size="36.0" fill="#000000" transform="matrix(1.00, 0.00, -0.00, -1.00, 847.7, 582.9)">a</text><text xml:space="preserve" font-family="Georgia,Georgia" font-size="36.0" fill="#000000" transform="matrix(1.00, 0.00, -0.00, -1.00, 865.9, 582.9)">a</text><text xml:space="preserve" font-family="Georgia,Georgia" font-size="36.0" fill="#000000" transform="matrix(1.00, 0.00, -0.00, -1.00, 884.0, 582.9)">h</text><text xml:space="preserve" font-family="Georgia,Georgia" font-size="36.0" fill="#000000" transform="matrix(1.00, 0.00, -0.00, -1.00, 905.0, 582.9)">a</text><text xml:space="preserve" font-family="Georgia,Georgia" font-size="36.0" fill="#000000" transform="matrix(1.00, 0.00, -0.00, -1.00, 923.1, 582.9)">n</text><text xml:space="preserve" font-family="Georgia,Georgia" font-size="36.0" fill="#000000" transform="matrix(1.00, 0.00, -0.00, -1.00, 944.4, 582.9)"> </text><text xml:space="preserve" font-family="Georgia,Georgia" font-size="36.0" fill="#000000" transform="matrix(1.00, 0.00, -0.00, -1.00, 114.0, 541.9)">5</text><text xml:space="preserve" font-family="Georgia,Georgia" font-size="36.0" fill="#000000" transform="matrix(1.00, 0.00, -0.00, -1.00, 133.0, 541.9)">4</text><text xml:space="preserve" font-family="Georgia,Georgia" font-size="36.0" fill="#000000" transform="matrix(1.00, 0.00, -0.00, -1.00, 153.4, 541.9)"> </text><text xml:space="preserve" font-family="Georgia,Georgia" font-size="36.0" fill="#000000" transform="matrix(1.00, 0.00, -0.00, -1.00, 162.1, 541.9)">k</text><text xml:space="preserve" font-family="Georgia,Georgia" font-size="36.0" fill="#000000" transform="matrix(1.00, 0.00, -0.00, -1.00, 181.3, 541.9)">m</text><text xml:space="preserve" font-family="Georgia,Georgia" font-size="36.0" fill="#000000" transform="matrix(1.00, 0.00, -0.00, -1.00, 213.0, 541.9)">/</text><text xml:space="preserve" font-family="Georgia,Georgia" font-size="36.0" fill="#000000" transform="matrix(1.00, 0.00, -0.00, -1.00, 229.9, 541.9)">h</text><text xml:space="preserve" font-family="Georgia,Georgia" font-size="36.0" fill="#000000" transform="matrix(1.00, 0.00, -0.00, -1.00, 250.8, 541.9)"> </text><text xml:space="preserve" font-family="Georgia,Georgia" font-size="36.0" fill="#000000" transform="matrix(1.00, 0.00, -0.00, -1.00, 259.5, 541.9)">n</text><text xml:space="preserve" font-family="Georgia,Georgia" font-size="36.0" fill="#000000" transform="matrix(1.00, 0.00, -0.00, -1.00, 280.8, 541.9)">o</text><text xml:space="preserve" font-family="Georgia,Georgia" font-size="36.0" fill="#000000" transform="matrix(1.00, 0.00, -0.00, -1.00, 300.2, 541.9)">p</text><text xml:space="preserve" font-family="Georgia,Georgia" font-size="36.0" fill="#000000" transform="matrix(1.00, 0.00, -0.00, -1.00, 320.8, 541.9)">e</text><text xml:space="preserve" font-family="Georgia,Georgia" font-size="36.0" fill="#000000" transform="matrix(1.00, 0.00, -0.00, -1.00, 338.2, 541.9)">u</text><text xml:space="preserve" font-family="Georgia,Georgia" font-size="36.0" fill="#000000" transform="matrix(1.00, 0.00, -0.00, -1.00, 358.9, 541.9)">d</text><text xml:space="preserve" font-family="Georgia,Georgia" font-size="36.0" fill="#000000" transform="matrix(1.00, 0.00, -0.00, -1.00, 379.6, 541.9)">e</text><text xml:space="preserve" font-family="Georgia,Georgia" font-size="36.0" fill="#000000" transform="matrix(1.00, 0.00, -0.00, -1.00, 397.0, 541.9)">l</text><text xml:space="preserve" font-family="Georgia,Georgia" font-size="36.0" fill="#000000" transform="matrix(1.00, 0.00, -0.00, -1.00, 407.3, 541.9)">l</text><text xml:space="preserve" font-family="Georgia,Georgia" font-size="36.0" fill="#000000" transform="matrix(1.00, 0.00, -0.00, -1.00, 417.6, 541.9)">a</text><text xml:space="preserve" font-family="Georgia,Georgia" font-size="36.0" fill="#000000" transform="matrix(1.00, 0.00, -0.00, -1.00, 435.8, 541.9)">?</text><text xml:space="preserve" font-family="Georgia,Georgia" font-size="28.0" fill="#000000" transform="matrix(1.00, 0.00, -0.00, -1.00, 270.3, 450.6)">P</text><text xml:space="preserve" font-family="Georgia,Georgia" font-size="28.0" fill="#000000" transform="matrix(1.00, 0.00, -0.00, -1.00, 287.3, 450.6)">u</text><text xml:space="preserve" font-family="Georgia,Georgia" font-size="28.0" fill="#000000" transform="matrix(1.00, 0.00, -0.00, -1.00, 303.5, 450.6)">o</text><text xml:space="preserve" font-family="Georgia,Georgia" font-size="28.0" fill="#000000" transform="matrix(1.00, 0.00, -0.00, -1.00, 318.6, 450.6)">t</text><text xml:space="preserve" font-family="Georgia,Georgia" font-size="28.0" fill="#000000" transform="matrix(1.00, 0.00, -0.00, -1.00, 328.2, 450.6)">a</text><text xml:space="preserve" font-family="Georgia,Georgia" font-size="28.0" fill="#000000" transform="matrix(1.00, 0.00, -0.00, -1.00, 342.3, 450.6)">m</text><text xml:space="preserve" font-family="Georgia,Georgia" font-size="28.0" fill="#000000" transform="matrix(1.00, 0.00, -0.00, -1.00, 367.0, 450.6)">i</text><text xml:space="preserve" font-family="Georgia,Georgia" font-size="28.0" fill="#000000" transform="matrix(1.00, 0.00, -0.00, -1.00, 375.2, 450.6)">s</text><text xml:space="preserve" font-family="Georgia,Georgia" font-size="28.0" fill="#000000" transform="matrix(1.00, 0.00, -0.00, -1.00, 387.3, 450.6)">e</text><text xml:space="preserve" font-family="Georgia,Georgia" font-size="28.0" fill="#000000" transform="matrix(1.00, 0.00, -0.00, -1.00, 400.8, 450.6)">s</text><text xml:space="preserve" font-family="Georgia,Georgia" font-size="28.0" fill="#000000" transform="matrix(1.00, 0.00, -0.00, -1.00, 413.0, 450.6)">s</text><text xml:space="preserve" font-family="Georgia,Georgia" font-size="28.0" fill="#000000" transform="matrix(1.00, 0.00, -0.00, -1.00, 425.1, 450.6)">a</text><text xml:space="preserve" font-family="Georgia,Georgia" font-size="28.0" fill="#000000" transform="matrix(1.00, 0.00, -0.00, -1.00, 439.2, 450.6)"> </text><text xml:space="preserve" font-family="Georgia,Georgia" font-size="28.0" fill="#000000" transform="matrix(1.00, 0.00, -0.00, -1.00, 445.9, 450.6)">m</text><text xml:space="preserve" font-family="Georgia,Georgia" font-size="28.0" fill="#000000" transform="matrix(1.00, 0.00, -0.00, -1.00, 470.6, 450.6)">e</text><text xml:space="preserve" font-family="Georgia,Georgia" font-size="28.0" fill="#000000" transform="matrix(1.00, 0.00, -0.00, -1.00, 484.1, 450.6)">k</text><text xml:space="preserve" font-family="Georgia,Georgia" font-size="28.0" fill="#000000" transform="matrix(1.00, 0.00, -0.00, -1.00, 499.1, 450.6)">a</text><text xml:space="preserve" font-family="Georgia,Georgia" font-size="28.0" fill="#000000" transform="matrix(1.00, 0.00, -0.00, -1.00, 513.2, 450.6)">a</text><text xml:space="preserve" font-family="Georgia,Georgia" font-size="28.0" fill="#000000" transform="matrix(1.00, 0.00, -0.00, -1.00, 527.3, 450.6)">n</text><text xml:space="preserve" font-family="Georgia,Georgia" font-size="28.0" fill="#000000" transform="matrix(1.00, 0.00, -0.00, -1.00, 543.9, 450.6)">i</text><text xml:space="preserve" font-family="Georgia,Georgia" font-size="28.0" fill="#000000" transform="matrix(1.00, 0.00, -0.00, -1.00, 552.1, 450.6)">n</text><text xml:space="preserve" font-family="Georgia,Georgia" font-size="28.0" fill="#000000" transform="matrix(1.00, 0.00, -0.00, -1.00, 568.6, 450.6)">e</text><text xml:space="preserve" font-family="Georgia,Georgia" font-size="28.0" fill="#000000" transform="matrix(1.00, 0.00, -0.00, -1.00, 582.2, 450.6)">n</text><text xml:space="preserve" font-family="Georgia,Georgia" font-size="28.0" fill="#000000" transform="matrix(1.00, 0.00, -0.00, -1.00, 598.7, 450.6)"> </text><text xml:space="preserve" font-family="Georgia,Georgia" font-size="28.0" fill="#000000" transform="matrix(1.00, 0.00, -0.00, -1.00, 605.4, 450.6)">e</text><text xml:space="preserve" font-family="Georgia,Georgia" font-size="28.0" fill="#000000" transform="matrix(1.00, 0.00, -0.00, -1.00, 619.0, 450.6)">n</text><text xml:space="preserve" font-family="Georgia,Georgia" font-size="28.0" fill="#000000" transform="matrix(1.00, 0.00, -0.00, -1.00, 635.5, 450.6)">e</text><text xml:space="preserve" font-family="Georgia,Georgia" font-size="28.0" fill="#000000" transform="matrix(1.00, 0.00, -0.00, -1.00, 649.1, 450.6)">r</text><text xml:space="preserve" font-family="Georgia,Georgia" font-size="28.0" fill="#000000" transform="matrix(1.00, 0.00, -0.00, -1.00, 660.5, 450.6)">g</text><text xml:space="preserve" font-family="Georgia,Georgia" font-size="28.0" fill="#000000" transform="matrix(1.00, 0.00, -0.00, -1.00, 674.8, 450.6)">i</text><text xml:space="preserve" font-family="Georgia,Georgia" font-size="28.0" fill="#000000" transform="matrix(1.00, 0.00, -0.00, -1.00, 683.0, 450.6)">a</text><text xml:space="preserve" font-family="Georgia,Georgia" font-size="28.0" fill="#000000" transform="matrix(1.00, 0.00, -0.00, -1.00, 697.1, 450.6)"> </text><text xml:space="preserve" font-family="Georgia,Georgia" font-size="28.0" fill="#000000" transform="matrix(1.00, 0.00, -0.00, -1.00, 703.9, 450.6)">s</text><text xml:space="preserve" font-family="Georgia,Georgia" font-size="28.0" fill="#000000" transform="matrix(1.00, 0.00, -0.00, -1.00, 716.0, 450.6)">ä</text><text xml:space="preserve" font-family="Georgia,Georgia" font-size="28.0" fill="#000000" transform="matrix(1.00, 0.00, -0.00, -1.00, 730.1, 450.6)">i</text><text xml:space="preserve" font-family="Georgia,Georgia" font-size="28.0" fill="#000000" transform="matrix(1.00, 0.00, -0.00, -1.00, 738.3, 450.6)">l</text><text xml:space="preserve" font-family="Georgia,Georgia" font-size="28.0" fill="#000000" transform="matrix(1.00, 0.00, -0.00, -1.00, 746.3, 450.6)">y</text><text xml:space="preserve" font-family="Georgia,Georgia" font-size="28.0" fill="#000000" transform="matrix(1.00, 0.00, -0.00, -1.00, 760.1, 450.6)">y</text><text xml:space="preserve" font-family="Georgia,Georgia" font-size="28.0" fill="#000000" transform="matrix(1.00, 0.00, -0.00, -1.00, 773.9, 450.6)">,</text><text xml:space="preserve" font-family="Georgia,Georgia" font-size="28.0" fill="#000000" transform="matrix(1.00, 0.00, -0.00, -1.00, 781.4, 450.6)"> </text><text xml:space="preserve" font-family="Georgia,Georgia" font-size="28.0" fill="#000000" transform="matrix(1.00, 0.00, -0.00, -1.00, 788.2, 450.6)">j</text><text xml:space="preserve" font-family="Georgia,Georgia" font-size="28.0" fill="#000000" transform="matrix(1.00, 0.00, -0.00, -1.00, 796.3, 450.6)">o</text><text xml:space="preserve" font-family="Georgia,Georgia" font-size="28.0" fill="#000000" transform="matrix(1.00, 0.00, -0.00, -1.00, 811.4, 450.6)">t</text><text xml:space="preserve" font-family="Georgia,Georgia" font-size="28.0" fill="#000000" transform="matrix(1.00, 0.00, -0.00, -1.00, 821.1, 450.6)">e</text><text xml:space="preserve" font-family="Georgia,Georgia" font-size="28.0" fill="#000000" transform="matrix(1.00, 0.00, -0.00, -1.00, 834.7, 450.6)">n</text><text xml:space="preserve" font-family="Georgia,Georgia" font-size="28.0" fill="#000000" transform="matrix(1.00, 0.00, -0.00, -1.00, 851.2, 450.6)"> </text><text xml:space="preserve" font-family="Georgia,Georgia" font-size="28.0" fill="#000000" transform="matrix(1.00, 0.00, -0.00, -1.00, 228.0, 418.6)">p</text><text xml:space="preserve" font-family="Georgia,Georgia" font-size="28.0" fill="#000000" transform="matrix(1.00, 0.00, -0.00, -1.00, 244.0, 418.6)">o</text><text xml:space="preserve" font-family="Georgia,Georgia" font-size="28.0" fill="#000000" transform="matrix(1.00, 0.00, -0.00, -1.00, 259.1, 418.6)">t</text><text xml:space="preserve" font-family="Georgia,Georgia" font-size="28.0" fill="#000000" transform="matrix(1.00, 0.00, -0.00, -1.00, 268.8, 418.6)">e</text><text xml:space="preserve" font-family="Georgia,Georgia" font-size="28.0" fill="#000000" transform="matrix(1.00, 0.00, -0.00, -1.00, 282.4, 418.6)">n</text><text xml:space="preserve" font-family="Georgia,Georgia" font-size="28.0" fill="#000000" transform="matrix(1.00, 0.00, -0.00, -1.00, 298.9, 418.6)">t</text><text xml:space="preserve" font-family="Georgia,Georgia" font-size="28.0" fill="#000000" transform="matrix(1.00, 0.00, -0.00, -1.00, 308.6, 418.6)">i</text><text xml:space="preserve" font-family="Georgia,Georgia" font-size="28.0" fill="#000000" transform="matrix(1.00, 0.00, -0.00, -1.00, 316.8, 418.6)">a</text><text xml:space="preserve" font-family="Georgia,Georgia" font-size="28.0" fill="#000000" transform="matrix(1.00, 0.00, -0.00, -1.00, 330.9, 418.6)">a</text><text xml:space="preserve" font-family="Georgia,Georgia" font-size="28.0" fill="#000000" transform="matrix(1.00, 0.00, -0.00, -1.00, 345.0, 418.6)">l</text><text xml:space="preserve" font-family="Georgia,Georgia" font-size="28.0" fill="#000000" transform="matrix(1.00, 0.00, -0.00, -1.00, 353.0, 418.6)">i</text><text xml:space="preserve" font-family="Georgia,Georgia" font-size="28.0" fill="#000000" transform="matrix(1.00, 0.00, -0.00, -1.00, 361.2, 418.6)">e</text><text xml:space="preserve" font-family="Georgia,Georgia" font-size="28.0" fill="#000000" transform="matrix(1.00, 0.00, -0.00, -1.00, 374.7, 418.6)">n</text><text xml:space="preserve" font-family="Georgia,Georgia" font-size="28.0" fill="#000000" transform="matrix(1.00, 0.00, -0.00, -1.00, 391.3, 418.6)">e</text><text xml:space="preserve" font-family="Georgia,Georgia" font-size="28.0" fill="#000000" transform="matrix(1.00, 0.00, -0.00, -1.00, 404.8, 418.6)">r</text><text xml:space="preserve" font-family="Georgia,Georgia" font-size="28.0" fill="#000000" transform="matrix(1.00, 0.00, -0.00, -1.00, 416.3, 418.6)">g</text><text xml:space="preserve" font-family="Georgia,Georgia" font-size="28.0" fill="#000000" transform="matrix(1.00, 0.00, -0.00, -1.00, 430.6, 418.6)">i</text><text xml:space="preserve" font-family="Georgia,Georgia" font-size="28.0" fill="#000000" transform="matrix(1.00, 0.00, -0.00, -1.00, 438.8, 418.6)">a</text><text xml:space="preserve" font-family="Georgia,Georgia" font-size="28.0" fill="#000000" transform="matrix(1.00, 0.00, -0.00, -1.00, 452.9, 418.6)"> </text><text xml:space="preserve" font-family="Georgia,Georgia" font-size="28.0" fill="#000000" transform="matrix(1.00, 0.00, -0.00, -1.00, 459.6, 418.6)">m</text><text xml:space="preserve" font-family="Georgia,Georgia" font-size="28.0" fill="#000000" transform="matrix(1.00, 0.00, -0.00, -1.00, 484.3, 418.6)">u</text><text xml:space="preserve" font-family="Georgia,Georgia" font-size="28.0" fill="#000000" transform="matrix(1.00, 0.00, -0.00, -1.00, 500.4, 418.6)">u</text><text xml:space="preserve" font-family="Georgia,Georgia" font-size="28.0" fill="#000000" transform="matrix(1.00, 0.00, -0.00, -1.00, 516.5, 418.6)">t</text><text xml:space="preserve" font-family="Georgia,Georgia" font-size="28.0" fill="#000000" transform="matrix(1.00, 0.00, -0.00, -1.00, 526.2, 418.6)">t</text><text xml:space="preserve" font-family="Georgia,Georgia" font-size="28.0" fill="#000000" transform="matrix(1.00, 0.00, -0.00, -1.00, 535.9, 418.6)">u</text><text xml:space="preserve" font-family="Georgia,Georgia" font-size="28.0" fill="#000000" transform="matrix(1.00, 0.00, -0.00, -1.00, 552.0, 418.6)">u</text><text xml:space="preserve" font-family="Georgia,Georgia" font-size="28.0" fill="#000000" transform="matrix(1.00, 0.00, -0.00, -1.00, 568.1, 418.6)"> </text><text xml:space="preserve" font-family="Georgia,Georgia" font-size="28.0" fill="#000000" transform="matrix(1.00, 0.00, -0.00, -1.00, 574.8, 418.6)">k</text><text xml:space="preserve" font-family="Georgia,Georgia" font-size="28.0" fill="#000000" transform="matrix(1.00, 0.00, -0.00, -1.00, 589.8, 418.6)">o</text><text xml:space="preserve" font-family="Georgia,Georgia" font-size="28.0" fill="#000000" transform="matrix(1.00, 0.00, -0.00, -1.00, 604.9, 418.6)">k</text><text xml:space="preserve" font-family="Georgia,Georgia" font-size="28.0" fill="#000000" transform="matrix(1.00, 0.00, -0.00, -1.00, 619.9, 418.6)">o</text><text xml:space="preserve" font-family="Georgia,Georgia" font-size="28.0" fill="#000000" transform="matrix(1.00, 0.00, -0.00, -1.00, 635.0, 418.6)">n</text><text xml:space="preserve" font-family="Georgia,Georgia" font-size="28.0" fill="#000000" transform="matrix(1.00, 0.00, -0.00, -1.00, 651.5, 418.6)">a</text><text xml:space="preserve" font-family="Georgia,Georgia" font-size="28.0" fill="#000000" transform="matrix(1.00, 0.00, -0.00, -1.00, 665.6, 418.6)">a</text><text xml:space="preserve" font-family="Georgia,Georgia" font-size="28.0" fill="#000000" transform="matrix(1.00, 0.00, -0.00, -1.00, 679.8, 418.6)">n</text><text xml:space="preserve" font-family="Georgia,Georgia" font-size="28.0" fill="#000000" transform="matrix(1.00, 0.00, -0.00, -1.00, 696.3, 418.6)"> </text><text xml:space="preserve" font-family="Georgia,Georgia" font-size="28.0" fill="#000000" transform="matrix(1.00, 0.00, -0.00, -1.00, 703.1, 418.6)">l</text><text xml:space="preserve" font-family="Georgia,Georgia" font-size="28.0" fill="#000000" transform="matrix(1.00, 0.00, -0.00, -1.00, 711.1, 418.6)">i</text><text xml:space="preserve" font-family="Georgia,Georgia" font-size="28.0" fill="#000000" transform="matrix(1.00, 0.00, -0.00, -1.00, 719.3, 418.6)">i</text><text xml:space="preserve" font-family="Georgia,Georgia" font-size="28.0" fill="#000000" transform="matrix(1.00, 0.00, -0.00, -1.00, 727.5, 418.6)">k</text><text xml:space="preserve" font-family="Georgia,Georgia" font-size="28.0" fill="#000000" transform="matrix(1.00, 0.00, -0.00, -1.00, 742.5, 418.6)">e</text><text xml:space="preserve" font-family="Georgia,Georgia" font-size="28.0" fill="#000000" transform="matrix(1.00, 0.00, -0.00, -1.00, 756.0, 418.6)">-</text><text xml:space="preserve" font-family="Georgia,Georgia" font-size="28.0" fill="#000000" transform="matrix(1.00, 0.00, -0.00, -1.00, 766.5, 418.6)">e</text><text xml:space="preserve" font-family="Georgia,Georgia" font-size="28.0" fill="#000000" transform="matrix(1.00, 0.00, -0.00, -1.00, 780.0, 418.6)">n</text><text xml:space="preserve" font-family="Georgia,Georgia" font-size="28.0" fill="#000000" transform="matrix(1.00, 0.00, -0.00, -1.00, 796.6, 418.6)">e</text><text xml:space="preserve" font-family="Georgia,Georgia" font-size="28.0" fill="#000000" transform="matrix(1.00, 0.00, -0.00, -1.00, 810.1, 418.6)">r</text><text xml:space="preserve" font-family="Georgia,Georgia" font-size="28.0" fill="#000000" transform="matrix(1.00, 0.00, -0.00, -1.00, 821.6, 418.6)">g</text><text xml:space="preserve" font-family="Georgia,Georgia" font-size="28.0" fill="#000000" transform="matrix(1.00, 0.00, -0.00, -1.00, 835.8, 418.6)">i</text><text xml:space="preserve" font-family="Georgia,Georgia" font-size="28.0" fill="#000000" transform="matrix(1.00, 0.00, -0.00, -1.00, 844.0, 418.6)">a</text><text xml:space="preserve" font-family="Georgia,Georgia" font-size="28.0" fill="#000000" transform="matrix(1.00, 0.00, -0.00, -1.00, 858.1, 418.6)">k</text><text xml:space="preserve" font-family="Georgia,Georgia" font-size="28.0" fill="#000000" transform="matrix(1.00, 0.00, -0.00, -1.00, 873.1, 418.6)">s</text><text xml:space="preserve" font-family="Georgia,Georgia" font-size="28.0" fill="#000000" transform="matrix(1.00, 0.00, -0.00, -1.00, 885.2, 418.6)">i</text><g><clipPath id="clip0x6000010b8f60"><path d="M 406.7 164.2 L 618.8 164.2 L 618.8 351.5 L 406.7 351.5 Z M 406.7 164.2 "></path></clipPath><g clip-path="url(#clip0x6000010b8f60)"><path d="M 549.0 218.0 L 549.0 168.2 L 616.5 257.9 L 549.0 347.5 L 549.0 298.0 L 409.0 298.0 L 409.0 218.0 Z M 548.5 217.7 " fill="#DCDDE0"></path><path d="M 140.3 129.5 L 140.3 179.4 L 207.9 89.7 L 140.3 0.0 L 140.3 49.5 L 0.3 49.5 L 0.3 129.5 Z M 139.9 129.9 " fill="none" stroke="#85878C" stroke-width="2.00" transform="matrix(1.00, 0.00, 0.00, -1.00, 408.7, 347.5)"></path></g></g><g><clipPath id="clip0x6000010b9260"><path d="M 405.7 168.2 L 616.5 168.2 L 616.5 347.5 L 405.7 347.5 Z M 405.7 168.2 "></path></clipPath><g clip-path="url(#clip0x6000010b9260)"><text xml:space="preserve" font-family="Georgia,Georgia" font-size="28.0" fill="#000000" transform="matrix(1.00, 0.00, -0.00, -1.00, 430.1, 247.9)">P</text><text xml:space="preserve" font-family="Georgia,Georgia" font-size="28.0" fill="#000000" transform="matrix(1.00, 0.00, -0.00, -1.00, 447.2, 247.9)">u</text><text xml:space="preserve" font-family="Georgia,Georgia" font-size="28.0" fill="#000000" transform="matrix(1.00, 0.00, -0.00, -1.00, 463.3, 247.9)">t</text><text xml:space="preserve" font-family="Georgia,Georgia" font-size="28.0" fill="#000000" transform="matrix(1.00, 0.00, -0.00, -1.00, 472.9, 247.9)">o</text><text xml:space="preserve" font-family="Georgia,Georgia" font-size="28.0" fill="#000000" transform="matrix(1.00, 0.00, -0.00, -1.00, 488.0, 247.9)">a</text><text xml:space="preserve" font-family="Georgia,Georgia" font-size="28.0" fill="#000000" transform="matrix(1.00, 0.00, -0.00, -1.00, 502.1, 247.9)">m</text><text xml:space="preserve" font-family="Georgia,Georgia" font-size="28.0" fill="#000000" transform="matrix(1.00, 0.00, -0.00, -1.00, 526.8, 247.9)">i</text><text xml:space="preserve" font-family="Georgia,Georgia" font-size="28.0" fill="#000000" transform="matrix(1.00, 0.00, -0.00, -1.00, 535.0, 247.9)">n</text><text xml:space="preserve" font-family="Georgia,Georgia" font-size="28.0" fill="#000000" transform="matrix(1.00, 0.00, -0.00, -1.00, 551.6, 247.9)">e</text><text xml:space="preserve" font-family="Georgia,Georgia" font-size="28.0" fill="#000000" transform="matrix(1.00, 0.00, -0.00, -1.00, 565.1, 247.9)">n</text></g></g><g><clipPath id="clip0x6000010b9800"><path d="M 175.2 134.4 L 410.3 134.4 L 410.3 369.6 L 175.2 369.6 Z M 175.2 134.4 "></path></clipPath><g clip-path="url(#clip0x6000010b9800)"><path d="M -0.2 -0.4 L 230.8 -0.4 L 230.8 231.6 L -0.2 231.6 Z M 0.0 0.0 " fill="none" stroke="#85878C" stroke-width="2.00" transform="matrix(1.00, 0.00, 0.00, -1.00, 177.2, 367.6)"></path></g></g><g><clipPath id="clip0x6000010b9a40"><path d="M 174.2 137.4 L 411.3 137.4 L 411.3 366.6 L 174.2 366.6 Z M 174.2 137.4 "></path></clipPath><g clip-path="url(#clip0x6000010b9a40)"><text xml:space="preserve" font-family="Georgia,Georgia" font-size="28.0" fill="#000000" transform="matrix(1.00, 0.00, -0.00, -1.00, 186.9, 257.7)">P</text><text xml:space="preserve" font-family="Georgia,Georgia" font-size="28.0" fill="#000000" transform="matrix(1.00, 0.00, -0.00, -1.00, 204.0, 257.7)">o</text><text xml:space="preserve" font-family="Georgia,Georgia" font-size="28.0" fill="#000000" transform="matrix(1.00, 0.00, -0.00, -1.00, 219.1, 257.7)">t</text><text xml:space="preserve" font-family="Georgia,Georgia" font-size="28.0" fill="#000000" transform="matrix(1.00, 0.00, -0.00, -1.00, 228.7, 257.7)">e</text><text xml:space="preserve" font-family="Georgia,Georgia" font-size="28.0" fill="#000000" transform="matrix(1.00, 0.00, -0.00, -1.00, 242.3, 257.7)">n</text><text xml:space="preserve" font-family="Georgia,Georgia" font-size="28.0" fill="#000000" transform="matrix(1.00, 0.00, -0.00, -1.00, 258.8, 257.7)">t</text><text xml:space="preserve" font-family="Georgia,Georgia" font-size="28.0" fill="#000000" transform="matrix(1.00, 0.00, -0.00, -1.00, 268.5, 257.7)">i</text><text xml:space="preserve" font-family="Georgia,Georgia" font-size="28.0" fill="#000000" transform="matrix(1.00, 0.00, -0.00, -1.00, 276.7, 257.7)">a</text><text xml:space="preserve" font-family="Georgia,Georgia" font-size="28.0" fill="#000000" transform="matrix(1.00, 0.00, -0.00, -1.00, 290.8, 257.7)">a</text><text xml:space="preserve" font-family="Georgia,Georgia" font-size="28.0" fill="#000000" transform="matrix(1.00, 0.00, -0.00, -1.00, 304.9, 257.7)">l</text><text xml:space="preserve" font-family="Georgia,Georgia" font-size="28.0" fill="#000000" transform="matrix(1.00, 0.00, -0.00, -1.00, 312.9, 257.7)">i</text><text xml:space="preserve" font-family="Georgia,Georgia" font-size="28.0" fill="#000000" transform="matrix(1.00, 0.00, -0.00, -1.00, 321.1, 257.7)">e</text><text xml:space="preserve" font-family="Georgia,Georgia" font-size="28.0" fill="#000000" transform="matrix(1.00, 0.00, -0.00, -1.00, 334.7, 257.7)">n</text><text xml:space="preserve" font-family="Georgia,Georgia" font-size="28.0" fill="#000000" transform="matrix(1.00, 0.00, -0.00, -1.00, 351.2, 257.7)">e</text><text xml:space="preserve" font-family="Georgia,Georgia" font-size="28.0" fill="#000000" transform="matrix(1.00, 0.00, -0.00, -1.00, 364.7, 257.7)">r</text><text xml:space="preserve" font-family="Georgia,Georgia" font-size="28.0" fill="#000000" transform="matrix(1.00, 0.00, -0.00, -1.00, 376.2, 257.7)">g</text><text xml:space="preserve" font-family="Georgia,Georgia" font-size="28.0" fill="#000000" transform="matrix(1.00, 0.00, -0.00, -1.00, 390.5, 257.7)">i</text><text xml:space="preserve" font-family="Georgia,Georgia" font-size="28.0" fill="#000000" transform="matrix(1.00, 0.00, -0.00, -1.00, 285.7, 225.7)">a</text></g></g><g><clipPath id="clip0x6000010ba2e0"><path d="M 613.7 134.4 L 848.8 134.4 L 848.8 369.6 L 613.7 369.6 Z M 613.7 134.4 "></path></clipPath><g clip-path="url(#clip0x6000010ba2e0)"><path d="M 0.3 -0.4 L 231.3 -0.4 L 231.3 231.6 L 0.3 231.6 Z M 0.0 0.0 " fill="none" stroke="#85878C" stroke-width="2.00" transform="matrix(1.00, 0.00, 0.00, -1.00, 615.7, 367.6)"></path></g></g><g><clipPath id="clip0x6000010ba520"><path d="M 612.7 137.4 L 849.8 137.4 L 849.8 366.6 L 612.7 366.6 Z M 612.7 137.4 "></path></clipPath><g clip-path="url(#clip0x6000010ba520)"><text xml:space="preserve" font-family="Georgia,Georgia" font-size="28.0" fill="#000000" transform="matrix(1.00, 0.00, -0.00, -1.00, 649.2, 241.7)">L</text><text xml:space="preserve" font-family="Georgia,Georgia" font-size="28.0" fill="#000000" transform="matrix(1.00, 0.00, -0.00, -1.00, 666.1, 241.7)">i</text><text xml:space="preserve" font-family="Georgia,Georgia" font-size="28.0" fill="#000000" transform="matrix(1.00, 0.00, -0.00, -1.00, 674.3, 241.7)">i</text><text xml:space="preserve" font-family="Georgia,Georgia" font-size="28.0" fill="#000000" transform="matrix(1.00, 0.00, -0.00, -1.00, 682.5, 241.7)">k</text><text xml:space="preserve" font-family="Georgia,Georgia" font-size="28.0" fill="#000000" transform="matrix(1.00, 0.00, -0.00, -1.00, 697.5, 241.7)">e</text><text xml:space="preserve" font-family="Georgia,Georgia" font-size="28.0" fill="#000000" transform="matrix(1.00, 0.00, -0.00, -1.00, 711.1, 241.7)">-</text><text xml:space="preserve" font-family="Georgia,Georgia" font-size="28.0" fill="#000000" transform="matrix(1.00, 0.00, -0.00, -1.00, 721.5, 241.7)">e</text><text xml:space="preserve" font-family="Georgia,Georgia" font-size="28.0" fill="#000000" transform="matrix(1.00, 0.00, -0.00, -1.00, 735.1, 241.7)">n</text><text xml:space="preserve" font-family="Georgia,Georgia" font-size="28.0" fill="#000000" transform="matrix(1.00, 0.00, -0.00, -1.00, 751.6, 241.7)">e</text><text xml:space="preserve" font-family="Georgia,Georgia" font-size="28.0" fill="#000000" transform="matrix(1.00, 0.00, -0.00, -1.00, 765.2, 241.7)">r</text><text xml:space="preserve" font-family="Georgia,Georgia" font-size="28.0" fill="#000000" transform="matrix(1.00, 0.00, -0.00, -1.00, 776.6, 241.7)">g</text><text xml:space="preserve" font-family="Georgia,Georgia" font-size="28.0" fill="#000000" transform="matrix(1.00, 0.00, -0.00, -1.00, 790.9, 241.7)">i</text><text xml:space="preserve" font-family="Georgia,Georgia" font-size="28.0" fill="#000000" transform="matrix(1.00, 0.00, -0.00, -1.00, 799.1, 241.7)">a</text></g></g><text xml:space="preserve" font-family="Georgia,Georgia" font-size="36.0" fill="#000000" transform="matrix(1.00, 0.00, -0.00, -1.00, 220.0, 81.4)">E</text><text xml:space="preserve" font-family="Georgia,Georgia" font-size="24.0" fill="#000000" transform="matrix(1.00, 0.00, -0.00, -1.00, 243.5, 78.8)">p</text><text xml:space="preserve" font-family="Georgia,Georgia" font-size="36.0" fill="#000000" transform="matrix(1.00, 0.00, -0.00, -1.00, 257.2, 81.4)"> </text><text xml:space="preserve" font-family="Georgia,Georgia" font-size="36.0" fill="#000000" transform="matrix(1.00, 0.00, -0.00, -1.00, 265.9, 81.4)">=</text><text xml:space="preserve" font-family="Georgia,Georgia" font-size="36.0" fill="#000000" transform="matrix(1.00, 0.00, -0.00, -1.00, 289.1, 81.4)"> </text><text xml:space="preserve" font-family="Georgia,Georgia" font-size="36.0" fill="#000000" transform="matrix(1.00, 0.00, -0.00, -1.00, 297.8, 81.4)">G</text><text xml:space="preserve" font-family="Georgia,Georgia" font-size="36.0" fill="#000000" transform="matrix(1.00, 0.00, -0.00, -1.00, 323.9, 81.4)">h</text><g><clipPath id="clip0x6080012b0260"><path d="M 640.0 124.0 L 811.0 124.0 L 811.0 49.0 L 640.0 49.0 Z M 640.5 123.5 "></path></clipPath><g clip-path="url(#clip0x6080012b0260)"><g><clipPath id="clip0x6080012b03e0"><path d="M 644.6 54.2 L 806.7 54.2 L 806.7 120.3 L 644.6 120.3 Z M 644.6 54.2 "></path></clipPath><g clip-path="url(#clip0x6080012b03e0)"><g><clipPath id="clip0x6080012b0560"><path d="M 644.6 54.2 L 806.7 54.2 L 806.7 120.3 L 644.6 120.3 Z M 644.6 54.2 "></path></clipPath><g clip-path="url(#clip0x6080012b0560)"><path d="M 666.3 84.3 C 666.4 84.5 666.5 84.7 666.5 84.8 C 666.5 84.8 666.5 85.2 666.1 85.2 C 665.8 85.2 665.7 85.0 665.7 84.7 C 663.6 80.0 662.4 77.9 656.9 77.9 L 652.2 77.9 C 651.8 77.9 651.7 77.9 651.5 77.9 C 651.2 77.9 651.1 78.0 651.1 78.2 C 651.1 78.3 651.1 78.4 651.2 78.9 L 653.4 87.7 L 656.6 87.7 C 659.3 87.7 659.3 87.0 659.3 86.2 C 659.3 86.0 659.3 85.6 659.1 84.7 C 659.0 84.5 659.0 84.4 659.0 84.3 C 659.0 84.2 659.1 84.0 659.4 84.0 C 659.7 84.0 659.8 84.1 659.9 84.6 L 661.7 92.1 C 661.7 92.3 661.6 92.4 661.4 92.4 C 661.1 92.4 661.0 92.3 660.9 91.9 C 660.2 89.4 659.6 88.7 656.7 88.7 L 653.7 88.7 L 655.6 96.4 C 655.9 97.6 655.9 97.7 657.3 97.7 L 661.9 97.7 C 665.8 97.7 666.7 96.8 666.7 94.1 C 666.7 93.4 666.7 93.3 666.6 92.4 C 666.6 92.2 666.6 92.0 666.6 91.9 C 666.6 91.7 666.7 91.5 667.0 91.5 C 667.3 91.5 667.4 91.7 667.4 92.3 L 668.1 97.8 C 668.2 98.7 668.0 98.7 667.2 98.7 L 651.0 98.7 C 650.3 98.7 650.0 98.7 650.0 98.0 C 650.0 97.7 650.3 97.7 650.9 97.7 C 652.1 97.7 653.0 97.7 653.0 97.1 C 653.0 97.0 653.0 96.9 652.8 96.3 L 648.6 79.4 C 648.3 78.1 648.2 77.9 645.7 77.9 C 645.1 77.9 644.8 77.9 644.8 77.3 C 644.8 76.9 645.1 76.9 645.7 76.9 L 662.4 76.9 C 663.1 76.9 663.1 76.9 663.3 77.4 L 666.3 84.3 " fill="#000000"></path><path d="M 674.3 86.9 C 674.3 87.0 674.4 87.2 674.4 87.3 C 674.4 87.4 674.3 87.6 674.0 87.6 C 673.6 87.6 671.7 87.4 671.2 87.4 C 671.0 87.3 670.7 87.3 670.7 86.8 C 670.7 86.5 671.0 86.5 671.2 86.5 C 672.3 86.5 672.3 86.4 672.3 86.2 C 672.3 86.0 672.3 85.9 672.2 85.7 L 669.1 73.0 C 668.9 72.6 668.9 72.6 668.9 72.6 C 668.9 72.2 669.2 71.8 669.7 71.8 C 670.3 71.8 670.6 72.3 670.8 72.8 C 670.8 72.9 671.8 76.8 671.8 77.1 C 673.4 76.9 674.7 76.4 674.7 75.3 C 674.7 75.2 674.7 75.0 674.7 74.8 C 674.6 74.5 674.6 74.4 674.6 74.1 C 674.6 72.5 675.9 71.8 677.0 71.8 C 679.1 71.8 679.8 75.2 679.8 75.2 C 679.8 75.5 679.5 75.5 679.5 75.5 C 679.1 75.5 679.1 75.4 679.0 75.0 C 678.7 74.0 678.1 72.5 677.0 72.5 C 676.4 72.5 676.2 73.0 676.2 73.6 C 676.2 74.0 676.2 74.0 676.4 74.6 C 676.4 74.7 676.5 75.1 676.5 75.3 C 676.5 77.3 673.8 77.6 672.9 77.7 C 673.5 78.1 674.3 78.8 674.7 79.2 C 675.9 80.2 677.0 81.3 678.2 81.3 C 678.5 81.3 678.8 81.2 679.0 81.0 C 678.0 80.8 677.8 80.1 677.8 79.8 C 677.8 79.3 678.2 78.9 678.7 78.9 C 679.3 78.9 680.0 79.4 680.0 80.3 C 680.0 81.1 679.5 81.9 678.3 81.9 C 677.0 81.9 675.8 81.0 674.7 79.9 C 673.7 79.0 673.0 78.4 672.1 78.0 L 674.3 86.9 " fill="#000000"></path><path d="M 714.1 87.4 C 714.5 87.4 715.2 87.4 715.2 88.0 C 715.2 88.6 714.5 88.6 714.1 88.6 L 694.9 88.6 C 694.4 88.6 693.8 88.6 693.8 88.0 C 693.8 87.4 694.4 87.4 694.9 87.4 L 714.1 87.4 Z M 714.1 81.1 C 714.5 81.1 715.2 81.1 715.2 81.8 C 715.2 82.4 714.5 82.4 714.1 82.4 L 694.9 82.4 C 694.4 82.4 693.8 82.4 693.8 81.8 C 693.8 81.1 694.4 81.1 694.8 81.1 L 714.1 81.1 " fill="#000000"></path><path d="M 739.2 119.1 C 739.2 119.9 739.2 119.9 738.5 119.9 C 736.5 117.9 733.6 117.9 732.6 117.9 L 732.6 116.9 C 733.3 116.9 735.2 116.9 736.8 117.7 L 736.8 101.1 C 736.8 99.9 736.7 99.6 733.9 99.6 L 732.8 99.6 L 732.8 98.6 C 734.0 98.7 736.7 98.7 738.0 98.7 C 739.3 98.7 742.1 98.7 743.2 98.6 L 743.2 99.6 L 742.2 99.6 C 739.3 99.6 739.2 99.9 739.2 101.1 L 739.2 119.1 " fill="#000000"></path><path d="M 14.7 5.8 L 17.3 5.8 " fill="none" stroke="#000000" stroke-width="0.21" transform="matrix(6.10, 0.00, 0.00, 6.09, 640.1, 49.7)"></path><path d="M 733.9 57.4 L 737.3 60.7 C 742.3 65.1 744.2 66.8 744.2 70.0 C 744.2 73.7 741.3 76.3 737.4 76.3 C 733.8 76.3 731.4 73.3 731.4 70.5 C 731.4 68.7 733.0 68.7 733.1 68.7 C 733.6 68.7 734.7 69.1 734.7 70.4 C 734.7 71.2 734.2 72.0 733.0 72.0 C 732.8 72.0 732.7 72.0 732.6 72.0 C 733.4 74.1 735.1 75.3 737.0 75.3 C 739.9 75.3 741.3 72.7 741.3 70.0 C 741.3 67.5 739.7 64.9 737.9 62.9 L 731.7 56.1 C 731.4 55.7 731.4 55.7 731.4 54.9 L 743.3 54.9 L 744.2 60.5 L 743.4 60.5 C 743.2 59.5 743.0 58.1 742.7 57.6 C 742.5 57.4 740.3 57.4 739.6 57.4 L 733.9 57.4 " fill="#000000"></path><path d="M 752.5 78.8 C 752.4 78.3 752.2 77.5 752.2 77.4 C 752.2 76.8 752.6 76.5 753.1 76.5 C 753.5 76.5 754.1 76.8 754.3 77.4 C 754.3 77.5 754.7 79.0 754.9 79.8 L 755.6 82.7 C 755.8 83.4 756.0 84.1 756.2 84.8 C 756.3 85.4 756.6 86.3 756.6 86.4 C 757.1 87.4 758.8 90.3 761.8 90.3 C 763.3 90.3 763.6 89.1 763.6 88.1 C 763.6 87.3 763.3 86.4 763.1 85.4 L 762.2 81.7 L 761.5 79.3 C 761.4 78.6 761.1 77.5 761.1 77.4 C 761.1 76.8 761.6 76.5 762.1 76.5 C 763.1 76.5 763.2 77.3 763.5 78.4 C 763.9 80.1 765.1 84.8 765.4 86.1 C 765.5 86.5 767.2 90.3 770.7 90.3 C 772.1 90.3 772.5 89.2 772.5 88.1 C 772.5 86.3 771.1 82.6 770.5 80.9 C 770.2 80.1 770.1 79.8 770.1 79.1 C 770.1 77.6 771.2 76.5 772.7 76.5 C 775.7 76.5 776.9 81.2 776.9 81.5 C 776.9 81.8 776.6 81.8 776.5 81.8 C 776.2 81.8 776.2 81.7 776.0 81.2 C 775.6 79.5 774.5 77.2 772.8 77.2 C 772.2 77.2 772.0 77.5 772.0 78.3 C 772.0 79.1 772.3 79.8 772.6 80.6 C 773.2 82.2 774.5 85.8 774.5 87.6 C 774.5 89.7 773.2 91.0 770.8 91.0 C 768.4 91.0 766.8 89.6 765.6 87.9 C 765.6 88.4 765.5 89.4 764.6 90.2 C 763.7 90.9 762.7 91.0 761.9 91.0 C 759.0 91.0 757.5 89.0 756.9 88.3 C 756.7 90.1 755.4 91.0 754.0 91.0 C 752.5 91.0 751.9 89.8 751.6 89.2 C 751.0 88.1 750.6 86.2 750.6 86.1 C 750.6 85.8 750.9 85.8 750.9 85.8 C 751.3 85.8 751.3 85.8 751.5 86.5 C 752.0 88.8 752.7 90.3 753.9 90.3 C 754.4 90.3 754.9 90.1 754.9 88.9 C 754.9 88.2 754.8 87.8 754.3 86.2 L 752.5 78.8 " fill="#000000"></path><path d="M 792.9 88.8 C 792.9 90.5 792.0 91.0 791.5 91.0 C 790.7 91.0 789.9 90.2 789.9 89.5 C 789.9 89.1 790.1 88.9 790.4 88.6 C 791.1 87.9 791.5 87.1 791.5 85.9 C 791.5 84.6 789.5 77.2 785.8 77.2 C 784.1 77.2 783.4 78.4 783.4 80.0 C 783.4 81.8 784.3 84.2 785.3 86.8 C 785.5 87.4 785.7 87.8 785.7 88.4 C 785.7 89.9 784.6 91.0 783.0 91.0 C 780.0 91.0 778.8 86.4 778.8 86.1 C 778.8 85.8 779.1 85.8 779.1 85.8 C 779.5 85.8 779.5 85.8 779.7 86.4 C 780.6 89.6 782.0 90.3 782.9 90.3 C 783.2 90.3 783.7 90.3 783.7 89.3 C 783.7 88.5 783.4 87.6 783.2 87.1 C 781.8 83.3 781.3 81.9 781.3 80.5 C 781.3 77.0 784.2 76.5 785.7 76.5 C 791.0 76.5 792.9 87.1 792.9 88.8 " fill="#000000"></path><path d="M 805.9 94.2 L 805.2 94.2 C 805.1 93.7 804.8 92.4 804.6 92.1 C 804.4 92.0 802.7 92.0 802.3 92.0 L 798.2 92.0 C 800.6 94.1 801.4 94.7 802.7 95.8 C 804.4 97.1 805.9 98.4 805.9 100.6 C 805.9 103.3 803.5 104.9 800.7 104.9 C 797.9 104.9 796.0 103.0 796.0 100.9 C 796.0 99.8 797.0 99.7 797.2 99.7 C 797.7 99.7 798.4 100.1 798.4 100.9 C 798.4 101.3 798.2 102.1 797.1 102.1 C 797.7 103.6 799.3 104.1 800.3 104.1 C 802.6 104.1 803.7 102.4 803.7 100.6 C 803.7 98.6 802.3 97.1 801.6 96.3 L 796.2 91.0 C 796.0 90.8 796.0 90.7 796.0 90.1 L 805.2 90.1 L 805.9 94.2 " fill="#000000"></path></g></g></g></g></g></g></g></svg>