<?xml version="1.0" encoding="UTF-8" standalone="no"?><svg xmlns="http://www.w3.org/2000/svg" xmlns:xlink="http://www.w3.org/1999/xlink" clip-rule="evenodd" stroke-miterlimit="10" viewBox="0 0 353 16"><desc>SVG generated by Keynote</desc><defs></defs><g transform="matrix(1.00, 0.00, -0.00, -1.00, 0.0, 16.0)"><g><clipPath id="clip0x6080022a9900"><path d="M 1.1 11.6 L 352.5 11.6 L 352.5 15.6 L 1.1 15.6 Z M 1.1 11.6 "></path></clipPath><g clip-path="url(#clip0x6080022a9900)"><path d="M -0.1 -0.4 L 349.9 -0.4 " fill="none" stroke="#000000" stroke-width="2.00" transform="matrix(1.00, 0.00, 0.00, -1.00, 2.1, 13.6)"></path></g></g><g><clipPath id="clip0x6080022a9ea0"><path d="M 348.7 0.8 L 348.7 15.2 L 352.7 15.2 L 352.7 0.8 Z M 348.7 0.8 "></path></clipPath><g clip-path="url(#clip0x6080022a9ea0)"><path d="M 0.2 0.3 L 12.2 0.3 " fill="none" stroke="#000000" stroke-width="2.00" transform="matrix(0.00, 1.00, 1.00, 0.00, 350.7, 1.8)"></path></g></g><g><clipPath id="clip0x6080022aa0e0"><path d="M 0.6 0.4 L 0.6 14.7 L 4.6 14.7 L 4.6 0.4 Z M 0.6 0.4 "></path></clipPath><g clip-path="url(#clip0x6080022aa0e0)"><path d="M -0.4 0.4 L 12.6 0.4 " fill="none" stroke="#000000" stroke-width="2.00" transform="matrix(0.00, 1.00, 1.00, 0.00, 2.6, 1.4)"></path></g></g></g></svg>