<?xml version="1.0" encoding="UTF-8" standalone="no"?><svg xmlns="http://www.w3.org/2000/svg" xmlns:xlink="http://www.w3.org/1999/xlink" clip-rule="evenodd" stroke-miterlimit="10" viewBox="0 0 76 90"><desc>SVG generated by Keynote</desc><defs><linearGradient id="gradSh1.5" x1="0.0" y1="0.0" x2="100.0" y2="0.0" gradientUnits="userSpaceOnUse" gradientTransform="matrix(0.00, -0.88, -0.75, 0.00, 38.1, 89.3)"><stop offset="0.00000" stop-color="#F9E51E"></stop><stop offset="0.00587" stop-color="#F9E41E"></stop><stop offset="0.59311" stop-color="#D89F0F"></stop><stop offset="0.59604" stop-color="#D89E0F"></stop><stop offset="0.92302" stop-color="#C67807"></stop><stop offset="0.92522" stop-color="#C67707"></stop><stop offset="1.00000" stop-color="#C16F06"></stop></linearGradient></defs><g transform="matrix(1.00, 0.00, -0.00, -1.00, 0.0, 90.0)"><g><clipPath id="clip0x6080022a4500"><path d="M 31.1 2.0 C 18.5 5.0 8.4 13.5 3.9 24.4 C 0.2 33.3 0.5 43.2 5.0 52.0 C 6.7 47.0 8.7 42.1 10.9 37.3 C 14.2 30.4 18.0 23.7 22.3 17.3 C 16.4 29.1 13.3 41.9 13.3 54.8 C 13.3 58.0 13.5 61.3 13.9 64.6 L 23.8 48.3 C 19.5 57.5 18.7 67.7 21.7 77.3 C 22.9 81.2 24.6 84.9 27.0 88.3 C 30.2 84.0 32.9 79.4 35.2 74.6 C 38.8 67.1 41.2 59.2 42.2 51.1 C 47.3 56.6 50.7 63.1 52.1 70.0 C 52.7 73.1 52.9 76.4 52.7 79.6 C 64.5 73.6 71.1 62.1 69.7 50.2 C 69.1 45.8 67.4 41.6 64.7 37.9 L 74.7 48.4 C 74.5 40.7 73.0 33.0 70.5 25.6 C 67.6 17.4 63.4 9.2 58.0 2.0 L 31.1 2.0 Z M 31.1 1.6 "></path></clipPath><g clip-path="url(#clip0x6080022a4500)"><path d="M 31.1 2.0 C 18.5 5.0 8.4 13.5 3.9 24.4 C 0.2 33.3 0.5 43.2 5.0 52.0 C 6.7 47.0 8.7 42.1 10.9 37.3 C 14.2 30.4 18.0 23.7 22.3 17.3 C 16.4 29.1 13.3 41.9 13.3 54.8 C 13.3 58.0 13.5 61.3 13.9 64.6 L 23.8 48.3 C 19.5 57.5 18.7 67.7 21.7 77.3 C 22.9 81.2 24.6 84.9 27.0 88.3 C 30.2 84.0 32.9 79.4 35.2 74.6 C 38.8 67.1 41.2 59.2 42.2 51.1 C 47.3 56.6 50.7 63.1 52.1 70.0 C 52.7 73.1 52.9 76.4 52.7 79.6 C 64.5 73.6 71.1 62.1 69.7 50.2 C 69.1 45.8 67.4 41.6 64.7 37.9 L 74.7 48.4 C 74.5 40.7 73.0 33.0 70.5 25.6 C 67.6 17.4 63.4 9.2 58.0 2.0 L 31.1 2.0 Z M 31.1 1.6 " fill="url(#gradSh1.5)"></path></g></g></g></svg>