<?xml version="1.0" encoding="UTF-8" standalone="no"?><svg xmlns="http://www.w3.org/2000/svg" xmlns:xlink="http://www.w3.org/1999/xlink" clip-rule="evenodd" stroke-miterlimit="10" viewBox="0 0 356 308"><desc>SVG generated by Keynote</desc><defs><linearGradient id="gradSh1.3" x1="0.0" y1="0.0" x2="100.0" y2="0.0" gradientUnits="userSpaceOnUse" gradientTransform="matrix(-1.72, 3.86, 4.08, 1.82, 263.7, -38.4)"><stop offset="0.00000" stop-color="#7982AC"></stop><stop offset="0.00660" stop-color="#7982AD"></stop><stop offset="0.22947" stop-color="#8093BF"></stop><stop offset="0.23240" stop-color="#8094BF"></stop><stop offset="1.00000" stop-color="#96CEFF"></stop></linearGradient></defs><g transform="matrix(1.00, 0.00, -0.00, -1.00, 0.0, 308.0)"><g><clipPath id="clip0x600001ca2400"><path d="M 2.0 306.0 L 353.0 306.0 L 353.0 3.0 L 2.0 3.0 Z M 2.3 305.6 "></path></clipPath><g clip-path="url(#clip0x600001ca2400)"><g><clipPath id="clip0x6000020a2760"><path d="M 0.3 0.7 L 355.3 0.7 L 355.3 307.6 L 0.3 307.6 Z M 0.3 0.7 "></path></clipPath><g clip-path="url(#clip0x6000020a2760)"><path d="M 0.3 0.7 L 355.3 0.7 L 355.3 307.6 L 0.3 307.6 Z M 0.3 0.7 " fill="url(#gradSh1.3)"></path></g></g></g></g><g><clipPath id="clip0x6000022a2a60"><path d="M 0.3 0.7 L 355.3 0.7 L 355.3 307.6 L 0.3 307.6 Z M 0.3 0.7 "></path></clipPath><g clip-path="url(#clip0x6000022a2a60)"><path d="M -0.3 -0.4 L 350.7 -0.4 L 350.7 302.6 L -0.3 302.6 Z M 0.0 0.0 " fill="none" stroke="#51A7F9" stroke-width="2.00" transform="matrix(1.00, 0.00, 0.00, -1.00, 2.3, 305.6)"></path></g></g><g><clipPath id="clip0x6000022a2ca0"><path d="M 135.0 249.7 L 223.9 249.7 L 223.9 311.2 L 135.0 311.2 Z M 135.0 249.7 "></path></clipPath><g clip-path="url(#clip0x6000022a2ca0)"><text xml:space="preserve" font-family="Georgia,Georgia" font-size="36.0" fill="#000000" transform="matrix(1.00, 0.00, -0.00, -1.00, 145.2, 267.8)">V</text><text xml:space="preserve" font-family="Georgia,Georgia" font-size="36.0" fill="#000000" transform="matrix(1.00, 0.00, -0.00, -1.00, 169.2, 267.8)">e</text><text xml:space="preserve" font-family="Georgia,Georgia" font-size="36.0" fill="#000000" transform="matrix(1.00, 0.00, -0.00, -1.00, 186.6, 267.8)">s</text><text xml:space="preserve" font-family="Georgia,Georgia" font-size="36.0" fill="#000000" transform="matrix(1.00, 0.00, -0.00, -1.00, 202.2, 267.8)">i</text></g></g><g><clipPath id="clip0x6000022a3000"><path d="M 154.8 223.3 L 200.8 223.3 L 200.8 260.8 L 154.8 260.8 Z M 154.8 223.3 "></path></clipPath><g clip-path="url(#clip0x6000022a3000)"><text xml:space="preserve" font-family="Georgia,Georgia" font-size="22.0" fill="#000000" transform="matrix(1.00, 0.00, -0.00, -1.00, 161.6, 234.4)">1</text><text xml:space="preserve" font-family="Georgia,Georgia" font-size="22.0" fill="#000000" transform="matrix(1.00, 0.00, -0.00, -1.00, 171.0, 234.4)">k</text><text xml:space="preserve" font-family="Georgia,Georgia" font-size="22.0" fill="#000000" transform="matrix(1.00, 0.00, -0.00, -1.00, 182.8, 234.4)">g</text></g></g></g></svg>