<?xml version="1.0" encoding="UTF-8" standalone="no"?><svg xmlns="http://www.w3.org/2000/svg" xmlns:xlink="http://www.w3.org/1999/xlink" clip-rule="evenodd" stroke-miterlimit="10" viewBox="0 0 323 62"><desc>SVG generated by Keynote</desc><defs></defs><g transform="matrix(1.00, 0.00, -0.00, -1.00, 0.0, 62.0)"><text xml:space="preserve" font-family="Georgia,Georgia" font-size="28.0" fill="#000000" transform="matrix(1.00, 0.00, -0.00, -1.00, 127.0, 39.5)">S</text><text xml:space="preserve" font-family="Georgia,Georgia" font-size="28.0" fill="#000000" transform="matrix(1.00, 0.00, -0.00, -1.00, 142.7, 39.5)">u</text><text xml:space="preserve" font-family="Georgia,Georgia" font-size="28.0" fill="#000000" transform="matrix(1.00, 0.00, -0.00, -1.00, 158.8, 39.5)">u</text><text xml:space="preserve" font-family="Georgia,Georgia" font-size="28.0" fill="#000000" transform="matrix(1.00, 0.00, -0.00, -1.00, 174.9, 39.5)">r</text><text xml:space="preserve" font-family="Georgia,Georgia" font-size="28.0" fill="#000000" transform="matrix(1.00, 0.00, -0.00, -1.00, 186.4, 39.5)">i</text><text xml:space="preserve" font-family="Georgia,Georgia" font-size="28.0" fill="#000000" transform="matrix(1.00, 0.00, -0.00, -1.00, 194.6, 39.5)"> </text><text xml:space="preserve" font-family="LucidaGrande,Lucida Grande" font-size="28.0" fill="#000000" transform="matrix(1.00, 0.00, -0.00, -1.00, 201.4, 39.5)"> </text><text xml:space="preserve" font-family="Georgia,Georgia" font-size="28.0" fill="#000000" transform="matrix(1.00, 0.00, -0.00, -1.00, 0.5, 7.5)">o</text><text xml:space="preserve" font-family="Georgia,Georgia" font-size="28.0" fill="#000000" transform="matrix(1.00, 0.00, -0.00, -1.00, 15.6, 7.5)">m</text><text xml:space="preserve" font-family="Georgia,Georgia" font-size="28.0" fill="#000000" transform="matrix(1.00, 0.00, -0.00, -1.00, 40.3, 7.5)">i</text><text xml:space="preserve" font-family="Georgia,Georgia" font-size="28.0" fill="#000000" transform="matrix(1.00, 0.00, -0.00, -1.00, 48.5, 7.5)">n</text><text xml:space="preserve" font-family="Georgia,Georgia" font-size="28.0" fill="#000000" transform="matrix(1.00, 0.00, -0.00, -1.00, 65.0, 7.5)">a</text><text xml:space="preserve" font-family="Georgia,Georgia" font-size="28.0" fill="#000000" transform="matrix(1.00, 0.00, -0.00, -1.00, 79.1, 7.5)">i</text><text xml:space="preserve" font-family="Georgia,Georgia" font-size="28.0" fill="#000000" transform="matrix(1.00, 0.00, -0.00, -1.00, 87.3, 7.5)">s</text><text xml:space="preserve" font-family="Georgia,Georgia" font-size="28.0" fill="#000000" transform="matrix(1.00, 0.00, -0.00, -1.00, 99.4, 7.5)">l</text><text xml:space="preserve" font-family="Georgia,Georgia" font-size="28.0" fill="#000000" transform="matrix(1.00, 0.00, -0.00, -1.00, 107.4, 7.5)">ä</text><text xml:space="preserve" font-family="Georgia,Georgia" font-size="28.0" fill="#000000" transform="matrix(1.00, 0.00, -0.00, -1.00, 121.6, 7.5)">m</text><text xml:space="preserve" font-family="Georgia,Georgia" font-size="28.0" fill="#000000" transform="matrix(1.00, 0.00, -0.00, -1.00, 146.2, 7.5)">p</text><text xml:space="preserve" font-family="Georgia,Georgia" font-size="28.0" fill="#000000" transform="matrix(1.00, 0.00, -0.00, -1.00, 162.2, 7.5)">ö</text><text xml:space="preserve" font-family="Georgia,Georgia" font-size="28.0" fill="#000000" transform="matrix(1.00, 0.00, -0.00, -1.00, 177.3, 7.5)">k</text><text xml:space="preserve" font-family="Georgia,Georgia" font-size="28.0" fill="#000000" transform="matrix(1.00, 0.00, -0.00, -1.00, 192.3, 7.5)">a</text><text xml:space="preserve" font-family="Georgia,Georgia" font-size="28.0" fill="#000000" transform="matrix(1.00, 0.00, -0.00, -1.00, 206.4, 7.5)">p</text><text xml:space="preserve" font-family="Georgia,Georgia" font-size="28.0" fill="#000000" transform="matrix(1.00, 0.00, -0.00, -1.00, 222.4, 7.5)">a</text><text xml:space="preserve" font-family="Georgia,Georgia" font-size="28.0" fill="#000000" transform="matrix(1.00, 0.00, -0.00, -1.00, 236.5, 7.5)">s</text><text xml:space="preserve" font-family="Georgia,Georgia" font-size="28.0" fill="#000000" transform="matrix(1.00, 0.00, -0.00, -1.00, 248.6, 7.5)">i</text><text xml:space="preserve" font-family="Georgia,Georgia" font-size="28.0" fill="#000000" transform="matrix(1.00, 0.00, -0.00, -1.00, 256.8, 7.5)">t</text><text xml:space="preserve" font-family="Georgia,Georgia" font-size="28.0" fill="#000000" transform="matrix(1.00, 0.00, -0.00, -1.00, 266.5, 7.5)">e</text><text xml:space="preserve" font-family="Georgia,Georgia" font-size="28.0" fill="#000000" transform="matrix(1.00, 0.00, -0.00, -1.00, 280.0, 7.5)">e</text><text xml:space="preserve" font-family="Georgia,Georgia" font-size="28.0" fill="#000000" transform="matrix(1.00, 0.00, -0.00, -1.00, 293.6, 7.5)">t</text><text xml:space="preserve" font-family="Georgia,Georgia" font-size="28.0" fill="#000000" transform="matrix(1.00, 0.00, -0.00, -1.00, 303.3, 7.5)">t</text><text xml:space="preserve" font-family="Georgia,Georgia" font-size="28.0" fill="#000000" transform="matrix(1.00, 0.00, -0.00, -1.00, 312.9, 7.5)">i</text></g></svg>