<?xml version="1.0" encoding="UTF-8" standalone="no"?><svg xmlns="http://www.w3.org/2000/svg" xmlns:xlink="http://www.w3.org/1999/xlink" clip-rule="evenodd" stroke-miterlimit="10" viewBox="0 0 79 306"><desc>SVG generated by Keynote</desc><defs></defs><g transform="matrix(1.00, 0.00, -0.00, -1.00, 0.0, 306.0)"><g><clipPath id="clip0x6000028b8120"><path d="M 56.2 282.6 L 79.0 282.6 L 79.0 278.6 L 56.2 278.6 Z M 56.2 282.6 "></path></clipPath><g clip-path="url(#clip0x6000028b8120)"><path d="M -0.2 -0.4 L 20.8 -0.4 " fill="none" stroke="#000000" stroke-width="2.00" transform="matrix(1.00, 0.00, 0.00, -1.00, 57.2, 280.6)"></path></g></g><g><clipPath id="clip0x6000028b8d20"><path d="M 56.2 253.2 L 79.0 253.2 L 79.0 249.2 L 56.2 249.2 Z M 56.2 253.2 "></path></clipPath><g clip-path="url(#clip0x6000028b8d20)"><path d="M -0.2 0.2 L 20.8 0.2 " fill="none" stroke="#000000" stroke-width="2.00" transform="matrix(1.00, 0.00, 0.00, -1.00, 57.2, 251.2)"></path></g></g><g><clipPath id="clip0x6000028b8f60"><path d="M 56.2 223.9 L 79.0 223.9 L 79.0 219.9 L 56.2 219.9 Z M 56.2 223.9 "></path></clipPath><g clip-path="url(#clip0x6000028b8f60)"><path d="M -0.2 -0.1 L 20.8 -0.1 " fill="none" stroke="#000000" stroke-width="2.00" transform="matrix(1.00, 0.00, 0.00, -1.00, 57.2, 221.9)"></path></g></g><g><clipPath id="clip0x6000028b91a0"><path d="M 56.2 194.5 L 79.0 194.5 L 79.0 190.5 L 56.2 190.5 Z M 56.2 194.5 "></path></clipPath><g clip-path="url(#clip0x6000028b91a0)"><path d="M -0.2 -0.5 L 20.8 -0.5 " fill="none" stroke="#000000" stroke-width="2.00" transform="matrix(1.00, 0.00, 0.00, -1.00, 57.2, 192.5)"></path></g></g><g><clipPath id="clip0x6000028b93e0"><path d="M 56.2 165.2 L 79.0 165.2 L 79.0 161.2 L 56.2 161.2 Z M 56.2 165.2 "></path></clipPath><g clip-path="url(#clip0x6000028b93e0)"><path d="M -0.2 0.2 L 20.8 0.2 " fill="none" stroke="#000000" stroke-width="2.00" transform="matrix(1.00, 0.00, 0.00, -1.00, 57.2, 163.2)"></path></g></g><g><clipPath id="clip0x6000028b9620"><path d="M 56.2 135.8 L 79.0 135.8 L 79.0 131.8 L 56.2 131.8 Z M 56.2 135.8 "></path></clipPath><g clip-path="url(#clip0x6000028b9620)"><path d="M -0.2 -0.2 L 20.8 -0.2 " fill="none" stroke="#000000" stroke-width="2.00" transform="matrix(1.00, 0.00, 0.00, -1.00, 57.2, 133.8)"></path></g></g><g><clipPath id="clip0x6000028b9860"><path d="M 56.2 106.5 L 79.0 106.5 L 79.0 102.5 L 56.2 102.5 Z M 56.2 106.5 "></path></clipPath><g clip-path="url(#clip0x6000028b9860)"><path d="M -0.2 0.5 L 20.8 0.5 " fill="none" stroke="#000000" stroke-width="2.00" transform="matrix(1.00, 0.00, 0.00, -1.00, 57.2, 104.5)"></path></g></g><g><clipPath id="clip0x6000028b9aa0"><path d="M 56.2 77.2 L 79.0 77.2 L 79.0 73.2 L 56.2 73.2 Z M 56.2 77.2 "></path></clipPath><g clip-path="url(#clip0x6000028b9aa0)"><path d="M -0.2 0.2 L 20.8 0.2 " fill="none" stroke="#000000" stroke-width="2.00" transform="matrix(1.00, 0.00, 0.00, -1.00, 57.2, 75.2)"></path></g></g><g><clipPath id="clip0x6000028b9ce0"><path d="M 56.2 47.8 L 79.0 47.8 L 79.0 43.8 L 56.2 43.8 Z M 56.2 47.8 "></path></clipPath><g clip-path="url(#clip0x6000028b9ce0)"><path d="M -0.2 -0.2 L 20.8 -0.2 " fill="none" stroke="#000000" stroke-width="2.00" transform="matrix(1.00, 0.00, 0.00, -1.00, 57.2, 45.8)"></path></g></g><g><clipPath id="clip0x6000028b9f20"><path d="M 56.2 18.5 L 79.0 18.5 L 79.0 14.5 L 56.2 14.5 Z M 56.2 18.5 "></path></clipPath><g clip-path="url(#clip0x6000028b9f20)"><path d="M -0.2 0.5 L 20.8 0.5 " fill="none" stroke="#000000" stroke-width="2.00" transform="matrix(1.00, 0.00, 0.00, -1.00, 57.2, 16.5)"></path></g></g><g><clipPath id="clip0x6000028ba160"><path d="M -0.7 -0.2 L 60.0 -0.2 L 60.0 33.2 L -0.7 33.2 Z M -0.7 -0.2 "></path></clipPath><g clip-path="url(#clip0x6000028ba160)"><text xml:space="preserve" font-family="Georgia,Georgia" font-size="20.0" fill="#000000" transform="matrix(1.00, 0.00, -0.00, -1.00, 5.0, 9.9)">2</text><text xml:space="preserve" font-family="Georgia,Georgia" font-size="20.0" fill="#000000" transform="matrix(1.00, 0.00, -0.00, -1.00, 16.2, 9.9)">0</text><text xml:space="preserve" font-family="Georgia,Georgia" font-size="20.0" fill="#000000" transform="matrix(1.00, 0.00, -0.00, -1.00, 28.4, 9.9)"> </text><text xml:space="preserve" font-family="Georgia,Georgia" font-size="13.3" fill="#000000" transform="matrix(1.00, 0.00, -0.00, -1.00, 33.3, 16.0)">o</text><text xml:space="preserve" font-family="Georgia,Georgia" font-size="20.0" fill="#000000" transform="matrix(1.00, 0.00, -0.00, -1.00, 40.5, 9.9)">C</text></g></g><g><clipPath id="clip0x6000028ba520"><path d="M -0.7 30.1 L 31.4 30.1 L 31.4 63.5 L -0.7 63.5 Z M -0.7 30.1 "></path></clipPath><g clip-path="url(#clip0x6000028ba520)"><text xml:space="preserve" font-family="Georgia,Georgia" font-size="20.0" fill="#000000" transform="matrix(1.00, 0.00, -0.00, -1.00, 5.0, 40.2)">2</text><text xml:space="preserve" font-family="Georgia,Georgia" font-size="20.0" fill="#000000" transform="matrix(1.00, 0.00, -0.00, -1.00, 16.2, 40.2)">1</text></g></g><g><clipPath id="clip0x6000028ba7c0"><path d="M -0.7 60.4 L 34.0 60.4 L 34.0 93.8 L -0.7 93.8 Z M -0.7 60.4 "></path></clipPath><g clip-path="url(#clip0x6000028ba7c0)"><text xml:space="preserve" font-family="Georgia,Georgia" font-size="20.0" fill="#000000" transform="matrix(1.00, 0.00, -0.00, -1.00, 5.0, 70.5)">2</text><text xml:space="preserve" font-family="Georgia,Georgia" font-size="20.0" fill="#000000" transform="matrix(1.00, 0.00, -0.00, -1.00, 16.2, 70.5)">2</text></g></g><g><clipPath id="clip0x6000028baa60"><path d="M -0.7 90.8 L 33.9 90.8 L 33.9 124.1 L -0.7 124.1 Z M -0.7 90.8 "></path></clipPath><g clip-path="url(#clip0x6000028baa60)"><text xml:space="preserve" font-family="Georgia,Georgia" font-size="20.0" fill="#000000" transform="matrix(1.00, 0.00, -0.00, -1.00, 5.0, 100.8)">2</text><text xml:space="preserve" font-family="Georgia,Georgia" font-size="20.0" fill="#000000" transform="matrix(1.00, 0.00, -0.00, -1.00, 16.2, 100.8)">3</text></g></g><g><clipPath id="clip0x6000028bad00"><path d="M -0.7 121.1 L 34.2 121.1 L 34.2 154.5 L -0.7 154.5 Z M -0.7 121.1 "></path></clipPath><g clip-path="url(#clip0x6000028bad00)"><text xml:space="preserve" font-family="Georgia,Georgia" font-size="20.0" fill="#000000" transform="matrix(1.00, 0.00, -0.00, -1.00, 5.0, 131.2)">2</text><text xml:space="preserve" font-family="Georgia,Georgia" font-size="20.0" fill="#000000" transform="matrix(1.00, 0.00, -0.00, -1.00, 16.2, 131.2)">4</text></g></g><g><clipPath id="clip0x6000028bafa0"><path d="M -0.7 151.4 L 33.4 151.4 L 33.4 184.8 L -0.7 184.8 Z M -0.7 151.4 "></path></clipPath><g clip-path="url(#clip0x6000028bafa0)"><text xml:space="preserve" font-family="Georgia,Georgia" font-size="20.0" fill="#000000" transform="matrix(1.00, 0.00, -0.00, -1.00, 5.0, 161.5)">2</text><text xml:space="preserve" font-family="Georgia,Georgia" font-size="20.0" fill="#000000" transform="matrix(1.00, 0.00, -0.00, -1.00, 16.2, 161.5)">5</text></g></g><g><clipPath id="clip0x6000028bb240"><path d="M -0.7 181.8 L 34.2 181.8 L 34.2 215.1 L -0.7 215.1 Z M -0.7 181.8 "></path></clipPath><g clip-path="url(#clip0x6000028bb240)"><text xml:space="preserve" font-family="Georgia,Georgia" font-size="20.0" fill="#000000" transform="matrix(1.00, 0.00, -0.00, -1.00, 5.0, 191.8)">2</text><text xml:space="preserve" font-family="Georgia,Georgia" font-size="20.0" fill="#000000" transform="matrix(1.00, 0.00, -0.00, -1.00, 16.2, 191.8)">6</text></g></g><g><clipPath id="clip0x6000028bb4e0"><path d="M -0.7 212.1 L 32.9 212.1 L 32.9 245.5 L -0.7 245.5 Z M -0.7 212.1 "></path></clipPath><g clip-path="url(#clip0x6000028bb4e0)"><text xml:space="preserve" font-family="Georgia,Georgia" font-size="20.0" fill="#000000" transform="matrix(1.00, 0.00, -0.00, -1.00, 5.0, 222.2)">2</text><text xml:space="preserve" font-family="Georgia,Georgia" font-size="20.0" fill="#000000" transform="matrix(1.00, 0.00, -0.00, -1.00, 16.2, 222.2)">7</text></g></g><g><clipPath id="clip0x6080022a82e0"><path d="M -0.7 242.4 L 34.8 242.4 L 34.8 275.8 L -0.7 275.8 Z M -0.7 242.4 "></path></clipPath><g clip-path="url(#clip0x6080022a82e0)"><text xml:space="preserve" font-family="Georgia,Georgia" font-size="20.0" fill="#000000" transform="matrix(1.00, 0.00, -0.00, -1.00, 5.0, 252.5)">2</text><text xml:space="preserve" font-family="Georgia,Georgia" font-size="20.0" fill="#000000" transform="matrix(1.00, 0.00, -0.00, -1.00, 16.2, 252.5)">8</text></g></g><g><clipPath id="clip0x6080022a8580"><path d="M -0.7 272.7 L 59.0 272.7 L 59.0 306.1 L -0.7 306.1 Z M -0.7 272.7 "></path></clipPath><g clip-path="url(#clip0x6080022a8580)"><text xml:space="preserve" font-family="Georgia,Georgia" font-size="20.0" fill="#000000" transform="matrix(1.00, 0.00, -0.00, -1.00, 5.0, 282.8)">2</text><text xml:space="preserve" font-family="Georgia,Georgia" font-size="20.0" fill="#000000" transform="matrix(1.00, 0.00, -0.00, -1.00, 16.2, 282.8)">9</text><text xml:space="preserve" font-family="Georgia,Georgia" font-size="20.0" fill="#000000" transform="matrix(1.00, 0.00, -0.00, -1.00, 27.5, 282.8)"> </text><text xml:space="preserve" font-family="Georgia,Georgia" font-size="13.3" fill="#000000" transform="matrix(1.00, 0.00, -0.00, -1.00, 32.3, 288.9)">o</text><text xml:space="preserve" font-family="Georgia,Georgia" font-size="20.0" fill="#000000" transform="matrix(1.00, 0.00, -0.00, -1.00, 39.5, 282.8)">C</text></g></g></g></svg>