<?xml version="1.0" encoding="UTF-8" standalone="no"?><svg xmlns="http://www.w3.org/2000/svg" xmlns:xlink="http://www.w3.org/1999/xlink" clip-rule="evenodd" stroke-miterlimit="10" viewBox="0 0 94 308"><desc>SVG generated by Keynote</desc><defs><linearGradient id="gradSh1.2" x1="0.0" y1="0.0" x2="100.0" y2="0.0" gradientUnits="userSpaceOnUse" gradientTransform="matrix(-1.29, 2.88, 1.89, 0.85, 111.9, 10.4)"><stop offset="0.00000" stop-color="#ACA1A8"></stop><stop offset="0.00220" stop-color="#ACA2A8"></stop><stop offset="1.00000" stop-color="#FEF1FF"></stop></linearGradient></defs><g transform="matrix(1.00, 0.00, -0.00, -1.00, 0.0, 308.0)"><g><clipPath id="clip0x600001ca15c0"><path d="M 3.0 306.0 L 92.0 306.0 L 92.0 3.0 L 3.0 3.0 Z M 2.6 305.6 "></path></clipPath><g clip-path="url(#clip0x600001ca15c0)"><g><clipPath id="clip0x600001ca17a0"><path d="M 0.6 0.7 L 93.7 0.7 L 93.7 307.6 L 0.6 307.6 Z M 0.6 0.7 "></path></clipPath><g clip-path="url(#clip0x600001ca17a0)"><path d="M 0.6 0.7 L 93.7 0.7 L 93.7 307.6 L 0.6 307.6 Z M 0.6 0.7 " fill="url(#gradSh1.2)"></path></g></g></g></g><g><clipPath id="clip0x600001ca19e0"><path d="M 0.6 0.7 L 93.7 0.7 L 93.7 307.6 L 0.6 307.6 Z M 0.6 0.7 "></path></clipPath><g clip-path="url(#clip0x600001ca19e0)"><path d="M 0.4 -0.4 L 89.4 -0.4 L 89.4 302.6 L 0.4 302.6 Z M 0.0 0.0 " fill="none" stroke="#52575F" stroke-width="2.00" transform="matrix(1.00, 0.00, 0.00, -1.00, 2.6, 305.6)"></path></g></g><g><clipPath id="clip0x600001ca1c20"><path d="M 1.2 256.0 L 91.7 256.0 L 91.7 303.9 L 1.2 303.9 Z M 1.2 256.0 "></path></clipPath><g clip-path="url(#clip0x600001ca1c20)"><text xml:space="preserve" font-family="Georgia,Georgia" font-size="28.0" fill="#000000" transform="matrix(1.00, 0.00, -0.00, -1.00, 9.1, 270.1)">R</text><text xml:space="preserve" font-family="Georgia,Georgia" font-size="28.0" fill="#000000" transform="matrix(1.00, 0.00, -0.00, -1.00, 28.8, 270.1)">a</text><text xml:space="preserve" font-family="Georgia,Georgia" font-size="28.0" fill="#000000" transform="matrix(1.00, 0.00, -0.00, -1.00, 42.9, 270.1)">u</text><text xml:space="preserve" font-family="Georgia,Georgia" font-size="28.0" fill="#000000" transform="matrix(1.00, 0.00, -0.00, -1.00, 59.0, 270.1)">t</text><text xml:space="preserve" font-family="Georgia,Georgia" font-size="28.0" fill="#000000" transform="matrix(1.00, 0.00, -0.00, -1.00, 68.7, 270.1)">a</text></g></g><g><clipPath id="clip0x600001ca1f80"><path d="M 27.9 223.3 L 73.9 223.3 L 73.9 260.8 L 27.9 260.8 Z M 27.9 223.3 "></path></clipPath><g clip-path="url(#clip0x600001ca1f80)"><text xml:space="preserve" font-family="Georgia,Georgia" font-size="22.0" fill="#000000" transform="matrix(1.00, 0.00, -0.00, -1.00, 34.7, 234.4)">1</text><text xml:space="preserve" font-family="Georgia,Georgia" font-size="22.0" fill="#000000" transform="matrix(1.00, 0.00, -0.00, -1.00, 44.1, 234.4)">k</text><text xml:space="preserve" font-family="Georgia,Georgia" font-size="22.0" fill="#000000" transform="matrix(1.00, 0.00, -0.00, -1.00, 55.9, 234.4)">g</text></g></g></g></svg>