<?xml version="1.0" encoding="UTF-8" standalone="no"?><svg xmlns="http://www.w3.org/2000/svg" xmlns:xlink="http://www.w3.org/1999/xlink" clip-rule="evenodd" stroke-miterlimit="10" viewBox="0 0 1024 768"><desc>SVG generated by Keynote</desc><defs></defs><g transform="matrix(1.00, 0.00, -0.00, -1.00, 0.0, 768.0)"><path d="M 0.0 768.0 L 1024.0 768.0 L 1024.0 0.0 L 0.0 0.0 Z M 0.0 768.0 " fill="#FEFFFF"></path><text xml:space="preserve" font-family="Georgia,Georgia" font-size="65.0" fill="#000000" transform="matrix(1.00, 0.00, -0.00, -1.00, 376.0, 648.3)">N</text><text xml:space="preserve" font-family="Georgia,Georgia" font-size="65.0" fill="#000000" transform="matrix(1.00, 0.00, -0.00, -1.00, 425.9, 648.3)">o</text><text xml:space="preserve" font-family="Georgia,Georgia" font-size="65.0" fill="#000000" transform="matrix(1.00, 0.00, -0.00, -1.00, 460.9, 648.3)">r</text><text xml:space="preserve" font-family="Georgia,Georgia" font-size="65.0" fill="#000000" transform="matrix(1.00, 0.00, -0.00, -1.00, 487.6, 648.3)">m</text><text xml:space="preserve" font-family="Georgia,Georgia" font-size="65.0" fill="#000000" transform="matrix(1.00, 0.00, -0.00, -1.00, 544.8, 648.3)">a</text><text xml:space="preserve" font-family="Georgia,Georgia" font-size="65.0" fill="#000000" transform="matrix(1.00, 0.00, -0.00, -1.00, 577.6, 648.3)">a</text><text xml:space="preserve" font-family="Georgia,Georgia" font-size="65.0" fill="#000000" transform="matrix(1.00, 0.00, -0.00, -1.00, 610.4, 648.3)">l</text><text xml:space="preserve" font-family="Georgia,Georgia" font-size="65.0" fill="#000000" transform="matrix(1.00, 0.00, -0.00, -1.00, 629.0, 648.3)">i</text><path d="M 0.0 0.0 L 361.6 0.0 " fill="none" stroke="#000000" stroke-width="2.00" transform="matrix(0.37, 0.93, 0.93, -0.37, 450.2, 69.8)"></path><path d="M 0.0 0.0 L 334.8 0.0 " fill="none" stroke="#BD5A0C" stroke-width="3.00" stroke-dasharray="6.0, 6.0" transform="matrix(-0.45, 0.89, 0.89, 0.45, 583.0, 101.3)"></path><text xml:space="preserve" font-family="Georgia,Georgia" font-size="36.0" fill="#000000" transform="matrix(1.00, 0.00, -0.00, -1.00, 59.6, 518.7)">M</text><text xml:space="preserve" font-family="Georgia,Georgia" font-size="36.0" fill="#000000" transform="matrix(1.00, 0.00, -0.00, -1.00, 93.0, 518.7)">i</text><text xml:space="preserve" font-family="Georgia,Georgia" font-size="36.0" fill="#000000" transform="matrix(1.00, 0.00, -0.00, -1.00, 103.5, 518.7)">k</text><text xml:space="preserve" font-family="Georgia,Georgia" font-size="36.0" fill="#000000" transform="matrix(1.00, 0.00, -0.00, -1.00, 122.8, 518.7)">ä</text><text xml:space="preserve" font-family="Georgia,Georgia" font-size="36.0" fill="#000000" transform="matrix(1.00, 0.00, -0.00, -1.00, 140.9, 518.7)"> </text><text xml:space="preserve" font-family="Georgia,Georgia" font-size="36.0" fill="#000000" transform="matrix(1.00, 0.00, -0.00, -1.00, 149.6, 518.7)">s</text><text xml:space="preserve" font-family="Georgia,Georgia" font-size="36.0" fill="#000000" transform="matrix(1.00, 0.00, -0.00, -1.00, 165.2, 518.7)">e</text><text xml:space="preserve" font-family="Georgia,Georgia" font-size="36.0" fill="#000000" transform="matrix(1.00, 0.00, -0.00, -1.00, 182.6, 518.7)">u</text><text xml:space="preserve" font-family="Georgia,Georgia" font-size="36.0" fill="#000000" transform="matrix(1.00, 0.00, -0.00, -1.00, 203.3, 518.7)">r</text><text xml:space="preserve" font-family="Georgia,Georgia" font-size="36.0" fill="#000000" transform="matrix(1.00, 0.00, -0.00, -1.00, 218.0, 518.7)">a</text><text xml:space="preserve" font-family="Georgia,Georgia" font-size="36.0" fill="#000000" transform="matrix(1.00, 0.00, -0.00, -1.00, 236.2, 518.7)">a</text><text xml:space="preserve" font-family="Georgia,Georgia" font-size="36.0" fill="#000000" transform="matrix(1.00, 0.00, -0.00, -1.00, 254.3, 518.7)">v</text><text xml:space="preserve" font-family="Georgia,Georgia" font-size="36.0" fill="#000000" transform="matrix(1.00, 0.00, -0.00, -1.00, 272.2, 518.7)">i</text><text xml:space="preserve" font-family="Georgia,Georgia" font-size="36.0" fill="#000000" transform="matrix(1.00, 0.00, -0.00, -1.00, 282.7, 518.7)">s</text><text xml:space="preserve" font-family="Georgia,Georgia" font-size="36.0" fill="#000000" transform="matrix(1.00, 0.00, -0.00, -1.00, 298.3, 518.7)">t</text><text xml:space="preserve" font-family="Georgia,Georgia" font-size="36.0" fill="#000000" transform="matrix(1.00, 0.00, -0.00, -1.00, 310.7, 518.7)">a</text><text xml:space="preserve" font-family="Georgia,Georgia" font-size="36.0" fill="#000000" transform="matrix(1.00, 0.00, -0.00, -1.00, 328.9, 518.7)"> </text><text xml:space="preserve" font-family="Georgia,Georgia" font-size="36.0" fill="#000000" transform="matrix(1.00, 0.00, -0.00, -1.00, 337.5, 518.7)">o</text><text xml:space="preserve" font-family="Georgia,Georgia" font-size="36.0" fill="#000000" transform="matrix(1.00, 0.00, -0.00, -1.00, 357.0, 518.7)">n</text><text xml:space="preserve" font-family="Georgia,Georgia" font-size="36.0" fill="#000000" transform="matrix(1.00, 0.00, -0.00, -1.00, 378.2, 518.7)"> </text><text xml:space="preserve" font-family="Georgia,Georgia" font-size="36.0" fill="#000000" transform="matrix(1.00, 0.00, -0.00, -1.00, 386.9, 518.7)">n</text><text xml:space="preserve" font-family="Georgia,Georgia" font-size="36.0" fill="#000000" transform="matrix(1.00, 0.00, -0.00, -1.00, 408.2, 518.7)">o</text><text xml:space="preserve" font-family="Georgia,Georgia" font-size="36.0" fill="#000000" transform="matrix(1.00, 0.00, -0.00, -1.00, 427.6, 518.7)">r</text><text xml:space="preserve" font-family="Georgia,Georgia" font-size="36.0" fill="#000000" transform="matrix(1.00, 0.00, -0.00, -1.00, 442.3, 518.7)">m</text><text xml:space="preserve" font-family="Georgia,Georgia" font-size="36.0" fill="#000000" transform="matrix(1.00, 0.00, -0.00, -1.00, 474.0, 518.7)">a</text><text xml:space="preserve" font-family="Georgia,Georgia" font-size="36.0" fill="#000000" transform="matrix(1.00, 0.00, -0.00, -1.00, 492.2, 518.7)">a</text><text xml:space="preserve" font-family="Georgia,Georgia" font-size="36.0" fill="#000000" transform="matrix(1.00, 0.00, -0.00, -1.00, 510.3, 518.7)">l</text><text xml:space="preserve" font-family="Georgia,Georgia" font-size="36.0" fill="#000000" transform="matrix(1.00, 0.00, -0.00, -1.00, 520.6, 518.7)">i</text><text xml:space="preserve" font-family="Georgia,Georgia" font-size="36.0" fill="#000000" transform="matrix(1.00, 0.00, -0.00, -1.00, 531.2, 518.7)">?</text><path d="M 0.0 0.0 L 334.8 0.0 " fill="none" stroke="#BD5A0C" stroke-width="3.00" stroke-dasharray="6.0, 6.0" transform="matrix(-0.90, 0.44, 0.44, 0.90, 659.0, 163.7)"></path><path d="M 0.0 0.0 L 334.8 0.0 " fill="none" stroke="#BD5A0C" stroke-width="3.00" stroke-dasharray="6.0, 6.0" transform="matrix(-1.00, -0.01, -0.01, 1.00, 681.8, 233.9)"></path><path d="M 0.0 0.0 L 334.8 0.0 " fill="none" stroke="#BD5A0C" stroke-width="3.00" stroke-dasharray="6.0, 6.0" transform="matrix(0.00, 1.00, 1.00, -0.00, 514.0, 96.0)"></path><g><clipPath id="clip0x7f8e80b5c210"><path d="M 268.8 288.8 L 350.8 288.8 L 350.8 370.9 L 268.8 370.9 Z M 268.8 288.8 "></path></clipPath><g clip-path="url(#clip0x7f8e80b5c210)"><image xlink:href="../../F52AC24A-3983-4222-9BE7-A56F107F58E2/assets/D036DD584701D6D3C78097235DF49C63.png" width="80.00" height="80.00" transform="matrix(1.00, 0.00, -0.00, -1.00, 269.8, 369.9)" opacity="0.50"></image><path d="M 336.0 358.0 C 350.4 343.6 350.4 320.1 336.0 305.7 C 321.5 291.2 298.1 291.2 283.7 305.7 C 269.2 320.1 269.2 343.6 283.7 358.0 C 298.1 372.5 321.5 372.5 336.0 358.0 Z M 336.0 358.0 " fill="#C82505"></path></g></g><g><clipPath id="clip0x7f8e80b5e4a0"><path d="M 270.2 280.9 L 374.7 280.9 L 374.7 391.7 L 270.2 391.7 Z M 270.2 280.9 "></path></clipPath><g clip-path="url(#clip0x7f8e80b5e4a0)"><text xml:space="preserve" font-family="LMRoman10-Regular,Latin Modern Roman" font-size="52.0" fill="#000000" transform="matrix(1.00, 0.00, -0.00, -1.00, 288.6, 314.4)">B</text><text xml:space="preserve" font-family="LMRoman10-Regular,Latin Modern Roman" font-size="52.0" fill="#000000" transform="matrix(1.00, 0.00, -0.00, -1.00, 325.4, 314.4)">.</text></g></g><g><clipPath id="clip0x7f8e80b603d0"><path d="M 247.2 190.6 L 329.2 190.6 L 329.2 272.6 L 247.2 272.6 Z M 247.2 190.6 "></path></clipPath><g clip-path="url(#clip0x7f8e80b603d0)"><image xlink:href="../../F52AC24A-3983-4222-9BE7-A56F107F58E2/assets/D036DD584701D6D3C78097235DF49C63.png" width="80.00" height="80.00" transform="matrix(1.00, 0.00, -0.00, -1.00, 248.2, 271.6)" opacity="0.50"></image><path d="M 314.4 259.8 C 328.9 245.3 328.9 221.9 314.4 207.5 C 300.0 193.0 276.5 193.0 262.1 207.5 C 247.6 221.9 247.6 245.3 262.1 259.8 C 276.5 274.3 300.0 274.3 314.4 259.8 Z M 314.4 259.8 " fill="#00872A"></path></g></g><g><clipPath id="clip0x7f8e80b624f0"><path d="M 245.6 182.2 L 336.9 182.2 L 336.9 293.1 L 245.6 293.1 Z M 245.6 182.2 "></path></clipPath><g clip-path="url(#clip0x7f8e80b624f0)"><text xml:space="preserve" font-family="LMRoman10-Regular,Latin Modern Roman" font-size="52.0" fill="#000000" transform="matrix(1.00, 0.00, -0.00, -1.00, 264.0, 215.7)">A</text><text xml:space="preserve" font-family="LMRoman10-Regular,Latin Modern Roman" font-size="52.0" fill="#000000" transform="matrix(1.00, 0.00, -0.00, -1.00, 303.0, 215.7)">.</text></g></g><g><clipPath id="clip0x7f8e80b63e50"><path d="M 390.5 391.4 L 472.5 391.4 L 472.5 473.4 L 390.5 473.4 Z M 390.5 391.4 "></path></clipPath><g clip-path="url(#clip0x7f8e80b63e50)"><image xlink:href="../../F52AC24A-3983-4222-9BE7-A56F107F58E2/assets/D036DD584701D6D3C78097235DF49C63.png" width="80.00" height="80.00" transform="matrix(1.00, 0.00, -0.00, -1.00, 391.5, 472.4)" opacity="0.50"></image><path d="M 457.6 460.6 C 472.1 446.1 472.1 422.7 457.6 408.2 C 443.2 393.8 419.8 393.8 405.3 408.2 C 390.9 422.7 390.9 446.1 405.3 460.6 C 419.8 475.0 443.2 475.0 457.6 460.6 Z M 457.6 460.6 " fill="#0264C0"></path></g></g><g><clipPath id="clip0x7f8e80b65f30"><path d="M 388.1 382.5 L 492.6 382.5 L 492.6 493.3 L 388.1 493.3 Z M 388.1 382.5 "></path></clipPath><g clip-path="url(#clip0x7f8e80b65f30)"><text xml:space="preserve" font-family="LMRoman10-Regular,Latin Modern Roman" font-size="52.0" fill="#000000" transform="matrix(1.00, 0.00, -0.00, -1.00, 406.6, 416.0)">C</text><text xml:space="preserve" font-family="LMRoman10-Regular,Latin Modern Roman" font-size="52.0" fill="#000000" transform="matrix(1.00, 0.00, -0.00, -1.00, 444.1, 416.0)">.</text></g></g><g><clipPath id="clip0x7f8e80b67890"><path d="M 483.5 422.8 L 565.5 422.8 L 565.5 504.9 L 483.5 504.9 Z M 483.5 422.8 "></path></clipPath><g clip-path="url(#clip0x7f8e80b67890)"><image xlink:href="../../F52AC24A-3983-4222-9BE7-A56F107F58E2/assets/D036DD584701D6D3C78097235DF49C63.png" width="80.00" height="80.00" transform="matrix(1.00, 0.00, -0.00, -1.00, 484.5, 503.9)" opacity="0.50"></image><path d="M 550.7 492.0 C 565.1 477.6 565.1 454.1 550.7 439.7 C 536.2 425.2 512.8 425.2 498.3 439.7 C 483.9 454.1 483.9 477.6 498.3 492.0 C 512.8 506.5 536.2 506.5 550.7 492.0 Z M 550.7 492.0 " fill="#F5D327"></path></g></g><g><clipPath id="clip0x7f8e80b699e0"><path d="M 482.7 413.9 L 587.2 413.9 L 587.2 524.7 L 482.7 524.7 Z M 482.7 413.9 "></path></clipPath><g clip-path="url(#clip0x7f8e80b699e0)"><text xml:space="preserve" font-family="LMRoman10-Regular,Latin Modern Roman" font-size="52.0" fill="#000000" transform="matrix(1.00, 0.00, -0.00, -1.00, 501.1, 447.4)">D</text><text xml:space="preserve" font-family="LMRoman10-Regular,Latin Modern Roman" font-size="52.0" fill="#000000" transform="matrix(1.00, 0.00, -0.00, -1.00, 540.8, 447.4)">.</text></g></g><g><clipPath id="clip0x7f8e80b6b320"><path d="M 567.6 390.8 L 649.6 390.8 L 649.6 472.8 L 567.6 472.8 Z M 567.6 390.8 "></path></clipPath><g clip-path="url(#clip0x7f8e80b6b320)"><image xlink:href="../../F52AC24A-3983-4222-9BE7-A56F107F58E2/assets/D036DD584701D6D3C78097235DF49C63.png" width="80.00" height="80.00" transform="matrix(1.00, 0.00, -0.00, -1.00, 568.6, 471.8)" opacity="0.50"></image><path d="M 634.8 460.0 C 649.2 445.5 649.2 422.1 634.8 407.6 C 620.3 393.2 596.9 393.2 582.4 407.6 C 568.0 422.1 568.0 445.5 582.4 460.0 C 596.9 474.4 620.3 474.4 634.8 460.0 Z M 634.8 460.0 " fill="#000000"></path></g></g><g><clipPath id="clip0x7f8e80b6d400"><path d="M 572.3 381.8 L 676.8 381.8 L 676.8 492.7 L 572.3 492.7 Z M 572.3 381.8 "></path></clipPath><g clip-path="url(#clip0x7f8e80b6d400)"><text xml:space="preserve" font-family="LMRoman10-Regular,Latin Modern Roman" font-size="52.0" fill="#FEFFFE" transform="matrix(1.00, 0.00, -0.00, -1.00, 590.7, 415.3)">E</text><text xml:space="preserve" font-family="LMRoman10-Regular,Latin Modern Roman" font-size="52.0" fill="#FEFFFE" transform="matrix(1.00, 0.00, -0.00, -1.00, 626.1, 415.3)">.</text></g></g><g><clipPath id="clip0x7f8e80b6ed60"><path d="M 818.1 153.4 L 900.1 153.4 L 900.1 235.4 L 818.1 235.4 Z M 818.1 153.4 "></path></clipPath><g clip-path="url(#clip0x7f8e80b6ed60)"><image xlink:href="../../F52AC24A-3983-4222-9BE7-A56F107F58E2/assets/D036DD584701D6D3C78097235DF49C63.png" width="80.00" height="80.00" transform="matrix(1.00, 0.00, -0.00, -1.00, 819.1, 234.4)" opacity="0.50"></image><path d="M 885.3 222.6 C 899.8 208.1 899.8 184.7 885.3 170.2 C 870.8 155.8 847.4 155.8 833.0 170.2 C 818.5 184.7 818.5 208.1 833.0 222.6 C 847.4 237.0 870.8 237.0 885.3 222.6 Z M 885.3 222.6 " fill="#DCDDE0"></path></g></g><g><clipPath id="clip0x7f8e80b70e40"><path d="M 821.6 144.4 L 926.1 144.4 L 926.1 255.3 L 821.6 255.3 Z M 821.6 144.4 "></path></clipPath><g clip-path="url(#clip0x7f8e80b70e40)"><text xml:space="preserve" font-family="LMRoman10-Regular,Latin Modern Roman" font-size="52.0" fill="#000000" transform="matrix(1.00, 0.00, -0.00, -1.00, 840.0, 177.9)">F</text><text xml:space="preserve" font-family="LMRoman10-Regular,Latin Modern Roman" font-size="52.0" fill="#000000" transform="matrix(1.00, 0.00, -0.00, -1.00, 873.9, 177.9)">.</text></g></g><text xml:space="preserve" font-family="LMRoman10-Regular,Latin Modern Roman" font-size="50.0" fill="#000000" transform="matrix(1.00, 0.00, -0.00, -1.00, 919.5, 167.2)">?</text><text xml:space="preserve" font-family="LMRoman10-Regular,Latin Modern Roman" font-size="50.0" fill="#000000" transform="matrix(1.00, 0.00, -0.00, -1.00, 943.1, 167.2)">?</text></g></svg>