<?xml version="1.0" encoding="UTF-8" standalone="no"?><svg xmlns="http://www.w3.org/2000/svg" xmlns:xlink="http://www.w3.org/1999/xlink" clip-rule="evenodd" stroke-miterlimit="10" viewBox="0 0 1024 768"><desc>SVG generated by Keynote</desc><defs><pattern id="5A04E652-AAD3-47AA-AB42-BEAA07452755" patternUnits="userSpaceOnUse" width="600" height="600" viewBox="0 0 600 600"><image xlink:href="../../EEC9EF7D-8F97-471C-8063-A25CA4F5BF84/assets/9FCE571DE120514E82622C251A6D1721.jpeg" width="600.00" height="600.00"></image></pattern><pattern id="59E63178-4850-4F24-A503-53C46467D72F" patternUnits="userSpaceOnUse" width="600" height="600" viewBox="0 0 600 600"><image xlink:href="../../EEC9EF7D-8F97-471C-8063-A25CA4F5BF84/assets/15C55D9F48ABB2997E46C76C56D934C7.png" width="600.00" height="600.00"></image></pattern></defs><g transform="matrix(1.00, 0.00, -0.00, -1.00, 0.0, 768.0)"><path d="M 0.0 768.0 L 1024.0 768.0 L 1024.0 0.0 L 0.0 0.0 Z M 0.0 768.0 " fill="#FEFFFF"></path><image xlink:href="../../EEC9EF7D-8F97-471C-8063-A25CA4F5BF84/assets/4B15A88A22BF5535EFE77BBA54F6BD00.png" width="1055.00" height="331.00" transform="matrix(1.00, 0.00, -0.00, -1.00, -15.5, 636.7)" opacity="0.50"></image><g><clipPath id="clip0x7ff023e7ed00"><path d="M -12.0 636.0 L 1037.0 636.0 L 1037.0 310.0 L -12.0 310.0 Z M -12.5 635.7 "></path></clipPath><g clip-path="url(#clip0x7ff023e7ed00)"><path d="M 0.0 310.0 L 1024.0 310.0 L 1024.0 636.0 L 0.0 636.0 Z M 0.0 310.0 " fill="url(#5A04E652-AAD3-47AA-AB42-BEAA07452755)"></path></g></g><g><clipPath id="clip0x7ff0240db260"><path d="M -16.5 -14.9 L 1040.5 -14.9 L 1040.5 318.3 L -16.5 318.3 Z M -16.5 -14.9 "></path></clipPath><g clip-path="url(#clip0x7ff0240db260)"><image xlink:href="../../EEC9EF7D-8F97-471C-8063-A25CA4F5BF84/assets/80FC2C4960890CD843ADD2E1E5E1713F.png" width="1055.00" height="331.00" transform="matrix(1.00, 0.00, -0.00, -1.00, -15.5, 317.3)" opacity="0.50"></image></g></g><g><clipPath id="clip0x7ff0240cba60"><path d="M -12.0 316.0 L 1037.0 316.0 L 1037.0 -9.0 L -12.0 -9.0 Z M -12.5 316.3 "></path></clipPath><g clip-path="url(#clip0x7ff0240cba60)"><g><clipPath id="clip0x7ff0240cc190"><path d="M -16.5 -14.9 L 1040.5 -14.9 L 1040.5 318.3 L -16.5 318.3 Z M -16.5 -14.9 "></path></clipPath><g clip-path="url(#clip0x7ff0240cc190)"><path d="M 0.0 0.0 L 1024.0 0.0 L 1024.0 316.0 L 0.0 316.0 Z M 0.0 0.0 " fill="url(#59E63178-4850-4F24-A503-53C46467D72F)"></path></g></g></g></g><g><clipPath id="clip0x7ff0414c8620"><path d="M 2.0 320.5 L 150.6 320.5 L 150.6 421.0 L 2.0 421.0 Z M 2.0 320.5 "></path></clipPath><g clip-path="url(#clip0x7ff0414c8620)"><text xml:space="preserve" font-family="Georgia,Georgia" font-size="36.0" fill="#DCDDE0" transform="matrix(1.00, 0.00, -0.00, -1.00, 12.2, 357.9)">A</text><text xml:space="preserve" font-family="Georgia,Georgia" font-size="36.0" fill="#DCDDE0" transform="matrix(1.00, 0.00, -0.00, -1.00, 36.3, 357.9)">s</text><text xml:space="preserve" font-family="Georgia,Georgia" font-size="36.0" fill="#DCDDE0" transform="matrix(1.00, 0.00, -0.00, -1.00, 51.9, 357.9)">f</text><text xml:space="preserve" font-family="Georgia,Georgia" font-size="36.0" fill="#DCDDE0" transform="matrix(1.00, 0.00, -0.00, -1.00, 63.6, 357.9)">a</text><text xml:space="preserve" font-family="Georgia,Georgia" font-size="36.0" fill="#DCDDE0" transform="matrix(1.00, 0.00, -0.00, -1.00, 81.7, 357.9)">l</text><text xml:space="preserve" font-family="Georgia,Georgia" font-size="36.0" fill="#DCDDE0" transform="matrix(1.00, 0.00, -0.00, -1.00, 92.0, 357.9)">t</text><text xml:space="preserve" font-family="Georgia,Georgia" font-size="36.0" fill="#DCDDE0" transform="matrix(1.00, 0.00, -0.00, -1.00, 104.4, 357.9)">t</text><text xml:space="preserve" font-family="Georgia,Georgia" font-size="36.0" fill="#DCDDE0" transform="matrix(1.00, 0.00, -0.00, -1.00, 116.9, 357.9)">i</text></g></g><g><clipPath id="clip0x7ff041c196b0"><path d="M 7.3 215.5 L 145.3 215.5 L 145.3 316.0 L 7.3 316.0 Z M 7.3 215.5 "></path></clipPath><g clip-path="url(#clip0x7ff041c196b0)"><text xml:space="preserve" font-family="Georgia,Georgia" font-size="36.0" fill="#000000" transform="matrix(1.00, 0.00, -0.00, -1.00, 17.5, 252.9)">H</text><text xml:space="preserve" font-family="Georgia,Georgia" font-size="36.0" fill="#000000" transform="matrix(1.00, 0.00, -0.00, -1.00, 46.9, 252.9)">i</text><text xml:space="preserve" font-family="Georgia,Georgia" font-size="36.0" fill="#000000" transform="matrix(1.00, 0.00, -0.00, -1.00, 57.4, 252.9)">e</text><text xml:space="preserve" font-family="Georgia,Georgia" font-size="36.0" fill="#000000" transform="matrix(1.00, 0.00, -0.00, -1.00, 74.8, 252.9)">k</text><text xml:space="preserve" font-family="Georgia,Georgia" font-size="36.0" fill="#000000" transform="matrix(1.00, 0.00, -0.00, -1.00, 94.1, 252.9)">k</text><text xml:space="preserve" font-family="Georgia,Georgia" font-size="36.0" fill="#000000" transform="matrix(1.00, 0.00, -0.00, -1.00, 113.4, 252.9)">a</text></g></g><text xml:space="preserve" font-family="Georgia,Georgia" font-size="65.0" fill="#000000" transform="matrix(1.00, 0.00, -0.00, -1.00, 249.8, 672.0)">K</text><text xml:space="preserve" font-family="Georgia,Georgia" font-size="65.0" fill="#000000" transform="matrix(1.00, 0.00, -0.00, -1.00, 295.0, 672.0)">o</text><text xml:space="preserve" font-family="Georgia,Georgia" font-size="65.0" fill="#000000" transform="matrix(1.00, 0.00, -0.00, -1.00, 330.0, 672.0)">k</text><text xml:space="preserve" font-family="Georgia,Georgia" font-size="65.0" fill="#000000" transform="matrix(1.00, 0.00, -0.00, -1.00, 364.8, 672.0)">o</text><text xml:space="preserve" font-family="Georgia,Georgia" font-size="65.0" fill="#000000" transform="matrix(1.00, 0.00, -0.00, -1.00, 399.9, 672.0)">n</text><text xml:space="preserve" font-family="Georgia,Georgia" font-size="65.0" fill="#000000" transform="matrix(1.00, 0.00, -0.00, -1.00, 438.2, 672.0)">a</text><text xml:space="preserve" font-family="Georgia,Georgia" font-size="65.0" fill="#000000" transform="matrix(1.00, 0.00, -0.00, -1.00, 471.0, 672.0)">i</text><text xml:space="preserve" font-family="Georgia,Georgia" font-size="65.0" fill="#000000" transform="matrix(1.00, 0.00, -0.00, -1.00, 490.0, 672.0)">s</text><text xml:space="preserve" font-family="Georgia,Georgia" font-size="65.0" fill="#000000" transform="matrix(1.00, 0.00, -0.00, -1.00, 518.1, 672.0)">h</text><text xml:space="preserve" font-family="Georgia,Georgia" font-size="65.0" fill="#000000" transform="matrix(1.00, 0.00, -0.00, -1.00, 556.0, 672.0)">e</text><text xml:space="preserve" font-family="Georgia,Georgia" font-size="65.0" fill="#000000" transform="matrix(1.00, 0.00, -0.00, -1.00, 587.4, 672.0)">i</text><text xml:space="preserve" font-family="Georgia,Georgia" font-size="65.0" fill="#000000" transform="matrix(1.00, 0.00, -0.00, -1.00, 606.5, 672.0)">j</text><text xml:space="preserve" font-family="Georgia,Georgia" font-size="65.0" fill="#000000" transform="matrix(1.00, 0.00, -0.00, -1.00, 625.4, 672.0)">a</text><text xml:space="preserve" font-family="Georgia,Georgia" font-size="65.0" fill="#000000" transform="matrix(1.00, 0.00, -0.00, -1.00, 658.2, 672.0)">s</text><text xml:space="preserve" font-family="Georgia,Georgia" font-size="65.0" fill="#000000" transform="matrix(1.00, 0.00, -0.00, -1.00, 686.3, 672.0)">t</text><text xml:space="preserve" font-family="Georgia,Georgia" font-size="65.0" fill="#000000" transform="matrix(1.00, 0.00, -0.00, -1.00, 708.7, 672.0)">u</text><text xml:space="preserve" font-family="Georgia,Georgia" font-size="65.0" fill="#000000" transform="matrix(1.00, 0.00, -0.00, -1.00, 746.1, 672.0)">s</text><g><clipPath id="clip0x7ff041c1cc50"><path d="M 837.8 162.2 L 852.0 188.7 L 895.2 165.6 L 881.0 139.1 Z M 837.8 162.2 "></path></clipPath><g clip-path="url(#clip0x7ff041c1cc50)"><image xlink:href="../../0A5867B1-2BB7-426E-AAB2-3ADD7F2697C3/assets/E32DB32B07B8572EDF3FD8FB4F31090D.png" width="28.00" height="47.00" transform="matrix(0.47, 0.88, 0.88, -0.47, 839.1, 162.7)" opacity="0.50"></image><path d="M 859.2 177.9 C 867.8 177.8 878.7 172.0 883.5 164.9 C 888.4 157.9 885.4 152.3 876.9 152.4 C 868.3 152.6 857.4 158.4 852.5 165.5 C 847.7 172.5 850.7 178.1 859.2 177.9 Z M 859.2 177.9 " fill="#A6AAA8"></path><path d="M 17.1 5.7 C 21.0 13.3 21.0 25.7 17.1 33.3 C 13.2 40.9 6.8 40.9 2.9 33.3 C -1.0 25.7 -1.0 13.3 2.9 5.7 C 6.8 -1.9 13.2 -1.9 17.1 5.7 Z M 17.1 5.7 " fill="none" stroke="#000000" stroke-width="2.00" transform="matrix(0.47, 0.88, 0.88, -0.47, 846.1, 165.6)"></path></g></g><g><clipPath id="clip0x7ff041c0cb40"><path d="M 818.0 75.9 L 867.2 167.8 L 870.7 165.9 L 821.5 74.0 Z M 818.0 75.9 "></path></clipPath><g clip-path="url(#clip0x7ff041c0cb40)"><path d="M 0.0 0.0 L 102.3 0.0 " fill="none" stroke="#000000" stroke-width="2.00" transform="matrix(0.47, 0.88, 0.88, -0.47, 820.2, 75.8)"></path></g></g><g><clipPath id="clip0x7ff041c0db30"><path d="M 787.8 68.8 L 801.9 95.3 L 845.2 72.1 L 831.0 45.7 Z M 787.8 68.8 "></path></clipPath><g clip-path="url(#clip0x7ff041c0db30)"><image xlink:href="../../0A5867B1-2BB7-426E-AAB2-3ADD7F2697C3/assets/E32DB32B07B8572EDF3FD8FB4F31090D.png" width="28.00" height="47.00" transform="matrix(0.47, 0.88, 0.88, -0.47, 789.1, 69.2)" opacity="0.50"></image><path d="M 809.2 84.5 C 817.7 84.4 828.6 78.5 833.5 71.5 C 838.4 64.4 835.4 58.8 826.8 59.0 C 818.3 59.1 807.4 65.0 802.5 72.0 C 797.6 79.1 800.6 84.6 809.2 84.5 Z M 809.2 84.5 " fill="#A6AAA8"></path><path d="M 17.1 5.7 C 21.0 13.3 21.0 25.7 17.1 33.3 C 13.2 40.9 6.8 40.9 2.9 33.3 C -1.0 25.7 -1.0 13.3 2.9 5.7 C 6.8 -1.9 13.2 -1.9 17.1 5.7 Z M 17.1 5.7 " fill="none" stroke="#000000" stroke-width="2.00" transform="matrix(0.47, 0.88, 0.88, -0.47, 796.1, 72.1)"></path></g></g><path d="M 0.0 146.9 L 334.9 0.0 L 731.6 191.3 " fill="none" stroke="#EB5C56" stroke-width="6.00" stroke-dasharray="12.0, 12.0" transform="matrix(1.00, 0.00, 0.00, -1.00, 101.3, 307.1)"></path></g></svg>