<?xml version="1.0" encoding="UTF-8" standalone="no"?><svg xmlns="http://www.w3.org/2000/svg" xmlns:xlink="http://www.w3.org/1999/xlink" clip-rule="evenodd" stroke-miterlimit="10" viewBox="0 0 1024 768"><desc>SVG generated by Keynote</desc><defs></defs><g transform="matrix(1.00, 0.00, -0.00, -1.00, 0.0, 768.0)"><path d="M 0.0 768.0 L 1024.0 768.0 L 1024.0 0.0 L 0.0 0.0 Z M 0.0 768.0 " fill="#FEFFFF"></path><text xml:space="preserve" font-family="Georgia,Georgia" font-size="80.0" fill="#000000" transform="matrix(1.00, 0.00, -0.00, -1.00, 145.8, 664.9)">V</text><text xml:space="preserve" font-family="Georgia,Georgia" font-size="80.0" fill="#000000" transform="matrix(1.00, 0.00, -0.00, -1.00, 199.0, 664.9)">a</text><text xml:space="preserve" font-family="Georgia,Georgia" font-size="80.0" fill="#000000" transform="matrix(1.00, 0.00, -0.00, -1.00, 239.3, 664.9)">l</text><text xml:space="preserve" font-family="Georgia,Georgia" font-size="80.0" fill="#000000" transform="matrix(1.00, 0.00, -0.00, -1.00, 262.2, 664.9)">o</text><text xml:space="preserve" font-family="Georgia,Georgia" font-size="80.0" fill="#000000" transform="matrix(1.00, 0.00, -0.00, -1.00, 305.4, 664.9)"> </text><text xml:space="preserve" font-family="Georgia,Georgia" font-size="80.0" fill="#000000" transform="matrix(1.00, 0.00, -0.00, -1.00, 324.7, 664.9)">t</text><text xml:space="preserve" font-family="Georgia,Georgia" font-size="80.0" fill="#000000" transform="matrix(1.00, 0.00, -0.00, -1.00, 352.3, 664.9)">a</text><text xml:space="preserve" font-family="Georgia,Georgia" font-size="80.0" fill="#000000" transform="matrix(1.00, 0.00, -0.00, -1.00, 392.6, 664.9)">i</text><text xml:space="preserve" font-family="Georgia,Georgia" font-size="80.0" fill="#000000" transform="matrix(1.00, 0.00, -0.00, -1.00, 416.1, 664.9)">t</text><text xml:space="preserve" font-family="Georgia,Georgia" font-size="80.0" fill="#000000" transform="matrix(1.00, 0.00, -0.00, -1.00, 443.7, 664.9)">t</text><text xml:space="preserve" font-family="Georgia,Georgia" font-size="80.0" fill="#000000" transform="matrix(1.00, 0.00, -0.00, -1.00, 471.3, 664.9)">u</text><text xml:space="preserve" font-family="Georgia,Georgia" font-size="80.0" fill="#000000" transform="matrix(1.00, 0.00, -0.00, -1.00, 517.4, 664.9)">u</text><text xml:space="preserve" font-family="Georgia,Georgia" font-size="80.0" fill="#000000" transform="matrix(1.00, 0.00, -0.00, -1.00, 563.4, 664.9)"> </text><text xml:space="preserve" font-family="Georgia,Georgia" font-size="80.0" fill="#000000" transform="matrix(1.00, 0.00, -0.00, -1.00, 582.7, 664.9)">l</text><text xml:space="preserve" font-family="Georgia,Georgia" font-size="80.0" fill="#000000" transform="matrix(1.00, 0.00, -0.00, -1.00, 605.6, 664.9)">i</text><text xml:space="preserve" font-family="Georgia,Georgia" font-size="80.0" fill="#000000" transform="matrix(1.00, 0.00, -0.00, -1.00, 629.0, 664.9)">n</text><text xml:space="preserve" font-family="Georgia,Georgia" font-size="80.0" fill="#000000" transform="matrix(1.00, 0.00, -0.00, -1.00, 676.3, 664.9)">s</text><text xml:space="preserve" font-family="Georgia,Georgia" font-size="80.0" fill="#000000" transform="matrix(1.00, 0.00, -0.00, -1.00, 710.9, 664.9)">s</text><text xml:space="preserve" font-family="Georgia,Georgia" font-size="80.0" fill="#000000" transform="matrix(1.00, 0.00, -0.00, -1.00, 745.4, 664.9)">i</text><text xml:space="preserve" font-family="Georgia,Georgia" font-size="80.0" fill="#000000" transform="matrix(1.00, 0.00, -0.00, -1.00, 768.9, 664.9)">s</text><text xml:space="preserve" font-family="Georgia,Georgia" font-size="80.0" fill="#000000" transform="matrix(1.00, 0.00, -0.00, -1.00, 803.5, 664.9)">s</text><text xml:space="preserve" font-family="Georgia,Georgia" font-size="80.0" fill="#000000" transform="matrix(1.00, 0.00, -0.00, -1.00, 838.0, 664.9)">ä</text><path d="M 528.8 504.2 C 504.3 454.0 491.2 385.6 492.8 315.4 C 494.2 255.3 506.2 198.3 526.7 154.5 C 547.0 192.7 560.1 244.0 563.7 299.6 C 568.5 375.0 555.6 450.6 528.8 504.2 Z M 528.8 504.2 " fill="#94DCFF"></path><path d="M 0.3 0.4 L 127.2 0.4 L 128.3 0.4 " fill="none" stroke="#DCBD22" stroke-width="2.00" transform="matrix(1.00, 0.00, 0.00, -1.00, 221.7, 437.4)"></path><path d="M 349.0 432.2 L 358.6 437.0 L 349.0 441.8 Z M 349.0 432.2 " fill="#DCBD22"></path><path d="M 0.2 0.4 L 146.2 0.4 " fill="none" stroke="#DCBD22" stroke-width="2.00" transform="matrix(1.00, 0.00, 0.00, -1.00, 357.8, 437.4)"></path><path d="M 0.0 0.0 L 52.8 0.0 " fill="none" stroke="#DCBD22" stroke-width="2.00" transform="matrix(0.98, -0.20, -0.20, -0.98, 503.4, 437.5)"></path><path d="M 0.0 0.0 L 322.5 0.0 " fill="none" stroke="#DCBD22" stroke-width="2.00" transform="matrix(0.71, -0.71, -0.71, -0.71, 554.8, 426.1)"></path><path d="M 0.2 0.4 L 146.2 0.4 " fill="none" stroke="#DCBD22" stroke-width="2.00" transform="matrix(1.00, 0.00, 0.00, -1.00, 356.8, 222.4)"></path><path d="M 0.0 0.0 L 50.9 0.0 " fill="none" stroke="#DCBD22" stroke-width="2.00" transform="matrix(0.97, 0.25, 0.25, -0.97, 503.4, 223.5)"></path><path d="M 0.0 0.0 L 281.3 0.0 " fill="none" stroke="#DCBD22" stroke-width="2.00" transform="matrix(0.73, 0.68, 0.68, -0.73, 554.4, 236.6)"></path><path d="M 0.0 0.0 L 414.5 0.0 " fill="none" stroke="#DCBD22" stroke-width="2.00" transform="matrix(1.00, 0.01, 0.01, -1.00, 358.8, 329.4)"></path><path d="M 0.3 0.4 L 127.2 0.4 L 128.3 0.4 " fill="none" stroke="#DCBD22" stroke-width="2.00" transform="matrix(1.00, 0.00, 0.00, -1.00, 220.7, 222.4)"></path><path d="M 348.0 217.2 L 357.6 222.0 L 348.0 226.8 Z M 348.0 217.2 " fill="#DCBD22"></path><path d="M 0.3 0.4 L 127.2 0.4 L 128.3 0.4 " fill="none" stroke="#DCBD22" stroke-width="2.00" transform="matrix(1.00, 0.00, 0.00, -1.00, 222.7, 329.4)"></path><path d="M 350.0 324.2 L 359.6 329.0 L 350.0 333.8 Z M 350.0 324.2 " fill="#DCBD22"></path><image xlink:href="88DBCE0FA269C7A2E842BEC045FB182F.png" width="16.00" height="16.00" transform="matrix(0.98, 0.00, -0.00, -0.98, 646.7, 335.1)" opacity="0.50"></image><path d="M 657.9 332.7 C 659.7 330.8 659.7 327.8 657.9 325.9 C 656.0 324.0 652.9 324.0 651.1 325.9 C 649.2 327.8 649.2 330.8 651.1 332.7 C 652.9 334.6 656.0 334.6 657.9 332.7 Z M 657.9 332.7 " fill="#000000"></path><text xml:space="preserve" font-family="Georgia,Georgia" font-size="28.0" fill="#000000" transform="matrix(1.00, 0.00, -0.00, -1.00, 591.5, 194.4)">P</text><text xml:space="preserve" font-family="Georgia,Georgia" font-size="28.0" fill="#000000" transform="matrix(1.00, 0.00, -0.00, -1.00, 608.6, 194.4)">o</text><text xml:space="preserve" font-family="Georgia,Georgia" font-size="28.0" fill="#000000" transform="matrix(1.00, 0.00, -0.00, -1.00, 623.7, 194.4)">l</text><text xml:space="preserve" font-family="Georgia,Georgia" font-size="28.0" fill="#000000" transform="matrix(1.00, 0.00, -0.00, -1.00, 631.7, 194.4)">t</text><text xml:space="preserve" font-family="Georgia,Georgia" font-size="28.0" fill="#000000" transform="matrix(1.00, 0.00, -0.00, -1.00, 641.4, 194.4)">t</text><text xml:space="preserve" font-family="Georgia,Georgia" font-size="28.0" fill="#000000" transform="matrix(1.00, 0.00, -0.00, -1.00, 651.0, 194.4)">o</text><text xml:space="preserve" font-family="Georgia,Georgia" font-size="28.0" fill="#000000" transform="matrix(1.00, 0.00, -0.00, -1.00, 666.1, 194.4)">p</text><text xml:space="preserve" font-family="Georgia,Georgia" font-size="28.0" fill="#000000" transform="matrix(1.00, 0.00, -0.00, -1.00, 682.1, 194.4)">i</text><text xml:space="preserve" font-family="Georgia,Georgia" font-size="28.0" fill="#000000" transform="matrix(1.00, 0.00, -0.00, -1.00, 690.3, 194.4)">s</text><text xml:space="preserve" font-family="Georgia,Georgia" font-size="28.0" fill="#000000" transform="matrix(1.00, 0.00, -0.00, -1.00, 702.4, 194.4)">t</text><text xml:space="preserve" font-family="Georgia,Georgia" font-size="28.0" fill="#000000" transform="matrix(1.00, 0.00, -0.00, -1.00, 712.1, 194.4)">e</text><path d="M 0.0 0.0 L 86.1 0.0 L 87.1 0.0 " fill="none" stroke="#000000" stroke-width="2.00" transform="matrix(0.25, 0.97, 0.97, -0.25, 627.8, 220.9)"></path><path d="M 654.0 303.0 L 651.8 313.5 L 644.7 305.4 Z M 654.0 303.0 " fill="#000000"></path></g></svg>