<?xml version="1.0" encoding="UTF-8" standalone="no"?><svg xmlns="http://www.w3.org/2000/svg" xmlns:xlink="http://www.w3.org/1999/xlink" clip-rule="evenodd" stroke-miterlimit="10" viewBox="0 0 401 401"><desc>SVG generated by Keynote</desc><defs></defs><g transform="matrix(1.00, 0.00, -0.00, -1.00, 0.0, 401.0)"><g><clipPath id="clip0x7ff02611f060"><path d="M 0.0 1.0 L 400.0 1.0 L 400.0 401.0 L 0.0 401.0 Z M 0.0 1.0 "></path></clipPath><g clip-path="url(#clip0x7ff02611f060)"><path d="M 338.0 58.0 C 415.4 135.3 415.4 260.7 338.0 338.0 C 260.7 415.4 135.3 415.4 58.0 338.0 C -19.3 260.7 -19.3 135.3 58.0 58.0 C 135.3 -19.3 260.7 -19.3 338.0 58.0 Z M 338.0 58.0 " fill="none" stroke="#85878C" stroke-width="2.00" stroke-dasharray="12.0, 12.0" transform="matrix(1.00, 0.00, 0.00, -1.00, 2.0, 399.0)"></path></g></g><g><clipPath id="clip0x7ff03e6d7400"><path d="M 43.8 2.4 L 357.2 2.4 L 357.2 398.3 L 43.8 398.3 Z M 43.8 2.4 "></path></clipPath><g clip-path="url(#clip0x7ff03e6d7400)"><path d="M 266.5 386.8 C 241.9 395.1 215.8 398.5 189.9 396.9 C 174.6 396.0 159.4 393.3 144.7 388.9 C 129.2 365.6 115.6 341.0 104.0 315.4 C 92.2 289.2 82.6 262.0 74.4 234.3 C 59.7 184.3 49.7 133.1 44.8 81.2 C 80.2 33.6 135.5 5.0 194.8 3.5 C 258.4 1.8 318.8 31.6 356.2 83.0 C 349.7 144.1 336.7 204.3 317.7 262.8 C 303.8 305.4 286.7 346.8 266.5 386.8 Z M 266.5 386.8 " fill="#94DCFF"></path></g></g></g></svg>