<?xml version="1.0" encoding="UTF-8" standalone="no"?><svg xmlns="http://www.w3.org/2000/svg" xmlns:xlink="http://www.w3.org/1999/xlink" clip-rule="evenodd" stroke-miterlimit="10" viewBox="0 0 1024 768"><desc>SVG generated by Keynote</desc><defs></defs><g transform="matrix(1.00, 0.00, -0.00, -1.00, 0.0, 768.0)"><path d="M 0.0 768.0 L 1024.0 768.0 L 1024.0 0.0 L 0.0 0.0 Z M 0.0 768.0 " fill="#FEFFFF"></path><text xml:space="preserve" font-family="Georgia,Georgia" font-size="65.0" fill="#000000" transform="matrix(1.00, 0.00, -0.00, -1.00, 286.4, 648.3)">M</text><text xml:space="preserve" font-family="Georgia,Georgia" font-size="65.0" fill="#000000" transform="matrix(1.00, 0.00, -0.00, -1.00, 346.7, 648.3)">i</text><text xml:space="preserve" font-family="Georgia,Georgia" font-size="65.0" fill="#000000" transform="matrix(1.00, 0.00, -0.00, -1.00, 365.7, 648.3)">t</text><text xml:space="preserve" font-family="Georgia,Georgia" font-size="65.0" fill="#000000" transform="matrix(1.00, 0.00, -0.00, -1.00, 388.2, 648.3)">ä</text><text xml:space="preserve" font-family="Georgia,Georgia" font-size="65.0" fill="#000000" transform="matrix(1.00, 0.00, -0.00, -1.00, 420.9, 648.3)"> </text><text xml:space="preserve" font-family="Georgia,Georgia" font-size="65.0" fill="#000000" transform="matrix(1.00, 0.00, -0.00, -1.00, 436.6, 648.3)">l</text><text xml:space="preserve" font-family="Georgia,Georgia" font-size="65.0" fill="#000000" transform="matrix(1.00, 0.00, -0.00, -1.00, 455.2, 648.3)">ä</text><text xml:space="preserve" font-family="Georgia,Georgia" font-size="65.0" fill="#000000" transform="matrix(1.00, 0.00, -0.00, -1.00, 488.0, 648.3)">m</text><text xml:space="preserve" font-family="Georgia,Georgia" font-size="65.0" fill="#000000" transform="matrix(1.00, 0.00, -0.00, -1.00, 545.2, 648.3)">p</text><text xml:space="preserve" font-family="Georgia,Georgia" font-size="65.0" fill="#000000" transform="matrix(1.00, 0.00, -0.00, -1.00, 582.4, 648.3)">ö</text><text xml:space="preserve" font-family="Georgia,Georgia" font-size="65.0" fill="#000000" transform="matrix(1.00, 0.00, -0.00, -1.00, 617.4, 648.3)"> </text><text xml:space="preserve" font-family="Georgia,Georgia" font-size="65.0" fill="#000000" transform="matrix(1.00, 0.00, -0.00, -1.00, 633.1, 648.3)">o</text><text xml:space="preserve" font-family="Georgia,Georgia" font-size="65.0" fill="#000000" transform="matrix(1.00, 0.00, -0.00, -1.00, 668.2, 648.3)">n</text><text xml:space="preserve" font-family="Georgia,Georgia" font-size="65.0" fill="#000000" transform="matrix(1.00, 0.00, -0.00, -1.00, 706.6, 648.3)">?</text><text xml:space="preserve" font-family="Georgia,Georgia" font-size="36.0" fill="#000000" transform="matrix(1.00, 0.00, -0.00, -1.00, 194.0, 569.1)">M</text><text xml:space="preserve" font-family="Georgia,Georgia" font-size="36.0" fill="#000000" transform="matrix(1.00, 0.00, -0.00, -1.00, 227.4, 569.1)">i</text><text xml:space="preserve" font-family="Georgia,Georgia" font-size="36.0" fill="#000000" transform="matrix(1.00, 0.00, -0.00, -1.00, 237.9, 569.1)">t</text><text xml:space="preserve" font-family="Georgia,Georgia" font-size="36.0" fill="#000000" transform="matrix(1.00, 0.00, -0.00, -1.00, 250.3, 569.1)">e</text><text xml:space="preserve" font-family="Georgia,Georgia" font-size="36.0" fill="#000000" transform="matrix(1.00, 0.00, -0.00, -1.00, 267.8, 569.1)">n</text><text xml:space="preserve" font-family="Georgia,Georgia" font-size="36.0" fill="#000000" transform="matrix(1.00, 0.00, -0.00, -1.00, 289.0, 569.1)"> </text><text xml:space="preserve" font-family="Georgia,Georgia" font-size="36.0" fill="#0264C0" transform="matrix(1.00, 0.00, -0.00, -1.00, 297.7, 569.1)">k</text><text xml:space="preserve" font-family="Georgia,Georgia" font-size="36.0" fill="#0264C0" transform="matrix(1.00, 0.00, -0.00, -1.00, 317.0, 569.1)">y</text><text xml:space="preserve" font-family="Georgia,Georgia" font-size="36.0" fill="#0264C0" transform="matrix(1.00, 0.00, -0.00, -1.00, 334.7, 569.1)">l</text><text xml:space="preserve" font-family="Georgia,Georgia" font-size="36.0" fill="#0264C0" transform="matrix(1.00, 0.00, -0.00, -1.00, 345.0, 569.1)">m</text><text xml:space="preserve" font-family="Georgia,Georgia" font-size="36.0" fill="#0264C0" transform="matrix(1.00, 0.00, -0.00, -1.00, 376.7, 569.1)">ä</text><text xml:space="preserve" font-family="Georgia,Georgia" font-size="36.0" fill="#000000" transform="matrix(1.00, 0.00, -0.00, -1.00, 394.8, 569.1)"> </text><text xml:space="preserve" font-family="Georgia,Georgia" font-size="36.0" fill="#000000" transform="matrix(1.00, 0.00, -0.00, -1.00, 403.5, 569.1)">k</text><text xml:space="preserve" font-family="Georgia,Georgia" font-size="36.0" fill="#000000" transform="matrix(1.00, 0.00, -0.00, -1.00, 422.8, 569.1)">a</text><text xml:space="preserve" font-family="Georgia,Georgia" font-size="36.0" fill="#000000" transform="matrix(1.00, 0.00, -0.00, -1.00, 440.9, 569.1)">p</text><text xml:space="preserve" font-family="Georgia,Georgia" font-size="36.0" fill="#000000" transform="matrix(1.00, 0.00, -0.00, -1.00, 461.5, 569.1)">p</text><text xml:space="preserve" font-family="Georgia,Georgia" font-size="36.0" fill="#000000" transform="matrix(1.00, 0.00, -0.00, -1.00, 482.1, 569.1)">a</text><text xml:space="preserve" font-family="Georgia,Georgia" font-size="36.0" fill="#000000" transform="matrix(1.00, 0.00, -0.00, -1.00, 500.2, 569.1)">l</text><text xml:space="preserve" font-family="Georgia,Georgia" font-size="36.0" fill="#000000" transform="matrix(1.00, 0.00, -0.00, -1.00, 510.5, 569.1)">e</text><text xml:space="preserve" font-family="Georgia,Georgia" font-size="36.0" fill="#000000" transform="matrix(1.00, 0.00, -0.00, -1.00, 527.9, 569.1)"> </text><text xml:space="preserve" font-family="Georgia,Georgia" font-size="36.0" fill="#000000" transform="matrix(1.00, 0.00, -0.00, -1.00, 536.6, 569.1)">e</text><text xml:space="preserve" font-family="Georgia,Georgia" font-size="36.0" fill="#000000" transform="matrix(1.00, 0.00, -0.00, -1.00, 554.0, 569.1)">r</text><text xml:space="preserve" font-family="Georgia,Georgia" font-size="36.0" fill="#000000" transform="matrix(1.00, 0.00, -0.00, -1.00, 568.8, 569.1)">o</text><text xml:space="preserve" font-family="Georgia,Georgia" font-size="36.0" fill="#000000" transform="matrix(1.00, 0.00, -0.00, -1.00, 588.2, 569.1)">a</text><text xml:space="preserve" font-family="Georgia,Georgia" font-size="36.0" fill="#000000" transform="matrix(1.00, 0.00, -0.00, -1.00, 606.3, 569.1)">a</text><text xml:space="preserve" font-family="Georgia,Georgia" font-size="36.0" fill="#000000" transform="matrix(1.00, 0.00, -0.00, -1.00, 624.5, 569.1)"> </text><text xml:space="preserve" font-family="Georgia,Georgia" font-size="36.0" fill="#C82505" transform="matrix(1.00, 0.00, -0.00, -1.00, 633.1, 569.1)">k</text><text xml:space="preserve" font-family="Georgia,Georgia" font-size="36.0" fill="#C82505" transform="matrix(1.00, 0.00, -0.00, -1.00, 652.4, 569.1)">u</text><text xml:space="preserve" font-family="Georgia,Georgia" font-size="36.0" fill="#C82505" transform="matrix(1.00, 0.00, -0.00, -1.00, 673.1, 569.1)">u</text><text xml:space="preserve" font-family="Georgia,Georgia" font-size="36.0" fill="#C82505" transform="matrix(1.00, 0.00, -0.00, -1.00, 693.9, 569.1)">m</text><text xml:space="preserve" font-family="Georgia,Georgia" font-size="36.0" fill="#C82505" transform="matrix(1.00, 0.00, -0.00, -1.00, 725.5, 569.1)">a</text><text xml:space="preserve" font-family="Georgia,Georgia" font-size="36.0" fill="#C82505" transform="matrix(1.00, 0.00, -0.00, -1.00, 743.7, 569.1)">s</text><text xml:space="preserve" font-family="Georgia,Georgia" font-size="36.0" fill="#C82505" transform="matrix(1.00, 0.00, -0.00, -1.00, 759.3, 569.1)">t</text><text xml:space="preserve" font-family="Georgia,Georgia" font-size="36.0" fill="#C82505" transform="matrix(1.00, 0.00, -0.00, -1.00, 771.7, 569.1)">a</text><text xml:space="preserve" font-family="Georgia,Georgia" font-size="36.0" fill="#000000" transform="matrix(1.00, 0.00, -0.00, -1.00, 789.8, 569.1)">?</text><g><clipPath id="clip0x608000eab9a0"><path d="M 330.0 528.0 L 479.0 528.0 L 479.0 330.0 L 330.0 330.0 Z M 329.6 528.1 "></path></clipPath><g clip-path="url(#clip0x608000eab9a0)"><image xlink:href="58E261839E8FCB6C3823FFD7458AA6BC.png" width="1000.00" height="282.00" transform="matrix(0.70, 0.00, -0.00, -0.70, 330.0, 528.0)"></image></g></g><g><clipPath id="clip0x608000eaba00"><path d="M 587.0 528.0 L 739.0 528.0 L 739.0 330.0 L 587.0 330.0 Z M 587.2 528.1 "></path></clipPath><g clip-path="url(#clip0x608000eaba00)"><image xlink:href="../../1039F32F-B212-4B9B-8CE5-6A5E6AA0BC1E/assets/58E261839E8FCB6C3823FFD7458AA6BC.png" width="1000.00" height="282.00" transform="matrix(0.70, 0.00, -0.00, -0.70, 442.0, 528.0)"></image></g></g><text xml:space="preserve" font-family="Georgia,Georgia" font-size="40.0" fill="#000000" transform="matrix(1.00, 0.00, -0.00, -1.00, 580.2, 264.7)">N</text><text xml:space="preserve" font-family="Georgia,Georgia" font-size="40.0" fill="#000000" transform="matrix(1.00, 0.00, -0.00, -1.00, 610.9, 264.7)">o</text><text xml:space="preserve" font-family="Georgia,Georgia" font-size="40.0" fill="#000000" transform="matrix(1.00, 0.00, -0.00, -1.00, 632.5, 264.7)">p</text><text xml:space="preserve" font-family="Georgia,Georgia" font-size="40.0" fill="#000000" transform="matrix(1.00, 0.00, -0.00, -1.00, 655.3, 264.7)">e</text><text xml:space="preserve" font-family="Georgia,Georgia" font-size="40.0" fill="#000000" transform="matrix(1.00, 0.00, -0.00, -1.00, 674.7, 264.7)">a</text><text xml:space="preserve" font-family="Georgia,Georgia" font-size="40.0" fill="#000000" transform="matrix(1.00, 0.00, -0.00, -1.00, 694.9, 264.7)"> </text><text xml:space="preserve" font-family="Georgia,Georgia" font-size="40.0" fill="#000000" transform="matrix(1.00, 0.00, -0.00, -1.00, 704.5, 264.7)">l</text><text xml:space="preserve" font-family="Georgia,Georgia" font-size="40.0" fill="#000000" transform="matrix(1.00, 0.00, -0.00, -1.00, 716.0, 264.7)">i</text><text xml:space="preserve" font-family="Georgia,Georgia" font-size="40.0" fill="#000000" transform="matrix(1.00, 0.00, -0.00, -1.00, 727.7, 264.7)">i</text><text xml:space="preserve" font-family="Georgia,Georgia" font-size="40.0" fill="#000000" transform="matrix(1.00, 0.00, -0.00, -1.00, 739.4, 264.7)">k</text><text xml:space="preserve" font-family="Georgia,Georgia" font-size="40.0" fill="#000000" transform="matrix(1.00, 0.00, -0.00, -1.00, 760.8, 264.7)">e</text><text xml:space="preserve" font-family="Georgia,Georgia" font-size="40.0" fill="#000000" transform="matrix(1.00, 0.00, -0.00, -1.00, 309.3, 264.7)">H</text><text xml:space="preserve" font-family="Georgia,Georgia" font-size="40.0" fill="#000000" transform="matrix(1.00, 0.00, -0.00, -1.00, 341.9, 264.7)">i</text><text xml:space="preserve" font-family="Georgia,Georgia" font-size="40.0" fill="#000000" transform="matrix(1.00, 0.00, -0.00, -1.00, 353.6, 264.7)">d</text><text xml:space="preserve" font-family="Georgia,Georgia" font-size="40.0" fill="#000000" transform="matrix(1.00, 0.00, -0.00, -1.00, 376.6, 264.7)">a</text><text xml:space="preserve" font-family="Georgia,Georgia" font-size="40.0" fill="#000000" transform="matrix(1.00, 0.00, -0.00, -1.00, 396.8, 264.7)">s</text><text xml:space="preserve" font-family="Georgia,Georgia" font-size="40.0" fill="#000000" transform="matrix(1.00, 0.00, -0.00, -1.00, 414.0, 264.7)"> </text><text xml:space="preserve" font-family="Georgia,Georgia" font-size="40.0" fill="#000000" transform="matrix(1.00, 0.00, -0.00, -1.00, 423.7, 264.7)">l</text><text xml:space="preserve" font-family="Georgia,Georgia" font-size="40.0" fill="#000000" transform="matrix(1.00, 0.00, -0.00, -1.00, 435.2, 264.7)">i</text><text xml:space="preserve" font-family="Georgia,Georgia" font-size="40.0" fill="#000000" transform="matrix(1.00, 0.00, -0.00, -1.00, 446.9, 264.7)">i</text><text xml:space="preserve" font-family="Georgia,Georgia" font-size="40.0" fill="#000000" transform="matrix(1.00, 0.00, -0.00, -1.00, 458.6, 264.7)">k</text><text xml:space="preserve" font-family="Georgia,Georgia" font-size="40.0" fill="#000000" transform="matrix(1.00, 0.00, -0.00, -1.00, 480.0, 264.7)">e</text><text xml:space="preserve" font-family="Georgia,Georgia" font-size="36.0" fill="#000000" transform="matrix(1.00, 0.00, -0.00, -1.00, 109.5, 122.1)">L</text><text xml:space="preserve" font-family="Georgia,Georgia" font-size="36.0" fill="#000000" transform="matrix(1.00, 0.00, -0.00, -1.00, 131.2, 122.1)">ä</text><text xml:space="preserve" font-family="Georgia,Georgia" font-size="36.0" fill="#000000" transform="matrix(1.00, 0.00, -0.00, -1.00, 149.3, 122.1)">m</text><text xml:space="preserve" font-family="Georgia,Georgia" font-size="36.0" fill="#000000" transform="matrix(1.00, 0.00, -0.00, -1.00, 181.0, 122.1)">p</text><text xml:space="preserve" font-family="Georgia,Georgia" font-size="36.0" fill="#000000" transform="matrix(1.00, 0.00, -0.00, -1.00, 201.6, 122.1)">ö</text><text xml:space="preserve" font-family="Georgia,Georgia" font-size="36.0" fill="#000000" transform="matrix(1.00, 0.00, -0.00, -1.00, 221.0, 122.1)"> </text><text xml:space="preserve" font-family="Georgia,Georgia" font-size="36.0" fill="#000000" transform="matrix(1.00, 0.00, -0.00, -1.00, 229.7, 122.1)">k</text><text xml:space="preserve" font-family="Georgia,Georgia" font-size="36.0" fill="#000000" transform="matrix(1.00, 0.00, -0.00, -1.00, 249.0, 122.1)">u</text><text xml:space="preserve" font-family="Georgia,Georgia" font-size="36.0" fill="#000000" transform="matrix(1.00, 0.00, -0.00, -1.00, 269.7, 122.1)">v</text><text xml:space="preserve" font-family="Georgia,Georgia" font-size="36.0" fill="#000000" transform="matrix(1.00, 0.00, -0.00, -1.00, 287.6, 122.1)">a</text><text xml:space="preserve" font-family="Georgia,Georgia" font-size="36.0" fill="#000000" transform="matrix(1.00, 0.00, -0.00, -1.00, 305.7, 122.1)">a</text><text xml:space="preserve" font-family="Georgia,Georgia" font-size="36.0" fill="#000000" transform="matrix(1.00, 0.00, -0.00, -1.00, 323.8, 122.1)"> </text><text xml:space="preserve" font-family="Georgia,Georgia" font-size="36.0" fill="#000000" transform="matrix(1.00, 0.00, -0.00, -1.00, 332.5, 122.1)">k</text><text xml:space="preserve" font-family="Georgia,Georgia" font-size="36.0" fill="#000000" transform="matrix(1.00, 0.00, -0.00, -1.00, 351.8, 122.1)">a</text><text xml:space="preserve" font-family="Georgia,Georgia" font-size="36.0" fill="#000000" transform="matrix(1.00, 0.00, -0.00, -1.00, 369.9, 122.1)">p</text><text xml:space="preserve" font-family="Georgia,Georgia" font-size="36.0" fill="#000000" transform="matrix(1.00, 0.00, -0.00, -1.00, 390.5, 122.1)">p</text><text xml:space="preserve" font-family="Georgia,Georgia" font-size="36.0" fill="#000000" transform="matrix(1.00, 0.00, -0.00, -1.00, 411.1, 122.1)">a</text><text xml:space="preserve" font-family="Georgia,Georgia" font-size="36.0" fill="#000000" transform="matrix(1.00, 0.00, -0.00, -1.00, 429.2, 122.1)">l</text><text xml:space="preserve" font-family="Georgia,Georgia" font-size="36.0" fill="#000000" transform="matrix(1.00, 0.00, -0.00, -1.00, 439.5, 122.1)">e</text><text xml:space="preserve" font-family="Georgia,Georgia" font-size="36.0" fill="#000000" transform="matrix(1.00, 0.00, -0.00, -1.00, 456.9, 122.1)">e</text><text xml:space="preserve" font-family="Georgia,Georgia" font-size="36.0" fill="#000000" transform="matrix(1.00, 0.00, -0.00, -1.00, 474.4, 122.1)">n</text><text xml:space="preserve" font-family="Georgia,Georgia" font-size="36.0" fill="#000000" transform="matrix(1.00, 0.00, -0.00, -1.00, 495.6, 122.1)"> </text><text xml:space="preserve" font-family="Georgia,Georgia" font-size="36.0" fill="#000000" transform="matrix(1.00, 0.00, -0.00, -1.00, 504.3, 122.1)">o</text><text xml:space="preserve" font-family="Georgia,Georgia" font-size="36.0" fill="#000000" transform="matrix(1.00, 0.00, -0.00, -1.00, 523.7, 122.1)">s</text><text xml:space="preserve" font-family="Georgia,Georgia" font-size="36.0" fill="#000000" transform="matrix(1.00, 0.00, -0.00, -1.00, 539.3, 122.1)">a</text><text xml:space="preserve" font-family="Georgia,Georgia" font-size="36.0" fill="#000000" transform="matrix(1.00, 0.00, -0.00, -1.00, 557.4, 122.1)">s</text><text xml:space="preserve" font-family="Georgia,Georgia" font-size="36.0" fill="#000000" transform="matrix(1.00, 0.00, -0.00, -1.00, 573.0, 122.1)">t</text><text xml:space="preserve" font-family="Georgia,Georgia" font-size="36.0" fill="#000000" transform="matrix(1.00, 0.00, -0.00, -1.00, 585.4, 122.1)">e</text><text xml:space="preserve" font-family="Georgia,Georgia" font-size="36.0" fill="#000000" transform="matrix(1.00, 0.00, -0.00, -1.00, 602.8, 122.1)">n</text><text xml:space="preserve" font-family="Georgia,Georgia" font-size="36.0" fill="#000000" transform="matrix(1.00, 0.00, -0.00, -1.00, 624.1, 122.1)"> </text><text xml:space="preserve" font-family="Georgia,Georgia" font-size="36.0" fill="#000000" transform="matrix(1.00, 0.00, -0.00, -1.00, 632.8, 122.1)">v</text><text xml:space="preserve" font-family="Georgia,Georgia" font-size="36.0" fill="#000000" transform="matrix(1.00, 0.00, -0.00, -1.00, 650.6, 122.1)">ä</text><text xml:space="preserve" font-family="Georgia,Georgia" font-size="36.0" fill="#000000" transform="matrix(1.00, 0.00, -0.00, -1.00, 668.8, 122.1)">r</text><text xml:space="preserve" font-family="Georgia,Georgia" font-size="36.0" fill="#000000" transform="matrix(1.00, 0.00, -0.00, -1.00, 683.5, 122.1)">ä</text><text xml:space="preserve" font-family="Georgia,Georgia" font-size="36.0" fill="#000000" transform="matrix(1.00, 0.00, -0.00, -1.00, 701.7, 122.1)">h</text><text xml:space="preserve" font-family="Georgia,Georgia" font-size="36.0" fill="#000000" transform="matrix(1.00, 0.00, -0.00, -1.00, 722.6, 122.1)">t</text><text xml:space="preserve" font-family="Georgia,Georgia" font-size="36.0" fill="#000000" transform="matrix(1.00, 0.00, -0.00, -1.00, 735.0, 122.1)">e</text><text xml:space="preserve" font-family="Georgia,Georgia" font-size="36.0" fill="#000000" transform="matrix(1.00, 0.00, -0.00, -1.00, 752.5, 122.1)">l</text><text xml:space="preserve" font-family="Georgia,Georgia" font-size="36.0" fill="#000000" transform="matrix(1.00, 0.00, -0.00, -1.00, 762.8, 122.1)">y</text><text xml:space="preserve" font-family="Georgia,Georgia" font-size="36.0" fill="#000000" transform="matrix(1.00, 0.00, -0.00, -1.00, 780.5, 122.1)">n</text><text xml:space="preserve" font-family="Georgia,Georgia" font-size="36.0" fill="#000000" transform="matrix(1.00, 0.00, -0.00, -1.00, 801.8, 122.1)"> </text><text xml:space="preserve" font-family="Georgia,Georgia" font-size="36.0" fill="#000000" transform="matrix(1.00, 0.00, -0.00, -1.00, 810.4, 122.1)">e</text><text xml:space="preserve" font-family="Georgia,Georgia" font-size="36.0" fill="#000000" transform="matrix(1.00, 0.00, -0.00, -1.00, 827.9, 122.1)">n</text><text xml:space="preserve" font-family="Georgia,Georgia" font-size="36.0" fill="#000000" transform="matrix(1.00, 0.00, -0.00, -1.00, 849.1, 122.1)">e</text><text xml:space="preserve" font-family="Georgia,Georgia" font-size="36.0" fill="#000000" transform="matrix(1.00, 0.00, -0.00, -1.00, 866.5, 122.1)">r</text><text xml:space="preserve" font-family="Georgia,Georgia" font-size="36.0" fill="#000000" transform="matrix(1.00, 0.00, -0.00, -1.00, 881.3, 122.1)">g</text><text xml:space="preserve" font-family="Georgia,Georgia" font-size="36.0" fill="#000000" transform="matrix(1.00, 0.00, -0.00, -1.00, 899.6, 122.1)">i</text><text xml:space="preserve" font-family="Georgia,Georgia" font-size="36.0" fill="#000000" transform="matrix(1.00, 0.00, -0.00, -1.00, 910.2, 122.1)">a</text><text xml:space="preserve" font-family="Georgia,Georgia" font-size="36.0" fill="#000000" transform="matrix(1.00, 0.00, -0.00, -1.00, 928.3, 122.1)">n</text><text xml:space="preserve" font-family="Georgia,Georgia" font-size="36.0" fill="#000000" transform="matrix(1.00, 0.00, -0.00, -1.00, 949.6, 122.1)"> </text><text xml:space="preserve" font-family="Georgia,Georgia" font-size="36.0" fill="#000000" transform="matrix(1.00, 0.00, -0.00, -1.00, 470.0, 81.1)">m</text><text xml:space="preserve" font-family="Georgia,Georgia" font-size="36.0" fill="#000000" transform="matrix(1.00, 0.00, -0.00, -1.00, 501.7, 81.1)">ä</text><text xml:space="preserve" font-family="Georgia,Georgia" font-size="36.0" fill="#000000" transform="matrix(1.00, 0.00, -0.00, -1.00, 519.8, 81.1)">ä</text><text xml:space="preserve" font-family="Georgia,Georgia" font-size="36.0" fill="#000000" transform="matrix(1.00, 0.00, -0.00, -1.00, 538.0, 81.1)">r</text><text xml:space="preserve" font-family="Georgia,Georgia" font-size="36.0" fill="#000000" transform="matrix(1.00, 0.00, -0.00, -1.00, 552.7, 81.1)">ä</text><text xml:space="preserve" font-family="Georgia,Georgia" font-size="36.0" fill="#000000" transform="matrix(1.00, 0.00, -0.00, -1.00, 570.9, 81.1)">ä</text></g></svg>