<?xml version="1.0" encoding="UTF-8" standalone="no"?><svg xmlns="http://www.w3.org/2000/svg" xmlns:xlink="http://www.w3.org/1999/xlink" clip-rule="evenodd" stroke-miterlimit="10" viewBox="0 0 1024 768"><desc>SVG generated by Keynote</desc><defs></defs><g transform="matrix(1.00, 0.00, -0.00, -1.00, 0.0, 768.0)"><path d="M 0.0 768.0 L 1024.0 768.0 L 1024.0 0.0 L 0.0 0.0 Z M 0.0 768.0 " fill="#FEFFFF"></path><text xml:space="preserve" font-family="Georgia,Georgia" font-size="65.0" fill="#000000" transform="matrix(1.00, 0.00, -0.00, -1.00, 297.1, 648.3)">S</text><text xml:space="preserve" font-family="Georgia,Georgia" font-size="65.0" fill="#000000" transform="matrix(1.00, 0.00, -0.00, -1.00, 333.6, 648.3)">ä</text><text xml:space="preserve" font-family="Georgia,Georgia" font-size="65.0" fill="#000000" transform="matrix(1.00, 0.00, -0.00, -1.00, 366.3, 648.3)">h</text><text xml:space="preserve" font-family="Georgia,Georgia" font-size="65.0" fill="#000000" transform="matrix(1.00, 0.00, -0.00, -1.00, 404.1, 648.3)">k</text><text xml:space="preserve" font-family="Georgia,Georgia" font-size="65.0" fill="#000000" transform="matrix(1.00, 0.00, -0.00, -1.00, 438.9, 648.3)">ö</text><text xml:space="preserve" font-family="Georgia,Georgia" font-size="65.0" fill="#000000" transform="matrix(1.00, 0.00, -0.00, -1.00, 474.0, 648.3)">m</text><text xml:space="preserve" font-family="Georgia,Georgia" font-size="65.0" fill="#000000" transform="matrix(1.00, 0.00, -0.00, -1.00, 531.2, 648.3)">o</text><text xml:space="preserve" font-family="Georgia,Georgia" font-size="65.0" fill="#000000" transform="matrix(1.00, 0.00, -0.00, -1.00, 566.3, 648.3)">o</text><text xml:space="preserve" font-family="Georgia,Georgia" font-size="65.0" fill="#000000" transform="matrix(1.00, 0.00, -0.00, -1.00, 601.3, 648.3)">t</text><text xml:space="preserve" font-family="Georgia,Georgia" font-size="65.0" fill="#000000" transform="matrix(1.00, 0.00, -0.00, -1.00, 623.8, 648.3)">t</text><text xml:space="preserve" font-family="Georgia,Georgia" font-size="65.0" fill="#000000" transform="matrix(1.00, 0.00, -0.00, -1.00, 646.2, 648.3)">o</text><text xml:space="preserve" font-family="Georgia,Georgia" font-size="65.0" fill="#000000" transform="matrix(1.00, 0.00, -0.00, -1.00, 681.3, 648.3)">r</text><text xml:space="preserve" font-family="Georgia,Georgia" font-size="65.0" fill="#000000" transform="matrix(1.00, 0.00, -0.00, -1.00, 707.9, 648.3)">i</text><text xml:space="preserve" font-family="Georgia,Georgia" font-size="25.7" fill="#000000" transform="matrix(1.00, 0.00, -0.00, -1.00, 20.1, 585.0)">•</text><text xml:space="preserve" font-family="Georgia,Georgia" font-size="34.2" fill="#000000" transform="matrix(1.00, 0.00, -0.00, -1.00, 53.4, 582.8)">S</text><text xml:space="preserve" font-family="Georgia,Georgia" font-size="34.2" fill="#000000" transform="matrix(1.00, 0.00, -0.00, -1.00, 72.6, 582.8)">ä</text><text xml:space="preserve" font-family="Georgia,Georgia" font-size="34.2" fill="#000000" transform="matrix(1.00, 0.00, -0.00, -1.00, 89.8, 582.8)">h</text><text xml:space="preserve" font-family="Georgia,Georgia" font-size="34.2" fill="#000000" transform="matrix(1.00, 0.00, -0.00, -1.00, 109.7, 582.8)">k</text><text xml:space="preserve" font-family="Georgia,Georgia" font-size="34.2" fill="#000000" transform="matrix(1.00, 0.00, -0.00, -1.00, 128.0, 582.8)">ö</text><text xml:space="preserve" font-family="Georgia,Georgia" font-size="34.2" fill="#000000" transform="matrix(1.00, 0.00, -0.00, -1.00, 146.5, 582.8)">m</text><text xml:space="preserve" font-family="Georgia,Georgia" font-size="34.2" fill="#000000" transform="matrix(1.00, 0.00, -0.00, -1.00, 176.6, 582.8)">o</text><text xml:space="preserve" font-family="Georgia,Georgia" font-size="34.2" fill="#000000" transform="matrix(1.00, 0.00, -0.00, -1.00, 195.0, 582.8)">o</text><text xml:space="preserve" font-family="Georgia,Georgia" font-size="34.2" fill="#000000" transform="matrix(1.00, 0.00, -0.00, -1.00, 213.5, 582.8)">t</text><text xml:space="preserve" font-family="Georgia,Georgia" font-size="34.2" fill="#000000" transform="matrix(1.00, 0.00, -0.00, -1.00, 225.3, 582.8)">t</text><text xml:space="preserve" font-family="Georgia,Georgia" font-size="34.2" fill="#000000" transform="matrix(1.00, 0.00, -0.00, -1.00, 237.1, 582.8)">o</text><text xml:space="preserve" font-family="Georgia,Georgia" font-size="34.2" fill="#000000" transform="matrix(1.00, 0.00, -0.00, -1.00, 255.5, 582.8)">r</text><text xml:space="preserve" font-family="Georgia,Georgia" font-size="34.2" fill="#000000" transform="matrix(1.00, 0.00, -0.00, -1.00, 269.5, 582.8)">i</text><text xml:space="preserve" font-family="Georgia,Georgia" font-size="34.2" fill="#000000" transform="matrix(1.00, 0.00, -0.00, -1.00, 279.5, 582.8)"> </text><text xml:space="preserve" font-family="Georgia,Georgia" font-size="34.2" fill="#000000" transform="matrix(1.00, 0.00, -0.00, -1.00, 287.8, 582.8)">t</text><text xml:space="preserve" font-family="Georgia,Georgia" font-size="34.2" fill="#000000" transform="matrix(1.00, 0.00, -0.00, -1.00, 299.6, 582.8)">o</text><text xml:space="preserve" font-family="Georgia,Georgia" font-size="34.2" fill="#000000" transform="matrix(1.00, 0.00, -0.00, -1.00, 318.1, 582.8)">i</text><text xml:space="preserve" font-family="Georgia,Georgia" font-size="34.2" fill="#000000" transform="matrix(1.00, 0.00, -0.00, -1.00, 328.1, 582.8)">m</text><text xml:space="preserve" font-family="Georgia,Georgia" font-size="34.2" fill="#000000" transform="matrix(1.00, 0.00, -0.00, -1.00, 358.2, 582.8)">i</text><text xml:space="preserve" font-family="Georgia,Georgia" font-size="34.2" fill="#000000" transform="matrix(1.00, 0.00, -0.00, -1.00, 368.2, 582.8)">i</text><text xml:space="preserve" font-family="Georgia,Georgia" font-size="34.2" fill="#000000" transform="matrix(1.00, 0.00, -0.00, -1.00, 378.2, 582.8)"> </text><text xml:space="preserve" font-family="Georgia,Georgia" font-size="34.2" fill="#000000" transform="matrix(1.00, 0.00, -0.00, -1.00, 386.5, 582.8)">m</text><text xml:space="preserve" font-family="Georgia,Georgia" font-size="34.2" fill="#000000" transform="matrix(1.00, 0.00, -0.00, -1.00, 416.6, 582.8)">a</text><text xml:space="preserve" font-family="Georgia,Georgia" font-size="34.2" fill="#000000" transform="matrix(1.00, 0.00, -0.00, -1.00, 433.8, 582.8)">g</text><text xml:space="preserve" font-family="Georgia,Georgia" font-size="34.2" fill="#000000" transform="matrix(1.00, 0.00, -0.00, -1.00, 451.3, 582.8)">n</text><text xml:space="preserve" font-family="Georgia,Georgia" font-size="34.2" fill="#000000" transform="matrix(1.00, 0.00, -0.00, -1.00, 471.5, 582.8)">e</text><text xml:space="preserve" font-family="Georgia,Georgia" font-size="34.2" fill="#000000" transform="matrix(1.00, 0.00, -0.00, -1.00, 488.0, 582.8)">e</text><text xml:space="preserve" font-family="Georgia,Georgia" font-size="34.2" fill="#000000" transform="matrix(1.00, 0.00, -0.00, -1.00, 504.6, 582.8)">t</text><text xml:space="preserve" font-family="Georgia,Georgia" font-size="34.2" fill="#000000" transform="matrix(1.00, 0.00, -0.00, -1.00, 516.4, 582.8)">t</text><text xml:space="preserve" font-family="Georgia,Georgia" font-size="34.2" fill="#000000" transform="matrix(1.00, 0.00, -0.00, -1.00, 528.2, 582.8)">i</text><text xml:space="preserve" font-family="Georgia,Georgia" font-size="34.2" fill="#000000" transform="matrix(1.00, 0.00, -0.00, -1.00, 538.2, 582.8)">e</text><text xml:space="preserve" font-family="Georgia,Georgia" font-size="34.2" fill="#000000" transform="matrix(1.00, 0.00, -0.00, -1.00, 554.8, 582.8)">n</text><text xml:space="preserve" font-family="Georgia,Georgia" font-size="34.2" fill="#000000" transform="matrix(1.00, 0.00, -0.00, -1.00, 575.0, 582.8)"> </text><text xml:space="preserve" font-family="Georgia,Georgia" font-size="34.2" fill="#000000" transform="matrix(1.00, 0.00, -0.00, -1.00, 583.2, 582.8)">a</text><text xml:space="preserve" font-family="Georgia,Georgia" font-size="34.2" fill="#000000" transform="matrix(1.00, 0.00, -0.00, -1.00, 600.4, 582.8)">v</text><text xml:space="preserve" font-family="Georgia,Georgia" font-size="34.2" fill="#000000" transform="matrix(1.00, 0.00, -0.00, -1.00, 617.4, 582.8)">u</text><text xml:space="preserve" font-family="Georgia,Georgia" font-size="34.2" fill="#000000" transform="matrix(1.00, 0.00, -0.00, -1.00, 637.1, 582.8)">l</text><text xml:space="preserve" font-family="Georgia,Georgia" font-size="34.2" fill="#000000" transform="matrix(1.00, 0.00, -0.00, -1.00, 646.9, 582.8)">l</text><text xml:space="preserve" font-family="Georgia,Georgia" font-size="34.2" fill="#000000" transform="matrix(1.00, 0.00, -0.00, -1.00, 656.7, 582.8)">a</text><text xml:space="preserve" font-family="Georgia,Georgia" font-size="34.2" fill="#000000" transform="matrix(1.00, 0.00, -0.00, -1.00, 673.9, 582.8)"> </text><text xml:space="preserve" font-family="Georgia,Georgia" font-size="25.7" fill="#000000" transform="matrix(1.00, 0.00, -0.00, -1.00, 20.1, 533.7)">•</text><text xml:space="preserve" font-family="Georgia,Georgia" font-size="34.2" fill="#000000" transform="matrix(1.00, 0.00, -0.00, -1.00, 53.4, 531.5)">M</text><text xml:space="preserve" font-family="Georgia,Georgia" font-size="34.2" fill="#000000" transform="matrix(1.00, 0.00, -0.00, -1.00, 85.1, 531.5)">o</text><text xml:space="preserve" font-family="Georgia,Georgia" font-size="34.2" fill="#000000" transform="matrix(1.00, 0.00, -0.00, -1.00, 103.5, 531.5)">o</text><text xml:space="preserve" font-family="Georgia,Georgia" font-size="34.2" fill="#000000" transform="matrix(1.00, 0.00, -0.00, -1.00, 122.0, 531.5)">t</text><text xml:space="preserve" font-family="Georgia,Georgia" font-size="34.2" fill="#000000" transform="matrix(1.00, 0.00, -0.00, -1.00, 133.8, 531.5)">t</text><text xml:space="preserve" font-family="Georgia,Georgia" font-size="34.2" fill="#000000" transform="matrix(1.00, 0.00, -0.00, -1.00, 145.6, 531.5)">o</text><text xml:space="preserve" font-family="Georgia,Georgia" font-size="34.2" fill="#000000" transform="matrix(1.00, 0.00, -0.00, -1.00, 164.1, 531.5)">r</text><text xml:space="preserve" font-family="Georgia,Georgia" font-size="34.2" fill="#000000" transform="matrix(1.00, 0.00, -0.00, -1.00, 178.1, 531.5)">i</text><text xml:space="preserve" font-family="Georgia,Georgia" font-size="34.2" fill="#000000" transform="matrix(1.00, 0.00, -0.00, -1.00, 188.1, 531.5)">s</text><text xml:space="preserve" font-family="Georgia,Georgia" font-size="34.2" fill="#000000" transform="matrix(1.00, 0.00, -0.00, -1.00, 202.9, 531.5)">s</text><text xml:space="preserve" font-family="Georgia,Georgia" font-size="34.2" fill="#000000" transform="matrix(1.00, 0.00, -0.00, -1.00, 217.6, 531.5)">a</text><text xml:space="preserve" font-family="Georgia,Georgia" font-size="34.2" fill="#000000" transform="matrix(1.00, 0.00, -0.00, -1.00, 234.9, 531.5)"> </text><text xml:space="preserve" font-family="Georgia,Georgia" font-size="34.2" fill="#000000" transform="matrix(1.00, 0.00, -0.00, -1.00, 243.1, 531.5)">s</text><text xml:space="preserve" font-family="Georgia,Georgia" font-size="34.2" fill="#000000" transform="matrix(1.00, 0.00, -0.00, -1.00, 257.9, 531.5)">ä</text><text xml:space="preserve" font-family="Georgia,Georgia" font-size="34.2" fill="#000000" transform="matrix(1.00, 0.00, -0.00, -1.00, 275.1, 531.5)">h</text><text xml:space="preserve" font-family="Georgia,Georgia" font-size="34.2" fill="#000000" transform="matrix(1.00, 0.00, -0.00, -1.00, 295.0, 531.5)">k</text><text xml:space="preserve" font-family="Georgia,Georgia" font-size="34.2" fill="#000000" transform="matrix(1.00, 0.00, -0.00, -1.00, 313.3, 531.5)">ö</text><text xml:space="preserve" font-family="Georgia,Georgia" font-size="34.2" fill="#000000" transform="matrix(1.00, 0.00, -0.00, -1.00, 331.8, 531.5)">m</text><text xml:space="preserve" font-family="Georgia,Georgia" font-size="34.2" fill="#000000" transform="matrix(1.00, 0.00, -0.00, -1.00, 361.9, 531.5)">a</text><text xml:space="preserve" font-family="Georgia,Georgia" font-size="34.2" fill="#000000" transform="matrix(1.00, 0.00, -0.00, -1.00, 379.1, 531.5)">g</text><text xml:space="preserve" font-family="Georgia,Georgia" font-size="34.2" fill="#000000" transform="matrix(1.00, 0.00, -0.00, -1.00, 396.6, 531.5)">n</text><text xml:space="preserve" font-family="Georgia,Georgia" font-size="34.2" fill="#000000" transform="matrix(1.00, 0.00, -0.00, -1.00, 416.8, 531.5)">e</text><text xml:space="preserve" font-family="Georgia,Georgia" font-size="34.2" fill="#000000" transform="matrix(1.00, 0.00, -0.00, -1.00, 433.3, 531.5)">e</text><text xml:space="preserve" font-family="Georgia,Georgia" font-size="34.2" fill="#000000" transform="matrix(1.00, 0.00, -0.00, -1.00, 449.9, 531.5)">t</text><text xml:space="preserve" font-family="Georgia,Georgia" font-size="34.2" fill="#000000" transform="matrix(1.00, 0.00, -0.00, -1.00, 461.7, 531.5)">t</text><text xml:space="preserve" font-family="Georgia,Georgia" font-size="34.2" fill="#000000" transform="matrix(1.00, 0.00, -0.00, -1.00, 473.5, 531.5)">i</text><text xml:space="preserve" font-family="Georgia,Georgia" font-size="34.2" fill="#000000" transform="matrix(1.00, 0.00, -0.00, -1.00, 483.5, 531.5)"> </text><text xml:space="preserve" font-family="Georgia,Georgia" font-size="34.2" fill="#000000" transform="matrix(1.00, 0.00, -0.00, -1.00, 491.8, 531.5)">p</text><text xml:space="preserve" font-family="Georgia,Georgia" font-size="34.2" fill="#000000" transform="matrix(1.00, 0.00, -0.00, -1.00, 511.3, 531.5)">y</text><text xml:space="preserve" font-family="Georgia,Georgia" font-size="34.2" fill="#000000" transform="matrix(1.00, 0.00, -0.00, -1.00, 528.1, 531.5)">ö</text><text xml:space="preserve" font-family="Georgia,Georgia" font-size="34.2" fill="#000000" transform="matrix(1.00, 0.00, -0.00, -1.00, 546.6, 531.5)">r</text><text xml:space="preserve" font-family="Georgia,Georgia" font-size="34.2" fill="#000000" transform="matrix(1.00, 0.00, -0.00, -1.00, 560.6, 531.5)">i</text><text xml:space="preserve" font-family="Georgia,Georgia" font-size="34.2" fill="#000000" transform="matrix(1.00, 0.00, -0.00, -1.00, 570.6, 531.5)">i</text><text xml:space="preserve" font-family="Georgia,Georgia" font-size="34.2" fill="#000000" transform="matrix(1.00, 0.00, -0.00, -1.00, 580.6, 531.5)"> </text><text xml:space="preserve" font-family="Georgia,Georgia" font-size="34.2" fill="#000000" transform="matrix(1.00, 0.00, -0.00, -1.00, 588.9, 531.5)">k</text><text xml:space="preserve" font-family="Georgia,Georgia" font-size="34.2" fill="#000000" transform="matrix(1.00, 0.00, -0.00, -1.00, 607.2, 531.5)">e</text><text xml:space="preserve" font-family="Georgia,Georgia" font-size="34.2" fill="#000000" transform="matrix(1.00, 0.00, -0.00, -1.00, 623.7, 531.5)">s</text><text xml:space="preserve" font-family="Georgia,Georgia" font-size="34.2" fill="#000000" transform="matrix(1.00, 0.00, -0.00, -1.00, 638.5, 531.5)">t</text><text xml:space="preserve" font-family="Georgia,Georgia" font-size="34.2" fill="#000000" transform="matrix(1.00, 0.00, -0.00, -1.00, 650.3, 531.5)">o</text><text xml:space="preserve" font-family="Georgia,Georgia" font-size="34.2" fill="#000000" transform="matrix(1.00, 0.00, -0.00, -1.00, 668.8, 531.5)">m</text><text xml:space="preserve" font-family="Georgia,Georgia" font-size="34.2" fill="#000000" transform="matrix(1.00, 0.00, -0.00, -1.00, 698.9, 531.5)">a</text><text xml:space="preserve" font-family="Georgia,Georgia" font-size="34.2" fill="#000000" transform="matrix(1.00, 0.00, -0.00, -1.00, 716.1, 531.5)">g</text><text xml:space="preserve" font-family="Georgia,Georgia" font-size="34.2" fill="#000000" transform="matrix(1.00, 0.00, -0.00, -1.00, 733.5, 531.5)">n</text><text xml:space="preserve" font-family="Georgia,Georgia" font-size="34.2" fill="#000000" transform="matrix(1.00, 0.00, -0.00, -1.00, 753.7, 531.5)">e</text><text xml:space="preserve" font-family="Georgia,Georgia" font-size="34.2" fill="#000000" transform="matrix(1.00, 0.00, -0.00, -1.00, 770.3, 531.5)">e</text><text xml:space="preserve" font-family="Georgia,Georgia" font-size="34.2" fill="#000000" transform="matrix(1.00, 0.00, -0.00, -1.00, 786.8, 531.5)">t</text><text xml:space="preserve" font-family="Georgia,Georgia" font-size="34.2" fill="#000000" transform="matrix(1.00, 0.00, -0.00, -1.00, 798.7, 531.5)">t</text><text xml:space="preserve" font-family="Georgia,Georgia" font-size="34.2" fill="#000000" transform="matrix(1.00, 0.00, -0.00, -1.00, 810.5, 531.5)">i</text><text xml:space="preserve" font-family="Georgia,Georgia" font-size="34.2" fill="#000000" transform="matrix(1.00, 0.00, -0.00, -1.00, 820.5, 531.5)">e</text><text xml:space="preserve" font-family="Georgia,Georgia" font-size="34.2" fill="#000000" transform="matrix(1.00, 0.00, -0.00, -1.00, 837.0, 531.5)">n</text><text xml:space="preserve" font-family="Georgia,Georgia" font-size="34.2" fill="#000000" transform="matrix(1.00, 0.00, -0.00, -1.00, 857.2, 531.5)"> </text><text xml:space="preserve" font-family="Georgia,Georgia" font-size="34.2" fill="#000000" transform="matrix(1.00, 0.00, -0.00, -1.00, 865.5, 531.5)">s</text><text xml:space="preserve" font-family="Georgia,Georgia" font-size="34.2" fill="#000000" transform="matrix(1.00, 0.00, -0.00, -1.00, 880.3, 531.5)">i</text><text xml:space="preserve" font-family="Georgia,Georgia" font-size="34.2" fill="#000000" transform="matrix(1.00, 0.00, -0.00, -1.00, 890.3, 531.5)">s</text><text xml:space="preserve" font-family="Georgia,Georgia" font-size="34.2" fill="#000000" transform="matrix(1.00, 0.00, -0.00, -1.00, 905.1, 531.5)">ä</text><text xml:space="preserve" font-family="Georgia,Georgia" font-size="34.2" fill="#000000" transform="matrix(1.00, 0.00, -0.00, -1.00, 922.3, 531.5)">l</text><text xml:space="preserve" font-family="Georgia,Georgia" font-size="34.2" fill="#000000" transform="matrix(1.00, 0.00, -0.00, -1.00, 932.1, 531.5)">l</text><text xml:space="preserve" font-family="Georgia,Georgia" font-size="34.2" fill="#000000" transform="matrix(1.00, 0.00, -0.00, -1.00, 941.9, 531.5)">ä</text><text xml:space="preserve" font-family="Georgia,Georgia" font-size="34.2" fill="#000000" transform="matrix(1.00, 0.00, -0.00, -1.00, 959.1, 531.5)"> </text><text xml:space="preserve" font-family="Georgia,Georgia" font-size="25.7" fill="#000000" transform="matrix(1.00, 0.00, -0.00, -1.00, 20.1, 482.4)">•</text><text xml:space="preserve" font-family="Georgia,Georgia" font-size="34.2" fill="#000000" transform="matrix(1.00, 0.00, -0.00, -1.00, 53.4, 480.2)">K</text><text xml:space="preserve" font-family="Georgia,Georgia" font-size="34.2" fill="#000000" transform="matrix(1.00, 0.00, -0.00, -1.00, 77.1, 480.2)">ä</text><text xml:space="preserve" font-family="Georgia,Georgia" font-size="34.2" fill="#000000" transform="matrix(1.00, 0.00, -0.00, -1.00, 94.4, 480.2)">ä</text><text xml:space="preserve" font-family="Georgia,Georgia" font-size="34.2" fill="#000000" transform="matrix(1.00, 0.00, -0.00, -1.00, 111.6, 480.2)">m</text><text xml:space="preserve" font-family="Georgia,Georgia" font-size="34.2" fill="#000000" transform="matrix(1.00, 0.00, -0.00, -1.00, 141.7, 480.2)">i</text><text xml:space="preserve" font-family="Georgia,Georgia" font-size="34.2" fill="#000000" transform="matrix(1.00, 0.00, -0.00, -1.00, 151.7, 480.2)">n</text><text xml:space="preserve" font-family="Georgia,Georgia" font-size="34.2" fill="#000000" transform="matrix(1.00, 0.00, -0.00, -1.00, 171.9, 480.2)"> </text><text xml:space="preserve" font-family="Georgia,Georgia" font-size="34.2" fill="#000000" transform="matrix(1.00, 0.00, -0.00, -1.00, 180.2, 480.2)">v</text><text xml:space="preserve" font-family="Georgia,Georgia" font-size="34.2" fill="#000000" transform="matrix(1.00, 0.00, -0.00, -1.00, 197.2, 480.2)">i</text><text xml:space="preserve" font-family="Georgia,Georgia" font-size="34.2" fill="#000000" transform="matrix(1.00, 0.00, -0.00, -1.00, 207.2, 480.2)">r</text><text xml:space="preserve" font-family="Georgia,Georgia" font-size="34.2" fill="#000000" transform="matrix(1.00, 0.00, -0.00, -1.00, 221.2, 480.2)">r</text><text xml:space="preserve" font-family="Georgia,Georgia" font-size="34.2" fill="#000000" transform="matrix(1.00, 0.00, -0.00, -1.00, 235.2, 480.2)">a</text><text xml:space="preserve" font-family="Georgia,Georgia" font-size="34.2" fill="#000000" transform="matrix(1.00, 0.00, -0.00, -1.00, 252.4, 480.2)">n</text><text xml:space="preserve" font-family="Georgia,Georgia" font-size="34.2" fill="#000000" transform="matrix(1.00, 0.00, -0.00, -1.00, 272.6, 480.2)"> </text><text xml:space="preserve" font-family="Georgia,Georgia" font-size="34.2" fill="#000000" transform="matrix(1.00, 0.00, -0.00, -1.00, 280.9, 480.2)">s</text><text xml:space="preserve" font-family="Georgia,Georgia" font-size="34.2" fill="#000000" transform="matrix(1.00, 0.00, -0.00, -1.00, 295.7, 480.2)">u</text><text xml:space="preserve" font-family="Georgia,Georgia" font-size="34.2" fill="#000000" transform="matrix(1.00, 0.00, -0.00, -1.00, 315.3, 480.2)">u</text><text xml:space="preserve" font-family="Georgia,Georgia" font-size="34.2" fill="#000000" transform="matrix(1.00, 0.00, -0.00, -1.00, 335.0, 480.2)">n</text><text xml:space="preserve" font-family="Georgia,Georgia" font-size="34.2" fill="#000000" transform="matrix(1.00, 0.00, -0.00, -1.00, 355.2, 480.2)">t</text><text xml:space="preserve" font-family="Georgia,Georgia" font-size="34.2" fill="#000000" transform="matrix(1.00, 0.00, -0.00, -1.00, 367.0, 480.2)">a</text><text xml:space="preserve" font-family="Georgia,Georgia" font-size="34.2" fill="#000000" transform="matrix(1.00, 0.00, -0.00, -1.00, 384.3, 480.2)">a</text><text xml:space="preserve" font-family="Georgia,Georgia" font-size="34.2" fill="#000000" transform="matrix(1.00, 0.00, -0.00, -1.00, 401.5, 480.2)"> </text><text xml:space="preserve" font-family="Georgia,Georgia" font-size="34.2" fill="#000000" transform="matrix(1.00, 0.00, -0.00, -1.00, 409.7, 480.2)">v</text><text xml:space="preserve" font-family="Georgia,Georgia" font-size="34.2" fill="#000000" transform="matrix(1.00, 0.00, -0.00, -1.00, 426.7, 480.2)">a</text><text xml:space="preserve" font-family="Georgia,Georgia" font-size="34.2" fill="#000000" transform="matrix(1.00, 0.00, -0.00, -1.00, 443.9, 480.2)">i</text><text xml:space="preserve" font-family="Georgia,Georgia" font-size="34.2" fill="#000000" transform="matrix(1.00, 0.00, -0.00, -1.00, 454.0, 480.2)">h</text><text xml:space="preserve" font-family="Georgia,Georgia" font-size="34.2" fill="#000000" transform="matrix(1.00, 0.00, -0.00, -1.00, 473.9, 480.2)">d</text><text xml:space="preserve" font-family="Georgia,Georgia" font-size="34.2" fill="#000000" transform="matrix(1.00, 0.00, -0.00, -1.00, 493.5, 480.2)">e</text><text xml:space="preserve" font-family="Georgia,Georgia" font-size="34.2" fill="#000000" transform="matrix(1.00, 0.00, -0.00, -1.00, 510.1, 480.2)">t</text><text xml:space="preserve" font-family="Georgia,Georgia" font-size="34.2" fill="#000000" transform="matrix(1.00, 0.00, -0.00, -1.00, 521.9, 480.2)">a</text><text xml:space="preserve" font-family="Georgia,Georgia" font-size="34.2" fill="#000000" transform="matrix(1.00, 0.00, -0.00, -1.00, 539.1, 480.2)">a</text><text xml:space="preserve" font-family="Georgia,Georgia" font-size="34.2" fill="#000000" transform="matrix(1.00, 0.00, -0.00, -1.00, 556.3, 480.2)">n</text><text xml:space="preserve" font-family="Georgia,Georgia" font-size="34.2" fill="#000000" transform="matrix(1.00, 0.00, -0.00, -1.00, 576.5, 480.2)"> </text><text xml:space="preserve" font-family="Georgia,Georgia" font-size="34.2" fill="#000000" transform="matrix(1.00, 0.00, -0.00, -1.00, 584.8, 480.2)">n</text><text xml:space="preserve" font-family="Georgia,Georgia" font-size="34.2" fill="#000000" transform="matrix(1.00, 0.00, -0.00, -1.00, 605.0, 480.2)">o</text><text xml:space="preserve" font-family="Georgia,Georgia" font-size="34.2" fill="#000000" transform="matrix(1.00, 0.00, -0.00, -1.00, 623.4, 480.2)">p</text><text xml:space="preserve" font-family="Georgia,Georgia" font-size="34.2" fill="#000000" transform="matrix(1.00, 0.00, -0.00, -1.00, 643.0, 480.2)">e</text><text xml:space="preserve" font-family="Georgia,Georgia" font-size="34.2" fill="#000000" transform="matrix(1.00, 0.00, -0.00, -1.00, 659.5, 480.2)">a</text><text xml:space="preserve" font-family="Georgia,Georgia" font-size="34.2" fill="#000000" transform="matrix(1.00, 0.00, -0.00, -1.00, 676.8, 480.2)">s</text><text xml:space="preserve" font-family="Georgia,Georgia" font-size="34.2" fill="#000000" transform="matrix(1.00, 0.00, -0.00, -1.00, 691.5, 480.2)">t</text><text xml:space="preserve" font-family="Georgia,Georgia" font-size="34.2" fill="#000000" transform="matrix(1.00, 0.00, -0.00, -1.00, 703.3, 480.2)">i</text><text xml:space="preserve" font-family="Georgia,Georgia" font-size="34.2" fill="#000000" transform="matrix(1.00, 0.00, -0.00, -1.00, 713.4, 480.2)">,</text><text xml:space="preserve" font-family="Georgia,Georgia" font-size="34.2" fill="#000000" transform="matrix(1.00, 0.00, -0.00, -1.00, 722.6, 480.2)"> </text><text xml:space="preserve" font-family="Georgia,Georgia" font-size="34.2" fill="#000000" transform="matrix(1.00, 0.00, -0.00, -1.00, 730.8, 480.2)">j</text><text xml:space="preserve" font-family="Georgia,Georgia" font-size="34.2" fill="#000000" transform="matrix(1.00, 0.00, -0.00, -1.00, 740.8, 480.2)">o</text><text xml:space="preserve" font-family="Georgia,Georgia" font-size="34.2" fill="#000000" transform="matrix(1.00, 0.00, -0.00, -1.00, 759.3, 480.2)">l</text><text xml:space="preserve" font-family="Georgia,Georgia" font-size="34.2" fill="#000000" transform="matrix(1.00, 0.00, -0.00, -1.00, 769.0, 480.2)">l</text><text xml:space="preserve" font-family="Georgia,Georgia" font-size="34.2" fill="#000000" transform="matrix(1.00, 0.00, -0.00, -1.00, 778.8, 480.2)">o</text><text xml:space="preserve" font-family="Georgia,Georgia" font-size="34.2" fill="#000000" transform="matrix(1.00, 0.00, -0.00, -1.00, 797.3, 480.2)">i</text><text xml:space="preserve" font-family="Georgia,Georgia" font-size="34.2" fill="#000000" transform="matrix(1.00, 0.00, -0.00, -1.00, 807.3, 480.2)">n</text><text xml:space="preserve" font-family="Georgia,Georgia" font-size="34.2" fill="#000000" transform="matrix(1.00, 0.00, -0.00, -1.00, 827.5, 480.2)"> </text><text xml:space="preserve" font-family="Georgia,Georgia" font-size="34.2" fill="#000000" transform="matrix(1.00, 0.00, -0.00, -1.00, 53.4, 442.2)">m</text><text xml:space="preserve" font-family="Georgia,Georgia" font-size="34.2" fill="#000000" transform="matrix(1.00, 0.00, -0.00, -1.00, 83.5, 442.2)">a</text><text xml:space="preserve" font-family="Georgia,Georgia" font-size="34.2" fill="#000000" transform="matrix(1.00, 0.00, -0.00, -1.00, 100.7, 442.2)">g</text><text xml:space="preserve" font-family="Georgia,Georgia" font-size="34.2" fill="#000000" transform="matrix(1.00, 0.00, -0.00, -1.00, 118.2, 442.2)">n</text><text xml:space="preserve" font-family="Georgia,Georgia" font-size="34.2" fill="#000000" transform="matrix(1.00, 0.00, -0.00, -1.00, 138.4, 442.2)">e</text><text xml:space="preserve" font-family="Georgia,Georgia" font-size="34.2" fill="#000000" transform="matrix(1.00, 0.00, -0.00, -1.00, 154.9, 442.2)">e</text><text xml:space="preserve" font-family="Georgia,Georgia" font-size="34.2" fill="#000000" transform="matrix(1.00, 0.00, -0.00, -1.00, 171.5, 442.2)">t</text><text xml:space="preserve" font-family="Georgia,Georgia" font-size="34.2" fill="#000000" transform="matrix(1.00, 0.00, -0.00, -1.00, 183.3, 442.2)">t</text><text xml:space="preserve" font-family="Georgia,Georgia" font-size="34.2" fill="#000000" transform="matrix(1.00, 0.00, -0.00, -1.00, 195.1, 442.2)">i</text><text xml:space="preserve" font-family="Georgia,Georgia" font-size="34.2" fill="#000000" transform="matrix(1.00, 0.00, -0.00, -1.00, 205.1, 442.2)">n</text><text xml:space="preserve" font-family="Georgia,Georgia" font-size="34.2" fill="#000000" transform="matrix(1.00, 0.00, -0.00, -1.00, 225.3, 442.2)">e</text><text xml:space="preserve" font-family="Georgia,Georgia" font-size="34.2" fill="#000000" transform="matrix(1.00, 0.00, -0.00, -1.00, 241.9, 442.2)">n</text><text xml:space="preserve" font-family="Georgia,Georgia" font-size="34.2" fill="#000000" transform="matrix(1.00, 0.00, -0.00, -1.00, 262.1, 442.2)"> </text><text xml:space="preserve" font-family="Georgia,Georgia" font-size="34.2" fill="#000000" transform="matrix(1.00, 0.00, -0.00, -1.00, 270.3, 442.2)">v</text><text xml:space="preserve" font-family="Georgia,Georgia" font-size="34.2" fill="#000000" transform="matrix(1.00, 0.00, -0.00, -1.00, 287.3, 442.2)">o</text><text xml:space="preserve" font-family="Georgia,Georgia" font-size="34.2" fill="#000000" transform="matrix(1.00, 0.00, -0.00, -1.00, 305.7, 442.2)">i</text><text xml:space="preserve" font-family="Georgia,Georgia" font-size="34.2" fill="#000000" transform="matrix(1.00, 0.00, -0.00, -1.00, 315.7, 442.2)">m</text><text xml:space="preserve" font-family="Georgia,Georgia" font-size="34.2" fill="#000000" transform="matrix(1.00, 0.00, -0.00, -1.00, 345.9, 442.2)">a</text><text xml:space="preserve" font-family="Georgia,Georgia" font-size="34.2" fill="#000000" transform="matrix(1.00, 0.00, -0.00, -1.00, 363.1, 442.2)"> </text><text xml:space="preserve" font-family="Georgia,Georgia" font-size="34.2" fill="#000000" transform="matrix(1.00, 0.00, -0.00, -1.00, 371.3, 442.2)">p</text><text xml:space="preserve" font-family="Georgia,Georgia" font-size="34.2" fill="#000000" transform="matrix(1.00, 0.00, -0.00, -1.00, 390.9, 442.2)">y</text><text xml:space="preserve" font-family="Georgia,Georgia" font-size="34.2" fill="#000000" transform="matrix(1.00, 0.00, -0.00, -1.00, 407.7, 442.2)">r</text><text xml:space="preserve" font-family="Georgia,Georgia" font-size="34.2" fill="#000000" transform="matrix(1.00, 0.00, -0.00, -1.00, 421.7, 442.2)">k</text><text xml:space="preserve" font-family="Georgia,Georgia" font-size="34.2" fill="#000000" transform="matrix(1.00, 0.00, -0.00, -1.00, 440.0, 442.2)">i</text><text xml:space="preserve" font-family="Georgia,Georgia" font-size="34.2" fill="#000000" transform="matrix(1.00, 0.00, -0.00, -1.00, 450.1, 442.2)">i</text><text xml:space="preserve" font-family="Georgia,Georgia" font-size="34.2" fill="#000000" transform="matrix(1.00, 0.00, -0.00, -1.00, 460.1, 442.2)"> </text><text xml:space="preserve" font-family="Georgia,Georgia" font-size="34.2" fill="#000000" transform="matrix(1.00, 0.00, -0.00, -1.00, 468.3, 442.2)">j</text><text xml:space="preserve" font-family="Georgia,Georgia" font-size="34.2" fill="#000000" transform="matrix(1.00, 0.00, -0.00, -1.00, 478.3, 442.2)">a</text><text xml:space="preserve" font-family="Georgia,Georgia" font-size="34.2" fill="#000000" transform="matrix(1.00, 0.00, -0.00, -1.00, 495.5, 442.2)">t</text><text xml:space="preserve" font-family="Georgia,Georgia" font-size="34.2" fill="#000000" transform="matrix(1.00, 0.00, -0.00, -1.00, 507.4, 442.2)">k</text><text xml:space="preserve" font-family="Georgia,Georgia" font-size="34.2" fill="#000000" transform="matrix(1.00, 0.00, -0.00, -1.00, 525.7, 442.2)">u</text><text xml:space="preserve" font-family="Georgia,Georgia" font-size="34.2" fill="#000000" transform="matrix(1.00, 0.00, -0.00, -1.00, 545.3, 442.2)">v</text><text xml:space="preserve" font-family="Georgia,Georgia" font-size="34.2" fill="#000000" transform="matrix(1.00, 0.00, -0.00, -1.00, 562.3, 442.2)">a</text><text xml:space="preserve" font-family="Georgia,Georgia" font-size="34.2" fill="#000000" transform="matrix(1.00, 0.00, -0.00, -1.00, 579.5, 442.2)">s</text><text xml:space="preserve" font-family="Georgia,Georgia" font-size="34.2" fill="#000000" transform="matrix(1.00, 0.00, -0.00, -1.00, 594.3, 442.2)">t</text><text xml:space="preserve" font-family="Georgia,Georgia" font-size="34.2" fill="#000000" transform="matrix(1.00, 0.00, -0.00, -1.00, 606.1, 442.2)">i</text><text xml:space="preserve" font-family="Georgia,Georgia" font-size="34.2" fill="#000000" transform="matrix(1.00, 0.00, -0.00, -1.00, 616.2, 442.2)"> </text><text xml:space="preserve" font-family="Georgia,Georgia" font-size="34.2" fill="#000000" transform="matrix(1.00, 0.00, -0.00, -1.00, 624.4, 442.2)">k</text><text xml:space="preserve" font-family="Georgia,Georgia" font-size="34.2" fill="#000000" transform="matrix(1.00, 0.00, -0.00, -1.00, 642.7, 442.2)">i</text><text xml:space="preserve" font-family="Georgia,Georgia" font-size="34.2" fill="#000000" transform="matrix(1.00, 0.00, -0.00, -1.00, 652.7, 442.2)">e</text><text xml:space="preserve" font-family="Georgia,Georgia" font-size="34.2" fill="#000000" transform="matrix(1.00, 0.00, -0.00, -1.00, 669.3, 442.2)">r</text><text xml:space="preserve" font-family="Georgia,Georgia" font-size="34.2" fill="#000000" transform="matrix(1.00, 0.00, -0.00, -1.00, 683.3, 442.2)">t</text><text xml:space="preserve" font-family="Georgia,Georgia" font-size="34.2" fill="#000000" transform="matrix(1.00, 0.00, -0.00, -1.00, 695.1, 442.2)">ä</text><text xml:space="preserve" font-family="Georgia,Georgia" font-size="34.2" fill="#000000" transform="matrix(1.00, 0.00, -0.00, -1.00, 712.3, 442.2)">m</text><text xml:space="preserve" font-family="Georgia,Georgia" font-size="34.2" fill="#000000" transform="matrix(1.00, 0.00, -0.00, -1.00, 742.5, 442.2)">ä</text><text xml:space="preserve" font-family="Georgia,Georgia" font-size="34.2" fill="#000000" transform="matrix(1.00, 0.00, -0.00, -1.00, 759.7, 442.2)">ä</text><text xml:space="preserve" font-family="Georgia,Georgia" font-size="34.2" fill="#000000" transform="matrix(1.00, 0.00, -0.00, -1.00, 776.9, 442.2)">n</text><text xml:space="preserve" font-family="Georgia,Georgia" font-size="34.2" fill="#000000" transform="matrix(1.00, 0.00, -0.00, -1.00, 797.1, 442.2)"> </text><text xml:space="preserve" font-family="Georgia,Georgia" font-size="34.2" fill="#000000" transform="matrix(1.00, 0.00, -0.00, -1.00, 805.4, 442.2)">m</text><text xml:space="preserve" font-family="Georgia,Georgia" font-size="34.2" fill="#000000" transform="matrix(1.00, 0.00, -0.00, -1.00, 835.5, 442.2)">o</text><text xml:space="preserve" font-family="Georgia,Georgia" font-size="34.2" fill="#000000" transform="matrix(1.00, 0.00, -0.00, -1.00, 853.9, 442.2)">o</text><text xml:space="preserve" font-family="Georgia,Georgia" font-size="34.2" fill="#000000" transform="matrix(1.00, 0.00, -0.00, -1.00, 872.4, 442.2)">t</text><text xml:space="preserve" font-family="Georgia,Georgia" font-size="34.2" fill="#000000" transform="matrix(1.00, 0.00, -0.00, -1.00, 884.2, 442.2)">t</text><text xml:space="preserve" font-family="Georgia,Georgia" font-size="34.2" fill="#000000" transform="matrix(1.00, 0.00, -0.00, -1.00, 896.0, 442.2)">o</text><text xml:space="preserve" font-family="Georgia,Georgia" font-size="34.2" fill="#000000" transform="matrix(1.00, 0.00, -0.00, -1.00, 914.4, 442.2)">r</text><text xml:space="preserve" font-family="Georgia,Georgia" font-size="34.2" fill="#000000" transform="matrix(1.00, 0.00, -0.00, -1.00, 928.4, 442.2)">i</text><text xml:space="preserve" font-family="Georgia,Georgia" font-size="34.2" fill="#000000" transform="matrix(1.00, 0.00, -0.00, -1.00, 938.5, 442.2)">n</text><text xml:space="preserve" font-family="Georgia,Georgia" font-size="34.2" fill="#000000" transform="matrix(1.00, 0.00, -0.00, -1.00, 958.7, 442.2)"> </text><text xml:space="preserve" font-family="Georgia,Georgia" font-size="34.2" fill="#000000" transform="matrix(1.00, 0.00, -0.00, -1.00, 53.4, 404.2)">a</text><text xml:space="preserve" font-family="Georgia,Georgia" font-size="34.2" fill="#000000" transform="matrix(1.00, 0.00, -0.00, -1.00, 70.6, 404.2)">k</text><text xml:space="preserve" font-family="Georgia,Georgia" font-size="34.2" fill="#000000" transform="matrix(1.00, 0.00, -0.00, -1.00, 88.9, 404.2)">s</text><text xml:space="preserve" font-family="Georgia,Georgia" font-size="34.2" fill="#000000" transform="matrix(1.00, 0.00, -0.00, -1.00, 103.7, 404.2)">e</text><text xml:space="preserve" font-family="Georgia,Georgia" font-size="34.2" fill="#000000" transform="matrix(1.00, 0.00, -0.00, -1.00, 120.3, 404.2)">l</text><text xml:space="preserve" font-family="Georgia,Georgia" font-size="34.2" fill="#000000" transform="matrix(1.00, 0.00, -0.00, -1.00, 130.0, 404.2)">i</text><text xml:space="preserve" font-family="Georgia,Georgia" font-size="34.2" fill="#000000" transform="matrix(1.00, 0.00, -0.00, -1.00, 140.1, 404.2)">a</text><image xlink:href="../../6A3A9318-EF07-44D6-8D3B-15455F7249D9/assets/0E558FA91AA44165D47B93CB746ED718.png" width="310.00" height="200.00" transform="matrix(1.00, 0.00, -0.00, -1.00, 75.0, 334.0)"></image><image xlink:href="../../6A3A9318-EF07-44D6-8D3B-15455F7249D9/assets/AB767A1ADB211FD519E242537155434A.jpeg" width="750.00" height="564.00" transform="matrix(0.54, 0.00, -0.00, -0.54, 509.0, 361.0)"></image></g></svg>