<?xml version="1.0" encoding="UTF-8" standalone="no"?><svg xmlns="http://www.w3.org/2000/svg" xmlns:xlink="http://www.w3.org/1999/xlink" clip-rule="evenodd" stroke-miterlimit="10" viewBox="0 0 1024 768"><desc>SVG generated by Keynote</desc><defs><pattern id="537F9A16-D779-4B19-9B86-CB43B3EE8026" patternUnits="userSpaceOnUse" width="600" height="600" viewBox="0 0 600 600"><image xlink:href="../../EEC9EF7D-8F97-471C-8063-A25CA4F5BF84/assets/9FCE571DE120514E82622C251A6D1721.jpeg" width="600.00" height="600.00"></image></pattern><pattern id="14983CF8-4203-4A7D-ACB8-1F94FBE3A003" patternUnits="userSpaceOnUse" width="600" height="600" viewBox="0 0 600 600"><image xlink:href="../../EEC9EF7D-8F97-471C-8063-A25CA4F5BF84/assets/15C55D9F48ABB2997E46C76C56D934C7.png" width="600.00" height="600.00"></image></pattern></defs><g transform="matrix(1.00, 0.00, -0.00, -1.00, 0.0, 768.0)"><path d="M 0.0 768.0 L 1024.0 768.0 L 1024.0 0.0 L 0.0 0.0 Z M 0.0 768.0 " fill="#FEFFFF"></path><image xlink:href="../../EEC9EF7D-8F97-471C-8063-A25CA4F5BF84/assets/4B15A88A22BF5535EFE77BBA54F6BD00.png" width="1055.00" height="331.00" transform="matrix(1.00, 0.00, -0.00, -1.00, -15.5, 636.7)" opacity="0.50"></image><g><clipPath id="clip0x7ff041028be0"><path d="M -12.0 636.0 L 1037.0 636.0 L 1037.0 310.0 L -12.0 310.0 Z M -12.5 635.7 "></path></clipPath><g clip-path="url(#clip0x7ff041028be0)"><path d="M 0.0 310.0 L 1024.0 310.0 L 1024.0 636.0 L 0.0 636.0 Z M 0.0 310.0 " fill="url(#537F9A16-D779-4B19-9B86-CB43B3EE8026)"></path></g></g><g><clipPath id="clip0x7ff025874370"><path d="M -16.5 -14.9 L 1040.5 -14.9 L 1040.5 318.3 L -16.5 318.3 Z M -16.5 -14.9 "></path></clipPath><g clip-path="url(#clip0x7ff025874370)"><image xlink:href="../../EEC9EF7D-8F97-471C-8063-A25CA4F5BF84/assets/80FC2C4960890CD843ADD2E1E5E1713F.png" width="1055.00" height="331.00" transform="matrix(1.00, 0.00, -0.00, -1.00, -15.5, 317.3)" opacity="0.50"></image></g></g><g><clipPath id="clip0x7ff025875930"><path d="M -12.0 316.0 L 1037.0 316.0 L 1037.0 -9.0 L -12.0 -9.0 Z M -12.5 316.3 "></path></clipPath><g clip-path="url(#clip0x7ff025875930)"><g><clipPath id="clip0x7ff025876350"><path d="M -16.5 -14.9 L 1040.5 -14.9 L 1040.5 318.3 L -16.5 318.3 Z M -16.5 -14.9 "></path></clipPath><g clip-path="url(#clip0x7ff025876350)"><path d="M 0.0 0.0 L 1024.0 0.0 L 1024.0 316.0 L 0.0 316.0 Z M 0.0 0.0 " fill="url(#14983CF8-4203-4A7D-ACB8-1F94FBE3A003)"></path></g></g></g></g><g><clipPath id="clip0x7ff04122c4a0"><path d="M 2.0 320.5 L 150.6 320.5 L 150.6 421.0 L 2.0 421.0 Z M 2.0 320.5 "></path></clipPath><g clip-path="url(#clip0x7ff04122c4a0)"><text xml:space="preserve" font-family="Georgia,Georgia" font-size="36.0" fill="#DCDDE0" transform="matrix(1.00, 0.00, -0.00, -1.00, 12.2, 357.9)">A</text><text xml:space="preserve" font-family="Georgia,Georgia" font-size="36.0" fill="#DCDDE0" transform="matrix(1.00, 0.00, -0.00, -1.00, 36.3, 357.9)">s</text><text xml:space="preserve" font-family="Georgia,Georgia" font-size="36.0" fill="#DCDDE0" transform="matrix(1.00, 0.00, -0.00, -1.00, 51.9, 357.9)">f</text><text xml:space="preserve" font-family="Georgia,Georgia" font-size="36.0" fill="#DCDDE0" transform="matrix(1.00, 0.00, -0.00, -1.00, 63.6, 357.9)">a</text><text xml:space="preserve" font-family="Georgia,Georgia" font-size="36.0" fill="#DCDDE0" transform="matrix(1.00, 0.00, -0.00, -1.00, 81.7, 357.9)">l</text><text xml:space="preserve" font-family="Georgia,Georgia" font-size="36.0" fill="#DCDDE0" transform="matrix(1.00, 0.00, -0.00, -1.00, 92.0, 357.9)">t</text><text xml:space="preserve" font-family="Georgia,Georgia" font-size="36.0" fill="#DCDDE0" transform="matrix(1.00, 0.00, -0.00, -1.00, 104.4, 357.9)">t</text><text xml:space="preserve" font-family="Georgia,Georgia" font-size="36.0" fill="#DCDDE0" transform="matrix(1.00, 0.00, -0.00, -1.00, 116.9, 357.9)">i</text></g></g><g><clipPath id="clip0x7ff03e17da60"><path d="M 7.3 215.5 L 145.3 215.5 L 145.3 316.0 L 7.3 316.0 Z M 7.3 215.5 "></path></clipPath><g clip-path="url(#clip0x7ff03e17da60)"><text xml:space="preserve" font-family="Georgia,Georgia" font-size="36.0" fill="#000000" transform="matrix(1.00, 0.00, -0.00, -1.00, 17.5, 252.9)">H</text><text xml:space="preserve" font-family="Georgia,Georgia" font-size="36.0" fill="#000000" transform="matrix(1.00, 0.00, -0.00, -1.00, 46.9, 252.9)">i</text><text xml:space="preserve" font-family="Georgia,Georgia" font-size="36.0" fill="#000000" transform="matrix(1.00, 0.00, -0.00, -1.00, 57.4, 252.9)">e</text><text xml:space="preserve" font-family="Georgia,Georgia" font-size="36.0" fill="#000000" transform="matrix(1.00, 0.00, -0.00, -1.00, 74.8, 252.9)">k</text><text xml:space="preserve" font-family="Georgia,Georgia" font-size="36.0" fill="#000000" transform="matrix(1.00, 0.00, -0.00, -1.00, 94.1, 252.9)">k</text><text xml:space="preserve" font-family="Georgia,Georgia" font-size="36.0" fill="#000000" transform="matrix(1.00, 0.00, -0.00, -1.00, 113.4, 252.9)">a</text></g></g><text xml:space="preserve" font-family="Georgia,Georgia" font-size="65.0" fill="#000000" transform="matrix(1.00, 0.00, -0.00, -1.00, 265.2, 672.0)">T</text><text xml:space="preserve" font-family="Georgia,Georgia" font-size="65.0" fill="#000000" transform="matrix(1.00, 0.00, -0.00, -1.00, 305.4, 672.0)">i</text><text xml:space="preserve" font-family="Georgia,Georgia" font-size="65.0" fill="#000000" transform="matrix(1.00, 0.00, -0.00, -1.00, 324.4, 672.0)">h</text><text xml:space="preserve" font-family="Georgia,Georgia" font-size="65.0" fill="#000000" transform="matrix(1.00, 0.00, -0.00, -1.00, 362.3, 672.0)">e</text><text xml:space="preserve" font-family="Georgia,Georgia" font-size="65.0" fill="#000000" transform="matrix(1.00, 0.00, -0.00, -1.00, 393.7, 672.0)">ä</text><text xml:space="preserve" font-family="Georgia,Georgia" font-size="65.0" fill="#000000" transform="matrix(1.00, 0.00, -0.00, -1.00, 426.4, 672.0)">s</text><text xml:space="preserve" font-family="Georgia,Georgia" font-size="65.0" fill="#000000" transform="matrix(1.00, 0.00, -0.00, -1.00, 454.5, 672.0)">t</text><text xml:space="preserve" font-family="Georgia,Georgia" font-size="65.0" fill="#000000" transform="matrix(1.00, 0.00, -0.00, -1.00, 477.0, 672.0)">ä</text><text xml:space="preserve" font-family="Georgia,Georgia" font-size="65.0" fill="#000000" transform="matrix(1.00, 0.00, -0.00, -1.00, 509.7, 672.0)"> </text><text xml:space="preserve" font-family="Georgia,Georgia" font-size="65.0" fill="#000000" transform="matrix(1.00, 0.00, -0.00, -1.00, 525.4, 672.0)">h</text><text xml:space="preserve" font-family="Georgia,Georgia" font-size="65.0" fill="#000000" transform="matrix(1.00, 0.00, -0.00, -1.00, 563.3, 672.0)">a</text><text xml:space="preserve" font-family="Georgia,Georgia" font-size="65.0" fill="#000000" transform="matrix(1.00, 0.00, -0.00, -1.00, 596.0, 672.0)">r</text><text xml:space="preserve" font-family="Georgia,Georgia" font-size="65.0" fill="#000000" transform="matrix(1.00, 0.00, -0.00, -1.00, 622.6, 672.0)">v</text><text xml:space="preserve" font-family="Georgia,Georgia" font-size="65.0" fill="#000000" transform="matrix(1.00, 0.00, -0.00, -1.00, 654.9, 672.0)">a</text><text xml:space="preserve" font-family="Georgia,Georgia" font-size="65.0" fill="#000000" transform="matrix(1.00, 0.00, -0.00, -1.00, 687.6, 672.0)">a</text><text xml:space="preserve" font-family="Georgia,Georgia" font-size="65.0" fill="#000000" transform="matrix(1.00, 0.00, -0.00, -1.00, 720.4, 672.0)">n</text></g></svg>