<?xml version="1.0" encoding="UTF-8" standalone="no"?><svg xmlns="http://www.w3.org/2000/svg" xmlns:xlink="http://www.w3.org/1999/xlink" clip-rule="evenodd" stroke-miterlimit="10" viewBox="0 0 49 97"><desc>SVG generated by Keynote</desc><defs></defs><g transform="matrix(1.00, 0.00, -0.00, -1.00, 0.0, 97.0)"><g><clipPath id="clip0x7fda3009a040"><path d="M -5.2 40.0 L 53.7 40.0 L 53.7 101.5 L -5.2 101.5 Z M -5.2 40.0 "></path></clipPath><g clip-path="url(#clip0x7fda3009a040)"><text xml:space="preserve" font-family="Georgia,Georgia" font-size="36.0" fill="#000000" transform="matrix(1.00, 0.00, -0.00, -1.00, 5.0, 58.1)">E</text><text xml:space="preserve" font-family="Georgia,Georgia" font-size="24.0" fill="#000000" transform="matrix(1.00, 0.00, -0.00, -1.00, 28.5, 55.5)">h</text><path d="M 4.0 41.9 L 41.5 41.9 " fill="none" stroke="#000000" stroke-width="1.78" transform="matrix(1.00, 0.00, 0.00, -1.00, 1.0, 95.2)"></path></g></g><g><clipPath id="clip0x7fda3009ce50"><path d="M -4.9 -5.0 L 52.9 -5.0 L 52.9 56.5 L -4.9 56.5 Z M -4.9 -5.0 "></path></clipPath><g clip-path="url(#clip0x7fda3009ce50)"><text xml:space="preserve" font-family="Georgia,Georgia" font-size="36.0" fill="#000000" transform="matrix(1.00, 0.00, -0.00, -1.00, 5.3, 13.1)">E</text><text xml:space="preserve" font-family="Georgia,Georgia" font-size="24.0" fill="#000000" transform="matrix(1.00, 0.00, -0.00, -1.00, 28.9, 10.5)">k</text></g></g></g></svg>