<?xml version="1.0" encoding="UTF-8" standalone="no"?><svg xmlns="http://www.w3.org/2000/svg" xmlns:xlink="http://www.w3.org/1999/xlink" clip-rule="evenodd" stroke-miterlimit="10" viewBox="0 0 1024 768"><desc>SVG generated by Keynote</desc><defs></defs><g transform="matrix(1.00, 0.00, -0.00, -1.00, 0.0, 768.0)"><path d="M 0.0 768.0 L 1024.0 768.0 L 1024.0 0.0 L 0.0 0.0 Z M 0.0 768.0 " fill="#FEFFFF"></path><text xml:space="preserve" font-family="Georgia,Georgia" font-size="65.0" fill="#000000" transform="matrix(1.00, 0.00, -0.00, -1.00, 212.6, 649.2)">S</text><text xml:space="preserve" font-family="Georgia,Georgia" font-size="65.0" fill="#000000" transform="matrix(1.00, 0.00, -0.00, -1.00, 249.1, 649.2)">ä</text><text xml:space="preserve" font-family="Georgia,Georgia" font-size="65.0" fill="#000000" transform="matrix(1.00, 0.00, -0.00, -1.00, 281.8, 649.2)">h</text><text xml:space="preserve" font-family="Georgia,Georgia" font-size="65.0" fill="#000000" transform="matrix(1.00, 0.00, -0.00, -1.00, 319.6, 649.2)">k</text><text xml:space="preserve" font-family="Georgia,Georgia" font-size="65.0" fill="#000000" transform="matrix(1.00, 0.00, -0.00, -1.00, 354.4, 649.2)">ö</text><text xml:space="preserve" font-family="Georgia,Georgia" font-size="65.0" fill="#000000" transform="matrix(1.00, 0.00, -0.00, -1.00, 389.5, 649.2)"> </text><text xml:space="preserve" font-family="Georgia,Georgia" font-size="65.0" fill="#000000" transform="matrix(1.00, 0.00, -0.00, -1.00, 405.2, 649.2)">j</text><text xml:space="preserve" font-family="Georgia,Georgia" font-size="65.0" fill="#000000" transform="matrix(1.00, 0.00, -0.00, -1.00, 424.2, 649.2)">a</text><text xml:space="preserve" font-family="Georgia,Georgia" font-size="65.0" fill="#000000" transform="matrix(1.00, 0.00, -0.00, -1.00, 456.9, 649.2)"> </text><text xml:space="preserve" font-family="Georgia,Georgia" font-size="65.0" fill="#000000" transform="matrix(1.00, 0.00, -0.00, -1.00, 472.6, 649.2)">m</text><text xml:space="preserve" font-family="Georgia,Georgia" font-size="65.0" fill="#000000" transform="matrix(1.00, 0.00, -0.00, -1.00, 529.8, 649.2)">a</text><text xml:space="preserve" font-family="Georgia,Georgia" font-size="65.0" fill="#000000" transform="matrix(1.00, 0.00, -0.00, -1.00, 562.6, 649.2)">g</text><text xml:space="preserve" font-family="Georgia,Georgia" font-size="65.0" fill="#000000" transform="matrix(1.00, 0.00, -0.00, -1.00, 595.7, 649.2)">n</text><text xml:space="preserve" font-family="Georgia,Georgia" font-size="65.0" fill="#000000" transform="matrix(1.00, 0.00, -0.00, -1.00, 634.1, 649.2)">e</text><text xml:space="preserve" font-family="Georgia,Georgia" font-size="65.0" fill="#000000" transform="matrix(1.00, 0.00, -0.00, -1.00, 665.5, 649.2)">t</text><text xml:space="preserve" font-family="Georgia,Georgia" font-size="65.0" fill="#000000" transform="matrix(1.00, 0.00, -0.00, -1.00, 688.0, 649.2)">i</text><text xml:space="preserve" font-family="Georgia,Georgia" font-size="65.0" fill="#000000" transform="matrix(1.00, 0.00, -0.00, -1.00, 707.0, 649.2)">s</text><text xml:space="preserve" font-family="Georgia,Georgia" font-size="65.0" fill="#000000" transform="matrix(1.00, 0.00, -0.00, -1.00, 735.1, 649.2)">m</text><text xml:space="preserve" font-family="Georgia,Georgia" font-size="65.0" fill="#000000" transform="matrix(1.00, 0.00, -0.00, -1.00, 792.4, 649.2)">i</text><g><clipPath id="clip0x7f8e450f73c0"><path d="M 238.1 216.6 L 297.7 216.6 L 297.7 232.2 L 238.1 232.2 Z M 238.1 216.6 "></path></clipPath><g clip-path="url(#clip0x7f8e450f73c0)"><path d="M 47.5 1.7 C 58.3 4.0 58.3 7.6 47.5 9.9 C 36.6 12.2 19.0 12.2 8.1 9.9 C -2.7 7.6 -2.7 4.0 8.1 1.7 C 19.0 -0.6 36.6 -0.6 47.5 1.7 Z M 47.5 1.7 " fill="none" stroke="#851001" stroke-width="2.00" transform="matrix(1.00, 0.00, 0.00, -1.00, 240.1, 230.2)"></path></g></g><g><clipPath id="clip0x7f8e450da070"><path d="M 218.7 212.5 L 317.2 212.5 L 317.2 236.2 L 218.7 236.2 Z M 218.7 212.5 "></path></clipPath><g clip-path="url(#clip0x7f8e450da070)"><path d="M 80.7 2.9 C 99.1 6.7 99.1 13.0 80.7 16.8 C 62.2 20.7 32.3 20.7 13.8 16.8 C -4.6 13.0 -4.6 6.7 13.8 2.9 C 32.3 -1.0 62.2 -1.0 80.7 2.9 Z M 80.7 2.9 " fill="none" stroke="#851001" stroke-width="2.00" transform="matrix(1.00, 0.00, 0.00, -1.00, 220.7, 234.2)"></path></g></g><g><clipPath id="clip0x7f8e450fa360"><path d="M 197.1 208.0 L 338.8 208.0 L 338.8 240.7 L 197.1 240.7 Z M 197.1 208.0 "></path></clipPath><g clip-path="url(#clip0x7f8e450fa360)"><path d="M 117.5 4.2 C 144.4 9.8 144.4 18.9 117.5 24.5 C 90.7 30.1 47.1 30.1 20.2 24.5 C -6.7 18.9 -6.7 9.8 20.2 4.2 C 47.1 -1.4 90.7 -1.4 117.5 4.2 Z M 117.5 4.2 " fill="none" stroke="#851001" stroke-width="2.00" transform="matrix(1.00, 0.00, 0.00, -1.00, 199.1, 238.7)"></path></g></g><g><clipPath id="clip0x7f8e450fb540"><path d="M 178.7 204.2 L 357.2 204.2 L 357.2 244.6 L 178.7 244.6 Z M 178.7 204.2 "></path></clipPath><g clip-path="url(#clip0x7f8e450fb540)"><path d="M 149.0 5.3 C 183.0 12.4 183.0 23.9 149.0 31.0 C 114.9 38.1 59.6 38.1 25.6 31.0 C -8.5 23.9 -8.5 12.4 25.6 5.3 C 59.6 -1.8 114.9 -1.8 149.0 5.3 Z M 149.0 5.3 " fill="none" stroke="#851001" stroke-width="2.00" transform="matrix(1.00, 0.00, 0.00, -1.00, 180.7, 242.6)"></path></g></g><g><clipPath id="clip0x7f8e450f7b20"><path d="M 300.9 222.4 L 305.7 227.5 L 315.5 218.1 L 310.7 213.1 Z M 300.9 222.4 "></path></clipPath><g clip-path="url(#clip0x7f8e450f7b20)"><g><clipPath id="clip0x7f8e450c9ce0"><path d="M 307.8 217.2 L 310.7 214.5 L 309.9 222.1 L 302.4 222.5 L 305.2 219.8 L 305.2 219.8 L 307.8 217.2 Z M 307.8 217.2 "></path></clipPath><g clip-path="url(#clip0x7f8e450c9ce0)"><image xlink:href="ADFEDB07BA590A41659D8979D96483E7.png" width="600.00" height="600.00" transform="matrix(0.35, 0.36, 0.36, -0.35, 302.4, 222.5)"></image></g></g></g></g><g><clipPath id="clip0x7f8e46444260"><path d="M 318.1 220.2 L 323.0 225.2 L 332.7 215.9 L 327.9 210.9 Z M 318.1 220.2 "></path></clipPath><g clip-path="url(#clip0x7f8e46444260)"><g><clipPath id="clip0x7f8e42047070"><path d="M 325.0 215.0 L 327.9 212.3 L 327.1 219.8 L 319.6 220.2 L 322.4 217.5 L 322.4 217.5 L 325.0 215.0 Z M 325.0 215.0 "></path></clipPath><g clip-path="url(#clip0x7f8e42047070)"><image xlink:href="../../0099E750-43F4-4A1E-80C1-2076B752852F/assets/ADFEDB07BA590A41659D8979D96483E7.png" width="600.00" height="600.00" transform="matrix(0.35, 0.36, 0.36, -0.35, 319.6, 220.2)"></image></g></g></g></g><g><clipPath id="clip0x7f8e462cb590"><path d="M 333.7 216.3 L 338.5 221.3 L 348.2 212.0 L 343.4 207.0 Z M 333.7 216.3 "></path></clipPath><g clip-path="url(#clip0x7f8e462cb590)"><g><clipPath id="clip0x7f8e462d4420"><path d="M 340.6 211.1 L 343.4 208.4 L 342.7 216.0 L 335.1 216.3 L 337.9 213.6 L 337.9 213.6 L 340.6 211.1 Z M 340.6 211.1 "></path></clipPath><g clip-path="url(#clip0x7f8e462d4420)"><image xlink:href="../../0099E750-43F4-4A1E-80C1-2076B752852F/assets/ADFEDB07BA590A41659D8979D96483E7.png" width="600.00" height="600.00" transform="matrix(0.35, 0.36, 0.36, -0.35, 335.1, 216.3)"></image></g></g></g></g><g><clipPath id="clip0x7f8e464d0720"><path d="M 284.3 224.6 L 289.1 229.7 L 298.9 220.3 L 294.1 215.3 Z M 284.3 224.6 "></path></clipPath><g clip-path="url(#clip0x7f8e464d0720)"><g><clipPath id="clip0x7f8e420c5d50"><path d="M 291.2 219.4 L 294.0 216.7 L 293.3 224.3 L 285.7 224.7 L 288.6 222.0 L 288.6 222.0 L 291.2 219.4 Z M 291.2 219.4 "></path></clipPath><g clip-path="url(#clip0x7f8e420c5d50)"><image xlink:href="../../0099E750-43F4-4A1E-80C1-2076B752852F/assets/ADFEDB07BA590A41659D8979D96483E7.png" width="600.00" height="600.00" transform="matrix(0.35, 0.36, 0.36, -0.35, 285.7, 224.7)"></image></g></g></g></g><g><clipPath id="clip0x7f8e45608dd0"><path d="M 233.7 226.9 L 229.5 221.4 L 218.8 229.7 L 223.1 235.2 Z M 233.7 226.9 "></path></clipPath><g clip-path="url(#clip0x7f8e45608dd0)"><g><clipPath id="clip0x7f8e45609750"><path d="M 226.4 231.4 L 223.3 233.7 L 224.8 226.3 L 232.3 226.7 L 229.3 229.1 L 229.3 229.1 L 226.4 231.4 Z M 226.4 231.4 "></path></clipPath><g clip-path="url(#clip0x7f8e45609750)"><image xlink:href="../../0099E750-43F4-4A1E-80C1-2076B752852F/assets/ADFEDB07BA590A41659D8979D96483E7.png" width="600.00" height="600.00" transform="matrix(-0.31, -0.39, -0.39, 0.31, 232.3, 226.7)"></image></g></g></g></g><g><clipPath id="clip0x7f8e4562e840"><path d="M 217.0 229.6 L 212.7 224.1 L 202.1 232.4 L 206.3 237.9 Z M 217.0 229.6 "></path></clipPath><g clip-path="url(#clip0x7f8e4562e840)"><g><clipPath id="clip0x7f8e4633ca80"><path d="M 209.6 234.1 L 206.5 236.5 L 208.0 229.1 L 215.6 229.5 L 212.5 231.8 L 212.5 231.8 L 209.6 234.1 Z M 209.6 234.1 "></path></clipPath><g clip-path="url(#clip0x7f8e4633ca80)"><image xlink:href="../../0099E750-43F4-4A1E-80C1-2076B752852F/assets/ADFEDB07BA590A41659D8979D96483E7.png" width="600.00" height="600.00" transform="matrix(-0.31, -0.39, -0.39, 0.31, 215.6, 229.5)"></image></g></g></g></g><g><clipPath id="clip0x7f8e4633a600"><path d="M 198.6 231.8 L 194.3 226.3 L 183.6 234.6 L 187.9 240.1 Z M 198.6 231.8 "></path></clipPath><g clip-path="url(#clip0x7f8e4633a600)"><g><clipPath id="clip0x7f8e4633a4d0"><path d="M 191.2 236.3 L 188.1 238.7 L 189.6 231.3 L 197.2 231.7 L 194.1 234.1 L 194.1 234.1 L 191.2 236.3 Z M 191.2 236.3 "></path></clipPath><g clip-path="url(#clip0x7f8e4633a4d0)"><image xlink:href="../../0099E750-43F4-4A1E-80C1-2076B752852F/assets/ADFEDB07BA590A41659D8979D96483E7.png" width="600.00" height="600.00" transform="matrix(-0.31, -0.39, -0.39, 0.31, 197.2, 231.7)"></image></g></g></g></g><g><clipPath id="clip0x7f8e456ce410"><path d="M 250.5 226.4 L 246.2 220.9 L 235.6 229.2 L 239.8 234.7 Z M 250.5 226.4 "></path></clipPath><g clip-path="url(#clip0x7f8e456ce410)"><g><clipPath id="clip0x7f8e45634530"><path d="M 243.1 230.9 L 240.0 233.3 L 241.5 225.8 L 249.1 226.2 L 246.0 228.6 L 246.0 228.6 L 243.1 230.9 Z M 243.1 230.9 "></path></clipPath><g clip-path="url(#clip0x7f8e45634530)"><image xlink:href="../../0099E750-43F4-4A1E-80C1-2076B752852F/assets/ADFEDB07BA590A41659D8979D96483E7.png" width="600.00" height="600.00" transform="matrix(-0.31, -0.39, -0.39, 0.31, 249.1, 226.2)"></image></g></g></g></g><g><clipPath id="clip0x7f8e450adc40"><path d="M 237.0 262.0 L 237.0 307.1 L 252.2 307.1 L 252.2 262.0 Z M 237.0 262.0 "></path></clipPath><g clip-path="url(#clip0x7f8e450adc40)"><path d="M 0.0 -0.1 L 29.9 -0.1 L 31.0 -0.1 " fill="none" stroke="#000000" stroke-width="3.00" transform="matrix(0.00, 1.00, 1.00, 0.00, 244.6, 263.0)"></path><path d="M 251.1 292.5 L 244.5 305.7 L 237.9 292.5 Z M 251.1 292.5 " fill="#000000"></path></g></g><g><clipPath id="clip0x7f8e420a5cb0"><path d="M 206.7 265.1 L 244.9 265.1 L 244.9 320.5 L 206.7 320.5 Z M 206.7 265.1 "></path></clipPath><g clip-path="url(#clip0x7f8e420a5cb0)"><text xml:space="preserve" font-family="Georgia,Georgia" font-size="28.0" fill="#000000" transform="matrix(1.00, 0.00, -0.00, -1.00, 214.7, 282.6)">I</text></g></g><g><clipPath id="clip0x7f8e450aaa70"><path d="M 257.3 129.7 L 278.5 129.7 L 278.5 136.0 L 257.3 136.0 Z M 257.3 129.7 "></path></clipPath><g clip-path="url(#clip0x7f8e450aaa70)"><path d="M 14.7 0.3 C 18.1 0.8 18.1 1.5 14.7 1.9 C 11.3 2.4 5.9 2.4 2.5 1.9 C -0.8 1.5 -0.8 0.8 2.5 0.3 C 5.9 -0.1 11.3 -0.1 14.7 0.3 Z M 14.7 0.3 " fill="none" stroke="#85878C" stroke-width="2.00" transform="matrix(1.00, 0.00, 0.00, -1.00, 259.3, 134.0)"></path></g></g><g><clipPath id="clip0x7f8e450b11c0"><path d="M 248.0 132.1 L 287.9 132.1 L 287.9 147.4 L 248.0 147.4 Z M 248.0 132.1 "></path></clipPath><g clip-path="url(#clip0x7f8e450b11c0)"><path d="M 249.0 146.0 L 287.0 146.0 L 287.0 133.0 L 249.0 133.0 Z M 249.0 146.4 " fill="#FEFFFE"></path></g></g><g><clipPath id="clip0x7f8e450b1a40"><path d="M 257.3 306.5 L 278.5 306.5 L 278.5 312.7 L 257.3 312.7 Z M 257.3 306.5 "></path></clipPath><g clip-path="url(#clip0x7f8e450b1a40)"><path d="M 14.7 0.3 C 18.1 0.8 18.1 1.5 14.7 1.9 C 11.3 2.4 5.9 2.4 2.5 1.9 C -0.8 1.5 -0.8 0.8 2.5 0.3 C 5.9 -0.1 11.3 -0.1 14.7 0.3 Z M 14.7 0.3 " fill="none" stroke="#85878C" stroke-width="2.00" transform="matrix(1.00, 0.00, 0.00, -1.00, 259.3, 310.7)"></path></g></g><g><clipPath id="clip0x7f8e450c6250"><path d="M 257.7 221.6 L 278.1 221.6 L 278.1 259.9 L 257.7 259.9 Z M 257.7 221.6 "></path></clipPath><g clip-path="url(#clip0x7f8e450c6250)"><path d="M 259.0 259.0 L 277.0 259.0 L 277.0 223.0 L 259.0 223.0 Z M 258.7 258.9 " fill="#FEFFFE"></path></g></g><g><clipPath id="clip0x7f8e450c6fa0"><path d="M 257.2 132.4 L 261.2 132.4 L 261.2 310.7 L 257.2 310.7 Z M 257.2 132.4 "></path></clipPath><g clip-path="url(#clip0x7f8e450c6fa0)"><path d="M -0.2 -0.3 L -0.2 176.7 " fill="none" stroke="#A6AAA8" stroke-width="2.00" transform="matrix(1.00, 0.00, 0.00, -1.00, 259.2, 309.7)"></path></g></g><g><clipPath id="clip0x7f8e450cbfd0"><path d="M 274.4 131.8 L 278.4 131.8 L 278.4 310.1 L 274.4 310.1 Z M 274.4 131.8 "></path></clipPath><g clip-path="url(#clip0x7f8e450cbfd0)"><path d="M -0.4 0.1 L -0.4 176.1 " fill="none" stroke="#A6AAA8" stroke-width="2.00" transform="matrix(1.00, 0.00, 0.00, -1.00, 276.4, 309.1)"></path></g></g><text xml:space="preserve" font-family="Georgia,Georgia" font-size="36.0" fill="#000000" transform="matrix(1.00, 0.00, -0.00, -1.00, 130.6, 506.7)">J</text><text xml:space="preserve" font-family="Georgia,Georgia" font-size="36.0" fill="#000000" transform="matrix(1.00, 0.00, -0.00, -1.00, 149.2, 506.7)">o</text><text xml:space="preserve" font-family="Georgia,Georgia" font-size="36.0" fill="#000000" transform="matrix(1.00, 0.00, -0.00, -1.00, 168.6, 506.7)">h</text><text xml:space="preserve" font-family="Georgia,Georgia" font-size="36.0" fill="#000000" transform="matrix(1.00, 0.00, -0.00, -1.00, 189.6, 506.7)">t</text><text xml:space="preserve" font-family="Georgia,Georgia" font-size="36.0" fill="#000000" transform="matrix(1.00, 0.00, -0.00, -1.00, 202.0, 506.7)">i</text><text xml:space="preserve" font-family="Georgia,Georgia" font-size="36.0" fill="#000000" transform="matrix(1.00, 0.00, -0.00, -1.00, 212.6, 506.7)">m</text><text xml:space="preserve" font-family="Georgia,Georgia" font-size="36.0" fill="#000000" transform="matrix(1.00, 0.00, -0.00, -1.00, 244.3, 506.7)">e</text><text xml:space="preserve" font-family="Georgia,Georgia" font-size="36.0" fill="#000000" transform="matrix(1.00, 0.00, -0.00, -1.00, 261.7, 506.7)">s</text><text xml:space="preserve" font-family="Georgia,Georgia" font-size="36.0" fill="#000000" transform="matrix(1.00, 0.00, -0.00, -1.00, 277.2, 506.7)">s</text><text xml:space="preserve" font-family="Georgia,Georgia" font-size="36.0" fill="#000000" transform="matrix(1.00, 0.00, -0.00, -1.00, 292.8, 506.7)">a</text><text xml:space="preserve" font-family="Georgia,Georgia" font-size="36.0" fill="#000000" transform="matrix(1.00, 0.00, -0.00, -1.00, 310.9, 506.7)"> </text><text xml:space="preserve" font-family="Georgia,Georgia" font-size="36.0" fill="#000000" transform="matrix(1.00, 0.00, -0.00, -1.00, 319.6, 506.7)">k</text><text xml:space="preserve" font-family="Georgia,Georgia" font-size="36.0" fill="#000000" transform="matrix(1.00, 0.00, -0.00, -1.00, 338.9, 506.7)">u</text><text xml:space="preserve" font-family="Georgia,Georgia" font-size="36.0" fill="#000000" transform="matrix(1.00, 0.00, -0.00, -1.00, 359.6, 506.7)">l</text><text xml:space="preserve" font-family="Georgia,Georgia" font-size="36.0" fill="#000000" transform="matrix(1.00, 0.00, -0.00, -1.00, 369.9, 506.7)">k</text><text xml:space="preserve" font-family="Georgia,Georgia" font-size="36.0" fill="#000000" transform="matrix(1.00, 0.00, -0.00, -1.00, 389.2, 506.7)">e</text><text xml:space="preserve" font-family="Georgia,Georgia" font-size="36.0" fill="#000000" transform="matrix(1.00, 0.00, -0.00, -1.00, 406.6, 506.7)">v</text><text xml:space="preserve" font-family="Georgia,Georgia" font-size="36.0" fill="#000000" transform="matrix(1.00, 0.00, -0.00, -1.00, 424.5, 506.7)">a</text><text xml:space="preserve" font-family="Georgia,Georgia" font-size="36.0" fill="#000000" transform="matrix(1.00, 0.00, -0.00, -1.00, 442.6, 506.7)"> </text><text xml:space="preserve" font-family="Georgia,Georgia" font-size="36.0" fill="#000000" transform="matrix(1.00, 0.00, -0.00, -1.00, 130.6, 465.7)">s</text><text xml:space="preserve" font-family="Georgia,Georgia" font-size="36.0" fill="#000000" transform="matrix(1.00, 0.00, -0.00, -1.00, 146.2, 465.7)">ä</text><text xml:space="preserve" font-family="Georgia,Georgia" font-size="36.0" fill="#000000" transform="matrix(1.00, 0.00, -0.00, -1.00, 164.3, 465.7)">h</text><text xml:space="preserve" font-family="Georgia,Georgia" font-size="36.0" fill="#000000" transform="matrix(1.00, 0.00, -0.00, -1.00, 185.2, 465.7)">k</text><text xml:space="preserve" font-family="Georgia,Georgia" font-size="36.0" fill="#000000" transform="matrix(1.00, 0.00, -0.00, -1.00, 204.5, 465.7)">ö</text><text xml:space="preserve" font-family="Georgia,Georgia" font-size="36.0" fill="#000000" transform="matrix(1.00, 0.00, -0.00, -1.00, 223.9, 465.7)">v</text><text xml:space="preserve" font-family="Georgia,Georgia" font-size="36.0" fill="#000000" transform="matrix(1.00, 0.00, -0.00, -1.00, 241.8, 465.7)">i</text><text xml:space="preserve" font-family="Georgia,Georgia" font-size="36.0" fill="#000000" transform="matrix(1.00, 0.00, -0.00, -1.00, 252.3, 465.7)">r</text><text xml:space="preserve" font-family="Georgia,Georgia" font-size="36.0" fill="#000000" transform="matrix(1.00, 0.00, -0.00, -1.00, 267.1, 465.7)">t</text><text xml:space="preserve" font-family="Georgia,Georgia" font-size="36.0" fill="#000000" transform="matrix(1.00, 0.00, -0.00, -1.00, 279.5, 465.7)">a</text><text xml:space="preserve" font-family="Georgia,Georgia" font-size="36.0" fill="#000000" transform="matrix(1.00, 0.00, -0.00, -1.00, 297.6, 465.7)"> </text><text xml:space="preserve" font-family="Georgia,Georgia" font-size="36.0" fill="#000000" transform="matrix(1.00, 0.00, -0.00, -1.00, 306.3, 465.7)">a</text><text xml:space="preserve" font-family="Georgia,Georgia" font-size="36.0" fill="#000000" transform="matrix(1.00, 0.00, -0.00, -1.00, 324.5, 465.7)">i</text><text xml:space="preserve" font-family="Georgia,Georgia" font-size="36.0" fill="#000000" transform="matrix(1.00, 0.00, -0.00, -1.00, 335.0, 465.7)">h</text><text xml:space="preserve" font-family="Georgia,Georgia" font-size="36.0" fill="#000000" transform="matrix(1.00, 0.00, -0.00, -1.00, 356.0, 465.7)">e</text><text xml:space="preserve" font-family="Georgia,Georgia" font-size="36.0" fill="#000000" transform="matrix(1.00, 0.00, -0.00, -1.00, 373.4, 465.7)">u</text><text xml:space="preserve" font-family="Georgia,Georgia" font-size="36.0" fill="#000000" transform="matrix(1.00, 0.00, -0.00, -1.00, 394.1, 465.7)">t</text><text xml:space="preserve" font-family="Georgia,Georgia" font-size="36.0" fill="#000000" transform="matrix(1.00, 0.00, -0.00, -1.00, 406.5, 465.7)">t</text><text xml:space="preserve" font-family="Georgia,Georgia" font-size="36.0" fill="#000000" transform="matrix(1.00, 0.00, -0.00, -1.00, 419.0, 465.7)">a</text><text xml:space="preserve" font-family="Georgia,Georgia" font-size="36.0" fill="#000000" transform="matrix(1.00, 0.00, -0.00, -1.00, 437.1, 465.7)">a</text><text xml:space="preserve" font-family="Georgia,Georgia" font-size="36.0" fill="#000000" transform="matrix(1.00, 0.00, -0.00, -1.00, 455.2, 465.7)"> </text><text xml:space="preserve" font-family="Georgia,Georgia" font-size="36.0" fill="#000000" transform="matrix(1.00, 0.00, -0.00, -1.00, 130.6, 424.7)">y</text><text xml:space="preserve" font-family="Georgia,Georgia" font-size="36.0" fill="#000000" transform="matrix(1.00, 0.00, -0.00, -1.00, 148.3, 424.7)">m</text><text xml:space="preserve" font-family="Georgia,Georgia" font-size="36.0" fill="#000000" transform="matrix(1.00, 0.00, -0.00, -1.00, 180.0, 424.7)">p</text><text xml:space="preserve" font-family="Georgia,Georgia" font-size="36.0" fill="#000000" transform="matrix(1.00, 0.00, -0.00, -1.00, 200.6, 424.7)">ä</text><text xml:space="preserve" font-family="Georgia,Georgia" font-size="36.0" fill="#000000" transform="matrix(1.00, 0.00, -0.00, -1.00, 218.7, 424.7)">r</text><text xml:space="preserve" font-family="Georgia,Georgia" font-size="36.0" fill="#000000" transform="matrix(1.00, 0.00, -0.00, -1.00, 233.5, 424.7)">i</text><text xml:space="preserve" font-family="Georgia,Georgia" font-size="36.0" fill="#000000" transform="matrix(1.00, 0.00, -0.00, -1.00, 244.0, 424.7)">l</text><text xml:space="preserve" font-family="Georgia,Georgia" font-size="36.0" fill="#000000" transform="matrix(1.00, 0.00, -0.00, -1.00, 254.3, 424.7)">l</text><text xml:space="preserve" font-family="Georgia,Georgia" font-size="36.0" fill="#000000" transform="matrix(1.00, 0.00, -0.00, -1.00, 264.6, 424.7)">e</text><text xml:space="preserve" font-family="Georgia,Georgia" font-size="36.0" fill="#000000" transform="matrix(1.00, 0.00, -0.00, -1.00, 282.1, 424.7)">e</text><text xml:space="preserve" font-family="Georgia,Georgia" font-size="36.0" fill="#000000" transform="matrix(1.00, 0.00, -0.00, -1.00, 299.5, 424.7)">n</text><text xml:space="preserve" font-family="Georgia,Georgia" font-size="36.0" fill="#000000" transform="matrix(1.00, 0.00, -0.00, -1.00, 320.7, 424.7)"> </text><text xml:space="preserve" font-family="Georgia,Georgia" font-size="36.0" fill="#000000" transform="matrix(1.00, 0.00, -0.00, -1.00, 130.6, 383.7)">m</text><text xml:space="preserve" font-family="Georgia,Georgia" font-size="36.0" fill="#000000" transform="matrix(1.00, 0.00, -0.00, -1.00, 162.3, 383.7)">a</text><text xml:space="preserve" font-family="Georgia,Georgia" font-size="36.0" fill="#000000" transform="matrix(1.00, 0.00, -0.00, -1.00, 180.4, 383.7)">g</text><text xml:space="preserve" font-family="Georgia,Georgia" font-size="36.0" fill="#000000" transform="matrix(1.00, 0.00, -0.00, -1.00, 198.8, 383.7)">n</text><text xml:space="preserve" font-family="Georgia,Georgia" font-size="36.0" fill="#000000" transform="matrix(1.00, 0.00, -0.00, -1.00, 220.0, 383.7)">e</text><text xml:space="preserve" font-family="Georgia,Georgia" font-size="36.0" fill="#000000" transform="matrix(1.00, 0.00, -0.00, -1.00, 237.5, 383.7)">e</text><text xml:space="preserve" font-family="Georgia,Georgia" font-size="36.0" fill="#000000" transform="matrix(1.00, 0.00, -0.00, -1.00, 254.9, 383.7)">t</text><text xml:space="preserve" font-family="Georgia,Georgia" font-size="36.0" fill="#000000" transform="matrix(1.00, 0.00, -0.00, -1.00, 267.3, 383.7)">t</text><text xml:space="preserve" font-family="Georgia,Georgia" font-size="36.0" fill="#000000" transform="matrix(1.00, 0.00, -0.00, -1.00, 279.7, 383.7)">i</text><text xml:space="preserve" font-family="Georgia,Georgia" font-size="36.0" fill="#000000" transform="matrix(1.00, 0.00, -0.00, -1.00, 290.3, 383.7)">k</text><text xml:space="preserve" font-family="Georgia,Georgia" font-size="36.0" fill="#000000" transform="matrix(1.00, 0.00, -0.00, -1.00, 309.6, 383.7)">e</text><text xml:space="preserve" font-family="Georgia,Georgia" font-size="36.0" fill="#000000" transform="matrix(1.00, 0.00, -0.00, -1.00, 327.0, 383.7)">n</text><text xml:space="preserve" font-family="Georgia,Georgia" font-size="36.0" fill="#000000" transform="matrix(1.00, 0.00, -0.00, -1.00, 348.2, 383.7)">t</text><text xml:space="preserve" font-family="Georgia,Georgia" font-size="36.0" fill="#000000" transform="matrix(1.00, 0.00, -0.00, -1.00, 360.7, 383.7)">ä</text><text xml:space="preserve" font-family="Georgia,Georgia" font-size="36.0" fill="#000000" transform="matrix(1.00, 0.00, -0.00, -1.00, 378.8, 383.7)">n</text><text xml:space="preserve" font-family="Georgia,Georgia" font-size="36.0" fill="#000000" transform="matrix(1.00, 0.00, -0.00, -1.00, 612.9, 527.2)">M</text><text xml:space="preserve" font-family="Georgia,Georgia" font-size="36.0" fill="#000000" transform="matrix(1.00, 0.00, -0.00, -1.00, 646.3, 527.2)">u</text><text xml:space="preserve" font-family="Georgia,Georgia" font-size="36.0" fill="#000000" transform="matrix(1.00, 0.00, -0.00, -1.00, 667.0, 527.2)">u</text><text xml:space="preserve" font-family="Georgia,Georgia" font-size="36.0" fill="#000000" transform="matrix(1.00, 0.00, -0.00, -1.00, 687.8, 527.2)">t</text><text xml:space="preserve" font-family="Georgia,Georgia" font-size="36.0" fill="#000000" transform="matrix(1.00, 0.00, -0.00, -1.00, 700.2, 527.2)">t</text><text xml:space="preserve" font-family="Georgia,Georgia" font-size="36.0" fill="#000000" transform="matrix(1.00, 0.00, -0.00, -1.00, 712.6, 527.2)">u</text><text xml:space="preserve" font-family="Georgia,Georgia" font-size="36.0" fill="#000000" transform="matrix(1.00, 0.00, -0.00, -1.00, 733.3, 527.2)">v</text><text xml:space="preserve" font-family="Georgia,Georgia" font-size="36.0" fill="#000000" transform="matrix(1.00, 0.00, -0.00, -1.00, 751.2, 527.2)">a</text><text xml:space="preserve" font-family="Georgia,Georgia" font-size="36.0" fill="#000000" transform="matrix(1.00, 0.00, -0.00, -1.00, 769.3, 527.2)"> </text><text xml:space="preserve" font-family="Georgia,Georgia" font-size="36.0" fill="#000000" transform="matrix(1.00, 0.00, -0.00, -1.00, 612.9, 486.2)">m</text><text xml:space="preserve" font-family="Georgia,Georgia" font-size="36.0" fill="#000000" transform="matrix(1.00, 0.00, -0.00, -1.00, 644.6, 486.2)">a</text><text xml:space="preserve" font-family="Georgia,Georgia" font-size="36.0" fill="#000000" transform="matrix(1.00, 0.00, -0.00, -1.00, 662.8, 486.2)">g</text><text xml:space="preserve" font-family="Georgia,Georgia" font-size="36.0" fill="#000000" transform="matrix(1.00, 0.00, -0.00, -1.00, 681.1, 486.2)">n</text><text xml:space="preserve" font-family="Georgia,Georgia" font-size="36.0" fill="#000000" transform="matrix(1.00, 0.00, -0.00, -1.00, 702.4, 486.2)">e</text><text xml:space="preserve" font-family="Georgia,Georgia" font-size="36.0" fill="#000000" transform="matrix(1.00, 0.00, -0.00, -1.00, 719.8, 486.2)">e</text><text xml:space="preserve" font-family="Georgia,Georgia" font-size="36.0" fill="#000000" transform="matrix(1.00, 0.00, -0.00, -1.00, 737.2, 486.2)">t</text><text xml:space="preserve" font-family="Georgia,Georgia" font-size="36.0" fill="#000000" transform="matrix(1.00, 0.00, -0.00, -1.00, 749.7, 486.2)">t</text><text xml:space="preserve" font-family="Georgia,Georgia" font-size="36.0" fill="#000000" transform="matrix(1.00, 0.00, -0.00, -1.00, 762.1, 486.2)">i</text><text xml:space="preserve" font-family="Georgia,Georgia" font-size="36.0" fill="#000000" transform="matrix(1.00, 0.00, -0.00, -1.00, 772.6, 486.2)">k</text><text xml:space="preserve" font-family="Georgia,Georgia" font-size="36.0" fill="#000000" transform="matrix(1.00, 0.00, -0.00, -1.00, 791.9, 486.2)">e</text><text xml:space="preserve" font-family="Georgia,Georgia" font-size="36.0" fill="#000000" transform="matrix(1.00, 0.00, -0.00, -1.00, 809.3, 486.2)">n</text><text xml:space="preserve" font-family="Georgia,Georgia" font-size="36.0" fill="#000000" transform="matrix(1.00, 0.00, -0.00, -1.00, 830.6, 486.2)">t</text><text xml:space="preserve" font-family="Georgia,Georgia" font-size="36.0" fill="#000000" transform="matrix(1.00, 0.00, -0.00, -1.00, 843.0, 486.2)">t</text><text xml:space="preserve" font-family="Georgia,Georgia" font-size="36.0" fill="#000000" transform="matrix(1.00, 0.00, -0.00, -1.00, 855.5, 486.2)">ä</text><text xml:space="preserve" font-family="Georgia,Georgia" font-size="36.0" fill="#000000" transform="matrix(1.00, 0.00, -0.00, -1.00, 873.6, 486.2)"> </text><text xml:space="preserve" font-family="Georgia,Georgia" font-size="36.0" fill="#000000" transform="matrix(1.00, 0.00, -0.00, -1.00, 612.9, 445.2)">a</text><text xml:space="preserve" font-family="Georgia,Georgia" font-size="36.0" fill="#000000" transform="matrix(1.00, 0.00, -0.00, -1.00, 631.1, 445.2)">i</text><text xml:space="preserve" font-family="Georgia,Georgia" font-size="36.0" fill="#000000" transform="matrix(1.00, 0.00, -0.00, -1.00, 641.6, 445.2)">h</text><text xml:space="preserve" font-family="Georgia,Georgia" font-size="36.0" fill="#000000" transform="matrix(1.00, 0.00, -0.00, -1.00, 662.6, 445.2)">e</text><text xml:space="preserve" font-family="Georgia,Georgia" font-size="36.0" fill="#000000" transform="matrix(1.00, 0.00, -0.00, -1.00, 680.0, 445.2)">u</text><text xml:space="preserve" font-family="Georgia,Georgia" font-size="36.0" fill="#000000" transform="matrix(1.00, 0.00, -0.00, -1.00, 700.7, 445.2)">t</text><text xml:space="preserve" font-family="Georgia,Georgia" font-size="36.0" fill="#000000" transform="matrix(1.00, 0.00, -0.00, -1.00, 713.1, 445.2)">t</text><text xml:space="preserve" font-family="Georgia,Georgia" font-size="36.0" fill="#000000" transform="matrix(1.00, 0.00, -0.00, -1.00, 725.6, 445.2)">a</text><text xml:space="preserve" font-family="Georgia,Georgia" font-size="36.0" fill="#000000" transform="matrix(1.00, 0.00, -0.00, -1.00, 743.7, 445.2)">a</text><text xml:space="preserve" font-family="Georgia,Georgia" font-size="36.0" fill="#000000" transform="matrix(1.00, 0.00, -0.00, -1.00, 761.9, 445.2)"> </text><text xml:space="preserve" font-family="Georgia,Georgia" font-size="36.0" fill="#000000" transform="matrix(1.00, 0.00, -0.00, -1.00, 612.9, 404.2)">j</text><text xml:space="preserve" font-family="Georgia,Georgia" font-size="36.0" fill="#000000" transform="matrix(1.00, 0.00, -0.00, -1.00, 623.5, 404.2)">o</text><text xml:space="preserve" font-family="Georgia,Georgia" font-size="36.0" fill="#000000" transform="matrix(1.00, 0.00, -0.00, -1.00, 642.9, 404.2)">h</text><text xml:space="preserve" font-family="Georgia,Georgia" font-size="36.0" fill="#000000" transform="matrix(1.00, 0.00, -0.00, -1.00, 663.8, 404.2)">t</text><text xml:space="preserve" font-family="Georgia,Georgia" font-size="36.0" fill="#000000" transform="matrix(1.00, 0.00, -0.00, -1.00, 676.2, 404.2)">i</text><text xml:space="preserve" font-family="Georgia,Georgia" font-size="36.0" fill="#000000" transform="matrix(1.00, 0.00, -0.00, -1.00, 686.8, 404.2)">m</text><text xml:space="preserve" font-family="Georgia,Georgia" font-size="36.0" fill="#000000" transform="matrix(1.00, 0.00, -0.00, -1.00, 718.5, 404.2)">e</text><text xml:space="preserve" font-family="Georgia,Georgia" font-size="36.0" fill="#000000" transform="matrix(1.00, 0.00, -0.00, -1.00, 735.9, 404.2)">e</text><text xml:space="preserve" font-family="Georgia,Georgia" font-size="36.0" fill="#000000" transform="matrix(1.00, 0.00, -0.00, -1.00, 753.3, 404.2)">n</text><text xml:space="preserve" font-family="Georgia,Georgia" font-size="36.0" fill="#000000" transform="matrix(1.00, 0.00, -0.00, -1.00, 774.6, 404.2)"> </text><text xml:space="preserve" font-family="Georgia,Georgia" font-size="36.0" fill="#000000" transform="matrix(1.00, 0.00, -0.00, -1.00, 612.9, 363.2)">s</text><text xml:space="preserve" font-family="Georgia,Georgia" font-size="36.0" fill="#000000" transform="matrix(1.00, 0.00, -0.00, -1.00, 628.5, 363.2)">ä</text><text xml:space="preserve" font-family="Georgia,Georgia" font-size="36.0" fill="#000000" transform="matrix(1.00, 0.00, -0.00, -1.00, 646.6, 363.2)">h</text><text xml:space="preserve" font-family="Georgia,Georgia" font-size="36.0" fill="#000000" transform="matrix(1.00, 0.00, -0.00, -1.00, 667.6, 363.2)">k</text><text xml:space="preserve" font-family="Georgia,Georgia" font-size="36.0" fill="#000000" transform="matrix(1.00, 0.00, -0.00, -1.00, 686.9, 363.2)">ö</text><text xml:space="preserve" font-family="Georgia,Georgia" font-size="36.0" fill="#000000" transform="matrix(1.00, 0.00, -0.00, -1.00, 706.3, 363.2)">v</text><text xml:space="preserve" font-family="Georgia,Georgia" font-size="36.0" fill="#000000" transform="matrix(1.00, 0.00, -0.00, -1.00, 724.1, 363.2)">i</text><text xml:space="preserve" font-family="Georgia,Georgia" font-size="36.0" fill="#000000" transform="matrix(1.00, 0.00, -0.00, -1.00, 734.7, 363.2)">r</text><text xml:space="preserve" font-family="Georgia,Georgia" font-size="36.0" fill="#000000" transform="matrix(1.00, 0.00, -0.00, -1.00, 749.4, 363.2)">r</text><text xml:space="preserve" font-family="Georgia,Georgia" font-size="36.0" fill="#000000" transform="matrix(1.00, 0.00, -0.00, -1.00, 764.2, 363.2)">a</text><text xml:space="preserve" font-family="Georgia,Georgia" font-size="36.0" fill="#000000" transform="matrix(1.00, 0.00, -0.00, -1.00, 782.3, 363.2)">n</text><g><clipPath id="clip0x7f8e46348ea0"><path d="M 655.4 316.8 L 708.8 264.2 L 685.2 240.2 L 631.8 292.9 Z M 655.4 316.8 "></path></clipPath><g clip-path="url(#clip0x7f8e46348ea0)"><image xlink:href="05679B608B978AF97BB7C4ABD08BE1B6.png" width="73.00" height="32.00" transform="matrix(0.71, -0.70, -0.69, -0.70, 655.4, 315.4)" opacity="0.50"></image></g></g><g><clipPath id="clip0x7f8e450a1150"><path d="M 655.4 316.8 L 708.8 264.2 L 685.2 240.2 L 631.8 292.9 Z M 655.4 316.8 "></path></clipPath><g clip-path="url(#clip0x7f8e450a1150)"><g><clipPath id="clip0x7f8e450a1950"><path d="M 655.4 313.2 L 703.2 266.1 L 685.2 247.9 L 637.4 294.9 Z M 655.4 313.2 "></path></clipPath><g clip-path="url(#clip0x7f8e450a1950)"><image xlink:href="../../0099E750-43F4-4A1E-80C1-2076B752852F/assets/ADFEDB07BA590A41659D8979D96483E7.png" width="600.00" height="600.00" transform="matrix(0.36, -0.35, -0.35, -0.36, 655.4, 313.2)"></image></g></g></g></g><g><clipPath id="clip0x7f8e46346800"><path d="M 703.3 272.1 L 758.1 218.0 L 733.1 192.6 L 678.3 246.7 Z M 703.3 272.1 "></path></clipPath><g clip-path="url(#clip0x7f8e46346800)"><image xlink:href="ACB04406A5B6D4F868961DFB8FF661BE.png" width="75.00" height="34.00" transform="matrix(0.71, -0.70, -0.69, -0.70, 703.3, 270.6)" opacity="0.50"></image></g></g><g><clipPath id="clip0x7f8e450a27c0"><path d="M 703.3 272.1 L 758.1 218.0 L 733.1 192.6 L 678.3 246.7 Z M 703.3 272.1 "></path></clipPath><g clip-path="url(#clip0x7f8e450a27c0)"><g><clipPath id="clip0x7f8e450a2ef0"><path d="M 703.3 266.0 L 751.1 218.9 L 733.1 200.7 L 685.3 247.7 Z M 703.3 266.0 "></path></clipPath><g clip-path="url(#clip0x7f8e450a2ef0)"><image xlink:href="57C63BC369DF2E161F93135AB5988468.png" width="600.00" height="600.00" transform="matrix(0.36, -0.35, -0.35, -0.36, 703.3, 266.0)"></image></g></g></g></g><g><clipPath id="clip0x7f8e4509ea70"><path d="M 657.9 309.2 L 669.6 297.7 L 653.1 281.0 L 641.4 292.5 Z M 657.9 309.2 "></path></clipPath><g clip-path="url(#clip0x7f8e4509ea70)"><g><clipPath id="clip0x7f8e4509f3e0"><path d="M 659.4 305.0 L 665.3 299.1 L 651.3 284.9 L 645.3 290.8 Z M 659.4 305.0 "></path></clipPath><g clip-path="url(#clip0x7f8e4509f3e0)"><text xml:space="preserve" font-family="Helvetica,Helvetica" font-size="12.0" fill="#000000" transform="matrix(0.71, -0.70, -0.70, -0.71, 649.4, 294.9)">N</text></g></g></g></g><g><clipPath id="clip0x7f8e4509bed0"><path d="M 735.7 232.5 L 746.8 221.6 L 730.3 204.9 L 719.3 215.8 Z M 735.7 232.5 "></path></clipPath><g clip-path="url(#clip0x7f8e4509bed0)"><g><clipPath id="clip0x7f8e4509c5e0"><path d="M 737.2 228.3 L 742.5 223.0 L 728.5 208.8 L 723.1 214.0 Z M 737.2 228.3 "></path></clipPath><g clip-path="url(#clip0x7f8e4509c5e0)"><text xml:space="preserve" font-family="Helvetica,Helvetica" font-size="12.0" fill="#000000" transform="matrix(0.71, -0.70, -0.70, -0.71, 727.2, 218.1)">S</text></g></g></g></g><g><clipPath id="clip0x7f8e4509b690"><path d="M 837.3 199.2 L 882.3 199.2 L 882.3 184.0 L 837.3 184.0 Z M 837.3 199.2 "></path></clipPath><g clip-path="url(#clip0x7f8e4509b690)"><path d="M -0.3 0.1 L 29.9 0.1 L 31.7 0.1 " fill="none" stroke="#000000" stroke-width="3.00" transform="matrix(1.00, 0.00, 0.00, -1.00, 838.3, 191.6)"></path><path d="M 868.5 184.9 L 881.7 191.5 L 868.5 198.1 Z M 868.5 184.9 " fill="#000000"></path></g></g><g><clipPath id="clip0x7f8e4509ae20"><path d="M 845.4 240.1 L 887.2 240.1 L 887.2 182.8 L 845.4 182.8 Z M 845.4 240.1 "></path></clipPath><g clip-path="url(#clip0x7f8e4509ae20)"><text xml:space="preserve" font-family="Georgia,Georgia" font-size="28.0" fill="#000000" transform="matrix(1.00, 0.00, -0.00, -1.00, 853.4, 201.2)">I</text></g></g><g><clipPath id="clip0x7f8e45099130"><path d="M 711.2 178.8 L 711.2 157.6 L 705.0 157.6 L 705.0 178.8 Z M 711.2 178.8 "></path></clipPath><g clip-path="url(#clip0x7f8e45099130)"><path d="M 14.7 0.3 C 18.1 0.8 18.1 1.5 14.7 1.9 C 11.3 2.4 5.9 2.4 2.5 1.9 C -0.8 1.5 -0.8 0.8 2.5 0.3 C 5.9 -0.1 11.3 -0.1 14.7 0.3 Z M 14.7 0.3 " fill="none" stroke="#85878C" stroke-width="2.00" transform="matrix(0.00, -1.00, -1.00, 0.00, 709.2, 176.8)"></path></g></g><g><clipPath id="clip0x7f8e450934b0"><path d="M 722.6 188.2 L 722.6 148.3 L 707.4 148.3 L 707.4 188.2 Z M 722.6 188.2 "></path></clipPath><g clip-path="url(#clip0x7f8e450934b0)"><path d="M 722.0 187.0 L 722.0 149.0 L 708.0 149.0 L 708.0 187.0 Z M 721.6 187.2 " fill="#FEFFFE"></path></g></g><g><clipPath id="clip0x7f8e45094250"><path d="M 888.0 178.8 L 888.0 157.6 L 881.7 157.6 L 881.7 178.8 Z M 888.0 178.8 "></path></clipPath><g clip-path="url(#clip0x7f8e45094250)"><path d="M 14.7 0.3 C 18.1 0.8 18.1 1.5 14.7 1.9 C 11.3 2.4 5.9 2.4 2.5 1.9 C -0.8 1.5 -0.8 0.8 2.5 0.3 C 5.9 -0.1 11.3 -0.1 14.7 0.3 Z M 14.7 0.3 " fill="none" stroke="#85878C" stroke-width="2.00" transform="matrix(0.00, -1.00, -1.00, 0.00, 886.0, 176.8)"></path></g></g><g><clipPath id="clip0x7f8e45095410"><path d="M 835.2 178.4 L 835.2 158.0 L 796.8 158.0 L 796.8 178.4 Z M 835.2 178.4 "></path></clipPath><g clip-path="url(#clip0x7f8e45095410)"><path d="M 834.0 177.0 L 834.0 159.0 L 798.0 159.0 L 798.0 177.0 Z M 834.2 177.4 " fill="#FEFFFE"></path></g></g><g><clipPath id="clip0x7f8e450961b0"><path d="M 886.0 179.0 L 886.0 175.0 L 707.7 175.0 L 707.7 179.0 Z M 886.0 179.0 "></path></clipPath><g clip-path="url(#clip0x7f8e450961b0)"><path d="M -0.0 -0.0 L -0.0 176.0 " fill="none" stroke="#A6AAA8" stroke-width="2.00" transform="matrix(0.00, -1.00, -1.00, 0.00, 885.0, 177.0)"></path></g></g><g><clipPath id="clip0x7f8e450971a0"><path d="M 885.4 161.8 L 885.4 157.8 L 707.1 157.8 L 707.1 161.8 Z M 885.4 161.8 "></path></clipPath><g clip-path="url(#clip0x7f8e450971a0)"><path d="M -0.2 0.4 L -0.2 176.4 " fill="none" stroke="#A6AAA8" stroke-width="2.00" transform="matrix(0.00, -1.00, -1.00, 0.00, 884.4, 159.8)"></path></g></g><path d="M 0.0 0.0 L 45.1 0.0 L 46.1 0.0 " fill="none" stroke="#000000" stroke-width="2.00" transform="matrix(0.71, -0.71, -0.71, -0.71, 674.9, 315.3)"></path><path d="M 703.4 280.0 L 713.6 276.6 L 710.2 286.8 Z M 703.4 280.0 " fill="#000000"></path><g><clipPath id="clip0x7f8e45091ea0"><path d="M 754.7 200.2 L 803.9 200.2 L 803.9 233.5 L 754.7 233.5 Z M 754.7 200.2 "></path></clipPath><g clip-path="url(#clip0x7f8e45091ea0)"><path d="M 0.0 23.7 C 26.6 46.2 45.6 0.0 45.6 0.0 " fill="none" stroke="#000000" stroke-width="2.00" transform="matrix(1.00, 0.00, 0.00, -1.00, 756.3, 232.1)"></path></g></g><g><clipPath id="clip0x7f8e4508ae50"><path d="M 745.4 161.1 L 791.7 161.1 L 791.7 202.9 L 745.4 202.9 Z M 745.4 161.1 "></path></clipPath><g clip-path="url(#clip0x7f8e4508ae50)"><path d="M 0.0 0.0 C 25.2 22.9 42.9 38.2 42.9 38.2 " fill="none" stroke="#000000" stroke-width="2.00" transform="matrix(1.00, 0.00, 0.00, -1.00, 747.1, 201.1)"></path></g></g><g><clipPath id="clip0x7f8e45089390"><path d="M 724.2 141.0 L 747.7 141.0 L 747.7 194.2 L 724.2 194.2 Z M 724.2 141.0 "></path></clipPath><g clip-path="url(#clip0x7f8e45089390)"><path d="M 12.7 0.0 C 34.5 25.5 0.0 49.8 0.0 49.8 " fill="none" stroke="#000000" stroke-width="2.00" transform="matrix(1.00, 0.00, 0.00, -1.00, 725.8, 192.5)"></path></g></g><g><clipPath id="clip0x7f8e45087d60"><path d="M 749.8 188.4 L 818.3 188.4 L 818.3 206.9 L 749.8 206.9 Z M 749.8 188.4 "></path></clipPath><g clip-path="url(#clip0x7f8e45087d60)"><path d="M 0.0 0.0 C 28.4 25.6 65.4 9.8 65.4 9.8 " fill="none" stroke="#000000" stroke-width="2.00" transform="matrix(1.00, 0.00, 0.00, -1.00, 751.5, 205.1)"></path></g></g><g><clipPath id="clip0x7f8e45086b60"><path d="M 742.3 141.8 L 762.8 141.8 L 762.8 197.2 L 742.3 197.2 Z M 742.3 141.8 "></path></clipPath><g clip-path="url(#clip0x7f8e45086b60)"><path d="M 0.0 0.0 C 21.6 23.8 16.0 52.5 16.0 52.5 " fill="none" stroke="#000000" stroke-width="2.00" transform="matrix(1.00, 0.00, 0.00, -1.00, 744.1, 195.5)"></path></g></g></g></svg>