<?xml version="1.0" encoding="UTF-8" standalone="no"?><svg xmlns="http://www.w3.org/2000/svg" xmlns:xlink="http://www.w3.org/1999/xlink" clip-rule="evenodd" stroke-miterlimit="10" viewBox="0 0 1024 768"><desc>SVG generated by Keynote</desc><defs></defs><g transform="matrix(1.00, 0.00, -0.00, -1.00, 0.0, 768.0)"><path d="M 0.0 768.0 L 1024.0 768.0 L 1024.0 0.0 L 0.0 0.0 Z M 0.0 768.0 " fill="#FEFFFF"></path><text xml:space="preserve" font-family="Georgia,Georgia" font-size="65.0" fill="#000000" transform="matrix(1.00, 0.00, -0.00, -1.00, 260.4, 674.3)">T</text><text xml:space="preserve" font-family="Georgia,Georgia" font-size="65.0" fill="#000000" transform="matrix(1.00, 0.00, -0.00, -1.00, 300.6, 674.3)">y</text><text xml:space="preserve" font-family="Georgia,Georgia" font-size="65.0" fill="#000000" transform="matrix(1.00, 0.00, -0.00, -1.00, 332.6, 674.3)">ö</text><text xml:space="preserve" font-family="Georgia,Georgia" font-size="65.0" fill="#000000" transform="matrix(1.00, 0.00, -0.00, -1.00, 367.6, 674.3)">:</text><text xml:space="preserve" font-family="Georgia,Georgia" font-size="65.0" fill="#000000" transform="matrix(1.00, 0.00, -0.00, -1.00, 387.9, 674.3)"> </text><text xml:space="preserve" font-family="Georgia,Georgia" font-size="65.0" fill="#000000" transform="matrix(1.00, 0.00, -0.00, -1.00, 403.6, 674.3)">l</text><text xml:space="preserve" font-family="Georgia,Georgia" font-size="65.0" fill="#000000" transform="matrix(1.00, 0.00, -0.00, -1.00, 422.2, 674.3)">i</text><text xml:space="preserve" font-family="Georgia,Georgia" font-size="65.0" fill="#000000" transform="matrix(1.00, 0.00, -0.00, -1.00, 441.2, 674.3)">i</text><text xml:space="preserve" font-family="Georgia,Georgia" font-size="65.0" fill="#000000" transform="matrix(1.00, 0.00, -0.00, -1.00, 460.3, 674.3)">k</text><text xml:space="preserve" font-family="Georgia,Georgia" font-size="65.0" fill="#000000" transform="matrix(1.00, 0.00, -0.00, -1.00, 495.1, 674.3)">e</text><text xml:space="preserve" font-family="Georgia,Georgia" font-size="65.0" fill="#000000" transform="matrix(1.00, 0.00, -0.00, -1.00, 526.5, 674.3)">-</text><text xml:space="preserve" font-family="Georgia,Georgia" font-size="65.0" fill="#000000" transform="matrix(1.00, 0.00, -0.00, -1.00, 550.8, 674.3)">e</text><text xml:space="preserve" font-family="Georgia,Georgia" font-size="65.0" fill="#000000" transform="matrix(1.00, 0.00, -0.00, -1.00, 582.3, 674.3)">n</text><text xml:space="preserve" font-family="Georgia,Georgia" font-size="65.0" fill="#000000" transform="matrix(1.00, 0.00, -0.00, -1.00, 620.7, 674.3)">e</text><text xml:space="preserve" font-family="Georgia,Georgia" font-size="65.0" fill="#000000" transform="matrix(1.00, 0.00, -0.00, -1.00, 652.1, 674.3)">r</text><text xml:space="preserve" font-family="Georgia,Georgia" font-size="65.0" fill="#000000" transform="matrix(1.00, 0.00, -0.00, -1.00, 678.7, 674.3)">g</text><text xml:space="preserve" font-family="Georgia,Georgia" font-size="65.0" fill="#000000" transform="matrix(1.00, 0.00, -0.00, -1.00, 711.9, 674.3)">i</text><text xml:space="preserve" font-family="Georgia,Georgia" font-size="65.0" fill="#000000" transform="matrix(1.00, 0.00, -0.00, -1.00, 730.9, 674.3)">a</text><text xml:space="preserve" font-family="LMRoman10-Regular,Latin Modern Roman" font-size="21.0" fill="#000000" transform="matrix(1.00, 0.00, -0.00, -1.00, 102.4, 591.6)">•</text><text xml:space="preserve" font-family="LMRoman10-Regular,Latin Modern Roman" font-size="28.0" fill="#000000" transform="matrix(1.00, 0.00, -0.00, -1.00, 129.6, 588.6)">P</text><text xml:space="preserve" font-family="LMRoman10-Regular,Latin Modern Roman" font-size="28.0" fill="#000000" transform="matrix(1.00, 0.00, -0.00, -1.00, 147.9, 588.6)">ä</text><text xml:space="preserve" font-family="LMRoman10-Regular,Latin Modern Roman" font-size="28.0" fill="#000000" transform="matrix(1.00, 0.00, -0.00, -1.00, 161.9, 588.6)">ä</text><text xml:space="preserve" font-family="LMRoman10-Regular,Latin Modern Roman" font-size="28.0" fill="#000000" transform="matrix(1.00, 0.00, -0.00, -1.00, 175.9, 588.6)">s</text><text xml:space="preserve" font-family="LMRoman10-Regular,Latin Modern Roman" font-size="28.0" fill="#000000" transform="matrix(1.00, 0.00, -0.00, -1.00, 186.9, 588.6)">t</text><text xml:space="preserve" font-family="LMRoman10-Regular,Latin Modern Roman" font-size="28.0" fill="#000000" transform="matrix(1.00, 0.00, -0.00, -1.00, 197.8, 588.6)">ä</text><text xml:space="preserve" font-family="LMRoman10-Regular,Latin Modern Roman" font-size="28.0" fill="#000000" transform="matrix(1.00, 0.00, -0.00, -1.00, 211.8, 588.6)"> </text><text xml:space="preserve" font-family="LMRoman10-Regular,Latin Modern Roman" font-size="28.0" fill="#000000" transform="matrix(1.00, 0.00, -0.00, -1.00, 221.1, 588.6)">k</text><text xml:space="preserve" font-family="LMRoman10-Regular,Latin Modern Roman" font-size="28.0" fill="#000000" transform="matrix(1.00, 0.00, -0.00, -1.00, 235.9, 588.6)">ä</text><text xml:space="preserve" font-family="LMRoman10-Regular,Latin Modern Roman" font-size="28.0" fill="#000000" transform="matrix(1.00, 0.00, -0.00, -1.00, 249.9, 588.6)">r</text><text xml:space="preserve" font-family="LMRoman10-Regular,Latin Modern Roman" font-size="28.0" fill="#000000" transform="matrix(1.00, 0.00, -0.00, -1.00, 260.9, 588.6)">r</text><text xml:space="preserve" font-family="LMRoman10-Regular,Latin Modern Roman" font-size="28.0" fill="#000000" transform="matrix(1.00, 0.00, -0.00, -1.00, 271.9, 588.6)">y</text><text xml:space="preserve" font-family="LMRoman10-Regular,Latin Modern Roman" font-size="28.0" fill="#000000" transform="matrix(1.00, 0.00, -0.00, -1.00, 286.7, 588.6)"> </text><text xml:space="preserve" font-family="LMRoman10-Regular,Latin Modern Roman" font-size="28.0" fill="#000000" transform="matrix(1.00, 0.00, -0.00, -1.00, 296.0, 588.6)">l</text><text xml:space="preserve" font-family="LMRoman10-Regular,Latin Modern Roman" font-size="28.0" fill="#000000" transform="matrix(1.00, 0.00, -0.00, -1.00, 303.8, 588.6)">i</text><text xml:space="preserve" font-family="LMRoman10-Regular,Latin Modern Roman" font-size="28.0" fill="#000000" transform="matrix(1.00, 0.00, -0.00, -1.00, 311.5, 588.6)">u</text><text xml:space="preserve" font-family="LMRoman10-Regular,Latin Modern Roman" font-size="28.0" fill="#000000" transform="matrix(1.00, 0.00, -0.00, -1.00, 327.1, 588.6)">k</text><text xml:space="preserve" font-family="LMRoman10-Regular,Latin Modern Roman" font-size="28.0" fill="#000000" transform="matrix(1.00, 0.00, -0.00, -1.00, 341.9, 588.6)">u</text><text xml:space="preserve" font-family="LMRoman10-Regular,Latin Modern Roman" font-size="28.0" fill="#000000" transform="matrix(1.00, 0.00, -0.00, -1.00, 357.5, 588.6)">m</text><text xml:space="preserve" font-family="LMRoman10-Regular,Latin Modern Roman" font-size="28.0" fill="#000000" transform="matrix(1.00, 0.00, -0.00, -1.00, 380.8, 588.6)">a</text><text xml:space="preserve" font-family="LMRoman10-Regular,Latin Modern Roman" font-size="28.0" fill="#000000" transform="matrix(1.00, 0.00, -0.00, -1.00, 394.8, 588.6)">a</text><text xml:space="preserve" font-family="LMRoman10-Regular,Latin Modern Roman" font-size="28.0" fill="#000000" transform="matrix(1.00, 0.00, -0.00, -1.00, 408.8, 588.6)">n</text><text xml:space="preserve" font-family="LMRoman10-Regular,Latin Modern Roman" font-size="28.0" fill="#000000" transform="matrix(1.00, 0.00, -0.00, -1.00, 424.4, 588.6)"> </text><text xml:space="preserve" font-family="LMRoman10-Regular,Latin Modern Roman" font-size="28.0" fill="#000000" transform="matrix(1.00, 0.00, -0.00, -1.00, 433.7, 588.6)">r</text><text xml:space="preserve" font-family="LMRoman10-Regular,Latin Modern Roman" font-size="28.0" fill="#000000" transform="matrix(1.00, 0.00, -0.00, -1.00, 444.7, 588.6)">a</text><text xml:space="preserve" font-family="LMRoman10-Regular,Latin Modern Roman" font-size="28.0" fill="#000000" transform="matrix(1.00, 0.00, -0.00, -1.00, 458.7, 588.6)">t</text><text xml:space="preserve" font-family="LMRoman10-Regular,Latin Modern Roman" font-size="28.0" fill="#000000" transform="matrix(1.00, 0.00, -0.00, -1.00, 469.6, 588.6)">a</text><text xml:space="preserve" font-family="LMRoman10-Regular,Latin Modern Roman" font-size="28.0" fill="#000000" transform="matrix(1.00, 0.00, -0.00, -1.00, 483.6, 588.6)">a</text><text xml:space="preserve" font-family="LMRoman10-Regular,Latin Modern Roman" font-size="28.0" fill="#000000" transform="matrix(1.00, 0.00, -0.00, -1.00, 497.6, 588.6)"> </text><text xml:space="preserve" font-family="LMRoman10-Regular,Latin Modern Roman" font-size="28.0" fill="#000000" transform="matrix(1.00, 0.00, -0.00, -1.00, 506.9, 588.6)">a</text><text xml:space="preserve" font-family="LMRoman10-Regular,Latin Modern Roman" font-size="28.0" fill="#000000" transform="matrix(1.00, 0.00, -0.00, -1.00, 520.9, 588.6)">l</text><text xml:space="preserve" font-family="LMRoman10-Regular,Latin Modern Roman" font-size="28.0" fill="#000000" transform="matrix(1.00, 0.00, -0.00, -1.00, 528.7, 588.6)">a</text><text xml:space="preserve" font-family="LMRoman10-Regular,Latin Modern Roman" font-size="28.0" fill="#000000" transform="matrix(1.00, 0.00, -0.00, -1.00, 542.7, 588.6)">s</text><text xml:space="preserve" font-family="LMRoman10-Regular,Latin Modern Roman" font-size="28.0" fill="#000000" transform="matrix(1.00, 0.00, -0.00, -1.00, 553.7, 588.6)"> </text><text xml:space="preserve" font-family="LMRoman10-Regular,Latin Modern Roman" font-size="28.0" fill="#000000" transform="matrix(1.00, 0.00, -0.00, -1.00, 129.6, 548.6)">j</text><text xml:space="preserve" font-family="LMRoman10-Regular,Latin Modern Roman" font-size="28.0" fill="#000000" transform="matrix(1.00, 0.00, -0.00, -1.00, 138.2, 548.6)">a</text><text xml:space="preserve" font-family="LMRoman10-Regular,Latin Modern Roman" font-size="28.0" fill="#000000" transform="matrix(1.00, 0.00, -0.00, -1.00, 152.2, 548.6)"> </text><text xml:space="preserve" font-family="LMRoman10-Regular,Latin Modern Roman" font-size="28.0" fill="#000000" transform="matrix(1.00, 0.00, -0.00, -1.00, 161.5, 548.6)">a</text><text xml:space="preserve" font-family="LMRoman10-Regular,Latin Modern Roman" font-size="28.0" fill="#000000" transform="matrix(1.00, 0.00, -0.00, -1.00, 175.5, 548.6)">n</text><text xml:space="preserve" font-family="LMRoman10-Regular,Latin Modern Roman" font-size="28.0" fill="#000000" transform="matrix(1.00, 0.00, -0.00, -1.00, 191.1, 548.6)">n</text><text xml:space="preserve" font-family="LMRoman10-Regular,Latin Modern Roman" font-size="28.0" fill="#000000" transform="matrix(1.00, 0.00, -0.00, -1.00, 206.6, 548.6)">a</text><text xml:space="preserve" font-family="LMRoman10-Regular,Latin Modern Roman" font-size="28.0" fill="#000000" transform="matrix(1.00, 0.00, -0.00, -1.00, 220.6, 548.6)"> </text><text xml:space="preserve" font-family="LMRoman10-Regular,Latin Modern Roman" font-size="28.0" fill="#000000" transform="matrix(1.00, 0.00, -0.00, -1.00, 230.0, 548.6)">s</text><text xml:space="preserve" font-family="LMRoman10-Regular,Latin Modern Roman" font-size="28.0" fill="#000000" transform="matrix(1.00, 0.00, -0.00, -1.00, 241.0, 548.6)">e</text><text xml:space="preserve" font-family="LMRoman10-Regular,Latin Modern Roman" font-size="28.0" fill="#000000" transform="matrix(1.00, 0.00, -0.00, -1.00, 253.4, 548.6)">n</text><text xml:space="preserve" font-family="LMRoman10-Regular,Latin Modern Roman" font-size="28.0" fill="#000000" transform="matrix(1.00, 0.00, -0.00, -1.00, 269.0, 548.6)"> </text><text xml:space="preserve" font-family="LMRoman10-Regular,Latin Modern Roman" font-size="28.0" fill="#000000" transform="matrix(1.00, 0.00, -0.00, -1.00, 278.3, 548.6)">t</text><text xml:space="preserve" font-family="LMRoman10-Regular,Latin Modern Roman" font-size="28.0" fill="#000000" transform="matrix(1.00, 0.00, -0.00, -1.00, 289.2, 548.6)">ö</text><text xml:space="preserve" font-family="LMRoman10-Regular,Latin Modern Roman" font-size="28.0" fill="#000000" transform="matrix(1.00, 0.00, -0.00, -1.00, 303.2, 548.6)">r</text><text xml:space="preserve" font-family="LMRoman10-Regular,Latin Modern Roman" font-size="28.0" fill="#000000" transform="matrix(1.00, 0.00, -0.00, -1.00, 314.2, 548.6)">m</text><text xml:space="preserve" font-family="LMRoman10-Regular,Latin Modern Roman" font-size="28.0" fill="#000000" transform="matrix(1.00, 0.00, -0.00, -1.00, 337.5, 548.6)">ä</text><text xml:space="preserve" font-family="LMRoman10-Regular,Latin Modern Roman" font-size="28.0" fill="#000000" transform="matrix(1.00, 0.00, -0.00, -1.00, 351.5, 548.6)">t</text><text xml:space="preserve" font-family="LMRoman10-Regular,Latin Modern Roman" font-size="28.0" fill="#000000" transform="matrix(1.00, 0.00, -0.00, -1.00, 362.4, 548.6)">ä</text><text xml:space="preserve" font-family="LMRoman10-Regular,Latin Modern Roman" font-size="28.0" fill="#000000" transform="matrix(1.00, 0.00, -0.00, -1.00, 376.4, 548.6)"> </text><text xml:space="preserve" font-family="LMRoman10-Regular,Latin Modern Roman" font-size="28.0" fill="#000000" transform="matrix(1.00, 0.00, -0.00, -1.00, 385.7, 548.6)">p</text><text xml:space="preserve" font-family="LMRoman10-Regular,Latin Modern Roman" font-size="28.0" fill="#000000" transform="matrix(1.00, 0.00, -0.00, -1.00, 401.3, 548.6)">u</text><text xml:space="preserve" font-family="LMRoman10-Regular,Latin Modern Roman" font-size="28.0" fill="#000000" transform="matrix(1.00, 0.00, -0.00, -1.00, 416.9, 548.6)">u</text><text xml:space="preserve" font-family="LMRoman10-Regular,Latin Modern Roman" font-size="28.0" fill="#000000" transform="matrix(1.00, 0.00, -0.00, -1.00, 432.4, 548.6)">p</text><text xml:space="preserve" font-family="LMRoman10-Regular,Latin Modern Roman" font-size="28.0" fill="#000000" transform="matrix(1.00, 0.00, -0.00, -1.00, 448.0, 548.6)">a</text><text xml:space="preserve" font-family="LMRoman10-Regular,Latin Modern Roman" font-size="28.0" fill="#000000" transform="matrix(1.00, 0.00, -0.00, -1.00, 462.0, 548.6)">l</text><text xml:space="preserve" font-family="LMRoman10-Regular,Latin Modern Roman" font-size="28.0" fill="#000000" transform="matrix(1.00, 0.00, -0.00, -1.00, 469.8, 548.6)">i</text><text xml:space="preserve" font-family="LMRoman10-Regular,Latin Modern Roman" font-size="28.0" fill="#000000" transform="matrix(1.00, 0.00, -0.00, -1.00, 477.6, 548.6)">k</text><text xml:space="preserve" font-family="LMRoman10-Regular,Latin Modern Roman" font-size="28.0" fill="#000000" transform="matrix(1.00, 0.00, -0.00, -1.00, 492.3, 548.6)">k</text><text xml:space="preserve" font-family="LMRoman10-Regular,Latin Modern Roman" font-size="28.0" fill="#000000" transform="matrix(1.00, 0.00, -0.00, -1.00, 507.1, 548.6)">a</text><text xml:space="preserve" font-family="LMRoman10-Regular,Latin Modern Roman" font-size="28.0" fill="#000000" transform="matrix(1.00, 0.00, -0.00, -1.00, 521.1, 548.6)">a</text><text xml:space="preserve" font-family="LMRoman10-Regular,Latin Modern Roman" font-size="28.0" fill="#000000" transform="matrix(1.00, 0.00, -0.00, -1.00, 535.1, 548.6)">n</text><text xml:space="preserve" font-family="LMRoman10-Regular,Latin Modern Roman" font-size="21.0" fill="#000000" transform="matrix(1.00, 0.00, -0.00, -1.00, 102.4, 499.6)">•</text><text xml:space="preserve" font-family="LMRoman10-Regular,Latin Modern Roman" font-size="28.0" fill="#000000" transform="matrix(1.00, 0.00, -0.00, -1.00, 129.6, 496.6)">T</text><text xml:space="preserve" font-family="LMRoman10-Regular,Latin Modern Roman" font-size="28.0" fill="#000000" transform="matrix(1.00, 0.00, -0.00, -1.00, 147.5, 496.6)">u</text><text xml:space="preserve" font-family="LMRoman10-Regular,Latin Modern Roman" font-size="28.0" fill="#000000" transform="matrix(1.00, 0.00, -0.00, -1.00, 163.1, 496.6)">t</text><text xml:space="preserve" font-family="LMRoman10-Regular,Latin Modern Roman" font-size="28.0" fill="#000000" transform="matrix(1.00, 0.00, -0.00, -1.00, 174.0, 496.6)">k</text><text xml:space="preserve" font-family="LMRoman10-Regular,Latin Modern Roman" font-size="28.0" fill="#000000" transform="matrix(1.00, 0.00, -0.00, -1.00, 188.7, 496.6)">i</text><text xml:space="preserve" font-family="LMRoman10-Regular,Latin Modern Roman" font-size="28.0" fill="#000000" transform="matrix(1.00, 0.00, -0.00, -1.00, 196.5, 496.6)"> </text><text xml:space="preserve" font-family="LMRoman10-Regular,Latin Modern Roman" font-size="28.0" fill="#000000" transform="matrix(1.00, 0.00, -0.00, -1.00, 205.8, 496.6)">p</text><text xml:space="preserve" font-family="LMRoman10-Regular,Latin Modern Roman" font-size="28.0" fill="#000000" transform="matrix(1.00, 0.00, -0.00, -1.00, 221.4, 496.6)">u</text><text xml:space="preserve" font-family="LMRoman10-Regular,Latin Modern Roman" font-size="28.0" fill="#000000" transform="matrix(1.00, 0.00, -0.00, -1.00, 237.0, 496.6)">u</text><text xml:space="preserve" font-family="LMRoman10-Regular,Latin Modern Roman" font-size="28.0" fill="#000000" transform="matrix(1.00, 0.00, -0.00, -1.00, 252.6, 496.6)">p</text><text xml:space="preserve" font-family="LMRoman10-Regular,Latin Modern Roman" font-size="28.0" fill="#000000" transform="matrix(1.00, 0.00, -0.00, -1.00, 268.1, 496.6)">a</text><text xml:space="preserve" font-family="LMRoman10-Regular,Latin Modern Roman" font-size="28.0" fill="#000000" transform="matrix(1.00, 0.00, -0.00, -1.00, 282.1, 496.6)">l</text><text xml:space="preserve" font-family="LMRoman10-Regular,Latin Modern Roman" font-size="28.0" fill="#000000" transform="matrix(1.00, 0.00, -0.00, -1.00, 289.9, 496.6)">i</text><text xml:space="preserve" font-family="LMRoman10-Regular,Latin Modern Roman" font-size="28.0" fill="#000000" transform="matrix(1.00, 0.00, -0.00, -1.00, 297.7, 496.6)">k</text><text xml:space="preserve" font-family="LMRoman10-Regular,Latin Modern Roman" font-size="28.0" fill="#000000" transform="matrix(1.00, 0.00, -0.00, -1.00, 312.5, 496.6)">a</text><text xml:space="preserve" font-family="LMRoman10-Regular,Latin Modern Roman" font-size="28.0" fill="#000000" transform="matrix(1.00, 0.00, -0.00, -1.00, 326.5, 496.6)">n</text><text xml:space="preserve" font-family="LMRoman10-Regular,Latin Modern Roman" font-size="28.0" fill="#000000" transform="matrix(1.00, 0.00, -0.00, -1.00, 342.0, 496.6)"> </text><text xml:space="preserve" font-family="LMRoman10-Regular,Latin Modern Roman" font-size="28.0" fill="#000000" transform="matrix(1.00, 0.00, -0.00, -1.00, 351.4, 496.6)">k</text><text xml:space="preserve" font-family="LMRoman10-Regular,Latin Modern Roman" font-size="28.0" fill="#000000" transform="matrix(1.00, 0.00, -0.00, -1.00, 366.1, 496.6)">a</text><text xml:space="preserve" font-family="LMRoman10-Regular,Latin Modern Roman" font-size="28.0" fill="#000000" transform="matrix(1.00, 0.00, -0.00, -1.00, 380.1, 496.6)">a</text><text xml:space="preserve" font-family="LMRoman10-Regular,Latin Modern Roman" font-size="28.0" fill="#000000" transform="matrix(1.00, 0.00, -0.00, -1.00, 394.1, 496.6)">t</text><text xml:space="preserve" font-family="LMRoman10-Regular,Latin Modern Roman" font-size="28.0" fill="#000000" transform="matrix(1.00, 0.00, -0.00, -1.00, 405.0, 496.6)">u</text><text xml:space="preserve" font-family="LMRoman10-Regular,Latin Modern Roman" font-size="28.0" fill="#000000" transform="matrix(1.00, 0.00, -0.00, -1.00, 420.6, 496.6)">m</text><text xml:space="preserve" font-family="LMRoman10-Regular,Latin Modern Roman" font-size="28.0" fill="#000000" transform="matrix(1.00, 0.00, -0.00, -1.00, 443.9, 496.6)">i</text><text xml:space="preserve" font-family="LMRoman10-Regular,Latin Modern Roman" font-size="28.0" fill="#000000" transform="matrix(1.00, 0.00, -0.00, -1.00, 451.7, 496.6)">s</text><text xml:space="preserve" font-family="LMRoman10-Regular,Latin Modern Roman" font-size="28.0" fill="#000000" transform="matrix(1.00, 0.00, -0.00, -1.00, 462.7, 496.6)">t</text><text xml:space="preserve" font-family="LMRoman10-Regular,Latin Modern Roman" font-size="28.0" fill="#000000" transform="matrix(1.00, 0.00, -0.00, -1.00, 473.6, 496.6)">a</text><text xml:space="preserve" font-family="LMRoman10-Regular,Latin Modern Roman" font-size="28.0" fill="#000000" transform="matrix(1.00, 0.00, -0.00, -1.00, 487.6, 496.6)"> </text><text xml:space="preserve" font-family="LMRoman10-Regular,Latin Modern Roman" font-size="28.0" fill="#000000" transform="matrix(1.00, 0.00, -0.00, -1.00, 497.0, 496.6)">k</text><text xml:space="preserve" font-family="LMRoman10-Regular,Latin Modern Roman" font-size="28.0" fill="#000000" transform="matrix(1.00, 0.00, -0.00, -1.00, 511.7, 496.6)">u</text><text xml:space="preserve" font-family="LMRoman10-Regular,Latin Modern Roman" font-size="28.0" fill="#000000" transform="matrix(1.00, 0.00, -0.00, -1.00, 527.3, 496.6)">n</text><text xml:space="preserve" font-family="LMRoman10-Regular,Latin Modern Roman" font-size="28.0" fill="#000000" transform="matrix(1.00, 0.00, -0.00, -1.00, 542.9, 496.6)"> </text><text xml:space="preserve" font-family="LMRoman10-Regular,Latin Modern Roman" font-size="28.0" fill="#000000" transform="matrix(1.00, 0.00, -0.00, -1.00, 129.6, 456.6)">m</text><text xml:space="preserve" font-family="LMRoman10-Regular,Latin Modern Roman" font-size="28.0" fill="#000000" transform="matrix(1.00, 0.00, -0.00, -1.00, 152.1, 456.6)">u</text><text xml:space="preserve" font-family="LMRoman10-Regular,Latin Modern Roman" font-size="28.0" fill="#000000" transform="matrix(1.00, 0.00, -0.00, -1.00, 167.7, 456.6)">u</text><text xml:space="preserve" font-family="LMRoman10-Regular,Latin Modern Roman" font-size="28.0" fill="#000000" transform="matrix(1.00, 0.00, -0.00, -1.00, 183.3, 456.6)">t</text><text xml:space="preserve" font-family="LMRoman10-Regular,Latin Modern Roman" font-size="28.0" fill="#000000" transform="matrix(1.00, 0.00, -0.00, -1.00, 194.2, 456.6)">a</text><text xml:space="preserve" font-family="LMRoman10-Regular,Latin Modern Roman" font-size="28.0" fill="#000000" transform="matrix(1.00, 0.00, -0.00, -1.00, 208.2, 456.6)">t</text><text xml:space="preserve" font-family="LMRoman10-Regular,Latin Modern Roman" font-size="28.0" fill="#000000" transform="matrix(1.00, 0.00, -0.00, -1.00, 219.1, 456.6)"> </text><text xml:space="preserve" font-family="LMRoman10-Regular,Latin Modern Roman" font-size="28.0" fill="#000000" transform="matrix(1.00, 0.00, -0.00, -1.00, 228.4, 456.6)">k</text><text xml:space="preserve" font-family="LMRoman10-Regular,Latin Modern Roman" font-size="28.0" fill="#000000" transform="matrix(1.00, 0.00, -0.00, -1.00, 243.2, 456.6)">ä</text><text xml:space="preserve" font-family="LMRoman10-Regular,Latin Modern Roman" font-size="28.0" fill="#000000" transform="matrix(1.00, 0.00, -0.00, -1.00, 257.2, 456.6)">r</text><text xml:space="preserve" font-family="LMRoman10-Regular,Latin Modern Roman" font-size="28.0" fill="#000000" transform="matrix(1.00, 0.00, -0.00, -1.00, 268.1, 456.6)">r</text><text xml:space="preserve" font-family="LMRoman10-Regular,Latin Modern Roman" font-size="28.0" fill="#000000" transform="matrix(1.00, 0.00, -0.00, -1.00, 279.1, 456.6)">y</text><text xml:space="preserve" font-family="LMRoman10-Regular,Latin Modern Roman" font-size="28.0" fill="#000000" transform="matrix(1.00, 0.00, -0.00, -1.00, 293.9, 456.6)">n</text><text xml:space="preserve" font-family="LMRoman10-Regular,Latin Modern Roman" font-size="28.0" fill="#000000" transform="matrix(1.00, 0.00, -0.00, -1.00, 309.5, 456.6)"> </text><text xml:space="preserve" font-family="LMRoman10-Regular,Latin Modern Roman" font-size="28.0" fill="#000000" transform="matrix(1.00, 0.00, -0.00, -1.00, 318.8, 456.6)">n</text><text xml:space="preserve" font-family="LMRoman10-Regular,Latin Modern Roman" font-size="28.0" fill="#000000" transform="matrix(1.00, 0.00, -0.00, -1.00, 334.4, 456.6)">o</text><text xml:space="preserve" font-family="LMRoman10-Regular,Latin Modern Roman" font-size="28.0" fill="#000000" transform="matrix(1.00, 0.00, -0.00, -1.00, 348.4, 456.6)">p</text><text xml:space="preserve" font-family="LMRoman10-Regular,Latin Modern Roman" font-size="28.0" fill="#000000" transform="matrix(1.00, 0.00, -0.00, -1.00, 364.7, 456.6)">e</text><text xml:space="preserve" font-family="LMRoman10-Regular,Latin Modern Roman" font-size="28.0" fill="#000000" transform="matrix(1.00, 0.00, -0.00, -1.00, 377.2, 456.6)">u</text><text xml:space="preserve" font-family="LMRoman10-Regular,Latin Modern Roman" font-size="28.0" fill="#000000" transform="matrix(1.00, 0.00, -0.00, -1.00, 392.7, 456.6)">t</text><text xml:space="preserve" font-family="LMRoman10-Regular,Latin Modern Roman" font-size="28.0" fill="#000000" transform="matrix(1.00, 0.00, -0.00, -1.00, 403.6, 456.6)">t</text><text xml:space="preserve" font-family="LMRoman10-Regular,Latin Modern Roman" font-size="28.0" fill="#000000" transform="matrix(1.00, 0.00, -0.00, -1.00, 414.5, 456.6)">a</text><text xml:space="preserve" font-family="LMRoman10-Regular,Latin Modern Roman" font-size="28.0" fill="#000000" transform="matrix(1.00, 0.00, -0.00, -1.00, 428.5, 456.6)"> </text><text xml:space="preserve" font-family="LMRoman10-Regular,Latin Modern Roman" font-size="28.0" fill="#000000" transform="matrix(1.00, 0.00, -0.00, -1.00, 437.8, 456.6)">j</text><text xml:space="preserve" font-family="LMRoman10-Regular,Latin Modern Roman" font-size="28.0" fill="#000000" transform="matrix(1.00, 0.00, -0.00, -1.00, 446.4, 456.6)">a</text><text xml:space="preserve" font-family="LMRoman10-Regular,Latin Modern Roman" font-size="28.0" fill="#000000" transform="matrix(1.00, 0.00, -0.00, -1.00, 460.4, 456.6)"> </text><text xml:space="preserve" font-family="LMRoman10-Regular,Latin Modern Roman" font-size="28.0" fill="#000000" transform="matrix(1.00, 0.00, -0.00, -1.00, 469.7, 456.6)">m</text><text xml:space="preserve" font-family="LMRoman10-Regular,Latin Modern Roman" font-size="28.0" fill="#000000" transform="matrix(1.00, 0.00, -0.00, -1.00, 493.0, 456.6)">a</text><text xml:space="preserve" font-family="LMRoman10-Regular,Latin Modern Roman" font-size="28.0" fill="#000000" transform="matrix(1.00, 0.00, -0.00, -1.00, 507.0, 456.6)">s</text><text xml:space="preserve" font-family="LMRoman10-Regular,Latin Modern Roman" font-size="28.0" fill="#000000" transform="matrix(1.00, 0.00, -0.00, -1.00, 518.1, 456.6)">s</text><text xml:space="preserve" font-family="LMRoman10-Regular,Latin Modern Roman" font-size="28.0" fill="#000000" transform="matrix(1.00, 0.00, -0.00, -1.00, 529.1, 456.6)">a</text><text xml:space="preserve" font-family="LMRoman10-Regular,Latin Modern Roman" font-size="28.0" fill="#000000" transform="matrix(1.00, 0.00, -0.00, -1.00, 543.1, 456.6)">a</text><text xml:space="preserve" font-family="LMRoman10-Regular,Latin Modern Roman" font-size="28.0" fill="#000000" transform="matrix(1.00, 0.00, -0.00, -1.00, 557.1, 456.6)">.</text><text xml:space="preserve" font-family="LMRoman10-Regular,Latin Modern Roman" font-size="21.0" fill="#000000" transform="matrix(1.00, 0.00, -0.00, -1.00, 102.4, 407.6)">•</text><text xml:space="preserve" font-family="LMRoman10-Regular,Latin Modern Roman" font-size="28.0" fill="#000000" transform="matrix(1.00, 0.00, -0.00, -1.00, 129.6, 404.6)">P</text><text xml:space="preserve" font-family="LMRoman10-Regular,Latin Modern Roman" font-size="28.0" fill="#000000" transform="matrix(1.00, 0.00, -0.00, -1.00, 148.7, 404.6)">i</text><text xml:space="preserve" font-family="LMRoman10-Regular,Latin Modern Roman" font-size="28.0" fill="#000000" transform="matrix(1.00, 0.00, -0.00, -1.00, 156.5, 404.6)">e</text><text xml:space="preserve" font-family="LMRoman10-Regular,Latin Modern Roman" font-size="28.0" fill="#000000" transform="matrix(1.00, 0.00, -0.00, -1.00, 168.9, 404.6)">n</text><text xml:space="preserve" font-family="LMRoman10-Regular,Latin Modern Roman" font-size="28.0" fill="#000000" transform="matrix(1.00, 0.00, -0.00, -1.00, 184.5, 404.6)">i</text><text xml:space="preserve" font-family="LMRoman10-Regular,Latin Modern Roman" font-size="28.0" fill="#000000" transform="matrix(1.00, 0.00, -0.00, -1.00, 192.2, 404.6)"> </text><text xml:space="preserve" font-family="LMRoman10-Regular,Latin Modern Roman" font-size="28.0" fill="#000000" transform="matrix(1.00, 0.00, -0.00, -1.00, 201.6, 404.6)">n</text><text xml:space="preserve" font-family="LMRoman10-Regular,Latin Modern Roman" font-size="28.0" fill="#000000" transform="matrix(1.00, 0.00, -0.00, -1.00, 217.1, 404.6)">o</text><text xml:space="preserve" font-family="LMRoman10-Regular,Latin Modern Roman" font-size="28.0" fill="#000000" transform="matrix(1.00, 0.00, -0.00, -1.00, 231.1, 404.6)">p</text><text xml:space="preserve" font-family="LMRoman10-Regular,Latin Modern Roman" font-size="28.0" fill="#000000" transform="matrix(1.00, 0.00, -0.00, -1.00, 247.5, 404.6)">e</text><text xml:space="preserve" font-family="LMRoman10-Regular,Latin Modern Roman" font-size="28.0" fill="#000000" transform="matrix(1.00, 0.00, -0.00, -1.00, 259.9, 404.6)">u</text><text xml:space="preserve" font-family="LMRoman10-Regular,Latin Modern Roman" font-size="28.0" fill="#000000" transform="matrix(1.00, 0.00, -0.00, -1.00, 275.5, 404.6)">s</text><text xml:space="preserve" font-family="LMRoman10-Regular,Latin Modern Roman" font-size="28.0" fill="#000000" transform="matrix(1.00, 0.00, -0.00, -1.00, 286.5, 404.6)"> </text><text xml:space="preserve" font-family="LMRoman10-Regular,Latin Modern Roman" font-size="28.0" fill="#000000" transform="matrix(1.00, 0.00, -0.00, -1.00, 295.8, 404.6)">=</text><text xml:space="preserve" font-family="LMRoman10-Regular,Latin Modern Roman" font-size="28.0" fill="#000000" transform="matrix(1.00, 0.00, -0.00, -1.00, 317.6, 404.6)"> </text><text xml:space="preserve" font-family="LMRoman10-Regular,Latin Modern Roman" font-size="28.0" fill="#000000" transform="matrix(1.00, 0.00, -0.00, -1.00, 326.9, 404.6)">8</text><text xml:space="preserve" font-family="LMRoman10-Regular,Latin Modern Roman" font-size="28.0" fill="#000000" transform="matrix(1.00, 0.00, -0.00, -1.00, 340.9, 404.6)">c</text><text xml:space="preserve" font-family="LMRoman10-Regular,Latin Modern Roman" font-size="28.0" fill="#000000" transform="matrix(1.00, 0.00, -0.00, -1.00, 353.4, 404.6)">m</text><text xml:space="preserve" font-family="LMRoman10-Regular,Latin Modern Roman" font-size="28.0" fill="#000000" transform="matrix(1.00, 0.00, -0.00, -1.00, 376.7, 404.6)"> </text><text xml:space="preserve" font-family="LMRoman10-Regular,Latin Modern Roman" font-size="28.0" fill="#000000" transform="matrix(1.00, 0.00, -0.00, -1.00, 386.0, 404.6)">k</text><text xml:space="preserve" font-family="LMRoman10-Regular,Latin Modern Roman" font-size="28.0" fill="#000000" transform="matrix(1.00, 0.00, -0.00, -1.00, 400.0, 404.6)">o</text><text xml:space="preserve" font-family="LMRoman10-Regular,Latin Modern Roman" font-size="28.0" fill="#000000" transform="matrix(1.00, 0.00, -0.00, -1.00, 414.0, 404.6)">r</text><text xml:space="preserve" font-family="LMRoman10-Regular,Latin Modern Roman" font-size="28.0" fill="#000000" transform="matrix(1.00, 0.00, -0.00, -1.00, 425.0, 404.6)">k</text><text xml:space="preserve" font-family="LMRoman10-Regular,Latin Modern Roman" font-size="28.0" fill="#000000" transform="matrix(1.00, 0.00, -0.00, -1.00, 439.0, 404.6)">e</text><text xml:space="preserve" font-family="LMRoman10-Regular,Latin Modern Roman" font-size="28.0" fill="#000000" transform="matrix(1.00, 0.00, -0.00, -1.00, 451.4, 404.6)">u</text><text xml:space="preserve" font-family="LMRoman10-Regular,Latin Modern Roman" font-size="28.0" fill="#000000" transform="matrix(1.00, 0.00, -0.00, -1.00, 467.0, 404.6)">d</text><text xml:space="preserve" font-family="LMRoman10-Regular,Latin Modern Roman" font-size="28.0" fill="#000000" transform="matrix(1.00, 0.00, -0.00, -1.00, 482.6, 404.6)">e</text><text xml:space="preserve" font-family="LMRoman10-Regular,Latin Modern Roman" font-size="28.0" fill="#000000" transform="matrix(1.00, 0.00, -0.00, -1.00, 495.0, 404.6)">l</text><text xml:space="preserve" font-family="LMRoman10-Regular,Latin Modern Roman" font-size="28.0" fill="#000000" transform="matrix(1.00, 0.00, -0.00, -1.00, 502.8, 404.6)">t</text><text xml:space="preserve" font-family="LMRoman10-Regular,Latin Modern Roman" font-size="28.0" fill="#000000" transform="matrix(1.00, 0.00, -0.00, -1.00, 513.7, 404.6)">a</text><text xml:space="preserve" font-family="LMRoman10-Regular,Latin Modern Roman" font-size="28.0" fill="#000000" transform="matrix(1.00, 0.00, -0.00, -1.00, 527.7, 404.6)">,</text><text xml:space="preserve" font-family="LMRoman10-Regular,Latin Modern Roman" font-size="28.0" fill="#000000" transform="matrix(1.00, 0.00, -0.00, -1.00, 535.5, 404.6)"> </text><text xml:space="preserve" font-family="LucidaGrande,Lucida Grande" font-size="28.0" fill="#000000" transform="matrix(1.00, 0.00, -0.00, -1.00, 544.8, 404.6)"> </text><text xml:space="preserve" font-family="LMRoman10-Regular,Latin Modern Roman" font-size="28.0" fill="#000000" transform="matrix(1.00, 0.00, -0.00, -1.00, 129.6, 364.6)">s</text><text xml:space="preserve" font-family="LMRoman10-Regular,Latin Modern Roman" font-size="28.0" fill="#000000" transform="matrix(1.00, 0.00, -0.00, -1.00, 140.6, 364.6)">u</text><text xml:space="preserve" font-family="LMRoman10-Regular,Latin Modern Roman" font-size="28.0" fill="#000000" transform="matrix(1.00, 0.00, -0.00, -1.00, 156.2, 364.6)">u</text><text xml:space="preserve" font-family="LMRoman10-Regular,Latin Modern Roman" font-size="28.0" fill="#000000" transform="matrix(1.00, 0.00, -0.00, -1.00, 171.8, 364.6)">r</text><text xml:space="preserve" font-family="LMRoman10-Regular,Latin Modern Roman" font-size="28.0" fill="#000000" transform="matrix(1.00, 0.00, -0.00, -1.00, 182.7, 364.6)">i</text><text xml:space="preserve" font-family="LMRoman10-Regular,Latin Modern Roman" font-size="28.0" fill="#000000" transform="matrix(1.00, 0.00, -0.00, -1.00, 190.5, 364.6)"> </text><text xml:space="preserve" font-family="LMRoman10-Regular,Latin Modern Roman" font-size="28.0" fill="#000000" transform="matrix(1.00, 0.00, -0.00, -1.00, 199.9, 364.6)">n</text><text xml:space="preserve" font-family="LMRoman10-Regular,Latin Modern Roman" font-size="28.0" fill="#000000" transform="matrix(1.00, 0.00, -0.00, -1.00, 215.4, 364.6)">o</text><text xml:space="preserve" font-family="LMRoman10-Regular,Latin Modern Roman" font-size="28.0" fill="#000000" transform="matrix(1.00, 0.00, -0.00, -1.00, 229.4, 364.6)">p</text><text xml:space="preserve" font-family="LMRoman10-Regular,Latin Modern Roman" font-size="28.0" fill="#000000" transform="matrix(1.00, 0.00, -0.00, -1.00, 245.8, 364.6)">e</text><text xml:space="preserve" font-family="LMRoman10-Regular,Latin Modern Roman" font-size="28.0" fill="#000000" transform="matrix(1.00, 0.00, -0.00, -1.00, 258.2, 364.6)">u</text><text xml:space="preserve" font-family="LMRoman10-Regular,Latin Modern Roman" font-size="28.0" fill="#000000" transform="matrix(1.00, 0.00, -0.00, -1.00, 273.8, 364.6)">s</text><text xml:space="preserve" font-family="LMRoman10-Regular,Latin Modern Roman" font-size="28.0" fill="#000000" transform="matrix(1.00, 0.00, -0.00, -1.00, 284.8, 364.6)"> </text><text xml:space="preserve" font-family="LMRoman10-Regular,Latin Modern Roman" font-size="28.0" fill="#000000" transform="matrix(1.00, 0.00, -0.00, -1.00, 294.1, 364.6)">=</text><text xml:space="preserve" font-family="LMRoman10-Regular,Latin Modern Roman" font-size="28.0" fill="#000000" transform="matrix(1.00, 0.00, -0.00, -1.00, 315.9, 364.6)"> </text><text xml:space="preserve" font-family="LMRoman10-Regular,Latin Modern Roman" font-size="28.0" fill="#000000" transform="matrix(1.00, 0.00, -0.00, -1.00, 325.2, 364.6)">1</text><text xml:space="preserve" font-family="LMRoman10-Regular,Latin Modern Roman" font-size="28.0" fill="#000000" transform="matrix(1.00, 0.00, -0.00, -1.00, 339.2, 364.6)">8</text><text xml:space="preserve" font-family="LMRoman10-Regular,Latin Modern Roman" font-size="28.0" fill="#000000" transform="matrix(1.00, 0.00, -0.00, -1.00, 353.2, 364.6)">c</text><text xml:space="preserve" font-family="LMRoman10-Regular,Latin Modern Roman" font-size="28.0" fill="#000000" transform="matrix(1.00, 0.00, -0.00, -1.00, 365.7, 364.6)">m</text><text xml:space="preserve" font-family="LMRoman10-Regular,Latin Modern Roman" font-size="28.0" fill="#000000" transform="matrix(1.00, 0.00, -0.00, -1.00, 389.0, 364.6)"> </text><text xml:space="preserve" font-family="LMRoman10-Regular,Latin Modern Roman" font-size="28.0" fill="#000000" transform="matrix(1.00, 0.00, -0.00, -1.00, 398.3, 364.6)">k</text><text xml:space="preserve" font-family="LMRoman10-Regular,Latin Modern Roman" font-size="28.0" fill="#000000" transform="matrix(1.00, 0.00, -0.00, -1.00, 412.3, 364.6)">o</text><text xml:space="preserve" font-family="LMRoman10-Regular,Latin Modern Roman" font-size="28.0" fill="#000000" transform="matrix(1.00, 0.00, -0.00, -1.00, 426.3, 364.6)">r</text><text xml:space="preserve" font-family="LMRoman10-Regular,Latin Modern Roman" font-size="28.0" fill="#000000" transform="matrix(1.00, 0.00, -0.00, -1.00, 437.3, 364.6)">k</text><text xml:space="preserve" font-family="LMRoman10-Regular,Latin Modern Roman" font-size="28.0" fill="#000000" transform="matrix(1.00, 0.00, -0.00, -1.00, 451.3, 364.6)">e</text><text xml:space="preserve" font-family="LMRoman10-Regular,Latin Modern Roman" font-size="28.0" fill="#000000" transform="matrix(1.00, 0.00, -0.00, -1.00, 463.7, 364.6)">u</text><text xml:space="preserve" font-family="LMRoman10-Regular,Latin Modern Roman" font-size="28.0" fill="#000000" transform="matrix(1.00, 0.00, -0.00, -1.00, 479.3, 364.6)">d</text><text xml:space="preserve" font-family="LMRoman10-Regular,Latin Modern Roman" font-size="28.0" fill="#000000" transform="matrix(1.00, 0.00, -0.00, -1.00, 494.9, 364.6)">e</text><text xml:space="preserve" font-family="LMRoman10-Regular,Latin Modern Roman" font-size="28.0" fill="#000000" transform="matrix(1.00, 0.00, -0.00, -1.00, 507.3, 364.6)">l</text><text xml:space="preserve" font-family="LMRoman10-Regular,Latin Modern Roman" font-size="28.0" fill="#000000" transform="matrix(1.00, 0.00, -0.00, -1.00, 515.1, 364.6)">t</text><text xml:space="preserve" font-family="LMRoman10-Regular,Latin Modern Roman" font-size="28.0" fill="#000000" transform="matrix(1.00, 0.00, -0.00, -1.00, 526.0, 364.6)">a</text><text xml:space="preserve" font-family="LMRoman10-Regular,Latin Modern Roman" font-size="21.0" fill="#000000" transform="matrix(1.00, 0.00, -0.00, -1.00, 102.4, 315.6)">•</text><text xml:space="preserve" font-family="LMRoman10-Regular,Latin Modern Roman" font-size="28.0" fill="#000000" transform="matrix(1.00, 0.00, -0.00, -1.00, 129.6, 312.6)">P</text><text xml:space="preserve" font-family="LMRoman10-Regular,Latin Modern Roman" font-size="28.0" fill="#000000" transform="matrix(1.00, 0.00, -0.00, -1.00, 148.7, 312.6)">i</text><text xml:space="preserve" font-family="LMRoman10-Regular,Latin Modern Roman" font-size="28.0" fill="#000000" transform="matrix(1.00, 0.00, -0.00, -1.00, 156.5, 312.6)">e</text><text xml:space="preserve" font-family="LMRoman10-Regular,Latin Modern Roman" font-size="28.0" fill="#000000" transform="matrix(1.00, 0.00, -0.00, -1.00, 168.9, 312.6)">n</text><text xml:space="preserve" font-family="LMRoman10-Regular,Latin Modern Roman" font-size="28.0" fill="#000000" transform="matrix(1.00, 0.00, -0.00, -1.00, 184.5, 312.6)">i</text><text xml:space="preserve" font-family="LMRoman10-Regular,Latin Modern Roman" font-size="28.0" fill="#000000" transform="matrix(1.00, 0.00, -0.00, -1.00, 192.2, 312.6)"> </text><text xml:space="preserve" font-family="LMRoman10-Regular,Latin Modern Roman" font-size="28.0" fill="#000000" transform="matrix(1.00, 0.00, -0.00, -1.00, 201.6, 312.6)">m</text><text xml:space="preserve" font-family="LMRoman10-Regular,Latin Modern Roman" font-size="28.0" fill="#000000" transform="matrix(1.00, 0.00, -0.00, -1.00, 224.9, 312.6)">a</text><text xml:space="preserve" font-family="LMRoman10-Regular,Latin Modern Roman" font-size="28.0" fill="#000000" transform="matrix(1.00, 0.00, -0.00, -1.00, 238.9, 312.6)">s</text><text xml:space="preserve" font-family="LMRoman10-Regular,Latin Modern Roman" font-size="28.0" fill="#000000" transform="matrix(1.00, 0.00, -0.00, -1.00, 249.9, 312.6)">s</text><text xml:space="preserve" font-family="LMRoman10-Regular,Latin Modern Roman" font-size="28.0" fill="#000000" transform="matrix(1.00, 0.00, -0.00, -1.00, 261.0, 312.6)">a</text><text xml:space="preserve" font-family="LMRoman10-Regular,Latin Modern Roman" font-size="28.0" fill="#000000" transform="matrix(1.00, 0.00, -0.00, -1.00, 275.0, 312.6)"> </text><text xml:space="preserve" font-family="LMRoman10-Regular,Latin Modern Roman" font-size="28.0" fill="#000000" transform="matrix(1.00, 0.00, -0.00, -1.00, 284.3, 312.6)">=</text><text xml:space="preserve" font-family="LMRoman10-Regular,Latin Modern Roman" font-size="28.0" fill="#000000" transform="matrix(1.00, 0.00, -0.00, -1.00, 306.1, 312.6)"> </text><text xml:space="preserve" font-family="LMRoman10-Regular,Latin Modern Roman" font-size="28.0" fill="#000000" transform="matrix(1.00, 0.00, -0.00, -1.00, 315.4, 312.6)">p</text><text xml:space="preserve" font-family="LMRoman10-Regular,Latin Modern Roman" font-size="28.0" fill="#000000" transform="matrix(1.00, 0.00, -0.00, -1.00, 331.7, 312.6)">e</text><text xml:space="preserve" font-family="LMRoman10-Regular,Latin Modern Roman" font-size="28.0" fill="#000000" transform="matrix(1.00, 0.00, -0.00, -1.00, 344.2, 312.6)">l</text><text xml:space="preserve" font-family="LMRoman10-Regular,Latin Modern Roman" font-size="28.0" fill="#000000" transform="matrix(1.00, 0.00, -0.00, -1.00, 352.0, 312.6)">k</text><text xml:space="preserve" font-family="LMRoman10-Regular,Latin Modern Roman" font-size="28.0" fill="#000000" transform="matrix(1.00, 0.00, -0.00, -1.00, 366.7, 312.6)">k</text><text xml:space="preserve" font-family="LMRoman10-Regular,Latin Modern Roman" font-size="28.0" fill="#000000" transform="matrix(1.00, 0.00, -0.00, -1.00, 381.5, 312.6)">ä</text><text xml:space="preserve" font-family="LMRoman10-Regular,Latin Modern Roman" font-size="28.0" fill="#000000" transform="matrix(1.00, 0.00, -0.00, -1.00, 395.5, 312.6)"> </text><text xml:space="preserve" font-family="LMRoman10-Regular,Latin Modern Roman" font-size="28.0" fill="#000000" transform="matrix(1.00, 0.00, -0.00, -1.00, 404.8, 312.6)">k</text><text xml:space="preserve" font-family="LMRoman10-Regular,Latin Modern Roman" font-size="28.0" fill="#000000" transform="matrix(1.00, 0.00, -0.00, -1.00, 419.6, 312.6)">ä</text><text xml:space="preserve" font-family="LMRoman10-Regular,Latin Modern Roman" font-size="28.0" fill="#000000" transform="matrix(1.00, 0.00, -0.00, -1.00, 433.6, 312.6)">r</text><text xml:space="preserve" font-family="LMRoman10-Regular,Latin Modern Roman" font-size="28.0" fill="#000000" transform="matrix(1.00, 0.00, -0.00, -1.00, 444.6, 312.6)">r</text><text xml:space="preserve" font-family="LMRoman10-Regular,Latin Modern Roman" font-size="28.0" fill="#000000" transform="matrix(1.00, 0.00, -0.00, -1.00, 455.6, 312.6)">y</text><text xml:space="preserve" font-family="LMRoman10-Regular,Latin Modern Roman" font-size="28.0" fill="#000000" transform="matrix(1.00, 0.00, -0.00, -1.00, 468.0, 312.6)">,</text><text xml:space="preserve" font-family="LMRoman10-Regular,Latin Modern Roman" font-size="28.0" fill="#000000" transform="matrix(1.00, 0.00, -0.00, -1.00, 475.8, 312.6)"> </text><text xml:space="preserve" font-family="LucidaGrande,Lucida Grande" font-size="28.0" fill="#000000" transform="matrix(1.00, 0.00, -0.00, -1.00, 485.1, 312.6)"> </text><text xml:space="preserve" font-family="LMRoman10-Regular,Latin Modern Roman" font-size="28.0" fill="#000000" transform="matrix(1.00, 0.00, -0.00, -1.00, 129.6, 272.6)">s</text><text xml:space="preserve" font-family="LMRoman10-Regular,Latin Modern Roman" font-size="28.0" fill="#000000" transform="matrix(1.00, 0.00, -0.00, -1.00, 140.6, 272.6)">u</text><text xml:space="preserve" font-family="LMRoman10-Regular,Latin Modern Roman" font-size="28.0" fill="#000000" transform="matrix(1.00, 0.00, -0.00, -1.00, 156.2, 272.6)">u</text><text xml:space="preserve" font-family="LMRoman10-Regular,Latin Modern Roman" font-size="28.0" fill="#000000" transform="matrix(1.00, 0.00, -0.00, -1.00, 171.8, 272.6)">r</text><text xml:space="preserve" font-family="LMRoman10-Regular,Latin Modern Roman" font-size="28.0" fill="#000000" transform="matrix(1.00, 0.00, -0.00, -1.00, 182.7, 272.6)">i</text><text xml:space="preserve" font-family="LMRoman10-Regular,Latin Modern Roman" font-size="28.0" fill="#000000" transform="matrix(1.00, 0.00, -0.00, -1.00, 190.5, 272.6)"> </text><text xml:space="preserve" font-family="LMRoman10-Regular,Latin Modern Roman" font-size="28.0" fill="#000000" transform="matrix(1.00, 0.00, -0.00, -1.00, 199.9, 272.6)">m</text><text xml:space="preserve" font-family="LMRoman10-Regular,Latin Modern Roman" font-size="28.0" fill="#000000" transform="matrix(1.00, 0.00, -0.00, -1.00, 223.2, 272.6)">a</text><text xml:space="preserve" font-family="LMRoman10-Regular,Latin Modern Roman" font-size="28.0" fill="#000000" transform="matrix(1.00, 0.00, -0.00, -1.00, 237.2, 272.6)">s</text><text xml:space="preserve" font-family="LMRoman10-Regular,Latin Modern Roman" font-size="28.0" fill="#000000" transform="matrix(1.00, 0.00, -0.00, -1.00, 248.2, 272.6)">s</text><text xml:space="preserve" font-family="LMRoman10-Regular,Latin Modern Roman" font-size="28.0" fill="#000000" transform="matrix(1.00, 0.00, -0.00, -1.00, 259.2, 272.6)">a</text><text xml:space="preserve" font-family="LMRoman10-Regular,Latin Modern Roman" font-size="28.0" fill="#000000" transform="matrix(1.00, 0.00, -0.00, -1.00, 273.2, 272.6)">=</text><text xml:space="preserve" font-family="LMRoman10-Regular,Latin Modern Roman" font-size="28.0" fill="#000000" transform="matrix(1.00, 0.00, -0.00, -1.00, 295.0, 272.6)"> </text><text xml:space="preserve" font-family="LMRoman10-Regular,Latin Modern Roman" font-size="28.0" fill="#000000" transform="matrix(1.00, 0.00, -0.00, -1.00, 304.4, 272.6)">4</text><text xml:space="preserve" font-family="LMRoman10-Regular,Latin Modern Roman" font-size="28.0" fill="#000000" transform="matrix(1.00, 0.00, -0.00, -1.00, 318.4, 272.6)"> </text><text xml:space="preserve" font-family="LMRoman10-Regular,Latin Modern Roman" font-size="28.0" fill="#000000" transform="matrix(1.00, 0.00, -0.00, -1.00, 327.7, 272.6)">l</text><text xml:space="preserve" font-family="LMRoman10-Regular,Latin Modern Roman" font-size="28.0" fill="#000000" transform="matrix(1.00, 0.00, -0.00, -1.00, 335.5, 272.6)">i</text><text xml:space="preserve" font-family="LMRoman10-Regular,Latin Modern Roman" font-size="28.0" fill="#000000" transform="matrix(1.00, 0.00, -0.00, -1.00, 343.2, 272.6)">s</text><text xml:space="preserve" font-family="LMRoman10-Regular,Latin Modern Roman" font-size="28.0" fill="#000000" transform="matrix(1.00, 0.00, -0.00, -1.00, 354.3, 272.6)">ä</text><text xml:space="preserve" font-family="LMRoman10-Regular,Latin Modern Roman" font-size="28.0" fill="#000000" transform="matrix(1.00, 0.00, -0.00, -1.00, 368.3, 272.6)">p</text><text xml:space="preserve" font-family="LMRoman10-Regular,Latin Modern Roman" font-size="28.0" fill="#000000" transform="matrix(1.00, 0.00, -0.00, -1.00, 383.8, 272.6)">u</text><text xml:space="preserve" font-family="LMRoman10-Regular,Latin Modern Roman" font-size="28.0" fill="#000000" transform="matrix(1.00, 0.00, -0.00, -1.00, 399.4, 272.6)">n</text><text xml:space="preserve" font-family="LMRoman10-Regular,Latin Modern Roman" font-size="28.0" fill="#000000" transform="matrix(1.00, 0.00, -0.00, -1.00, 415.0, 272.6)">n</text><text xml:space="preserve" font-family="LMRoman10-Regular,Latin Modern Roman" font-size="28.0" fill="#000000" transform="matrix(1.00, 0.00, -0.00, -1.00, 429.8, 272.6)">u</text><text xml:space="preserve" font-family="LMRoman10-Regular,Latin Modern Roman" font-size="28.0" fill="#000000" transform="matrix(1.00, 0.00, -0.00, -1.00, 445.3, 272.6)">s</text><text xml:space="preserve" font-family="LMRoman10-Regular,Latin Modern Roman" font-size="28.0" fill="#000000" transform="matrix(1.00, 0.00, -0.00, -1.00, 456.4, 272.6)">t</text><text xml:space="preserve" font-family="LMRoman10-Regular,Latin Modern Roman" font-size="28.0" fill="#000000" transform="matrix(1.00, 0.00, -0.00, -1.00, 467.3, 272.6)">a</text><image xlink:href="../../6CC1EF00-87BB-4895-A617-E2B7CF752493/assets/3BBB4DA965B87011E0E2B398DD9B697E.jpeg" width="3264.00" height="2448.00" transform="matrix(0.10, 0.00, -0.00, -0.10, 663.0, 616.0)"></image><image xlink:href="../../6CC1EF00-87BB-4895-A617-E2B7CF752493/assets/CA663D2CA21F79F0EE7200813ABEE7CF.jpeg" width="2448.00" height="3264.00" transform="matrix(0.06, 0.00, -0.00, -0.06, 816.0, 266.0)"></image></g></svg>