<?xml version="1.0" encoding="UTF-8" standalone="no"?><svg xmlns="http://www.w3.org/2000/svg" xmlns:xlink="http://www.w3.org/1999/xlink" clip-rule="evenodd" stroke-miterlimit="10" viewBox="0 0 1024 768"><desc>SVG generated by Keynote</desc><defs></defs><g transform="matrix(1.00, 0.00, -0.00, -1.00, 0.0, 768.0)"><path d="M 0.0 768.0 L 1024.0 768.0 L 1024.0 0.0 L 0.0 0.0 Z M 0.0 768.0 " fill="#FEFFFF"></path><text xml:space="preserve" font-family="Georgia,Georgia" font-size="80.0" fill="#000000" transform="matrix(1.00, 0.00, -0.00, -1.00, 173.6, 664.9)">K</text><text xml:space="preserve" font-family="Georgia,Georgia" font-size="80.0" fill="#000000" transform="matrix(1.00, 0.00, -0.00, -1.00, 229.2, 664.9)">u</text><text xml:space="preserve" font-family="Georgia,Georgia" font-size="80.0" fill="#000000" transform="matrix(1.00, 0.00, -0.00, -1.00, 275.2, 664.9)">p</text><text xml:space="preserve" font-family="Georgia,Georgia" font-size="80.0" fill="#000000" transform="matrix(1.00, 0.00, -0.00, -1.00, 320.9, 664.9)">e</text><text xml:space="preserve" font-family="Georgia,Georgia" font-size="80.0" fill="#000000" transform="matrix(1.00, 0.00, -0.00, -1.00, 359.6, 664.9)">r</text><text xml:space="preserve" font-family="Georgia,Georgia" font-size="80.0" fill="#000000" transform="matrix(1.00, 0.00, -0.00, -1.00, 392.4, 664.9)">a</text><text xml:space="preserve" font-family="Georgia,Georgia" font-size="80.0" fill="#000000" transform="matrix(1.00, 0.00, -0.00, -1.00, 432.7, 664.9)"> </text><text xml:space="preserve" font-family="Georgia,Georgia" font-size="80.0" fill="#000000" transform="matrix(1.00, 0.00, -0.00, -1.00, 452.0, 664.9)">v</text><text xml:space="preserve" font-family="Georgia,Georgia" font-size="80.0" fill="#000000" transform="matrix(1.00, 0.00, -0.00, -1.00, 491.7, 664.9)">a</text><text xml:space="preserve" font-family="Georgia,Georgia" font-size="80.0" fill="#000000" transform="matrix(1.00, 0.00, -0.00, -1.00, 532.0, 664.9)">i</text><text xml:space="preserve" font-family="Georgia,Georgia" font-size="80.0" fill="#000000" transform="matrix(1.00, 0.00, -0.00, -1.00, 555.4, 664.9)"> </text><text xml:space="preserve" font-family="Georgia,Georgia" font-size="80.0" fill="#000000" transform="matrix(1.00, 0.00, -0.00, -1.00, 574.7, 664.9)">k</text><text xml:space="preserve" font-family="Georgia,Georgia" font-size="80.0" fill="#000000" transform="matrix(1.00, 0.00, -0.00, -1.00, 617.6, 664.9)">o</text><text xml:space="preserve" font-family="Georgia,Georgia" font-size="80.0" fill="#000000" transform="matrix(1.00, 0.00, -0.00, -1.00, 660.7, 664.9)">v</text><text xml:space="preserve" font-family="Georgia,Georgia" font-size="80.0" fill="#000000" transform="matrix(1.00, 0.00, -0.00, -1.00, 700.4, 664.9)">e</text><text xml:space="preserve" font-family="Georgia,Georgia" font-size="80.0" fill="#000000" transform="matrix(1.00, 0.00, -0.00, -1.00, 739.1, 664.9)">r</text><text xml:space="preserve" font-family="Georgia,Georgia" font-size="80.0" fill="#000000" transform="matrix(1.00, 0.00, -0.00, -1.00, 771.8, 664.9)">a</text><text xml:space="preserve" font-family="Georgia,Georgia" font-size="80.0" fill="#000000" transform="matrix(1.00, 0.00, -0.00, -1.00, 812.1, 664.9)">?</text><g><clipPath id="clip0x7ff03fc7a8d0"><path d="M 757.4 28.1 L 801.1 28.1 L 801.1 226.6 L 757.4 226.6 Z M 757.4 28.1 "></path></clipPath><g clip-path="url(#clip0x7ff03fc7a8d0)"><path d="M 758.4 226.0 C 765.3 194.5 771.0 159.4 770.8 123.3 C 770.5 90.0 765.5 57.9 759.3 29.0 L 797.4 29.0 C 788.6 59.8 784.2 92.1 784.3 124.2 C 784.5 158.6 789.8 193.2 800.1 226.0 L 758.4 226.0 Z M 758.4 225.6 " fill="#94DCFF"></path></g></g><g><clipPath id="clip0x7ff03c35ffe0"><path d="M 600.6 184.3 L 681.4 184.3 L 681.4 195.9 L 600.6 195.9 Z M 600.6 184.3 "></path></clipPath><g clip-path="url(#clip0x7ff03c35ffe0)"><path d="M 0.4 0.1 L 69.3 0.1 L 70.4 0.1 " fill="none" stroke="#DCBD22" stroke-width="2.00" transform="matrix(1.00, 0.00, 0.00, -1.00, 601.6, 190.1)"></path><path d="M 671.0 185.2 L 680.6 190.0 L 671.0 194.8 Z M 671.0 185.2 " fill="#DCBD22"></path></g></g><g><clipPath id="clip0x7ff03fa81e40"><path d="M 679.1 192.1 L 765.5 192.1 L 765.5 188.1 L 679.1 188.1 Z M 679.1 192.1 "></path></clipPath><g clip-path="url(#clip0x7ff03fa81e40)"><path d="M -0.1 0.1 L 84.9 0.1 " fill="none" stroke="#DCBD22" stroke-width="2.00" transform="matrix(1.00, 0.00, 0.00, -1.00, 680.1, 190.1)"></path></g></g><g><clipPath id="clip0x7ff03fc90f80"><path d="M 762.7 191.9 L 791.9 197.5 L 792.7 193.6 L 763.5 188.0 Z M 762.7 191.9 "></path></clipPath><g clip-path="url(#clip0x7ff03fc90f80)"><path d="M 0.0 0.0 L 27.7 0.0 " fill="none" stroke="#DCBD22" stroke-width="2.00" transform="matrix(0.98, 0.19, 0.19, -0.98, 764.1, 190.1)"></path></g></g><g><clipPath id="clip0x7ff03fcfbc00"><path d="M 789.5 195.9 L 882.5 270.0 L 885.0 266.9 L 792.0 192.7 Z M 789.5 195.9 "></path></clipPath><g clip-path="url(#clip0x7ff03fcfbc00)"><path d="M 0.0 0.0 L 117.0 0.0 " fill="none" stroke="#DCBD22" stroke-width="2.00" transform="matrix(0.78, 0.62, 0.62, -0.78, 791.5, 194.9)"></path></g></g><g><clipPath id="clip0x7ff03e7e9c40"><path d="M 678.5 68.1 L 766.1 68.1 L 766.1 64.1 L 678.5 64.1 Z M 678.5 68.1 "></path></clipPath><g clip-path="url(#clip0x7ff03e7e9c40)"><path d="M -0.5 0.1 L 85.5 0.1 " fill="none" stroke="#DCBD22" stroke-width="2.00" transform="matrix(1.00, 0.00, 0.00, -1.00, 679.5, 66.1)"></path></g></g><g><clipPath id="clip0x7ff0402c62b0"><path d="M 764.6 68.3 L 791.5 60.7 L 790.4 56.8 L 763.5 64.5 Z M 764.6 68.3 "></path></clipPath><g clip-path="url(#clip0x7ff0402c62b0)"><path d="M 0.0 0.0 L 26.0 0.0 " fill="none" stroke="#DCBD22" stroke-width="2.00" transform="matrix(0.96, -0.27, -0.27, -0.96, 765.0, 66.1)"></path></g></g><g><clipPath id="clip0x7ff03c346e80"><path d="M 790.2 61.1 L 918.0 -33.4 L 915.6 -36.6 L 787.8 57.9 Z M 790.2 61.1 "></path></clipPath><g clip-path="url(#clip0x7ff03c346e80)"><path d="M 0.0 0.0 L 156.9 0.0 " fill="none" stroke="#DCBD22" stroke-width="2.00" transform="matrix(0.80, -0.59, -0.59, -0.80, 789.8, 58.9)"></path></g></g><g><clipPath id="clip0x7ff03c336ea0"><path d="M 679.6 129.8 L 920.7 131.4 L 920.7 127.4 L 679.6 125.8 Z M 679.6 129.8 "></path></clipPath><g clip-path="url(#clip0x7ff03c336ea0)"><path d="M 0.0 0.0 L 239.1 0.0 " fill="none" stroke="#DCBD22" stroke-width="2.00" transform="matrix(1.00, 0.01, 0.01, -1.00, 680.6, 127.8)"></path></g></g><g><clipPath id="clip0x7ff040e09830"><path d="M 600.0 60.3 L 680.9 60.3 L 680.9 71.9 L 600.0 71.9 Z M 600.0 60.3 "></path></clipPath><g clip-path="url(#clip0x7ff040e09830)"><path d="M 0.0 0.1 L 69.3 0.1 L 70.0 0.1 " fill="none" stroke="#DCBD22" stroke-width="2.00" transform="matrix(1.00, 0.00, 0.00, -1.00, 601.0, 66.1)"></path><path d="M 670.0 61.2 L 679.6 66.0 L 670.0 70.8 Z M 670.0 61.2 " fill="#DCBD22"></path></g></g><g><clipPath id="clip0x7ff040c7da40"><path d="M 601.1 122.0 L 682.0 122.0 L 682.0 133.6 L 601.1 133.6 Z M 601.1 122.0 "></path></clipPath><g clip-path="url(#clip0x7ff040c7da40)"><path d="M -0.1 -0.2 L 69.3 -0.2 L 69.9 -0.2 " fill="none" stroke="#DCBD22" stroke-width="2.00" transform="matrix(1.00, 0.00, 0.00, -1.00, 602.1, 127.8)"></path><path d="M 671.0 123.2 L 680.6 128.0 L 671.0 132.8 Z M 671.0 123.2 " fill="#DCBD22"></path></g></g><g><clipPath id="clip0x7ff040cc55c0"><path d="M 696.8 118.2 L 710.3 118.2 L 710.3 131.8 L 696.8 131.8 Z M 696.8 118.2 "></path></clipPath><g clip-path="url(#clip0x7ff040cc55c0)"><image xlink:href="../../8FFE0942-08CB-41FF-B054-426BD6B4875D/assets/15D38FC5277C43A2565FE98DF9A9EB80.png" width="12.00" height="12.00" transform="matrix(0.96, 0.00, -0.00, -0.96, 697.8, 130.8)" opacity="0.50"></image><path d="M 705.5 129.0 C 706.6 127.9 706.6 126.1 705.5 125.0 C 704.4 124.0 702.7 124.0 701.6 125.0 C 700.5 126.1 700.5 127.9 701.6 129.0 C 702.7 130.0 704.4 130.0 705.5 129.0 Z M 705.5 129.0 " fill="#000000"></path></g></g><g><clipPath id="clip0x7ff040eca6d0"><path d="M 704.1 129.0 L 792.6 198.0 L 795.1 194.8 L 706.6 125.8 Z M 704.1 129.0 "></path></clipPath><g clip-path="url(#clip0x7ff040eca6d0)"><path d="M 0.0 0.0 L 110.2 0.0 " fill="none" stroke="#DCBD22" stroke-width="2.00" stroke-dasharray="12.0, 12.0" transform="matrix(0.79, 0.61, 0.61, -0.79, 706.2, 128.0)"></path></g></g><g><clipPath id="clip0x7ff03c3930e0"><path d="M 705.1 127.4 L 790.2 62.2 L 787.8 59.0 L 702.7 124.2 Z M 705.1 127.4 "></path></clipPath><g clip-path="url(#clip0x7ff03c3930e0)"><path d="M 0.0 0.0 L 105.2 0.0 " fill="none" stroke="#DCBD22" stroke-width="2.00" stroke-dasharray="12.0, 12.0" transform="matrix(0.79, -0.61, -0.61, -0.79, 704.7, 125.2)"></path></g></g><g><clipPath id="clip0x7ff040973c90"><path d="M 338.5 7.5 L 385.1 7.5 L 385.1 226.0 L 338.5 226.0 Z M 338.5 7.5 "></path></clipPath><g clip-path="url(#clip0x7ff040973c90)"><path d="M 361.8 225.0 C 346.7 193.9 338.6 151.6 339.6 108.1 C 340.4 70.9 347.9 35.6 360.5 8.5 C 373.2 32.2 381.2 63.9 383.4 98.3 C 386.4 145.0 378.5 191.8 361.8 225.0 Z M 361.8 225.0 " fill="#94DCFF"></path></g></g><g><clipPath id="clip0x7ff040c67b80"><path d="M 170.7 177.9 L 257.4 177.9 L 257.4 189.5 L 170.7 189.5 Z M 170.7 177.9 "></path></clipPath><g clip-path="url(#clip0x7ff040c67b80)"><path d="M 0.3 -0.3 L 75.1 -0.3 L 76.3 -0.3 " fill="none" stroke="#DCBD22" stroke-width="2.00" transform="matrix(1.00, 0.00, 0.00, -1.00, 171.7, 183.7)"></path><path d="M 247.0 179.2 L 256.6 184.0 L 247.0 188.8 Z M 247.0 179.2 " fill="#DCBD22"></path></g></g><g><clipPath id="clip0x7ff040c0dcd0"><path d="M 255.0 185.7 L 347.6 185.7 L 347.6 181.7 L 255.0 181.7 Z M 255.0 185.7 "></path></clipPath><g clip-path="url(#clip0x7ff040c0dcd0)"><path d="M 0.0 -0.3 L 91.0 -0.3 " fill="none" stroke="#DCBD22" stroke-width="2.00" transform="matrix(1.00, 0.00, 0.00, -1.00, 256.0, 183.7)"></path></g></g><g><clipPath id="clip0x7ff040c7f940"><path d="M 345.6 185.9 L 379.5 178.8 L 378.7 174.9 L 344.8 181.9 Z M 345.6 185.9 "></path></clipPath><g clip-path="url(#clip0x7ff040c7f940)"><path d="M 0.0 0.0 L 32.7 0.0 " fill="none" stroke="#DCBD22" stroke-width="2.00" transform="matrix(0.98, -0.20, -0.20, -0.98, 346.2, 183.7)"></path></g></g><g><clipPath id="clip0x7ff03e7712e0"><path d="M 378.6 178.8 L 521.3 36.2 L 518.4 33.4 L 375.8 176.0 Z M 378.6 178.8 "></path></clipPath><g clip-path="url(#clip0x7ff03e7712e0)"><path d="M 0.0 0.0 L 199.7 0.0 " fill="none" stroke="#DCBD22" stroke-width="2.00" transform="matrix(0.71, -0.71, -0.71, -0.71, 377.9, 176.7)"></path></g></g><g><clipPath id="clip0x7ff03e739c80"><path d="M 254.3 52.5 L 347.0 52.5 L 347.0 48.5 L 254.3 48.5 Z M 254.3 52.5 "></path></clipPath><g clip-path="url(#clip0x7ff03e739c80)"><path d="M -0.3 -0.5 L 90.7 -0.5 " fill="none" stroke="#DCBD22" stroke-width="2.00" transform="matrix(1.00, 0.00, 0.00, -1.00, 255.3, 50.5)"></path></g></g><g><clipPath id="clip0x7ff040cc1bc0"><path d="M 344.7 52.9 L 377.1 61.3 L 378.1 57.4 L 345.7 49.0 Z M 344.7 52.9 "></path></clipPath><g clip-path="url(#clip0x7ff040cc1bc0)"><path d="M 0.0 0.0 L 31.5 0.0 " fill="none" stroke="#DCBD22" stroke-width="2.00" transform="matrix(0.97, 0.25, 0.25, -0.97, 346.2, 51.2)"></path></g></g><g><clipPath id="clip0x7ff025c0ba80"><path d="M 375.6 60.1 L 504.6 180.1 L 507.3 177.2 L 378.4 57.2 Z M 375.6 60.1 "></path></clipPath><g clip-path="url(#clip0x7ff025c0ba80)"><path d="M 0.0 0.0 L 174.2 0.0 " fill="none" stroke="#DCBD22" stroke-width="2.00" transform="matrix(0.73, 0.68, 0.68, -0.73, 377.7, 59.3)"></path></g></g><g><clipPath id="clip0x7ff025c0ca70"><path d="M 255.6 118.8 L 514.2 120.5 L 514.3 116.5 L 255.6 114.8 Z M 255.6 118.8 "></path></clipPath><g clip-path="url(#clip0x7ff025c0ca70)"><path d="M 0.0 0.0 L 256.7 0.0 " fill="none" stroke="#DCBD22" stroke-width="2.00" transform="matrix(1.00, 0.01, 0.01, -1.00, 256.6, 116.8)"></path></g></g><g><clipPath id="clip0x7ff040c096d0"><path d="M 170.1 44.7 L 256.8 44.7 L 256.8 56.3 L 170.1 56.3 Z M 170.1 44.7 "></path></clipPath><g clip-path="url(#clip0x7ff040c096d0)"><path d="M -0.1 -0.5 L 75.1 -0.5 L 75.9 -0.5 " fill="none" stroke="#DCBD22" stroke-width="2.00" transform="matrix(1.00, 0.00, 0.00, -1.00, 171.1, 50.5)"></path><path d="M 246.0 46.2 L 255.6 51.0 L 246.0 55.8 Z M 246.0 46.2 " fill="#DCBD22"></path></g></g><g><clipPath id="clip0x7ff025c41a90"><path d="M 171.3 111.0 L 258.0 111.0 L 258.0 122.6 L 171.3 122.6 Z M 171.3 111.0 "></path></clipPath><g clip-path="url(#clip0x7ff025c41a90)"><path d="M -0.3 -0.2 L 75.1 -0.2 L 75.7 -0.2 " fill="none" stroke="#DCBD22" stroke-width="2.00" transform="matrix(1.00, 0.00, 0.00, -1.00, 172.3, 116.8)"></path><path d="M 247.0 112.2 L 256.6 117.0 L 247.0 121.8 Z M 247.0 112.2 " fill="#DCBD22"></path></g></g><g><clipPath id="clip0x7ff025c43050"><path d="M 432.7 107.8 L 446.7 107.8 L 446.7 121.7 L 432.7 121.7 Z M 432.7 107.8 "></path></clipPath><g clip-path="url(#clip0x7ff025c43050)"><image xlink:href="../../8FFE0942-08CB-41FF-B054-426BD6B4875D/assets/3D4A0E4F5B84768548957D433468121D.png" width="12.00" height="12.00" transform="matrix(1.00, 0.00, -0.00, -1.00, 433.7, 120.7)" opacity="0.50"></image><path d="M 441.8 118.8 C 442.9 117.7 442.9 115.8 441.8 114.6 C 440.6 113.5 438.7 113.5 437.6 114.6 C 436.4 115.8 436.4 117.7 437.6 118.8 C 438.7 120.0 440.6 120.0 441.8 118.8 Z M 441.8 118.8 " fill="#000000"></path></g></g><text xml:space="preserve" font-family="Georgia,Georgia" font-size="33.0" fill="#000000" transform="matrix(1.00, 0.00, -0.00, -1.00, 179.7, 559.3)">K</text><text xml:space="preserve" font-family="Georgia,Georgia" font-size="33.0" fill="#000000" transform="matrix(1.00, 0.00, -0.00, -1.00, 202.6, 559.3)">u</text><text xml:space="preserve" font-family="Georgia,Georgia" font-size="33.0" fill="#000000" transform="matrix(1.00, 0.00, -0.00, -1.00, 221.6, 559.3)">p</text><text xml:space="preserve" font-family="Georgia,Georgia" font-size="33.0" fill="#000000" transform="matrix(1.00, 0.00, -0.00, -1.00, 240.5, 559.3)">e</text><text xml:space="preserve" font-family="Georgia,Georgia" font-size="33.0" fill="#000000" transform="matrix(1.00, 0.00, -0.00, -1.00, 256.4, 559.3)">r</text><text xml:space="preserve" font-family="Georgia,Georgia" font-size="33.0" fill="#000000" transform="matrix(1.00, 0.00, -0.00, -1.00, 270.0, 559.3)">a</text><text xml:space="preserve" font-family="Georgia,Georgia" font-size="33.0" fill="#000000" transform="matrix(1.00, 0.00, -0.00, -1.00, 286.6, 559.3)"> </text><text xml:space="preserve" font-family="Georgia,Georgia" font-size="33.0" fill="#000000" transform="matrix(1.00, 0.00, -0.00, -1.00, 294.6, 559.3)">l</text><text xml:space="preserve" font-family="Georgia,Georgia" font-size="33.0" fill="#000000" transform="matrix(1.00, 0.00, -0.00, -1.00, 304.0, 559.3)">i</text><text xml:space="preserve" font-family="Georgia,Georgia" font-size="33.0" fill="#000000" transform="matrix(1.00, 0.00, -0.00, -1.00, 313.7, 559.3)">n</text><text xml:space="preserve" font-family="Georgia,Georgia" font-size="33.0" fill="#000000" transform="matrix(1.00, 0.00, -0.00, -1.00, 333.2, 559.3)">s</text><text xml:space="preserve" font-family="Georgia,Georgia" font-size="33.0" fill="#000000" transform="matrix(1.00, 0.00, -0.00, -1.00, 347.4, 559.3)">s</text><text xml:space="preserve" font-family="Georgia,Georgia" font-size="33.0" fill="#000000" transform="matrix(1.00, 0.00, -0.00, -1.00, 361.7, 559.3)">i</text><text xml:space="preserve" font-family="Georgia,Georgia" font-size="33.0" fill="#000000" transform="matrix(1.00, 0.00, -0.00, -1.00, 627.9, 558.0)">K</text><text xml:space="preserve" font-family="Georgia,Georgia" font-size="33.0" fill="#000000" transform="matrix(1.00, 0.00, -0.00, -1.00, 650.8, 558.0)">o</text><text xml:space="preserve" font-family="Georgia,Georgia" font-size="33.0" fill="#000000" transform="matrix(1.00, 0.00, -0.00, -1.00, 668.6, 558.0)">v</text><text xml:space="preserve" font-family="Georgia,Georgia" font-size="33.0" fill="#000000" transform="matrix(1.00, 0.00, -0.00, -1.00, 685.0, 558.0)">e</text><text xml:space="preserve" font-family="Georgia,Georgia" font-size="33.0" fill="#000000" transform="matrix(1.00, 0.00, -0.00, -1.00, 700.9, 558.0)">r</text><text xml:space="preserve" font-family="Georgia,Georgia" font-size="33.0" fill="#000000" transform="matrix(1.00, 0.00, -0.00, -1.00, 714.4, 558.0)">a</text><text xml:space="preserve" font-family="Georgia,Georgia" font-size="33.0" fill="#000000" transform="matrix(1.00, 0.00, -0.00, -1.00, 731.1, 558.0)"> </text><text xml:space="preserve" font-family="Georgia,Georgia" font-size="33.0" fill="#000000" transform="matrix(1.00, 0.00, -0.00, -1.00, 739.0, 558.0)">l</text><text xml:space="preserve" font-family="Georgia,Georgia" font-size="33.0" fill="#000000" transform="matrix(1.00, 0.00, -0.00, -1.00, 748.5, 558.0)">i</text><text xml:space="preserve" font-family="Georgia,Georgia" font-size="33.0" fill="#000000" transform="matrix(1.00, 0.00, -0.00, -1.00, 758.1, 558.0)">n</text><text xml:space="preserve" font-family="Georgia,Georgia" font-size="33.0" fill="#000000" transform="matrix(1.00, 0.00, -0.00, -1.00, 777.6, 558.0)">s</text><text xml:space="preserve" font-family="Georgia,Georgia" font-size="33.0" fill="#000000" transform="matrix(1.00, 0.00, -0.00, -1.00, 791.9, 558.0)">s</text><text xml:space="preserve" font-family="Georgia,Georgia" font-size="33.0" fill="#000000" transform="matrix(1.00, 0.00, -0.00, -1.00, 806.2, 558.0)">i</text><text xml:space="preserve" font-family="Georgia,Georgia" font-size="33.0" fill="#000000" transform="matrix(1.00, 0.00, -0.00, -1.00, 200.5, 519.3)">-</text><text xml:space="preserve" font-family="Georgia,Georgia" font-size="33.0" fill="#000000" transform="matrix(1.00, 0.00, -0.00, -1.00, 212.9, 519.3)">k</text><text xml:space="preserve" font-family="Georgia,Georgia" font-size="33.0" fill="#000000" transform="matrix(1.00, 0.00, -0.00, -1.00, 230.5, 519.3)">e</text><text xml:space="preserve" font-family="Georgia,Georgia" font-size="33.0" fill="#000000" transform="matrix(1.00, 0.00, -0.00, -1.00, 246.5, 519.3)">s</text><text xml:space="preserve" font-family="Georgia,Georgia" font-size="33.0" fill="#000000" transform="matrix(1.00, 0.00, -0.00, -1.00, 260.7, 519.3)">k</text><text xml:space="preserve" font-family="Georgia,Georgia" font-size="33.0" fill="#000000" transform="matrix(1.00, 0.00, -0.00, -1.00, 278.4, 519.3)">e</text><text xml:space="preserve" font-family="Georgia,Georgia" font-size="33.0" fill="#000000" transform="matrix(1.00, 0.00, -0.00, -1.00, 294.4, 519.3)">l</text><text xml:space="preserve" font-family="Georgia,Georgia" font-size="33.0" fill="#000000" transform="matrix(1.00, 0.00, -0.00, -1.00, 303.8, 519.3)">t</text><text xml:space="preserve" font-family="Georgia,Georgia" font-size="33.0" fill="#000000" transform="matrix(1.00, 0.00, -0.00, -1.00, 315.2, 519.3)">ä</text><text xml:space="preserve" font-family="Georgia,Georgia" font-size="33.0" fill="#000000" transform="matrix(1.00, 0.00, -0.00, -1.00, 331.8, 519.3)"> </text><text xml:space="preserve" font-family="Georgia,Georgia" font-size="33.0" fill="#000000" transform="matrix(1.00, 0.00, -0.00, -1.00, 339.8, 519.3)">p</text><text xml:space="preserve" font-family="Georgia,Georgia" font-size="33.0" fill="#000000" transform="matrix(1.00, 0.00, -0.00, -1.00, 358.7, 519.3)">a</text><text xml:space="preserve" font-family="Georgia,Georgia" font-size="33.0" fill="#000000" transform="matrix(1.00, 0.00, -0.00, -1.00, 375.3, 519.3)">k</text><text xml:space="preserve" font-family="Georgia,Georgia" font-size="33.0" fill="#000000" transform="matrix(1.00, 0.00, -0.00, -1.00, 393.0, 519.3)">s</text><text xml:space="preserve" font-family="Georgia,Georgia" font-size="33.0" fill="#000000" transform="matrix(1.00, 0.00, -0.00, -1.00, 407.2, 519.3)">u</text><text xml:space="preserve" font-family="Georgia,Georgia" font-size="33.0" fill="#000000" transform="matrix(1.00, 0.00, -0.00, -1.00, 426.2, 519.3)">m</text><text xml:space="preserve" font-family="Georgia,Georgia" font-size="33.0" fill="#000000" transform="matrix(1.00, 0.00, -0.00, -1.00, 455.3, 519.3)">p</text><text xml:space="preserve" font-family="Georgia,Georgia" font-size="33.0" fill="#000000" transform="matrix(1.00, 0.00, -0.00, -1.00, 474.1, 519.3)">i</text><text xml:space="preserve" font-family="Georgia,Georgia" font-size="33.0" fill="#000000" transform="matrix(1.00, 0.00, -0.00, -1.00, 642.7, 518.0)">-</text><text xml:space="preserve" font-family="Georgia,Georgia" font-size="33.0" fill="#000000" transform="matrix(1.00, 0.00, -0.00, -1.00, 655.0, 518.0)">k</text><text xml:space="preserve" font-family="Georgia,Georgia" font-size="33.0" fill="#000000" transform="matrix(1.00, 0.00, -0.00, -1.00, 672.7, 518.0)">e</text><text xml:space="preserve" font-family="Georgia,Georgia" font-size="33.0" fill="#000000" transform="matrix(1.00, 0.00, -0.00, -1.00, 688.6, 518.0)">s</text><text xml:space="preserve" font-family="Georgia,Georgia" font-size="33.0" fill="#000000" transform="matrix(1.00, 0.00, -0.00, -1.00, 702.9, 518.0)">k</text><text xml:space="preserve" font-family="Georgia,Georgia" font-size="33.0" fill="#000000" transform="matrix(1.00, 0.00, -0.00, -1.00, 720.6, 518.0)">e</text><text xml:space="preserve" font-family="Georgia,Georgia" font-size="33.0" fill="#000000" transform="matrix(1.00, 0.00, -0.00, -1.00, 736.5, 518.0)">l</text><text xml:space="preserve" font-family="Georgia,Georgia" font-size="33.0" fill="#000000" transform="matrix(1.00, 0.00, -0.00, -1.00, 746.0, 518.0)">t</text><text xml:space="preserve" font-family="Georgia,Georgia" font-size="33.0" fill="#000000" transform="matrix(1.00, 0.00, -0.00, -1.00, 757.4, 518.0)">ä</text><text xml:space="preserve" font-family="Georgia,Georgia" font-size="33.0" fill="#000000" transform="matrix(1.00, 0.00, -0.00, -1.00, 774.0, 518.0)"> </text><text xml:space="preserve" font-family="Georgia,Georgia" font-size="33.0" fill="#000000" transform="matrix(1.00, 0.00, -0.00, -1.00, 782.0, 518.0)">o</text><text xml:space="preserve" font-family="Georgia,Georgia" font-size="33.0" fill="#000000" transform="matrix(1.00, 0.00, -0.00, -1.00, 799.8, 518.0)">h</text><text xml:space="preserve" font-family="Georgia,Georgia" font-size="33.0" fill="#000000" transform="matrix(1.00, 0.00, -0.00, -1.00, 819.0, 518.0)">u</text><text xml:space="preserve" font-family="Georgia,Georgia" font-size="33.0" fill="#000000" transform="matrix(1.00, 0.00, -0.00, -1.00, 838.0, 518.0)">e</text><text xml:space="preserve" font-family="Georgia,Georgia" font-size="33.0" fill="#000000" transform="matrix(1.00, 0.00, -0.00, -1.00, 853.9, 518.0)">m</text><text xml:space="preserve" font-family="Georgia,Georgia" font-size="33.0" fill="#000000" transform="matrix(1.00, 0.00, -0.00, -1.00, 883.0, 518.0)">p</text><text xml:space="preserve" font-family="Georgia,Georgia" font-size="33.0" fill="#000000" transform="matrix(1.00, 0.00, -0.00, -1.00, 901.8, 518.0)">i</text><path d="M 255.8 472.3 C 225.3 449.1 204.3 408.1 204.2 363.6 C 204.0 319.7 224.4 279.5 254.5 255.8 C 245.4 288.6 238.4 325.3 238.4 364.0 C 238.4 402.2 246.1 439.6 255.8 472.3 Z M 255.8 472.3 " fill="#94DCFF"></path><path d="M 340.4 472.3 C 310.0 449.1 288.9 408.1 288.8 363.6 C 288.7 319.7 309.1 279.5 339.1 255.8 C 339.8 290.0 339.2 326.9 339.3 364.8 C 339.3 401.8 340.6 438.6 340.4 472.3 Z M 340.4 472.3 " fill="#94DCFF"></path><path d="M 425.1 472.3 C 409.9 441.2 401.9 398.9 402.8 355.4 C 403.7 318.2 411.1 282.9 423.8 255.8 C 436.4 279.5 444.5 311.2 446.7 345.6 C 449.7 392.3 441.7 439.1 425.1 472.3 Z M 425.1 472.3 " fill="#94DCFF"></path><path d="M 798.5 462.0 C 805.4 431.2 811.1 396.0 810.8 360.0 C 810.6 326.7 805.6 294.9 799.4 266.0 L 837.4 266.0 C 828.7 296.8 824.3 328.8 824.4 360.8 C 824.6 395.2 829.9 429.2 840.1 462.0 L 798.5 462.0 Z M 798.5 462.3 " fill="#94DCFF"></path><path d="M 733.6 462.0 C 732.9 432.3 733.7 399.5 733.8 366.3 C 733.9 331.4 733.5 297.5 734.5 266.0 L 772.6 266.0 C 758.7 296.2 751.7 329.0 751.8 362.2 C 751.9 396.9 760.0 430.8 775.3 462.0 L 733.6 462.0 Z M 733.6 462.3 " fill="#94DCFF"></path><path d="M 654.5 462.0 C 637.8 432.3 629.1 396.5 629.9 360.0 C 630.7 326.2 639.6 293.7 655.4 266.0 L 693.4 266.0 C 663.8 288.1 645.9 322.5 644.8 359.5 C 643.7 400.2 662.9 438.5 696.1 462.0 L 654.5 462.0 Z M 654.5 462.3 " fill="#94DCFF"></path></g></svg>