<?xml version="1.0" encoding="UTF-8" standalone="no"?><svg xmlns="http://www.w3.org/2000/svg" xmlns:xlink="http://www.w3.org/1999/xlink" clip-rule="evenodd" stroke-miterlimit="10" viewBox="0 0 34 77"><desc>SVG generated by Keynote</desc><defs></defs><g transform="matrix(1.00, 0.00, -0.00, -1.00, 0.0, 77.0)"><g><clipPath id="clip0x6080012abdc0"><path d="M 5.1 27.1 L 28.3 27.1 L 28.3 50.2 L 5.1 50.2 Z M 5.1 27.1 "></path></clipPath><g clip-path="url(#clip0x6080012abdc0)"><path d="M 24.2 46.1 C 28.3 42.0 28.3 35.3 24.2 31.2 C 20.0 27.0 13.3 27.0 9.2 31.2 C 5.1 35.3 5.1 42.0 9.2 46.1 C 13.3 50.3 20.0 50.3 24.2 46.1 Z M 24.2 46.1 " fill="#C82505"></path></g></g><g><clipPath id="clip0x6080012a0780"><path d="M 0.0 55.0 L 33.3 55.0 L 33.3 66.6 L 0.0 66.6 Z M 0.0 55.0 "></path></clipPath><g clip-path="url(#clip0x6080012a0780)"><path d="M 0.0 8.8 C 8.8 -2.4 19.0 -2.9 30.6 7.2 " fill="none" stroke="#000000" stroke-width="1.00" transform="matrix(1.00, 0.00, 0.00, -1.00, 1.4, 65.1)"></path></g></g><g><clipPath id="clip0x6080010b6b00"><path d="M 0.0 65.0 L 33.3 65.0 L 33.3 76.6 L 0.0 76.6 Z M 0.0 65.0 "></path></clipPath><g clip-path="url(#clip0x6080010b6b00)"><path d="M 0.0 8.8 C 8.8 -2.4 19.0 -2.9 30.6 7.2 " fill="none" stroke="#000000" stroke-width="1.00" transform="matrix(1.00, 0.00, 0.00, -1.00, 1.4, 75.1)"></path></g></g><g><clipPath id="clip0x6080010aace0"><path d="M 33.4 10.8 L 0.1 10.8 L 0.1 22.4 L 33.4 22.4 Z M 33.4 10.8 "></path></clipPath><g clip-path="url(#clip0x6080010aace0)"><path d="M 0.0 8.8 C 8.8 -2.4 19.0 -2.9 30.6 7.2 " fill="none" stroke="#000000" stroke-width="1.00" transform="matrix(-1.00, 0.00, 0.00, 1.00, 32.0, 12.3)"></path></g></g><g><clipPath id="clip0x6080010ac060"><path d="M 33.4 0.8 L 0.1 0.8 L 0.1 12.4 L 33.4 12.4 Z M 33.4 0.8 "></path></clipPath><g clip-path="url(#clip0x6080010ac060)"><path d="M 0.0 8.8 C 8.8 -2.4 19.0 -2.9 30.6 7.2 " fill="none" stroke="#000000" stroke-width="1.00" transform="matrix(-1.00, 0.00, 0.00, 1.00, 32.0, 2.3)"></path></g></g></g></svg>