<?xml version="1.0" encoding="UTF-8" standalone="no"?><svg xmlns="http://www.w3.org/2000/svg" xmlns:xlink="http://www.w3.org/1999/xlink" clip-rule="evenodd" stroke-miterlimit="10" viewBox="0 0 1024 768"><desc>SVG generated by Keynote</desc><defs><linearGradient id="gradSh1.1" x1="0.0" y1="0.0" x2="100.0" y2="0.0" gradientUnits="userSpaceOnUse" gradientTransform="matrix(0.00, -0.88, -0.75, 0.00, 253.1, 269.3)"><stop offset="0.00000" stop-color="#F9E51E"></stop><stop offset="0.00587" stop-color="#F9E41E"></stop><stop offset="0.59311" stop-color="#D89F0F"></stop><stop offset="0.59604" stop-color="#D89E0F"></stop><stop offset="0.92302" stop-color="#C67807"></stop><stop offset="0.92522" stop-color="#C67707"></stop><stop offset="1.00000" stop-color="#C16F06"></stop></linearGradient></defs><g transform="matrix(1.00, 0.00, -0.00, -1.00, 0.0, 768.0)"><path d="M 0.0 768.0 L 1024.0 768.0 L 1024.0 0.0 L 0.0 0.0 Z M 0.0 768.0 " fill="#FEFFFF"></path><text xml:space="preserve" font-family="Georgia,Georgia" font-size="65.0" fill="#000000" transform="matrix(1.00, 0.00, -0.00, -1.00, 336.6, 648.3)">J</text><text xml:space="preserve" font-family="Georgia,Georgia" font-size="65.0" fill="#000000" transform="matrix(1.00, 0.00, -0.00, -1.00, 370.2, 648.3)">o</text><text xml:space="preserve" font-family="Georgia,Georgia" font-size="65.0" fill="#000000" transform="matrix(1.00, 0.00, -0.00, -1.00, 405.2, 648.3)">h</text><text xml:space="preserve" font-family="Georgia,Georgia" font-size="65.0" fill="#000000" transform="matrix(1.00, 0.00, -0.00, -1.00, 443.1, 648.3)">t</text><text xml:space="preserve" font-family="Georgia,Georgia" font-size="65.0" fill="#000000" transform="matrix(1.00, 0.00, -0.00, -1.00, 465.5, 648.3)">u</text><text xml:space="preserve" font-family="Georgia,Georgia" font-size="65.0" fill="#000000" transform="matrix(1.00, 0.00, -0.00, -1.00, 502.9, 648.3)">m</text><text xml:space="preserve" font-family="Georgia,Georgia" font-size="65.0" fill="#000000" transform="matrix(1.00, 0.00, -0.00, -1.00, 560.2, 648.3)">i</text><text xml:space="preserve" font-family="Georgia,Georgia" font-size="65.0" fill="#000000" transform="matrix(1.00, 0.00, -0.00, -1.00, 579.2, 648.3)">n</text><text xml:space="preserve" font-family="Georgia,Georgia" font-size="65.0" fill="#000000" transform="matrix(1.00, 0.00, -0.00, -1.00, 617.6, 648.3)">e</text><text xml:space="preserve" font-family="Georgia,Georgia" font-size="65.0" fill="#000000" transform="matrix(1.00, 0.00, -0.00, -1.00, 649.0, 648.3)">n</text><text xml:space="preserve" font-family="Georgia,Georgia" font-size="27.0" fill="#000000" transform="matrix(1.00, 0.00, -0.00, -1.00, 79.0, 528.9)">•</text><text xml:space="preserve" font-family="Georgia,Georgia" font-size="36.0" fill="#000000" transform="matrix(1.00, 0.00, -0.00, -1.00, 114.0, 525.9)">J</text><text xml:space="preserve" font-family="Georgia,Georgia" font-size="36.0" fill="#000000" transform="matrix(1.00, 0.00, -0.00, -1.00, 132.6, 525.9)">o</text><text xml:space="preserve" font-family="Georgia,Georgia" font-size="36.0" fill="#000000" transform="matrix(1.00, 0.00, -0.00, -1.00, 152.0, 525.9)">h</text><text xml:space="preserve" font-family="Georgia,Georgia" font-size="36.0" fill="#000000" transform="matrix(1.00, 0.00, -0.00, -1.00, 173.0, 525.9)">t</text><text xml:space="preserve" font-family="Georgia,Georgia" font-size="36.0" fill="#000000" transform="matrix(1.00, 0.00, -0.00, -1.00, 185.4, 525.9)">u</text><text xml:space="preserve" font-family="Georgia,Georgia" font-size="36.0" fill="#000000" transform="matrix(1.00, 0.00, -0.00, -1.00, 206.1, 525.9)">m</text><text xml:space="preserve" font-family="Georgia,Georgia" font-size="36.0" fill="#000000" transform="matrix(1.00, 0.00, -0.00, -1.00, 237.8, 525.9)">i</text><text xml:space="preserve" font-family="Georgia,Georgia" font-size="36.0" fill="#000000" transform="matrix(1.00, 0.00, -0.00, -1.00, 248.4, 525.9)">s</text><text xml:space="preserve" font-family="Georgia,Georgia" font-size="36.0" fill="#000000" transform="matrix(1.00, 0.00, -0.00, -1.00, 263.9, 525.9)">e</text><text xml:space="preserve" font-family="Georgia,Georgia" font-size="36.0" fill="#000000" transform="matrix(1.00, 0.00, -0.00, -1.00, 281.4, 525.9)">s</text><text xml:space="preserve" font-family="Georgia,Georgia" font-size="36.0" fill="#000000" transform="matrix(1.00, 0.00, -0.00, -1.00, 296.9, 525.9)">s</text><text xml:space="preserve" font-family="Georgia,Georgia" font-size="36.0" fill="#000000" transform="matrix(1.00, 0.00, -0.00, -1.00, 312.5, 525.9)">a</text><text xml:space="preserve" font-family="Georgia,Georgia" font-size="36.0" fill="#000000" transform="matrix(1.00, 0.00, -0.00, -1.00, 330.6, 525.9)"> </text><text xml:space="preserve" font-family="Georgia,Georgia" font-size="36.0" fill="#000000" transform="matrix(1.00, 0.00, -0.00, -1.00, 339.3, 525.9)">l</text><text xml:space="preserve" font-family="Georgia,Georgia" font-size="36.0" fill="#000000" transform="matrix(1.00, 0.00, -0.00, -1.00, 349.6, 525.9)">ä</text><text xml:space="preserve" font-family="Georgia,Georgia" font-size="36.0" fill="#000000" transform="matrix(1.00, 0.00, -0.00, -1.00, 367.8, 525.9)">m</text><text xml:space="preserve" font-family="Georgia,Georgia" font-size="36.0" fill="#000000" transform="matrix(1.00, 0.00, -0.00, -1.00, 399.5, 525.9)">p</text><text xml:space="preserve" font-family="Georgia,Georgia" font-size="36.0" fill="#000000" transform="matrix(1.00, 0.00, -0.00, -1.00, 420.0, 525.9)">ö</text><text xml:space="preserve" font-family="Georgia,Georgia" font-size="36.0" fill="#000000" transform="matrix(1.00, 0.00, -0.00, -1.00, 439.4, 525.9)">l</text><text xml:space="preserve" font-family="Georgia,Georgia" font-size="36.0" fill="#000000" transform="matrix(1.00, 0.00, -0.00, -1.00, 449.8, 525.9)">i</text><text xml:space="preserve" font-family="Georgia,Georgia" font-size="36.0" fill="#000000" transform="matrix(1.00, 0.00, -0.00, -1.00, 460.3, 525.9)">i</text><text xml:space="preserve" font-family="Georgia,Georgia" font-size="36.0" fill="#000000" transform="matrix(1.00, 0.00, -0.00, -1.00, 470.8, 525.9)">k</text><text xml:space="preserve" font-family="Georgia,Georgia" font-size="36.0" fill="#000000" transform="matrix(1.00, 0.00, -0.00, -1.00, 490.1, 525.9)">e</text><text xml:space="preserve" font-family="Georgia,Georgia" font-size="36.0" fill="#000000" transform="matrix(1.00, 0.00, -0.00, -1.00, 507.5, 525.9)"> </text><text xml:space="preserve" font-family="Georgia,Georgia" font-size="36.0" fill="#000000" transform="matrix(1.00, 0.00, -0.00, -1.00, 516.2, 525.9)">s</text><text xml:space="preserve" font-family="Georgia,Georgia" font-size="36.0" fill="#000000" transform="matrix(1.00, 0.00, -0.00, -1.00, 531.8, 525.9)">i</text><text xml:space="preserve" font-family="Georgia,Georgia" font-size="36.0" fill="#000000" transform="matrix(1.00, 0.00, -0.00, -1.00, 542.3, 525.9)">i</text><text xml:space="preserve" font-family="Georgia,Georgia" font-size="36.0" fill="#000000" transform="matrix(1.00, 0.00, -0.00, -1.00, 552.9, 525.9)">r</text><text xml:space="preserve" font-family="Georgia,Georgia" font-size="36.0" fill="#000000" transform="matrix(1.00, 0.00, -0.00, -1.00, 567.6, 525.9)">t</text><text xml:space="preserve" font-family="Georgia,Georgia" font-size="36.0" fill="#000000" transform="matrix(1.00, 0.00, -0.00, -1.00, 580.0, 525.9)">y</text><text xml:space="preserve" font-family="Georgia,Georgia" font-size="36.0" fill="#000000" transform="matrix(1.00, 0.00, -0.00, -1.00, 597.8, 525.9)">y</text><text xml:space="preserve" font-family="Georgia,Georgia" font-size="36.0" fill="#000000" transform="matrix(1.00, 0.00, -0.00, -1.00, 615.5, 525.9)"> </text><text xml:space="preserve" font-family="Georgia,Georgia" font-size="36.0" fill="#000000" transform="matrix(1.00, 0.00, -0.00, -1.00, 624.2, 525.9)">a</text><text xml:space="preserve" font-family="Georgia,Georgia" font-size="36.0" fill="#000000" transform="matrix(1.00, 0.00, -0.00, -1.00, 642.3, 525.9)">i</text><text xml:space="preserve" font-family="Georgia,Georgia" font-size="36.0" fill="#000000" transform="matrix(1.00, 0.00, -0.00, -1.00, 652.9, 525.9)">n</text><text xml:space="preserve" font-family="Georgia,Georgia" font-size="36.0" fill="#000000" transform="matrix(1.00, 0.00, -0.00, -1.00, 674.1, 525.9)">e</text><text xml:space="preserve" font-family="Georgia,Georgia" font-size="36.0" fill="#000000" transform="matrix(1.00, 0.00, -0.00, -1.00, 691.6, 525.9)">e</text><text xml:space="preserve" font-family="Georgia,Georgia" font-size="36.0" fill="#000000" transform="matrix(1.00, 0.00, -0.00, -1.00, 709.0, 525.9)">n</text><text xml:space="preserve" font-family="Georgia,Georgia" font-size="36.0" fill="#000000" transform="matrix(1.00, 0.00, -0.00, -1.00, 730.2, 525.9)"> </text><text xml:space="preserve" font-family="Georgia,Georgia" font-size="36.0" fill="#000000" transform="matrix(1.00, 0.00, -0.00, -1.00, 114.0, 484.9)">r</text><text xml:space="preserve" font-family="Georgia,Georgia" font-size="36.0" fill="#000000" transform="matrix(1.00, 0.00, -0.00, -1.00, 128.7, 484.9)">a</text><text xml:space="preserve" font-family="Georgia,Georgia" font-size="36.0" fill="#000000" transform="matrix(1.00, 0.00, -0.00, -1.00, 146.9, 484.9)">k</text><text xml:space="preserve" font-family="Georgia,Georgia" font-size="36.0" fill="#000000" transform="matrix(1.00, 0.00, -0.00, -1.00, 166.1, 484.9)">e</text><text xml:space="preserve" font-family="Georgia,Georgia" font-size="36.0" fill="#000000" transform="matrix(1.00, 0.00, -0.00, -1.00, 183.6, 484.9)">n</text><text xml:space="preserve" font-family="Georgia,Georgia" font-size="36.0" fill="#000000" transform="matrix(1.00, 0.00, -0.00, -1.00, 204.8, 484.9)">n</text><text xml:space="preserve" font-family="Georgia,Georgia" font-size="36.0" fill="#000000" transform="matrix(1.00, 0.00, -0.00, -1.00, 226.1, 484.9)">e</text><text xml:space="preserve" font-family="Georgia,Georgia" font-size="36.0" fill="#000000" transform="matrix(1.00, 0.00, -0.00, -1.00, 243.5, 484.9)">o</text><text xml:space="preserve" font-family="Georgia,Georgia" font-size="36.0" fill="#000000" transform="matrix(1.00, 0.00, -0.00, -1.00, 262.9, 484.9)">s</text><text xml:space="preserve" font-family="Georgia,Georgia" font-size="36.0" fill="#000000" transform="matrix(1.00, 0.00, -0.00, -1.00, 278.5, 484.9)">a</text><text xml:space="preserve" font-family="Georgia,Georgia" font-size="36.0" fill="#000000" transform="matrix(1.00, 0.00, -0.00, -1.00, 296.6, 484.9)">s</text><text xml:space="preserve" font-family="Georgia,Georgia" font-size="36.0" fill="#000000" transform="matrix(1.00, 0.00, -0.00, -1.00, 312.2, 484.9)">e</text><text xml:space="preserve" font-family="Georgia,Georgia" font-size="36.0" fill="#000000" transform="matrix(1.00, 0.00, -0.00, -1.00, 329.6, 484.9)">l</text><text xml:space="preserve" font-family="Georgia,Georgia" font-size="36.0" fill="#000000" transform="matrix(1.00, 0.00, -0.00, -1.00, 339.9, 484.9)">t</text><text xml:space="preserve" font-family="Georgia,Georgia" font-size="36.0" fill="#000000" transform="matrix(1.00, 0.00, -0.00, -1.00, 352.3, 484.9)">a</text><text xml:space="preserve" font-family="Georgia,Georgia" font-size="36.0" fill="#000000" transform="matrix(1.00, 0.00, -0.00, -1.00, 370.5, 484.9)"> </text><text xml:space="preserve" font-family="Georgia,Georgia" font-size="36.0" fill="#000000" transform="matrix(1.00, 0.00, -0.00, -1.00, 379.2, 484.9)">t</text><text xml:space="preserve" font-family="Georgia,Georgia" font-size="36.0" fill="#000000" transform="matrix(1.00, 0.00, -0.00, -1.00, 391.6, 484.9)">o</text><text xml:space="preserve" font-family="Georgia,Georgia" font-size="36.0" fill="#000000" transform="matrix(1.00, 0.00, -0.00, -1.00, 411.0, 484.9)">i</text><text xml:space="preserve" font-family="Georgia,Georgia" font-size="36.0" fill="#000000" transform="matrix(1.00, 0.00, -0.00, -1.00, 421.5, 484.9)">s</text><text xml:space="preserve" font-family="Georgia,Georgia" font-size="36.0" fill="#000000" transform="matrix(1.00, 0.00, -0.00, -1.00, 437.1, 484.9)">e</text><text xml:space="preserve" font-family="Georgia,Georgia" font-size="36.0" fill="#000000" transform="matrix(1.00, 0.00, -0.00, -1.00, 454.5, 484.9)">l</text><text xml:space="preserve" font-family="Georgia,Georgia" font-size="36.0" fill="#000000" transform="matrix(1.00, 0.00, -0.00, -1.00, 464.8, 484.9)">l</text><text xml:space="preserve" font-family="Georgia,Georgia" font-size="36.0" fill="#000000" transform="matrix(1.00, 0.00, -0.00, -1.00, 475.1, 484.9)">e</text><g><clipPath id="clip0x6080018bcf80"><path d="M 455.7 342.1 L 476.9 342.1 L 476.9 363.2 L 455.7 363.2 Z M 455.7 342.1 "></path></clipPath><g clip-path="url(#clip0x6080018bcf80)"><path d="M 473.1 359.4 C 476.8 355.7 476.8 349.6 473.1 345.9 C 469.3 342.1 463.2 342.1 459.5 345.9 C 455.8 349.6 455.8 355.7 459.5 359.4 C 463.2 363.2 469.3 363.2 473.1 359.4 Z M 473.1 359.4 " fill="#0264C0"></path></g></g><g><clipPath id="clip0x6080018bd1c0"><path d="M 354.2 342.1 L 375.3 342.1 L 375.3 363.2 L 354.2 363.2 Z M 354.2 342.1 "></path></clipPath><g clip-path="url(#clip0x6080018bd1c0)"><path d="M 371.5 359.4 C 375.3 355.7 375.3 349.6 371.5 345.9 C 367.8 342.1 361.7 342.1 358.0 345.9 C 354.2 349.6 354.2 355.7 358.0 359.4 C 361.7 363.2 367.8 363.2 371.5 359.4 Z M 371.5 359.4 " fill="#0264C0"></path></g></g><g><clipPath id="clip0x6080018bd400"><path d="M 506.5 342.1 L 527.6 342.1 L 527.6 363.2 L 506.5 363.2 Z M 506.5 342.1 "></path></clipPath><g clip-path="url(#clip0x6080018bd400)"><path d="M 523.8 359.4 C 527.6 355.7 527.6 349.6 523.8 345.9 C 520.1 342.1 514.0 342.1 510.3 345.9 C 506.5 349.6 506.5 355.7 510.3 359.4 C 514.0 363.2 520.1 363.2 523.8 359.4 Z M 523.8 359.4 " fill="#0264C0"></path></g></g><g><clipPath id="clip0x6080018bd640"><path d="M 404.9 342.1 L 426.1 342.1 L 426.1 363.2 L 404.9 363.2 Z M 404.9 342.1 "></path></clipPath><g clip-path="url(#clip0x6080018bd640)"><path d="M 422.3 359.4 C 426.0 355.7 426.0 349.6 422.3 345.9 C 418.5 342.1 412.5 342.1 408.7 345.9 C 405.0 349.6 405.0 355.7 408.7 359.4 C 412.5 363.2 418.5 363.2 422.3 359.4 Z M 422.3 359.4 " fill="#0264C0"></path></g></g><g><clipPath id="clip0x6080018bd880"><path d="M 252.6 342.1 L 273.8 342.1 L 273.8 363.2 L 252.6 363.2 Z M 252.6 342.1 "></path></clipPath><g clip-path="url(#clip0x6080018bd880)"><path d="M 270.0 359.4 C 273.8 355.7 273.8 349.6 270.0 345.9 C 266.3 342.1 260.2 342.1 256.5 345.9 C 252.7 349.6 252.7 355.7 256.5 359.4 C 260.2 363.2 266.3 363.2 270.0 359.4 Z M 270.0 359.4 " fill="#0264C0"></path></g></g><g><clipPath id="clip0x6080018bdac0"><path d="M 303.4 342.1 L 324.6 342.1 L 324.6 363.2 L 303.4 363.2 Z M 303.4 342.1 "></path></clipPath><g clip-path="url(#clip0x6080018bdac0)"><path d="M 320.8 359.4 C 324.5 355.7 324.5 349.6 320.8 345.9 C 317.0 342.1 311.0 342.1 307.2 345.9 C 303.5 349.6 303.5 355.7 307.2 359.4 C 311.0 363.2 317.0 363.2 320.8 359.4 Z M 320.8 359.4 " fill="#0264C0"></path></g></g><g><clipPath id="clip0x6080018bdd00"><path d="M 760.3 342.1 L 781.4 342.1 L 781.4 363.2 L 760.3 363.2 Z M 760.3 342.1 "></path></clipPath><g clip-path="url(#clip0x6080018bdd00)"><path d="M 777.6 359.4 C 781.4 355.7 781.4 349.6 777.6 345.9 C 773.9 342.1 767.8 342.1 764.1 345.9 C 760.3 349.6 760.3 355.7 764.1 359.4 C 767.8 363.2 773.9 363.2 777.6 359.4 Z M 777.6 359.4 " fill="#0264C0"></path></g></g><g><clipPath id="clip0x6080018bdf40"><path d="M 658.7 342.1 L 679.9 342.1 L 679.9 363.2 L 658.7 363.2 Z M 658.7 342.1 "></path></clipPath><g clip-path="url(#clip0x6080018bdf40)"><path d="M 676.1 359.4 C 679.8 355.7 679.8 349.6 676.1 345.9 C 672.4 342.1 666.3 342.1 662.5 345.9 C 658.8 349.6 658.8 355.7 662.5 359.4 C 666.3 363.2 672.4 363.2 676.1 359.4 Z M 676.1 359.4 " fill="#0264C0"></path></g></g><g><clipPath id="clip0x6080018be180"><path d="M 811.0 342.1 L 832.2 342.1 L 832.2 363.2 L 811.0 363.2 Z M 811.0 342.1 "></path></clipPath><g clip-path="url(#clip0x6080018be180)"><path d="M 828.4 359.4 C 832.1 355.7 832.1 349.6 828.4 345.9 C 824.6 342.1 818.6 342.1 814.8 345.9 C 811.1 349.6 811.1 355.7 814.8 359.4 C 818.6 363.2 824.6 363.2 828.4 359.4 Z M 828.4 359.4 " fill="#0264C0"></path></g></g><g><clipPath id="clip0x6080018be3c0"><path d="M 709.5 342.1 L 730.7 342.1 L 730.7 363.2 L 709.5 363.2 Z M 709.5 342.1 "></path></clipPath><g clip-path="url(#clip0x6080018be3c0)"><path d="M 726.9 359.4 C 730.6 355.7 730.6 349.6 726.9 345.9 C 723.1 342.1 717.0 342.1 713.3 345.9 C 709.6 349.6 709.6 355.7 713.3 359.4 C 717.0 363.2 723.1 363.2 726.9 359.4 Z M 726.9 359.4 " fill="#0264C0"></path></g></g><g><clipPath id="clip0x6080018be600"><path d="M 557.2 342.1 L 578.4 342.1 L 578.4 363.2 L 557.2 363.2 Z M 557.2 342.1 "></path></clipPath><g clip-path="url(#clip0x6080018be600)"><path d="M 574.6 359.4 C 578.3 355.7 578.3 349.6 574.6 345.9 C 570.8 342.1 564.8 342.1 561.0 345.9 C 557.3 349.6 557.3 355.7 561.0 359.4 C 564.8 363.2 570.8 363.2 574.6 359.4 Z M 574.6 359.4 " fill="#0264C0"></path></g></g><g><clipPath id="clip0x6080018be840"><path d="M 608.0 342.1 L 629.1 342.1 L 629.1 363.2 L 608.0 363.2 Z M 608.0 342.1 "></path></clipPath><g clip-path="url(#clip0x6080018be840)"><path d="M 625.3 359.4 C 629.1 355.7 629.1 349.6 625.3 345.9 C 621.6 342.1 615.5 342.1 611.8 345.9 C 608.0 349.6 608.0 355.7 611.8 359.4 C 615.5 363.2 621.6 363.2 625.3 359.4 Z M 625.3 359.4 " fill="#0264C0"></path></g></g><g><clipPath id="clip0x6080018bea80"><path d="M 270.0 343.8 L 304.8 343.8 L 304.8 360.2 L 270.0 360.2 Z M 270.0 343.8 "></path></clipPath><g clip-path="url(#clip0x6080018bea80)"><path d="M -0.0 6.6 L 6.5 6.6 L 8.8 0.0 L 10.5 12.8 L 14.0 0.2 L 17.0 12.7 L 19.3 0.1 C 19.9 2.3 20.5 4.5 21.1 6.6 C 21.7 8.7 22.3 10.8 23.0 12.8 L 26.2 5.6 L 33.0 5.6 " fill="none" stroke="#000000" stroke-width="1.00" transform="matrix(1.00, 0.00, 0.00, -1.00, 271.0, 359.1)"></path></g></g><g><clipPath id="clip0x6080018becc0"><path d="M 321.0 343.8 L 355.8 343.8 L 355.8 360.2 L 321.0 360.2 Z M 321.0 343.8 "></path></clipPath><g clip-path="url(#clip0x6080018becc0)"><path d="M -0.0 6.6 L 6.5 6.6 L 8.8 0.0 L 10.5 12.8 L 14.0 0.2 L 17.0 12.7 L 19.3 0.1 C 19.9 2.3 20.5 4.5 21.1 6.6 C 21.7 8.7 22.3 10.8 23.0 12.8 L 26.2 5.6 L 33.0 5.6 " fill="none" stroke="#000000" stroke-width="1.00" transform="matrix(1.00, 0.00, 0.00, -1.00, 322.0, 359.1)"></path></g></g><g><clipPath id="clip0x6080018bef00"><path d="M 372.0 343.8 L 406.8 343.8 L 406.8 360.2 L 372.0 360.2 Z M 372.0 343.8 "></path></clipPath><g clip-path="url(#clip0x6080018bef00)"><path d="M -0.0 6.6 L 6.5 6.6 L 8.8 0.0 L 10.5 12.8 L 14.0 0.2 L 17.0 12.7 L 19.3 0.1 C 19.9 2.3 20.5 4.5 21.1 6.6 C 21.7 8.7 22.3 10.8 23.0 12.8 L 26.2 5.6 L 33.0 5.6 " fill="none" stroke="#000000" stroke-width="1.00" transform="matrix(1.00, 0.00, 0.00, -1.00, 373.0, 359.1)"></path></g></g><g><clipPath id="clip0x6080018bf140"><path d="M 423.0 343.8 L 457.8 343.8 L 457.8 360.2 L 423.0 360.2 Z M 423.0 343.8 "></path></clipPath><g clip-path="url(#clip0x6080018bf140)"><path d="M -0.0 6.6 L 6.5 6.6 L 8.8 0.0 L 10.5 12.8 L 14.0 0.2 L 17.0 12.7 L 19.3 0.1 C 19.9 2.3 20.5 4.5 21.1 6.6 C 21.7 8.7 22.3 10.8 23.0 12.8 L 26.2 5.6 L 33.0 5.6 " fill="none" stroke="#000000" stroke-width="1.00" transform="matrix(1.00, 0.00, 0.00, -1.00, 424.0, 359.1)"></path></g></g><g><clipPath id="clip0x6080018bf380"><path d="M 474.0 343.8 L 508.7 343.8 L 508.7 360.2 L 474.0 360.2 Z M 474.0 343.8 "></path></clipPath><g clip-path="url(#clip0x6080018bf380)"><path d="M 0.0 6.6 L 6.5 6.6 L 8.8 0.0 L 10.5 12.8 L 14.0 0.2 L 17.0 12.7 L 19.3 0.1 C 19.9 2.3 20.5 4.5 21.1 6.6 C 21.7 8.7 22.3 10.8 23.0 12.8 L 26.2 5.6 L 33.0 5.6 " fill="none" stroke="#000000" stroke-width="1.00" transform="matrix(1.00, 0.00, 0.00, -1.00, 475.0, 359.1)"></path></g></g><g><clipPath id="clip0x6080018bf5c0"><path d="M 525.0 343.8 L 559.7 343.8 L 559.7 360.2 L 525.0 360.2 Z M 525.0 343.8 "></path></clipPath><g clip-path="url(#clip0x6080018bf5c0)"><path d="M 0.0 6.6 L 6.5 6.6 L 8.8 0.0 L 10.5 12.8 L 14.0 0.2 L 17.0 12.7 L 19.3 0.1 C 19.9 2.3 20.5 4.5 21.1 6.6 C 21.7 8.7 22.3 10.8 23.0 12.8 L 26.2 5.6 L 33.0 5.6 " fill="none" stroke="#000000" stroke-width="1.00" transform="matrix(1.00, 0.00, 0.00, -1.00, 526.0, 359.1)"></path></g></g><g><clipPath id="clip0x6080018bf800"><path d="M 576.0 343.8 L 610.7 343.8 L 610.7 360.2 L 576.0 360.2 Z M 576.0 343.8 "></path></clipPath><g clip-path="url(#clip0x6080018bf800)"><path d="M 0.0 6.6 L 6.5 6.6 L 8.8 0.0 L 10.5 12.8 L 14.0 0.2 L 17.0 12.7 L 19.3 0.1 C 19.9 2.3 20.5 4.5 21.1 6.6 C 21.7 8.7 22.3 10.8 23.0 12.8 L 26.2 5.6 L 33.0 5.6 " fill="none" stroke="#000000" stroke-width="1.00" transform="matrix(1.00, 0.00, 0.00, -1.00, 577.0, 359.1)"></path></g></g><g><clipPath id="clip0x6080018bfa40"><path d="M 626.9 343.8 L 661.7 343.8 L 661.7 360.2 L 626.9 360.2 Z M 626.9 343.8 "></path></clipPath><g clip-path="url(#clip0x6080018bfa40)"><path d="M 0.0 6.6 L 6.5 6.6 L 8.8 0.0 L 10.5 12.8 L 14.0 0.2 L 17.0 12.7 L 19.3 0.1 C 19.9 2.3 20.5 4.5 21.1 6.6 C 21.7 8.7 22.3 10.8 23.0 12.8 L 26.2 5.6 L 33.0 5.6 " fill="none" stroke="#000000" stroke-width="1.00" transform="matrix(1.00, 0.00, 0.00, -1.00, 628.0, 359.1)"></path></g></g><g><clipPath id="clip0x6080018bfc80"><path d="M 677.9 343.8 L 712.7 343.8 L 712.7 360.2 L 677.9 360.2 Z M 677.9 343.8 "></path></clipPath><g clip-path="url(#clip0x6080018bfc80)"><path d="M 0.1 6.6 L 6.5 6.6 L 8.8 0.0 L 10.5 12.8 L 14.0 0.2 L 17.0 12.7 L 19.3 0.1 C 19.9 2.3 20.5 4.5 21.1 6.6 C 21.7 8.7 22.3 10.8 23.0 12.8 L 26.2 5.6 L 33.1 5.6 " fill="none" stroke="#000000" stroke-width="1.00" transform="matrix(1.00, 0.00, 0.00, -1.00, 678.9, 359.1)"></path></g></g><g><clipPath id="clip0x6080018bfec0"><path d="M 728.9 343.8 L 763.7 343.8 L 763.7 360.2 L 728.9 360.2 Z M 728.9 343.8 "></path></clipPath><g clip-path="url(#clip0x6080018bfec0)"><path d="M 0.1 6.6 L 6.5 6.6 L 8.8 0.0 L 10.5 12.8 L 14.0 0.2 L 17.0 12.7 L 19.3 0.1 C 19.9 2.3 20.5 4.5 21.1 6.6 C 21.7 8.7 22.3 10.8 23.0 12.8 L 26.2 5.6 L 33.1 5.6 " fill="none" stroke="#000000" stroke-width="1.00" transform="matrix(1.00, 0.00, 0.00, -1.00, 729.9, 359.1)"></path></g></g><g><clipPath id="clip0x608001aa0120"><path d="M 779.9 343.8 L 814.7 343.8 L 814.7 360.2 L 779.9 360.2 Z M 779.9 343.8 "></path></clipPath><g clip-path="url(#clip0x608001aa0120)"><path d="M 0.1 6.6 L 6.5 6.6 L 8.8 0.0 L 10.5 12.8 L 14.0 0.2 L 17.0 12.7 L 19.3 0.1 C 19.9 2.3 20.5 4.5 21.1 6.6 C 21.7 8.7 22.3 10.8 23.0 12.8 L 26.2 5.6 L 33.1 5.6 " fill="none" stroke="#000000" stroke-width="1.00" transform="matrix(1.00, 0.00, 0.00, -1.00, 780.9, 359.1)"></path></g></g><g><clipPath id="clip0x608001aa0360"><path d="M 250.6 341.1 L 273.8 341.1 L 273.8 364.2 L 250.6 364.2 Z M 250.6 341.1 "></path></clipPath><g clip-path="url(#clip0x608001aa0360)"><path d="M 269.7 360.1 C 273.8 356.0 273.8 349.3 269.7 345.2 C 265.6 341.0 258.9 341.0 254.7 345.2 C 250.6 349.3 250.6 356.0 254.7 360.1 C 258.9 364.3 265.6 364.3 269.7 360.1 Z M 269.7 360.1 " fill="#C82505"></path></g></g><g><clipPath id="clip0x608001aa05a0"><path d="M 245.5 368.6 L 278.9 368.6 L 278.9 380.1 L 245.5 380.1 Z M 245.5 368.6 "></path></clipPath><g clip-path="url(#clip0x608001aa05a0)"><path d="M 0.0 8.8 C 8.8 -2.4 19.0 -2.9 30.6 7.2 " fill="none" stroke="#000000" stroke-width="1.00" transform="matrix(1.00, 0.00, 0.00, -1.00, 246.9, 378.6)"></path></g></g><g><clipPath id="clip0x608001aa07e0"><path d="M 245.5 378.6 L 278.9 378.6 L 278.9 390.1 L 245.5 390.1 Z M 245.5 378.6 "></path></clipPath><g clip-path="url(#clip0x608001aa07e0)"><path d="M 0.0 8.8 C 8.8 -2.4 19.0 -2.9 30.6 7.2 " fill="none" stroke="#000000" stroke-width="1.00" transform="matrix(1.00, 0.00, 0.00, -1.00, 246.9, 388.6)"></path></g></g><g><clipPath id="clip0x608001aa0a20"><path d="M 278.9 324.4 L 245.6 324.4 L 245.6 335.9 L 278.9 335.9 Z M 278.9 324.4 "></path></clipPath><g clip-path="url(#clip0x608001aa0a20)"><path d="M 0.0 8.8 C 8.8 -2.4 19.0 -2.9 30.6 7.2 " fill="none" stroke="#000000" stroke-width="1.00" transform="matrix(-1.00, 0.00, 0.00, 1.00, 277.5, 325.9)"></path></g></g><g><clipPath id="clip0x608001aa0c60"><path d="M 278.9 314.4 L 245.6 314.4 L 245.6 325.9 L 278.9 325.9 Z M 278.9 314.4 "></path></clipPath><g clip-path="url(#clip0x608001aa0c60)"><path d="M 0.0 8.8 C 8.8 -2.4 19.0 -2.9 30.6 7.2 " fill="none" stroke="#000000" stroke-width="1.00" transform="matrix(-1.00, 0.00, 0.00, 1.00, 277.5, 315.9)"></path></g></g><g><clipPath id="clip0x608001aa0ea0"><path d="M 301.6 341.1 L 324.7 341.1 L 324.7 364.2 L 301.6 364.2 Z M 301.6 341.1 "></path></clipPath><g clip-path="url(#clip0x608001aa0ea0)"><path d="M 320.6 360.1 C 324.8 356.0 324.8 349.3 320.6 345.2 C 316.5 341.0 309.8 341.0 305.7 345.2 C 301.5 349.3 301.5 356.0 305.7 360.1 C 309.8 364.3 316.5 364.3 320.6 360.1 Z M 320.6 360.1 " fill="#C82505"></path></g></g><g><clipPath id="clip0x608001aa10e0"><path d="M 296.5 368.6 L 329.8 368.6 L 329.8 380.2 L 296.5 380.2 Z M 296.5 368.6 "></path></clipPath><g clip-path="url(#clip0x608001aa10e0)"><path d="M 0.0 8.8 C 8.8 -2.4 19.0 -2.9 30.6 7.2 " fill="none" stroke="#000000" stroke-width="1.00" transform="matrix(1.00, 0.00, 0.00, -1.00, 297.8, 378.7)"></path></g></g><g><clipPath id="clip0x608001aa1320"><path d="M 296.5 378.6 L 329.8 378.6 L 329.8 390.2 L 296.5 390.2 Z M 296.5 378.6 "></path></clipPath><g clip-path="url(#clip0x608001aa1320)"><path d="M 0.0 8.8 C 8.8 -2.4 19.0 -2.9 30.6 7.2 " fill="none" stroke="#000000" stroke-width="1.00" transform="matrix(1.00, 0.00, 0.00, -1.00, 297.8, 388.7)"></path></g></g><g><clipPath id="clip0x608001aa1560"><path d="M 329.8 324.4 L 296.5 324.4 L 296.5 336.0 L 329.8 336.0 Z M 329.8 324.4 "></path></clipPath><g clip-path="url(#clip0x608001aa1560)"><path d="M 0.0 8.8 C 8.8 -2.4 19.0 -2.9 30.6 7.2 " fill="none" stroke="#000000" stroke-width="1.00" transform="matrix(-1.00, 0.00, 0.00, 1.00, 328.4, 325.9)"></path></g></g><g><clipPath id="clip0x608001aa17a0"><path d="M 329.8 314.4 L 296.5 314.4 L 296.5 326.0 L 329.8 326.0 Z M 329.8 314.4 "></path></clipPath><g clip-path="url(#clip0x608001aa17a0)"><path d="M 0.0 8.8 C 8.8 -2.4 19.0 -2.9 30.6 7.2 " fill="none" stroke="#000000" stroke-width="1.00" transform="matrix(-1.00, 0.00, 0.00, 1.00, 328.4, 315.9)"></path></g></g><g><clipPath id="clip0x608001aa19e0"><path d="M 352.5 341.1 L 375.6 341.1 L 375.6 364.2 L 352.5 364.2 Z M 352.5 341.1 "></path></clipPath><g clip-path="url(#clip0x608001aa19e0)"><path d="M 371.5 360.1 C 375.7 356.0 375.7 349.3 371.5 345.2 C 367.4 341.0 360.7 341.0 356.6 345.2 C 352.4 349.3 352.4 356.0 356.6 360.1 C 360.7 364.3 367.4 364.3 371.5 360.1 Z M 371.5 360.1 " fill="#C82505"></path></g></g><g><clipPath id="clip0x608001aa1c20"><path d="M 347.4 368.7 L 380.7 368.7 L 380.7 380.3 L 347.4 380.3 Z M 347.4 368.7 "></path></clipPath><g clip-path="url(#clip0x608001aa1c20)"><path d="M 0.0 8.8 C 8.8 -2.4 19.0 -2.9 30.6 7.2 " fill="none" stroke="#000000" stroke-width="1.00" transform="matrix(1.00, 0.00, 0.00, -1.00, 348.8, 378.8)"></path></g></g><g><clipPath id="clip0x608001aa1e60"><path d="M 347.4 378.7 L 380.7 378.7 L 380.7 390.3 L 347.4 390.3 Z M 347.4 378.7 "></path></clipPath><g clip-path="url(#clip0x608001aa1e60)"><path d="M 0.0 8.8 C 8.8 -2.4 19.0 -2.9 30.6 7.2 " fill="none" stroke="#000000" stroke-width="1.00" transform="matrix(1.00, 0.00, 0.00, -1.00, 348.8, 388.8)"></path></g></g><g><clipPath id="clip0x608001aa20a0"><path d="M 380.7 324.5 L 347.4 324.5 L 347.4 336.1 L 380.7 336.1 Z M 380.7 324.5 "></path></clipPath><g clip-path="url(#clip0x608001aa20a0)"><path d="M 0.0 8.8 C 8.8 -2.4 19.0 -2.9 30.6 7.2 " fill="none" stroke="#000000" stroke-width="1.00" transform="matrix(-1.00, 0.00, 0.00, 1.00, 379.3, 326.0)"></path></g></g><g><clipPath id="clip0x608001aa22e0"><path d="M 380.7 314.5 L 347.4 314.5 L 347.4 326.1 L 380.7 326.1 Z M 380.7 314.5 "></path></clipPath><g clip-path="url(#clip0x608001aa22e0)"><path d="M 0.0 8.8 C 8.8 -2.4 19.0 -2.9 30.6 7.2 " fill="none" stroke="#000000" stroke-width="1.00" transform="matrix(-1.00, 0.00, 0.00, 1.00, 379.3, 316.0)"></path></g></g><g><clipPath id="clip0x608001aa2520"><path d="M 403.4 341.1 L 426.5 341.1 L 426.5 364.2 L 403.4 364.2 Z M 403.4 341.1 "></path></clipPath><g clip-path="url(#clip0x608001aa2520)"><path d="M 422.4 360.1 C 426.6 356.0 426.6 349.3 422.4 345.2 C 418.3 341.0 411.6 341.0 407.5 345.2 C 403.3 349.3 403.3 356.0 407.5 360.1 C 411.6 364.3 418.3 364.3 422.4 360.1 Z M 422.4 360.1 " fill="#C82505"></path></g></g><g><clipPath id="clip0x608001aa2760"><path d="M 398.3 368.8 L 431.6 368.8 L 431.6 380.4 L 398.3 380.4 Z M 398.3 368.8 "></path></clipPath><g clip-path="url(#clip0x608001aa2760)"><path d="M 0.0 8.8 C 8.8 -2.4 19.0 -2.9 30.6 7.2 " fill="none" stroke="#000000" stroke-width="1.00" transform="matrix(1.00, 0.00, 0.00, -1.00, 399.7, 378.9)"></path></g></g><g><clipPath id="clip0x608001aa29a0"><path d="M 398.3 378.8 L 431.6 378.8 L 431.6 390.4 L 398.3 390.4 Z M 398.3 378.8 "></path></clipPath><g clip-path="url(#clip0x608001aa29a0)"><path d="M 0.0 8.8 C 8.8 -2.4 19.0 -2.9 30.6 7.2 " fill="none" stroke="#000000" stroke-width="1.00" transform="matrix(1.00, 0.00, 0.00, -1.00, 399.7, 388.9)"></path></g></g><g><clipPath id="clip0x608001aa2be0"><path d="M 431.6 324.6 L 398.3 324.6 L 398.3 336.2 L 431.6 336.2 Z M 431.6 324.6 "></path></clipPath><g clip-path="url(#clip0x608001aa2be0)"><path d="M 0.0 8.8 C 8.8 -2.4 19.0 -2.9 30.6 7.2 " fill="none" stroke="#000000" stroke-width="1.00" transform="matrix(-1.00, 0.00, 0.00, 1.00, 430.2, 326.1)"></path></g></g><g><clipPath id="clip0x608001aa2e20"><path d="M 431.6 314.6 L 398.3 314.6 L 398.3 326.2 L 431.6 326.2 Z M 431.6 314.6 "></path></clipPath><g clip-path="url(#clip0x608001aa2e20)"><path d="M 0.0 8.8 C 8.8 -2.4 19.0 -2.9 30.6 7.2 " fill="none" stroke="#000000" stroke-width="1.00" transform="matrix(-1.00, 0.00, 0.00, 1.00, 430.2, 316.1)"></path></g></g><g><clipPath id="clip0x608001aa3060"><path d="M 454.3 341.1 L 477.5 341.1 L 477.5 364.2 L 454.3 364.2 Z M 454.3 341.1 "></path></clipPath><g clip-path="url(#clip0x608001aa3060)"><path d="M 473.4 360.1 C 477.5 356.0 477.5 349.3 473.4 345.2 C 469.2 341.0 462.5 341.0 458.4 345.2 C 454.3 349.3 454.3 356.0 458.4 360.1 C 462.5 364.3 469.2 364.3 473.4 360.1 Z M 473.4 360.1 " fill="#C82505"></path></g></g><g><clipPath id="clip0x608001aa32a0"><path d="M 449.2 368.8 L 482.5 368.8 L 482.5 380.4 L 449.2 380.4 Z M 449.2 368.8 "></path></clipPath><g clip-path="url(#clip0x608001aa32a0)"><path d="M 0.0 8.8 C 8.8 -2.4 19.0 -2.9 30.6 7.2 " fill="none" stroke="#000000" stroke-width="1.00" transform="matrix(1.00, 0.00, 0.00, -1.00, 450.6, 378.9)"></path></g></g><g><clipPath id="clip0x608001aa34e0"><path d="M 449.2 378.8 L 482.5 378.8 L 482.5 390.4 L 449.2 390.4 Z M 449.2 378.8 "></path></clipPath><g clip-path="url(#clip0x608001aa34e0)"><path d="M 0.0 8.8 C 8.8 -2.4 19.0 -2.9 30.6 7.2 " fill="none" stroke="#000000" stroke-width="1.00" transform="matrix(1.00, 0.00, 0.00, -1.00, 450.6, 388.9)"></path></g></g><g><clipPath id="clip0x608001aa3720"><path d="M 482.6 324.7 L 449.2 324.7 L 449.2 336.2 L 482.6 336.2 Z M 482.6 324.7 "></path></clipPath><g clip-path="url(#clip0x608001aa3720)"><path d="M 0.0 8.8 C 8.8 -2.4 19.0 -2.9 30.6 7.2 " fill="none" stroke="#000000" stroke-width="1.00" transform="matrix(-1.00, 0.00, 0.00, 1.00, 481.2, 326.2)"></path></g></g><g><clipPath id="clip0x608001aa3960"><path d="M 482.6 314.7 L 449.2 314.7 L 449.2 326.2 L 482.6 326.2 Z M 482.6 314.7 "></path></clipPath><g clip-path="url(#clip0x608001aa3960)"><path d="M 0.0 8.8 C 8.8 -2.4 19.0 -2.9 30.6 7.2 " fill="none" stroke="#000000" stroke-width="1.00" transform="matrix(-1.00, 0.00, 0.00, 1.00, 481.2, 316.2)"></path></g></g><g><clipPath id="clip0x608001aa3ba0"><path d="M 505.2 341.1 L 528.4 341.1 L 528.4 364.2 L 505.2 364.2 Z M 505.2 341.1 "></path></clipPath><g clip-path="url(#clip0x608001aa3ba0)"><path d="M 524.3 360.1 C 528.4 356.0 528.4 349.3 524.3 345.2 C 520.1 341.0 513.4 341.0 509.3 345.2 C 505.2 349.3 505.2 356.0 509.3 360.1 C 513.4 364.3 520.1 364.3 524.3 360.1 Z M 524.3 360.1 " fill="#C82505"></path></g></g><g><clipPath id="clip0x608001aa3de0"><path d="M 500.1 368.9 L 533.4 368.9 L 533.4 380.5 L 500.1 380.5 Z M 500.1 368.9 "></path></clipPath><g clip-path="url(#clip0x608001aa3de0)"><path d="M 0.0 8.8 C 8.8 -2.4 19.0 -2.9 30.6 7.2 " fill="none" stroke="#000000" stroke-width="1.00" transform="matrix(1.00, 0.00, 0.00, -1.00, 501.5, 379.0)"></path></g></g><g><clipPath id="clip0x608001aa4020"><path d="M 500.1 378.9 L 533.4 378.9 L 533.4 390.5 L 500.1 390.5 Z M 500.1 378.9 "></path></clipPath><g clip-path="url(#clip0x608001aa4020)"><path d="M 0.0 8.8 C 8.8 -2.4 19.0 -2.9 30.6 7.2 " fill="none" stroke="#000000" stroke-width="1.00" transform="matrix(1.00, 0.00, 0.00, -1.00, 501.5, 389.0)"></path></g></g><g><clipPath id="clip0x608001aa4260"><path d="M 533.5 324.7 L 500.2 324.7 L 500.2 336.3 L 533.5 336.3 Z M 533.5 324.7 "></path></clipPath><g clip-path="url(#clip0x608001aa4260)"><path d="M 0.0 8.8 C 8.8 -2.4 19.0 -2.9 30.6 7.2 " fill="none" stroke="#000000" stroke-width="1.00" transform="matrix(-1.00, 0.00, 0.00, 1.00, 532.1, 326.2)"></path></g></g><g><clipPath id="clip0x608001aa44a0"><path d="M 533.5 314.7 L 500.2 314.7 L 500.2 326.3 L 533.5 326.3 Z M 533.5 314.7 "></path></clipPath><g clip-path="url(#clip0x608001aa44a0)"><path d="M 0.0 8.8 C 8.8 -2.4 19.0 -2.9 30.6 7.2 " fill="none" stroke="#000000" stroke-width="1.00" transform="matrix(-1.00, 0.00, 0.00, 1.00, 532.1, 316.2)"></path></g></g><g><clipPath id="clip0x608001aa46e0"><path d="M 556.1 341.1 L 579.3 341.1 L 579.3 364.2 L 556.1 364.2 Z M 556.1 341.1 "></path></clipPath><g clip-path="url(#clip0x608001aa46e0)"><path d="M 575.2 360.1 C 579.3 356.0 579.3 349.3 575.2 345.2 C 571.0 341.0 564.3 341.0 560.2 345.2 C 556.1 349.3 556.1 356.0 560.2 360.1 C 564.3 364.3 571.0 364.3 575.2 360.1 Z M 575.2 360.1 " fill="#C82505"></path></g></g><g><clipPath id="clip0x608001aa4920"><path d="M 551.0 369.0 L 584.3 369.0 L 584.3 380.6 L 551.0 380.6 Z M 551.0 369.0 "></path></clipPath><g clip-path="url(#clip0x608001aa4920)"><path d="M 0.0 8.8 C 8.8 -2.4 19.0 -2.9 30.6 7.2 " fill="none" stroke="#000000" stroke-width="1.00" transform="matrix(1.00, 0.00, 0.00, -1.00, 552.4, 379.1)"></path></g></g><g><clipPath id="clip0x608001aa4b60"><path d="M 551.0 379.0 L 584.3 379.0 L 584.3 390.6 L 551.0 390.6 Z M 551.0 379.0 "></path></clipPath><g clip-path="url(#clip0x608001aa4b60)"><path d="M 0.0 8.8 C 8.8 -2.4 19.0 -2.9 30.6 7.2 " fill="none" stroke="#000000" stroke-width="1.00" transform="matrix(1.00, 0.00, 0.00, -1.00, 552.4, 389.1)"></path></g></g><g><clipPath id="clip0x608001aa4da0"><path d="M 584.4 324.8 L 551.1 324.8 L 551.1 336.4 L 584.4 336.4 Z M 584.4 324.8 "></path></clipPath><g clip-path="url(#clip0x608001aa4da0)"><path d="M 0.0 8.8 C 8.8 -2.4 19.0 -2.9 30.6 7.2 " fill="none" stroke="#000000" stroke-width="1.00" transform="matrix(-1.00, 0.00, 0.00, 1.00, 583.0, 326.3)"></path></g></g><g><clipPath id="clip0x608001aa4fe0"><path d="M 584.4 314.8 L 551.1 314.8 L 551.1 326.4 L 584.4 326.4 Z M 584.4 314.8 "></path></clipPath><g clip-path="url(#clip0x608001aa4fe0)"><path d="M 0.0 8.8 C 8.8 -2.4 19.0 -2.9 30.6 7.2 " fill="none" stroke="#000000" stroke-width="1.00" transform="matrix(-1.00, 0.00, 0.00, 1.00, 583.0, 316.3)"></path></g></g><g><clipPath id="clip0x608001aa5220"><path d="M 607.0 341.1 L 630.2 341.1 L 630.2 364.2 L 607.0 364.2 Z M 607.0 341.1 "></path></clipPath><g clip-path="url(#clip0x608001aa5220)"><path d="M 626.1 360.1 C 630.2 356.0 630.2 349.3 626.1 345.2 C 621.9 341.0 615.2 341.0 611.1 345.2 C 607.0 349.3 607.0 356.0 611.1 360.1 C 615.2 364.3 621.9 364.3 626.1 360.1 Z M 626.1 360.1 " fill="#C82505"></path></g></g><g><clipPath id="clip0x608001aa5460"><path d="M 601.9 369.1 L 635.2 369.1 L 635.2 380.6 L 601.9 380.6 Z M 601.9 369.1 "></path></clipPath><g clip-path="url(#clip0x608001aa5460)"><path d="M 0.0 8.8 C 8.8 -2.4 19.0 -2.9 30.6 7.2 " fill="none" stroke="#000000" stroke-width="1.00" transform="matrix(1.00, 0.00, 0.00, -1.00, 603.3, 379.2)"></path></g></g><g><clipPath id="clip0x608001aa56a0"><path d="M 601.9 379.1 L 635.2 379.1 L 635.2 390.6 L 601.9 390.6 Z M 601.9 379.1 "></path></clipPath><g clip-path="url(#clip0x608001aa56a0)"><path d="M 0.0 8.8 C 8.8 -2.4 19.0 -2.9 30.6 7.2 " fill="none" stroke="#000000" stroke-width="1.00" transform="matrix(1.00, 0.00, 0.00, -1.00, 603.3, 389.2)"></path></g></g><g><clipPath id="clip0x608001aa58e0"><path d="M 635.3 324.9 L 602.0 324.9 L 602.0 336.5 L 635.3 336.5 Z M 635.3 324.9 "></path></clipPath><g clip-path="url(#clip0x608001aa58e0)"><path d="M 0.0 8.8 C 8.8 -2.4 19.0 -2.9 30.6 7.2 " fill="none" stroke="#000000" stroke-width="1.00" transform="matrix(-1.00, 0.00, 0.00, 1.00, 633.9, 326.4)"></path></g></g><g><clipPath id="clip0x608001aa5b20"><path d="M 635.3 314.9 L 602.0 314.9 L 602.0 326.5 L 635.3 326.5 Z M 635.3 314.9 "></path></clipPath><g clip-path="url(#clip0x608001aa5b20)"><path d="M 0.0 8.8 C 8.8 -2.4 19.0 -2.9 30.6 7.2 " fill="none" stroke="#000000" stroke-width="1.00" transform="matrix(-1.00, 0.00, 0.00, 1.00, 633.9, 316.4)"></path></g></g><g><clipPath id="clip0x608001aa5d60"><path d="M 657.9 341.1 L 681.1 341.1 L 681.1 364.2 L 657.9 364.2 Z M 657.9 341.1 "></path></clipPath><g clip-path="url(#clip0x608001aa5d60)"><path d="M 677.0 360.1 C 681.1 356.0 681.1 349.3 677.0 345.2 C 672.9 341.0 666.2 341.0 662.0 345.2 C 657.9 349.3 657.9 356.0 662.0 360.1 C 666.2 364.3 672.9 364.3 677.0 360.1 Z M 677.0 360.1 " fill="#C82505"></path></g></g><g><clipPath id="clip0x608001aa5fa0"><path d="M 652.8 369.1 L 686.1 369.1 L 686.1 380.7 L 652.8 380.7 Z M 652.8 369.1 "></path></clipPath><g clip-path="url(#clip0x608001aa5fa0)"><path d="M 0.0 8.8 C 8.8 -2.4 19.0 -2.9 30.6 7.2 " fill="none" stroke="#000000" stroke-width="1.00" transform="matrix(1.00, 0.00, 0.00, -1.00, 654.2, 379.2)"></path></g></g><g><clipPath id="clip0x608001aa61e0"><path d="M 652.8 379.1 L 686.1 379.1 L 686.1 390.7 L 652.8 390.7 Z M 652.8 379.1 "></path></clipPath><g clip-path="url(#clip0x608001aa61e0)"><path d="M 0.0 8.8 C 8.8 -2.4 19.0 -2.9 30.6 7.2 " fill="none" stroke="#000000" stroke-width="1.00" transform="matrix(1.00, 0.00, 0.00, -1.00, 654.2, 389.2)"></path></g></g><g><clipPath id="clip0x608001aa6420"><path d="M 686.2 324.9 L 652.9 324.9 L 652.9 336.5 L 686.2 336.5 Z M 686.2 324.9 "></path></clipPath><g clip-path="url(#clip0x608001aa6420)"><path d="M 0.0 8.8 C 8.8 -2.4 19.0 -2.9 30.6 7.2 " fill="none" stroke="#000000" stroke-width="1.00" transform="matrix(-1.00, 0.00, 0.00, 1.00, 684.8, 326.4)"></path></g></g><g><clipPath id="clip0x608001aa6660"><path d="M 686.2 314.9 L 652.9 314.9 L 652.9 326.5 L 686.2 326.5 Z M 686.2 314.9 "></path></clipPath><g clip-path="url(#clip0x608001aa6660)"><path d="M 0.0 8.8 C 8.8 -2.4 19.0 -2.9 30.6 7.2 " fill="none" stroke="#000000" stroke-width="1.00" transform="matrix(-1.00, 0.00, 0.00, 1.00, 684.8, 316.4)"></path></g></g><g><clipPath id="clip0x608001aa68a0"><path d="M 708.8 341.1 L 732.0 341.1 L 732.0 364.2 L 708.8 364.2 Z M 708.8 341.1 "></path></clipPath><g clip-path="url(#clip0x608001aa68a0)"><path d="M 727.9 360.1 C 732.0 356.0 732.0 349.3 727.9 345.2 C 723.8 341.0 717.1 341.0 712.9 345.2 C 708.8 349.3 708.8 356.0 712.9 360.1 C 717.1 364.3 723.8 364.3 727.9 360.1 Z M 727.9 360.1 " fill="#C82505"></path></g></g><g><clipPath id="clip0x608001aa6ae0"><path d="M 703.7 369.2 L 737.0 369.2 L 737.0 380.8 L 703.7 380.8 Z M 703.7 369.2 "></path></clipPath><g clip-path="url(#clip0x608001aa6ae0)"><path d="M 0.0 8.8 C 8.8 -2.4 19.0 -2.9 30.6 7.2 " fill="none" stroke="#000000" stroke-width="1.00" transform="matrix(1.00, 0.00, 0.00, -1.00, 705.1, 379.3)"></path></g></g><g><clipPath id="clip0x608001aa6d20"><path d="M 703.7 379.2 L 737.0 379.2 L 737.0 390.8 L 703.7 390.8 Z M 703.7 379.2 "></path></clipPath><g clip-path="url(#clip0x608001aa6d20)"><path d="M 0.0 8.8 C 8.8 -2.4 19.0 -2.9 30.6 7.2 " fill="none" stroke="#000000" stroke-width="1.00" transform="matrix(1.00, 0.00, 0.00, -1.00, 705.1, 389.3)"></path></g></g><g><clipPath id="clip0x608001aa6f60"><path d="M 737.1 325.0 L 703.8 325.0 L 703.8 336.6 L 737.1 336.6 Z M 737.1 325.0 "></path></clipPath><g clip-path="url(#clip0x608001aa6f60)"><path d="M 0.0 8.8 C 8.8 -2.4 19.0 -2.9 30.6 7.2 " fill="none" stroke="#000000" stroke-width="1.00" transform="matrix(-1.00, 0.00, 0.00, 1.00, 735.7, 326.5)"></path></g></g><g><clipPath id="clip0x608001aa71a0"><path d="M 737.1 315.0 L 703.8 315.0 L 703.8 326.6 L 737.1 326.6 Z M 737.1 315.0 "></path></clipPath><g clip-path="url(#clip0x608001aa71a0)"><path d="M 0.0 8.8 C 8.8 -2.4 19.0 -2.9 30.6 7.2 " fill="none" stroke="#000000" stroke-width="1.00" transform="matrix(-1.00, 0.00, 0.00, 1.00, 735.7, 316.5)"></path></g></g><g><clipPath id="clip0x608001aa73e0"><path d="M 759.7 341.1 L 782.9 341.1 L 782.9 364.2 L 759.7 364.2 Z M 759.7 341.1 "></path></clipPath><g clip-path="url(#clip0x608001aa73e0)"><path d="M 778.8 360.1 C 782.9 356.0 782.9 349.3 778.8 345.2 C 774.7 341.0 768.0 341.0 763.8 345.2 C 759.7 349.3 759.7 356.0 763.8 360.1 C 768.0 364.3 774.7 364.3 778.8 360.1 Z M 778.8 360.1 " fill="#C82505"></path></g></g><g><clipPath id="clip0x608001aa7620"><path d="M 754.6 369.3 L 787.9 369.3 L 787.9 380.9 L 754.6 380.9 Z M 754.6 369.3 "></path></clipPath><g clip-path="url(#clip0x608001aa7620)"><path d="M 0.0 8.8 C 8.8 -2.4 19.0 -2.9 30.6 7.2 " fill="none" stroke="#000000" stroke-width="1.00" transform="matrix(1.00, 0.00, 0.00, -1.00, 756.0, 379.4)"></path></g></g><g><clipPath id="clip0x608001aa7860"><path d="M 754.6 379.3 L 787.9 379.3 L 787.9 390.9 L 754.6 390.9 Z M 754.6 379.3 "></path></clipPath><g clip-path="url(#clip0x608001aa7860)"><path d="M 0.0 8.8 C 8.8 -2.4 19.0 -2.9 30.6 7.2 " fill="none" stroke="#000000" stroke-width="1.00" transform="matrix(1.00, 0.00, 0.00, -1.00, 756.0, 389.4)"></path></g></g><g><clipPath id="clip0x608001aa7aa0"><path d="M 788.0 325.1 L 754.7 325.1 L 754.7 336.7 L 788.0 336.7 Z M 788.0 325.1 "></path></clipPath><g clip-path="url(#clip0x608001aa7aa0)"><path d="M 0.0 8.8 C 8.8 -2.4 19.0 -2.9 30.6 7.2 " fill="none" stroke="#000000" stroke-width="1.00" transform="matrix(-1.00, 0.00, 0.00, 1.00, 786.6, 326.6)"></path></g></g><g><clipPath id="clip0x608001aa7ce0"><path d="M 788.0 315.1 L 754.7 315.1 L 754.7 326.7 L 788.0 326.7 Z M 788.0 315.1 "></path></clipPath><g clip-path="url(#clip0x608001aa7ce0)"><path d="M 0.0 8.8 C 8.8 -2.4 19.0 -2.9 30.6 7.2 " fill="none" stroke="#000000" stroke-width="1.00" transform="matrix(-1.00, 0.00, 0.00, 1.00, 786.6, 316.6)"></path></g></g><g><clipPath id="clip0x608001aa7f20"><path d="M 810.6 341.1 L 833.8 341.1 L 833.8 364.2 L 810.6 364.2 Z M 810.6 341.1 "></path></clipPath><g clip-path="url(#clip0x608001aa7f20)"><path d="M 829.7 360.1 C 833.8 356.0 833.8 349.3 829.7 345.2 C 825.6 341.0 818.9 341.0 814.7 345.2 C 810.6 349.3 810.6 356.0 814.7 360.1 C 818.9 364.3 825.6 364.3 829.7 360.1 Z M 829.7 360.1 " fill="#C82505"></path></g></g><g><clipPath id="clip0x608001aa8160"><path d="M 805.5 369.4 L 838.9 369.4 L 838.9 380.9 L 805.5 380.9 Z M 805.5 369.4 "></path></clipPath><g clip-path="url(#clip0x608001aa8160)"><path d="M 0.0 8.8 C 8.8 -2.4 19.0 -2.9 30.6 7.2 " fill="none" stroke="#000000" stroke-width="1.00" transform="matrix(1.00, 0.00, 0.00, -1.00, 806.9, 379.4)"></path></g></g><g><clipPath id="clip0x608001aa83a0"><path d="M 805.5 379.4 L 838.9 379.4 L 838.9 390.9 L 805.5 390.9 Z M 805.5 379.4 "></path></clipPath><g clip-path="url(#clip0x608001aa83a0)"><path d="M 0.0 8.8 C 8.8 -2.4 19.0 -2.9 30.6 7.2 " fill="none" stroke="#000000" stroke-width="1.00" transform="matrix(1.00, 0.00, 0.00, -1.00, 806.9, 389.4)"></path></g></g><g><clipPath id="clip0x608001aa85e0"><path d="M 838.9 325.2 L 805.6 325.2 L 805.6 336.8 L 838.9 336.8 Z M 838.9 325.2 "></path></clipPath><g clip-path="url(#clip0x608001aa85e0)"><path d="M 0.0 8.8 C 8.8 -2.4 19.0 -2.9 30.6 7.2 " fill="none" stroke="#000000" stroke-width="1.00" transform="matrix(-1.00, 0.00, 0.00, 1.00, 837.5, 326.7)"></path></g></g><g><clipPath id="clip0x608001aa8820"><path d="M 838.9 315.2 L 805.6 315.2 L 805.6 326.8 L 838.9 326.8 Z M 838.9 315.2 "></path></clipPath><g clip-path="url(#clip0x608001aa8820)"><path d="M 0.0 8.8 C 8.8 -2.4 19.0 -2.9 30.6 7.2 " fill="none" stroke="#000000" stroke-width="1.00" transform="matrix(-1.00, 0.00, 0.00, 1.00, 837.5, 316.7)"></path></g></g><g><clipPath id="clip0x608001aa8a60"><path d="M 246.1 182.0 C 233.5 185.0 223.4 193.5 218.9 204.4 C 215.2 213.3 215.6 223.2 220.0 232.0 C 221.7 227.0 223.7 222.1 225.9 217.3 C 229.2 210.4 233.0 203.7 237.3 197.3 C 231.4 209.1 228.3 221.9 228.3 234.8 C 228.3 238.0 228.5 241.3 228.9 244.6 L 238.8 228.3 C 234.5 237.5 233.7 247.7 236.7 257.3 C 237.9 261.2 239.6 264.9 242.0 268.3 C 245.2 264.0 247.9 259.4 250.2 254.6 C 253.8 247.1 256.2 239.2 257.2 231.1 C 262.3 236.6 265.7 243.1 267.1 250.0 C 267.7 253.1 267.9 256.4 267.7 259.6 C 279.5 253.6 286.1 242.1 284.7 230.2 C 284.1 225.8 282.4 221.6 279.7 217.9 L 289.7 228.4 C 289.5 220.7 288.0 213.0 285.5 205.6 C 282.6 197.4 278.4 189.2 273.0 182.0 L 246.1 182.0 Z M 246.1 181.6 "></path></clipPath><g clip-path="url(#clip0x608001aa8a60)"><path d="M 246.1 182.0 C 233.5 185.0 223.4 193.5 218.9 204.4 C 215.2 213.3 215.6 223.2 220.0 232.0 C 221.7 227.0 223.7 222.1 225.9 217.3 C 229.2 210.4 233.0 203.7 237.3 197.3 C 231.4 209.1 228.3 221.9 228.3 234.8 C 228.3 238.0 228.5 241.3 228.9 244.6 L 238.8 228.3 C 234.5 237.5 233.7 247.7 236.7 257.3 C 237.9 261.2 239.6 264.9 242.0 268.3 C 245.2 264.0 247.9 259.4 250.2 254.6 C 253.8 247.1 256.2 239.2 257.2 231.1 C 262.3 236.6 265.7 243.1 267.1 250.0 C 267.7 253.1 267.9 256.4 267.7 259.6 C 279.5 253.6 286.1 242.1 284.7 230.2 C 284.1 225.8 282.4 221.6 279.7 217.9 L 289.7 228.4 C 289.5 220.7 288.0 213.0 285.5 205.6 C 282.6 197.4 278.4 189.2 273.0 182.0 L 246.1 182.0 Z M 246.1 181.6 " fill="url(#gradSh1.1)"></path></g></g></g></svg>