<?xml version="1.0" encoding="UTF-8" standalone="no"?><svg xmlns="http://www.w3.org/2000/svg" xmlns:xlink="http://www.w3.org/1999/xlink" clip-rule="evenodd" stroke-miterlimit="10" viewBox="0 0 34 76"><desc>SVG generated by Keynote</desc><defs></defs><g transform="matrix(1.00, 0.00, -0.00, -1.00, 0.0, 76.0)"><g><clipPath id="clip0x6000014a5160"><path d="M 5.6 26.1 L 28.8 26.1 L 28.8 49.2 L 5.6 49.2 Z M 5.6 26.1 "></path></clipPath><g clip-path="url(#clip0x6000014a5160)"><path d="M 24.7 45.1 C 28.8 41.0 28.8 34.3 24.7 30.2 C 20.6 26.0 13.9 26.0 9.7 30.2 C 5.6 34.3 5.6 41.0 9.7 45.1 C 13.9 49.3 20.6 49.3 24.7 45.1 Z M 24.7 45.1 " fill="#C82505"></path></g></g><g><clipPath id="clip0x6000014a5340"><path d="M 0.5 54.4 L 33.9 54.4 L 33.9 65.9 L 0.5 65.9 Z M 0.5 54.4 "></path></clipPath><g clip-path="url(#clip0x6000014a5340)"><path d="M 0.0 8.8 C 8.8 -2.4 19.0 -2.9 30.6 7.2 " fill="none" stroke="#000000" stroke-width="1.00" transform="matrix(1.00, 0.00, 0.00, -1.00, 1.9, 64.4)"></path></g></g><g><clipPath id="clip0x6000014a5580"><path d="M 0.5 64.4 L 33.9 64.4 L 33.9 75.9 L 0.5 75.9 Z M 0.5 64.4 "></path></clipPath><g clip-path="url(#clip0x6000014a5580)"><path d="M 0.0 8.8 C 8.8 -2.4 19.0 -2.9 30.6 7.2 " fill="none" stroke="#000000" stroke-width="1.00" transform="matrix(1.00, 0.00, 0.00, -1.00, 1.9, 74.4)"></path></g></g><g><clipPath id="clip0x6000014a57c0"><path d="M 33.9 10.2 L 0.6 10.2 L 0.6 21.8 L 33.9 21.8 Z M 33.9 10.2 "></path></clipPath><g clip-path="url(#clip0x6000014a57c0)"><path d="M 0.0 8.8 C 8.8 -2.4 19.0 -2.9 30.6 7.2 " fill="none" stroke="#000000" stroke-width="1.00" transform="matrix(-1.00, 0.00, 0.00, 1.00, 32.5, 11.7)"></path></g></g><g><clipPath id="clip0x6000014a5a00"><path d="M 33.9 0.2 L 0.6 0.2 L 0.6 11.8 L 33.9 11.8 Z M 33.9 0.2 "></path></clipPath><g clip-path="url(#clip0x6000014a5a00)"><path d="M 0.0 8.8 C 8.8 -2.4 19.0 -2.9 30.6 7.2 " fill="none" stroke="#000000" stroke-width="1.00" transform="matrix(-1.00, 0.00, 0.00, 1.00, 32.5, 1.7)"></path></g></g></g></svg>