<?xml version="1.0" encoding="UTF-8" standalone="no"?><svg xmlns="http://www.w3.org/2000/svg" xmlns:xlink="http://www.w3.org/1999/xlink" clip-rule="evenodd" stroke-miterlimit="10" viewBox="0 0 35 77"><desc>SVG generated by Keynote</desc><defs></defs><g transform="matrix(1.00, 0.00, -0.00, -1.00, 0.0, 77.0)"><g><clipPath id="clip0x6000012bf2c0"><path d="M 5.9 27.1 L 29.1 27.1 L 29.1 50.2 L 5.9 50.2 Z M 5.9 27.1 "></path></clipPath><g clip-path="url(#clip0x6000012bf2c0)"><path d="M 25.0 46.1 C 29.1 42.0 29.1 35.3 25.0 31.2 C 20.9 27.0 14.2 27.0 10.0 31.2 C 5.9 35.3 5.9 42.0 10.0 46.1 C 14.2 50.3 20.9 50.3 25.0 46.1 Z M 25.0 46.1 " fill="#C82505"></path></g></g><g><clipPath id="clip0x6000012bef60"><path d="M 0.8 55.1 L 34.1 55.1 L 34.1 66.7 L 0.8 66.7 Z M 0.8 55.1 "></path></clipPath><g clip-path="url(#clip0x6000012bef60)"><path d="M 0.0 8.8 C 8.8 -2.4 19.0 -2.9 30.6 7.2 " fill="none" stroke="#000000" stroke-width="1.00" transform="matrix(1.00, 0.00, 0.00, -1.00, 2.2, 65.2)"></path></g></g><g><clipPath id="clip0x6000012bed20"><path d="M 0.8 65.1 L 34.1 65.1 L 34.1 76.7 L 0.8 76.7 Z M 0.8 65.1 "></path></clipPath><g clip-path="url(#clip0x6000012bed20)"><path d="M 0.0 8.8 C 8.8 -2.4 19.0 -2.9 30.6 7.2 " fill="none" stroke="#000000" stroke-width="1.00" transform="matrix(1.00, 0.00, 0.00, -1.00, 2.2, 75.2)"></path></g></g><g><clipPath id="clip0x6000012beae0"><path d="M 34.2 10.9 L 0.9 10.9 L 0.9 22.5 L 34.2 22.5 Z M 34.2 10.9 "></path></clipPath><g clip-path="url(#clip0x6000012beae0)"><path d="M 0.0 8.8 C 8.8 -2.4 19.0 -2.9 30.6 7.2 " fill="none" stroke="#000000" stroke-width="1.00" transform="matrix(-1.00, 0.00, 0.00, 1.00, 32.8, 12.4)"></path></g></g><g><clipPath id="clip0x6000014a37e0"><path d="M 34.2 0.9 L 0.9 0.9 L 0.9 12.5 L 34.2 12.5 Z M 34.2 0.9 "></path></clipPath><g clip-path="url(#clip0x6000014a37e0)"><path d="M 0.0 8.8 C 8.8 -2.4 19.0 -2.9 30.6 7.2 " fill="none" stroke="#000000" stroke-width="1.00" transform="matrix(-1.00, 0.00, 0.00, 1.00, 32.8, 2.4)"></path></g></g></g></svg>