<?xml version="1.0" encoding="UTF-8" standalone="no"?><svg xmlns="http://www.w3.org/2000/svg" xmlns:xlink="http://www.w3.org/1999/xlink" clip-rule="evenodd" stroke-miterlimit="10" viewBox="0 0 581 22"><desc>SVG generated by Keynote</desc><defs></defs><g transform="matrix(1.00, 0.00, -0.00, -1.00, 0.0, 22.0)"><g><clipPath id="clip0x6080012a54c0"><path d="M 203.7 0.1 L 224.9 0.1 L 224.9 21.2 L 203.7 21.2 Z M 203.7 0.1 "></path></clipPath><g clip-path="url(#clip0x6080012a54c0)"><path d="M 221.1 17.4 C 224.8 13.7 224.8 7.6 221.1 3.9 C 217.3 0.1 211.2 0.1 207.5 3.9 C 203.8 7.6 203.8 13.7 207.5 17.4 C 211.2 21.2 217.3 21.2 221.1 17.4 Z M 221.1 17.4 " fill="#0264C0"></path></g></g><g><clipPath id="clip0x6080010bb240"><path d="M 102.2 0.1 L 123.3 0.1 L 123.3 21.2 L 102.2 21.2 Z M 102.2 0.1 "></path></clipPath><g clip-path="url(#clip0x6080010bb240)"><path d="M 119.5 17.4 C 123.3 13.7 123.3 7.6 119.5 3.9 C 115.8 0.1 109.7 0.1 106.0 3.9 C 102.2 7.6 102.2 13.7 106.0 17.4 C 109.7 21.2 115.8 21.2 119.5 17.4 Z M 119.5 17.4 " fill="#0264C0"></path></g></g><g><clipPath id="clip0x6080010a4ec0"><path d="M 254.5 0.1 L 275.6 0.1 L 275.6 21.2 L 254.5 21.2 Z M 254.5 0.1 "></path></clipPath><g clip-path="url(#clip0x6080010a4ec0)"><path d="M 271.8 17.4 C 275.6 13.7 275.6 7.6 271.8 3.9 C 268.1 0.1 262.0 0.1 258.3 3.9 C 254.5 7.6 254.5 13.7 258.3 17.4 C 262.0 21.2 268.1 21.2 271.8 17.4 Z M 271.8 17.4 " fill="#0264C0"></path></g></g><g><clipPath id="clip0x6080012a3e40"><path d="M 152.9 0.1 L 174.1 0.1 L 174.1 21.2 L 152.9 21.2 Z M 152.9 0.1 "></path></clipPath><g clip-path="url(#clip0x6080012a3e40)"><path d="M 170.3 17.4 C 174.0 13.7 174.0 7.6 170.3 3.9 C 166.5 0.1 160.5 0.1 156.7 3.9 C 153.0 7.6 153.0 13.7 156.7 17.4 C 160.5 21.2 166.5 21.2 170.3 17.4 Z M 170.3 17.4 " fill="#0264C0"></path></g></g><g><clipPath id="clip0x6080010b5f60"><path d="M 0.6 0.1 L 21.8 0.1 L 21.8 21.2 L 0.6 21.2 Z M 0.6 0.1 "></path></clipPath><g clip-path="url(#clip0x6080010b5f60)"><path d="M 18.0 17.4 C 21.8 13.7 21.8 7.6 18.0 3.9 C 14.3 0.1 8.2 0.1 4.5 3.9 C 0.7 7.6 0.7 13.7 4.5 17.4 C 8.2 21.2 14.3 21.2 18.0 17.4 Z M 18.0 17.4 " fill="#0264C0"></path></g></g><g><clipPath id="clip0x6080012a6180"><path d="M 51.4 0.1 L 72.6 0.1 L 72.6 21.2 L 51.4 21.2 Z M 51.4 0.1 "></path></clipPath><g clip-path="url(#clip0x6080012a6180)"><path d="M 68.8 17.4 C 72.5 13.7 72.5 7.6 68.8 3.9 C 65.0 0.1 59.0 0.1 55.2 3.9 C 51.5 7.6 51.5 13.7 55.2 17.4 C 59.0 21.2 65.0 21.2 68.8 17.4 Z M 68.8 17.4 " fill="#0264C0"></path></g></g><g><clipPath id="clip0x6080010a0de0"><path d="M 508.3 0.1 L 529.4 0.1 L 529.4 21.2 L 508.3 21.2 Z M 508.3 0.1 "></path></clipPath><g clip-path="url(#clip0x6080010a0de0)"><path d="M 525.6 17.4 C 529.4 13.7 529.4 7.6 525.6 3.9 C 521.9 0.1 515.8 0.1 512.1 3.9 C 508.3 7.6 508.3 13.7 512.1 17.4 C 515.8 21.2 521.9 21.2 525.6 17.4 Z M 525.6 17.4 " fill="#0264C0"></path></g></g><g><clipPath id="clip0x6080010a3cc0"><path d="M 406.7 0.1 L 427.9 0.1 L 427.9 21.2 L 406.7 21.2 Z M 406.7 0.1 "></path></clipPath><g clip-path="url(#clip0x6080010a3cc0)"><path d="M 424.1 17.4 C 427.8 13.7 427.8 7.6 424.1 3.9 C 420.4 0.1 414.3 0.1 410.5 3.9 C 406.8 7.6 406.8 13.7 410.5 17.4 C 414.3 21.2 420.4 21.2 424.1 17.4 Z M 424.1 17.4 " fill="#0264C0"></path></g></g><g><clipPath id="clip0x6080010b2f60"><path d="M 559.0 0.1 L 580.2 0.1 L 580.2 21.2 L 559.0 21.2 Z M 559.0 0.1 "></path></clipPath><g clip-path="url(#clip0x6080010b2f60)"><path d="M 576.4 17.4 C 580.1 13.7 580.1 7.6 576.4 3.9 C 572.6 0.1 566.6 0.1 562.8 3.9 C 559.1 7.6 559.1 13.7 562.8 17.4 C 566.6 21.2 572.6 21.2 576.4 17.4 Z M 576.4 17.4 " fill="#0264C0"></path></g></g><g><clipPath id="clip0x6080012a1aa0"><path d="M 457.5 0.1 L 478.7 0.1 L 478.7 21.2 L 457.5 21.2 Z M 457.5 0.1 "></path></clipPath><g clip-path="url(#clip0x6080012a1aa0)"><path d="M 474.9 17.4 C 478.6 13.7 478.6 7.6 474.9 3.9 C 471.1 0.1 465.0 0.1 461.3 3.9 C 457.6 7.6 457.6 13.7 461.3 17.4 C 465.0 21.2 471.1 21.2 474.9 17.4 Z M 474.9 17.4 " fill="#0264C0"></path></g></g><g><clipPath id="clip0x6080012a95a0"><path d="M 305.2 0.1 L 326.4 0.1 L 326.4 21.2 L 305.2 21.2 Z M 305.2 0.1 "></path></clipPath><g clip-path="url(#clip0x6080012a95a0)"><path d="M 322.6 17.4 C 326.3 13.7 326.3 7.6 322.6 3.9 C 318.8 0.1 312.8 0.1 309.0 3.9 C 305.3 7.6 305.3 13.7 309.0 17.4 C 312.8 21.2 318.8 21.2 322.6 17.4 Z M 322.6 17.4 " fill="#0264C0"></path></g></g><g><clipPath id="clip0x6080010b2660"><path d="M 356.0 0.1 L 377.1 0.1 L 377.1 21.2 L 356.0 21.2 Z M 356.0 0.1 "></path></clipPath><g clip-path="url(#clip0x6080010b2660)"><path d="M 373.3 17.4 C 377.1 13.7 377.1 7.6 373.3 3.9 C 369.6 0.1 363.5 0.1 359.8 3.9 C 356.0 7.6 356.0 13.7 359.8 17.4 C 363.5 21.2 369.6 21.2 373.3 17.4 Z M 373.3 17.4 " fill="#0264C0"></path></g></g><g><clipPath id="clip0x6080010a3540"><path d="M 18.0 1.8 L 52.8 1.8 L 52.8 18.2 L 18.0 18.2 Z M 18.0 1.8 "></path></clipPath><g clip-path="url(#clip0x6080010a3540)"><path d="M -0.0 6.6 L 6.5 6.6 L 8.8 0.0 L 10.5 12.8 L 14.0 0.2 L 17.0 12.7 L 19.3 0.1 C 19.9 2.3 20.5 4.5 21.1 6.6 C 21.7 8.7 22.3 10.8 23.0 12.8 L 26.2 5.6 L 33.0 5.6 " fill="none" stroke="#000000" stroke-width="1.00" transform="matrix(1.00, 0.00, 0.00, -1.00, 19.0, 17.1)"></path></g></g><g><clipPath id="clip0x6080010a33c0"><path d="M 69.0 1.8 L 103.8 1.8 L 103.8 18.2 L 69.0 18.2 Z M 69.0 1.8 "></path></clipPath><g clip-path="url(#clip0x6080010a33c0)"><path d="M -0.0 6.6 L 6.5 6.6 L 8.8 0.0 L 10.5 12.8 L 14.0 0.2 L 17.0 12.7 L 19.3 0.1 C 19.9 2.3 20.5 4.5 21.1 6.6 C 21.7 8.7 22.3 10.8 23.0 12.8 L 26.2 5.6 L 33.0 5.6 " fill="none" stroke="#000000" stroke-width="1.00" transform="matrix(1.00, 0.00, 0.00, -1.00, 70.0, 17.1)"></path></g></g><g><clipPath id="clip0x6080010a3000"><path d="M 120.0 1.8 L 154.8 1.8 L 154.8 18.2 L 120.0 18.2 Z M 120.0 1.8 "></path></clipPath><g clip-path="url(#clip0x6080010a3000)"><path d="M -0.0 6.6 L 6.5 6.6 L 8.8 0.0 L 10.5 12.8 L 14.0 0.2 L 17.0 12.7 L 19.3 0.1 C 19.9 2.3 20.5 4.5 21.1 6.6 C 21.7 8.7 22.3 10.8 23.0 12.8 L 26.2 5.6 L 33.0 5.6 " fill="none" stroke="#000000" stroke-width="1.00" transform="matrix(1.00, 0.00, 0.00, -1.00, 121.0, 17.1)"></path></g></g><g><clipPath id="clip0x6080012a9f60"><path d="M 171.0 1.8 L 205.8 1.8 L 205.8 18.2 L 171.0 18.2 Z M 171.0 1.8 "></path></clipPath><g clip-path="url(#clip0x6080012a9f60)"><path d="M -0.0 6.6 L 6.5 6.6 L 8.8 0.0 L 10.5 12.8 L 14.0 0.2 L 17.0 12.7 L 19.3 0.1 C 19.9 2.3 20.5 4.5 21.1 6.6 C 21.7 8.7 22.3 10.8 23.0 12.8 L 26.2 5.6 L 33.0 5.6 " fill="none" stroke="#000000" stroke-width="1.00" transform="matrix(1.00, 0.00, 0.00, -1.00, 172.0, 17.1)"></path></g></g><g><clipPath id="clip0x6080010a2d00"><path d="M 222.0 1.8 L 256.7 1.8 L 256.7 18.2 L 222.0 18.2 Z M 222.0 1.8 "></path></clipPath><g clip-path="url(#clip0x6080010a2d00)"><path d="M 0.0 6.6 L 6.5 6.6 L 8.8 0.0 L 10.5 12.8 L 14.0 0.2 L 17.0 12.7 L 19.3 0.1 C 19.9 2.3 20.5 4.5 21.1 6.6 C 21.7 8.7 22.3 10.8 23.0 12.8 L 26.2 5.6 L 33.0 5.6 " fill="none" stroke="#000000" stroke-width="1.00" transform="matrix(1.00, 0.00, 0.00, -1.00, 223.0, 17.1)"></path></g></g><g><clipPath id="clip0x6080010a2b80"><path d="M 273.0 1.8 L 307.7 1.8 L 307.7 18.2 L 273.0 18.2 Z M 273.0 1.8 "></path></clipPath><g clip-path="url(#clip0x6080010a2b80)"><path d="M 0.0 6.6 L 6.5 6.6 L 8.8 0.0 L 10.5 12.8 L 14.0 0.2 L 17.0 12.7 L 19.3 0.1 C 19.9 2.3 20.5 4.5 21.1 6.6 C 21.7 8.7 22.3 10.8 23.0 12.8 L 26.2 5.6 L 33.0 5.6 " fill="none" stroke="#000000" stroke-width="1.00" transform="matrix(1.00, 0.00, 0.00, -1.00, 274.0, 17.1)"></path></g></g><g><clipPath id="clip0x6080012a4ce0"><path d="M 324.0 1.8 L 358.7 1.8 L 358.7 18.2 L 324.0 18.2 Z M 324.0 1.8 "></path></clipPath><g clip-path="url(#clip0x6080012a4ce0)"><path d="M 0.0 6.6 L 6.5 6.6 L 8.8 0.0 L 10.5 12.8 L 14.0 0.2 L 17.0 12.7 L 19.3 0.1 C 19.9 2.3 20.5 4.5 21.1 6.6 C 21.7 8.7 22.3 10.8 23.0 12.8 L 26.2 5.6 L 33.0 5.6 " fill="none" stroke="#000000" stroke-width="1.00" transform="matrix(1.00, 0.00, 0.00, -1.00, 325.0, 17.1)"></path></g></g><g><clipPath id="clip0x6080012a1440"><path d="M 374.9 1.8 L 409.7 1.8 L 409.7 18.2 L 374.9 18.2 Z M 374.9 1.8 "></path></clipPath><g clip-path="url(#clip0x6080012a1440)"><path d="M 0.0 6.6 L 6.5 6.6 L 8.8 0.0 L 10.5 12.8 L 14.0 0.2 L 17.0 12.7 L 19.3 0.1 C 19.9 2.3 20.5 4.5 21.1 6.6 C 21.7 8.7 22.3 10.8 23.0 12.8 L 26.2 5.6 L 33.0 5.6 " fill="none" stroke="#000000" stroke-width="1.00" transform="matrix(1.00, 0.00, 0.00, -1.00, 376.0, 17.1)"></path></g></g><g><clipPath id="clip0x6080012ad1a0"><path d="M 425.9 1.8 L 460.7 1.8 L 460.7 18.2 L 425.9 18.2 Z M 425.9 1.8 "></path></clipPath><g clip-path="url(#clip0x6080012ad1a0)"><path d="M 0.1 6.6 L 6.5 6.6 L 8.8 0.0 L 10.5 12.8 L 14.0 0.2 L 17.0 12.7 L 19.3 0.1 C 19.9 2.3 20.5 4.5 21.1 6.6 C 21.7 8.7 22.3 10.8 23.0 12.8 L 26.2 5.6 L 33.1 5.6 " fill="none" stroke="#000000" stroke-width="1.00" transform="matrix(1.00, 0.00, 0.00, -1.00, 426.9, 17.1)"></path></g></g><g><clipPath id="clip0x6080010b29c0"><path d="M 476.9 1.8 L 511.7 1.8 L 511.7 18.2 L 476.9 18.2 Z M 476.9 1.8 "></path></clipPath><g clip-path="url(#clip0x6080010b29c0)"><path d="M 0.1 6.6 L 6.5 6.6 L 8.8 0.0 L 10.5 12.8 L 14.0 0.2 L 17.0 12.7 L 19.3 0.1 C 19.9 2.3 20.5 4.5 21.1 6.6 C 21.7 8.7 22.3 10.8 23.0 12.8 L 26.2 5.6 L 33.1 5.6 " fill="none" stroke="#000000" stroke-width="1.00" transform="matrix(1.00, 0.00, 0.00, -1.00, 477.9, 17.1)"></path></g></g><g><clipPath id="clip0x6080012a6f60"><path d="M 527.9 1.8 L 562.7 1.8 L 562.7 18.2 L 527.9 18.2 Z M 527.9 1.8 "></path></clipPath><g clip-path="url(#clip0x6080012a6f60)"><path d="M 0.1 6.6 L 6.5 6.6 L 8.8 0.0 L 10.5 12.8 L 14.0 0.2 L 17.0 12.7 L 19.3 0.1 C 19.9 2.3 20.5 4.5 21.1 6.6 C 21.7 8.7 22.3 10.8 23.0 12.8 L 26.2 5.6 L 33.1 5.6 " fill="none" stroke="#000000" stroke-width="1.00" transform="matrix(1.00, 0.00, 0.00, -1.00, 528.9, 17.1)"></path></g></g></g></svg>