<?xml version="1.0" encoding="UTF-8" standalone="no"?><svg xmlns="http://www.w3.org/2000/svg" xmlns:xlink="http://www.w3.org/1999/xlink" clip-rule="evenodd" stroke-miterlimit="10" viewBox="0 0 34 77"><desc>SVG generated by Keynote</desc><defs></defs><g transform="matrix(1.00, 0.00, -0.00, -1.00, 0.0, 77.0)"><g><clipPath id="clip0x6000012bad00"><path d="M 5.4 27.1 L 28.5 27.1 L 28.5 50.2 L 5.4 50.2 Z M 5.4 27.1 "></path></clipPath><g clip-path="url(#clip0x6000012bad00)"><path d="M 24.4 46.1 C 28.6 42.0 28.6 35.3 24.4 31.2 C 20.3 27.0 13.6 27.0 9.5 31.2 C 5.3 35.3 5.3 42.0 9.5 46.1 C 13.6 50.3 20.3 50.3 24.4 46.1 Z M 24.4 46.1 " fill="#C82505"></path></g></g><g><clipPath id="clip0x6000012bddc0"><path d="M 0.3 54.8 L 33.6 54.8 L 33.6 66.4 L 0.3 66.4 Z M 0.3 54.8 "></path></clipPath><g clip-path="url(#clip0x6000012bddc0)"><path d="M 0.0 8.8 C 8.8 -2.4 19.0 -2.9 30.6 7.2 " fill="none" stroke="#000000" stroke-width="1.00" transform="matrix(1.00, 0.00, 0.00, -1.00, 1.7, 64.9)"></path></g></g><g><clipPath id="clip0x6000012acea0"><path d="M 0.3 64.8 L 33.6 64.8 L 33.6 76.4 L 0.3 76.4 Z M 0.3 64.8 "></path></clipPath><g clip-path="url(#clip0x6000012acea0)"><path d="M 0.0 8.8 C 8.8 -2.4 19.0 -2.9 30.6 7.2 " fill="none" stroke="#000000" stroke-width="1.00" transform="matrix(1.00, 0.00, 0.00, -1.00, 1.7, 74.9)"></path></g></g><g><clipPath id="clip0x6000012b8720"><path d="M 33.6 10.6 L 0.3 10.6 L 0.3 22.2 L 33.6 22.2 Z M 33.6 10.6 "></path></clipPath><g clip-path="url(#clip0x6000012b8720)"><path d="M 0.0 8.8 C 8.8 -2.4 19.0 -2.9 30.6 7.2 " fill="none" stroke="#000000" stroke-width="1.00" transform="matrix(-1.00, 0.00, 0.00, 1.00, 32.2, 12.1)"></path></g></g><g><clipPath id="clip0x6000012bd940"><path d="M 33.6 0.6 L 0.3 0.6 L 0.3 12.2 L 33.6 12.2 Z M 33.6 0.6 "></path></clipPath><g clip-path="url(#clip0x6000012bd940)"><path d="M 0.0 8.8 C 8.8 -2.4 19.0 -2.9 30.6 7.2 " fill="none" stroke="#000000" stroke-width="1.00" transform="matrix(-1.00, 0.00, 0.00, 1.00, 32.2, 2.1)"></path></g></g></g></svg>